solid OpenSCAD_Model
  facet normal -1 0 0
    outer loop
      vertex 0 24.9885 6.05
      vertex 0 11.5757 14.7222
      vertex 0 11.5757 15.2778
    endloop
  endfacet
  facet normal -1 0 0
    outer loop
      vertex 0 25 18.9657
      vertex 0 0 30
      vertex 0 25 30
    endloop
  endfacet
  facet normal -1 0 0
    outer loop
      vertex 0 25.5699 17.4
      vertex 0 0 30
      vertex 0 25 18.9657
    endloop
  endfacet
  facet normal -1 0 0
    outer loop
      vertex 0 27.5 10.4
      vertex 0 0 30
      vertex 0 25.5699 17.4
    endloop
  endfacet
  facet normal -1 0 0
    outer loop
      vertex 0 34.9 15
      vertex 0 34.9 0
      vertex 0 29.3329 15
    endloop
  endfacet
  facet normal -1 0 0
    outer loop
      vertex 0 34.9 0
      vertex 0 26.6861 16.0698
      vertex 0 28.1899 15.2015
    endloop
  endfacet
  facet normal -1 0 0
    outer loop
      vertex 0 34.9 0
      vertex 0 28.1899 15.2015
      vertex 0 29.3329 15
    endloop
  endfacet
  facet normal -1 0 0
    outer loop
      vertex 0 10 13.4
      vertex 0 34.9 0
      vertex 0 9.45277 13.4965
    endloop
  endfacet
  facet normal -1 0 -0
    outer loop
      vertex 0 0 0
      vertex 0 0 30
      vertex 0 8.42431 15.2778
    endloop
  endfacet
  facet normal -1 0 0
    outer loop
      vertex 0 0 0
      vertex 0 8.42431 15.2778
      vertex 0 8.42431 14.7222
    endloop
  endfacet
  facet normal -1 0 0
    outer loop
      vertex 0 0 0
      vertex 0 8.42431 14.7222
      vertex 0 8.61436 14.2
    endloop
  endfacet
  facet normal -1 0 0
    outer loop
      vertex 0 25.6359 5.27847
      vertex 0 26.5081 4.77489
      vertex 0 10.5472 13.4965
    endloop
  endfacet
  facet normal -1 0 0
    outer loop
      vertex 0 0 0
      vertex 0 8.61436 14.2
      vertex 0 8.97154 13.7743
    endloop
  endfacet
  facet normal -1 0 0
    outer loop
      vertex 0 0 0
      vertex 0 8.97154 13.7743
      vertex 0 9.45277 13.4965
    endloop
  endfacet
  facet normal -1 -0 0
    outer loop
      vertex 0 0 0
      vertex 0 9.45277 13.4965
      vertex 0 34.9 0
    endloop
  endfacet
  facet normal -1 0 0
    outer loop
      vertex 0 10.5472 13.4965
      vertex 0 34.9 0
      vertex 0 10 13.4
    endloop
  endfacet
  facet normal -1 0 0
    outer loop
      vertex 0 26.5081 4.77489
      vertex 0 34.9 0
      vertex 0 10.5472 13.4965
    endloop
  endfacet
  facet normal -1 0 0
    outer loop
      vertex 0 27.5 4.6
      vertex 0 34.9 0
      vertex 0 26.5081 4.77489
    endloop
  endfacet
  facet normal -1 0 -0
    outer loop
      vertex 0 24.6441 8.00358
      vertex 0 0 30
      vertex 0 24.9885 8.95
    endloop
  endfacet
  facet normal -1 -0 -0
    outer loop
      vertex 0 10.5472 16.5035
      vertex 0 0 30
      vertex 0 11.0285 16.2257
    endloop
  endfacet
  facet normal -1 0 -0
    outer loop
      vertex 0 9.45277 16.5035
      vertex 0 0 30
      vertex 0 10 16.6
    endloop
  endfacet
  facet normal -1 0 0
    outer loop
      vertex 0 25.6359 5.27847
      vertex 0 11.3856 14.2
      vertex 0 24.9885 6.05
    endloop
  endfacet
  facet normal -1 -0 -0
    outer loop
      vertex 0 10 16.6
      vertex 0 0 30
      vertex 0 10.5472 16.5035
    endloop
  endfacet
  facet normal -1 -0 -0
    outer loop
      vertex 0 11.0285 16.2257
      vertex 0 0 30
      vertex 0 11.3856 15.8
    endloop
  endfacet
  facet normal -1 0 -0
    outer loop
      vertex 0 8.97154 16.2257
      vertex 0 0 30
      vertex 0 9.45277 16.5035
    endloop
  endfacet
  facet normal -1 0 -0
    outer loop
      vertex 0 8.61436 15.8
      vertex 0 0 30
      vertex 0 8.97154 16.2257
    endloop
  endfacet
  facet normal -1 0 -0
    outer loop
      vertex 0 8.42431 15.2778
      vertex 0 0 30
      vertex 0 8.61436 15.8
    endloop
  endfacet
  facet normal -1 -0 -0
    outer loop
      vertex 0 11.3856 15.8
      vertex 0 0 30
      vertex 0 24.6441 8.00358
    endloop
  endfacet
  facet normal -1 0 0
    outer loop
      vertex 0 11.3856 15.8
      vertex 0 24.6441 8.00358
      vertex 0 24.6441 6.99642
    endloop
  endfacet
  facet normal -1 -0 0
    outer loop
      vertex 0 11.3856 14.2
      vertex 0 11.5757 14.7222
      vertex 0 24.9885 6.05
    endloop
  endfacet
  facet normal -1 0 0
    outer loop
      vertex 0 24.9885 6.05
      vertex 0 11.3856 15.8
      vertex 0 24.6441 6.99642
    endloop
  endfacet
  facet normal -1 0 0
    outer loop
      vertex 0 25.6359 5.27847
      vertex 0 11.0285 13.7743
      vertex 0 11.3856 14.2
    endloop
  endfacet
  facet normal -1 0 0
    outer loop
      vertex 0 28.4919 4.77489
      vertex 0 34.9 0
      vertex 0 27.5 4.6
    endloop
  endfacet
  facet normal -1 0 0
    outer loop
      vertex 0 29.3641 5.27847
      vertex 0 34.9 0
      vertex 0 28.4919 4.77489
    endloop
  endfacet
  facet normal -1 0 0
    outer loop
      vertex 0 34.9 0
      vertex 0 29.3641 5.27847
      vertex 0 30.0115 6.05
    endloop
  endfacet
  facet normal -1 0 0
    outer loop
      vertex 0 34.9 0
      vertex 0 30.0115 6.05
      vertex 0 30.3559 6.99642
    endloop
  endfacet
  facet normal -1 0 0
    outer loop
      vertex 0 34.9 0
      vertex 0 30.3559 6.99642
      vertex 0 30.3559 8.00358
    endloop
  endfacet
  facet normal -1 0 0
    outer loop
      vertex 0 34.9 0
      vertex 0 30.3559 8.00358
      vertex 0 30.0115 8.95
    endloop
  endfacet
  facet normal -1 0 0
    outer loop
      vertex 0 34.9 0
      vertex 0 30.0115 8.95
      vertex 0 25.5699 17.4
    endloop
  endfacet
  facet normal -1 -0 -0
    outer loop
      vertex 0 28.4919 10.2251
      vertex 0 25.5699 17.4
      vertex 0 29.3641 9.72153
    endloop
  endfacet
  facet normal -1 -0 -0
    outer loop
      vertex 0 27.5 10.4
      vertex 0 25.5699 17.4
      vertex 0 28.4919 10.2251
    endloop
  endfacet
  facet normal -1 0 -0
    outer loop
      vertex 0 26.5081 10.2251
      vertex 0 0 30
      vertex 0 27.5 10.4
    endloop
  endfacet
  facet normal -1 0 -0
    outer loop
      vertex 0 24.9885 8.95
      vertex 0 0 30
      vertex 0 25.6359 9.72153
    endloop
  endfacet
  facet normal -1 0 -0
    outer loop
      vertex 0 25.6359 9.72153
      vertex 0 0 30
      vertex 0 26.5081 10.2251
    endloop
  endfacet
  facet normal -1 0 0
    outer loop
      vertex 0 24.9885 6.05
      vertex 0 11.5757 15.2778
      vertex 0 11.3856 15.8
    endloop
  endfacet
  facet normal -1 -0 -0
    outer loop
      vertex 0 29.3641 9.72153
      vertex 0 25.5699 17.4
      vertex 0 30.0115 8.95
    endloop
  endfacet
  facet normal -1 0 0
    outer loop
      vertex 0 26.6861 16.0698
      vertex 0 34.9 0
      vertex 0 25.5699 17.4
    endloop
  endfacet
  facet normal -1 0 0
    outer loop
      vertex 0 11.0285 13.7743
      vertex 0 25.6359 5.27847
      vertex 0 10.5472 13.4965
    endloop
  endfacet
  facet normal 0 -1 0
    outer loop
      vertex 0 0 30
      vertex 0 0 0
      vertex 5 0 0
    endloop
  endfacet
  facet normal 0 -1 0
    outer loop
      vertex 5 0 30
      vertex 0 0 30
      vertex 5 0 0
    endloop
  endfacet
  facet normal -0 -0 -1
    outer loop
      vertex 0 0 0
      vertex 0 34.9 0
      vertex 5 0 0
    endloop
  endfacet
  facet normal 0 -0 -1
    outer loop
      vertex 5 19.9 0
      vertex 0 34.9 0
      vertex 70 34.9 0
    endloop
  endfacet
  facet normal -0 0 -1
    outer loop
      vertex 65.1 19.9 0
      vertex 70 34.9 0
      vertex 70 19.9 0
    endloop
  endfacet
  facet normal 0 0 -1
    outer loop
      vertex 5 0 0
      vertex 0 34.9 0
      vertex 5 19.9 0
    endloop
  endfacet
  facet normal -0 0 -1
    outer loop
      vertex 5 19.9 0
      vertex 70 34.9 0
      vertex 65.1 19.9 0
    endloop
  endfacet
  facet normal 0 1 0
    outer loop
      vertex 0 34.9 0
      vertex 0 34.9 15
      vertex 70 34.9 0
    endloop
  endfacet
  facet normal 0 1 0
    outer loop
      vertex 62 34.9 11.8518
      vertex 0 34.9 15
      vertex 70 34.9 15
    endloop
  endfacet
  facet normal 0 1 0
    outer loop
      vertex 62 34.9 3.14822
      vertex 0 34.9 15
      vertex 62 34.9 11.8518
    endloop
  endfacet
  facet normal -0 1 0
    outer loop
      vertex 65.2 34.9 11.8518
      vertex 62 34.9 11.8518
      vertex 70 34.9 15
    endloop
  endfacet
  facet normal 0 1 0
    outer loop
      vertex 70 34.9 0
      vertex 0 34.9 15
      vertex 62 34.9 3.14822
    endloop
  endfacet
  facet normal 0 1 0
    outer loop
      vertex 70 34.9 0
      vertex 62 34.9 3.14822
      vertex 65.2 34.9 3.14822
    endloop
  endfacet
  facet normal 0 1 0
    outer loop
      vertex 70 34.9 0
      vertex 65.2 34.9 11.8518
      vertex 70 34.9 15
    endloop
  endfacet
  facet normal 0 1 -0
    outer loop
      vertex 65.2 34.9 11.8518
      vertex 70 34.9 0
      vertex 65.2 34.9 3.14822
    endloop
  endfacet
  facet normal 0 0 1
    outer loop
      vertex 65.1 19.9 15
      vertex 70 19.9 15
      vertex 65 29.3329 15
    endloop
  endfacet
  facet normal 0 -0 1
    outer loop
      vertex 0 34.9 15
      vertex 0 29.3329 15
      vertex 65 29.3329 15
    endloop
  endfacet
  facet normal 0 0 1
    outer loop
      vertex 70 34.9 15
      vertex 0 34.9 15
      vertex 65 29.3329 15
    endloop
  endfacet
  facet normal 0 0 1
    outer loop
      vertex 65 19.9 15
      vertex 65.1 19.9 15
      vertex 65 29.3329 15
    endloop
  endfacet
  facet normal 0 0 1
    outer loop
      vertex 70 19.9 15
      vertex 70 34.9 15
      vertex 65 29.3329 15
    endloop
  endfacet
  facet normal -2.18092e-16 0.173648 0.984808
    outer loop
      vertex 65 28.1899 15.2015
      vertex 65 29.3329 15
      vertex 0 29.3329 15
    endloop
  endfacet
  facet normal -2.15307e-16 0.173648 0.984808
    outer loop
      vertex 0 28.1899 15.2015
      vertex 65 28.1899 15.2015
      vertex 0 29.3329 15
    endloop
  endfacet
  facet normal -1.89292e-16 0.5 0.866025
    outer loop
      vertex 65 26.6861 16.0698
      vertex 65 28.1899 15.2015
      vertex 0 28.1899 15.2015
    endloop
  endfacet
  facet normal -1.89338e-16 0.5 0.866025
    outer loop
      vertex 0 26.6861 16.0698
      vertex 65 26.6861 16.0698
      vertex 0 28.1899 15.2015
    endloop
  endfacet
  facet normal -1.40532e-16 0.766044 0.642788
    outer loop
      vertex 65 26.6861 16.0698
      vertex 0 26.6861 16.0698
      vertex 65 25.5699 17.4
    endloop
  endfacet
  facet normal -1.40532e-16 0.766044 0.642788
    outer loop
      vertex 65 25.5699 17.4
      vertex 0 26.6861 16.0698
      vertex 0 25.5699 17.4
    endloop
  endfacet
  facet normal 8.65488e-18 0.939693 0.34202
    outer loop
      vertex 12.5 25.2897 18.1699
      vertex 0 25.5699 17.4
      vertex 0 25 18.9657
    endloop
  endfacet
  facet normal -7.3413e-17 0.939693 0.34202
    outer loop
      vertex 18.4484 25 18.9657
      vertex 51.5516 25 18.9657
      vertex 17.5 25.2897 18.1699
    endloop
  endfacet
  facet normal -0 0.939693 0.34202
    outer loop
      vertex 11.5516 25 18.9657
      vertex 12.5 25.2897 18.1699
      vertex 0 25 18.9657
    endloop
  endfacet
  facet normal -7.47754e-17 0.939693 0.34202
    outer loop
      vertex 65 25.5699 17.4
      vertex 0 25.5699 17.4
      vertex 14.1318 25.5058 17.576
    endloop
  endfacet
  facet normal 0 0.939693 0.34202
    outer loop
      vertex 65 25.5699 17.4
      vertex 14.1318 25.5058 17.576
      vertex 15.8682 25.5058 17.576
    endloop
  endfacet
  facet normal -4.2886e-17 0.939693 0.34202
    outer loop
      vertex 57.5 25.2897 18.1699
      vertex 65 25.5699 17.4
      vertex 55.8682 25.5058 17.576
    endloop
  endfacet
  facet normal -9.53845e-17 0.939693 0.34202
    outer loop
      vertex 52.5 25.2897 18.1699
      vertex 17.5 25.2897 18.1699
      vertex 51.5516 25 18.9657
    endloop
  endfacet
  facet normal 0 7.3945e-18 0
    outer loop
      vertex 65 25 18.9657
      vertex 18.4484 25 18.9657
      vertex 0 25 18.9657
    endloop
  endfacet
  facet normal 0 1.20582e-16 0
    outer loop
      vertex 18.4484 25 18.9657
      vertex 11.5516 25 18.9657
      vertex 0 25 18.9657
    endloop
  endfacet
  facet normal -8.72491e-17 0.939693 0.34202
    outer loop
      vertex 54.1318 25.5058 17.576
      vertex 15.8682 25.5058 17.576
      vertex 52.5 25.2897 18.1699
    endloop
  endfacet
  facet normal -8.7126e-17 0.939693 0.34202
    outer loop
      vertex 65 25.5699 17.4
      vertex 15.8682 25.5058 17.576
      vertex 54.1318 25.5058 17.576
    endloop
  endfacet
  facet normal 0 0.939693 0.34202
    outer loop
      vertex 65 25.5699 17.4
      vertex 54.1318 25.5058 17.576
      vertex 55.8682 25.5058 17.576
    endloop
  endfacet
  facet normal -1.85467e-16 0.939693 0.34202
    outer loop
      vertex 58.4484 25 18.9657
      vertex 65 25 18.9657
      vertex 57.5 25.2897 18.1699
    endloop
  endfacet
  facet normal -2.18332e-16 0.939693 0.34202
    outer loop
      vertex 65 25.5699 17.4
      vertex 57.5 25.2897 18.1699
      vertex 65 25 18.9657
    endloop
  endfacet
  facet normal -9.53845e-17 0.939693 0.34202
    outer loop
      vertex 52.5 25.2897 18.1699
      vertex 15.8682 25.5058 17.576
      vertex 17.5 25.2897 18.1699
    endloop
  endfacet
  facet normal 0 1.35478e-16 0
    outer loop
      vertex 65 25 18.9657
      vertex 58.4484 25 18.9657
      vertex 51.5516 25 18.9657
    endloop
  endfacet
  facet normal 0 1.01746e-17 0
    outer loop
      vertex 65 25 18.9657
      vertex 51.5516 25 18.9657
      vertex 18.4484 25 18.9657
    endloop
  endfacet
  facet normal -7.3905e-17 0.939693 0.34202
    outer loop
      vertex 14.1318 25.5058 17.576
      vertex 0 25.5699 17.4
      vertex 12.5 25.2897 18.1699
    endloop
  endfacet
  facet normal 0 1 0
    outer loop
      vertex 15.8682 25 27.424
      vertex 0 25 30
      vertex 65 25 30
    endloop
  endfacet
  facet normal 0 1 0
    outer loop
      vertex 0 25 18.9657
      vertex 0 25 30
      vertex 10.3015 25 24.2101
    endloop
  endfacet
  facet normal 0 1 0
    outer loop
      vertex 0 25 18.9657
      vertex 10.3015 25 24.2101
      vertex 10 25 22.5
    endloop
  endfacet
  facet normal 0 1 0
    outer loop
      vertex 0 25 18.9657
      vertex 10 25 22.5
      vertex 13.4965 25 21.9528
    endloop
  endfacet
  facet normal 0 1 0
    outer loop
      vertex 0 25 18.9657
      vertex 13.4965 25 21.9528
      vertex 13.7743 25 21.4715
    endloop
  endfacet
  facet normal 0 1 0
    outer loop
      vertex 0 25 18.9657
      vertex 13.7743 25 21.4715
      vertex 14.2 25 21.1144
    endloop
  endfacet
  facet normal 0 1 0
    outer loop
      vertex 0 25 18.9657
      vertex 14.2 25 21.1144
      vertex 14.7222 25 20.9243
    endloop
  endfacet
  facet normal 0 1 0
    outer loop
      vertex 0 25 18.9657
      vertex 14.7222 25 20.9243
      vertex 65 25 18.9657
    endloop
  endfacet
  facet normal 0 1 0
    outer loop
      vertex 14.7222 25 20.9243
      vertex 15.2778 25 20.9243
      vertex 65 25 18.9657
    endloop
  endfacet
  facet normal 0 1 -0
    outer loop
      vertex 16.2257 25 21.4715
      vertex 65 25 18.9657
      vertex 15.8 25 21.1144
    endloop
  endfacet
  facet normal 0 1 -0
    outer loop
      vertex 16.5035 25 21.9528
      vertex 65 25 18.9657
      vertex 16.2257 25 21.4715
    endloop
  endfacet
  facet normal 0 1 -0
    outer loop
      vertex 15.8 25 21.1144
      vertex 65 25 18.9657
      vertex 15.2778 25 20.9243
    endloop
  endfacet
  facet normal 0 1 -0
    outer loop
      vertex 16.6 25 22.5
      vertex 65 25 18.9657
      vertex 16.5035 25 21.9528
    endloop
  endfacet
  facet normal 0 1 0
    outer loop
      vertex 19.6985 25 24.2101
      vertex 65 25 18.9657
      vertex 20 25 22.5
    endloop
  endfacet
  facet normal 0 1 0
    outer loop
      vertex 16.6 25 22.5
      vertex 20 25 22.5
      vertex 65 25 18.9657
    endloop
  endfacet
  facet normal 0 1 0
    outer loop
      vertex 53.7743 25 21.4715
      vertex 50 25 22.5
      vertex 53.4965 25 21.9528
    endloop
  endfacet
  facet normal 0 1 0
    outer loop
      vertex 15.8682 25 27.424
      vertex 65 25 18.9657
      vertex 17.5 25 26.8301
    endloop
  endfacet
  facet normal 0 1 0
    outer loop
      vertex 11.1698 25 25.7139
      vertex 0 25 30
      vertex 12.5 25 26.8301
    endloop
  endfacet
  facet normal 0 1 0
    outer loop
      vertex 19.6985 25 24.2101
      vertex 18.8302 25 25.7139
      vertex 65 25 18.9657
    endloop
  endfacet
  facet normal 0 1 0
    outer loop
      vertex 12.5 25 26.8301
      vertex 0 25 30
      vertex 14.1318 25 27.424
    endloop
  endfacet
  facet normal 0 1 0
    outer loop
      vertex 18.8302 25 25.7139
      vertex 17.5 25 26.8301
      vertex 65 25 18.9657
    endloop
  endfacet
  facet normal 0 1 0
    outer loop
      vertex 14.1318 25 27.424
      vertex 0 25 30
      vertex 15.8682 25 27.424
    endloop
  endfacet
  facet normal -0 1 0
    outer loop
      vertex 54.1318 25 27.424
      vertex 15.8682 25 27.424
      vertex 65 25 30
    endloop
  endfacet
  facet normal 0 1 0
    outer loop
      vertex 10.3015 25 24.2101
      vertex 0 25 30
      vertex 11.1698 25 25.7139
    endloop
  endfacet
  facet normal 0 1 0
    outer loop
      vertex 50 25 22.5
      vertex 15.8682 25 27.424
      vertex 50.3015 25 24.2101
    endloop
  endfacet
  facet normal 0 1 0
    outer loop
      vertex 53.7743 25 21.4715
      vertex 15.8682 25 27.424
      vertex 50 25 22.5
    endloop
  endfacet
  facet normal 0 1 0
    outer loop
      vertex 53.4965 25 21.9528
      vertex 50 25 22.5
      vertex 53.4 25 22.5
    endloop
  endfacet
  facet normal 0 1 0
    outer loop
      vertex 54.2 25 21.1144
      vertex 15.8682 25 27.424
      vertex 53.7743 25 21.4715
    endloop
  endfacet
  facet normal 0 1 -0
    outer loop
      vertex 55.2778 25 20.9243
      vertex 65 25 18.9657
      vertex 54.7222 25 20.9243
    endloop
  endfacet
  facet normal 0 1 0
    outer loop
      vertex 54.7222 25 20.9243
      vertex 15.8682 25 27.424
      vertex 54.2 25 21.1144
    endloop
  endfacet
  facet normal 0 1 0
    outer loop
      vertex 65 25 18.9657
      vertex 15.8682 25 27.424
      vertex 54.7222 25 20.9243
    endloop
  endfacet
  facet normal 0 1 -0
    outer loop
      vertex 55.8 25 21.1144
      vertex 65 25 18.9657
      vertex 55.2778 25 20.9243
    endloop
  endfacet
  facet normal 0 1 -0
    outer loop
      vertex 56.2257 25 21.4715
      vertex 65 25 18.9657
      vertex 55.8 25 21.1144
    endloop
  endfacet
  facet normal 0 1 -0
    outer loop
      vertex 56.5035 25 21.9528
      vertex 65 25 18.9657
      vertex 56.2257 25 21.4715
    endloop
  endfacet
  facet normal 0 1 -0
    outer loop
      vertex 56.6 25 22.5
      vertex 65 25 18.9657
      vertex 56.5035 25 21.9528
    endloop
  endfacet
  facet normal 0 1 0
    outer loop
      vertex 58.8302 25 25.7139
      vertex 65 25 30
      vertex 59.6985 25 24.2101
    endloop
  endfacet
  facet normal 0 1 0
    outer loop
      vertex 65 25 18.9657
      vertex 56.6 25 22.5
      vertex 60 25 22.5
    endloop
  endfacet
  facet normal 0 1 0
    outer loop
      vertex 65 25 18.9657
      vertex 60 25 22.5
      vertex 65 25 30
    endloop
  endfacet
  facet normal 0 1 0
    outer loop
      vertex 60 25 22.5
      vertex 59.6985 25 24.2101
      vertex 65 25 30
    endloop
  endfacet
  facet normal 0 1 0
    outer loop
      vertex 55.8682 25 27.424
      vertex 65 25 30
      vertex 57.5 25 26.8301
    endloop
  endfacet
  facet normal 0 1 0
    outer loop
      vertex 58.8302 25 25.7139
      vertex 57.5 25 26.8301
      vertex 65 25 30
    endloop
  endfacet
  facet normal 0 1 0
    outer loop
      vertex 52.5 25 26.8301
      vertex 15.8682 25 27.424
      vertex 54.1318 25 27.424
    endloop
  endfacet
  facet normal -0 1 0
    outer loop
      vertex 55.8682 25 27.424
      vertex 54.1318 25 27.424
      vertex 65 25 30
    endloop
  endfacet
  facet normal 0 1 0
    outer loop
      vertex 51.1698 25 25.7139
      vertex 15.8682 25 27.424
      vertex 52.5 25 26.8301
    endloop
  endfacet
  facet normal 0 1 0
    outer loop
      vertex 50.3015 25 24.2101
      vertex 15.8682 25 27.424
      vertex 51.1698 25 25.7139
    endloop
  endfacet
  facet normal 0 1 0
    outer loop
      vertex 13.4965 25 21.9528
      vertex 10 25 22.5
      vertex 13.4 25 22.5
    endloop
  endfacet
  facet normal 0 -0 1
    outer loop
      vertex 0 25 30
      vertex 0 0 30
      vertex 5 0 30
    endloop
  endfacet
  facet normal -0 0 1
    outer loop
      vertex 65 19.9 30
      vertex 0 25 30
      vertex 5 19.9 30
    endloop
  endfacet
  facet normal -0 0 1
    outer loop
      vertex 5 19.9 30
      vertex 0 25 30
      vertex 5 0 30
    endloop
  endfacet
  facet normal 0 0 1
    outer loop
      vertex 65 25 30
      vertex 0 25 30
      vertex 65 19.9 30
    endloop
  endfacet
  facet normal 0 1 0
    outer loop
      vertex 5 8.42431 15.2778
      vertex 5 8.42431 14.7222
      vertex 0 8.42431 15.2778
    endloop
  endfacet
  facet normal 0 1 -0
    outer loop
      vertex 0 8.42431 15.2778
      vertex 5 8.42431 14.7222
      vertex 0 8.42431 14.7222
    endloop
  endfacet
  facet normal 1.2151e-16 0.939693 -0.342019
    outer loop
      vertex 5 8.61436 15.8
      vertex 5 8.42431 15.2778
      vertex 0 8.61436 15.8
    endloop
  endfacet
  facet normal 0 0.939693 -0.342019
    outer loop
      vertex 0 8.61436 15.8
      vertex 5 8.42431 15.2778
      vertex 0 8.42431 15.2778
    endloop
  endfacet
  facet normal 0 0.766044 -0.642788
    outer loop
      vertex 5 8.97154 16.2257
      vertex 5 8.61436 15.8
      vertex 0 8.97154 16.2257
    endloop
  endfacet
  facet normal 2.23014e-16 0.766044 -0.642788
    outer loop
      vertex 0 8.97154 16.2257
      vertex 5 8.61436 15.8
      vertex 0 8.61436 15.8
    endloop
  endfacet
  facet normal 0 0.5 -0.866025
    outer loop
      vertex 5 9.45277 16.5035
      vertex 5 8.97154 16.2257
      vertex 0 9.45277 16.5035
    endloop
  endfacet
  facet normal 0 0.5 -0.866025
    outer loop
      vertex 0 9.45277 16.5035
      vertex 5 8.97154 16.2257
      vertex 0 8.97154 16.2257
    endloop
  endfacet
  facet normal 0 0.173649 -0.984808
    outer loop
      vertex 5 10 16.6
      vertex 5 9.45277 16.5035
      vertex 0 10 16.6
    endloop
  endfacet
  facet normal 0 0.173649 -0.984808
    outer loop
      vertex 0 10 16.6
      vertex 5 9.45277 16.5035
      vertex 0 9.45277 16.5035
    endloop
  endfacet
  facet normal 0 -0.173649 -0.984808
    outer loop
      vertex 5 10.5472 16.5035
      vertex 5 10 16.6
      vertex 0 10.5472 16.5035
    endloop
  endfacet
  facet normal 0 -0.173649 -0.984808
    outer loop
      vertex 0 10.5472 16.5035
      vertex 5 10 16.6
      vertex 0 10 16.6
    endloop
  endfacet
  facet normal 0 -0.5 -0.866025
    outer loop
      vertex 5 11.0285 16.2257
      vertex 5 10.5472 16.5035
      vertex 0 11.0285 16.2257
    endloop
  endfacet
  facet normal 0 -0.5 -0.866025
    outer loop
      vertex 0 11.0285 16.2257
      vertex 5 10.5472 16.5035
      vertex 0 10.5472 16.5035
    endloop
  endfacet
  facet normal 2.28364e-16 -0.766044 -0.642788
    outer loop
      vertex 0 11.3856 15.8
      vertex 5 11.3856 15.8
      vertex 5 11.0285 16.2257
    endloop
  endfacet
  facet normal -0 -0.766044 -0.642788
    outer loop
      vertex 0 11.0285 16.2257
      vertex 0 11.3856 15.8
      vertex 5 11.0285 16.2257
    endloop
  endfacet
  facet normal -0 -0.939693 -0.342019
    outer loop
      vertex 0 11.5757 15.2778
      vertex 5 11.5757 15.2778
      vertex 5 11.3856 15.8
    endloop
  endfacet
  facet normal 1.2151e-16 -0.939693 -0.342019
    outer loop
      vertex 0 11.3856 15.8
      vertex 0 11.5757 15.2778
      vertex 5 11.3856 15.8
    endloop
  endfacet
  facet normal 0 -1 0
    outer loop
      vertex 5 11.5757 14.7222
      vertex 5 11.5757 15.2778
      vertex 0 11.5757 15.2778
    endloop
  endfacet
  facet normal -0 -1 -0
    outer loop
      vertex 0 11.5757 14.7222
      vertex 5 11.5757 14.7222
      vertex 0 11.5757 15.2778
    endloop
  endfacet
  facet normal 0 -0.939693 0.342019
    outer loop
      vertex 5 11.3856 14.2
      vertex 5 11.5757 14.7222
      vertex 0 11.5757 14.7222
    endloop
  endfacet
  facet normal -1.2151e-16 -0.939693 0.342019
    outer loop
      vertex 0 11.3856 14.2
      vertex 5 11.3856 14.2
      vertex 0 11.5757 14.7222
    endloop
  endfacet
  facet normal -2.23014e-16 -0.766044 0.642788
    outer loop
      vertex 5 11.0285 13.7743
      vertex 5 11.3856 14.2
      vertex 0 11.3856 14.2
    endloop
  endfacet
  facet normal 0 -0.766044 0.642788
    outer loop
      vertex 0 11.0285 13.7743
      vertex 5 11.0285 13.7743
      vertex 0 11.3856 14.2
    endloop
  endfacet
  facet normal 0 -0.5 0.866025
    outer loop
      vertex 5 10.5472 13.4965
      vertex 5 11.0285 13.7743
      vertex 0 11.0285 13.7743
    endloop
  endfacet
  facet normal 0 -0.5 0.866025
    outer loop
      vertex 0 10.5472 13.4965
      vertex 5 10.5472 13.4965
      vertex 0 11.0285 13.7743
    endloop
  endfacet
  facet normal 0 -0.173649 0.984808
    outer loop
      vertex 5 10 13.4
      vertex 5 10.5472 13.4965
      vertex 0 10.5472 13.4965
    endloop
  endfacet
  facet normal 0 -0.173649 0.984808
    outer loop
      vertex 0 10 13.4
      vertex 5 10 13.4
      vertex 0 10.5472 13.4965
    endloop
  endfacet
  facet normal 0 0.173649 0.984808
    outer loop
      vertex 5 9.45277 13.4965
      vertex 5 10 13.4
      vertex 0 10 13.4
    endloop
  endfacet
  facet normal 0 0.173649 0.984808
    outer loop
      vertex 0 9.45277 13.4965
      vertex 5 9.45277 13.4965
      vertex 0 10 13.4
    endloop
  endfacet
  facet normal 0 0.5 0.866025
    outer loop
      vertex 5 8.97154 13.7743
      vertex 5 9.45277 13.4965
      vertex 0 9.45277 13.4965
    endloop
  endfacet
  facet normal 0 0.5 0.866025
    outer loop
      vertex 0 8.97154 13.7743
      vertex 5 8.97154 13.7743
      vertex 0 9.45277 13.4965
    endloop
  endfacet
  facet normal -0 0.766044 0.642788
    outer loop
      vertex 5 8.97154 13.7743
      vertex 0 8.97154 13.7743
      vertex 5 8.61436 14.2
    endloop
  endfacet
  facet normal -2.28364e-16 0.766044 0.642788
    outer loop
      vertex 5 8.61436 14.2
      vertex 0 8.97154 13.7743
      vertex 0 8.61436 14.2
    endloop
  endfacet
  facet normal -1.2151e-16 0.939693 0.342019
    outer loop
      vertex 5 8.61436 14.2
      vertex 0 8.61436 14.2
      vertex 5 8.42431 14.7222
    endloop
  endfacet
  facet normal -0 0.939693 0.342019
    outer loop
      vertex 5 8.42431 14.7222
      vertex 0 8.61436 14.2
      vertex 0 8.42431 14.7222
    endloop
  endfacet
  facet normal 7.83934e-17 0.939693 -0.34202
    outer loop
      vertex 62 24.9885 8.95
      vertex 62 24.6441 8.00358
      vertex 0 24.9885 8.95
    endloop
  endfacet
  facet normal 7.83168e-17 0.939693 -0.34202
    outer loop
      vertex 0 24.9885 8.95
      vertex 62 24.6441 8.00358
      vertex 0 24.6441 8.00358
    endloop
  endfacet
  facet normal 0 1 -0
    outer loop
      vertex 62 24.6441 8.00358
      vertex 62 24.6441 6.99642
      vertex 0 24.6441 8.00358
    endloop
  endfacet
  facet normal 0 1 -0
    outer loop
      vertex 0 24.6441 8.00358
      vertex 62 24.6441 6.99642
      vertex 0 24.6441 6.99642
    endloop
  endfacet
  facet normal 1.47332e-16 0.766044 -0.642788
    outer loop
      vertex 62 25.6359 9.72153
      vertex 62 24.9885 8.95
      vertex 0 25.6359 9.72153
    endloop
  endfacet
  facet normal 1.47188e-16 0.766044 -0.642788
    outer loop
      vertex 0 25.6359 9.72153
      vertex 62 24.9885 8.95
      vertex 0 24.9885 8.95
    endloop
  endfacet
  facet normal 1.73687e-16 0.5 -0.866025
    outer loop
      vertex 62 26.5081 10.2251
      vertex 62 25.6359 9.72153
      vertex 0 26.5081 10.2251
    endloop
  endfacet
  facet normal 1.98305e-16 0.5 -0.866025
    outer loop
      vertex 0 26.5081 10.2251
      vertex 62 25.6359 9.72153
      vertex 0 25.6359 9.72153
    endloop
  endfacet
  facet normal 2.25725e-16 0.173648 -0.984808
    outer loop
      vertex 62 27.5 10.4
      vertex 62 26.5081 10.2251
      vertex 0 27.5 10.4
    endloop
  endfacet
  facet normal 1.97744e-16 0.173648 -0.984808
    outer loop
      vertex 0 27.5 10.4
      vertex 62 26.5081 10.2251
      vertex 0 26.5081 10.2251
    endloop
  endfacet
  facet normal 1.9751e-16 -0.173648 -0.984808
    outer loop
      vertex 62 28.4919 10.2251
      vertex 62 27.5 10.4
      vertex 0 28.4919 10.2251
    endloop
  endfacet
  facet normal 2.25505e-16 -0.173648 -0.984808
    outer loop
      vertex 0 28.4919 10.2251
      vertex 62 27.5 10.4
      vertex 0 27.5 10.4
    endloop
  endfacet
  facet normal 1.98499e-16 -0.5 -0.866025
    outer loop
      vertex 62 29.3641 9.72153
      vertex 62 28.4919 10.2251
      vertex 0 29.3641 9.72153
    endloop
  endfacet
  facet normal 1.74269e-16 -0.5 -0.866025
    outer loop
      vertex 0 29.3641 9.72153
      vertex 62 28.4919 10.2251
      vertex 0 28.4919 10.2251
    endloop
  endfacet
  facet normal 1.47332e-16 -0.766044 -0.642788
    outer loop
      vertex 0 30.0115 8.95
      vertex 62 30.0115 8.95
      vertex 62 29.3641 9.72153
    endloop
  endfacet
  facet normal 1.47332e-16 -0.766044 -0.642788
    outer loop
      vertex 0 29.3641 9.72153
      vertex 0 30.0115 8.95
      vertex 62 29.3641 9.72153
    endloop
  endfacet
  facet normal 7.83934e-17 -0.939693 -0.34202
    outer loop
      vertex 0 30.3559 8.00358
      vertex 62 30.3559 8.00358
      vertex 62 30.0115 8.95
    endloop
  endfacet
  facet normal 7.83934e-17 -0.939693 -0.34202
    outer loop
      vertex 0 30.0115 8.95
      vertex 0 30.3559 8.00358
      vertex 62 30.0115 8.95
    endloop
  endfacet
  facet normal 0 -1 0
    outer loop
      vertex 62 30.3559 6.99642
      vertex 62 30.3559 8.00358
      vertex 0 30.3559 8.00358
    endloop
  endfacet
  facet normal 0 -1 -0
    outer loop
      vertex 0 30.3559 6.99642
      vertex 62 30.3559 6.99642
      vertex 0 30.3559 8.00358
    endloop
  endfacet
  facet normal -7.83168e-17 -0.939693 0.34202
    outer loop
      vertex 62 30.0115 6.05
      vertex 62 30.3559 6.99642
      vertex 0 30.3559 6.99642
    endloop
  endfacet
  facet normal -7.34938e-17 -0.939693 0.34202
    outer loop
      vertex 0 30.0115 6.05
      vertex 62 30.0115 6.05
      vertex 0 30.3559 6.99642
    endloop
  endfacet
  facet normal -1.38267e-16 -0.766044 0.642788
    outer loop
      vertex 62 29.3641 5.27847
      vertex 62 30.0115 6.05
      vertex 0 30.0115 6.05
    endloop
  endfacet
  facet normal -1.47332e-16 -0.766044 0.642788
    outer loop
      vertex 0 29.3641 5.27847
      vertex 62 29.3641 5.27847
      vertex 0 30.0115 6.05
    endloop
  endfacet
  facet normal -1.98306e-16 -0.5 0.866025
    outer loop
      vertex 62 28.4919 4.77489
      vertex 62 29.3641 5.27847
      vertex 0 29.3641 5.27847
    endloop
  endfacet
  facet normal -1.86093e-16 -0.5 0.866025
    outer loop
      vertex 0 28.4919 4.77489
      vertex 62 28.4919 4.77489
      vertex 0 29.3641 5.27847
    endloop
  endfacet
  facet normal -2.11838e-16 -0.173648 0.984808
    outer loop
      vertex 62 27.5 4.6
      vertex 62 28.4919 4.77489
      vertex 0 28.4919 4.77489
    endloop
  endfacet
  facet normal -2.25725e-16 -0.173648 0.984808
    outer loop
      vertex 0 27.5 4.6
      vertex 62 27.5 4.6
      vertex 0 28.4919 4.77489
    endloop
  endfacet
  facet normal -2.25505e-16 0.173648 0.984808
    outer loop
      vertex 62 26.5081 4.77489
      vertex 62 27.5 4.6
      vertex 0 27.5 4.6
    endloop
  endfacet
  facet normal -2.11617e-16 0.173648 0.984808
    outer loop
      vertex 0 26.5081 4.77489
      vertex 62 26.5081 4.77489
      vertex 0 27.5 4.6
    endloop
  endfacet
  facet normal -1.86287e-16 0.5 0.866025
    outer loop
      vertex 62 25.6359 5.27847
      vertex 62 26.5081 4.77489
      vertex 0 26.5081 4.77489
    endloop
  endfacet
  facet normal -1.98499e-16 0.5 0.866025
    outer loop
      vertex 0 25.6359 5.27847
      vertex 62 25.6359 5.27847
      vertex 0 26.5081 4.77489
    endloop
  endfacet
  facet normal -1.47332e-16 0.766044 0.642788
    outer loop
      vertex 62 25.6359 5.27847
      vertex 0 25.6359 5.27847
      vertex 62 24.9885 6.05
    endloop
  endfacet
  facet normal -1.38123e-16 0.766044 0.642788
    outer loop
      vertex 62 24.9885 6.05
      vertex 0 25.6359 5.27847
      vertex 0 24.9885 6.05
    endloop
  endfacet
  facet normal -7.34938e-17 0.939693 0.34202
    outer loop
      vertex 62 24.9885 6.05
      vertex 0 24.9885 6.05
      vertex 62 24.6441 6.99642
    endloop
  endfacet
  facet normal -7.83934e-17 0.939693 0.34202
    outer loop
      vertex 62 24.6441 6.99642
      vertex 0 24.9885 6.05
      vertex 0 24.6441 6.99642
    endloop
  endfacet
  facet normal 1 0 0
    outer loop
      vertex 5 9.45277 16.5035
      vertex 5 19.9 30
      vertex 5 0 30
    endloop
  endfacet
  facet normal 1 0 -0
    outer loop
      vertex 5 11.5757 14.7222
      vertex 5 11.3856 14.2
      vertex 5 19.9 0
    endloop
  endfacet
  facet normal 1 0 0
    outer loop
      vertex 5 0 0
      vertex 5 8.42431 15.2778
      vertex 5 0 30
    endloop
  endfacet
  facet normal 1 0 0
    outer loop
      vertex 5 8.42431 15.2778
      vertex 5 8.61436 15.8
      vertex 5 0 30
    endloop
  endfacet
  facet normal 1 0 0
    outer loop
      vertex 5 8.61436 15.8
      vertex 5 8.97154 16.2257
      vertex 5 0 30
    endloop
  endfacet
  facet normal 1 -0 0
    outer loop
      vertex 5 10 16.6
      vertex 5 19.9 30
      vertex 5 9.45277 16.5035
    endloop
  endfacet
  facet normal 1 0 0
    outer loop
      vertex 5 10.5472 16.5035
      vertex 5 19.9 30
      vertex 5 10 16.6
    endloop
  endfacet
  facet normal 1 0 -0
    outer loop
      vertex 5 11.3856 14.2
      vertex 5 11.0285 13.7743
      vertex 5 19.9 0
    endloop
  endfacet
  facet normal 1 0 0
    outer loop
      vertex 5 11.0285 16.2257
      vertex 5 19.9 30
      vertex 5 10.5472 16.5035
    endloop
  endfacet
  facet normal 1 0 0
    outer loop
      vertex 5 11.3856 15.8
      vertex 5 19.9 30
      vertex 5 11.0285 16.2257
    endloop
  endfacet
  facet normal 1 0 0
    outer loop
      vertex 5 19.9 0
      vertex 5 19.9 30
      vertex 5 11.3856 15.8
    endloop
  endfacet
  facet normal 1 0 0
    outer loop
      vertex 5 19.9 0
      vertex 5 11.3856 15.8
      vertex 5 11.5757 15.2778
    endloop
  endfacet
  facet normal 1 0 -0
    outer loop
      vertex 5 11.0285 13.7743
      vertex 5 10.5472 13.4965
      vertex 5 19.9 0
    endloop
  endfacet
  facet normal 1 0 -0
    outer loop
      vertex 5 11.5757 15.2778
      vertex 5 11.5757 14.7222
      vertex 5 19.9 0
    endloop
  endfacet
  facet normal 1 -0 -0
    outer loop
      vertex 5 10 13.4
      vertex 5 9.45277 13.4965
      vertex 5 19.9 0
    endloop
  endfacet
  facet normal 1 0 0
    outer loop
      vertex 5 0 0
      vertex 5 19.9 0
      vertex 5 9.45277 13.4965
    endloop
  endfacet
  facet normal 1 0 0
    outer loop
      vertex 5 0 0
      vertex 5 9.45277 13.4965
      vertex 5 8.97154 13.7743
    endloop
  endfacet
  facet normal 1 0 0
    outer loop
      vertex 5 0 0
      vertex 5 8.97154 13.7743
      vertex 5 8.61436 14.2
    endloop
  endfacet
  facet normal 1 0 0
    outer loop
      vertex 5 0 0
      vertex 5 8.42431 14.7222
      vertex 5 8.42431 15.2778
    endloop
  endfacet
  facet normal 1 0 0
    outer loop
      vertex 5 0 0
      vertex 5 8.61436 14.2
      vertex 5 8.42431 14.7222
    endloop
  endfacet
  facet normal 1 0 -0
    outer loop
      vertex 5 10.5472 13.4965
      vertex 5 10 13.4
      vertex 5 19.9 0
    endloop
  endfacet
  facet normal 1 0 0
    outer loop
      vertex 5 8.97154 16.2257
      vertex 5 9.45277 16.5035
      vertex 5 0 30
    endloop
  endfacet
  facet normal 0 -1 0
    outer loop
      vertex 65.1 19.9 0
      vertex 65.1 19.9 15
      vertex 65 19.9 15
    endloop
  endfacet
  facet normal 0 -1 0
    outer loop
      vertex 5 19.9 30
      vertex 65.1 19.9 0
      vertex 65 19.9 15
    endloop
  endfacet
  facet normal 0 -1 0
    outer loop
      vertex 54.7222 19.9 20.9243
      vertex 5 19.9 30
      vertex 65 19.9 15
    endloop
  endfacet
  facet normal 0 -1 0
    outer loop
      vertex 15.8 19.9 21.1144
      vertex 5 19.9 0
      vertex 65.1 19.9 0
    endloop
  endfacet
  facet normal 0 -1 0
    outer loop
      vertex 5 19.9 30
      vertex 5 19.9 0
      vertex 13.4 19.9 22.5
    endloop
  endfacet
  facet normal 0 -1 0
    outer loop
      vertex 16.2257 19.9 21.4715
      vertex 15.8 19.9 21.1144
      vertex 65.1 19.9 0
    endloop
  endfacet
  facet normal 0 -1 0
    outer loop
      vertex 5 19.9 30
      vertex 13.4 19.9 22.5
      vertex 13.4965 19.9 23.0472
    endloop
  endfacet
  facet normal 0 -1 0
    outer loop
      vertex 16.5035 19.9 21.9528
      vertex 16.2257 19.9 21.4715
      vertex 65.1 19.9 0
    endloop
  endfacet
  facet normal 0 -1 0
    outer loop
      vertex 5 19.9 30
      vertex 13.4965 19.9 23.0472
      vertex 13.7743 19.9 23.5285
    endloop
  endfacet
  facet normal 0 -1 0
    outer loop
      vertex 16.6 19.9 22.5
      vertex 16.5035 19.9 21.9528
      vertex 65.1 19.9 0
    endloop
  endfacet
  facet normal 0 -1 0
    outer loop
      vertex 5 19.9 30
      vertex 13.7743 19.9 23.5285
      vertex 14.2 19.9 23.8856
    endloop
  endfacet
  facet normal 0 -1 0
    outer loop
      vertex 16.5035 19.9 23.0472
      vertex 16.6 19.9 22.5
      vertex 65.1 19.9 0
    endloop
  endfacet
  facet normal 0 -1 0
    outer loop
      vertex 5 19.9 30
      vertex 14.2 19.9 23.8856
      vertex 14.7222 19.9 24.0757
    endloop
  endfacet
  facet normal 0 -1 0
    outer loop
      vertex 16.2257 19.9 23.5285
      vertex 16.5035 19.9 23.0472
      vertex 65.1 19.9 0
    endloop
  endfacet
  facet normal 0 -1 0
    outer loop
      vertex 5 19.9 30
      vertex 14.7222 19.9 24.0757
      vertex 15.2778 19.9 24.0757
    endloop
  endfacet
  facet normal 0 -1 0
    outer loop
      vertex 5 19.9 30
      vertex 15.8 19.9 23.8856
      vertex 65.1 19.9 0
    endloop
  endfacet
  facet normal 0 -1 0
    outer loop
      vertex 5 19.9 30
      vertex 15.2778 19.9 24.0757
      vertex 15.8 19.9 23.8856
    endloop
  endfacet
  facet normal -0 -1 0
    outer loop
      vertex 15.2778 19.9 20.9243
      vertex 5 19.9 0
      vertex 15.8 19.9 21.1144
    endloop
  endfacet
  facet normal 0 -1 0
    outer loop
      vertex 14.7222 19.9 20.9243
      vertex 5 19.9 0
      vertex 15.2778 19.9 20.9243
    endloop
  endfacet
  facet normal 0 -1 0
    outer loop
      vertex 14.2 19.9 21.1144
      vertex 5 19.9 0
      vertex 14.7222 19.9 20.9243
    endloop
  endfacet
  facet normal 0 -1 0
    outer loop
      vertex 13.7743 19.9 21.4715
      vertex 5 19.9 0
      vertex 14.2 19.9 21.1144
    endloop
  endfacet
  facet normal 0 -1 0
    outer loop
      vertex 13.4965 19.9 21.9528
      vertex 5 19.9 0
      vertex 13.7743 19.9 21.4715
    endloop
  endfacet
  facet normal 0 -1 0
    outer loop
      vertex 13.4 19.9 22.5
      vertex 5 19.9 0
      vertex 13.4965 19.9 21.9528
    endloop
  endfacet
  facet normal 0 -1 0
    outer loop
      vertex 54.2 19.9 21.1144
      vertex 53.7743 19.9 21.4715
      vertex 5 19.9 30
    endloop
  endfacet
  facet normal 0 -1 0
    outer loop
      vertex 53.4965 19.9 23.0472
      vertex 5 19.9 30
      vertex 53.4 19.9 22.5
    endloop
  endfacet
  facet normal 0 -1 0
    outer loop
      vertex 53.7743 19.9 23.5285
      vertex 5 19.9 30
      vertex 53.4965 19.9 23.0472
    endloop
  endfacet
  facet normal -0 -1 0
    outer loop
      vertex 55.2778 19.9 24.0757
      vertex 55.8 19.9 23.8856
      vertex 65 19.9 30
    endloop
  endfacet
  facet normal 0 -1 0
    outer loop
      vertex 54.2 19.9 23.8856
      vertex 5 19.9 30
      vertex 53.7743 19.9 23.5285
    endloop
  endfacet
  facet normal 0 -1 0
    outer loop
      vertex 65 19.9 30
      vertex 5 19.9 30
      vertex 54.2 19.9 23.8856
    endloop
  endfacet
  facet normal 0 -1 0
    outer loop
      vertex 65 19.9 30
      vertex 54.2 19.9 23.8856
      vertex 54.7222 19.9 24.0757
    endloop
  endfacet
  facet normal 0 -1 0
    outer loop
      vertex 56.2257 19.9 23.5285
      vertex 56.5035 19.9 23.0472
      vertex 65 19.9 15
    endloop
  endfacet
  facet normal 0 -1 0
    outer loop
      vertex 55.8 19.9 21.1144
      vertex 55.2778 19.9 20.9243
      vertex 65 19.9 15
    endloop
  endfacet
  facet normal 0 -1 0
    outer loop
      vertex 65 19.9 30
      vertex 56.2257 19.9 23.5285
      vertex 65 19.9 15
    endloop
  endfacet
  facet normal 0 -1 0
    outer loop
      vertex 65 19.9 30
      vertex 55.8 19.9 23.8856
      vertex 56.2257 19.9 23.5285
    endloop
  endfacet
  facet normal 0 -1 0
    outer loop
      vertex 56.5035 19.9 23.0472
      vertex 56.6 19.9 22.5
      vertex 65 19.9 15
    endloop
  endfacet
  facet normal 0 -1 0
    outer loop
      vertex 56.6 19.9 22.5
      vertex 56.5035 19.9 21.9528
      vertex 65 19.9 15
    endloop
  endfacet
  facet normal 0 -1 0
    outer loop
      vertex 56.5035 19.9 21.9528
      vertex 56.2257 19.9 21.4715
      vertex 65 19.9 15
    endloop
  endfacet
  facet normal 0 -1 0
    outer loop
      vertex 56.2257 19.9 21.4715
      vertex 55.8 19.9 21.1144
      vertex 65 19.9 15
    endloop
  endfacet
  facet normal 0 -1 0
    outer loop
      vertex 55.2778 19.9 20.9243
      vertex 54.7222 19.9 20.9243
      vertex 65 19.9 15
    endloop
  endfacet
  facet normal 0 -1 0
    outer loop
      vertex 54.2 19.9 21.1144
      vertex 5 19.9 30
      vertex 54.7222 19.9 20.9243
    endloop
  endfacet
  facet normal 0 -1 0
    outer loop
      vertex 53.4965 19.9 21.9528
      vertex 5 19.9 30
      vertex 53.7743 19.9 21.4715
    endloop
  endfacet
  facet normal 0 -1 0
    outer loop
      vertex 53.4 19.9 22.5
      vertex 5 19.9 30
      vertex 53.4965 19.9 21.9528
    endloop
  endfacet
  facet normal 0 -1 0
    outer loop
      vertex 15.8 19.9 23.8856
      vertex 16.2257 19.9 23.5285
      vertex 65.1 19.9 0
    endloop
  endfacet
  facet normal -0 -1 0
    outer loop
      vertex 54.7222 19.9 24.0757
      vertex 55.2778 19.9 24.0757
      vertex 65 19.9 30
    endloop
  endfacet
  facet normal 0 -1 0
    outer loop
      vertex 65.1 19.9 15
      vertex 65.1 19.9 0
      vertex 70 19.9 0
    endloop
  endfacet
  facet normal 0 -1 0
    outer loop
      vertex 70 19.9 15
      vertex 65.1 19.9 15
      vertex 70 19.9 0
    endloop
  endfacet
  facet normal 1 0 -0
    outer loop
      vertex 70 27.5 4.6
      vertex 70 19.9 0
      vertex 70 34.9 0
    endloop
  endfacet
  facet normal 1 0 -0
    outer loop
      vertex 70 19.9 15
      vertex 70 19.9 0
      vertex 70 24.6441 6.99642
    endloop
  endfacet
  facet normal 1 0 -0
    outer loop
      vertex 70 28.4919 4.77489
      vertex 70 27.5 4.6
      vertex 70 34.9 0
    endloop
  endfacet
  facet normal 1 0 0
    outer loop
      vertex 70 19.9 15
      vertex 70 24.6441 6.99642
      vertex 70 24.6441 8.00358
    endloop
  endfacet
  facet normal 1 0 0
    outer loop
      vertex 70 19.9 15
      vertex 70 24.6441 8.00358
      vertex 70 24.9885 8.95
    endloop
  endfacet
  facet normal 1 -0 0
    outer loop
      vertex 70 26.5081 10.2251
      vertex 70 19.9 15
      vertex 70 25.6359 9.72153
    endloop
  endfacet
  facet normal 1 0 0
    outer loop
      vertex 70 34.9 15
      vertex 70 19.9 15
      vertex 70 26.5081 10.2251
    endloop
  endfacet
  facet normal 1 0 -0
    outer loop
      vertex 70 30.0115 6.05
      vertex 70 29.3641 5.27847
      vertex 70 34.9 0
    endloop
  endfacet
  facet normal 1 0 -0
    outer loop
      vertex 70 30.3559 6.99642
      vertex 70 30.0115 6.05
      vertex 70 34.9 0
    endloop
  endfacet
  facet normal 1 0 0
    outer loop
      vertex 70 34.9 15
      vertex 70 27.5 10.4
      vertex 70 28.4919 10.2251
    endloop
  endfacet
  facet normal 1 0 -0
    outer loop
      vertex 70 29.3641 5.27847
      vertex 70 28.4919 4.77489
      vertex 70 34.9 0
    endloop
  endfacet
  facet normal 1 0 0
    outer loop
      vertex 70 34.9 15
      vertex 70 28.4919 10.2251
      vertex 70 29.3641 9.72153
    endloop
  endfacet
  facet normal 1 0 0
    outer loop
      vertex 70 34.9 15
      vertex 70 30.0115 8.95
      vertex 70 34.9 0
    endloop
  endfacet
  facet normal 1 0 0
    outer loop
      vertex 70 34.9 15
      vertex 70 29.3641 9.72153
      vertex 70 30.0115 8.95
    endloop
  endfacet
  facet normal 1 0 0
    outer loop
      vertex 70 30.0115 8.95
      vertex 70 30.3559 8.00358
      vertex 70 34.9 0
    endloop
  endfacet
  facet normal 1 0 0
    outer loop
      vertex 70 26.5081 10.2251
      vertex 70 27.5 10.4
      vertex 70 34.9 15
    endloop
  endfacet
  facet normal 1 0 -0
    outer loop
      vertex 70 30.3559 8.00358
      vertex 70 30.3559 6.99642
      vertex 70 34.9 0
    endloop
  endfacet
  facet normal 1 0 -0
    outer loop
      vertex 70 26.5081 4.77489
      vertex 70 19.9 0
      vertex 70 27.5 4.6
    endloop
  endfacet
  facet normal 1 0 -0
    outer loop
      vertex 70 25.6359 5.27847
      vertex 70 19.9 0
      vertex 70 26.5081 4.77489
    endloop
  endfacet
  facet normal 1 0 -0
    outer loop
      vertex 70 24.9885 6.05
      vertex 70 19.9 0
      vertex 70 25.6359 5.27847
    endloop
  endfacet
  facet normal 1 0 -0
    outer loop
      vertex 70 24.6441 6.99642
      vertex 70 19.9 0
      vertex 70 24.9885 6.05
    endloop
  endfacet
  facet normal 1 0 0
    outer loop
      vertex 70 24.9885 8.95
      vertex 70 25.6359 9.72153
      vertex 70 19.9 15
    endloop
  endfacet
  facet normal 1 -0 -0
    outer loop
      vertex 62 24.6441 6.99642
      vertex 62 22.475 7.5
      vertex 62 24.9875 3.14822
    endloop
  endfacet
  facet normal 1 0 0
    outer loop
      vertex 62 24.6441 8.00358
      vertex 62 24.9885 8.95
      vertex 62 24.9875 11.8518
    endloop
  endfacet
  facet normal 1 -2.81049e-23 8.16382e-16
    outer loop
      vertex 62 34.9 11.8518
      vertex 62 33.0125 11.8518
      vertex 62 34.9 3.14822
    endloop
  endfacet
  facet normal 1 0 -0
    outer loop
      vertex 62 30.0115 6.05
      vertex 62 29.3641 5.27847
      vertex 62 30.9875 3.14822
    endloop
  endfacet
  facet normal 1 0 -0
    outer loop
      vertex 62 30.3559 6.99642
      vertex 62 30.0115 6.05
      vertex 62 33.9875 3.14822
    endloop
  endfacet
  facet normal 1 0 0
    outer loop
      vertex 62 33.0125 11.8518
      vertex 62 24.9875 11.8518
      vertex 62 27.5 10.4
    endloop
  endfacet
  facet normal 1 5.97455e-15 7.05491e-15
    outer loop
      vertex 62 30.3559 8.00358
      vertex 62 30.3559 6.99642
      vertex 62 34.9 3.14822
    endloop
  endfacet
  facet normal 1 0 0
    outer loop
      vertex 62 33.0125 11.8518
      vertex 62 27.5 10.4
      vertex 62 28.4919 10.2251
    endloop
  endfacet
  facet normal 1 -4.23097e-16 7.24627e-16
    outer loop
      vertex 62 33.0125 11.8518
      vertex 62 29.3641 9.72153
      vertex 62 34.9 3.14822
    endloop
  endfacet
  facet normal 1 0 0
    outer loop
      vertex 62 33.0125 11.8518
      vertex 62 28.4919 10.2251
      vertex 62 29.3641 9.72153
    endloop
  endfacet
  facet normal 1 -3.50814e-13 -2.94368e-13
    outer loop
      vertex 62 29.3641 9.72153
      vertex 62 30.0115 8.95
      vertex 62 34.9 3.14822
    endloop
  endfacet
  facet normal 1 0 0
    outer loop
      vertex 62 34.9 3.14822
      vertex 62 30.3559 6.99642
      vertex 62 33.9875 3.14822
    endloop
  endfacet
  facet normal 1 -2.5588e-15 -9.31326e-16
    outer loop
      vertex 62 30.0115 8.95
      vertex 62 30.3559 8.00358
      vertex 62 34.9 3.14822
    endloop
  endfacet
  facet normal 1 -0 0
    outer loop
      vertex 62 33.9875 3.14822
      vertex 62 30.0115 6.05
      vertex 62 30.9875 3.14822
    endloop
  endfacet
  facet normal 1 -0 0
    outer loop
      vertex 62 30.9875 3.14822
      vertex 62 29.3641 5.27847
      vertex 62 27.9875 3.14822
    endloop
  endfacet
  facet normal 1 0 0
    outer loop
      vertex 62 29.3641 5.27847
      vertex 62 28.4919 4.77489
      vertex 62 27.9875 3.14822
    endloop
  endfacet
  facet normal 1 0 0
    outer loop
      vertex 62 28.4919 4.77489
      vertex 62 27.5 4.6
      vertex 62 27.9875 3.14822
    endloop
  endfacet
  facet normal 1 -0 0
    outer loop
      vertex 62 27.9875 3.14822
      vertex 62 26.5081 4.77489
      vertex 62 24.9875 3.14822
    endloop
  endfacet
  facet normal 1 -0 0
    outer loop
      vertex 62 26.5081 4.77489
      vertex 62 25.6359 5.27847
      vertex 62 24.9875 3.14822
    endloop
  endfacet
  facet normal 1 -0 0
    outer loop
      vertex 62 25.6359 5.27847
      vertex 62 24.9885 6.05
      vertex 62 24.9875 3.14822
    endloop
  endfacet
  facet normal 1 1.63791e-15 7.05491e-15
    outer loop
      vertex 62 24.6441 8.00358
      vertex 62 22.475 7.5
      vertex 62 24.6441 6.99642
    endloop
  endfacet
  facet normal 1 0 0
    outer loop
      vertex 62 24.9885 8.95
      vertex 62 25.6359 9.72153
      vertex 62 24.9875 11.8518
    endloop
  endfacet
  facet normal 1 3.34512e-15 -2.98544e-16
    outer loop
      vertex 62 24.9875 11.8518
      vertex 62 22.475 7.5
      vertex 62 24.6441 8.00358
    endloop
  endfacet
  facet normal 1 -0 0
    outer loop
      vertex 62 24.9885 6.05
      vertex 62 24.6441 6.99642
      vertex 62 24.9875 3.14822
    endloop
  endfacet
  facet normal 1 -0 -0
    outer loop
      vertex 62 27.5 4.6
      vertex 62 26.5081 4.77489
      vertex 62 27.9875 3.14822
    endloop
  endfacet
  facet normal 3.24747e-09 0 0
    outer loop
      vertex 62 33.0125 11.8518
      vertex 62 30.0125 11.8518
      vertex 62 24.9875 11.8518
    endloop
  endfacet
  facet normal 1 0 0
    outer loop
      vertex 62 26.5081 10.2251
      vertex 62 27.5 10.4
      vertex 62 24.9875 11.8518
    endloop
  endfacet
  facet normal 1 0 0
    outer loop
      vertex 62 25.6359 9.72153
      vertex 62 26.5081 10.2251
      vertex 62 24.9875 11.8518
    endloop
  endfacet
  facet normal 5.55112e-16 3.44262e-08 -1
    outer loop
      vertex 65.2 33.0125 11.8518
      vertex 62 33.0125 11.8518
      vertex 65.2 34.9 11.8518
    endloop
  endfacet
  facet normal 0 3.44262e-08 -1
    outer loop
      vertex 65.2 34.9 11.8518
      vertex 62 33.0125 11.8518
      vertex 62 34.9 11.8518
    endloop
  endfacet
  facet normal -1 0 0
    outer loop
      vertex 65.2 34.9 3.14822
      vertex 65.2 33.0125 11.8518
      vertex 65.2 34.9 11.8518
    endloop
  endfacet
  facet normal -1 0 0
    outer loop
      vertex 65.2 30.0125 11.8518
      vertex 65.2 33.0125 11.8518
      vertex 65.2 34.9 3.14822
    endloop
  endfacet
  facet normal -1 0 0
    outer loop
      vertex 65.2 30.0125 11.8518
      vertex 65.2 34.9 3.14822
      vertex 65.2 33.9875 3.14822
    endloop
  endfacet
  facet normal -1 0 0
    outer loop
      vertex 65.2 30.0125 11.8518
      vertex 65.2 33.9875 3.14822
      vertex 65.2 30.9875 3.14822
    endloop
  endfacet
  facet normal -1 0 0
    outer loop
      vertex 65.2 28.4919 4.77489
      vertex 65.2 30.9875 3.14822
      vertex 65.2 27.9875 3.14822
    endloop
  endfacet
  facet normal -1 0 0
    outer loop
      vertex 65.2 26.5081 4.77489
      vertex 65.2 27.9875 3.14822
      vertex 65.2 24.9875 3.14822
    endloop
  endfacet
  facet normal -1 0 0
    outer loop
      vertex 65.2 24.6441 6.99642
      vertex 65.2 24.9875 3.14822
      vertex 65.2 22.475 7.5
    endloop
  endfacet
  facet normal -1 0 0
    outer loop
      vertex 65.2 25.6359 9.72153
      vertex 65.2 22.475 7.5
      vertex 65.2 24.9875 11.8518
    endloop
  endfacet
  facet normal -1 0 0
    outer loop
      vertex 65.2 26.5081 10.2251
      vertex 65.2 30.0125 11.8518
      vertex 65.2 27.5 10.4
    endloop
  endfacet
  facet normal -1 0 0
    outer loop
      vertex 65.2 24.9885 6.05
      vertex 65.2 24.9875 3.14822
      vertex 65.2 24.6441 6.99642
    endloop
  endfacet
  facet normal -1 0 -0
    outer loop
      vertex 65.2 24.9885 8.95
      vertex 65.2 22.475 7.5
      vertex 65.2 25.6359 9.72153
    endloop
  endfacet
  facet normal -1 0 0
    outer loop
      vertex 65.2 30.0125 11.8518
      vertex 65.2 26.5081 10.2251
      vertex 65.2 24.9875 11.8518
    endloop
  endfacet
  facet normal -1 0 0
    outer loop
      vertex 65.2 26.5081 10.2251
      vertex 65.2 25.6359 9.72153
      vertex 65.2 24.9875 11.8518
    endloop
  endfacet
  facet normal -1 0 0
    outer loop
      vertex 65.2 26.5081 4.77489
      vertex 65.2 24.9875 3.14822
      vertex 65.2 25.6359 5.27847
    endloop
  endfacet
  facet normal -1 0 0
    outer loop
      vertex 65.2 24.9885 8.95
      vertex 65.2 24.6441 8.00358
      vertex 65.2 22.475 7.5
    endloop
  endfacet
  facet normal -1 -0 0
    outer loop
      vertex 65.2 28.4919 10.2251
      vertex 65.2 30.0125 11.8518
      vertex 65.2 29.3641 9.72153
    endloop
  endfacet
  facet normal -1 0 0
    outer loop
      vertex 65.2 24.6441 8.00358
      vertex 65.2 24.6441 6.99642
      vertex 65.2 22.475 7.5
    endloop
  endfacet
  facet normal -1 0 0
    outer loop
      vertex 65.2 25.6359 5.27847
      vertex 65.2 24.9875 3.14822
      vertex 65.2 24.9885 6.05
    endloop
  endfacet
  facet normal -1 0 0
    outer loop
      vertex 65.2 28.4919 4.77489
      vertex 65.2 27.9875 3.14822
      vertex 65.2 27.5 4.6
    endloop
  endfacet
  facet normal -1 0 0
    outer loop
      vertex 65.2 27.5 4.6
      vertex 65.2 27.9875 3.14822
      vertex 65.2 26.5081 4.77489
    endloop
  endfacet
  facet normal -1 0 0
    outer loop
      vertex 65.2 29.3641 5.27847
      vertex 65.2 30.9875 3.14822
      vertex 65.2 28.4919 4.77489
    endloop
  endfacet
  facet normal -1 -0 0
    outer loop
      vertex 65.2 30.0115 8.95
      vertex 65.2 30.0125 11.8518
      vertex 65.2 30.3559 8.00358
    endloop
  endfacet
  facet normal -1 0 0
    outer loop
      vertex 65.2 30.0115 6.05
      vertex 65.2 30.9875 3.14822
      vertex 65.2 29.3641 5.27847
    endloop
  endfacet
  facet normal -1 0 0
    outer loop
      vertex 65.2 30.3559 6.99642
      vertex 65.2 30.9875 3.14822
      vertex 65.2 30.0115 6.05
    endloop
  endfacet
  facet normal -1 0 0
    outer loop
      vertex 65.2 30.3559 8.00358
      vertex 65.2 30.9875 3.14822
      vertex 65.2 30.3559 6.99642
    endloop
  endfacet
  facet normal -1 0 0
    outer loop
      vertex 65.2 30.0125 11.8518
      vertex 65.2 30.9875 3.14822
      vertex 65.2 30.3559 8.00358
    endloop
  endfacet
  facet normal -1 -0 0
    outer loop
      vertex 65.2 29.3641 9.72153
      vertex 65.2 30.0125 11.8518
      vertex 65.2 30.0115 8.95
    endloop
  endfacet
  facet normal -1 0 0
    outer loop
      vertex 65.2 30.0125 11.8518
      vertex 65.2 28.4919 10.2251
      vertex 65.2 27.5 10.4
    endloop
  endfacet
  facet normal -1.38778e-16 -3.44262e-08 1
    outer loop
      vertex 62 33.9875 3.14822
      vertex 65.2 33.9875 3.14822
      vertex 65.2 34.9 3.14822
    endloop
  endfacet
  facet normal -2.77556e-16 -3.44262e-08 1
    outer loop
      vertex 62 34.9 3.14822
      vertex 62 33.9875 3.14822
      vertex 65.2 34.9 3.14822
    endloop
  endfacet
  facet normal 1 0 -0
    outer loop
      vertex 65 28.1899 15.2015
      vertex 65 19.9 15
      vertex 65 29.3329 15
    endloop
  endfacet
  facet normal 1 0 -0
    outer loop
      vertex 65 26.6861 16.0698
      vertex 65 19.9 15
      vertex 65 28.1899 15.2015
    endloop
  endfacet
  facet normal 1 0 -0
    outer loop
      vertex 65 25.5699 17.4
      vertex 65 19.9 15
      vertex 65 26.6861 16.0698
    endloop
  endfacet
  facet normal 1 0 -0
    outer loop
      vertex 65 19.9 30
      vertex 65 19.9 15
      vertex 65 25.5699 17.4
    endloop
  endfacet
  facet normal 1 0 0
    outer loop
      vertex 65 19.9 30
      vertex 65 25.5699 17.4
      vertex 65 25 18.9657
    endloop
  endfacet
  facet normal 1 0 0
    outer loop
      vertex 65 25 18.9657
      vertex 65 25 30
      vertex 65 19.9 30
    endloop
  endfacet
  facet normal 0.642788 0 0.766044
    outer loop
      vertex 12.5 25 18.1699
      vertex 12.5 25.2897 18.1699
      vertex 11.5516 25 18.9657
    endloop
  endfacet
  facet normal 0.34202 0 0.939693
    outer loop
      vertex 14.1318 25 17.576
      vertex 14.1318 25.5058 17.576
      vertex 12.5 25.2897 18.1699
    endloop
  endfacet
  facet normal 0.34202 0 0.939693
    outer loop
      vertex 12.5 25 18.1699
      vertex 14.1318 25 17.576
      vertex 12.5 25.2897 18.1699
    endloop
  endfacet
  facet normal -0 1 0
    outer loop
      vertex 17.5 25 18.1699
      vertex 15.8682 25 17.576
      vertex 18.4484 25 18.9657
    endloop
  endfacet
  facet normal 0 1 0
    outer loop
      vertex 18.4484 25 18.9657
      vertex 15.8682 25 17.576
      vertex 14.1318 25 17.576
    endloop
  endfacet
  facet normal 0 1 0
    outer loop
      vertex 18.4484 25 18.9657
      vertex 14.1318 25 17.576
      vertex 12.5 25 18.1699
    endloop
  endfacet
  facet normal 0 1 0
    outer loop
      vertex 18.4484 25 18.9657
      vertex 12.5 25 18.1699
      vertex 11.5516 25 18.9657
    endloop
  endfacet
  facet normal -0.642788 0 0.766044
    outer loop
      vertex 18.4484 25 18.9657
      vertex 17.5 25.2897 18.1699
      vertex 17.5 25 18.1699
    endloop
  endfacet
  facet normal -0.34202 0 0.939693
    outer loop
      vertex 17.5 25 18.1699
      vertex 17.5 25.2897 18.1699
      vertex 15.8682 25.5058 17.576
    endloop
  endfacet
  facet normal -0.34202 0 0.939693
    outer loop
      vertex 15.8682 25 17.576
      vertex 17.5 25 18.1699
      vertex 15.8682 25.5058 17.576
    endloop
  endfacet
  facet normal 0 0 1
    outer loop
      vertex 15.8682 25 17.576
      vertex 15.8682 25.5058 17.576
      vertex 14.1318 25.5058 17.576
    endloop
  endfacet
  facet normal 0 0 1
    outer loop
      vertex 14.1318 25 17.576
      vertex 15.8682 25 17.576
      vertex 14.1318 25.5058 17.576
    endloop
  endfacet
  facet normal 0.642788 0 0.766044
    outer loop
      vertex 52.5 25 18.1699
      vertex 52.5 25.2897 18.1699
      vertex 51.5516 25 18.9657
    endloop
  endfacet
  facet normal 0.34202 0 0.939693
    outer loop
      vertex 54.1318 25 17.576
      vertex 54.1318 25.5058 17.576
      vertex 52.5 25.2897 18.1699
    endloop
  endfacet
  facet normal 0.34202 0 0.939693
    outer loop
      vertex 52.5 25 18.1699
      vertex 54.1318 25 17.576
      vertex 52.5 25.2897 18.1699
    endloop
  endfacet
  facet normal -0 1 0
    outer loop
      vertex 57.5 25 18.1699
      vertex 55.8682 25 17.576
      vertex 58.4484 25 18.9657
    endloop
  endfacet
  facet normal 0 1 0
    outer loop
      vertex 58.4484 25 18.9657
      vertex 55.8682 25 17.576
      vertex 54.1318 25 17.576
    endloop
  endfacet
  facet normal 0 1 0
    outer loop
      vertex 58.4484 25 18.9657
      vertex 54.1318 25 17.576
      vertex 52.5 25 18.1699
    endloop
  endfacet
  facet normal 0 1 0
    outer loop
      vertex 58.4484 25 18.9657
      vertex 52.5 25 18.1699
      vertex 51.5516 25 18.9657
    endloop
  endfacet
  facet normal -0.642788 0 0.766044
    outer loop
      vertex 58.4484 25 18.9657
      vertex 57.5 25.2897 18.1699
      vertex 57.5 25 18.1699
    endloop
  endfacet
  facet normal -0.34202 0 0.939693
    outer loop
      vertex 57.5 25 18.1699
      vertex 57.5 25.2897 18.1699
      vertex 55.8682 25.5058 17.576
    endloop
  endfacet
  facet normal -0.34202 0 0.939693
    outer loop
      vertex 55.8682 25 17.576
      vertex 57.5 25 18.1699
      vertex 55.8682 25.5058 17.576
    endloop
  endfacet
  facet normal 0 0 1
    outer loop
      vertex 55.8682 25 17.576
      vertex 55.8682 25.5058 17.576
      vertex 54.1318 25.5058 17.576
    endloop
  endfacet
  facet normal 0 0 1
    outer loop
      vertex 54.1318 25 17.576
      vertex 55.8682 25 17.576
      vertex 54.1318 25.5058 17.576
    endloop
  endfacet
  facet normal 0 1 -0
    outer loop
      vertex 11.1698 25 25.7139
      vertex 12.5 25 26.8301
      vertex 10.3015 25 24.2101
    endloop
  endfacet
  facet normal 0 1 0
    outer loop
      vertex 10.3015 25 24.2101
      vertex 12.5 25 26.8301
      vertex 14.1318 25 27.424
    endloop
  endfacet
  facet normal 0 1 0
    outer loop
      vertex 10.3015 25 24.2101
      vertex 14.1318 25 27.424
      vertex 15.8682 25 27.424
    endloop
  endfacet
  facet normal 0 1 0
    outer loop
      vertex 10.3015 25 24.2101
      vertex 15.8682 25 27.424
      vertex 17.5 25 26.8301
    endloop
  endfacet
  facet normal 0 1 0
    outer loop
      vertex 10.3015 25 24.2101
      vertex 17.5 25 26.8301
      vertex 18.8302 25 25.7139
    endloop
  endfacet
  facet normal 0 1 0
    outer loop
      vertex 10.3015 25 24.2101
      vertex 18.8302 25 25.7139
      vertex 19.6985 25 24.2101
    endloop
  endfacet
  facet normal -3.94129e-16 1 2.00799e-15
    outer loop
      vertex 16.2257 25 23.5285
      vertex 19.6985 25 24.2101
      vertex 20 25 22.5
    endloop
  endfacet
  facet normal 0 1 6.49215e-15
    outer loop
      vertex 16.5035 25 23.0472
      vertex 20 25 22.5
      vertex 16.6 25 22.5
    endloop
  endfacet
  facet normal 0 1 0
    outer loop
      vertex 15.8 25 23.8856
      vertex 19.6985 25 24.2101
      vertex 16.2257 25 23.5285
    endloop
  endfacet
  facet normal 0 1 0
    outer loop
      vertex 14.2 25 23.8856
      vertex 10.3015 25 24.2101
      vertex 14.7222 25 24.0757
    endloop
  endfacet
  facet normal 0 1 0
    outer loop
      vertex 15.2778 25 24.0757
      vertex 19.6985 25 24.2101
      vertex 15.8 25 23.8856
    endloop
  endfacet
  facet normal 0 1 0
    outer loop
      vertex 10.3015 25 24.2101
      vertex 19.6985 25 24.2101
      vertex 15.2778 25 24.0757
    endloop
  endfacet
  facet normal 0 1 0
    outer loop
      vertex 10.3015 25 24.2101
      vertex 15.2778 25 24.0757
      vertex 14.7222 25 24.0757
    endloop
  endfacet
  facet normal 0 1 0
    outer loop
      vertex 13.7743 25 23.5285
      vertex 10.3015 25 24.2101
      vertex 14.2 25 23.8856
    endloop
  endfacet
  facet normal 0 1 0
    outer loop
      vertex 13.4965 25 23.0472
      vertex 10.3015 25 24.2101
      vertex 13.7743 25 23.5285
    endloop
  endfacet
  facet normal 2.22045e-15 1 6.10063e-15
    outer loop
      vertex 10.3015 25 24.2101
      vertex 13.4965 25 23.0472
      vertex 13.4 25 22.5
    endloop
  endfacet
  facet normal 0 1 2.07749e-15
    outer loop
      vertex 10.3015 25 24.2101
      vertex 13.4 25 22.5
      vertex 10 25 22.5
    endloop
  endfacet
  facet normal -1.11701e-15 1 -6.44908e-16
    outer loop
      vertex 16.2257 25 23.5285
      vertex 20 25 22.5
      vertex 16.5035 25 23.0472
    endloop
  endfacet
  facet normal -0.984808 1.20965e-16 -0.173649
    outer loop
      vertex 16.6 25 22.5
      vertex 16.6 19.9 22.5
      vertex 16.5035 25 23.0472
    endloop
  endfacet
  facet normal -0.984808 1.20965e-16 -0.173649
    outer loop
      vertex 16.5035 25 23.0472
      vertex 16.6 19.9 22.5
      vertex 16.5035 19.9 23.0472
    endloop
  endfacet
  facet normal -0.984808 -1.20965e-16 0.173649
    outer loop
      vertex 16.6 25 22.5
      vertex 16.5035 25 21.9528
      vertex 16.6 19.9 22.5
    endloop
  endfacet
  facet normal -0.984808 0 0.173649
    outer loop
      vertex 16.6 19.9 22.5
      vertex 16.5035 25 21.9528
      vertex 16.5035 19.9 21.9528
    endloop
  endfacet
  facet normal -0.866025 0 0.5
    outer loop
      vertex 16.5035 25 21.9528
      vertex 16.2257 25 21.4715
      vertex 16.5035 19.9 21.9528
    endloop
  endfacet
  facet normal -0.866025 -3.46947e-16 0.5
    outer loop
      vertex 16.5035 19.9 21.9528
      vertex 16.2257 25 21.4715
      vertex 16.2257 19.9 21.4715
    endloop
  endfacet
  facet normal -0.642788 -5.33634e-16 0.766044
    outer loop
      vertex 16.2257 19.9 21.4715
      vertex 16.2257 25 21.4715
      vertex 15.8 25 21.1144
    endloop
  endfacet
  facet normal -0.642788 -5.33634e-16 0.766044
    outer loop
      vertex 15.8 19.9 21.1144
      vertex 16.2257 19.9 21.4715
      vertex 15.8 25 21.1144
    endloop
  endfacet
  facet normal -0.342019 -6.546e-16 0.939693
    outer loop
      vertex 15.8 19.9 21.1144
      vertex 15.8 25 21.1144
      vertex 15.2778 25 20.9243
    endloop
  endfacet
  facet normal -0.342019 0 0.939693
    outer loop
      vertex 15.2778 19.9 20.9243
      vertex 15.8 19.9 21.1144
      vertex 15.2778 25 20.9243
    endloop
  endfacet
  facet normal 0 0 1
    outer loop
      vertex 15.2778 19.9 20.9243
      vertex 15.2778 25 20.9243
      vertex 14.7222 25 20.9243
    endloop
  endfacet
  facet normal 0 0 1
    outer loop
      vertex 14.7222 19.9 20.9243
      vertex 15.2778 19.9 20.9243
      vertex 14.7222 25 20.9243
    endloop
  endfacet
  facet normal 0.342019 0 0.939693
    outer loop
      vertex 14.7222 19.9 20.9243
      vertex 14.7222 25 20.9243
      vertex 14.2 25 21.1144
    endloop
  endfacet
  facet normal 0.342019 -6.546e-16 0.939693
    outer loop
      vertex 14.2 19.9 21.1144
      vertex 14.7222 19.9 20.9243
      vertex 14.2 25 21.1144
    endloop
  endfacet
  facet normal 0.642788 -5.33634e-16 0.766044
    outer loop
      vertex 14.2 19.9 21.1144
      vertex 14.2 25 21.1144
      vertex 13.7743 25 21.4715
    endloop
  endfacet
  facet normal 0.642788 -5.33634e-16 0.766044
    outer loop
      vertex 13.7743 19.9 21.4715
      vertex 14.2 19.9 21.1144
      vertex 13.7743 25 21.4715
    endloop
  endfacet
  facet normal 0.866025 -3.48305e-16 0.5
    outer loop
      vertex 13.7743 19.9 21.4715
      vertex 13.7743 25 21.4715
      vertex 13.4965 25 21.9528
    endloop
  endfacet
  facet normal 0.866025 0 0.5
    outer loop
      vertex 13.4965 19.9 21.9528
      vertex 13.7743 19.9 21.4715
      vertex 13.4965 25 21.9528
    endloop
  endfacet
  facet normal 0.984808 0 0.173649
    outer loop
      vertex 13.4965 19.9 21.9528
      vertex 13.4965 25 21.9528
      vertex 13.4 25 22.5
    endloop
  endfacet
  facet normal 0.984808 -1.20965e-16 0.173649
    outer loop
      vertex 13.4 19.9 22.5
      vertex 13.4965 19.9 21.9528
      vertex 13.4 25 22.5
    endloop
  endfacet
  facet normal 0.984808 1.20493e-16 -0.173649
    outer loop
      vertex 13.4 25 22.5
      vertex 13.4965 25 23.0472
      vertex 13.4965 19.9 23.0472
    endloop
  endfacet
  facet normal 0.984808 1.20965e-16 -0.173649
    outer loop
      vertex 13.4 19.9 22.5
      vertex 13.4 25 22.5
      vertex 13.4965 19.9 23.0472
    endloop
  endfacet
  facet normal 0 1 -0
    outer loop
      vertex 51.1698 25 25.7139
      vertex 52.5 25 26.8301
      vertex 50.3015 25 24.2101
    endloop
  endfacet
  facet normal 0 1 0
    outer loop
      vertex 50.3015 25 24.2101
      vertex 52.5 25 26.8301
      vertex 54.1318 25 27.424
    endloop
  endfacet
  facet normal 0 1 0
    outer loop
      vertex 50.3015 25 24.2101
      vertex 54.1318 25 27.424
      vertex 55.8682 25 27.424
    endloop
  endfacet
  facet normal 0 1 0
    outer loop
      vertex 50.3015 25 24.2101
      vertex 55.8682 25 27.424
      vertex 57.5 25 26.8301
    endloop
  endfacet
  facet normal 0 1 0
    outer loop
      vertex 50.3015 25 24.2101
      vertex 57.5 25 26.8301
      vertex 58.8302 25 25.7139
    endloop
  endfacet
  facet normal 0 1 0
    outer loop
      vertex 50.3015 25 24.2101
      vertex 58.8302 25 25.7139
      vertex 59.6985 25 24.2101
    endloop
  endfacet
  facet normal -3.94129e-16 1 2.00799e-15
    outer loop
      vertex 56.2257 25 23.5285
      vertex 59.6985 25 24.2101
      vertex 60 25 22.5
    endloop
  endfacet
  facet normal 0 1 6.49215e-15
    outer loop
      vertex 56.5035 25 23.0472
      vertex 60 25 22.5
      vertex 56.6 25 22.5
    endloop
  endfacet
  facet normal 0 1 0
    outer loop
      vertex 55.8 25 23.8856
      vertex 59.6985 25 24.2101
      vertex 56.2257 25 23.5285
    endloop
  endfacet
  facet normal 0 1 0
    outer loop
      vertex 54.2 25 23.8856
      vertex 50.3015 25 24.2101
      vertex 54.7222 25 24.0757
    endloop
  endfacet
  facet normal 0 1 0
    outer loop
      vertex 55.2778 25 24.0757
      vertex 59.6985 25 24.2101
      vertex 55.8 25 23.8856
    endloop
  endfacet
  facet normal 0 1 0
    outer loop
      vertex 50.3015 25 24.2101
      vertex 59.6985 25 24.2101
      vertex 55.2778 25 24.0757
    endloop
  endfacet
  facet normal 0 1 0
    outer loop
      vertex 50.3015 25 24.2101
      vertex 55.2778 25 24.0757
      vertex 54.7222 25 24.0757
    endloop
  endfacet
  facet normal 0 1 0
    outer loop
      vertex 53.7743 25 23.5285
      vertex 50.3015 25 24.2101
      vertex 54.2 25 23.8856
    endloop
  endfacet
  facet normal 0 1 0
    outer loop
      vertex 53.4965 25 23.0472
      vertex 50.3015 25 24.2101
      vertex 53.7743 25 23.5285
    endloop
  endfacet
  facet normal 2.22045e-15 1 6.10063e-15
    outer loop
      vertex 50.3015 25 24.2101
      vertex 53.4965 25 23.0472
      vertex 53.4 25 22.5
    endloop
  endfacet
  facet normal 0 1 2.07749e-15
    outer loop
      vertex 50.3015 25 24.2101
      vertex 53.4 25 22.5
      vertex 50 25 22.5
    endloop
  endfacet
  facet normal -1.11701e-15 1 -6.44908e-16
    outer loop
      vertex 56.2257 25 23.5285
      vertex 60 25 22.5
      vertex 56.5035 25 23.0472
    endloop
  endfacet
  facet normal -0.984808 1.20965e-16 -0.173649
    outer loop
      vertex 56.6 25 22.5
      vertex 56.6 19.9 22.5
      vertex 56.5035 25 23.0472
    endloop
  endfacet
  facet normal -0.984808 1.20965e-16 -0.173649
    outer loop
      vertex 56.5035 25 23.0472
      vertex 56.6 19.9 22.5
      vertex 56.5035 19.9 23.0472
    endloop
  endfacet
  facet normal -0.984808 -1.20965e-16 0.173649
    outer loop
      vertex 56.6 25 22.5
      vertex 56.5035 25 21.9528
      vertex 56.6 19.9 22.5
    endloop
  endfacet
  facet normal -0.984808 0 0.173649
    outer loop
      vertex 56.6 19.9 22.5
      vertex 56.5035 25 21.9528
      vertex 56.5035 19.9 21.9528
    endloop
  endfacet
  facet normal -0.866025 0 0.5
    outer loop
      vertex 56.5035 25 21.9528
      vertex 56.2257 25 21.4715
      vertex 56.5035 19.9 21.9528
    endloop
  endfacet
  facet normal -0.866025 -3.46947e-16 0.5
    outer loop
      vertex 56.5035 19.9 21.9528
      vertex 56.2257 25 21.4715
      vertex 56.2257 19.9 21.4715
    endloop
  endfacet
  facet normal -0.642788 -5.33634e-16 0.766044
    outer loop
      vertex 56.2257 19.9 21.4715
      vertex 56.2257 25 21.4715
      vertex 55.8 25 21.1144
    endloop
  endfacet
  facet normal -0.642788 -5.33634e-16 0.766044
    outer loop
      vertex 55.8 19.9 21.1144
      vertex 56.2257 19.9 21.4715
      vertex 55.8 25 21.1144
    endloop
  endfacet
  facet normal -0.342019 -6.546e-16 0.939693
    outer loop
      vertex 55.8 19.9 21.1144
      vertex 55.8 25 21.1144
      vertex 55.2778 25 20.9243
    endloop
  endfacet
  facet normal -0.342019 0 0.939693
    outer loop
      vertex 55.2778 19.9 20.9243
      vertex 55.8 19.9 21.1144
      vertex 55.2778 25 20.9243
    endloop
  endfacet
  facet normal 0 0 1
    outer loop
      vertex 55.2778 19.9 20.9243
      vertex 55.2778 25 20.9243
      vertex 54.7222 25 20.9243
    endloop
  endfacet
  facet normal 0 0 1
    outer loop
      vertex 54.7222 19.9 20.9243
      vertex 55.2778 19.9 20.9243
      vertex 54.7222 25 20.9243
    endloop
  endfacet
  facet normal 0.342019 0 0.939693
    outer loop
      vertex 54.7222 19.9 20.9243
      vertex 54.7222 25 20.9243
      vertex 54.2 25 21.1144
    endloop
  endfacet
  facet normal 0.342019 -6.546e-16 0.939693
    outer loop
      vertex 54.2 19.9 21.1144
      vertex 54.7222 19.9 20.9243
      vertex 54.2 25 21.1144
    endloop
  endfacet
  facet normal 0.642788 -5.33634e-16 0.766044
    outer loop
      vertex 54.2 19.9 21.1144
      vertex 54.2 25 21.1144
      vertex 53.7743 25 21.4715
    endloop
  endfacet
  facet normal 0.642788 -5.33634e-16 0.766044
    outer loop
      vertex 53.7743 19.9 21.4715
      vertex 54.2 19.9 21.1144
      vertex 53.7743 25 21.4715
    endloop
  endfacet
  facet normal 0.866025 -3.48305e-16 0.5
    outer loop
      vertex 53.7743 19.9 21.4715
      vertex 53.7743 25 21.4715
      vertex 53.4965 25 21.9528
    endloop
  endfacet
  facet normal 0.866025 0 0.5
    outer loop
      vertex 53.4965 19.9 21.9528
      vertex 53.7743 19.9 21.4715
      vertex 53.4965 25 21.9528
    endloop
  endfacet
  facet normal 0.984808 0 0.173649
    outer loop
      vertex 53.4965 19.9 21.9528
      vertex 53.4965 25 21.9528
      vertex 53.4 25 22.5
    endloop
  endfacet
  facet normal 0.984808 -1.20965e-16 0.173649
    outer loop
      vertex 53.4 19.9 22.5
      vertex 53.4965 19.9 21.9528
      vertex 53.4 25 22.5
    endloop
  endfacet
  facet normal 0.984808 1.20493e-16 -0.173649
    outer loop
      vertex 53.4 25 22.5
      vertex 53.4965 25 23.0472
      vertex 53.4965 19.9 23.0472
    endloop
  endfacet
  facet normal 0.984808 1.20965e-16 -0.173649
    outer loop
      vertex 53.4 19.9 22.5
      vertex 53.4 25 22.5
      vertex 53.4965 19.9 23.0472
    endloop
  endfacet
  facet normal -0.866025 3.48305e-16 -0.5
    outer loop
      vertex 16.5035 25 23.0472
      vertex 16.5035 19.9 23.0472
      vertex 16.2257 25 23.5285
    endloop
  endfacet
  facet normal -0.866025 0 -0.5
    outer loop
      vertex 16.2257 25 23.5285
      vertex 16.5035 19.9 23.0472
      vertex 16.2257 19.9 23.5285
    endloop
  endfacet
  facet normal -0.642788 0 -0.766044
    outer loop
      vertex 16.2257 25 23.5285
      vertex 16.2257 19.9 23.5285
      vertex 15.8 25 23.8856
    endloop
  endfacet
  facet normal -0.642788 0 -0.766044
    outer loop
      vertex 15.8 25 23.8856
      vertex 16.2257 19.9 23.5285
      vertex 15.8 19.9 23.8856
    endloop
  endfacet
  facet normal -0.342019 0 -0.939693
    outer loop
      vertex 15.8 25 23.8856
      vertex 15.8 19.9 23.8856
      vertex 15.2778 25 24.0757
    endloop
  endfacet
  facet normal -0.342019 6.546e-16 -0.939693
    outer loop
      vertex 15.2778 25 24.0757
      vertex 15.8 19.9 23.8856
      vertex 15.2778 19.9 24.0757
    endloop
  endfacet
  facet normal 0 6.96611e-16 -1
    outer loop
      vertex 15.2778 25 24.0757
      vertex 15.2778 19.9 24.0757
      vertex 14.7222 25 24.0757
    endloop
  endfacet
  facet normal 0 6.96611e-16 -1
    outer loop
      vertex 14.7222 25 24.0757
      vertex 15.2778 19.9 24.0757
      vertex 14.7222 19.9 24.0757
    endloop
  endfacet
  facet normal 0.342019 6.546e-16 -0.939693
    outer loop
      vertex 14.7222 25 24.0757
      vertex 14.7222 19.9 24.0757
      vertex 14.2 25 23.8856
    endloop
  endfacet
  facet normal 0.342019 0 -0.939693
    outer loop
      vertex 14.2 25 23.8856
      vertex 14.7222 19.9 24.0757
      vertex 14.2 19.9 23.8856
    endloop
  endfacet
  facet normal 0.642788 0 -0.766044
    outer loop
      vertex 14.2 25 23.8856
      vertex 14.2 19.9 23.8856
      vertex 13.7743 25 23.5285
    endloop
  endfacet
  facet normal 0.642788 0 -0.766044
    outer loop
      vertex 13.7743 25 23.5285
      vertex 14.2 19.9 23.8856
      vertex 13.7743 19.9 23.5285
    endloop
  endfacet
  facet normal 0.866025 0 -0.5
    outer loop
      vertex 13.4965 25 23.0472
      vertex 13.7743 25 23.5285
      vertex 13.7743 19.9 23.5285
    endloop
  endfacet
  facet normal 0.866025 3.48305e-16 -0.5
    outer loop
      vertex 13.4965 19.9 23.0472
      vertex 13.4965 25 23.0472
      vertex 13.7743 19.9 23.5285
    endloop
  endfacet
  facet normal -0.866025 3.48305e-16 -0.5
    outer loop
      vertex 56.5035 25 23.0472
      vertex 56.5035 19.9 23.0472
      vertex 56.2257 25 23.5285
    endloop
  endfacet
  facet normal -0.866025 0 -0.5
    outer loop
      vertex 56.2257 25 23.5285
      vertex 56.5035 19.9 23.0472
      vertex 56.2257 19.9 23.5285
    endloop
  endfacet
  facet normal -0.642788 0 -0.766044
    outer loop
      vertex 56.2257 25 23.5285
      vertex 56.2257 19.9 23.5285
      vertex 55.8 25 23.8856
    endloop
  endfacet
  facet normal -0.642788 0 -0.766044
    outer loop
      vertex 55.8 25 23.8856
      vertex 56.2257 19.9 23.5285
      vertex 55.8 19.9 23.8856
    endloop
  endfacet
  facet normal -0.342019 0 -0.939693
    outer loop
      vertex 55.8 25 23.8856
      vertex 55.8 19.9 23.8856
      vertex 55.2778 25 24.0757
    endloop
  endfacet
  facet normal -0.342019 6.546e-16 -0.939693
    outer loop
      vertex 55.2778 25 24.0757
      vertex 55.8 19.9 23.8856
      vertex 55.2778 19.9 24.0757
    endloop
  endfacet
  facet normal 0 6.96611e-16 -1
    outer loop
      vertex 55.2778 25 24.0757
      vertex 55.2778 19.9 24.0757
      vertex 54.7222 25 24.0757
    endloop
  endfacet
  facet normal 0 6.96611e-16 -1
    outer loop
      vertex 54.7222 25 24.0757
      vertex 55.2778 19.9 24.0757
      vertex 54.7222 19.9 24.0757
    endloop
  endfacet
  facet normal 0.342019 6.546e-16 -0.939693
    outer loop
      vertex 54.7222 25 24.0757
      vertex 54.7222 19.9 24.0757
      vertex 54.2 25 23.8856
    endloop
  endfacet
  facet normal 0.342019 0 -0.939693
    outer loop
      vertex 54.2 25 23.8856
      vertex 54.7222 19.9 24.0757
      vertex 54.2 19.9 23.8856
    endloop
  endfacet
  facet normal 0.642788 0 -0.766044
    outer loop
      vertex 54.2 25 23.8856
      vertex 54.2 19.9 23.8856
      vertex 53.7743 25 23.5285
    endloop
  endfacet
  facet normal 0.642788 0 -0.766044
    outer loop
      vertex 53.7743 25 23.5285
      vertex 54.2 19.9 23.8856
      vertex 53.7743 19.9 23.5285
    endloop
  endfacet
  facet normal 0.866025 0 -0.5
    outer loop
      vertex 53.4965 25 23.0472
      vertex 53.7743 25 23.5285
      vertex 53.7743 19.9 23.5285
    endloop
  endfacet
  facet normal 0.866025 3.48305e-16 -0.5
    outer loop
      vertex 53.4965 19.9 23.0472
      vertex 53.4965 25 23.0472
      vertex 53.7743 19.9 23.5285
    endloop
  endfacet
  facet normal -0 1 0
    outer loop
      vertex 70 24.6441 6.99642
      vertex 65.2 24.6441 6.99642
      vertex 70 24.6441 8.00358
    endloop
  endfacet
  facet normal 0 1 0
    outer loop
      vertex 70 24.6441 8.00358
      vertex 65.2 24.6441 6.99642
      vertex 65.2 24.6441 8.00358
    endloop
  endfacet
  facet normal -6.32863e-17 0.939693 0.34202
    outer loop
      vertex 70 24.9885 6.05
      vertex 65.2 24.9885 6.05
      vertex 70 24.6441 6.99642
    endloop
  endfacet
  facet normal -1.26573e-16 0.939693 0.34202
    outer loop
      vertex 70 24.6441 6.99642
      vertex 65.2 24.9885 6.05
      vertex 65.2 24.6441 6.99642
    endloop
  endfacet
  facet normal -1.1894e-16 0.766044 0.642788
    outer loop
      vertex 70 25.6359 5.27847
      vertex 65.2 25.6359 5.27847
      vertex 70 24.9885 6.05
    endloop
  endfacet
  facet normal -1.1894e-16 0.766044 0.642788
    outer loop
      vertex 70 24.9885 6.05
      vertex 65.2 25.6359 5.27847
      vertex 65.2 24.9885 6.05
    endloop
  endfacet
  facet normal -1.56234e-16 0.5 0.866025
    outer loop
      vertex 70 25.6359 5.27847
      vertex 70 26.5081 4.77489
      vertex 65.2 26.5081 4.77489
    endloop
  endfacet
  facet normal -1.60247e-16 0.5 0.866025
    outer loop
      vertex 65.2 25.6359 5.27847
      vertex 70 25.6359 5.27847
      vertex 65.2 26.5081 4.77489
    endloop
  endfacet
  facet normal -1.84505e-16 0.173648 0.984808
    outer loop
      vertex 70 26.5081 4.77489
      vertex 70 27.5 4.6
      vertex 65.2 27.5 4.6
    endloop
  endfacet
  facet normal -1.82226e-16 0.173648 0.984808
    outer loop
      vertex 65.2 26.5081 4.77489
      vertex 70 26.5081 4.77489
      vertex 65.2 27.5 4.6
    endloop
  endfacet
  facet normal -1.82226e-16 -0.173648 0.984808
    outer loop
      vertex 65.2 27.5 4.6
      vertex 70 27.5 4.6
      vertex 70 28.4919 4.77489
    endloop
  endfacet
  facet normal -1.82226e-16 -0.173648 0.984808
    outer loop
      vertex 65.2 28.4919 4.77489
      vertex 65.2 27.5 4.6
      vertex 70 28.4919 4.77489
    endloop
  endfacet
  facet normal -1.60247e-16 -0.5 0.866025
    outer loop
      vertex 65.2 28.4919 4.77489
      vertex 70 28.4919 4.77489
      vertex 70 29.3641 5.27847
    endloop
  endfacet
  facet normal -1.60247e-16 -0.5 0.866025
    outer loop
      vertex 65.2 29.3641 5.27847
      vertex 65.2 28.4919 4.77489
      vertex 70 29.3641 5.27847
    endloop
  endfacet
  facet normal -1.1894e-16 -0.766044 0.642788
    outer loop
      vertex 65.2 29.3641 5.27847
      vertex 70 29.3641 5.27847
      vertex 70 30.0115 6.05
    endloop
  endfacet
  facet normal -1.1894e-16 -0.766044 0.642788
    outer loop
      vertex 65.2 30.0115 6.05
      vertex 65.2 29.3641 5.27847
      vertex 70 30.0115 6.05
    endloop
  endfacet
  facet normal -6.32863e-17 -0.939693 0.34202
    outer loop
      vertex 65.2 30.0115 6.05
      vertex 70 30.0115 6.05
      vertex 70 30.3559 6.99642
    endloop
  endfacet
  facet normal -1.26573e-16 -0.939693 0.34202
    outer loop
      vertex 65.2 30.3559 6.99642
      vertex 65.2 30.0115 6.05
      vertex 70 30.3559 6.99642
    endloop
  endfacet
  facet normal 0 -1 0
    outer loop
      vertex 65.2 30.3559 6.99642
      vertex 70 30.3559 6.99642
      vertex 70 30.3559 8.00358
    endloop
  endfacet
  facet normal -0 -1 0
    outer loop
      vertex 65.2 30.3559 8.00358
      vertex 65.2 30.3559 6.99642
      vertex 70 30.3559 8.00358
    endloop
  endfacet
  facet normal 1.26573e-16 -0.939693 -0.34202
    outer loop
      vertex 65.2 30.3559 8.00358
      vertex 70 30.3559 8.00358
      vertex 70 30.0115 8.95
    endloop
  endfacet
  facet normal 1.26573e-16 -0.939693 -0.34202
    outer loop
      vertex 65.2 30.0115 8.95
      vertex 65.2 30.3559 8.00358
      vertex 70 30.0115 8.95
    endloop
  endfacet
  facet normal 2.37879e-16 -0.766044 -0.642788
    outer loop
      vertex 65.2 30.0115 8.95
      vertex 70 30.0115 8.95
      vertex 70 29.3641 9.72153
    endloop
  endfacet
  facet normal -0 -0.766044 -0.642788
    outer loop
      vertex 65.2 29.3641 9.72153
      vertex 65.2 30.0115 8.95
      vertex 70 29.3641 9.72153
    endloop
  endfacet
  facet normal 0 -0.5 -0.866025
    outer loop
      vertex 70 29.3641 9.72153
      vertex 70 28.4919 10.2251
      vertex 65.2 29.3641 9.72153
    endloop
  endfacet
  facet normal 0 -0.5 -0.866025
    outer loop
      vertex 65.2 29.3641 9.72153
      vertex 70 28.4919 10.2251
      vertex 65.2 28.4919 10.2251
    endloop
  endfacet
  facet normal 0 -0.173648 -0.984808
    outer loop
      vertex 70 28.4919 10.2251
      vertex 70 27.5 10.4
      vertex 65.2 28.4919 10.2251
    endloop
  endfacet
  facet normal 0 -0.173648 -0.984808
    outer loop
      vertex 65.2 28.4919 10.2251
      vertex 70 27.5 10.4
      vertex 65.2 27.5 10.4
    endloop
  endfacet
  facet normal 0 0.173648 -0.984808
    outer loop
      vertex 70 26.5081 10.2251
      vertex 65.2 26.5081 10.2251
      vertex 70 27.5 10.4
    endloop
  endfacet
  facet normal 0 0.173648 -0.984808
    outer loop
      vertex 70 27.5 10.4
      vertex 65.2 26.5081 10.2251
      vertex 65.2 27.5 10.4
    endloop
  endfacet
  facet normal 0 0.5 -0.866025
    outer loop
      vertex 70 25.6359 9.72153
      vertex 65.2 25.6359 9.72153
      vertex 70 26.5081 10.2251
    endloop
  endfacet
  facet normal 0 0.5 -0.866025
    outer loop
      vertex 70 26.5081 10.2251
      vertex 65.2 25.6359 9.72153
      vertex 65.2 26.5081 10.2251
    endloop
  endfacet
  facet normal 2.37879e-16 0.766044 -0.642788
    outer loop
      vertex 70 24.9885 8.95
      vertex 65.2 24.9885 8.95
      vertex 70 25.6359 9.72153
    endloop
  endfacet
  facet normal 0 0.766044 -0.642788
    outer loop
      vertex 70 25.6359 9.72153
      vertex 65.2 24.9885 8.95
      vertex 65.2 25.6359 9.72153
    endloop
  endfacet
  facet normal 1.26573e-16 0.939693 -0.34202
    outer loop
      vertex 70 24.6441 8.00358
      vertex 65.2 24.6441 8.00358
      vertex 70 24.9885 8.95
    endloop
  endfacet
  facet normal 1.26573e-16 0.939693 -0.34202
    outer loop
      vertex 70 24.9885 8.95
      vertex 65.2 24.6441 8.00358
      vertex 65.2 24.9885 8.95
    endloop
  endfacet
  facet normal 1.38778e-16 0.866025 -0.5
    outer loop
      vertex 65.2 22.475 7.5
      vertex 62 22.475 7.5
      vertex 65.2 24.9875 11.8518
    endloop
  endfacet
  facet normal 0 0.866025 -0.5
    outer loop
      vertex 65.2 24.9875 11.8518
      vertex 62 22.475 7.5
      vertex 62 24.9875 11.8518
    endloop
  endfacet
  facet normal 0 3.44262e-08 -1
    outer loop
      vertex 65.2 24.9875 11.8518
      vertex 62 24.9875 11.8518
      vertex 65.2 30.0125 11.8518
    endloop
  endfacet
  facet normal 5.55112e-16 3.44262e-08 -1
    outer loop
      vertex 65.2 30.0125 11.8518
      vertex 62 24.9875 11.8518
      vertex 62 30.0125 11.8518
    endloop
  endfacet
  facet normal 5.55112e-16 3.44262e-08 -1
    outer loop
      vertex 65.2 30.0125 11.8518
      vertex 62 30.0125 11.8518
      vertex 65.2 33.0125 11.8518
    endloop
  endfacet
  facet normal 5.55112e-16 3.44262e-08 -1
    outer loop
      vertex 65.2 33.0125 11.8518
      vertex 62 30.0125 11.8518
      vertex 62 33.0125 11.8518
    endloop
  endfacet
  facet normal -1.38778e-16 -3.44262e-08 1
    outer loop
      vertex 62 30.9875 3.14822
      vertex 65.2 30.9875 3.14822
      vertex 65.2 33.9875 3.14822
    endloop
  endfacet
  facet normal -2.77556e-16 -3.44262e-08 1
    outer loop
      vertex 62 33.9875 3.14822
      vertex 62 30.9875 3.14822
      vertex 65.2 33.9875 3.14822
    endloop
  endfacet
  facet normal -1.38778e-16 -3.44262e-08 1
    outer loop
      vertex 62 27.9875 3.14822
      vertex 65.2 27.9875 3.14822
      vertex 65.2 30.9875 3.14822
    endloop
  endfacet
  facet normal -2.77556e-16 -3.44262e-08 1
    outer loop
      vertex 62 30.9875 3.14822
      vertex 62 27.9875 3.14822
      vertex 65.2 30.9875 3.14822
    endloop
  endfacet
  facet normal -1.38778e-16 -3.44262e-08 1
    outer loop
      vertex 62 24.9875 3.14822
      vertex 65.2 24.9875 3.14822
      vertex 65.2 27.9875 3.14822
    endloop
  endfacet
  facet normal -2.77556e-16 -3.44262e-08 1
    outer loop
      vertex 62 27.9875 3.14822
      vertex 62 24.9875 3.14822
      vertex 65.2 27.9875 3.14822
    endloop
  endfacet
  facet normal -6.93889e-17 0.866025 0.5
    outer loop
      vertex 65.2 24.9875 3.14822
      vertex 62 24.9875 3.14822
      vertex 65.2 22.475 7.5
    endloop
  endfacet
  facet normal -1.38778e-16 0.866025 0.5
    outer loop
      vertex 65.2 22.475 7.5
      vertex 62 24.9875 3.14822
      vertex 62 22.475 7.5
    endloop
  endfacet
endsolid OpenSCAD_Model
