solid OpenSCAD_Model
  facet normal -1 0 0
    outer loop
      vertex -20 -7.5 0
      vertex -20 -7.5 10
      vertex -20 12.5 0
    endloop
  endfacet
  facet normal -1 0 0
    outer loop
      vertex -20 12.5 0
      vertex -20 -7.5 10
      vertex -20 7.5 10
    endloop
  endfacet
  facet normal -1 0 0
    outer loop
      vertex -20 12.5 0
      vertex -20 7.5 10
      vertex -20 7.5 11.076
    endloop
  endfacet
  facet normal -1 0 0
    outer loop
      vertex -20 12.5 0
      vertex -20 7.5 11.076
      vertex -20 12.5 11.076
    endloop
  endfacet
  facet normal 0 -1 0
    outer loop
      vertex 1.38918 -7.5 3.12154
      vertex -20 -7.5 0
      vertex 20 -7.5 0
    endloop
  endfacet
  facet normal 0 -1 0
    outer loop
      vertex -4 -7.5 4.0718
      vertex -6.12836 -7.5 5.8577
      vertex -20 -7.5 10
    endloop
  endfacet
  facet normal 0 -1 0
    outer loop
      vertex 20 -7.5 10
      vertex 7.82367 -7.5 10
      vertex 20 -7.5 0
    endloop
  endfacet
  facet normal 0 -1 0
    outer loop
      vertex 7.82367 -7.5 10
      vertex 7.51754 -7.5 8.26384
      vertex 20 -7.5 0
    endloop
  endfacet
  facet normal 0 -1 0
    outer loop
      vertex 7.51754 -7.5 8.26384
      vertex 6.12836 -7.5 5.8577
      vertex 20 -7.5 0
    endloop
  endfacet
  facet normal 0 -1 0
    outer loop
      vertex 6.12836 -7.5 5.8577
      vertex 4 -7.5 4.0718
      vertex 20 -7.5 0
    endloop
  endfacet
  facet normal 0 -1 0
    outer loop
      vertex -7.51754 -7.5 8.26384
      vertex -7.82367 -7.5 10
      vertex -20 -7.5 10
    endloop
  endfacet
  facet normal 0 -1 0
    outer loop
      vertex -1.38918 -7.5 3.12154
      vertex -20 -7.5 0
      vertex 1.38918 -7.5 3.12154
    endloop
  endfacet
  facet normal 0 -1 0
    outer loop
      vertex -4 -7.5 4.0718
      vertex -20 -7.5 0
      vertex -1.38918 -7.5 3.12154
    endloop
  endfacet
  facet normal 0 -1 0
    outer loop
      vertex -6.12836 -7.5 5.8577
      vertex -7.51754 -7.5 8.26384
      vertex -20 -7.5 10
    endloop
  endfacet
  facet normal 0 -1 0
    outer loop
      vertex -20 -7.5 10
      vertex -20 -7.5 0
      vertex -4 -7.5 4.0718
    endloop
  endfacet
  facet normal 0 -1 0
    outer loop
      vertex 4 -7.5 4.0718
      vertex 1.38918 -7.5 3.12154
      vertex 20 -7.5 0
    endloop
  endfacet
  facet normal 0 0 -1
    outer loop
      vertex 13.0225 6.45822 0
      vertex -20 12.5 0
      vertex 20 12.5 0
    endloop
  endfacet
  facet normal 0 0 -1
    outer loop
      vertex -20 -7.5 0
      vertex -20 12.5 0
      vertex -16.25 3.75 0
    endloop
  endfacet
  facet normal 0 0 -1
    outer loop
      vertex -20 -7.5 0
      vertex -16.25 3.75 0
      vertex -16.25 -3.75 0
    endloop
  endfacet
  facet normal 0 0 -1
    outer loop
      vertex -10.75 3.75 0
      vertex 10.9158 -4.69055 0
      vertex -10.75 -3.75 0
    endloop
  endfacet
  facet normal 0 0 -1
    outer loop
      vertex -20 -7.5 0
      vertex -16.25 -3.75 0
      vertex -16.0842 -4.69055 0
    endloop
  endfacet
  facet normal 0 0 -1
    outer loop
      vertex -20 -7.5 0
      vertex -16.0842 -4.69055 0
      vertex -15.6066 -5.51767 0
    endloop
  endfacet
  facet normal 0 0 -1
    outer loop
      vertex -20 -7.5 0
      vertex -15.6066 -5.51767 0
      vertex -14.875 -6.13157 0
    endloop
  endfacet
  facet normal 0 0 -1
    outer loop
      vertex -20 -7.5 0
      vertex -14.875 -6.13157 0
      vertex -13.9775 -6.45822 0
    endloop
  endfacet
  facet normal 0 0 -1
    outer loop
      vertex -20 -7.5 0
      vertex -13.9775 -6.45822 0
      vertex 20 -7.5 0
    endloop
  endfacet
  facet normal 0 0 -1
    outer loop
      vertex -13.9775 -6.45822 0
      vertex -13.0225 -6.45822 0
      vertex 20 -7.5 0
    endloop
  endfacet
  facet normal 0 0 -1
    outer loop
      vertex -11.3934 -5.51767 0
      vertex 20 -7.5 0
      vertex -12.125 -6.13157 0
    endloop
  endfacet
  facet normal 0 0 -1
    outer loop
      vertex -10.9158 -4.69055 0
      vertex 20 -7.5 0
      vertex -11.3934 -5.51767 0
    endloop
  endfacet
  facet normal 0 0 -1
    outer loop
      vertex -10.75 -3.75 0
      vertex 20 -7.5 0
      vertex -10.9158 -4.69055 0
    endloop
  endfacet
  facet normal 0 0 -1
    outer loop
      vertex 14.875 -6.13157 0
      vertex 20 -7.5 0
      vertex 13.9775 -6.45822 0
    endloop
  endfacet
  facet normal 0 0 -1
    outer loop
      vertex 10.75 -3.75 0
      vertex -11.3934 5.51767 0
      vertex -12.125 6.13157 0
    endloop
  endfacet
  facet normal 0 0 -1
    outer loop
      vertex -13.0225 6.45822 0
      vertex -20 12.5 0
      vertex -12.125 6.13157 0
    endloop
  endfacet
  facet normal 0 0 -1
    outer loop
      vertex -13.9775 6.45822 0
      vertex -20 12.5 0
      vertex -13.0225 6.45822 0
    endloop
  endfacet
  facet normal 0 0 -1
    outer loop
      vertex 10.9158 -4.69055 0
      vertex -10.75 3.75 0
      vertex -10.9158 4.69055 0
    endloop
  endfacet
  facet normal 0 0 -1
    outer loop
      vertex 10.75 -3.75 0
      vertex -20 12.5 0
      vertex 10.75 3.75 0
    endloop
  endfacet
  facet normal 0 0 -1
    outer loop
      vertex 10.9158 -4.69055 0
      vertex -10.9158 4.69055 0
      vertex 10.75 -3.75 0
    endloop
  endfacet
  facet normal 0 0 -1
    outer loop
      vertex 10.75 -3.75 0
      vertex -12.125 6.13157 0
      vertex -20 12.5 0
    endloop
  endfacet
  facet normal 0 0 -1
    outer loop
      vertex -14.875 6.13157 0
      vertex -20 12.5 0
      vertex -13.9775 6.45822 0
    endloop
  endfacet
  facet normal 0 0 -1
    outer loop
      vertex -15.6066 5.51767 0
      vertex -20 12.5 0
      vertex -14.875 6.13157 0
    endloop
  endfacet
  facet normal 0 0 -1
    outer loop
      vertex -16.0842 4.69055 0
      vertex -20 12.5 0
      vertex -15.6066 5.51767 0
    endloop
  endfacet
  facet normal 0 0 -1
    outer loop
      vertex -16.25 3.75 0
      vertex -20 12.5 0
      vertex -16.0842 4.69055 0
    endloop
  endfacet
  facet normal 0 0 -1
    outer loop
      vertex -10.9158 4.69055 0
      vertex -11.3934 5.51767 0
      vertex 10.75 -3.75 0
    endloop
  endfacet
  facet normal 0 0 -1
    outer loop
      vertex -10.75 -3.75 0
      vertex 10.9158 -4.69055 0
      vertex 11.3934 -5.51767 0
    endloop
  endfacet
  facet normal 0 0 -1
    outer loop
      vertex -10.75 -3.75 0
      vertex 11.3934 -5.51767 0
      vertex 12.125 -6.13157 0
    endloop
  endfacet
  facet normal 0 0 -1
    outer loop
      vertex -10.75 -3.75 0
      vertex 12.125 -6.13157 0
      vertex 13.0225 -6.45822 0
    endloop
  endfacet
  facet normal 0 0 -1
    outer loop
      vertex -10.75 -3.75 0
      vertex 13.0225 -6.45822 0
      vertex 20 -7.5 0
    endloop
  endfacet
  facet normal 0 0 -1
    outer loop
      vertex 13.0225 -6.45822 0
      vertex 13.9775 -6.45822 0
      vertex 20 -7.5 0
    endloop
  endfacet
  facet normal 0 0 -1
    outer loop
      vertex 15.6066 -5.51767 0
      vertex 20 -7.5 0
      vertex 14.875 -6.13157 0
    endloop
  endfacet
  facet normal 0 0 -1
    outer loop
      vertex 20 -7.5 0
      vertex 16.0842 -4.69055 0
      vertex 16.25 -3.75 0
    endloop
  endfacet
  facet normal 0 0 -1
    outer loop
      vertex 13.0225 6.45822 0
      vertex 20 12.5 0
      vertex 13.9775 6.45822 0
    endloop
  endfacet
  facet normal 0 0 -1
    outer loop
      vertex 20 -7.5 0
      vertex 16.25 3.75 0
      vertex 20 12.5 0
    endloop
  endfacet
  facet normal 0 0 -1
    outer loop
      vertex 16.25 3.75 0
      vertex 16.0842 4.69055 0
      vertex 20 12.5 0
    endloop
  endfacet
  facet normal 0 0 -1
    outer loop
      vertex 16.0842 4.69055 0
      vertex 15.6066 5.51767 0
      vertex 20 12.5 0
    endloop
  endfacet
  facet normal 0 0 -1
    outer loop
      vertex 15.6066 5.51767 0
      vertex 14.875 6.13157 0
      vertex 20 12.5 0
    endloop
  endfacet
  facet normal 0 0 -1
    outer loop
      vertex 14.875 6.13157 0
      vertex 13.9775 6.45822 0
      vertex 20 12.5 0
    endloop
  endfacet
  facet normal 0 0 -1
    outer loop
      vertex 12.125 6.13157 0
      vertex -20 12.5 0
      vertex 13.0225 6.45822 0
    endloop
  endfacet
  facet normal 0 0 -1
    outer loop
      vertex 11.3934 5.51767 0
      vertex -20 12.5 0
      vertex 12.125 6.13157 0
    endloop
  endfacet
  facet normal 0 0 -1
    outer loop
      vertex 10.9158 4.69055 0
      vertex -20 12.5 0
      vertex 11.3934 5.51767 0
    endloop
  endfacet
  facet normal 0 0 -1
    outer loop
      vertex 10.75 3.75 0
      vertex -20 12.5 0
      vertex 10.9158 4.69055 0
    endloop
  endfacet
  facet normal 0 0 -1
    outer loop
      vertex -12.125 -6.13157 0
      vertex 20 -7.5 0
      vertex -13.0225 -6.45822 0
    endloop
  endfacet
  facet normal 0 0 -1
    outer loop
      vertex 16.0842 -4.69055 0
      vertex 20 -7.5 0
      vertex 15.6066 -5.51767 0
    endloop
  endfacet
  facet normal 0 0 -1
    outer loop
      vertex 16.25 3.75 0
      vertex 20 -7.5 0
      vertex 16.25 -3.75 0
    endloop
  endfacet
  facet normal 0 1 0
    outer loop
      vertex -20 12.5 0
      vertex -20 12.5 11.076
      vertex 20 12.5 0
    endloop
  endfacet
  facet normal 0 1 0
    outer loop
      vertex -3.83022 12.5 7.78606
      vertex -20 12.5 11.076
      vertex -12.8318 12.5 11.076
    endloop
  endfacet
  facet normal 0 1 0
    outer loop
      vertex -10 12.5 11
      vertex -12.8318 12.5 11.076
      vertex -11.2 12.5 11.6699
    endloop
  endfacet
  facet normal 0 1 0
    outer loop
      vertex -5 12.5 11
      vertex -4.69846 12.5 9.2899
      vertex -10 12.5 11
    endloop
  endfacet
  facet normal 0 1 0
    outer loop
      vertex -2.5 12.5 6.66987
      vertex -20 12.5 11.076
      vertex -3.83022 12.5 7.78606
    endloop
  endfacet
  facet normal 0 1 0
    outer loop
      vertex 0.868241 12.5 6.07596
      vertex 20 12.5 0
      vertex -0.868241 12.5 6.07596
    endloop
  endfacet
  facet normal 0 1 0
    outer loop
      vertex -0.868241 12.5 6.07596
      vertex -20 12.5 11.076
      vertex -2.5 12.5 6.66987
    endloop
  endfacet
  facet normal 0 1 0
    outer loop
      vertex 20 12.5 0
      vertex -20 12.5 11.076
      vertex -0.868241 12.5 6.07596
    endloop
  endfacet
  facet normal 0 1 0
    outer loop
      vertex 2.5 12.5 6.66987
      vertex 20 12.5 0
      vertex 0.868241 12.5 6.07596
    endloop
  endfacet
  facet normal 0 1 0
    outer loop
      vertex 3.83022 12.5 7.78606
      vertex 20 12.5 0
      vertex 2.5 12.5 6.66987
    endloop
  endfacet
  facet normal 0 1 0
    outer loop
      vertex 11.3 12.5 11.6699
      vertex 20 12.5 0
      vertex 9.96978 12.5 12.7861
    endloop
  endfacet
  facet normal 0 1 0
    outer loop
      vertex 20 12.5 0
      vertex 3.83022 12.5 7.78606
      vertex 4.69846 12.5 9.2899
    endloop
  endfacet
  facet normal 0 1 0
    outer loop
      vertex 4.69846 12.5 9.2899
      vertex 5 12.5 11
      vertex 20 12.5 0
    endloop
  endfacet
  facet normal 0 1 0
    outer loop
      vertex 20 12.5 0
      vertex 5 12.5 11
      vertex 10 12.5 11
    endloop
  endfacet
  facet normal 0 1 0
    outer loop
      vertex 10 12.5 11
      vertex 9.55988 12.5 13.496
      vertex 9.96978 12.5 12.7861
    endloop
  endfacet
  facet normal 0 1 0
    outer loop
      vertex 10 12.5 11
      vertex 9.96978 12.5 12.7861
      vertex 20 12.5 0
    endloop
  endfacet
  facet normal 0 1 0
    outer loop
      vertex 20 12.5 0
      vertex 11.3 12.5 11.6699
      vertex 12.9318 12.5 11.076
    endloop
  endfacet
  facet normal 0 1 0
    outer loop
      vertex 12.9318 12.5 11.076
      vertex 20 12.5 11.076
      vertex 20 12.5 0
    endloop
  endfacet
  facet normal 0 1 0
    outer loop
      vertex -10 12.5 11
      vertex -11.2 12.5 11.6699
      vertex -9.86978 12.5 12.7861
    endloop
  endfacet
  facet normal 0 1 0
    outer loop
      vertex -10 12.5 11
      vertex -9.86978 12.5 12.7861
      vertex -9.60385 12.5 13.2467
    endloop
  endfacet
  facet normal 0 1 0
    outer loop
      vertex -3.83022 12.5 7.78606
      vertex -12.8318 12.5 11.076
      vertex -10 12.5 11
    endloop
  endfacet
  facet normal 0 1 0
    outer loop
      vertex -3.83022 12.5 7.78606
      vertex -10 12.5 11
      vertex -4.69846 12.5 9.2899
    endloop
  endfacet
  facet normal 0 2.22045e-16 1
    outer loop
      vertex -12.8318 7.5 11.076
      vertex -12.8318 12.5 11.076
      vertex -20 12.5 11.076
    endloop
  endfacet
  facet normal 0 2.22045e-16 1
    outer loop
      vertex -20 7.5 11.076
      vertex -12.8318 7.5 11.076
      vertex -20 12.5 11.076
    endloop
  endfacet
  facet normal 0 -1 0
    outer loop
      vertex -8.45723 7.5 14.0782
      vertex -10 7.5 11
      vertex -9 7.5 11
    endloop
  endfacet
  facet normal 0 -1 0
    outer loop
      vertex -7.66044 7.5 17.4279
      vertex -10 7.5 11
      vertex -8.45723 7.5 14.0782
    endloop
  endfacet
  facet normal 0 -1 0
    outer loop
      vertex 1.56283 7.5 19.8633
      vertex 1.73648 7.5 20.8481
      vertex -1.56283 7.5 19.8633
    endloop
  endfacet
  facet normal 0 -1 0
    outer loop
      vertex -9.82367 7.5 10
      vertex -10 7.5 11
      vertex -11.2 7.5 11.6699
    endloop
  endfacet
  facet normal 0 -1 0
    outer loop
      vertex -7.66044 7.5 17.4279
      vertex -8.45723 7.5 14.0782
      vertex -6.8944 7.5 16.7851
    endloop
  endfacet
  facet normal 0 -1 0
    outer loop
      vertex -5 7.5 19.6603
      vertex -6.8944 7.5 16.7851
      vertex -4.5 7.5 18.7942
    endloop
  endfacet
  facet normal 0 -1 0
    outer loop
      vertex -1.73648 7.5 20.8481
      vertex -4.5 7.5 18.7942
      vertex -1.56283 7.5 19.8633
    endloop
  endfacet
  facet normal 0 -1 0
    outer loop
      vertex 4.5 7.5 18.7942
      vertex 5 7.5 19.6603
      vertex 1.56283 7.5 19.8633
    endloop
  endfacet
  facet normal 0 -1 0
    outer loop
      vertex 9.96978 7.5 12.7861
      vertex 9.10154 7.5 14.2899
      vertex 8.45723 7.5 14.0782
    endloop
  endfacet
  facet normal 0 -1 0
    outer loop
      vertex 9 7.5 11
      vertex 10 7.5 11
      vertex 8.45723 7.5 14.0782
    endloop
  endfacet
  facet normal 0 -1 0
    outer loop
      vertex 7.66044 7.5 17.4279
      vertex 5 7.5 19.6603
      vertex 4.5 7.5 18.7942
    endloop
  endfacet
  facet normal 0 -1 0
    outer loop
      vertex 9.82367 7.5 10
      vertex 20 7.5 10
      vertex 10 7.5 11
    endloop
  endfacet
  facet normal 0 -1 0
    outer loop
      vertex 9.10154 7.5 14.2899
      vertex 8.48483 7.5 16
      vertex 6.8944 7.5 16.7851
    endloop
  endfacet
  facet normal 0 -1 0
    outer loop
      vertex 10 7.5 11
      vertex 20 7.5 10
      vertex 12.9318 7.5 11.076
    endloop
  endfacet
  facet normal 0 -1 0
    outer loop
      vertex 9.10154 7.5 14.2899
      vertex 8.8 7.5 16
      vertex 8.48483 7.5 16
    endloop
  endfacet
  facet normal 0 -1 0
    outer loop
      vertex 10 7.5 11
      vertex 12.9318 7.5 11.076
      vertex 11.3 7.5 11.6699
    endloop
  endfacet
  facet normal 0 -1 0
    outer loop
      vertex 10 7.5 11
      vertex 9.96978 7.5 12.7861
      vertex 8.45723 7.5 14.0782
    endloop
  endfacet
  facet normal 0 -1 0
    outer loop
      vertex 10 7.5 11
      vertex 11.3 7.5 11.6699
      vertex 9.96978 7.5 12.7861
    endloop
  endfacet
  facet normal 0 -1 0
    outer loop
      vertex 8.45723 7.5 14.0782
      vertex 9.10154 7.5 14.2899
      vertex 6.8944 7.5 16.7851
    endloop
  endfacet
  facet normal 0 -1 0
    outer loop
      vertex 8.48483 7.5 16
      vertex 7.66044 7.5 17.4279
      vertex 4.5 7.5 18.7942
    endloop
  endfacet
  facet normal 0 -1 0
    outer loop
      vertex -9.00154 7.5 14.2899
      vertex -9.86978 7.5 12.7861
      vertex -10 7.5 11
    endloop
  endfacet
  facet normal 0 -1 0
    outer loop
      vertex 5 7.5 19.6603
      vertex 1.73648 7.5 20.8481
      vertex 1.56283 7.5 19.8633
    endloop
  endfacet
  facet normal 0 -1 0
    outer loop
      vertex 1.73648 7.5 20.8481
      vertex -1.73648 7.5 20.8481
      vertex -1.56283 7.5 19.8633
    endloop
  endfacet
  facet normal 0 -1 0
    outer loop
      vertex -1.73648 7.5 20.8481
      vertex -5 7.5 19.6603
      vertex -4.5 7.5 18.7942
    endloop
  endfacet
  facet normal 0 -1 0
    outer loop
      vertex -5 7.5 19.6603
      vertex -7.66044 7.5 17.4279
      vertex -6.8944 7.5 16.7851
    endloop
  endfacet
  facet normal 0 -1 0
    outer loop
      vertex -9.86978 7.5 12.7861
      vertex -11.2 7.5 11.6699
      vertex -10 7.5 11
    endloop
  endfacet
  facet normal 0 -1 0
    outer loop
      vertex -7.66044 7.5 17.4279
      vertex -9.00154 7.5 14.2899
      vertex -10 7.5 11
    endloop
  endfacet
  facet normal 0 -1 0
    outer loop
      vertex -7.66044 7.5 17.4279
      vertex -8.48483 7.5 16
      vertex -9.00154 7.5 14.2899
    endloop
  endfacet
  facet normal 0 -1 0
    outer loop
      vertex -12.8318 7.5 11.076
      vertex -20 7.5 11.076
      vertex -9.82367 7.5 10
    endloop
  endfacet
  facet normal 0 -1 0
    outer loop
      vertex -11.2 7.5 11.6699
      vertex -12.8318 7.5 11.076
      vertex -9.82367 7.5 10
    endloop
  endfacet
  facet normal 0 -1 0
    outer loop
      vertex -20 7.5 11.076
      vertex -20 7.5 10
      vertex -9.82367 7.5 10
    endloop
  endfacet
  facet normal 0 -1 0
    outer loop
      vertex 8.48483 7.5 16
      vertex 4.5 7.5 18.7942
      vertex 6.8944 7.5 16.7851
    endloop
  endfacet
  facet normal 0 -1 0
    outer loop
      vertex -8.7 7.5 16
      vertex -9.00154 7.5 14.2899
      vertex -8.48483 7.5 16
    endloop
  endfacet
  facet normal 0 -1 0
    outer loop
      vertex 20 7.5 11.076
      vertex 12.9318 7.5 11.076
      vertex 20 7.5 10
    endloop
  endfacet
  facet normal 0 0 1
    outer loop
      vertex -13.0225 -6.45822 10
      vertex -20 -7.5 10
      vertex -7.82367 -7.5 10
    endloop
  endfacet
  facet normal 0 0 1
    outer loop
      vertex -7.82367 7 10
      vertex -8.82367 7 10
      vertex -7.82367 -7.5 10
    endloop
  endfacet
  facet normal 0 0 1
    outer loop
      vertex -10.75 -3.75 10
      vertex -10.9158 -4.69055 10
      vertex -7.82367 -7.5 10
    endloop
  endfacet
  facet normal 0 0 1
    outer loop
      vertex -13.9775 -6.45822 10
      vertex -14.875 -6.13157 10
      vertex -20 -7.5 10
    endloop
  endfacet
  facet normal 0 0 1
    outer loop
      vertex -20 7.5 10
      vertex -20 -7.5 10
      vertex -16.25 -3.75 10
    endloop
  endfacet
  facet normal 0 0 1
    outer loop
      vertex -11.3934 -5.51767 10
      vertex -12.125 -6.13157 10
      vertex -7.82367 -7.5 10
    endloop
  endfacet
  facet normal 0 0 1
    outer loop
      vertex -16.0842 4.69055 10
      vertex -20 7.5 10
      vertex -16.25 3.75 10
    endloop
  endfacet
  facet normal 0 0 1
    outer loop
      vertex -15.6066 5.51767 10
      vertex -20 7.5 10
      vertex -16.0842 4.69055 10
    endloop
  endfacet
  facet normal 0 0 1
    outer loop
      vertex -14.875 6.13157 10
      vertex -20 7.5 10
      vertex -15.6066 5.51767 10
    endloop
  endfacet
  facet normal 0 0 1
    outer loop
      vertex -13.9775 6.45822 10
      vertex -20 7.5 10
      vertex -14.875 6.13157 10
    endloop
  endfacet
  facet normal 0 0 1
    outer loop
      vertex -8.82367 7 10
      vertex -20 7.5 10
      vertex -13.9775 6.45822 10
    endloop
  endfacet
  facet normal 0 0 1
    outer loop
      vertex -12.125 6.13157 10
      vertex -11.3934 5.51767 10
      vertex -8.82367 7 10
    endloop
  endfacet
  facet normal 0 0 1
    outer loop
      vertex -8.82367 7 10
      vertex -13.9775 6.45822 10
      vertex -13.0225 6.45822 10
    endloop
  endfacet
  facet normal 0 0 1
    outer loop
      vertex -10.75 3.75 10
      vertex -10.75 -3.75 10
      vertex -7.82367 -7.5 10
    endloop
  endfacet
  facet normal 0 0 1
    outer loop
      vertex -8.82367 7 10
      vertex -10.9158 4.69055 10
      vertex -7.82367 -7.5 10
    endloop
  endfacet
  facet normal 0 0 1
    outer loop
      vertex -8.82367 7 10
      vertex -11.3934 5.51767 10
      vertex -10.9158 4.69055 10
    endloop
  endfacet
  facet normal 0 0 1
    outer loop
      vertex -10.9158 4.69055 10
      vertex -10.75 3.75 10
      vertex -7.82367 -7.5 10
    endloop
  endfacet
  facet normal 0 0 1
    outer loop
      vertex -13.0225 6.45822 10
      vertex -12.125 6.13157 10
      vertex -8.82367 7 10
    endloop
  endfacet
  facet normal 0 0 1
    outer loop
      vertex -10.9158 -4.69055 10
      vertex -11.3934 -5.51767 10
      vertex -7.82367 -7.5 10
    endloop
  endfacet
  facet normal 0 0 1
    outer loop
      vertex -12.125 -6.13157 10
      vertex -13.0225 -6.45822 10
      vertex -7.82367 -7.5 10
    endloop
  endfacet
  facet normal 0 0 1
    outer loop
      vertex -13.9775 -6.45822 10
      vertex -20 -7.5 10
      vertex -13.0225 -6.45822 10
    endloop
  endfacet
  facet normal 0 0 1
    outer loop
      vertex -15.6066 -5.51767 10
      vertex -20 -7.5 10
      vertex -14.875 -6.13157 10
    endloop
  endfacet
  facet normal 0 0 1
    outer loop
      vertex -16.0842 -4.69055 10
      vertex -20 -7.5 10
      vertex -15.6066 -5.51767 10
    endloop
  endfacet
  facet normal 0 0 1
    outer loop
      vertex -16.25 -3.75 10
      vertex -20 -7.5 10
      vertex -16.0842 -4.69055 10
    endloop
  endfacet
  facet normal 0 0 1
    outer loop
      vertex -8.82367 7 10
      vertex -9.82367 7.5 10
      vertex -20 7.5 10
    endloop
  endfacet
  facet normal 0 0 1
    outer loop
      vertex -8.82367 7 10
      vertex -8.82367 7.5 10
      vertex -9.82367 7.5 10
    endloop
  endfacet
  facet normal 0 0 1
    outer loop
      vertex -16.25 -3.75 10
      vertex -16.25 3.75 10
      vertex -20 7.5 10
    endloop
  endfacet
  facet normal 0.984808 3.85576e-17 0.173648
    outer loop
      vertex -7.82367 -7.5 10
      vertex -7.51754 -7.5 8.26384
      vertex -7.51754 7 8.26384
    endloop
  endfacet
  facet normal 0.984808 3.85576e-17 0.173648
    outer loop
      vertex -7.82367 7 10
      vertex -7.82367 -7.5 10
      vertex -7.51754 7 8.26384
    endloop
  endfacet
  facet normal 0.866025 1.11022e-16 0.5
    outer loop
      vertex -6.12836 -7.5 5.8577
      vertex -6.12836 7 5.8577
      vertex -7.51754 7 8.26384
    endloop
  endfacet
  facet normal 0.866025 1.11022e-16 0.5
    outer loop
      vertex -7.51754 -7.5 8.26384
      vertex -6.12836 -7.5 5.8577
      vertex -7.51754 7 8.26384
    endloop
  endfacet
  facet normal 0.642787 1.70096e-16 0.766045
    outer loop
      vertex -4 -7.5 4.0718
      vertex -4 7 4.0718
      vertex -6.12836 7 5.8577
    endloop
  endfacet
  facet normal 0.642787 1.70096e-16 0.766045
    outer loop
      vertex -6.12836 -7.5 5.8577
      vertex -4 -7.5 4.0718
      vertex -6.12836 7 5.8577
    endloop
  endfacet
  facet normal 0.34202 2.08654e-16 0.939693
    outer loop
      vertex -1.38918 -7.5 3.12154
      vertex -1.38918 7 3.12154
      vertex -4 7 4.0718
    endloop
  endfacet
  facet normal 0.34202 2.08654e-16 0.939693
    outer loop
      vertex -4 -7.5 4.0718
      vertex -1.38918 -7.5 3.12154
      vertex -4 7 4.0718
    endloop
  endfacet
  facet normal 0 2.22045e-16 1
    outer loop
      vertex 1.38918 -7.5 3.12154
      vertex 1.38918 7 3.12154
      vertex -1.38918 7 3.12154
    endloop
  endfacet
  facet normal 0 2.22045e-16 1
    outer loop
      vertex -1.38918 -7.5 3.12154
      vertex 1.38918 -7.5 3.12154
      vertex -1.38918 7 3.12154
    endloop
  endfacet
  facet normal -0.34202 2.08654e-16 0.939693
    outer loop
      vertex 4 -7.5 4.0718
      vertex 4 7 4.0718
      vertex 1.38918 7 3.12154
    endloop
  endfacet
  facet normal -0.34202 2.08654e-16 0.939693
    outer loop
      vertex 1.38918 -7.5 3.12154
      vertex 4 -7.5 4.0718
      vertex 1.38918 7 3.12154
    endloop
  endfacet
  facet normal -0.642787 1.70096e-16 0.766045
    outer loop
      vertex 6.12836 -7.5 5.8577
      vertex 6.12836 7 5.8577
      vertex 4 7 4.0718
    endloop
  endfacet
  facet normal -0.642787 1.70096e-16 0.766045
    outer loop
      vertex 4 -7.5 4.0718
      vertex 6.12836 -7.5 5.8577
      vertex 4 7 4.0718
    endloop
  endfacet
  facet normal -0.866025 1.11022e-16 0.5
    outer loop
      vertex 7.51754 7 8.26384
      vertex 6.12836 7 5.8577
      vertex 7.51754 -7.5 8.26384
    endloop
  endfacet
  facet normal -0.866025 1.11022e-16 0.5
    outer loop
      vertex 7.51754 -7.5 8.26384
      vertex 6.12836 7 5.8577
      vertex 6.12836 -7.5 5.8577
    endloop
  endfacet
  facet normal -0.984808 3.85576e-17 0.173648
    outer loop
      vertex 7.82367 7 10
      vertex 7.51754 7 8.26384
      vertex 7.82367 -7.5 10
    endloop
  endfacet
  facet normal -0.984808 3.85576e-17 0.173648
    outer loop
      vertex 7.82367 -7.5 10
      vertex 7.51754 7 8.26384
      vertex 7.51754 -7.5 8.26384
    endloop
  endfacet
  facet normal 0 0 1
    outer loop
      vertex 13.9775 -6.45822 10
      vertex 7.82367 -7.5 10
      vertex 20 -7.5 10
    endloop
  endfacet
  facet normal 0 0 1
    outer loop
      vertex 15.6066 -5.51767 10
      vertex 14.875 -6.13157 10
      vertex 20 -7.5 10
    endloop
  endfacet
  facet normal 0 0 1
    outer loop
      vertex 9.82367 7.5 10
      vertex 8.82367 7 10
      vertex 20 7.5 10
    endloop
  endfacet
  facet normal 0 0 1
    outer loop
      vertex 13.9775 -6.45822 10
      vertex 13.0225 -6.45822 10
      vertex 7.82367 -7.5 10
    endloop
  endfacet
  facet normal 0 0 1
    outer loop
      vertex 7.82367 7 10
      vertex 7.82367 -7.5 10
      vertex 10.75 -3.75 10
    endloop
  endfacet
  facet normal 0 0 1
    outer loop
      vertex 8.82367 7 10
      vertex 7.82367 7 10
      vertex 10.75 3.75 10
    endloop
  endfacet
  facet normal 0 0 1
    outer loop
      vertex 11.3934 5.51767 10
      vertex 8.82367 7 10
      vertex 10.9158 4.69055 10
    endloop
  endfacet
  facet normal 0 0 1
    outer loop
      vertex 12.125 6.13157 10
      vertex 8.82367 7 10
      vertex 11.3934 5.51767 10
    endloop
  endfacet
  facet normal 0 0 1
    outer loop
      vertex 14.875 6.13157 10
      vertex 15.6066 5.51767 10
      vertex 20 7.5 10
    endloop
  endfacet
  facet normal 0 0 1
    outer loop
      vertex 13.0225 6.45822 10
      vertex 8.82367 7 10
      vertex 12.125 6.13157 10
    endloop
  endfacet
  facet normal 0 0 1
    outer loop
      vertex 20 7.5 10
      vertex 8.82367 7 10
      vertex 13.0225 6.45822 10
    endloop
  endfacet
  facet normal 0 0 1
    outer loop
      vertex 20 7.5 10
      vertex 13.0225 6.45822 10
      vertex 13.9775 6.45822 10
    endloop
  endfacet
  facet normal 0 0 1
    outer loop
      vertex 20 7.5 10
      vertex 16.0842 4.69055 10
      vertex 20 -7.5 10
    endloop
  endfacet
  facet normal 0 0 1
    outer loop
      vertex 20 7.5 10
      vertex 15.6066 5.51767 10
      vertex 16.0842 4.69055 10
    endloop
  endfacet
  facet normal 0 0 1
    outer loop
      vertex 16.0842 4.69055 10
      vertex 16.25 3.75 10
      vertex 20 -7.5 10
    endloop
  endfacet
  facet normal 0 0 1
    outer loop
      vertex 10.75 3.75 10
      vertex 10.9158 4.69055 10
      vertex 8.82367 7 10
    endloop
  endfacet
  facet normal 0 0 1
    outer loop
      vertex 13.9775 6.45822 10
      vertex 14.875 6.13157 10
      vertex 20 7.5 10
    endloop
  endfacet
  facet normal 0 0 1
    outer loop
      vertex 16.25 -3.75 10
      vertex 16.0842 -4.69055 10
      vertex 20 -7.5 10
    endloop
  endfacet
  facet normal 0 0 1
    outer loop
      vertex 16.0842 -4.69055 10
      vertex 15.6066 -5.51767 10
      vertex 20 -7.5 10
    endloop
  endfacet
  facet normal 0 0 1
    outer loop
      vertex 14.875 -6.13157 10
      vertex 13.9775 -6.45822 10
      vertex 20 -7.5 10
    endloop
  endfacet
  facet normal 0 0 1
    outer loop
      vertex 12.125 -6.13157 10
      vertex 7.82367 -7.5 10
      vertex 13.0225 -6.45822 10
    endloop
  endfacet
  facet normal 0 0 1
    outer loop
      vertex 11.3934 -5.51767 10
      vertex 7.82367 -7.5 10
      vertex 12.125 -6.13157 10
    endloop
  endfacet
  facet normal 0 0 1
    outer loop
      vertex 10.9158 -4.69055 10
      vertex 7.82367 -7.5 10
      vertex 11.3934 -5.51767 10
    endloop
  endfacet
  facet normal 0 0 1
    outer loop
      vertex 10.75 -3.75 10
      vertex 7.82367 -7.5 10
      vertex 10.9158 -4.69055 10
    endloop
  endfacet
  facet normal 0 0 1
    outer loop
      vertex 10.75 -3.75 10
      vertex 10.75 3.75 10
      vertex 7.82367 7 10
    endloop
  endfacet
  facet normal 0 0 1
    outer loop
      vertex 8.82367 7.5 10
      vertex 8.82367 7 10
      vertex 9.82367 7.5 10
    endloop
  endfacet
  facet normal 0 0 1
    outer loop
      vertex 16.25 3.75 10
      vertex 16.25 -3.75 10
      vertex 20 -7.5 10
    endloop
  endfacet
  facet normal 1 0 0
    outer loop
      vertex 20 -7.5 10
      vertex 20 -7.5 0
      vertex 20 12.5 0
    endloop
  endfacet
  facet normal 1 0 0
    outer loop
      vertex 20 7.5 10
      vertex 20 -7.5 10
      vertex 20 12.5 0
    endloop
  endfacet
  facet normal 1 0 0
    outer loop
      vertex 20 12.5 11.076
      vertex 20 7.5 10
      vertex 20 12.5 0
    endloop
  endfacet
  facet normal 1 0 0
    outer loop
      vertex 20 7.5 11.076
      vertex 20 7.5 10
      vertex 20 12.5 11.076
    endloop
  endfacet
  facet normal 1 0 0
    outer loop
      vertex -16.25 -3.75 10
      vertex -16.25 -3.75 0
      vertex -16.25 3.75 0
    endloop
  endfacet
  facet normal 1 0 0
    outer loop
      vertex -16.25 3.75 10
      vertex -16.25 -3.75 10
      vertex -16.25 3.75 0
    endloop
  endfacet
  facet normal 0.984808 -0.173648 0
    outer loop
      vertex -16.25 3.75 10
      vertex -16.25 3.75 0
      vertex -16.0842 4.69055 0
    endloop
  endfacet
  facet normal 0.984808 -0.173648 0
    outer loop
      vertex -16.0842 4.69055 10
      vertex -16.25 3.75 10
      vertex -16.0842 4.69055 0
    endloop
  endfacet
  facet normal 0.866025 -0.5 0
    outer loop
      vertex -16.0842 4.69055 10
      vertex -16.0842 4.69055 0
      vertex -15.6066 5.51767 0
    endloop
  endfacet
  facet normal 0.866025 -0.5 0
    outer loop
      vertex -15.6066 5.51767 10
      vertex -16.0842 4.69055 10
      vertex -15.6066 5.51767 0
    endloop
  endfacet
  facet normal 0.642788 -0.766044 0
    outer loop
      vertex -15.6066 5.51767 10
      vertex -15.6066 5.51767 0
      vertex -14.875 6.13157 0
    endloop
  endfacet
  facet normal 0.642788 -0.766044 0
    outer loop
      vertex -14.875 6.13157 10
      vertex -15.6066 5.51767 10
      vertex -14.875 6.13157 0
    endloop
  endfacet
  facet normal 0.34202 -0.939693 0
    outer loop
      vertex -14.875 6.13157 10
      vertex -14.875 6.13157 0
      vertex -13.9775 6.45822 0
    endloop
  endfacet
  facet normal 0.34202 -0.939693 0
    outer loop
      vertex -13.9775 6.45822 10
      vertex -14.875 6.13157 10
      vertex -13.9775 6.45822 0
    endloop
  endfacet
  facet normal 0 -1 0
    outer loop
      vertex -13.9775 6.45822 10
      vertex -13.9775 6.45822 0
      vertex -13.0225 6.45822 0
    endloop
  endfacet
  facet normal 0 -1 0
    outer loop
      vertex -13.0225 6.45822 10
      vertex -13.9775 6.45822 10
      vertex -13.0225 6.45822 0
    endloop
  endfacet
  facet normal -0.34202 -0.939693 0
    outer loop
      vertex -13.0225 6.45822 10
      vertex -13.0225 6.45822 0
      vertex -12.125 6.13157 0
    endloop
  endfacet
  facet normal -0.34202 -0.939693 0
    outer loop
      vertex -12.125 6.13157 10
      vertex -13.0225 6.45822 10
      vertex -12.125 6.13157 0
    endloop
  endfacet
  facet normal -0.642788 -0.766044 0
    outer loop
      vertex -12.125 6.13157 10
      vertex -12.125 6.13157 0
      vertex -11.3934 5.51767 0
    endloop
  endfacet
  facet normal -0.642788 -0.766044 0
    outer loop
      vertex -11.3934 5.51767 10
      vertex -12.125 6.13157 10
      vertex -11.3934 5.51767 0
    endloop
  endfacet
  facet normal -0.866025 -0.5 0
    outer loop
      vertex -11.3934 5.51767 0
      vertex -10.9158 4.69055 0
      vertex -11.3934 5.51767 10
    endloop
  endfacet
  facet normal -0.866025 -0.5 0
    outer loop
      vertex -11.3934 5.51767 10
      vertex -10.9158 4.69055 0
      vertex -10.9158 4.69055 10
    endloop
  endfacet
  facet normal -0.984808 -0.173648 0
    outer loop
      vertex -10.9158 4.69055 0
      vertex -10.75 3.75 0
      vertex -10.9158 4.69055 10
    endloop
  endfacet
  facet normal -0.984808 -0.173648 0
    outer loop
      vertex -10.9158 4.69055 10
      vertex -10.75 3.75 0
      vertex -10.75 3.75 10
    endloop
  endfacet
  facet normal -1 0 0
    outer loop
      vertex -10.75 -3.75 0
      vertex -10.75 -3.75 10
      vertex -10.75 3.75 0
    endloop
  endfacet
  facet normal -1 0 0
    outer loop
      vertex -10.75 3.75 0
      vertex -10.75 -3.75 10
      vertex -10.75 3.75 10
    endloop
  endfacet
  facet normal -0.984808 0.173648 0
    outer loop
      vertex -10.9158 -4.69055 0
      vertex -10.9158 -4.69055 10
      vertex -10.75 -3.75 0
    endloop
  endfacet
  facet normal -0.984808 0.173648 0
    outer loop
      vertex -10.75 -3.75 0
      vertex -10.9158 -4.69055 10
      vertex -10.75 -3.75 10
    endloop
  endfacet
  facet normal -0.866025 0.5 0
    outer loop
      vertex -11.3934 -5.51767 0
      vertex -11.3934 -5.51767 10
      vertex -10.9158 -4.69055 0
    endloop
  endfacet
  facet normal -0.866025 0.5 0
    outer loop
      vertex -10.9158 -4.69055 0
      vertex -11.3934 -5.51767 10
      vertex -10.9158 -4.69055 10
    endloop
  endfacet
  facet normal -0.642788 0.766044 0
    outer loop
      vertex -12.125 -6.13157 0
      vertex -12.125 -6.13157 10
      vertex -11.3934 -5.51767 0
    endloop
  endfacet
  facet normal -0.642788 0.766044 0
    outer loop
      vertex -11.3934 -5.51767 0
      vertex -12.125 -6.13157 10
      vertex -11.3934 -5.51767 10
    endloop
  endfacet
  facet normal -0.34202 0.939693 0
    outer loop
      vertex -13.0225 -6.45822 0
      vertex -13.0225 -6.45822 10
      vertex -12.125 -6.13157 0
    endloop
  endfacet
  facet normal -0.34202 0.939693 0
    outer loop
      vertex -12.125 -6.13157 0
      vertex -13.0225 -6.45822 10
      vertex -12.125 -6.13157 10
    endloop
  endfacet
  facet normal 0 1 0
    outer loop
      vertex -13.9775 -6.45822 0
      vertex -13.9775 -6.45822 10
      vertex -13.0225 -6.45822 0
    endloop
  endfacet
  facet normal 0 1 0
    outer loop
      vertex -13.0225 -6.45822 0
      vertex -13.9775 -6.45822 10
      vertex -13.0225 -6.45822 10
    endloop
  endfacet
  facet normal 0.34202 0.939693 0
    outer loop
      vertex -14.875 -6.13157 0
      vertex -14.875 -6.13157 10
      vertex -13.9775 -6.45822 0
    endloop
  endfacet
  facet normal 0.34202 0.939693 0
    outer loop
      vertex -13.9775 -6.45822 0
      vertex -14.875 -6.13157 10
      vertex -13.9775 -6.45822 10
    endloop
  endfacet
  facet normal 0.642788 0.766044 0
    outer loop
      vertex -15.6066 -5.51767 0
      vertex -15.6066 -5.51767 10
      vertex -14.875 -6.13157 0
    endloop
  endfacet
  facet normal 0.642788 0.766044 0
    outer loop
      vertex -14.875 -6.13157 0
      vertex -15.6066 -5.51767 10
      vertex -14.875 -6.13157 10
    endloop
  endfacet
  facet normal 0.866025 0.5 0
    outer loop
      vertex -15.6066 -5.51767 0
      vertex -16.0842 -4.69055 0
      vertex -16.0842 -4.69055 10
    endloop
  endfacet
  facet normal 0.866025 0.5 0
    outer loop
      vertex -15.6066 -5.51767 10
      vertex -15.6066 -5.51767 0
      vertex -16.0842 -4.69055 10
    endloop
  endfacet
  facet normal 0.984808 0.173648 0
    outer loop
      vertex -16.0842 -4.69055 0
      vertex -16.25 -3.75 0
      vertex -16.25 -3.75 10
    endloop
  endfacet
  facet normal 0.984808 0.173648 0
    outer loop
      vertex -16.0842 -4.69055 10
      vertex -16.0842 -4.69055 0
      vertex -16.25 -3.75 10
    endloop
  endfacet
  facet normal 0.984808 -0.173648 0
    outer loop
      vertex 10.9158 4.69055 0
      vertex 10.9158 4.69055 10
      vertex 10.75 3.75 10
    endloop
  endfacet
  facet normal 0.984808 -0.173648 0
    outer loop
      vertex 10.75 3.75 0
      vertex 10.9158 4.69055 0
      vertex 10.75 3.75 10
    endloop
  endfacet
  facet normal 1 0 0
    outer loop
      vertex 10.75 3.75 0
      vertex 10.75 3.75 10
      vertex 10.75 -3.75 10
    endloop
  endfacet
  facet normal 1 0 0
    outer loop
      vertex 10.75 -3.75 0
      vertex 10.75 3.75 0
      vertex 10.75 -3.75 10
    endloop
  endfacet
  facet normal 0.866025 -0.5 0
    outer loop
      vertex 11.3934 5.51767 0
      vertex 11.3934 5.51767 10
      vertex 10.9158 4.69055 10
    endloop
  endfacet
  facet normal 0.866025 -0.5 0
    outer loop
      vertex 10.9158 4.69055 0
      vertex 11.3934 5.51767 0
      vertex 10.9158 4.69055 10
    endloop
  endfacet
  facet normal 0.642788 -0.766044 0
    outer loop
      vertex 12.125 6.13157 0
      vertex 12.125 6.13157 10
      vertex 11.3934 5.51767 10
    endloop
  endfacet
  facet normal 0.642788 -0.766044 0
    outer loop
      vertex 11.3934 5.51767 0
      vertex 12.125 6.13157 0
      vertex 11.3934 5.51767 10
    endloop
  endfacet
  facet normal 0.34202 -0.939693 0
    outer loop
      vertex 13.0225 6.45822 0
      vertex 13.0225 6.45822 10
      vertex 12.125 6.13157 10
    endloop
  endfacet
  facet normal 0.34202 -0.939693 0
    outer loop
      vertex 12.125 6.13157 0
      vertex 13.0225 6.45822 0
      vertex 12.125 6.13157 10
    endloop
  endfacet
  facet normal 0 -1 0
    outer loop
      vertex 13.9775 6.45822 0
      vertex 13.9775 6.45822 10
      vertex 13.0225 6.45822 10
    endloop
  endfacet
  facet normal 0 -1 0
    outer loop
      vertex 13.0225 6.45822 0
      vertex 13.9775 6.45822 0
      vertex 13.0225 6.45822 10
    endloop
  endfacet
  facet normal -0.34202 -0.939693 0
    outer loop
      vertex 14.875 6.13157 0
      vertex 14.875 6.13157 10
      vertex 13.9775 6.45822 10
    endloop
  endfacet
  facet normal -0.34202 -0.939693 0
    outer loop
      vertex 13.9775 6.45822 0
      vertex 14.875 6.13157 0
      vertex 13.9775 6.45822 10
    endloop
  endfacet
  facet normal -0.642788 -0.766044 0
    outer loop
      vertex 15.6066 5.51767 0
      vertex 15.6066 5.51767 10
      vertex 14.875 6.13157 10
    endloop
  endfacet
  facet normal -0.642788 -0.766044 0
    outer loop
      vertex 14.875 6.13157 0
      vertex 15.6066 5.51767 0
      vertex 14.875 6.13157 10
    endloop
  endfacet
  facet normal -0.866025 -0.5 0
    outer loop
      vertex 16.0842 4.69055 10
      vertex 15.6066 5.51767 10
      vertex 16.0842 4.69055 0
    endloop
  endfacet
  facet normal -0.866025 -0.5 0
    outer loop
      vertex 16.0842 4.69055 0
      vertex 15.6066 5.51767 10
      vertex 15.6066 5.51767 0
    endloop
  endfacet
  facet normal -0.984808 -0.173648 0
    outer loop
      vertex 16.25 3.75 10
      vertex 16.0842 4.69055 10
      vertex 16.25 3.75 0
    endloop
  endfacet
  facet normal -0.984808 -0.173648 0
    outer loop
      vertex 16.25 3.75 0
      vertex 16.0842 4.69055 10
      vertex 16.0842 4.69055 0
    endloop
  endfacet
  facet normal -1 0 0
    outer loop
      vertex 16.25 3.75 10
      vertex 16.25 3.75 0
      vertex 16.25 -3.75 10
    endloop
  endfacet
  facet normal -1 0 0
    outer loop
      vertex 16.25 -3.75 10
      vertex 16.25 3.75 0
      vertex 16.25 -3.75 0
    endloop
  endfacet
  facet normal -0.984808 0.173648 0
    outer loop
      vertex 16.25 -3.75 10
      vertex 16.25 -3.75 0
      vertex 16.0842 -4.69055 10
    endloop
  endfacet
  facet normal -0.984808 0.173648 0
    outer loop
      vertex 16.0842 -4.69055 10
      vertex 16.25 -3.75 0
      vertex 16.0842 -4.69055 0
    endloop
  endfacet
  facet normal -0.866025 0.5 0
    outer loop
      vertex 16.0842 -4.69055 10
      vertex 16.0842 -4.69055 0
      vertex 15.6066 -5.51767 10
    endloop
  endfacet
  facet normal -0.866025 0.5 0
    outer loop
      vertex 15.6066 -5.51767 10
      vertex 16.0842 -4.69055 0
      vertex 15.6066 -5.51767 0
    endloop
  endfacet
  facet normal -0.642788 0.766044 0
    outer loop
      vertex 15.6066 -5.51767 10
      vertex 15.6066 -5.51767 0
      vertex 14.875 -6.13157 10
    endloop
  endfacet
  facet normal -0.642788 0.766044 0
    outer loop
      vertex 14.875 -6.13157 10
      vertex 15.6066 -5.51767 0
      vertex 14.875 -6.13157 0
    endloop
  endfacet
  facet normal -0.34202 0.939693 0
    outer loop
      vertex 14.875 -6.13157 10
      vertex 14.875 -6.13157 0
      vertex 13.9775 -6.45822 10
    endloop
  endfacet
  facet normal -0.34202 0.939693 0
    outer loop
      vertex 13.9775 -6.45822 10
      vertex 14.875 -6.13157 0
      vertex 13.9775 -6.45822 0
    endloop
  endfacet
  facet normal 0 1 0
    outer loop
      vertex 13.9775 -6.45822 10
      vertex 13.9775 -6.45822 0
      vertex 13.0225 -6.45822 10
    endloop
  endfacet
  facet normal 0 1 0
    outer loop
      vertex 13.0225 -6.45822 10
      vertex 13.9775 -6.45822 0
      vertex 13.0225 -6.45822 0
    endloop
  endfacet
  facet normal 0.34202 0.939693 0
    outer loop
      vertex 13.0225 -6.45822 10
      vertex 13.0225 -6.45822 0
      vertex 12.125 -6.13157 10
    endloop
  endfacet
  facet normal 0.34202 0.939693 0
    outer loop
      vertex 12.125 -6.13157 10
      vertex 13.0225 -6.45822 0
      vertex 12.125 -6.13157 0
    endloop
  endfacet
  facet normal 0.642788 0.766044 0
    outer loop
      vertex 12.125 -6.13157 10
      vertex 12.125 -6.13157 0
      vertex 11.3934 -5.51767 10
    endloop
  endfacet
  facet normal 0.642788 0.766044 0
    outer loop
      vertex 11.3934 -5.51767 10
      vertex 12.125 -6.13157 0
      vertex 11.3934 -5.51767 0
    endloop
  endfacet
  facet normal 0.866025 0.5 0
    outer loop
      vertex 10.9158 -4.69055 10
      vertex 11.3934 -5.51767 10
      vertex 11.3934 -5.51767 0
    endloop
  endfacet
  facet normal 0.866025 0.5 0
    outer loop
      vertex 10.9158 -4.69055 0
      vertex 10.9158 -4.69055 10
      vertex 11.3934 -5.51767 0
    endloop
  endfacet
  facet normal 0.984808 0.173648 0
    outer loop
      vertex 10.75 -3.75 10
      vertex 10.9158 -4.69055 10
      vertex 10.9158 -4.69055 0
    endloop
  endfacet
  facet normal 0.984808 0.173648 0
    outer loop
      vertex 10.75 -3.75 0
      vertex 10.75 -3.75 10
      vertex 10.9158 -4.69055 0
    endloop
  endfacet
  facet normal 0 2.22045e-16 1
    outer loop
      vertex 20 7.5 11.076
      vertex 20 12.5 11.076
      vertex 12.9318 12.5 11.076
    endloop
  endfacet
  facet normal 0 2.22045e-16 1
    outer loop
      vertex 12.9318 7.5 11.076
      vertex 20 7.5 11.076
      vertex 12.9318 12.5 11.076
    endloop
  endfacet
  facet normal 0.34202 2.08654e-16 0.939693
    outer loop
      vertex 12.9318 7.5 11.076
      vertex 12.9318 12.5 11.076
      vertex 11.3 12.5 11.6699
    endloop
  endfacet
  facet normal 0.34202 2.08654e-16 0.939693
    outer loop
      vertex 11.3 7.5 11.6699
      vertex 12.9318 7.5 11.076
      vertex 11.3 12.5 11.6699
    endloop
  endfacet
  facet normal 0.642788 1.70096e-16 0.766044
    outer loop
      vertex 11.3 7.5 11.6699
      vertex 11.3 12.5 11.6699
      vertex 9.96978 12.5 12.7861
    endloop
  endfacet
  facet normal 0.642788 1.70096e-16 0.766044
    outer loop
      vertex 9.96978 7.5 12.7861
      vertex 11.3 7.5 11.6699
      vertex 9.96978 12.5 12.7861
    endloop
  endfacet
  facet normal 0.866025 1.11022e-16 0.5
    outer loop
      vertex 9.96978 7.5 12.7861
      vertex 9.96978 12.5 12.7861
      vertex 9.55988 12.5 13.496
    endloop
  endfacet
  facet normal 0.866025 1.11022e-16 0.5
    outer loop
      vertex 9.10154 12.5 14.2899
      vertex 9.96978 7.5 12.7861
      vertex 9.55988 12.5 13.496
    endloop
  endfacet
  facet normal 0.866025 1.11022e-16 0.5
    outer loop
      vertex 9.10154 12.5 14.2899
      vertex 9.10154 7.5 14.2899
      vertex 9.96978 7.5 12.7861
    endloop
  endfacet
  facet normal 0 1 -2.22045e-16
    outer loop
      vertex -10 12.5 11
      vertex -9.60385 12.5 13.2467
      vertex -5 12.5 11
    endloop
  endfacet
  facet normal 0 1 -2.22045e-16
    outer loop
      vertex -5 12.5 11
      vertex -9.60385 12.5 13.2467
      vertex -9.00154 12.5 14.2899
    endloop
  endfacet
  facet normal 0 1 -2.22045e-16
    outer loop
      vertex -5 12.5 11
      vertex -9.00154 12.5 14.2899
      vertex -8.79461 12.5 15.4634
    endloop
  endfacet
  facet normal 0 1 -2.22045e-16
    outer loop
      vertex -5 12.5 11
      vertex -8.79461 12.5 15.4634
      vertex -8.48483 12.5 16
    endloop
  endfacet
  facet normal 0 1 -2.22045e-16
    outer loop
      vertex -5 12.5 11
      vertex -8.48483 12.5 16
      vertex -7.66044 12.5 17.4279
    endloop
  endfacet
  facet normal 0 1 -2.22045e-16
    outer loop
      vertex -5 12.5 11
      vertex -7.66044 12.5 17.4279
      vertex -5 12.5 19.6603
    endloop
  endfacet
  facet normal 0 1 -2.22045e-16
    outer loop
      vertex -4.69846 12.5 12.7101
      vertex -5 12.5 19.6603
      vertex -1.73648 12.5 20.8481
    endloop
  endfacet
  facet normal 0 1 -2.22045e-16
    outer loop
      vertex -2.5 12.5 15.3301
      vertex -1.73648 12.5 20.8481
      vertex 1.73648 12.5 20.8481
    endloop
  endfacet
  facet normal 0 1 -2.22045e-16
    outer loop
      vertex -0.868241 12.5 15.924
      vertex 1.73648 12.5 20.8481
      vertex 5 12.5 19.6603
    endloop
  endfacet
  facet normal 0 1 -2.22045e-16
    outer loop
      vertex 2.5 12.5 15.3301
      vertex 5 12.5 19.6603
      vertex 7.66044 12.5 17.4279
    endloop
  endfacet
  facet normal 0 1 -2.22045e-16
    outer loop
      vertex 3.83022 12.5 14.2139
      vertex 8.48483 12.5 16
      vertex 8.93858 12.5 15.2141
    endloop
  endfacet
  facet normal 0 1 -2.22045e-16
    outer loop
      vertex 4.69846 12.5 12.7101
      vertex 9.10154 12.5 14.2899
      vertex 9.55988 12.5 13.496
    endloop
  endfacet
  facet normal 0 1 -2.22045e-16
    outer loop
      vertex 5 12.5 11
      vertex 9.55988 12.5 13.496
      vertex 10 12.5 11
    endloop
  endfacet
  facet normal 0 1 -2.22045e-16
    outer loop
      vertex 3.83022 12.5 14.2139
      vertex 9.10154 12.5 14.2899
      vertex 4.69846 12.5 12.7101
    endloop
  endfacet
  facet normal 0 1 -2.22045e-16
    outer loop
      vertex 2.5 12.5 15.3301
      vertex 8.48483 12.5 16
      vertex 3.83022 12.5 14.2139
    endloop
  endfacet
  facet normal 0 1 -2.22045e-16
    outer loop
      vertex 3.83022 12.5 14.2139
      vertex 8.93858 12.5 15.2141
      vertex 9.10154 12.5 14.2899
    endloop
  endfacet
  facet normal 0 1 -2.22045e-16
    outer loop
      vertex 2.5 12.5 15.3301
      vertex 7.66044 12.5 17.4279
      vertex 8.48483 12.5 16
    endloop
  endfacet
  facet normal 0 1 -2.22045e-16
    outer loop
      vertex 0.868241 12.5 15.924
      vertex 5 12.5 19.6603
      vertex 2.5 12.5 15.3301
    endloop
  endfacet
  facet normal 0 1 -2.22045e-16
    outer loop
      vertex -0.868241 12.5 15.924
      vertex 5 12.5 19.6603
      vertex 0.868241 12.5 15.924
    endloop
  endfacet
  facet normal 0 1 -2.22045e-16
    outer loop
      vertex -2.5 12.5 15.3301
      vertex 1.73648 12.5 20.8481
      vertex -0.868241 12.5 15.924
    endloop
  endfacet
  facet normal 0 1 -2.22045e-16
    outer loop
      vertex -3.83022 12.5 14.2139
      vertex -1.73648 12.5 20.8481
      vertex -2.5 12.5 15.3301
    endloop
  endfacet
  facet normal 0 1 -2.22045e-16
    outer loop
      vertex -4.69846 12.5 12.7101
      vertex -1.73648 12.5 20.8481
      vertex -3.83022 12.5 14.2139
    endloop
  endfacet
  facet normal 0 1 -2.22045e-16
    outer loop
      vertex -5 12.5 11
      vertex -5 12.5 19.6603
      vertex -4.69846 12.5 12.7101
    endloop
  endfacet
  facet normal 0 1 -2.22045e-16
    outer loop
      vertex 4.69846 12.5 12.7101
      vertex 9.55988 12.5 13.496
      vertex 5 12.5 11
    endloop
  endfacet
  facet normal -0.984808 -3.85576e-17 -0.173648
    outer loop
      vertex 5 12.5 11
      vertex 5 7.5 11
      vertex 4.69846 12.5 12.7101
    endloop
  endfacet
  facet normal -0.984808 -3.85576e-17 -0.173648
    outer loop
      vertex 5 7.5 11
      vertex 4.69846 7.5 12.7101
      vertex 4.69846 12.5 12.7101
    endloop
  endfacet
  facet normal -0.984808 3.85576e-17 0.173648
    outer loop
      vertex 5 12.5 11
      vertex 4.69846 12.5 9.2899
      vertex 5 7.5 11
    endloop
  endfacet
  facet normal -0.984808 3.85576e-17 0.173648
    outer loop
      vertex 5 7.5 11
      vertex 4.69846 12.5 9.2899
      vertex 4.69846 7.5 9.2899
    endloop
  endfacet
  facet normal -0.866025 1.11022e-16 0.5
    outer loop
      vertex 4.69846 12.5 9.2899
      vertex 3.83022 12.5 7.78606
      vertex 4.69846 7.5 9.2899
    endloop
  endfacet
  facet normal -0.866025 1.11022e-16 0.5
    outer loop
      vertex 4.69846 7.5 9.2899
      vertex 3.83022 12.5 7.78606
      vertex 3.83022 7.5 7.78606
    endloop
  endfacet
  facet normal -0.642788 1.70096e-16 0.766044
    outer loop
      vertex 3.83022 7.5 7.78606
      vertex 3.83022 12.5 7.78606
      vertex 2.5 12.5 6.66987
    endloop
  endfacet
  facet normal -0.642788 1.70096e-16 0.766044
    outer loop
      vertex 2.5 7.5 6.66987
      vertex 3.83022 7.5 7.78606
      vertex 2.5 12.5 6.66987
    endloop
  endfacet
  facet normal -0.34202 2.08654e-16 0.939693
    outer loop
      vertex 2.5 7.5 6.66987
      vertex 2.5 12.5 6.66987
      vertex 0.868241 12.5 6.07596
    endloop
  endfacet
  facet normal -0.34202 2.08654e-16 0.939693
    outer loop
      vertex 0.868241 7.5 6.07596
      vertex 2.5 7.5 6.66987
      vertex 0.868241 12.5 6.07596
    endloop
  endfacet
  facet normal 0 2.22045e-16 1
    outer loop
      vertex 0.868241 7.5 6.07596
      vertex 0.868241 12.5 6.07596
      vertex -0.868241 12.5 6.07596
    endloop
  endfacet
  facet normal 0 2.22045e-16 1
    outer loop
      vertex -0.868241 7.5 6.07596
      vertex 0.868241 7.5 6.07596
      vertex -0.868241 12.5 6.07596
    endloop
  endfacet
  facet normal 0.34202 2.08654e-16 0.939693
    outer loop
      vertex -0.868241 7.5 6.07596
      vertex -0.868241 12.5 6.07596
      vertex -2.5 12.5 6.66987
    endloop
  endfacet
  facet normal 0.34202 2.08654e-16 0.939693
    outer loop
      vertex -2.5 7.5 6.66987
      vertex -0.868241 7.5 6.07596
      vertex -2.5 12.5 6.66987
    endloop
  endfacet
  facet normal 0.642788 1.70096e-16 0.766044
    outer loop
      vertex -2.5 7.5 6.66987
      vertex -2.5 12.5 6.66987
      vertex -3.83022 12.5 7.78606
    endloop
  endfacet
  facet normal 0.642788 1.70096e-16 0.766044
    outer loop
      vertex -3.83022 7.5 7.78606
      vertex -2.5 7.5 6.66987
      vertex -3.83022 12.5 7.78606
    endloop
  endfacet
  facet normal 0.866025 1.11022e-16 0.5
    outer loop
      vertex -3.83022 7.5 7.78606
      vertex -3.83022 12.5 7.78606
      vertex -4.69846 12.5 9.2899
    endloop
  endfacet
  facet normal 0.866025 1.11022e-16 0.5
    outer loop
      vertex -4.69846 7.5 9.2899
      vertex -3.83022 7.5 7.78606
      vertex -4.69846 12.5 9.2899
    endloop
  endfacet
  facet normal 0.984808 3.85576e-17 0.173648
    outer loop
      vertex -4.69846 7.5 9.2899
      vertex -4.69846 12.5 9.2899
      vertex -5 12.5 11
    endloop
  endfacet
  facet normal 0.984808 3.85576e-17 0.173648
    outer loop
      vertex -5 7.5 11
      vertex -4.69846 7.5 9.2899
      vertex -5 12.5 11
    endloop
  endfacet
  facet normal 0.984808 -3.85576e-17 -0.173648
    outer loop
      vertex -4.69846 7.5 12.7101
      vertex -5 12.5 11
      vertex -4.69846 12.5 12.7101
    endloop
  endfacet
  facet normal 0.984808 -3.85576e-17 -0.173648
    outer loop
      vertex -5 12.5 11
      vertex -4.69846 7.5 12.7101
      vertex -5 7.5 11
    endloop
  endfacet
  facet normal -0.866025 1.11022e-16 0.5
    outer loop
      vertex -9.00154 12.5 14.2899
      vertex -9.60385 12.5 13.2467
      vertex -9.00154 7.5 14.2899
    endloop
  endfacet
  facet normal -0.866025 1.11022e-16 0.5
    outer loop
      vertex -9.00154 7.5 14.2899
      vertex -9.60385 12.5 13.2467
      vertex -9.86978 12.5 12.7861
    endloop
  endfacet
  facet normal -0.866025 1.11022e-16 0.5
    outer loop
      vertex -9.00154 7.5 14.2899
      vertex -9.86978 12.5 12.7861
      vertex -9.86978 7.5 12.7861
    endloop
  endfacet
  facet normal -0.642788 1.70096e-16 0.766044
    outer loop
      vertex -9.86978 7.5 12.7861
      vertex -9.86978 12.5 12.7861
      vertex -11.2 12.5 11.6699
    endloop
  endfacet
  facet normal -0.642788 1.70096e-16 0.766044
    outer loop
      vertex -11.2 7.5 11.6699
      vertex -9.86978 7.5 12.7861
      vertex -11.2 12.5 11.6699
    endloop
  endfacet
  facet normal -0.34202 2.08654e-16 0.939693
    outer loop
      vertex -11.2 7.5 11.6699
      vertex -11.2 12.5 11.6699
      vertex -12.8318 12.5 11.076
    endloop
  endfacet
  facet normal -0.34202 2.08654e-16 0.939693
    outer loop
      vertex -12.8318 7.5 11.076
      vertex -11.2 7.5 11.6699
      vertex -12.8318 12.5 11.076
    endloop
  endfacet
  facet normal -0.984808 3.85576e-17 0.173648
    outer loop
      vertex -8.7 12.5 16
      vertex -8.79461 12.5 15.4634
      vertex -8.7 7.5 16
    endloop
  endfacet
  facet normal -0.984808 3.85576e-17 0.173648
    outer loop
      vertex -8.7 7.5 16
      vertex -8.79461 12.5 15.4634
      vertex -9.00154 12.5 14.2899
    endloop
  endfacet
  facet normal -0.984808 3.85576e-17 0.173648
    outer loop
      vertex -8.7 7.5 16
      vertex -9.00154 12.5 14.2899
      vertex -9.00154 7.5 14.2899
    endloop
  endfacet
  facet normal 0 2.22045e-16 1
    outer loop
      vertex -8.7 12.5 16
      vertex -8.48483 7.5 16
      vertex -8.48483 12.5 16
    endloop
  endfacet
  facet normal 0 2.22045e-16 1
    outer loop
      vertex -8.7 7.5 16
      vertex -8.48483 7.5 16
      vertex -8.7 12.5 16
    endloop
  endfacet
  facet normal -0.866025 1.11022e-16 0.5
    outer loop
      vertex -8.48483 7.5 16
      vertex -7.66044 7.5 17.4279
      vertex -8.48483 12.5 16
    endloop
  endfacet
  facet normal -0.866025 1.11022e-16 0.5
    outer loop
      vertex -8.48483 12.5 16
      vertex -7.66044 7.5 17.4279
      vertex -7.66044 12.5 17.4279
    endloop
  endfacet
  facet normal -0.642788 1.70096e-16 0.766044
    outer loop
      vertex -7.66044 12.5 17.4279
      vertex -7.66044 7.5 17.4279
      vertex -5 7.5 19.6603
    endloop
  endfacet
  facet normal -0.642788 1.70096e-16 0.766044
    outer loop
      vertex -5 12.5 19.6603
      vertex -7.66044 12.5 17.4279
      vertex -5 7.5 19.6603
    endloop
  endfacet
  facet normal -0.34202 2.08654e-16 0.939693
    outer loop
      vertex -5 12.5 19.6603
      vertex -5 7.5 19.6603
      vertex -1.73648 7.5 20.8481
    endloop
  endfacet
  facet normal -0.34202 2.08654e-16 0.939693
    outer loop
      vertex -1.73648 12.5 20.8481
      vertex -5 12.5 19.6603
      vertex -1.73648 7.5 20.8481
    endloop
  endfacet
  facet normal 0 2.22045e-16 1
    outer loop
      vertex -1.73648 12.5 20.8481
      vertex -1.73648 7.5 20.8481
      vertex 1.73648 7.5 20.8481
    endloop
  endfacet
  facet normal 0 2.22045e-16 1
    outer loop
      vertex 1.73648 12.5 20.8481
      vertex -1.73648 12.5 20.8481
      vertex 1.73648 7.5 20.8481
    endloop
  endfacet
  facet normal 0.34202 2.08654e-16 0.939693
    outer loop
      vertex 1.73648 12.5 20.8481
      vertex 1.73648 7.5 20.8481
      vertex 5 7.5 19.6603
    endloop
  endfacet
  facet normal 0.34202 2.08654e-16 0.939693
    outer loop
      vertex 5 12.5 19.6603
      vertex 1.73648 12.5 20.8481
      vertex 5 7.5 19.6603
    endloop
  endfacet
  facet normal 0.642788 1.70096e-16 0.766044
    outer loop
      vertex 5 12.5 19.6603
      vertex 5 7.5 19.6603
      vertex 7.66044 7.5 17.4279
    endloop
  endfacet
  facet normal 0.642788 1.70096e-16 0.766044
    outer loop
      vertex 7.66044 12.5 17.4279
      vertex 5 12.5 19.6603
      vertex 7.66044 7.5 17.4279
    endloop
  endfacet
  facet normal 0.866025 1.11022e-16 0.5
    outer loop
      vertex 7.66044 12.5 17.4279
      vertex 7.66044 7.5 17.4279
      vertex 8.48483 7.5 16
    endloop
  endfacet
  facet normal 0.866025 1.11022e-16 0.5
    outer loop
      vertex 8.48483 12.5 16
      vertex 7.66044 12.5 17.4279
      vertex 8.48483 7.5 16
    endloop
  endfacet
  facet normal 0 2.22045e-16 1
    outer loop
      vertex 8.8 7.5 16
      vertex 8.8 12.5 16
      vertex 8.48483 12.5 16
    endloop
  endfacet
  facet normal 0 2.22045e-16 1
    outer loop
      vertex 8.48483 12.5 16
      vertex 8.48483 7.5 16
      vertex 8.8 7.5 16
    endloop
  endfacet
  facet normal 0.984808 3.85576e-17 0.173648
    outer loop
      vertex 9.10154 7.5 14.2899
      vertex 9.10154 12.5 14.2899
      vertex 8.93858 12.5 15.2141
    endloop
  endfacet
  facet normal 0.984808 3.85576e-17 0.173648
    outer loop
      vertex 8.8 12.5 16
      vertex 9.10154 7.5 14.2899
      vertex 8.93858 12.5 15.2141
    endloop
  endfacet
  facet normal 0.984808 3.85576e-17 0.173648
    outer loop
      vertex 8.8 7.5 16
      vertex 9.10154 7.5 14.2899
      vertex 8.8 12.5 16
    endloop
  endfacet
  facet normal 0 -1 2.22045e-16
    outer loop
      vertex 9 7.5 11
      vertex 8.82367 7.5 10
      vertex 9.82367 7.5 10
    endloop
  endfacet
  facet normal 0 -1 2.22045e-16
    outer loop
      vertex 10 7.5 11
      vertex 9 7.5 11
      vertex 9.82367 7.5 10
    endloop
  endfacet
  facet normal 0 -1 2.22045e-16
    outer loop
      vertex -9 7.5 11
      vertex -10 7.5 11
      vertex -9.82367 7.5 10
    endloop
  endfacet
  facet normal 0 -1 2.22045e-16
    outer loop
      vertex -8.82367 7.5 10
      vertex -9 7.5 11
      vertex -9.82367 7.5 10
    endloop
  endfacet
  facet normal 0.984808 3.85576e-17 0.173648
    outer loop
      vertex -8.82367 7.5 10
      vertex -8.82367 7 10
      vertex -8.45723 7 7.92182
    endloop
  endfacet
  facet normal 0.984808 3.85576e-17 0.173648
    outer loop
      vertex -9 7.5 11
      vertex -8.82367 7.5 10
      vertex -8.45723 7.5 7.92182
    endloop
  endfacet
  facet normal 0.984808 3.85576e-17 0.173648
    outer loop
      vertex -8.45723 7.5 7.92182
      vertex -8.82367 7.5 10
      vertex -8.45723 7 7.92182
    endloop
  endfacet
  facet normal 0 1 -2.22045e-16
    outer loop
      vertex -6.8944 7 5.21491
      vertex -6.12836 7 5.8577
      vertex -4.5 7 3.20577
    endloop
  endfacet
  facet normal 0 1 -2.22045e-16
    outer loop
      vertex -4.5 7 3.20577
      vertex -4 7 4.0718
      vertex -1.56283 7 2.13673
    endloop
  endfacet
  facet normal 0 1 -2.22045e-16
    outer loop
      vertex -1.56283 7 2.13673
      vertex -1.38918 7 3.12154
      vertex 1.56283 7 2.13673
    endloop
  endfacet
  facet normal 0 1 -2.22045e-16
    outer loop
      vertex 1.56283 7 2.13673
      vertex 1.38918 7 3.12154
      vertex 4.5 7 3.20577
    endloop
  endfacet
  facet normal 0 1 -2.22045e-16
    outer loop
      vertex 4.5 7 3.20577
      vertex 4 7 4.0718
      vertex 6.8944 7 5.21491
    endloop
  endfacet
  facet normal 0 1 -2.22045e-16
    outer loop
      vertex 8.45723 7 7.92182
      vertex 6.12836 7 5.8577
      vertex 8.82367 7 10
    endloop
  endfacet
  facet normal 0 1 -2.22045e-16
    outer loop
      vertex 8.82367 7 10
      vertex 7.51754 7 8.26384
      vertex 7.82367 7 10
    endloop
  endfacet
  facet normal 0 1 -2.22045e-16
    outer loop
      vertex 6.12836 7 5.8577
      vertex 7.51754 7 8.26384
      vertex 8.82367 7 10
    endloop
  endfacet
  facet normal 0 1 -2.22045e-16
    outer loop
      vertex 6.8944 7 5.21491
      vertex 6.12836 7 5.8577
      vertex 8.45723 7 7.92182
    endloop
  endfacet
  facet normal 0 1 -2.22045e-16
    outer loop
      vertex 4 7 4.0718
      vertex 6.12836 7 5.8577
      vertex 6.8944 7 5.21491
    endloop
  endfacet
  facet normal 0 1 -2.22045e-16
    outer loop
      vertex 1.38918 7 3.12154
      vertex 4 7 4.0718
      vertex 4.5 7 3.20577
    endloop
  endfacet
  facet normal 0 1 -2.22045e-16
    outer loop
      vertex -1.38918 7 3.12154
      vertex 1.38918 7 3.12154
      vertex 1.56283 7 2.13673
    endloop
  endfacet
  facet normal 0 1 -2.22045e-16
    outer loop
      vertex -4 7 4.0718
      vertex -1.38918 7 3.12154
      vertex -1.56283 7 2.13673
    endloop
  endfacet
  facet normal 0 1 -2.22045e-16
    outer loop
      vertex -6.12836 7 5.8577
      vertex -4 7 4.0718
      vertex -4.5 7 3.20577
    endloop
  endfacet
  facet normal 0 1 -2.22045e-16
    outer loop
      vertex -7.51754 7 8.26384
      vertex -6.12836 7 5.8577
      vertex -6.8944 7 5.21491
    endloop
  endfacet
  facet normal 0 1 -2.22045e-16
    outer loop
      vertex -7.51754 7 8.26384
      vertex -6.8944 7 5.21491
      vertex -8.45723 7 7.92182
    endloop
  endfacet
  facet normal 0 1 -2.22045e-16
    outer loop
      vertex -7.51754 7 8.26384
      vertex -8.45723 7 7.92182
      vertex -7.82367 7 10
    endloop
  endfacet
  facet normal 0 1 -2.22045e-16
    outer loop
      vertex -8.45723 7 7.92182
      vertex -8.82367 7 10
      vertex -7.82367 7 10
    endloop
  endfacet
  facet normal -0.984808 3.85576e-17 0.173648
    outer loop
      vertex 8.82367 7.5 10
      vertex 9 7.5 11
      vertex 8.45723 7.5 7.92182
    endloop
  endfacet
  facet normal -0.984808 3.85576e-17 0.173648
    outer loop
      vertex 8.82367 7.5 10
      vertex 8.45723 7.5 7.92182
      vertex 8.82367 7 10
    endloop
  endfacet
  facet normal -0.984808 3.85576e-17 0.173648
    outer loop
      vertex 8.45723 7.5 7.92182
      vertex 8.45723 7 7.92182
      vertex 8.82367 7 10
    endloop
  endfacet
  facet normal 0.866025 -1.11022e-16 -0.5
    outer loop
      vertex -4.69846 12.5 12.7101
      vertex -3.83022 12.5 14.2139
      vertex -3.83022 7.5 14.2139
    endloop
  endfacet
  facet normal 0.866025 -1.11022e-16 -0.5
    outer loop
      vertex -4.69846 7.5 12.7101
      vertex -4.69846 12.5 12.7101
      vertex -3.83022 7.5 14.2139
    endloop
  endfacet
  facet normal 0.642788 -1.70096e-16 -0.766044
    outer loop
      vertex -2.5 12.5 15.3301
      vertex -2.5 7.5 15.3301
      vertex -3.83022 12.5 14.2139
    endloop
  endfacet
  facet normal 0.642788 -1.70096e-16 -0.766044
    outer loop
      vertex -3.83022 12.5 14.2139
      vertex -2.5 7.5 15.3301
      vertex -3.83022 7.5 14.2139
    endloop
  endfacet
  facet normal 0.34202 -2.08654e-16 -0.939693
    outer loop
      vertex -0.868241 12.5 15.924
      vertex -0.868241 7.5 15.924
      vertex -2.5 12.5 15.3301
    endloop
  endfacet
  facet normal 0.34202 -2.08654e-16 -0.939693
    outer loop
      vertex -2.5 12.5 15.3301
      vertex -0.868241 7.5 15.924
      vertex -2.5 7.5 15.3301
    endloop
  endfacet
  facet normal 0 -2.22045e-16 -1
    outer loop
      vertex 0.868241 12.5 15.924
      vertex 0.868241 7.5 15.924
      vertex -0.868241 12.5 15.924
    endloop
  endfacet
  facet normal 0 -2.22045e-16 -1
    outer loop
      vertex -0.868241 12.5 15.924
      vertex 0.868241 7.5 15.924
      vertex -0.868241 7.5 15.924
    endloop
  endfacet
  facet normal -0.34202 -2.08654e-16 -0.939693
    outer loop
      vertex 2.5 12.5 15.3301
      vertex 2.5 7.5 15.3301
      vertex 0.868241 12.5 15.924
    endloop
  endfacet
  facet normal -0.34202 -2.08654e-16 -0.939693
    outer loop
      vertex 0.868241 12.5 15.924
      vertex 2.5 7.5 15.3301
      vertex 0.868241 7.5 15.924
    endloop
  endfacet
  facet normal -0.642788 -1.70096e-16 -0.766044
    outer loop
      vertex 3.83022 12.5 14.2139
      vertex 3.83022 7.5 14.2139
      vertex 2.5 12.5 15.3301
    endloop
  endfacet
  facet normal -0.642788 -1.70096e-16 -0.766044
    outer loop
      vertex 2.5 12.5 15.3301
      vertex 3.83022 7.5 14.2139
      vertex 2.5 7.5 15.3301
    endloop
  endfacet
  facet normal -0.866025 -1.11022e-16 -0.5
    outer loop
      vertex 4.69846 12.5 12.7101
      vertex 4.69846 7.5 12.7101
      vertex 3.83022 12.5 14.2139
    endloop
  endfacet
  facet normal -0.866025 -1.11022e-16 -0.5
    outer loop
      vertex 3.83022 12.5 14.2139
      vertex 4.69846 7.5 12.7101
      vertex 3.83022 7.5 14.2139
    endloop
  endfacet
  facet normal 0 -1 2.22045e-16
    outer loop
      vertex -7.51754 7.5 8.26384
      vertex -6.12836 7.5 5.8577
      vertex -4 7.5 4.0718
    endloop
  endfacet
  facet normal 0 -1 2.22045e-16
    outer loop
      vertex 1.38918 7.5 3.12154
      vertex -7.51754 7.5 8.26384
      vertex -1.38918 7.5 3.12154
    endloop
  endfacet
  facet normal 0 -1 2.22045e-16
    outer loop
      vertex -1.38918 7.5 3.12154
      vertex -7.51754 7.5 8.26384
      vertex -4 7.5 4.0718
    endloop
  endfacet
  facet normal 0 -1 2.22045e-16
    outer loop
      vertex 4 7.5 4.0718
      vertex -7.51754 7.5 8.26384
      vertex 1.38918 7.5 3.12154
    endloop
  endfacet
  facet normal 0 -1 2.22045e-16
    outer loop
      vertex -0.868241 7.5 6.07596
      vertex -7.51754 7.5 8.26384
      vertex 4 7.5 4.0718
    endloop
  endfacet
  facet normal 0 -1 2.22045e-16
    outer loop
      vertex 2.5 7.5 6.66987
      vertex 0.868241 7.5 6.07596
      vertex 6.12836 7.5 5.8577
    endloop
  endfacet
  facet normal 0 -1 2.22045e-16
    outer loop
      vertex 4.69846 7.5 9.2899
      vertex 3.83022 7.5 7.78606
      vertex 7.51754 7.5 8.26384
    endloop
  endfacet
  facet normal 0 -1 2.22045e-16
    outer loop
      vertex -2.5 7.5 15.3301
      vertex -0.868241 7.5 15.924
      vertex 1.38918 7.5 18.8785
    endloop
  endfacet
  facet normal 0 -1 2.22045e-16
    outer loop
      vertex 0.868241 7.5 15.924
      vertex 2.5 7.5 15.3301
      vertex 4 7.5 17.9282
    endloop
  endfacet
  facet normal 0 -1 2.22045e-16
    outer loop
      vertex -4 7.5 17.9282
      vertex -7.51754 7.5 8.26384
      vertex -1.38918 7.5 18.8785
    endloop
  endfacet
  facet normal 0 -1 2.22045e-16
    outer loop
      vertex -6.12836 7.5 16.1423
      vertex -7.51754 7.5 8.26384
      vertex -4 7.5 17.9282
    endloop
  endfacet
  facet normal 0 -1 2.22045e-16
    outer loop
      vertex -7.51754 7.5 13.7362
      vertex -7.51754 7.5 8.26384
      vertex -6.12836 7.5 16.1423
    endloop
  endfacet
  facet normal 0 -1 2.22045e-16
    outer loop
      vertex -8 7.5 11
      vertex -7.51754 7.5 8.26384
      vertex -7.51754 7.5 13.7362
    endloop
  endfacet
  facet normal 0 -1 2.22045e-16
    outer loop
      vertex 2.5 7.5 15.3301
      vertex 3.83022 7.5 14.2139
      vertex 6.12836 7.5 16.1423
    endloop
  endfacet
  facet normal 0 -1 2.22045e-16
    outer loop
      vertex -2.5 7.5 6.66987
      vertex -3.83022 7.5 7.78606
      vertex -7.51754 7.5 8.26384
    endloop
  endfacet
  facet normal 0 -1 2.22045e-16
    outer loop
      vertex -1.38918 7.5 18.8785
      vertex -7.51754 7.5 8.26384
      vertex -4.69846 7.5 12.7101
    endloop
  endfacet
  facet normal 0 -1 2.22045e-16
    outer loop
      vertex -1.38918 7.5 18.8785
      vertex -3.83022 7.5 14.2139
      vertex 1.38918 7.5 18.8785
    endloop
  endfacet
  facet normal 0 -1 2.22045e-16
    outer loop
      vertex -1.38918 7.5 18.8785
      vertex -4.69846 7.5 12.7101
      vertex -3.83022 7.5 14.2139
    endloop
  endfacet
  facet normal 0 -1 2.22045e-16
    outer loop
      vertex -3.83022 7.5 14.2139
      vertex -2.5 7.5 15.3301
      vertex 1.38918 7.5 18.8785
    endloop
  endfacet
  facet normal 0 -1 2.22045e-16
    outer loop
      vertex 1.38918 7.5 18.8785
      vertex -0.868241 7.5 15.924
      vertex 4 7.5 17.9282
    endloop
  endfacet
  facet normal 0 -1 2.22045e-16
    outer loop
      vertex -0.868241 7.5 15.924
      vertex 0.868241 7.5 15.924
      vertex 4 7.5 17.9282
    endloop
  endfacet
  facet normal 0 -1 2.22045e-16
    outer loop
      vertex 4 7.5 17.9282
      vertex 2.5 7.5 15.3301
      vertex 6.12836 7.5 16.1423
    endloop
  endfacet
  facet normal 0 -1 2.22045e-16
    outer loop
      vertex -5 7.5 11
      vertex -4.69846 7.5 12.7101
      vertex -7.51754 7.5 8.26384
    endloop
  endfacet
  facet normal 0 -1 2.22045e-16
    outer loop
      vertex 6.12836 7.5 16.1423
      vertex 3.83022 7.5 14.2139
      vertex 7.51754 7.5 13.7362
    endloop
  endfacet
  facet normal 0 -1 2.22045e-16
    outer loop
      vertex -3.83022 7.5 7.78606
      vertex -4.69846 7.5 9.2899
      vertex -7.51754 7.5 8.26384
    endloop
  endfacet
  facet normal 0 -1 2.22045e-16
    outer loop
      vertex 3.83022 7.5 14.2139
      vertex 4.69846 7.5 12.7101
      vertex 7.51754 7.5 13.7362
    endloop
  endfacet
  facet normal 0 -1 2.22045e-16
    outer loop
      vertex 7.51754 7.5 13.7362
      vertex 5 7.5 11
      vertex 8 7.5 11
    endloop
  endfacet
  facet normal 0 -1 2.22045e-16
    outer loop
      vertex 8 7.5 11
      vertex 4.69846 7.5 9.2899
      vertex 7.51754 7.5 8.26384
    endloop
  endfacet
  facet normal 0 -1 2.22045e-16
    outer loop
      vertex 7.51754 7.5 8.26384
      vertex 3.83022 7.5 7.78606
      vertex 6.12836 7.5 5.8577
    endloop
  endfacet
  facet normal 0 -1 2.22045e-16
    outer loop
      vertex 3.83022 7.5 7.78606
      vertex 2.5 7.5 6.66987
      vertex 6.12836 7.5 5.8577
    endloop
  endfacet
  facet normal 0 -1 2.22045e-16
    outer loop
      vertex 6.12836 7.5 5.8577
      vertex 0.868241 7.5 6.07596
      vertex 4 7.5 4.0718
    endloop
  endfacet
  facet normal 0 -1 2.22045e-16
    outer loop
      vertex 0.868241 7.5 6.07596
      vertex -0.868241 7.5 6.07596
      vertex 4 7.5 4.0718
    endloop
  endfacet
  facet normal 0 -1 2.22045e-16
    outer loop
      vertex -2.5 7.5 6.66987
      vertex -7.51754 7.5 8.26384
      vertex -0.868241 7.5 6.07596
    endloop
  endfacet
  facet normal 0 -1 2.22045e-16
    outer loop
      vertex 4.69846 7.5 12.7101
      vertex 5 7.5 11
      vertex 7.51754 7.5 13.7362
    endloop
  endfacet
  facet normal 0 -1 2.22045e-16
    outer loop
      vertex 5 7.5 11
      vertex 4.69846 7.5 9.2899
      vertex 8 7.5 11
    endloop
  endfacet
  facet normal 0 -1 2.22045e-16
    outer loop
      vertex -4.69846 7.5 9.2899
      vertex -5 7.5 11
      vertex -7.51754 7.5 8.26384
    endloop
  endfacet
  facet normal 0 1 0
    outer loop
      vertex -8.48483 12.5 16
      vertex -8.79461 12.5 15.4634
      vertex -8.7 12.5 16
    endloop
  endfacet
  facet normal 0 1 0
    outer loop
      vertex 8.93858 12.5 15.2141
      vertex 8.48483 12.5 16
      vertex 8.8 12.5 16
    endloop
  endfacet
  facet normal 0 -1 2.22045e-16
    outer loop
      vertex -8.45723 7.5 7.92182
      vertex -6.8944 7.5 5.21491
      vertex -4.5 7.5 3.20577
    endloop
  endfacet
  facet normal 0 -1 2.22045e-16
    outer loop
      vertex -6.12836 7.5 5.8577
      vertex -8.45723 7.5 7.92182
      vertex -4.5 7.5 3.20577
    endloop
  endfacet
  facet normal 0 -1 2.22045e-16
    outer loop
      vertex -1.38918 7.5 3.12154
      vertex -4 7.5 4.0718
      vertex -1.56283 7.5 2.13673
    endloop
  endfacet
  facet normal 0 -1 2.22045e-16
    outer loop
      vertex 1.38918 7.5 3.12154
      vertex -1.38918 7.5 3.12154
      vertex 1.56283 7.5 2.13673
    endloop
  endfacet
  facet normal 0 -1 2.22045e-16
    outer loop
      vertex 4 7.5 4.0718
      vertex 1.38918 7.5 3.12154
      vertex 4.5 7.5 3.20577
    endloop
  endfacet
  facet normal 0 -1 2.22045e-16
    outer loop
      vertex 6.12836 7.5 5.8577
      vertex 4 7.5 4.0718
      vertex 6.8944 7.5 5.21491
    endloop
  endfacet
  facet normal 0 -1 2.22045e-16
    outer loop
      vertex 7.51754 7.5 8.26384
      vertex 6.12836 7.5 5.8577
      vertex 8.45723 7.5 7.92182
    endloop
  endfacet
  facet normal 0 -1 2.22045e-16
    outer loop
      vertex -9 7.5 11
      vertex -8.45723 7.5 7.92182
      vertex -8.45723 7.5 14.0782
    endloop
  endfacet
  facet normal 0 -1 2.22045e-16
    outer loop
      vertex -6.12836 7.5 16.1423
      vertex -4 7.5 17.9282
      vertex -4.5 7.5 18.7942
    endloop
  endfacet
  facet normal 0 -1 2.22045e-16
    outer loop
      vertex -8.45723 7.5 14.0782
      vertex -8.45723 7.5 7.92182
      vertex -8 7.5 11
    endloop
  endfacet
  facet normal 0 -1 2.22045e-16
    outer loop
      vertex -8.45723 7.5 14.0782
      vertex -7.51754 7.5 13.7362
      vertex -6.8944 7.5 16.7851
    endloop
  endfacet
  facet normal 0 -1 2.22045e-16
    outer loop
      vertex -8.45723 7.5 14.0782
      vertex -8 7.5 11
      vertex -7.51754 7.5 13.7362
    endloop
  endfacet
  facet normal 0 -1 2.22045e-16
    outer loop
      vertex -6.8944 7.5 16.7851
      vertex -6.12836 7.5 16.1423
      vertex -4.5 7.5 18.7942
    endloop
  endfacet
  facet normal 0 -1 2.22045e-16
    outer loop
      vertex -7.51754 7.5 13.7362
      vertex -6.12836 7.5 16.1423
      vertex -6.8944 7.5 16.7851
    endloop
  endfacet
  facet normal 0 -1 2.22045e-16
    outer loop
      vertex -4.5 7.5 18.7942
      vertex -4 7.5 17.9282
      vertex -1.56283 7.5 19.8633
    endloop
  endfacet
  facet normal 0 -1 2.22045e-16
    outer loop
      vertex -1.56283 7.5 19.8633
      vertex -1.38918 7.5 18.8785
      vertex 1.56283 7.5 19.8633
    endloop
  endfacet
  facet normal 0 -1 2.22045e-16
    outer loop
      vertex 1.56283 7.5 19.8633
      vertex 1.38918 7.5 18.8785
      vertex 4.5 7.5 18.7942
    endloop
  endfacet
  facet normal 0 -1 2.22045e-16
    outer loop
      vertex -6.12836 7.5 5.8577
      vertex -7.51754 7.5 8.26384
      vertex -8.45723 7.5 7.92182
    endloop
  endfacet
  facet normal 0 -1 2.22045e-16
    outer loop
      vertex 4.5 7.5 18.7942
      vertex 4 7.5 17.9282
      vertex 6.8944 7.5 16.7851
    endloop
  endfacet
  facet normal 0 -1 2.22045e-16
    outer loop
      vertex 6.8944 7.5 16.7851
      vertex 6.12836 7.5 16.1423
      vertex 8.45723 7.5 14.0782
    endloop
  endfacet
  facet normal 0 -1 2.22045e-16
    outer loop
      vertex 6.12836 7.5 16.1423
      vertex 7.51754 7.5 13.7362
      vertex 8.45723 7.5 14.0782
    endloop
  endfacet
  facet normal 0 -1 2.22045e-16
    outer loop
      vertex 8.45723 7.5 14.0782
      vertex 8 7.5 11
      vertex 9 7.5 11
    endloop
  endfacet
  facet normal 0 -1 2.22045e-16
    outer loop
      vertex 9 7.5 11
      vertex 7.51754 7.5 8.26384
      vertex 8.45723 7.5 7.92182
    endloop
  endfacet
  facet normal 0 -1 2.22045e-16
    outer loop
      vertex 8.45723 7.5 7.92182
      vertex 6.12836 7.5 5.8577
      vertex 6.8944 7.5 5.21491
    endloop
  endfacet
  facet normal 0 -1 2.22045e-16
    outer loop
      vertex 6.8944 7.5 5.21491
      vertex 4 7.5 4.0718
      vertex 4.5 7.5 3.20577
    endloop
  endfacet
  facet normal 0 -1 2.22045e-16
    outer loop
      vertex 4.5 7.5 3.20577
      vertex 1.38918 7.5 3.12154
      vertex 1.56283 7.5 2.13673
    endloop
  endfacet
  facet normal 0 -1 2.22045e-16
    outer loop
      vertex 1.56283 7.5 2.13673
      vertex -1.38918 7.5 3.12154
      vertex -1.56283 7.5 2.13673
    endloop
  endfacet
  facet normal 0 -1 2.22045e-16
    outer loop
      vertex -1.56283 7.5 2.13673
      vertex -4 7.5 4.0718
      vertex -4.5 7.5 3.20577
    endloop
  endfacet
  facet normal 0 -1 2.22045e-16
    outer loop
      vertex -4 7.5 4.0718
      vertex -6.12836 7.5 5.8577
      vertex -4.5 7.5 3.20577
    endloop
  endfacet
  facet normal 0 -1 2.22045e-16
    outer loop
      vertex -4 7.5 17.9282
      vertex -1.38918 7.5 18.8785
      vertex -1.56283 7.5 19.8633
    endloop
  endfacet
  facet normal 0 -1 2.22045e-16
    outer loop
      vertex -1.38918 7.5 18.8785
      vertex 1.38918 7.5 18.8785
      vertex 1.56283 7.5 19.8633
    endloop
  endfacet
  facet normal 0 -1 2.22045e-16
    outer loop
      vertex 1.38918 7.5 18.8785
      vertex 4 7.5 17.9282
      vertex 4.5 7.5 18.7942
    endloop
  endfacet
  facet normal 0 -1 2.22045e-16
    outer loop
      vertex 4 7.5 17.9282
      vertex 6.12836 7.5 16.1423
      vertex 6.8944 7.5 16.7851
    endloop
  endfacet
  facet normal 0 -1 2.22045e-16
    outer loop
      vertex 7.51754 7.5 13.7362
      vertex 8 7.5 11
      vertex 8.45723 7.5 14.0782
    endloop
  endfacet
  facet normal 0 -1 2.22045e-16
    outer loop
      vertex 8 7.5 11
      vertex 7.51754 7.5 8.26384
      vertex 9 7.5 11
    endloop
  endfacet
  facet normal 0 -1 2.22045e-16
    outer loop
      vertex -7.51754 7.5 8.26384
      vertex -8 7.5 11
      vertex -8.45723 7.5 7.92182
    endloop
  endfacet
  facet normal 0.866025 1.11022e-16 0.5
    outer loop
      vertex -6.8944 7 5.21491
      vertex -6.8944 7.5 5.21491
      vertex -8.45723 7.5 7.92182
    endloop
  endfacet
  facet normal 0.866025 1.11022e-16 0.5
    outer loop
      vertex -8.45723 7 7.92182
      vertex -6.8944 7 5.21491
      vertex -8.45723 7.5 7.92182
    endloop
  endfacet
  facet normal 0.642788 1.70096e-16 0.766044
    outer loop
      vertex -4.5 7 3.20577
      vertex -4.5 7.5 3.20577
      vertex -6.8944 7.5 5.21491
    endloop
  endfacet
  facet normal 0.642788 1.70096e-16 0.766044
    outer loop
      vertex -6.8944 7 5.21491
      vertex -4.5 7 3.20577
      vertex -6.8944 7.5 5.21491
    endloop
  endfacet
  facet normal 0.34202 2.08654e-16 0.939693
    outer loop
      vertex -1.56283 7 2.13673
      vertex -1.56283 7.5 2.13673
      vertex -4.5 7.5 3.20577
    endloop
  endfacet
  facet normal 0.34202 2.08654e-16 0.939693
    outer loop
      vertex -4.5 7 3.20577
      vertex -1.56283 7 2.13673
      vertex -4.5 7.5 3.20577
    endloop
  endfacet
  facet normal 0 2.22045e-16 1
    outer loop
      vertex 1.56283 7 2.13673
      vertex 1.56283 7.5 2.13673
      vertex -1.56283 7.5 2.13673
    endloop
  endfacet
  facet normal 0 2.22045e-16 1
    outer loop
      vertex -1.56283 7 2.13673
      vertex 1.56283 7 2.13673
      vertex -1.56283 7.5 2.13673
    endloop
  endfacet
  facet normal -0.34202 2.08654e-16 0.939693
    outer loop
      vertex 4.5 7 3.20577
      vertex 4.5 7.5 3.20577
      vertex 1.56283 7.5 2.13673
    endloop
  endfacet
  facet normal -0.34202 2.08654e-16 0.939693
    outer loop
      vertex 1.56283 7 2.13673
      vertex 4.5 7 3.20577
      vertex 1.56283 7.5 2.13673
    endloop
  endfacet
  facet normal -0.642788 1.70096e-16 0.766044
    outer loop
      vertex 6.8944 7 5.21491
      vertex 6.8944 7.5 5.21491
      vertex 4.5 7.5 3.20577
    endloop
  endfacet
  facet normal -0.642788 1.70096e-16 0.766044
    outer loop
      vertex 4.5 7 3.20577
      vertex 6.8944 7 5.21491
      vertex 4.5 7.5 3.20577
    endloop
  endfacet
  facet normal -0.866025 1.11022e-16 0.5
    outer loop
      vertex 8.45723 7.5 7.92182
      vertex 6.8944 7.5 5.21491
      vertex 8.45723 7 7.92182
    endloop
  endfacet
  facet normal -0.866025 1.11022e-16 0.5
    outer loop
      vertex 8.45723 7 7.92182
      vertex 6.8944 7.5 5.21491
      vertex 6.8944 7 5.21491
    endloop
  endfacet
  facet normal 0 1 -2.22045e-16
    outer loop
      vertex -7.82367 2.5 10
      vertex -5.82367 2.5 10
      vertex -7.51754 2.5 8.26384
    endloop
  endfacet
  facet normal 0 1 -2.22045e-16
    outer loop
      vertex -7.51754 2.5 8.26384
      vertex -5.82367 2.5 10
      vertex -5.63816 2.5 8.94788
    endloop
  endfacet
  facet normal 0 1 -2.22045e-16
    outer loop
      vertex -7.51754 2.5 8.26384
      vertex -5.63816 2.5 8.94788
      vertex -4.59627 2.5 7.14327
    endloop
  endfacet
  facet normal 0 1 -2.22045e-16
    outer loop
      vertex -4.59627 2.5 7.14327
      vertex -3 2.5 5.80385
      vertex -7.51754 2.5 8.26384
    endloop
  endfacet
  facet normal 0 1 -2.22045e-16
    outer loop
      vertex -3 2.5 5.80385
      vertex 1.38918 2.5 3.12154
      vertex -7.51754 2.5 8.26384
    endloop
  endfacet
  facet normal 0 1 -2.22045e-16
    outer loop
      vertex 5.63816 2.5 8.94788
      vertex 5.82367 2.5 10
      vertex 7.82367 2.5 10
    endloop
  endfacet
  facet normal 0 1 -2.22045e-16
    outer loop
      vertex 5.63816 2.5 8.94788
      vertex 7.82367 2.5 10
      vertex 4.59627 2.5 7.14327
    endloop
  endfacet
  facet normal 0 1 -2.22045e-16
    outer loop
      vertex 4.59627 2.5 7.14327
      vertex 7.82367 2.5 10
      vertex 7.51754 2.5 8.26384
    endloop
  endfacet
  facet normal 0 1 -2.22045e-16
    outer loop
      vertex 4.59627 2.5 7.14327
      vertex 7.51754 2.5 8.26384
      vertex 3 2.5 5.80385
    endloop
  endfacet
  facet normal 0 1 -2.22045e-16
    outer loop
      vertex 3 2.5 5.80385
      vertex 7.51754 2.5 8.26384
      vertex 6.12836 2.5 5.8577
    endloop
  endfacet
  facet normal 0 1 -2.22045e-16
    outer loop
      vertex 3 2.5 5.80385
      vertex 6.12836 2.5 5.8577
      vertex 1.04189 2.5 5.09115
    endloop
  endfacet
  facet normal 0 1 -2.22045e-16
    outer loop
      vertex 1.04189 2.5 5.09115
      vertex 6.12836 2.5 5.8577
      vertex 4 2.5 4.0718
    endloop
  endfacet
  facet normal 0 1 -2.22045e-16
    outer loop
      vertex 1.04189 2.5 5.09115
      vertex 4 2.5 4.0718
      vertex -1.04189 2.5 5.09115
    endloop
  endfacet
  facet normal 0 1 -2.22045e-16
    outer loop
      vertex -1.04189 2.5 5.09115
      vertex 4 2.5 4.0718
      vertex 1.38918 2.5 3.12154
    endloop
  endfacet
  facet normal 0 1 -2.22045e-16
    outer loop
      vertex -1.04189 2.5 5.09115
      vertex 1.38918 2.5 3.12154
      vertex -3 2.5 5.80385
    endloop
  endfacet
  facet normal 0 1 -2.22045e-16
    outer loop
      vertex -7.51754 2.5 8.26384
      vertex 1.38918 2.5 3.12154
      vertex -1.38918 2.5 3.12154
    endloop
  endfacet
  facet normal 0 1 -2.22045e-16
    outer loop
      vertex -7.51754 2.5 8.26384
      vertex -1.38918 2.5 3.12154
      vertex -4 2.5 4.0718
    endloop
  endfacet
  facet normal 0 1 -2.22045e-16
    outer loop
      vertex -7.51754 2.5 8.26384
      vertex -4 2.5 4.0718
      vertex -6.12836 2.5 5.8577
    endloop
  endfacet
  facet normal 0 0 1
    outer loop
      vertex -5.82367 2.5 10
      vertex -7.82367 2.5 10
      vertex -7.82367 -1.8 10
    endloop
  endfacet
  facet normal 0 0 1
    outer loop
      vertex -5.82367 -1.8 10
      vertex -5.82367 2.5 10
      vertex -7.82367 -1.8 10
    endloop
  endfacet
  facet normal -0.984808 -3.85576e-17 -0.173648
    outer loop
      vertex -7.82367 2.5 10
      vertex -7.51754 2.5 8.26384
      vertex -7.82367 -1.8 10
    endloop
  endfacet
  facet normal -0.984808 -3.85576e-17 -0.173648
    outer loop
      vertex -7.82367 -1.8 10
      vertex -7.51754 2.5 8.26384
      vertex -7.51754 -1.8 8.26384
    endloop
  endfacet
  facet normal -0.866025 -1.11022e-16 -0.5
    outer loop
      vertex -7.51754 -1.8 8.26384
      vertex -7.51754 2.5 8.26384
      vertex -6.12836 -1.8 5.8577
    endloop
  endfacet
  facet normal -0.866025 -1.11022e-16 -0.5
    outer loop
      vertex -6.12836 -1.8 5.8577
      vertex -7.51754 2.5 8.26384
      vertex -6.12836 2.5 5.8577
    endloop
  endfacet
  facet normal -0.642787 -1.70096e-16 -0.766045
    outer loop
      vertex -6.12836 -1.8 5.8577
      vertex -6.12836 2.5 5.8577
      vertex -4 -1.8 4.0718
    endloop
  endfacet
  facet normal -0.642787 -1.70096e-16 -0.766045
    outer loop
      vertex -4 -1.8 4.0718
      vertex -6.12836 2.5 5.8577
      vertex -4 2.5 4.0718
    endloop
  endfacet
  facet normal -0.34202 -2.08654e-16 -0.939693
    outer loop
      vertex -4 -1.8 4.0718
      vertex -4 2.5 4.0718
      vertex -1.38918 -1.8 3.12154
    endloop
  endfacet
  facet normal -0.34202 -2.08654e-16 -0.939693
    outer loop
      vertex -1.38918 -1.8 3.12154
      vertex -4 2.5 4.0718
      vertex -1.38918 2.5 3.12154
    endloop
  endfacet
  facet normal 0 -2.22045e-16 -1
    outer loop
      vertex -1.38918 -1.8 3.12154
      vertex -1.38918 2.5 3.12154
      vertex 1.38918 -1.8 3.12154
    endloop
  endfacet
  facet normal 0 -2.22045e-16 -1
    outer loop
      vertex 1.38918 -1.8 3.12154
      vertex -1.38918 2.5 3.12154
      vertex 1.38918 2.5 3.12154
    endloop
  endfacet
  facet normal 0.34202 -2.08654e-16 -0.939693
    outer loop
      vertex 1.38918 -1.8 3.12154
      vertex 1.38918 2.5 3.12154
      vertex 4 -1.8 4.0718
    endloop
  endfacet
  facet normal 0.34202 -2.08654e-16 -0.939693
    outer loop
      vertex 4 -1.8 4.0718
      vertex 1.38918 2.5 3.12154
      vertex 4 2.5 4.0718
    endloop
  endfacet
  facet normal 0.642787 -1.70096e-16 -0.766045
    outer loop
      vertex 4 -1.8 4.0718
      vertex 4 2.5 4.0718
      vertex 6.12836 -1.8 5.8577
    endloop
  endfacet
  facet normal 0.642787 -1.70096e-16 -0.766045
    outer loop
      vertex 6.12836 -1.8 5.8577
      vertex 4 2.5 4.0718
      vertex 6.12836 2.5 5.8577
    endloop
  endfacet
  facet normal 0.866025 -1.11022e-16 -0.5
    outer loop
      vertex 7.51754 -1.8 8.26384
      vertex 6.12836 -1.8 5.8577
      vertex 6.12836 2.5 5.8577
    endloop
  endfacet
  facet normal 0.866025 -1.11022e-16 -0.5
    outer loop
      vertex 7.51754 2.5 8.26384
      vertex 7.51754 -1.8 8.26384
      vertex 6.12836 2.5 5.8577
    endloop
  endfacet
  facet normal 0.984808 -3.85576e-17 -0.173648
    outer loop
      vertex 7.82367 -1.8 10
      vertex 7.51754 -1.8 8.26384
      vertex 7.51754 2.5 8.26384
    endloop
  endfacet
  facet normal 0.984808 -3.85576e-17 -0.173648
    outer loop
      vertex 7.82367 2.5 10
      vertex 7.82367 -1.8 10
      vertex 7.51754 2.5 8.26384
    endloop
  endfacet
  facet normal 0 0 1
    outer loop
      vertex 5.82367 2.5 10
      vertex 5.82367 -1.8 10
      vertex 7.82367 -1.8 10
    endloop
  endfacet
  facet normal 0 0 1
    outer loop
      vertex 7.82367 2.5 10
      vertex 5.82367 2.5 10
      vertex 7.82367 -1.8 10
    endloop
  endfacet
  facet normal -0.984808 3.85576e-17 0.173648
    outer loop
      vertex 5.82367 2.5 10
      vertex 5.63816 2.5 8.94788
      vertex 5.82367 -1.8 10
    endloop
  endfacet
  facet normal -0.984808 3.85576e-17 0.173648
    outer loop
      vertex 5.82367 -1.8 10
      vertex 5.63816 2.5 8.94788
      vertex 5.63816 -1.8 8.94788
    endloop
  endfacet
  facet normal -0.866025 1.11022e-16 0.5
    outer loop
      vertex 5.63816 2.5 8.94788
      vertex 4.59627 2.5 7.14327
      vertex 5.63816 -1.8 8.94788
    endloop
  endfacet
  facet normal -0.866025 1.11022e-16 0.5
    outer loop
      vertex 5.63816 -1.8 8.94788
      vertex 4.59627 2.5 7.14327
      vertex 4.59627 -1.8 7.14327
    endloop
  endfacet
  facet normal -0.642787 1.70096e-16 0.766045
    outer loop
      vertex 4.59627 -1.8 7.14327
      vertex 4.59627 2.5 7.14327
      vertex 3 2.5 5.80385
    endloop
  endfacet
  facet normal -0.642787 1.70096e-16 0.766045
    outer loop
      vertex 3 -1.8 5.80385
      vertex 4.59627 -1.8 7.14327
      vertex 3 2.5 5.80385
    endloop
  endfacet
  facet normal -0.342021 2.08654e-16 0.939692
    outer loop
      vertex 3 -1.8 5.80385
      vertex 3 2.5 5.80385
      vertex 1.04189 2.5 5.09115
    endloop
  endfacet
  facet normal -0.342021 2.08654e-16 0.939692
    outer loop
      vertex 1.04189 -1.8 5.09115
      vertex 3 -1.8 5.80385
      vertex 1.04189 2.5 5.09115
    endloop
  endfacet
  facet normal 0 2.22045e-16 1
    outer loop
      vertex 1.04189 -1.8 5.09115
      vertex 1.04189 2.5 5.09115
      vertex -1.04189 2.5 5.09115
    endloop
  endfacet
  facet normal 0 2.22045e-16 1
    outer loop
      vertex -1.04189 -1.8 5.09115
      vertex 1.04189 -1.8 5.09115
      vertex -1.04189 2.5 5.09115
    endloop
  endfacet
  facet normal 0.342021 2.08654e-16 0.939692
    outer loop
      vertex -1.04189 -1.8 5.09115
      vertex -1.04189 2.5 5.09115
      vertex -3 2.5 5.80385
    endloop
  endfacet
  facet normal 0.342021 2.08654e-16 0.939692
    outer loop
      vertex -3 -1.8 5.80385
      vertex -1.04189 -1.8 5.09115
      vertex -3 2.5 5.80385
    endloop
  endfacet
  facet normal 0.642787 1.70096e-16 0.766045
    outer loop
      vertex -3 -1.8 5.80385
      vertex -3 2.5 5.80385
      vertex -4.59627 2.5 7.14327
    endloop
  endfacet
  facet normal 0.642787 1.70096e-16 0.766045
    outer loop
      vertex -4.59627 -1.8 7.14327
      vertex -3 -1.8 5.80385
      vertex -4.59627 2.5 7.14327
    endloop
  endfacet
  facet normal 0.866025 1.11022e-16 0.5
    outer loop
      vertex -4.59627 -1.8 7.14327
      vertex -4.59627 2.5 7.14327
      vertex -5.63816 2.5 8.94788
    endloop
  endfacet
  facet normal 0.866025 1.11022e-16 0.5
    outer loop
      vertex -5.63816 -1.8 8.94788
      vertex -4.59627 -1.8 7.14327
      vertex -5.63816 2.5 8.94788
    endloop
  endfacet
  facet normal 0.984808 3.85576e-17 0.173648
    outer loop
      vertex -5.82367 -1.8 10
      vertex -5.63816 -1.8 8.94788
      vertex -5.63816 2.5 8.94788
    endloop
  endfacet
  facet normal 0.984808 3.85576e-17 0.173648
    outer loop
      vertex -5.82367 2.5 10
      vertex -5.82367 -1.8 10
      vertex -5.63816 2.5 8.94788
    endloop
  endfacet
  facet normal 0 -1 2.22045e-16
    outer loop
      vertex -5.82367 -1.8 10
      vertex -7.82367 -1.8 10
      vertex -7.51754 -1.8 8.26384
    endloop
  endfacet
  facet normal 0 -1 2.22045e-16
    outer loop
      vertex -5.63816 -1.8 8.94788
      vertex -5.82367 -1.8 10
      vertex -6.12836 -1.8 5.8577
    endloop
  endfacet
  facet normal 0 -1 2.22045e-16
    outer loop
      vertex -6.12836 -1.8 5.8577
      vertex -5.82367 -1.8 10
      vertex -7.51754 -1.8 8.26384
    endloop
  endfacet
  facet normal 0 -1 2.22045e-16
    outer loop
      vertex -4.59627 -1.8 7.14327
      vertex -5.63816 -1.8 8.94788
      vertex -4 -1.8 4.0718
    endloop
  endfacet
  facet normal 0 -1 2.22045e-16
    outer loop
      vertex -3 -1.8 5.80385
      vertex -4.59627 -1.8 7.14327
      vertex -1.38918 -1.8 3.12154
    endloop
  endfacet
  facet normal 0 -1 2.22045e-16
    outer loop
      vertex 1.04189 -1.8 5.09115
      vertex -1.04189 -1.8 5.09115
      vertex 1.38918 -1.8 3.12154
    endloop
  endfacet
  facet normal 0 -1 2.22045e-16
    outer loop
      vertex 3 -1.8 5.80385
      vertex 1.04189 -1.8 5.09115
      vertex 4 -1.8 4.0718
    endloop
  endfacet
  facet normal 0 -1 2.22045e-16
    outer loop
      vertex 4.59627 -1.8 7.14327
      vertex 3 -1.8 5.80385
      vertex 6.12836 -1.8 5.8577
    endloop
  endfacet
  facet normal 0 -1 2.22045e-16
    outer loop
      vertex 7.82367 -1.8 10
      vertex 5.82367 -1.8 10
      vertex 7.51754 -1.8 8.26384
    endloop
  endfacet
  facet normal 0 -1 2.22045e-16
    outer loop
      vertex 5.82367 -1.8 10
      vertex 5.63816 -1.8 8.94788
      vertex 7.51754 -1.8 8.26384
    endloop
  endfacet
  facet normal 0 -1 2.22045e-16
    outer loop
      vertex 7.51754 -1.8 8.26384
      vertex 4.59627 -1.8 7.14327
      vertex 6.12836 -1.8 5.8577
    endloop
  endfacet
  facet normal 0 -1 2.22045e-16
    outer loop
      vertex 6.12836 -1.8 5.8577
      vertex 3 -1.8 5.80385
      vertex 4 -1.8 4.0718
    endloop
  endfacet
  facet normal 0 -1 2.22045e-16
    outer loop
      vertex 4 -1.8 4.0718
      vertex 1.04189 -1.8 5.09115
      vertex 1.38918 -1.8 3.12154
    endloop
  endfacet
  facet normal 0 -1 2.22045e-16
    outer loop
      vertex 1.38918 -1.8 3.12154
      vertex -1.04189 -1.8 5.09115
      vertex -1.38918 -1.8 3.12154
    endloop
  endfacet
  facet normal 0 -1 2.22045e-16
    outer loop
      vertex -1.04189 -1.8 5.09115
      vertex -3 -1.8 5.80385
      vertex -1.38918 -1.8 3.12154
    endloop
  endfacet
  facet normal 0 -1 2.22045e-16
    outer loop
      vertex -1.38918 -1.8 3.12154
      vertex -4.59627 -1.8 7.14327
      vertex -4 -1.8 4.0718
    endloop
  endfacet
  facet normal 0 -1 2.22045e-16
    outer loop
      vertex -4 -1.8 4.0718
      vertex -5.63816 -1.8 8.94788
      vertex -6.12836 -1.8 5.8577
    endloop
  endfacet
  facet normal 0 -1 2.22045e-16
    outer loop
      vertex 5.63816 -1.8 8.94788
      vertex 4.59627 -1.8 7.14327
      vertex 7.51754 -1.8 8.26384
    endloop
  endfacet
endsolid OpenSCAD_Model
