solid OpenSCAD_Model
  facet normal -0.707107 1.57009e-16 -0.707107
    outer loop
      vertex -16.4 32.2391 5
      vertex -16.4 72.2391 5
      vertex -11.4 32.2391 0
    endloop
  endfacet
  facet normal -0.707107 1.57009e-16 -0.707107
    outer loop
      vertex -11.4 32.2391 0
      vertex -16.4 72.2391 5
      vertex -11.4 72.2391 8.88178e-15
    endloop
  endfacet
  facet normal -0.707107 -1.57009e-16 0.707107
    outer loop
      vertex -16.4 32.2391 5
      vertex -11.4 32.2391 10
      vertex -16.4 72.2391 5
    endloop
  endfacet
  facet normal -0.707107 -1.57009e-16 0.707107
    outer loop
      vertex -16.4 72.2391 5
      vertex -11.4 32.2391 10
      vertex -11.4 72.2391 10
    endloop
  endfacet
  facet normal 0 -1 -2.22045e-16
    outer loop
      vertex -11.4 32.2391 10
      vertex -16.4 32.2391 5
      vertex -11.4 32.2391 0
    endloop
  endfacet
  facet normal 0 -1 -2.22045e-16
    outer loop
      vertex 16.4 32.2391 5
      vertex -11.4 32.2391 10
      vertex 11.4 32.2391 0
    endloop
  endfacet
  facet normal 0 -1 -2.22045e-16
    outer loop
      vertex 11.4 32.2391 0
      vertex -11.4 32.2391 10
      vertex -11.4 32.2391 0
    endloop
  endfacet
  facet normal 0 -1 -2.22045e-16
    outer loop
      vertex 11.4 32.2391 10
      vertex -11.4 32.2391 10
      vertex 16.4 32.2391 5
    endloop
  endfacet
  facet normal 0 2.22045e-16 -1
    outer loop
      vertex 2.4625 51.5043 4.27773e-15
      vertex -11.4 72.2391 8.88178e-15
      vertex 11.4 72.2391 8.88178e-15
    endloop
  endfacet
  facet normal 0 2.22045e-16 -1
    outer loop
      vertex -11.4 32.2391 0
      vertex -11.4 72.2391 8.88178e-15
      vertex -4.925 47.2391 3.33067e-15
    endloop
  endfacet
  facet normal 0 2.22045e-16 -1
    outer loop
      vertex -11.4 32.2391 0
      vertex -4.925 47.2391 3.33067e-15
      vertex -2.4625 42.9739 2.38361e-15
    endloop
  endfacet
  facet normal 0 2.22045e-16 -1
    outer loop
      vertex -11.4 32.2391 0
      vertex -2.4625 42.9739 2.38361e-15
      vertex 11.4 32.2391 0
    endloop
  endfacet
  facet normal 0 2.22045e-16 -1
    outer loop
      vertex 4.925 47.2391 3.33067e-15
      vertex 11.4 32.2391 0
      vertex 2.4625 42.9739 2.38361e-15
    endloop
  endfacet
  facet normal 0 2.22045e-16 -1
    outer loop
      vertex -2.4625 51.5043 4.27773e-15
      vertex -11.4 72.2391 8.88178e-15
      vertex 2.4625 51.5043 4.27773e-15
    endloop
  endfacet
  facet normal 0 2.22045e-16 -1
    outer loop
      vertex 11.4 32.2391 0
      vertex 4.925 47.2391 3.33067e-15
      vertex 11.4 72.2391 8.88178e-15
    endloop
  endfacet
  facet normal 0 2.22045e-16 -1
    outer loop
      vertex 4.925 47.2391 3.33067e-15
      vertex 2.4625 51.5043 4.27773e-15
      vertex 11.4 72.2391 8.88178e-15
    endloop
  endfacet
  facet normal 0 2.22045e-16 -1
    outer loop
      vertex -4.925 47.2391 3.33067e-15
      vertex -11.4 72.2391 8.88178e-15
      vertex -2.4625 51.5043 4.27773e-15
    endloop
  endfacet
  facet normal 0 2.22045e-16 -1
    outer loop
      vertex 2.4625 42.9739 2.38361e-15
      vertex 11.4 32.2391 0
      vertex -2.4625 42.9739 2.38361e-15
    endloop
  endfacet
  facet normal 0 1 2.22045e-16
    outer loop
      vertex -16.4 72.2391 5
      vertex -11.4 72.2391 10
      vertex -11.4 72.2391 8.88178e-15
    endloop
  endfacet
  facet normal 0 1 2.22045e-16
    outer loop
      vertex 0 72.2391 7.75
      vertex -11.4 72.2391 10
      vertex 11.4 72.2391 10
    endloop
  endfacet
  facet normal 0 1 2.22045e-16
    outer loop
      vertex 2.54067 72.2391 3.94762
      vertex 11.4 72.2391 10
      vertex 16.4 72.2391 5
    endloop
  endfacet
  facet normal 0 1 2.22045e-16
    outer loop
      vertex -11.4 72.2391 8.88178e-15
      vertex 16.4 72.2391 5
      vertex 11.4 72.2391 8.88178e-15
    endloop
  endfacet
  facet normal 0 1 2.22045e-16
    outer loop
      vertex -11.4 72.2391 8.88178e-15
      vertex -11.4 72.2391 10
      vertex -2.54067 72.2391 6.05238
    endloop
  endfacet
  facet normal 0 1 2.22045e-16
    outer loop
      vertex -11.4 72.2391 8.88178e-15
      vertex -2.54067 72.2391 6.05238
      vertex -2.75 72.2391 5
    endloop
  endfacet
  facet normal 0 1 2.22045e-16
    outer loop
      vertex -11.4 72.2391 8.88178e-15
      vertex -2.75 72.2391 5
      vertex -2.54067 72.2391 3.94762
    endloop
  endfacet
  facet normal 0 1 2.22045e-16
    outer loop
      vertex 1.94454 72.2391 6.94454
      vertex 11.4 72.2391 10
      vertex 2.54067 72.2391 6.05238
    endloop
  endfacet
  facet normal 0 1 2.22045e-16
    outer loop
      vertex -11.4 72.2391 8.88178e-15
      vertex -1.94454 72.2391 3.05546
      vertex -1.05238 72.2391 2.45933
    endloop
  endfacet
  facet normal 0 1 2.22045e-16
    outer loop
      vertex -11.4 72.2391 8.88178e-15
      vertex -1.05238 72.2391 2.45933
      vertex 0 72.2391 2.25
    endloop
  endfacet
  facet normal 0 1 2.22045e-16
    outer loop
      vertex -11.4 72.2391 8.88178e-15
      vertex 0 72.2391 2.25
      vertex 16.4 72.2391 5
    endloop
  endfacet
  facet normal 0 1 2.22045e-16
    outer loop
      vertex 0 72.2391 2.25
      vertex 1.05238 72.2391 2.45933
      vertex 16.4 72.2391 5
    endloop
  endfacet
  facet normal 0 1 2.22045e-16
    outer loop
      vertex 2.54067 72.2391 3.94762
      vertex 16.4 72.2391 5
      vertex 1.94454 72.2391 3.05546
    endloop
  endfacet
  facet normal 0 1 2.22045e-16
    outer loop
      vertex 2.75 72.2391 5
      vertex 11.4 72.2391 10
      vertex 2.54067 72.2391 3.94762
    endloop
  endfacet
  facet normal 0 1 2.22045e-16
    outer loop
      vertex 2.54067 72.2391 6.05238
      vertex 11.4 72.2391 10
      vertex 2.75 72.2391 5
    endloop
  endfacet
  facet normal 0 1 2.22045e-16
    outer loop
      vertex 1.94454 72.2391 3.05546
      vertex 16.4 72.2391 5
      vertex 1.05238 72.2391 2.45933
    endloop
  endfacet
  facet normal 0 1 2.22045e-16
    outer loop
      vertex 1.05238 72.2391 7.54067
      vertex 11.4 72.2391 10
      vertex 1.94454 72.2391 6.94454
    endloop
  endfacet
  facet normal 0 1 2.22045e-16
    outer loop
      vertex -1.05238 72.2391 7.54067
      vertex -11.4 72.2391 10
      vertex 0 72.2391 7.75
    endloop
  endfacet
  facet normal 0 1 2.22045e-16
    outer loop
      vertex 1.05238 72.2391 7.54067
      vertex 0 72.2391 7.75
      vertex 11.4 72.2391 10
    endloop
  endfacet
  facet normal 0 1 2.22045e-16
    outer loop
      vertex -1.94454 72.2391 6.94454
      vertex -11.4 72.2391 10
      vertex -1.05238 72.2391 7.54067
    endloop
  endfacet
  facet normal 0 1 2.22045e-16
    outer loop
      vertex -2.54067 72.2391 6.05238
      vertex -11.4 72.2391 10
      vertex -1.94454 72.2391 6.94454
    endloop
  endfacet
  facet normal 0 1 2.22045e-16
    outer loop
      vertex -1.94454 72.2391 3.05546
      vertex -11.4 72.2391 8.88178e-15
      vertex -2.54067 72.2391 3.94762
    endloop
  endfacet
  facet normal 0 -2.22045e-16 1
    outer loop
      vertex 0 36.7496 10
      vertex -11.4 32.2391 10
      vertex 11.4 32.2391 10
    endloop
  endfacet
  facet normal 0 -2.22045e-16 1
    outer loop
      vertex 10.4887 47.2351 10
      vertex 9.69103 43.2249 10
      vertex 11.4 32.2391 10
    endloop
  endfacet
  facet normal 0 -2.22045e-16 1
    outer loop
      vertex -11.4 72.2391 10
      vertex -11.4 32.2391 10
      vertex -10.4895 47.2391 10
    endloop
  endfacet
  facet normal 0 -2.22045e-16 1
    outer loop
      vertex -11.4 72.2391 10
      vertex -10.4895 47.2391 10
      vertex -10.4887 47.2431 10
    endloop
  endfacet
  facet normal 0 -2.22045e-16 1
    outer loop
      vertex -11.4 72.2391 10
      vertex -10.4887 47.2431 10
      vertex -9.69103 51.2533 10
    endloop
  endfacet
  facet normal 0 -2.22045e-16 1
    outer loop
      vertex 4.01014 37.5473 10
      vertex 0 36.7496 10
      vertex 11.4 32.2391 10
    endloop
  endfacet
  facet normal 0 -2.22045e-16 1
    outer loop
      vertex -11.4 72.2391 10
      vertex -9.69103 51.2533 10
      vertex -9.68876 51.2567 10
    endloop
  endfacet
  facet normal 0 -2.22045e-16 1
    outer loop
      vertex -11.4 72.2391 10
      vertex -9.68876 51.2567 10
      vertex -7.4172 54.6563 10
    endloop
  endfacet
  facet normal 0 -2.22045e-16 1
    outer loop
      vertex -11.4 72.2391 10
      vertex -7.4172 54.6563 10
      vertex -7.41379 54.6586 10
    endloop
  endfacet
  facet normal 0 -2.22045e-16 1
    outer loop
      vertex -11.4 72.2391 10
      vertex -7.41379 54.6586 10
      vertex -4.01416 56.9301 10
    endloop
  endfacet
  facet normal 0 -2.22045e-16 1
    outer loop
      vertex -11.4 72.2391 10
      vertex -4.01416 56.9301 10
      vertex -4.01014 56.9309 10
    endloop
  endfacet
  facet normal 0 -2.22045e-16 1
    outer loop
      vertex 11.4 72.2391 10
      vertex -11.4 72.2391 10
      vertex 0 57.7286 10
    endloop
  endfacet
  facet normal 0 -2.22045e-16 1
    outer loop
      vertex 11.4 72.2391 10
      vertex 0 57.7286 10
      vertex 0.00401818 57.7278 10
    endloop
  endfacet
  facet normal 0 -2.22045e-16 1
    outer loop
      vertex 11.4 72.2391 10
      vertex 0.00401818 57.7278 10
      vertex 4.01416 56.9301 10
    endloop
  endfacet
  facet normal 0 -2.22045e-16 1
    outer loop
      vertex 11.4 72.2391 10
      vertex 4.01416 56.9301 10
      vertex 4.01756 56.9279 10
    endloop
  endfacet
  facet normal 0 -2.22045e-16 1
    outer loop
      vertex 11.4 72.2391 10
      vertex 4.01756 56.9279 10
      vertex 7.4172 54.6563 10
    endloop
  endfacet
  facet normal 0 -2.22045e-16 1
    outer loop
      vertex 7.41379 39.8196 10
      vertex 4.01416 37.5481 10
      vertex 11.4 32.2391 10
    endloop
  endfacet
  facet normal 0 -2.22045e-16 1
    outer loop
      vertex 11.4 72.2391 10
      vertex 7.4172 54.6563 10
      vertex 7.41947 54.6529 10
    endloop
  endfacet
  facet normal 0 -2.22045e-16 1
    outer loop
      vertex 11.4 72.2391 10
      vertex 7.41947 54.6529 10
      vertex 9.69103 51.2533 10
    endloop
  endfacet
  facet normal 0 -2.22045e-16 1
    outer loop
      vertex 11.4 72.2391 10
      vertex 9.69103 51.2533 10
      vertex 9.69183 51.2492 10
    endloop
  endfacet
  facet normal 0 -2.22045e-16 1
    outer loop
      vertex 11.4 72.2391 10
      vertex 10.4895 47.2391 10
      vertex 11.4 32.2391 10
    endloop
  endfacet
  facet normal 0 -2.22045e-16 1
    outer loop
      vertex 11.4 72.2391 10
      vertex 9.69183 51.2492 10
      vertex 10.4895 47.2391 10
    endloop
  endfacet
  facet normal 0 -2.22045e-16 1
    outer loop
      vertex 10.4895 47.2391 10
      vertex 10.4887 47.2351 10
      vertex 11.4 32.2391 10
    endloop
  endfacet
  facet normal 0 -2.22045e-16 1
    outer loop
      vertex 9.69103 43.2249 10
      vertex 9.68876 43.2215 10
      vertex 11.4 32.2391 10
    endloop
  endfacet
  facet normal 0 -2.22045e-16 1
    outer loop
      vertex 7.4172 39.8219 10
      vertex 7.41379 39.8196 10
      vertex 11.4 32.2391 10
    endloop
  endfacet
  facet normal 0 -2.22045e-16 1
    outer loop
      vertex 4.01416 37.5481 10
      vertex 4.01014 37.5473 10
      vertex 11.4 32.2391 10
    endloop
  endfacet
  facet normal 0 -2.22045e-16 1
    outer loop
      vertex -0.00401818 36.7504 10
      vertex -11.4 32.2391 10
      vertex 0 36.7496 10
    endloop
  endfacet
  facet normal 0 -2.22045e-16 1
    outer loop
      vertex -4.01416 37.5481 10
      vertex -11.4 32.2391 10
      vertex -0.00401818 36.7504 10
    endloop
  endfacet
  facet normal 0 -2.22045e-16 1
    outer loop
      vertex -4.01756 37.5503 10
      vertex -11.4 32.2391 10
      vertex -4.01416 37.5481 10
    endloop
  endfacet
  facet normal 0 -2.22045e-16 1
    outer loop
      vertex -7.4172 39.8219 10
      vertex -11.4 32.2391 10
      vertex -4.01756 37.5503 10
    endloop
  endfacet
  facet normal 0 -2.22045e-16 1
    outer loop
      vertex -7.41947 39.8253 10
      vertex -11.4 32.2391 10
      vertex -7.4172 39.8219 10
    endloop
  endfacet
  facet normal 0 -2.22045e-16 1
    outer loop
      vertex -9.69103 43.2249 10
      vertex -11.4 32.2391 10
      vertex -7.41947 39.8253 10
    endloop
  endfacet
  facet normal 0 -2.22045e-16 1
    outer loop
      vertex -10.4895 47.2391 10
      vertex -11.4 32.2391 10
      vertex -9.69103 43.2249 10
    endloop
  endfacet
  facet normal 0 -2.22045e-16 1
    outer loop
      vertex -10.4895 47.2391 10
      vertex -9.69103 43.2249 10
      vertex -9.69183 43.229 10
    endloop
  endfacet
  facet normal 0 -2.22045e-16 1
    outer loop
      vertex -4.01014 56.9309 10
      vertex 0 57.7286 10
      vertex -11.4 72.2391 10
    endloop
  endfacet
  facet normal 0 -2.22045e-16 1
    outer loop
      vertex 9.68876 43.2215 10
      vertex 7.4172 39.8219 10
      vertex 11.4 32.2391 10
    endloop
  endfacet
  facet normal 0.707107 -1.57009e-16 0.707107
    outer loop
      vertex 11.4 72.2391 10
      vertex 11.4 32.2391 10
      vertex 16.4 32.2391 5
    endloop
  endfacet
  facet normal 0.707107 -1.57009e-16 0.707107
    outer loop
      vertex 16.4 72.2391 5
      vertex 11.4 72.2391 10
      vertex 16.4 32.2391 5
    endloop
  endfacet
  facet normal 0.707107 1.57009e-16 -0.707107
    outer loop
      vertex 16.4 32.2391 5
      vertex 11.4 32.2391 0
      vertex 11.4 72.2391 8.88178e-15
    endloop
  endfacet
  facet normal 0.707107 1.57009e-16 -0.707107
    outer loop
      vertex 16.4 72.2391 5
      vertex 16.4 32.2391 5
      vertex 11.4 72.2391 8.88178e-15
    endloop
  endfacet
  facet normal 0.866025 0.5 0
    outer loop
      vertex -2.4625 42.9739 4.95
      vertex -2.4625 42.9739 2.38361e-15
      vertex -4.925 47.2391 3.33067e-15
    endloop
  endfacet
  facet normal 0.866025 0.5 0
    outer loop
      vertex -4.925 47.2391 4.95
      vertex -2.4625 42.9739 4.95
      vertex -4.925 47.2391 3.33067e-15
    endloop
  endfacet
  facet normal 0.866025 -0.5 0
    outer loop
      vertex -4.925 47.2391 3.33067e-15
      vertex -2.4625 51.5043 4.27773e-15
      vertex -2.4625 51.5043 4.95
    endloop
  endfacet
  facet normal 0.866025 -0.5 0
    outer loop
      vertex -4.925 47.2391 4.95
      vertex -4.925 47.2391 3.33067e-15
      vertex -2.4625 51.5043 4.95
    endloop
  endfacet
  facet normal 0 -1 0
    outer loop
      vertex -2.4625 51.5043 4.27773e-15
      vertex 2.4625 51.5043 4.27773e-15
      vertex 2.4625 51.5043 4.95
    endloop
  endfacet
  facet normal 0 -1 0
    outer loop
      vertex -2.4625 51.5043 4.95
      vertex -2.4625 51.5043 4.27773e-15
      vertex 2.4625 51.5043 4.95
    endloop
  endfacet
  facet normal -0.866025 -0.5 0
    outer loop
      vertex 4.925 47.2391 3.33067e-15
      vertex 4.925 47.2391 4.95
      vertex 2.4625 51.5043 4.27773e-15
    endloop
  endfacet
  facet normal -0.866025 -0.5 0
    outer loop
      vertex 2.4625 51.5043 4.27773e-15
      vertex 4.925 47.2391 4.95
      vertex 2.4625 51.5043 4.95
    endloop
  endfacet
  facet normal -0.866025 0.5 0
    outer loop
      vertex 4.925 47.2391 3.33067e-15
      vertex 2.4625 42.9739 2.38361e-15
      vertex 4.925 47.2391 4.95
    endloop
  endfacet
  facet normal -0.866025 0.5 0
    outer loop
      vertex 4.925 47.2391 4.95
      vertex 2.4625 42.9739 2.38361e-15
      vertex 2.4625 42.9739 4.95
    endloop
  endfacet
  facet normal 0 1 0
    outer loop
      vertex 2.4625 42.9739 2.38361e-15
      vertex -2.4625 42.9739 2.38361e-15
      vertex 2.4625 42.9739 4.95
    endloop
  endfacet
  facet normal 0 1 0
    outer loop
      vertex 2.4625 42.9739 4.95
      vertex -2.4625 42.9739 2.38361e-15
      vertex -2.4625 42.9739 4.95
    endloop
  endfacet
  facet normal 0.83147 1.23361e-16 -0.55557
    outer loop
      vertex -2.54067 72.2391 6.05238
      vertex -1.94454 72.2391 6.94454
      vertex -1.94454 69.7391 6.94454
    endloop
  endfacet
  facet normal 0.83147 1.23361e-16 -0.55557
    outer loop
      vertex -2.54067 69.7391 6.05238
      vertex -2.54067 72.2391 6.05238
      vertex -1.94454 69.7391 6.94454
    endloop
  endfacet
  facet normal 0.980785 4.33187e-17 -0.19509
    outer loop
      vertex -2.75 72.2391 5
      vertex -2.54067 72.2391 6.05238
      vertex -2.54067 69.7391 6.05238
    endloop
  endfacet
  facet normal 0.980785 4.33187e-17 -0.19509
    outer loop
      vertex -2.75 69.7391 5
      vertex -2.75 72.2391 5
      vertex -2.54067 69.7391 6.05238
    endloop
  endfacet
  facet normal 0.55557 1.84623e-16 -0.83147
    outer loop
      vertex -1.05238 72.2391 7.54067
      vertex -1.05238 69.7391 7.54067
      vertex -1.94454 72.2391 6.94454
    endloop
  endfacet
  facet normal 0.55557 1.84623e-16 -0.83147
    outer loop
      vertex -1.94454 72.2391 6.94454
      vertex -1.05238 69.7391 7.54067
      vertex -1.94454 69.7391 6.94454
    endloop
  endfacet
  facet normal 0.19509 2.17778e-16 -0.980785
    outer loop
      vertex 0 72.2391 7.75
      vertex 0 69.7391 7.75
      vertex -1.05238 72.2391 7.54067
    endloop
  endfacet
  facet normal 0.19509 2.17778e-16 -0.980785
    outer loop
      vertex -1.05238 72.2391 7.54067
      vertex 0 69.7391 7.75
      vertex -1.05238 69.7391 7.54067
    endloop
  endfacet
  facet normal -0.19509 2.17778e-16 -0.980785
    outer loop
      vertex 1.05238 72.2391 7.54067
      vertex 1.05238 69.7391 7.54067
      vertex 0 72.2391 7.75
    endloop
  endfacet
  facet normal -0.19509 2.17778e-16 -0.980785
    outer loop
      vertex 0 72.2391 7.75
      vertex 1.05238 69.7391 7.54067
      vertex 0 69.7391 7.75
    endloop
  endfacet
  facet normal -0.55557 1.84623e-16 -0.83147
    outer loop
      vertex 1.94454 72.2391 6.94454
      vertex 1.94454 69.7391 6.94454
      vertex 1.05238 72.2391 7.54067
    endloop
  endfacet
  facet normal -0.55557 1.84623e-16 -0.83147
    outer loop
      vertex 1.05238 72.2391 7.54067
      vertex 1.94454 69.7391 6.94454
      vertex 1.05238 69.7391 7.54067
    endloop
  endfacet
  facet normal -0.83147 1.23361e-16 -0.55557
    outer loop
      vertex 2.54067 72.2391 6.05238
      vertex 2.54067 69.7391 6.05238
      vertex 1.94454 72.2391 6.94454
    endloop
  endfacet
  facet normal -0.83147 1.23361e-16 -0.55557
    outer loop
      vertex 1.94454 72.2391 6.94454
      vertex 2.54067 69.7391 6.05238
      vertex 1.94454 69.7391 6.94454
    endloop
  endfacet
  facet normal -0.980785 4.33187e-17 -0.19509
    outer loop
      vertex 2.75 72.2391 5
      vertex 2.75 69.7391 5
      vertex 2.54067 72.2391 6.05238
    endloop
  endfacet
  facet normal -0.980785 4.33187e-17 -0.19509
    outer loop
      vertex 2.54067 72.2391 6.05238
      vertex 2.75 69.7391 5
      vertex 2.54067 69.7391 6.05238
    endloop
  endfacet
  facet normal -0.980785 -4.33187e-17 0.19509
    outer loop
      vertex 2.75 72.2391 5
      vertex 2.54067 72.2391 3.94762
      vertex 2.75 69.7391 5
    endloop
  endfacet
  facet normal -0.980785 -4.33187e-17 0.19509
    outer loop
      vertex 2.75 69.7391 5
      vertex 2.54067 72.2391 3.94762
      vertex 2.54067 69.7391 3.94762
    endloop
  endfacet
  facet normal -0.83147 -1.23361e-16 0.55557
    outer loop
      vertex 2.54067 72.2391 3.94762
      vertex 1.94454 72.2391 3.05546
      vertex 2.54067 69.7391 3.94762
    endloop
  endfacet
  facet normal -0.83147 -1.23361e-16 0.55557
    outer loop
      vertex 2.54067 69.7391 3.94762
      vertex 1.94454 72.2391 3.05546
      vertex 1.94454 69.7391 3.05546
    endloop
  endfacet
  facet normal -0.55557 -1.84623e-16 0.83147
    outer loop
      vertex 1.94454 69.7391 3.05546
      vertex 1.94454 72.2391 3.05546
      vertex 1.05238 72.2391 2.45933
    endloop
  endfacet
  facet normal -0.55557 -1.84623e-16 0.83147
    outer loop
      vertex 1.05238 69.7391 2.45933
      vertex 1.94454 69.7391 3.05546
      vertex 1.05238 72.2391 2.45933
    endloop
  endfacet
  facet normal -0.19509 -2.17778e-16 0.980785
    outer loop
      vertex 1.05238 69.7391 2.45933
      vertex 1.05238 72.2391 2.45933
      vertex 0 72.2391 2.25
    endloop
  endfacet
  facet normal -0.19509 -2.17778e-16 0.980785
    outer loop
      vertex 0 69.7391 2.25
      vertex 1.05238 69.7391 2.45933
      vertex 0 72.2391 2.25
    endloop
  endfacet
  facet normal 0.19509 -2.17778e-16 0.980785
    outer loop
      vertex 0 69.7391 2.25
      vertex 0 72.2391 2.25
      vertex -1.05238 72.2391 2.45933
    endloop
  endfacet
  facet normal 0.19509 -2.17778e-16 0.980785
    outer loop
      vertex -1.05238 69.7391 2.45933
      vertex 0 69.7391 2.25
      vertex -1.05238 72.2391 2.45933
    endloop
  endfacet
  facet normal 0.55557 -1.84623e-16 0.83147
    outer loop
      vertex -1.05238 69.7391 2.45933
      vertex -1.05238 72.2391 2.45933
      vertex -1.94454 72.2391 3.05546
    endloop
  endfacet
  facet normal 0.55557 -1.84623e-16 0.83147
    outer loop
      vertex -1.94454 69.7391 3.05546
      vertex -1.05238 69.7391 2.45933
      vertex -1.94454 72.2391 3.05546
    endloop
  endfacet
  facet normal 0.83147 -1.23361e-16 0.55557
    outer loop
      vertex -1.94454 69.7391 3.05546
      vertex -1.94454 72.2391 3.05546
      vertex -2.54067 72.2391 3.94762
    endloop
  endfacet
  facet normal 0.83147 -1.23361e-16 0.55557
    outer loop
      vertex -2.54067 69.7391 3.94762
      vertex -1.94454 69.7391 3.05546
      vertex -2.54067 72.2391 3.94762
    endloop
  endfacet
  facet normal 0.980785 -4.33187e-17 0.19509
    outer loop
      vertex -2.54067 69.7391 3.94762
      vertex -2.54067 72.2391 3.94762
      vertex -2.75 72.2391 5
    endloop
  endfacet
  facet normal 0.980785 -4.33187e-17 0.19509
    outer loop
      vertex -2.75 69.7391 5
      vertex -2.54067 69.7391 3.94762
      vertex -2.75 72.2391 5
    endloop
  endfacet
  facet normal -0.683256 0.135908 0.717419
    outer loop
      vertex -10.4887 47.2431 10
      vertex -10.4895 47.2391 10
      vertex -5.25 47.2391 14.99
    endloop
  endfacet
  facet normal -0.683256 0.135908 0.717419
    outer loop
      vertex -4.85037 49.2482 14.99
      vertex -10.4887 47.2431 10
      vertex -5.25 47.2391 14.99
    endloop
  endfacet
  facet normal -0.683256 -0.135908 0.717419
    outer loop
      vertex -5.25 47.2391 14.99
      vertex -10.4895 47.2391 10
      vertex -9.69183 43.229 10
    endloop
  endfacet
  facet normal -0.683256 -0.135908 0.717419
    outer loop
      vertex -5.25 47.2391 14.99
      vertex -9.69183 43.229 10
      vertex -9.69103 43.2249 10
    endloop
  endfacet
  facet normal -0.683256 -0.135908 0.717419
    outer loop
      vertex -4.85037 45.23 14.99
      vertex -5.25 47.2391 14.99
      vertex -9.69103 43.2249 10
    endloop
  endfacet
  facet normal -0.579237 -0.387034 0.717419
    outer loop
      vertex -4.85037 45.23 14.99
      vertex -9.69103 43.2249 10
      vertex -7.41947 39.8253 10
    endloop
  endfacet
  facet normal -0.579237 -0.387034 0.717419
    outer loop
      vertex -4.85037 45.23 14.99
      vertex -7.41947 39.8253 10
      vertex -7.4172 39.8219 10
    endloop
  endfacet
  facet normal -0.579237 -0.387034 0.717419
    outer loop
      vertex -3.71231 43.5268 14.99
      vertex -4.85037 45.23 14.99
      vertex -7.4172 39.8219 10
    endloop
  endfacet
  facet normal -0.387034 -0.579237 0.717419
    outer loop
      vertex -3.71231 43.5268 14.99
      vertex -7.4172 39.8219 10
      vertex -4.01756 37.5503 10
    endloop
  endfacet
  facet normal -0.387033 -0.579237 0.717419
    outer loop
      vertex -3.71231 43.5268 14.99
      vertex -4.01756 37.5503 10
      vertex -4.01416 37.5481 10
    endloop
  endfacet
  facet normal -0.387033 -0.579237 0.717419
    outer loop
      vertex -2.00909 42.3887 14.99
      vertex -3.71231 43.5268 14.99
      vertex -4.01416 37.5481 10
    endloop
  endfacet
  facet normal -0.135908 -0.683256 0.717419
    outer loop
      vertex -2.00909 42.3887 14.99
      vertex -4.01416 37.5481 10
      vertex -0.00401818 36.7504 10
    endloop
  endfacet
  facet normal -0.135908 -0.683256 0.717419
    outer loop
      vertex 0 41.9891 14.99
      vertex -2.00909 42.3887 14.99
      vertex -0.00401818 36.7504 10
    endloop
  endfacet
  facet normal -0.135908 -0.683256 0.717419
    outer loop
      vertex 0 36.7496 10
      vertex 0 41.9891 14.99
      vertex -0.00401818 36.7504 10
    endloop
  endfacet
  facet normal 0.135908 -0.683256 0.717419
    outer loop
      vertex 4.01014 37.5473 10
      vertex 0 41.9891 14.99
      vertex 0 36.7496 10
    endloop
  endfacet
  facet normal 0.135908 -0.683256 0.717419
    outer loop
      vertex 2.00909 42.3887 14.99
      vertex 0 41.9891 14.99
      vertex 4.01014 37.5473 10
    endloop
  endfacet
  facet normal 0.135908 -0.683256 0.717419
    outer loop
      vertex 4.01416 37.5481 10
      vertex 2.00909 42.3887 14.99
      vertex 4.01014 37.5473 10
    endloop
  endfacet
  facet normal 0.387034 -0.579237 0.717419
    outer loop
      vertex 7.41379 39.8196 10
      vertex 2.00909 42.3887 14.99
      vertex 4.01416 37.5481 10
    endloop
  endfacet
  facet normal 0.387034 -0.579237 0.717419
    outer loop
      vertex 3.71231 43.5268 14.99
      vertex 2.00909 42.3887 14.99
      vertex 7.41379 39.8196 10
    endloop
  endfacet
  facet normal 0.387034 -0.579237 0.717419
    outer loop
      vertex 7.4172 39.8219 10
      vertex 3.71231 43.5268 14.99
      vertex 7.41379 39.8196 10
    endloop
  endfacet
  facet normal 0.579237 -0.387034 0.717419
    outer loop
      vertex 9.68876 43.2215 10
      vertex 3.71231 43.5268 14.99
      vertex 7.4172 39.8219 10
    endloop
  endfacet
  facet normal 0.579237 -0.387033 0.717419
    outer loop
      vertex 4.85037 45.23 14.99
      vertex 3.71231 43.5268 14.99
      vertex 9.68876 43.2215 10
    endloop
  endfacet
  facet normal 0.579237 -0.387033 0.717419
    outer loop
      vertex 9.69103 43.2249 10
      vertex 4.85037 45.23 14.99
      vertex 9.68876 43.2215 10
    endloop
  endfacet
  facet normal 0.683256 -0.135908 0.717419
    outer loop
      vertex 10.4887 47.2351 10
      vertex 4.85037 45.23 14.99
      vertex 9.69103 43.2249 10
    endloop
  endfacet
  facet normal 0.683256 -0.135908 0.717419
    outer loop
      vertex 5.25 47.2391 14.99
      vertex 4.85037 45.23 14.99
      vertex 10.4887 47.2351 10
    endloop
  endfacet
  facet normal 0.683256 -0.135908 0.717419
    outer loop
      vertex 10.4895 47.2391 10
      vertex 5.25 47.2391 14.99
      vertex 10.4887 47.2351 10
    endloop
  endfacet
  facet normal 0.683256 0.135908 0.717419
    outer loop
      vertex 9.69183 51.2492 10
      vertex 5.25 47.2391 14.99
      vertex 10.4895 47.2391 10
    endloop
  endfacet
  facet normal 0.683256 0.135908 0.717419
    outer loop
      vertex 9.69103 51.2533 10
      vertex 4.85037 49.2482 14.99
      vertex 5.25 47.2391 14.99
    endloop
  endfacet
  facet normal 0.683256 0.135908 0.717419
    outer loop
      vertex 9.69183 51.2492 10
      vertex 9.69103 51.2533 10
      vertex 5.25 47.2391 14.99
    endloop
  endfacet
  facet normal 0.579237 0.387034 0.717419
    outer loop
      vertex 7.41947 54.6529 10
      vertex 4.85037 49.2482 14.99
      vertex 9.69103 51.2533 10
    endloop
  endfacet
  facet normal 0.579237 0.387034 0.717419
    outer loop
      vertex 7.4172 54.6563 10
      vertex 3.71231 50.9514 14.99
      vertex 4.85037 49.2482 14.99
    endloop
  endfacet
  facet normal 0.579237 0.387034 0.717419
    outer loop
      vertex 7.41947 54.6529 10
      vertex 7.4172 54.6563 10
      vertex 4.85037 49.2482 14.99
    endloop
  endfacet
  facet normal 0.387034 0.579237 0.717419
    outer loop
      vertex 4.01756 56.9279 10
      vertex 3.71231 50.9514 14.99
      vertex 7.4172 54.6563 10
    endloop
  endfacet
  facet normal 0.387033 0.579237 0.717419
    outer loop
      vertex 4.01416 56.9301 10
      vertex 2.00909 52.0895 14.99
      vertex 3.71231 50.9514 14.99
    endloop
  endfacet
  facet normal 0.387033 0.579237 0.717419
    outer loop
      vertex 4.01756 56.9279 10
      vertex 4.01416 56.9301 10
      vertex 3.71231 50.9514 14.99
    endloop
  endfacet
  facet normal 0.135908 0.683256 0.717419
    outer loop
      vertex 4.01416 56.9301 10
      vertex 0.00401818 57.7278 10
      vertex 2.00909 52.0895 14.99
    endloop
  endfacet
  facet normal 0.135908 0.683256 0.717419
    outer loop
      vertex 0 57.7286 10
      vertex 0 52.4891 14.99
      vertex 2.00909 52.0895 14.99
    endloop
  endfacet
  facet normal 0.135908 0.683256 0.717419
    outer loop
      vertex 0.00401818 57.7278 10
      vertex 0 57.7286 10
      vertex 2.00909 52.0895 14.99
    endloop
  endfacet
  facet normal -0.135908 0.683256 0.717419
    outer loop
      vertex 0 57.7286 10
      vertex -4.01014 56.9309 10
      vertex 0 52.4891 14.99
    endloop
  endfacet
  facet normal -0.135908 0.683256 0.717419
    outer loop
      vertex -4.01014 56.9309 10
      vertex -4.01416 56.9301 10
      vertex -2.00909 52.0895 14.99
    endloop
  endfacet
  facet normal -0.135908 0.683256 0.717419
    outer loop
      vertex 0 52.4891 14.99
      vertex -4.01014 56.9309 10
      vertex -2.00909 52.0895 14.99
    endloop
  endfacet
  facet normal -0.387034 0.579237 0.717419
    outer loop
      vertex -4.01416 56.9301 10
      vertex -7.41379 54.6586 10
      vertex -2.00909 52.0895 14.99
    endloop
  endfacet
  facet normal -0.387034 0.579237 0.717419
    outer loop
      vertex -7.41379 54.6586 10
      vertex -7.4172 54.6563 10
      vertex -3.71231 50.9514 14.99
    endloop
  endfacet
  facet normal -0.387034 0.579237 0.717419
    outer loop
      vertex -2.00909 52.0895 14.99
      vertex -7.41379 54.6586 10
      vertex -3.71231 50.9514 14.99
    endloop
  endfacet
  facet normal -0.579237 0.387034 0.717419
    outer loop
      vertex -7.4172 54.6563 10
      vertex -9.68876 51.2567 10
      vertex -3.71231 50.9514 14.99
    endloop
  endfacet
  facet normal -0.579237 0.387033 0.717419
    outer loop
      vertex -9.68876 51.2567 10
      vertex -9.69103 51.2533 10
      vertex -4.85037 49.2482 14.99
    endloop
  endfacet
  facet normal -0.579237 0.387033 0.717419
    outer loop
      vertex -3.71231 50.9514 14.99
      vertex -9.68876 51.2567 10
      vertex -4.85037 49.2482 14.99
    endloop
  endfacet
  facet normal -0.683256 0.135908 0.717419
    outer loop
      vertex -9.69103 51.2533 10
      vertex -10.4887 47.2431 10
      vertex -4.85037 49.2482 14.99
    endloop
  endfacet
  facet normal 0 0 -1
    outer loop
      vertex 2.4625 51.5043 4.95
      vertex 4.925 47.2391 4.95
      vertex -2.4625 51.5043 4.95
    endloop
  endfacet
  facet normal 0 0 -1
    outer loop
      vertex -2.4625 51.5043 4.95
      vertex 4.925 47.2391 4.95
      vertex 2.4625 42.9739 4.95
    endloop
  endfacet
  facet normal 0 0 -1
    outer loop
      vertex -2.4625 51.5043 4.95
      vertex 2.4625 42.9739 4.95
      vertex -2.4625 42.9739 4.95
    endloop
  endfacet
  facet normal 0 0 -1
    outer loop
      vertex -2.4625 51.5043 4.95
      vertex -2.4625 42.9739 4.95
      vertex -4.925 47.2391 4.95
    endloop
  endfacet
  facet normal 0 1 2.22045e-16
    outer loop
      vertex -1.94454 69.7391 6.94454
      vertex -1.05238 69.7391 7.54067
      vertex -2.54067 69.7391 6.05238
    endloop
  endfacet
  facet normal 0 1 2.22045e-16
    outer loop
      vertex -2.54067 69.7391 6.05238
      vertex -1.05238 69.7391 7.54067
      vertex 0 69.7391 7.75
    endloop
  endfacet
  facet normal 0 1 2.22045e-16
    outer loop
      vertex -2.54067 69.7391 6.05238
      vertex 0 69.7391 7.75
      vertex 1.05238 69.7391 7.54067
    endloop
  endfacet
  facet normal 0 1 2.22045e-16
    outer loop
      vertex -2.54067 69.7391 6.05238
      vertex 1.05238 69.7391 7.54067
      vertex 1.94454 69.7391 6.94454
    endloop
  endfacet
  facet normal 0 1 2.22045e-16
    outer loop
      vertex -2.54067 69.7391 6.05238
      vertex 1.94454 69.7391 6.94454
      vertex 2.54067 69.7391 6.05238
    endloop
  endfacet
  facet normal 0 1 2.22045e-16
    outer loop
      vertex -2.54067 69.7391 6.05238
      vertex 2.54067 69.7391 6.05238
      vertex 2.75 69.7391 5
    endloop
  endfacet
  facet normal 0 1 2.22045e-16
    outer loop
      vertex -2.54067 69.7391 6.05238
      vertex 2.75 69.7391 5
      vertex 2.54067 69.7391 3.94762
    endloop
  endfacet
  facet normal 0 1 2.22045e-16
    outer loop
      vertex -2.54067 69.7391 6.05238
      vertex 2.54067 69.7391 3.94762
      vertex 1.94454 69.7391 3.05546
    endloop
  endfacet
  facet normal 0 1 2.22045e-16
    outer loop
      vertex -2.54067 69.7391 6.05238
      vertex 1.94454 69.7391 3.05546
      vertex 1.05238 69.7391 2.45933
    endloop
  endfacet
  facet normal 0 1 2.22045e-16
    outer loop
      vertex -2.54067 69.7391 6.05238
      vertex 1.05238 69.7391 2.45933
      vertex 0 69.7391 2.25
    endloop
  endfacet
  facet normal 0 1 2.22045e-16
    outer loop
      vertex -2.54067 69.7391 6.05238
      vertex 0 69.7391 2.25
      vertex -1.05238 69.7391 2.45933
    endloop
  endfacet
  facet normal 0 1 2.22045e-16
    outer loop
      vertex -2.54067 69.7391 6.05238
      vertex -1.05238 69.7391 2.45933
      vertex -1.94454 69.7391 3.05546
    endloop
  endfacet
  facet normal 0 1 2.22045e-16
    outer loop
      vertex -2.54067 69.7391 6.05238
      vertex -1.94454 69.7391 3.05546
      vertex -2.54067 69.7391 3.94762
    endloop
  endfacet
  facet normal 0 1 2.22045e-16
    outer loop
      vertex -2.54067 69.7391 6.05238
      vertex -2.54067 69.7391 3.94762
      vertex -2.75 69.7391 5
    endloop
  endfacet
  facet normal 0 0 1
    outer loop
      vertex -4.85037 49.2482 14.99
      vertex -5.25 47.2391 14.99
      vertex -4.85037 45.23 14.99
    endloop
  endfacet
  facet normal 0 0 1
    outer loop
      vertex -2.00909 42.3887 14.99
      vertex -4.85037 49.2482 14.99
      vertex -3.71231 43.5268 14.99
    endloop
  endfacet
  facet normal 0 0 1
    outer loop
      vertex -3.71231 43.5268 14.99
      vertex -4.85037 49.2482 14.99
      vertex -4.85037 45.23 14.99
    endloop
  endfacet
  facet normal 0 0 1
    outer loop
      vertex 0 41.9891 14.99
      vertex -4.85037 49.2482 14.99
      vertex -2.00909 42.3887 14.99
    endloop
  endfacet
  facet normal 0 0 1
    outer loop
      vertex -2.54067 46.1867 14.99
      vertex -4.85037 49.2482 14.99
      vertex 0 41.9891 14.99
    endloop
  endfacet
  facet normal 0 0 1
    outer loop
      vertex 2.54067 48.2915 14.99
      vertex 2.75 47.2391 14.99
      vertex 5.25 47.2391 14.99
    endloop
  endfacet
  facet normal 0 0 1
    outer loop
      vertex 2.00909 52.0895 14.99
      vertex -4.85037 49.2482 14.99
      vertex 3.71231 50.9514 14.99
    endloop
  endfacet
  facet normal 0 0 1
    outer loop
      vertex 0 52.4891 14.99
      vertex -4.85037 49.2482 14.99
      vertex 2.00909 52.0895 14.99
    endloop
  endfacet
  facet normal 0 0 1
    outer loop
      vertex -2.00909 52.0895 14.99
      vertex -4.85037 49.2482 14.99
      vertex 0 52.4891 14.99
    endloop
  endfacet
  facet normal 0 0 1
    outer loop
      vertex -3.71231 50.9514 14.99
      vertex -4.85037 49.2482 14.99
      vertex -2.00909 52.0895 14.99
    endloop
  endfacet
  facet normal 0 0 1
    outer loop
      vertex -1.94454 45.2945 14.99
      vertex -2.54067 46.1867 14.99
      vertex 0 41.9891 14.99
    endloop
  endfacet
  facet normal 0 0 1
    outer loop
      vertex -2.75 47.2391 14.99
      vertex -2.54067 48.2915 14.99
      vertex -4.85037 49.2482 14.99
    endloop
  endfacet
  facet normal 0 0 1
    outer loop
      vertex 0 44.4891 14.99
      vertex -1.05238 44.6984 14.99
      vertex 2.00909 42.3887 14.99
    endloop
  endfacet
  facet normal 0 0 1
    outer loop
      vertex 2.54067 46.1867 14.99
      vertex 1.94454 45.2945 14.99
      vertex 4.85037 45.23 14.99
    endloop
  endfacet
  facet normal 0 0 1
    outer loop
      vertex 1.94454 45.2945 14.99
      vertex 1.05238 44.6984 14.99
      vertex 3.71231 43.5268 14.99
    endloop
  endfacet
  facet normal 0 0 1
    outer loop
      vertex 3.71231 50.9514 14.99
      vertex -4.85037 49.2482 14.99
      vertex -1.05238 49.7798 14.99
    endloop
  endfacet
  facet normal 0 0 1
    outer loop
      vertex 3.71231 50.9514 14.99
      vertex 0 49.9891 14.99
      vertex 4.85037 49.2482 14.99
    endloop
  endfacet
  facet normal 0 0 1
    outer loop
      vertex 3.71231 50.9514 14.99
      vertex -1.05238 49.7798 14.99
      vertex 0 49.9891 14.99
    endloop
  endfacet
  facet normal 0 0 1
    outer loop
      vertex 0 49.9891 14.99
      vertex 1.05238 49.7798 14.99
      vertex 4.85037 49.2482 14.99
    endloop
  endfacet
  facet normal 0 0 1
    outer loop
      vertex 4.85037 49.2482 14.99
      vertex 1.94454 49.1836 14.99
      vertex 5.25 47.2391 14.99
    endloop
  endfacet
  facet normal 0 0 1
    outer loop
      vertex 1.94454 49.1836 14.99
      vertex 2.54067 48.2915 14.99
      vertex 5.25 47.2391 14.99
    endloop
  endfacet
  facet normal 0 0 1
    outer loop
      vertex 5.25 47.2391 14.99
      vertex 2.75 47.2391 14.99
      vertex 4.85037 45.23 14.99
    endloop
  endfacet
  facet normal 0 0 1
    outer loop
      vertex -1.94454 49.1836 14.99
      vertex -1.05238 49.7798 14.99
      vertex -4.85037 49.2482 14.99
    endloop
  endfacet
  facet normal 0 0 1
    outer loop
      vertex 2.75 47.2391 14.99
      vertex 2.54067 46.1867 14.99
      vertex 4.85037 45.23 14.99
    endloop
  endfacet
  facet normal 0 0 1
    outer loop
      vertex 1.05238 49.7798 14.99
      vertex 1.94454 49.1836 14.99
      vertex 4.85037 49.2482 14.99
    endloop
  endfacet
  facet normal 0 0 1
    outer loop
      vertex 4.85037 45.23 14.99
      vertex 1.94454 45.2945 14.99
      vertex 3.71231 43.5268 14.99
    endloop
  endfacet
  facet normal 0 0 1
    outer loop
      vertex 3.71231 43.5268 14.99
      vertex 1.05238 44.6984 14.99
      vertex 2.00909 42.3887 14.99
    endloop
  endfacet
  facet normal 0 0 1
    outer loop
      vertex 1.05238 44.6984 14.99
      vertex 0 44.4891 14.99
      vertex 2.00909 42.3887 14.99
    endloop
  endfacet
  facet normal 0 0 1
    outer loop
      vertex 2.00909 42.3887 14.99
      vertex -1.05238 44.6984 14.99
      vertex 0 41.9891 14.99
    endloop
  endfacet
  facet normal 0 0 1
    outer loop
      vertex -1.05238 44.6984 14.99
      vertex -1.94454 45.2945 14.99
      vertex 0 41.9891 14.99
    endloop
  endfacet
  facet normal 0 0 1
    outer loop
      vertex -2.54067 46.1867 14.99
      vertex -2.75 47.2391 14.99
      vertex -4.85037 49.2482 14.99
    endloop
  endfacet
  facet normal 0 0 1
    outer loop
      vertex -2.54067 48.2915 14.99
      vertex -1.94454 49.1836 14.99
      vertex -4.85037 49.2482 14.99
    endloop
  endfacet
  facet normal 0.980785 0.19509 0
    outer loop
      vertex -2.54067 46.1867 14.99
      vertex -2.54067 46.1867 5.2
      vertex -2.75 47.2391 5.2
    endloop
  endfacet
  facet normal 0.980785 0.19509 0
    outer loop
      vertex -2.75 47.2391 14.99
      vertex -2.54067 46.1867 14.99
      vertex -2.75 47.2391 5.2
    endloop
  endfacet
  facet normal 0.83147 0.55557 0
    outer loop
      vertex -1.94454 45.2945 14.99
      vertex -1.94454 45.2945 5.2
      vertex -2.54067 46.1867 5.2
    endloop
  endfacet
  facet normal 0.83147 0.55557 0
    outer loop
      vertex -2.54067 46.1867 14.99
      vertex -1.94454 45.2945 14.99
      vertex -2.54067 46.1867 5.2
    endloop
  endfacet
  facet normal 0.55557 0.83147 0
    outer loop
      vertex -1.05238 44.6984 5.2
      vertex -1.94454 45.2945 5.2
      vertex -1.05238 44.6984 14.99
    endloop
  endfacet
  facet normal 0.55557 0.83147 0
    outer loop
      vertex -1.05238 44.6984 14.99
      vertex -1.94454 45.2945 5.2
      vertex -1.94454 45.2945 14.99
    endloop
  endfacet
  facet normal 0.19509 0.980785 0
    outer loop
      vertex 0 44.4891 5.2
      vertex -1.05238 44.6984 5.2
      vertex 0 44.4891 14.99
    endloop
  endfacet
  facet normal 0.19509 0.980785 0
    outer loop
      vertex 0 44.4891 14.99
      vertex -1.05238 44.6984 5.2
      vertex -1.05238 44.6984 14.99
    endloop
  endfacet
  facet normal -0.19509 0.980785 0
    outer loop
      vertex 1.05238 44.6984 5.2
      vertex 0 44.4891 5.2
      vertex 1.05238 44.6984 14.99
    endloop
  endfacet
  facet normal -0.19509 0.980785 0
    outer loop
      vertex 1.05238 44.6984 14.99
      vertex 0 44.4891 5.2
      vertex 0 44.4891 14.99
    endloop
  endfacet
  facet normal -0.55557 0.83147 0
    outer loop
      vertex 1.94454 45.2945 5.2
      vertex 1.05238 44.6984 5.2
      vertex 1.94454 45.2945 14.99
    endloop
  endfacet
  facet normal -0.55557 0.83147 0
    outer loop
      vertex 1.94454 45.2945 14.99
      vertex 1.05238 44.6984 5.2
      vertex 1.05238 44.6984 14.99
    endloop
  endfacet
  facet normal -0.83147 0.55557 0
    outer loop
      vertex 2.54067 46.1867 5.2
      vertex 1.94454 45.2945 5.2
      vertex 2.54067 46.1867 14.99
    endloop
  endfacet
  facet normal -0.83147 0.55557 0
    outer loop
      vertex 2.54067 46.1867 14.99
      vertex 1.94454 45.2945 5.2
      vertex 1.94454 45.2945 14.99
    endloop
  endfacet
  facet normal -0.980785 0.19509 0
    outer loop
      vertex 2.75 47.2391 5.2
      vertex 2.54067 46.1867 5.2
      vertex 2.75 47.2391 14.99
    endloop
  endfacet
  facet normal -0.980785 0.19509 0
    outer loop
      vertex 2.75 47.2391 14.99
      vertex 2.54067 46.1867 5.2
      vertex 2.54067 46.1867 14.99
    endloop
  endfacet
  facet normal -0.980785 -0.19509 0
    outer loop
      vertex 2.75 47.2391 5.2
      vertex 2.75 47.2391 14.99
      vertex 2.54067 48.2915 5.2
    endloop
  endfacet
  facet normal -0.980785 -0.19509 0
    outer loop
      vertex 2.54067 48.2915 5.2
      vertex 2.75 47.2391 14.99
      vertex 2.54067 48.2915 14.99
    endloop
  endfacet
  facet normal -0.83147 -0.55557 0
    outer loop
      vertex 2.54067 48.2915 5.2
      vertex 2.54067 48.2915 14.99
      vertex 1.94454 49.1836 5.2
    endloop
  endfacet
  facet normal -0.83147 -0.55557 0
    outer loop
      vertex 1.94454 49.1836 5.2
      vertex 2.54067 48.2915 14.99
      vertex 1.94454 49.1836 14.99
    endloop
  endfacet
  facet normal -0.55557 -0.83147 0
    outer loop
      vertex 1.05238 49.7798 5.2
      vertex 1.94454 49.1836 5.2
      vertex 1.94454 49.1836 14.99
    endloop
  endfacet
  facet normal -0.55557 -0.83147 0
    outer loop
      vertex 1.05238 49.7798 14.99
      vertex 1.05238 49.7798 5.2
      vertex 1.94454 49.1836 14.99
    endloop
  endfacet
  facet normal -0.19509 -0.980785 0
    outer loop
      vertex 0 49.9891 5.2
      vertex 1.05238 49.7798 5.2
      vertex 1.05238 49.7798 14.99
    endloop
  endfacet
  facet normal -0.19509 -0.980785 0
    outer loop
      vertex 0 49.9891 14.99
      vertex 0 49.9891 5.2
      vertex 1.05238 49.7798 14.99
    endloop
  endfacet
  facet normal 0.19509 -0.980785 0
    outer loop
      vertex -1.05238 49.7798 5.2
      vertex 0 49.9891 5.2
      vertex 0 49.9891 14.99
    endloop
  endfacet
  facet normal 0.19509 -0.980785 0
    outer loop
      vertex -1.05238 49.7798 14.99
      vertex -1.05238 49.7798 5.2
      vertex 0 49.9891 14.99
    endloop
  endfacet
  facet normal 0.55557 -0.83147 0
    outer loop
      vertex -1.94454 49.1836 5.2
      vertex -1.05238 49.7798 5.2
      vertex -1.05238 49.7798 14.99
    endloop
  endfacet
  facet normal 0.55557 -0.83147 0
    outer loop
      vertex -1.94454 49.1836 14.99
      vertex -1.94454 49.1836 5.2
      vertex -1.05238 49.7798 14.99
    endloop
  endfacet
  facet normal 0.83147 -0.55557 0
    outer loop
      vertex -2.54067 48.2915 5.2
      vertex -1.94454 49.1836 5.2
      vertex -1.94454 49.1836 14.99
    endloop
  endfacet
  facet normal 0.83147 -0.55557 0
    outer loop
      vertex -2.54067 48.2915 14.99
      vertex -2.54067 48.2915 5.2
      vertex -1.94454 49.1836 14.99
    endloop
  endfacet
  facet normal 0.980785 -0.19509 0
    outer loop
      vertex -2.75 47.2391 5.2
      vertex -2.54067 48.2915 5.2
      vertex -2.54067 48.2915 14.99
    endloop
  endfacet
  facet normal 0.980785 -0.19509 0
    outer loop
      vertex -2.75 47.2391 14.99
      vertex -2.75 47.2391 5.2
      vertex -2.54067 48.2915 14.99
    endloop
  endfacet
  facet normal 0 0 1
    outer loop
      vertex -2.54067 46.1867 5.2
      vertex -1.94454 45.2945 5.2
      vertex -1.05238 44.6984 5.2
    endloop
  endfacet
  facet normal 0 0 1
    outer loop
      vertex 1.05238 44.6984 5.2
      vertex -2.54067 46.1867 5.2
      vertex 0 44.4891 5.2
    endloop
  endfacet
  facet normal 0 0 1
    outer loop
      vertex 0 44.4891 5.2
      vertex -2.54067 46.1867 5.2
      vertex -1.05238 44.6984 5.2
    endloop
  endfacet
  facet normal 0 0 1
    outer loop
      vertex 1.94454 45.2945 5.2
      vertex -2.54067 46.1867 5.2
      vertex 1.05238 44.6984 5.2
    endloop
  endfacet
  facet normal 0 0 1
    outer loop
      vertex 2.54067 46.1867 5.2
      vertex -2.54067 46.1867 5.2
      vertex 1.94454 45.2945 5.2
    endloop
  endfacet
  facet normal 0 0 1
    outer loop
      vertex 2.75 47.2391 5.2
      vertex -2.54067 46.1867 5.2
      vertex 2.54067 46.1867 5.2
    endloop
  endfacet
  facet normal 0 0 1
    outer loop
      vertex 2.54067 48.2915 5.2
      vertex -2.54067 46.1867 5.2
      vertex 2.75 47.2391 5.2
    endloop
  endfacet
  facet normal 0 0 1
    outer loop
      vertex 1.94454 49.1836 5.2
      vertex -2.54067 46.1867 5.2
      vertex 2.54067 48.2915 5.2
    endloop
  endfacet
  facet normal 0 0 1
    outer loop
      vertex 1.05238 49.7798 5.2
      vertex -2.54067 46.1867 5.2
      vertex 1.94454 49.1836 5.2
    endloop
  endfacet
  facet normal 0 0 1
    outer loop
      vertex 0 49.9891 5.2
      vertex -2.54067 46.1867 5.2
      vertex 1.05238 49.7798 5.2
    endloop
  endfacet
  facet normal 0 0 1
    outer loop
      vertex -1.05238 49.7798 5.2
      vertex -2.54067 46.1867 5.2
      vertex 0 49.9891 5.2
    endloop
  endfacet
  facet normal 0 0 1
    outer loop
      vertex -1.94454 49.1836 5.2
      vertex -2.54067 46.1867 5.2
      vertex -1.05238 49.7798 5.2
    endloop
  endfacet
  facet normal 0 0 1
    outer loop
      vertex -2.54067 48.2915 5.2
      vertex -2.54067 46.1867 5.2
      vertex -1.94454 49.1836 5.2
    endloop
  endfacet
  facet normal 0 0 1
    outer loop
      vertex -2.75 47.2391 5.2
      vertex -2.54067 46.1867 5.2
      vertex -2.54067 48.2915 5.2
    endloop
  endfacet
endsolid OpenSCAD_Model
