solid OpenSCAD_Model
  facet normal -1 0 0
    outer loop
      vertex 0 11.0235 10.0372
      vertex 0 0 15
      vertex 0 27.2 15
    endloop
  endfacet
  facet normal -1 0 0
    outer loop
      vertex 0 0 0
      vertex 0 0 15
      vertex 0 7.44102 7.96885
    endloop
  endfacet
  facet normal -1 0 0
    outer loop
      vertex 0 0 0
      vertex 0 7.44102 7.96885
      vertex 0 7.44102 7.03115
    endloop
  endfacet
  facet normal -1 0 0
    outer loop
      vertex 0 0 0
      vertex 0 7.44102 7.03115
      vertex 0 7.76173 6.15
    endloop
  endfacet
  facet normal -1 0 0
    outer loop
      vertex 0 0 0
      vertex 0 7.76173 6.15
      vertex 0 8.36447 5.43168
    endloop
  endfacet
  facet normal -1 0 0
    outer loop
      vertex 0 0 0
      vertex 0 8.36447 5.43168
      vertex 0 9.17655 4.96283
    endloop
  endfacet
  facet normal -1 0 0
    outer loop
      vertex 0 0 0
      vertex 0 9.17655 4.96283
      vertex 0 27.2 0
    endloop
  endfacet
  facet normal -1 0 0
    outer loop
      vertex 0 9.17655 4.96283
      vertex 0 10.1 4.8
      vertex 0 27.2 0
    endloop
  endfacet
  facet normal -1 0 0
    outer loop
      vertex 0 11.8355 5.43168
      vertex 0 27.2 0
      vertex 0 11.0235 4.96283
    endloop
  endfacet
  facet normal -1 0 0
    outer loop
      vertex 0 12.4383 6.15
      vertex 0 27.2 0
      vertex 0 11.8355 5.43168
    endloop
  endfacet
  facet normal -1 0 0
    outer loop
      vertex 0 12.759 7.96885
      vertex 0 27.2 0
      vertex 0 12.759 7.03115
    endloop
  endfacet
  facet normal -1 0 0
    outer loop
      vertex 0 7.76173 8.85
      vertex 0 0 15
      vertex 0 8.36447 9.56832
    endloop
  endfacet
  facet normal -1 0 0
    outer loop
      vertex 0 12.4383 6.15
      vertex 0 12.759 7.03115
      vertex 0 27.2 0
    endloop
  endfacet
  facet normal -1 0 0
    outer loop
      vertex 0 10.1 10.2
      vertex 0 0 15
      vertex 0 11.0235 10.0372
    endloop
  endfacet
  facet normal -1 0 0
    outer loop
      vertex 0 27.2 0
      vertex 0 12.759 7.96885
      vertex 0 27.2 15
    endloop
  endfacet
  facet normal -1 0 0
    outer loop
      vertex 0 8.36447 9.56832
      vertex 0 0 15
      vertex 0 9.17655 10.0372
    endloop
  endfacet
  facet normal -1 0 0
    outer loop
      vertex 0 12.759 7.96885
      vertex 0 12.4383 8.85
      vertex 0 27.2 15
    endloop
  endfacet
  facet normal -1 0 0
    outer loop
      vertex 0 9.17655 10.0372
      vertex 0 0 15
      vertex 0 10.1 10.2
    endloop
  endfacet
  facet normal -1 0 0
    outer loop
      vertex 0 12.4383 8.85
      vertex 0 11.8355 9.56832
      vertex 0 27.2 15
    endloop
  endfacet
  facet normal -1 0 0
    outer loop
      vertex 0 11.8355 9.56832
      vertex 0 11.0235 10.0372
      vertex 0 27.2 15
    endloop
  endfacet
  facet normal -1 0 0
    outer loop
      vertex 0 7.44102 7.96885
      vertex 0 0 15
      vertex 0 7.76173 8.85
    endloop
  endfacet
  facet normal -1 0 0
    outer loop
      vertex 0 11.0235 4.96283
      vertex 0 27.2 0
      vertex 0 10.1 4.8
    endloop
  endfacet
  facet normal 0 -1 0
    outer loop
      vertex 0 0 15
      vertex 0 0 0
      vertex 5 0 0
    endloop
  endfacet
  facet normal 0 -1 0
    outer loop
      vertex 5 0 15
      vertex 0 0 15
      vertex 5 0 0
    endloop
  endfacet
  facet normal 0 0 -1
    outer loop
      vertex 0 0 0
      vertex 0 27.2 0
      vertex 5 0 0
    endloop
  endfacet
  facet normal 0 0 -1
    outer loop
      vertex 5 20.3 0
      vertex 0 27.2 0
      vertex 64.7 27.2 0
    endloop
  endfacet
  facet normal 0 0 -1
    outer loop
      vertex 5 0 0
      vertex 0 27.2 0
      vertex 5 20.3 0
    endloop
  endfacet
  facet normal 0 0 -1
    outer loop
      vertex 5 20.3 0
      vertex 64.7 27.2 0
      vertex 64.7 20.3 0
    endloop
  endfacet
  facet normal 0 1 0
    outer loop
      vertex 54.1623 27.2 12.818
      vertex 0 27.2 15
      vertex 64.7 27.2 15
    endloop
  endfacet
  facet normal 0 1 0
    outer loop
      vertex 0 27.2 0
      vertex 0 27.2 15
      vertex 12.75 27.2 7.5
    endloop
  endfacet
  facet normal 0 1 0
    outer loop
      vertex 0 27.2 0
      vertex 12.75 27.2 7.5
      vertex 12.8857 27.2 6.73046
    endloop
  endfacet
  facet normal 0 1 0
    outer loop
      vertex 0 27.2 0
      vertex 12.8857 27.2 6.73046
      vertex 13.2764 27.2 6.05373
    endloop
  endfacet
  facet normal 0 1 0
    outer loop
      vertex 0 27.2 0
      vertex 13.2764 27.2 6.05373
      vertex 13.875 27.2 5.55144
    endloop
  endfacet
  facet normal 0 1 0
    outer loop
      vertex 0 27.2 0
      vertex 13.875 27.2 5.55144
      vertex 14.6093 27.2 5.28418
    endloop
  endfacet
  facet normal 0 1 0
    outer loop
      vertex 0 27.2 0
      vertex 14.6093 27.2 5.28418
      vertex 64.7 27.2 0
    endloop
  endfacet
  facet normal 0 1 0
    outer loop
      vertex 14.6093 27.2 5.28418
      vertex 15.3907 27.2 5.28418
      vertex 64.7 27.2 0
    endloop
  endfacet
  facet normal 0 1 0
    outer loop
      vertex 16.7236 27.2 6.05373
      vertex 64.7 27.2 0
      vertex 16.125 27.2 5.55144
    endloop
  endfacet
  facet normal 0 1 0
    outer loop
      vertex 17.1143 27.2 6.73046
      vertex 64.7 27.2 0
      vertex 16.7236 27.2 6.05373
    endloop
  endfacet
  facet normal 0 1 0
    outer loop
      vertex 17.25 27.2 7.5
      vertex 64.7 27.2 0
      vertex 17.1143 27.2 6.73046
    endloop
  endfacet
  facet normal 0 1 0
    outer loop
      vertex 38.2764 27.2 6.05373
      vertex 0 27.2 15
      vertex 37.8857 27.2 6.73046
    endloop
  endfacet
  facet normal 0 1 0
    outer loop
      vertex 14.6093 27.2 9.71582
      vertex 0 27.2 15
      vertex 15.3907 27.2 9.71582
    endloop
  endfacet
  facet normal 0 1 0
    outer loop
      vertex 13.2764 27.2 8.94627
      vertex 0 27.2 15
      vertex 13.875 27.2 9.44856
    endloop
  endfacet
  facet normal 0 1 0
    outer loop
      vertex 17.25 27.2 7.5
      vertex 17.1143 27.2 8.26955
      vertex 64.7 27.2 0
    endloop
  endfacet
  facet normal 0 1 0
    outer loop
      vertex 17.1143 27.2 8.26955
      vertex 16.7236 27.2 8.94627
      vertex 64.7 27.2 0
    endloop
  endfacet
  facet normal 0 1 0
    outer loop
      vertex 13.875 27.2 9.44856
      vertex 0 27.2 15
      vertex 14.6093 27.2 9.71582
    endloop
  endfacet
  facet normal 0 1 0
    outer loop
      vertex 16.7236 27.2 8.94627
      vertex 16.125 27.2 9.44856
      vertex 64.7 27.2 0
    endloop
  endfacet
  facet normal 0 1 0
    outer loop
      vertex 16.125 27.2 9.44856
      vertex 15.3907 27.2 9.71582
      vertex 64.7 27.2 0
    endloop
  endfacet
  facet normal 0 1 0
    outer loop
      vertex 54.1623 27.2 2.18204
      vertex 40.3907 27.2 5.28418
      vertex 52.4 27.2 2.82346
    endloop
  endfacet
  facet normal 0 1 0
    outer loop
      vertex 54.1623 27.2 2.18204
      vertex 39.6093 27.2 5.28418
      vertex 40.3907 27.2 5.28418
    endloop
  endfacet
  facet normal 0 1 0
    outer loop
      vertex 12.8857 27.2 8.26955
      vertex 0 27.2 15
      vertex 13.2764 27.2 8.94627
    endloop
  endfacet
  facet normal 0 1 0
    outer loop
      vertex 12.75 27.2 7.5
      vertex 0 27.2 15
      vertex 12.8857 27.2 8.26955
    endloop
  endfacet
  facet normal 0 1 0
    outer loop
      vertex 37.8857 27.2 6.73046
      vertex 0 27.2 15
      vertex 37.75 27.2 7.5
    endloop
  endfacet
  facet normal 0 1 0
    outer loop
      vertex 57.8 27.2 2.82346
      vertex 64.7 27.2 0
      vertex 56.0377 27.2 2.18204
    endloop
  endfacet
  facet normal 0 1 0
    outer loop
      vertex 15.3907 27.2 9.71582
      vertex 0 27.2 15
      vertex 38.2764 27.2 6.05373
    endloop
  endfacet
  facet normal 0 1 0
    outer loop
      vertex 15.3907 27.2 9.71582
      vertex 38.2764 27.2 6.05373
      vertex 38.875 27.2 5.55144
    endloop
  endfacet
  facet normal 0 1 0
    outer loop
      vertex 41.125 27.2 5.55144
      vertex 52.4 27.2 2.82346
      vertex 40.3907 27.2 5.28418
    endloop
  endfacet
  facet normal 0 1 0
    outer loop
      vertex 15.3907 27.2 9.71582
      vertex 38.875 27.2 5.55144
      vertex 39.6093 27.2 5.28418
    endloop
  endfacet
  facet normal 0 1 0
    outer loop
      vertex 56.0377 27.2 2.18204
      vertex 64.7 27.2 0
      vertex 54.1623 27.2 2.18204
    endloop
  endfacet
  facet normal 0 1 0
    outer loop
      vertex 50.0257 27.2 9.34691
      vertex 42.1143 27.2 6.73046
      vertex 42.25 27.2 7.5
    endloop
  endfacet
  facet normal 0 1 0
    outer loop
      vertex 50.0257 27.2 9.34691
      vertex 42.1143 27.2 8.26955
      vertex 50.9634 27.2 10.9711
    endloop
  endfacet
  facet normal 0 1 0
    outer loop
      vertex 50.9634 27.2 4.02895
      vertex 42.1143 27.2 6.73046
      vertex 50.0257 27.2 5.65309
    endloop
  endfacet
  facet normal 0 1 0
    outer loop
      vertex 38.875 27.2 9.44856
      vertex 0 27.2 15
      vertex 39.6093 27.2 9.71582
    endloop
  endfacet
  facet normal 0 1 0
    outer loop
      vertex 38.2764 27.2 8.94627
      vertex 0 27.2 15
      vertex 38.875 27.2 9.44856
    endloop
  endfacet
  facet normal 0 1 0
    outer loop
      vertex 39.6093 27.2 9.71582
      vertex 0 27.2 15
      vertex 40.3907 27.2 9.71582
    endloop
  endfacet
  facet normal 0 1 0
    outer loop
      vertex 50.9634 27.2 10.9711
      vertex 41.125 27.2 9.44856
      vertex 52.4 27.2 12.1765
    endloop
  endfacet
  facet normal 0 1 0
    outer loop
      vertex 37.8857 27.2 8.26955
      vertex 0 27.2 15
      vertex 38.2764 27.2 8.94627
    endloop
  endfacet
  facet normal 0 1 0
    outer loop
      vertex 37.75 27.2 7.5
      vertex 0 27.2 15
      vertex 37.8857 27.2 8.26955
    endloop
  endfacet
  facet normal 0 1 0
    outer loop
      vertex 50.0257 27.2 5.65309
      vertex 42.1143 27.2 6.73046
      vertex 49.7 27.2 7.5
    endloop
  endfacet
  facet normal 0 1 0
    outer loop
      vertex 52.4 27.2 2.82346
      vertex 41.7236 27.2 6.05373
      vertex 50.9634 27.2 4.02895
    endloop
  endfacet
  facet normal 0 1 0
    outer loop
      vertex 41.7236 27.2 8.94627
      vertex 50.9634 27.2 10.9711
      vertex 42.1143 27.2 8.26955
    endloop
  endfacet
  facet normal 0 1 0
    outer loop
      vertex 52.4 27.2 2.82346
      vertex 41.125 27.2 5.55144
      vertex 41.7236 27.2 6.05373
    endloop
  endfacet
  facet normal 0 1 0
    outer loop
      vertex 15.3907 27.2 9.71582
      vertex 39.6093 27.2 5.28418
      vertex 54.1623 27.2 2.18204
    endloop
  endfacet
  facet normal 0 1 0
    outer loop
      vertex 15.3907 27.2 9.71582
      vertex 54.1623 27.2 2.18204
      vertex 64.7 27.2 0
    endloop
  endfacet
  facet normal 0 1 0
    outer loop
      vertex 42.1143 27.2 6.73046
      vertex 50.9634 27.2 4.02895
      vertex 41.7236 27.2 6.05373
    endloop
  endfacet
  facet normal 0 1 0
    outer loop
      vertex 59.2366 27.2 4.02895
      vertex 64.7 27.2 0
      vertex 57.8 27.2 2.82346
    endloop
  endfacet
  facet normal 0 1 0
    outer loop
      vertex 60.5 27.2 7.5
      vertex 64.7 27.2 15
      vertex 60.1743 27.2 5.65309
    endloop
  endfacet
  facet normal 0 1 0
    outer loop
      vertex 64.7 27.2 0
      vertex 59.2366 27.2 4.02895
      vertex 60.1743 27.2 5.65309
    endloop
  endfacet
  facet normal 0 1 0
    outer loop
      vertex 64.7 27.2 0
      vertex 60.1743 27.2 5.65309
      vertex 64.7 27.2 15
    endloop
  endfacet
  facet normal 0 1 0
    outer loop
      vertex 57.8 27.2 12.1765
      vertex 64.7 27.2 15
      vertex 59.2366 27.2 10.9711
    endloop
  endfacet
  facet normal 0 1 0
    outer loop
      vertex 60.5 27.2 7.5
      vertex 60.1743 27.2 9.34691
      vertex 64.7 27.2 15
    endloop
  endfacet
  facet normal 0 1 0
    outer loop
      vertex 60.1743 27.2 9.34691
      vertex 59.2366 27.2 10.9711
      vertex 64.7 27.2 15
    endloop
  endfacet
  facet normal 0 1 0
    outer loop
      vertex 56.0377 27.2 12.818
      vertex 64.7 27.2 15
      vertex 57.8 27.2 12.1765
    endloop
  endfacet
  facet normal 0 1 0
    outer loop
      vertex 50.0257 27.2 9.34691
      vertex 42.25 27.2 7.5
      vertex 42.1143 27.2 8.26955
    endloop
  endfacet
  facet normal 0 1 0
    outer loop
      vertex 54.1623 27.2 12.818
      vertex 64.7 27.2 15
      vertex 56.0377 27.2 12.818
    endloop
  endfacet
  facet normal 0 1 0
    outer loop
      vertex 40.3907 27.2 9.71582
      vertex 0 27.2 15
      vertex 54.1623 27.2 12.818
    endloop
  endfacet
  facet normal 0 1 0
    outer loop
      vertex 50.9634 27.2 10.9711
      vertex 41.7236 27.2 8.94627
      vertex 41.125 27.2 9.44856
    endloop
  endfacet
  facet normal 0 1 0
    outer loop
      vertex 41.125 27.2 9.44856
      vertex 40.3907 27.2 9.71582
      vertex 52.4 27.2 12.1765
    endloop
  endfacet
  facet normal 0 1 0
    outer loop
      vertex 52.4 27.2 12.1765
      vertex 40.3907 27.2 9.71582
      vertex 54.1623 27.2 12.818
    endloop
  endfacet
  facet normal 0 1 0
    outer loop
      vertex 49.7 27.2 7.5
      vertex 42.1143 27.2 6.73046
      vertex 50.0257 27.2 9.34691
    endloop
  endfacet
  facet normal 0 1 0
    outer loop
      vertex 16.125 27.2 5.55144
      vertex 64.7 27.2 0
      vertex 15.3907 27.2 5.28418
    endloop
  endfacet
  facet normal 0 0 1
    outer loop
      vertex 0 27.2 15
      vertex 0 0 15
      vertex 5 0 15
    endloop
  endfacet
  facet normal 0 0 1
    outer loop
      vertex 64.7 20.3 15
      vertex 0 27.2 15
      vertex 5 20.3 15
    endloop
  endfacet
  facet normal 0 0 1
    outer loop
      vertex 5 20.3 15
      vertex 0 27.2 15
      vertex 5 0 15
    endloop
  endfacet
  facet normal 0 0 1
    outer loop
      vertex 64.7 27.2 15
      vertex 0 27.2 15
      vertex 64.7 20.3 15
    endloop
  endfacet
  facet normal 7.59436e-17 0.939693 -0.34202
    outer loop
      vertex 5 7.76173 8.85
      vertex 5 7.44102 7.96885
      vertex 0 7.76173 8.85
    endloop
  endfacet
  facet normal 7.59436e-17 0.939693 -0.34202
    outer loop
      vertex 0 7.76173 8.85
      vertex 5 7.44102 7.96885
      vertex 0 7.44102 7.96885
    endloop
  endfacet
  facet normal 0 1 0
    outer loop
      vertex 5 7.44102 7.96885
      vertex 5 7.44102 7.03115
      vertex 0 7.44102 7.96885
    endloop
  endfacet
  facet normal 0 1 0
    outer loop
      vertex 0 7.44102 7.96885
      vertex 5 7.44102 7.03115
      vertex 0 7.44102 7.03115
    endloop
  endfacet
  facet normal 1.42728e-16 0.766044 -0.642788
    outer loop
      vertex 5 8.36447 9.56832
      vertex 5 7.76173 8.85
      vertex 0 8.36447 9.56832
    endloop
  endfacet
  facet normal 1.42728e-16 0.766044 -0.642788
    outer loop
      vertex 0 8.36447 9.56832
      vertex 5 7.76173 8.85
      vertex 0 7.76173 8.85
    endloop
  endfacet
  facet normal 1.92296e-16 0.5 -0.866026
    outer loop
      vertex 5 9.17655 10.0372
      vertex 5 8.36447 9.56832
      vertex 0 9.17655 10.0372
    endloop
  endfacet
  facet normal 1.92296e-16 0.5 -0.866026
    outer loop
      vertex 0 9.17655 10.0372
      vertex 5 8.36447 9.56832
      vertex 0 8.36447 9.56832
    endloop
  endfacet
  facet normal 2.18671e-16 0.173648 -0.984808
    outer loop
      vertex 5 10.1 10.2
      vertex 5 9.17655 10.0372
      vertex 0 10.1 10.2
    endloop
  endfacet
  facet normal 2.18671e-16 0.173648 -0.984808
    outer loop
      vertex 0 10.1 10.2
      vertex 5 9.17655 10.0372
      vertex 0 9.17655 10.0372
    endloop
  endfacet
  facet normal 2.18671e-16 -0.173648 -0.984808
    outer loop
      vertex 5 11.0235 10.0372
      vertex 5 10.1 10.2
      vertex 0 11.0235 10.0372
    endloop
  endfacet
  facet normal 2.18671e-16 -0.173648 -0.984808
    outer loop
      vertex 0 11.0235 10.0372
      vertex 5 10.1 10.2
      vertex 0 10.1 10.2
    endloop
  endfacet
  facet normal 1.92296e-16 -0.5 -0.866026
    outer loop
      vertex 5 11.8355 9.56832
      vertex 5 11.0235 10.0372
      vertex 0 11.8355 9.56832
    endloop
  endfacet
  facet normal 1.92296e-16 -0.5 -0.866026
    outer loop
      vertex 0 11.8355 9.56832
      vertex 5 11.0235 10.0372
      vertex 0 11.0235 10.0372
    endloop
  endfacet
  facet normal 1.42728e-16 -0.766044 -0.642788
    outer loop
      vertex 0 12.4383 8.85
      vertex 5 12.4383 8.85
      vertex 5 11.8355 9.56832
    endloop
  endfacet
  facet normal 1.42728e-16 -0.766044 -0.642788
    outer loop
      vertex 0 11.8355 9.56832
      vertex 0 12.4383 8.85
      vertex 5 11.8355 9.56832
    endloop
  endfacet
  facet normal 7.59436e-17 -0.939693 -0.34202
    outer loop
      vertex 0 12.759 7.96885
      vertex 5 12.759 7.96885
      vertex 5 12.4383 8.85
    endloop
  endfacet
  facet normal 7.59436e-17 -0.939693 -0.34202
    outer loop
      vertex 0 12.4383 8.85
      vertex 0 12.759 7.96885
      vertex 5 12.4383 8.85
    endloop
  endfacet
  facet normal 0 -1 0
    outer loop
      vertex 5 12.759 7.03115
      vertex 5 12.759 7.96885
      vertex 0 12.759 7.96885
    endloop
  endfacet
  facet normal 0 -1 0
    outer loop
      vertex 0 12.759 7.03115
      vertex 5 12.759 7.03115
      vertex 0 12.759 7.96885
    endloop
  endfacet
  facet normal -7.59436e-17 -0.939693 0.34202
    outer loop
      vertex 5 12.4383 6.15
      vertex 5 12.759 7.03115
      vertex 0 12.759 7.03115
    endloop
  endfacet
  facet normal -7.59436e-17 -0.939693 0.34202
    outer loop
      vertex 0 12.4383 6.15
      vertex 5 12.4383 6.15
      vertex 0 12.759 7.03115
    endloop
  endfacet
  facet normal -1.42728e-16 -0.766044 0.642788
    outer loop
      vertex 5 11.8355 5.43168
      vertex 5 12.4383 6.15
      vertex 0 12.4383 6.15
    endloop
  endfacet
  facet normal -1.42728e-16 -0.766044 0.642788
    outer loop
      vertex 0 11.8355 5.43168
      vertex 5 11.8355 5.43168
      vertex 0 12.4383 6.15
    endloop
  endfacet
  facet normal -1.92296e-16 -0.5 0.866026
    outer loop
      vertex 5 11.0235 4.96283
      vertex 5 11.8355 5.43168
      vertex 0 11.8355 5.43168
    endloop
  endfacet
  facet normal -1.92296e-16 -0.5 0.866026
    outer loop
      vertex 0 11.0235 4.96283
      vertex 5 11.0235 4.96283
      vertex 0 11.8355 5.43168
    endloop
  endfacet
  facet normal -2.18671e-16 -0.173648 0.984808
    outer loop
      vertex 5 10.1 4.8
      vertex 5 11.0235 4.96283
      vertex 0 11.0235 4.96283
    endloop
  endfacet
  facet normal -2.18671e-16 -0.173648 0.984808
    outer loop
      vertex 0 10.1 4.8
      vertex 5 10.1 4.8
      vertex 0 11.0235 4.96283
    endloop
  endfacet
  facet normal -2.18671e-16 0.173648 0.984808
    outer loop
      vertex 5 9.17655 4.96283
      vertex 5 10.1 4.8
      vertex 0 10.1 4.8
    endloop
  endfacet
  facet normal -2.18671e-16 0.173648 0.984808
    outer loop
      vertex 0 9.17655 4.96283
      vertex 5 9.17655 4.96283
      vertex 0 10.1 4.8
    endloop
  endfacet
  facet normal -1.92296e-16 0.5 0.866026
    outer loop
      vertex 5 8.36447 5.43168
      vertex 5 9.17655 4.96283
      vertex 0 9.17655 4.96283
    endloop
  endfacet
  facet normal -1.92296e-16 0.5 0.866026
    outer loop
      vertex 0 8.36447 5.43168
      vertex 5 8.36447 5.43168
      vertex 0 9.17655 4.96283
    endloop
  endfacet
  facet normal -1.42728e-16 0.766044 0.642788
    outer loop
      vertex 5 8.36447 5.43168
      vertex 0 8.36447 5.43168
      vertex 5 7.76173 6.15
    endloop
  endfacet
  facet normal -1.42728e-16 0.766044 0.642788
    outer loop
      vertex 5 7.76173 6.15
      vertex 0 8.36447 5.43168
      vertex 0 7.76173 6.15
    endloop
  endfacet
  facet normal -7.59436e-17 0.939693 0.34202
    outer loop
      vertex 5 7.76173 6.15
      vertex 0 7.76173 6.15
      vertex 5 7.44102 7.03115
    endloop
  endfacet
  facet normal -7.59436e-17 0.939693 0.34202
    outer loop
      vertex 5 7.44102 7.03115
      vertex 0 7.76173 6.15
      vertex 0 7.44102 7.03115
    endloop
  endfacet
  facet normal 1 0 0
    outer loop
      vertex 5 9.17655 10.0372
      vertex 5 20.3 15
      vertex 5 0 15
    endloop
  endfacet
  facet normal 1 0 0
    outer loop
      vertex 5 0 0
      vertex 5 7.44102 7.96885
      vertex 5 0 15
    endloop
  endfacet
  facet normal 1 0 0
    outer loop
      vertex 5 7.44102 7.96885
      vertex 5 7.76173 8.85
      vertex 5 0 15
    endloop
  endfacet
  facet normal 1 0 0
    outer loop
      vertex 5 8.36447 9.56832
      vertex 5 9.17655 10.0372
      vertex 5 0 15
    endloop
  endfacet
  facet normal 1 0 0
    outer loop
      vertex 5 12.4383 8.85
      vertex 5 12.759 7.96885
      vertex 5 20.3 0
    endloop
  endfacet
  facet normal 1 0 0
    outer loop
      vertex 5 11.0235 10.0372
      vertex 5 20.3 15
      vertex 5 10.1 10.2
    endloop
  endfacet
  facet normal 1 0 0
    outer loop
      vertex 5 11.8355 9.56832
      vertex 5 20.3 15
      vertex 5 11.0235 10.0372
    endloop
  endfacet
  facet normal 1 0 0
    outer loop
      vertex 5 20.3 0
      vertex 5 20.3 15
      vertex 5 11.8355 9.56832
    endloop
  endfacet
  facet normal 1 0 0
    outer loop
      vertex 5 12.759 7.96885
      vertex 5 12.759 7.03115
      vertex 5 20.3 0
    endloop
  endfacet
  facet normal 1 0 0
    outer loop
      vertex 5 20.3 0
      vertex 5 11.8355 9.56832
      vertex 5 12.4383 8.85
    endloop
  endfacet
  facet normal 1 0 0
    outer loop
      vertex 5 12.759 7.03115
      vertex 5 12.4383 6.15
      vertex 5 20.3 0
    endloop
  endfacet
  facet normal 1 0 0
    outer loop
      vertex 5 12.4383 6.15
      vertex 5 11.8355 5.43168
      vertex 5 20.3 0
    endloop
  endfacet
  facet normal 1 0 0
    outer loop
      vertex 5 9.17655 10.0372
      vertex 5 10.1 10.2
      vertex 5 20.3 15
    endloop
  endfacet
  facet normal 1 0 0
    outer loop
      vertex 5 0 0
      vertex 5 20.3 0
      vertex 5 11.0235 4.96283
    endloop
  endfacet
  facet normal 1 0 0
    outer loop
      vertex 5 0 0
      vertex 5 11.0235 4.96283
      vertex 5 10.1 4.8
    endloop
  endfacet
  facet normal 1 0 0
    outer loop
      vertex 5 0 0
      vertex 5 10.1 4.8
      vertex 5 9.17655 4.96283
    endloop
  endfacet
  facet normal 1 0 0
    outer loop
      vertex 5 0 0
      vertex 5 9.17655 4.96283
      vertex 5 8.36447 5.43168
    endloop
  endfacet
  facet normal 1 0 0
    outer loop
      vertex 5 0 0
      vertex 5 8.36447 5.43168
      vertex 5 7.76173 6.15
    endloop
  endfacet
  facet normal 1 0 0
    outer loop
      vertex 5 0 0
      vertex 5 7.44102 7.03115
      vertex 5 7.44102 7.96885
    endloop
  endfacet
  facet normal 1 0 0
    outer loop
      vertex 5 0 0
      vertex 5 7.76173 6.15
      vertex 5 7.44102 7.03115
    endloop
  endfacet
  facet normal 1 0 0
    outer loop
      vertex 5 11.8355 5.43168
      vertex 5 11.0235 4.96283
      vertex 5 20.3 0
    endloop
  endfacet
  facet normal 1 0 0
    outer loop
      vertex 5 7.76173 8.85
      vertex 5 8.36447 9.56832
      vertex 5 0 15
    endloop
  endfacet
  facet normal 0 -1 0
    outer loop
      vertex 39.3488 20.3 11.193
      vertex 64.7 20.3 15
      vertex 5 20.3 15
    endloop
  endfacet
  facet normal 0 -1 0
    outer loop
      vertex 5 20.3 0
      vertex 11.25 20.3 7.5
      vertex 5 20.3 15
    endloop
  endfacet
  facet normal 0 -1 0
    outer loop
      vertex 11.25 20.3 7.5
      vertex 11.4762 20.3 8.78258
      vertex 5 20.3 15
    endloop
  endfacet
  facet normal 0 -1 0
    outer loop
      vertex 11.4762 20.3 8.78258
      vertex 12.1273 20.3 9.91045
      vertex 5 20.3 15
    endloop
  endfacet
  facet normal 0 -1 0
    outer loop
      vertex 36.4762 20.3 6.21742
      vertex 36.25 20.3 7.5
      vertex 5 20.3 15
    endloop
  endfacet
  facet normal 0 -1 0
    outer loop
      vertex 12.1273 20.3 9.91045
      vertex 13.125 20.3 10.7476
      vertex 5 20.3 15
    endloop
  endfacet
  facet normal 0 -1 0
    outer loop
      vertex 13.125 20.3 10.7476
      vertex 14.3488 20.3 11.193
      vertex 5 20.3 15
    endloop
  endfacet
  facet normal 0 -1 0
    outer loop
      vertex 14.3488 20.3 11.193
      vertex 15.6512 20.3 11.193
      vertex 5 20.3 15
    endloop
  endfacet
  facet normal 0 -1 0
    outer loop
      vertex 38.125 20.3 4.2524
      vertex 37.1273 20.3 5.08955
      vertex 18.75 20.3 7.5
    endloop
  endfacet
  facet normal 0 -1 0
    outer loop
      vertex 39.3488 20.3 3.80697
      vertex 38.125 20.3 4.2524
      vertex 18.75 20.3 7.5
    endloop
  endfacet
  facet normal 0 -1 0
    outer loop
      vertex 17.8727 20.3 5.08955
      vertex 64.7 20.3 0
      vertex 18.5238 20.3 6.21742
    endloop
  endfacet
  facet normal 0 -1 0
    outer loop
      vertex 16.875 20.3 4.2524
      vertex 64.7 20.3 0
      vertex 17.8727 20.3 5.08955
    endloop
  endfacet
  facet normal 0 -1 0
    outer loop
      vertex 14.3488 20.3 3.80697
      vertex 13.125 20.3 4.2524
      vertex 5 20.3 0
    endloop
  endfacet
  facet normal 0 -1 0
    outer loop
      vertex 15.6512 20.3 3.80697
      vertex 64.7 20.3 0
      vertex 16.875 20.3 4.2524
    endloop
  endfacet
  facet normal 0 -1 0
    outer loop
      vertex 5 20.3 0
      vertex 64.7 20.3 0
      vertex 15.6512 20.3 3.80697
    endloop
  endfacet
  facet normal 0 -1 0
    outer loop
      vertex 41.875 20.3 4.2524
      vertex 40.6512 20.3 3.80697
      vertex 64.7 20.3 0
    endloop
  endfacet
  facet normal 0 -1 0
    outer loop
      vertex 54.6311 20.3 10.159
      vertex 55.5688 20.3 10.159
      vertex 64.7 20.3 15
    endloop
  endfacet
  facet normal 0 -1 0
    outer loop
      vertex 5 20.3 0
      vertex 13.125 20.3 4.2524
      vertex 12.1273 20.3 5.08955
    endloop
  endfacet
  facet normal 0 -1 0
    outer loop
      vertex 5 20.3 0
      vertex 11.4762 20.3 6.21742
      vertex 11.25 20.3 7.5
    endloop
  endfacet
  facet normal 0 -1 0
    outer loop
      vertex 5 20.3 0
      vertex 12.1273 20.3 5.08955
      vertex 11.4762 20.3 6.21742
    endloop
  endfacet
  facet normal 0 -1 0
    outer loop
      vertex 36.25 20.3 7.5
      vertex 36.4762 20.3 8.78258
      vertex 5 20.3 15
    endloop
  endfacet
  facet normal 0 -1 0
    outer loop
      vertex 36.4762 20.3 8.78258
      vertex 37.1273 20.3 9.91045
      vertex 5 20.3 15
    endloop
  endfacet
  facet normal 0 -1 0
    outer loop
      vertex 37.1273 20.3 9.91045
      vertex 38.125 20.3 10.7476
      vertex 5 20.3 15
    endloop
  endfacet
  facet normal 0 -1 0
    outer loop
      vertex 41.875 20.3 10.7476
      vertex 42.8727 20.3 9.91045
      vertex 64.7 20.3 15
    endloop
  endfacet
  facet normal 0 -1 0
    outer loop
      vertex 38.125 20.3 10.7476
      vertex 39.3488 20.3 11.193
      vertex 5 20.3 15
    endloop
  endfacet
  facet normal 0 -1 0
    outer loop
      vertex 40.6512 20.3 11.193
      vertex 64.7 20.3 15
      vertex 39.3488 20.3 11.193
    endloop
  endfacet
  facet normal 0 -1 0
    outer loop
      vertex 42.8727 20.3 9.91045
      vertex 43.5238 20.3 8.78258
      vertex 64.7 20.3 15
    endloop
  endfacet
  facet normal 0 -1 0
    outer loop
      vertex 43.5238 20.3 6.21742
      vertex 42.8727 20.3 5.08955
      vertex 64.7 20.3 0
    endloop
  endfacet
  facet normal 0 -1 0
    outer loop
      vertex 53.75 20.3 9.83827
      vertex 64.7 20.3 15
      vertex 43.5238 20.3 8.78258
    endloop
  endfacet
  facet normal 0 -1 0
    outer loop
      vertex 64.7 20.3 0
      vertex 43.5238 20.3 8.78258
      vertex 43.75 20.3 7.5
    endloop
  endfacet
  facet normal 0 -1 0
    outer loop
      vertex 64.7 20.3 0
      vertex 43.75 20.3 7.5
      vertex 43.5238 20.3 6.21742
    endloop
  endfacet
  facet normal 0 -1 0
    outer loop
      vertex 40.6512 20.3 11.193
      vertex 41.875 20.3 10.7476
      vertex 64.7 20.3 15
    endloop
  endfacet
  facet normal 0 -1 0
    outer loop
      vertex 42.8727 20.3 5.08955
      vertex 41.875 20.3 4.2524
      vertex 64.7 20.3 0
    endloop
  endfacet
  facet normal 0 -1 0
    outer loop
      vertex 36.4762 20.3 6.21742
      vertex 5 20.3 15
      vertex 15.6512 20.3 11.193
    endloop
  endfacet
  facet normal 0 -1 0
    outer loop
      vertex 37.1273 20.3 5.08955
      vertex 17.8727 20.3 9.91045
      vertex 18.5238 20.3 8.78258
    endloop
  endfacet
  facet normal 0 -1 0
    outer loop
      vertex 36.4762 20.3 6.21742
      vertex 15.6512 20.3 11.193
      vertex 16.875 20.3 10.7476
    endloop
  endfacet
  facet normal 0 -1 0
    outer loop
      vertex 39.3488 20.3 3.80697
      vertex 64.7 20.3 0
      vertex 40.6512 20.3 3.80697
    endloop
  endfacet
  facet normal 0 -1 0
    outer loop
      vertex 15.6512 20.3 3.80697
      vertex 14.3488 20.3 3.80697
      vertex 5 20.3 0
    endloop
  endfacet
  facet normal 0 -1 0
    outer loop
      vertex 18.75 20.3 7.5
      vertex 18.5238 20.3 6.21742
      vertex 39.3488 20.3 3.80697
    endloop
  endfacet
  facet normal 0 -1 0
    outer loop
      vertex 39.3488 20.3 3.80697
      vertex 18.5238 20.3 6.21742
      vertex 64.7 20.3 0
    endloop
  endfacet
  facet normal 0 -1 0
    outer loop
      vertex 52.5628 20.3 6.57655
      vertex 52.4 20.3 7.5
      vertex 43.5238 20.3 8.78258
    endloop
  endfacet
  facet normal 0 -1 0
    outer loop
      vertex 52.4 20.3 7.5
      vertex 52.5628 20.3 8.42345
      vertex 43.5238 20.3 8.78258
    endloop
  endfacet
  facet normal 0 -1 0
    outer loop
      vertex 57.6372 20.3 8.42345
      vertex 57.8 20.3 7.5
      vertex 64.7 20.3 0
    endloop
  endfacet
  facet normal 0 -1 0
    outer loop
      vertex 52.5628 20.3 8.42345
      vertex 53.0317 20.3 9.23553
      vertex 43.5238 20.3 8.78258
    endloop
  endfacet
  facet normal 0 -1 0
    outer loop
      vertex 53.0317 20.3 9.23553
      vertex 53.75 20.3 9.83827
      vertex 43.5238 20.3 8.78258
    endloop
  endfacet
  facet normal 0 -1 0
    outer loop
      vertex 54.6311 20.3 10.159
      vertex 64.7 20.3 15
      vertex 53.75 20.3 9.83827
    endloop
  endfacet
  facet normal 0 -1 0
    outer loop
      vertex 57.1683 20.3 9.23553
      vertex 64.7 20.3 15
      vertex 56.45 20.3 9.83827
    endloop
  endfacet
  facet normal 0 -1 0
    outer loop
      vertex 64.7 20.3 0
      vertex 64.7 20.3 15
      vertex 57.1683 20.3 9.23553
    endloop
  endfacet
  facet normal 0 -1 0
    outer loop
      vertex 56.45 20.3 5.16173
      vertex 55.5688 20.3 4.84102
      vertex 64.7 20.3 0
    endloop
  endfacet
  facet normal 0 -1 0
    outer loop
      vertex 64.7 20.3 0
      vertex 57.1683 20.3 9.23553
      vertex 57.6372 20.3 8.42345
    endloop
  endfacet
  facet normal 0 -1 0
    outer loop
      vertex 64.7 20.3 0
      vertex 57.8 20.3 7.5
      vertex 57.6372 20.3 6.57655
    endloop
  endfacet
  facet normal 0 -1 0
    outer loop
      vertex 64.7 20.3 0
      vertex 57.6372 20.3 6.57655
      vertex 57.1683 20.3 5.76447
    endloop
  endfacet
  facet normal 0 -1 0
    outer loop
      vertex 53.75 20.3 5.16173
      vertex 53.0317 20.3 5.76447
      vertex 43.5238 20.3 8.78258
    endloop
  endfacet
  facet normal 0 -1 0
    outer loop
      vertex 64.7 20.3 0
      vertex 57.1683 20.3 5.76447
      vertex 56.45 20.3 5.16173
    endloop
  endfacet
  facet normal 0 -1 0
    outer loop
      vertex 64.7 20.3 0
      vertex 54.6311 20.3 4.84102
      vertex 43.5238 20.3 8.78258
    endloop
  endfacet
  facet normal 0 -1 0
    outer loop
      vertex 64.7 20.3 0
      vertex 55.5688 20.3 4.84102
      vertex 54.6311 20.3 4.84102
    endloop
  endfacet
  facet normal 0 -1 0
    outer loop
      vertex 54.6311 20.3 4.84102
      vertex 53.75 20.3 5.16173
      vertex 43.5238 20.3 8.78258
    endloop
  endfacet
  facet normal 0 -1 0
    outer loop
      vertex 53.0317 20.3 5.76447
      vertex 52.5628 20.3 6.57655
      vertex 43.5238 20.3 8.78258
    endloop
  endfacet
  facet normal 0 -1 0
    outer loop
      vertex 16.875 20.3 10.7476
      vertex 17.8727 20.3 9.91045
      vertex 36.4762 20.3 6.21742
    endloop
  endfacet
  facet normal 0 -1 0
    outer loop
      vertex 55.5688 20.3 10.159
      vertex 56.45 20.3 9.83827
      vertex 64.7 20.3 15
    endloop
  endfacet
  facet normal 0 -1 0
    outer loop
      vertex 37.1273 20.3 5.08955
      vertex 36.4762 20.3 6.21742
      vertex 17.8727 20.3 9.91045
    endloop
  endfacet
  facet normal 0 -1 0
    outer loop
      vertex 18.5238 20.3 8.78258
      vertex 18.75 20.3 7.5
      vertex 37.1273 20.3 5.08955
    endloop
  endfacet
  facet normal 1 0 0
    outer loop
      vertex 64.7 20.3 15
      vertex 64.7 20.3 0
      vertex 64.7 27.2 0
    endloop
  endfacet
  facet normal 1 0 0
    outer loop
      vertex 64.7 27.2 15
      vertex 64.7 20.3 15
      vertex 64.7 27.2 0
    endloop
  endfacet
  facet normal 0.984808 -3.85578e-17 0.173649
    outer loop
      vertex 12.8857 24.2 6.73046
      vertex 12.8857 27.2 6.73046
      vertex 12.75 27.2 7.5
    endloop
  endfacet
  facet normal 0.984808 -3.85578e-17 0.173649
    outer loop
      vertex 12.75 24.2 7.5
      vertex 12.8857 24.2 6.73046
      vertex 12.75 27.2 7.5
    endloop
  endfacet
  facet normal 0.984808 3.85578e-17 -0.173649
    outer loop
      vertex 12.75 27.2 7.5
      vertex 12.8857 27.2 8.26955
      vertex 12.8857 24.2 8.26955
    endloop
  endfacet
  facet normal 0.984808 3.85578e-17 -0.173649
    outer loop
      vertex 12.75 24.2 7.5
      vertex 12.75 27.2 7.5
      vertex 12.8857 24.2 8.26955
    endloop
  endfacet
  facet normal 0.866026 1.11022e-16 -0.5
    outer loop
      vertex 12.8857 27.2 8.26955
      vertex 13.2764 27.2 8.94627
      vertex 13.2764 24.2 8.94627
    endloop
  endfacet
  facet normal 0.866026 1.11022e-16 -0.5
    outer loop
      vertex 12.8857 24.2 8.26955
      vertex 12.8857 27.2 8.26955
      vertex 13.2764 24.2 8.94627
    endloop
  endfacet
  facet normal 0.642788 1.70096e-16 -0.766044
    outer loop
      vertex 13.875 27.2 9.44856
      vertex 13.875 24.2 9.44856
      vertex 13.2764 27.2 8.94627
    endloop
  endfacet
  facet normal 0.642788 1.70096e-16 -0.766044
    outer loop
      vertex 13.2764 27.2 8.94627
      vertex 13.875 24.2 9.44856
      vertex 13.2764 24.2 8.94627
    endloop
  endfacet
  facet normal 0.34202 2.08654e-16 -0.939693
    outer loop
      vertex 14.6093 27.2 9.71582
      vertex 14.6093 24.2 9.71582
      vertex 13.875 27.2 9.44856
    endloop
  endfacet
  facet normal 0.34202 2.08654e-16 -0.939693
    outer loop
      vertex 13.875 27.2 9.44856
      vertex 14.6093 24.2 9.71582
      vertex 13.875 24.2 9.44856
    endloop
  endfacet
  facet normal 0 2.22045e-16 -1
    outer loop
      vertex 15.3907 27.2 9.71582
      vertex 15.3907 24.2 9.71582
      vertex 14.6093 27.2 9.71582
    endloop
  endfacet
  facet normal 0 2.22045e-16 -1
    outer loop
      vertex 14.6093 27.2 9.71582
      vertex 15.3907 24.2 9.71582
      vertex 14.6093 24.2 9.71582
    endloop
  endfacet
  facet normal -0.34202 2.08654e-16 -0.939693
    outer loop
      vertex 16.125 27.2 9.44856
      vertex 16.125 24.2 9.44856
      vertex 15.3907 27.2 9.71582
    endloop
  endfacet
  facet normal -0.34202 2.08654e-16 -0.939693
    outer loop
      vertex 15.3907 27.2 9.71582
      vertex 16.125 24.2 9.44856
      vertex 15.3907 24.2 9.71582
    endloop
  endfacet
  facet normal -0.642788 1.70096e-16 -0.766044
    outer loop
      vertex 16.7236 27.2 8.94627
      vertex 16.7236 24.2 8.94627
      vertex 16.125 27.2 9.44856
    endloop
  endfacet
  facet normal -0.642788 1.70096e-16 -0.766044
    outer loop
      vertex 16.125 27.2 9.44856
      vertex 16.7236 24.2 8.94627
      vertex 16.125 24.2 9.44856
    endloop
  endfacet
  facet normal -0.866026 1.11022e-16 -0.5
    outer loop
      vertex 17.1143 27.2 8.26955
      vertex 17.1143 24.2 8.26955
      vertex 16.7236 27.2 8.94627
    endloop
  endfacet
  facet normal -0.866026 1.11022e-16 -0.5
    outer loop
      vertex 16.7236 27.2 8.94627
      vertex 17.1143 24.2 8.26955
      vertex 16.7236 24.2 8.94627
    endloop
  endfacet
  facet normal -0.984808 3.85578e-17 -0.173649
    outer loop
      vertex 17.25 27.2 7.5
      vertex 17.25 24.2 7.5
      vertex 17.1143 27.2 8.26955
    endloop
  endfacet
  facet normal -0.984808 3.85578e-17 -0.173649
    outer loop
      vertex 17.1143 27.2 8.26955
      vertex 17.25 24.2 7.5
      vertex 17.1143 24.2 8.26955
    endloop
  endfacet
  facet normal -0.984808 -3.85578e-17 0.173649
    outer loop
      vertex 17.25 27.2 7.5
      vertex 17.1143 27.2 6.73046
      vertex 17.25 24.2 7.5
    endloop
  endfacet
  facet normal -0.984808 -3.85578e-17 0.173649
    outer loop
      vertex 17.25 24.2 7.5
      vertex 17.1143 27.2 6.73046
      vertex 17.1143 24.2 6.73046
    endloop
  endfacet
  facet normal -0.866026 -1.11022e-16 0.5
    outer loop
      vertex 17.1143 27.2 6.73046
      vertex 16.7236 27.2 6.05373
      vertex 17.1143 24.2 6.73046
    endloop
  endfacet
  facet normal -0.866026 -1.11022e-16 0.5
    outer loop
      vertex 17.1143 24.2 6.73046
      vertex 16.7236 27.2 6.05373
      vertex 16.7236 24.2 6.05373
    endloop
  endfacet
  facet normal -0.642788 -1.70096e-16 0.766044
    outer loop
      vertex 16.7236 24.2 6.05373
      vertex 16.7236 27.2 6.05373
      vertex 16.125 27.2 5.55144
    endloop
  endfacet
  facet normal -0.642788 -1.70096e-16 0.766044
    outer loop
      vertex 16.125 24.2 5.55144
      vertex 16.7236 24.2 6.05373
      vertex 16.125 27.2 5.55144
    endloop
  endfacet
  facet normal -0.34202 -2.08654e-16 0.939693
    outer loop
      vertex 16.125 24.2 5.55144
      vertex 16.125 27.2 5.55144
      vertex 15.3907 27.2 5.28418
    endloop
  endfacet
  facet normal -0.34202 -2.08654e-16 0.939693
    outer loop
      vertex 15.3907 24.2 5.28418
      vertex 16.125 24.2 5.55144
      vertex 15.3907 27.2 5.28418
    endloop
  endfacet
  facet normal 0 -2.22045e-16 1
    outer loop
      vertex 15.3907 24.2 5.28418
      vertex 15.3907 27.2 5.28418
      vertex 14.6093 27.2 5.28418
    endloop
  endfacet
  facet normal 0 -2.22045e-16 1
    outer loop
      vertex 14.6093 24.2 5.28418
      vertex 15.3907 24.2 5.28418
      vertex 14.6093 27.2 5.28418
    endloop
  endfacet
  facet normal 0.34202 -2.08654e-16 0.939693
    outer loop
      vertex 14.6093 24.2 5.28418
      vertex 14.6093 27.2 5.28418
      vertex 13.875 27.2 5.55144
    endloop
  endfacet
  facet normal 0.34202 -2.08654e-16 0.939693
    outer loop
      vertex 13.875 24.2 5.55144
      vertex 14.6093 24.2 5.28418
      vertex 13.875 27.2 5.55144
    endloop
  endfacet
  facet normal 0.642788 -1.70096e-16 0.766044
    outer loop
      vertex 13.875 24.2 5.55144
      vertex 13.875 27.2 5.55144
      vertex 13.2764 27.2 6.05373
    endloop
  endfacet
  facet normal 0.642788 -1.70096e-16 0.766044
    outer loop
      vertex 13.2764 24.2 6.05373
      vertex 13.875 24.2 5.55144
      vertex 13.2764 27.2 6.05373
    endloop
  endfacet
  facet normal 0.866026 -1.11022e-16 0.5
    outer loop
      vertex 13.2764 24.2 6.05373
      vertex 13.2764 27.2 6.05373
      vertex 12.8857 27.2 6.73046
    endloop
  endfacet
  facet normal 0.866026 -1.11022e-16 0.5
    outer loop
      vertex 12.8857 24.2 6.73046
      vertex 13.2764 24.2 6.05373
      vertex 12.8857 27.2 6.73046
    endloop
  endfacet
  facet normal 0.984808 -3.85578e-17 0.173649
    outer loop
      vertex 37.8857 24.2 6.73046
      vertex 37.8857 27.2 6.73046
      vertex 37.75 27.2 7.5
    endloop
  endfacet
  facet normal 0.984808 -3.85578e-17 0.173649
    outer loop
      vertex 37.75 24.2 7.5
      vertex 37.8857 24.2 6.73046
      vertex 37.75 27.2 7.5
    endloop
  endfacet
  facet normal 0.984808 3.85578e-17 -0.173649
    outer loop
      vertex 37.75 27.2 7.5
      vertex 37.8857 27.2 8.26955
      vertex 37.8857 24.2 8.26955
    endloop
  endfacet
  facet normal 0.984808 3.85578e-17 -0.173649
    outer loop
      vertex 37.75 24.2 7.5
      vertex 37.75 27.2 7.5
      vertex 37.8857 24.2 8.26955
    endloop
  endfacet
  facet normal 0.866026 1.11022e-16 -0.5
    outer loop
      vertex 37.8857 27.2 8.26955
      vertex 38.2764 27.2 8.94627
      vertex 38.2764 24.2 8.94627
    endloop
  endfacet
  facet normal 0.866026 1.11022e-16 -0.5
    outer loop
      vertex 37.8857 24.2 8.26955
      vertex 37.8857 27.2 8.26955
      vertex 38.2764 24.2 8.94627
    endloop
  endfacet
  facet normal 0.642788 1.70096e-16 -0.766044
    outer loop
      vertex 38.875 27.2 9.44856
      vertex 38.875 24.2 9.44856
      vertex 38.2764 27.2 8.94627
    endloop
  endfacet
  facet normal 0.642788 1.70096e-16 -0.766044
    outer loop
      vertex 38.2764 27.2 8.94627
      vertex 38.875 24.2 9.44856
      vertex 38.2764 24.2 8.94627
    endloop
  endfacet
  facet normal 0.34202 2.08654e-16 -0.939693
    outer loop
      vertex 39.6093 27.2 9.71582
      vertex 39.6093 24.2 9.71582
      vertex 38.875 27.2 9.44856
    endloop
  endfacet
  facet normal 0.34202 2.08654e-16 -0.939693
    outer loop
      vertex 38.875 27.2 9.44856
      vertex 39.6093 24.2 9.71582
      vertex 38.875 24.2 9.44856
    endloop
  endfacet
  facet normal 0 2.22045e-16 -1
    outer loop
      vertex 40.3907 27.2 9.71582
      vertex 40.3907 24.2 9.71582
      vertex 39.6093 27.2 9.71582
    endloop
  endfacet
  facet normal 0 2.22045e-16 -1
    outer loop
      vertex 39.6093 27.2 9.71582
      vertex 40.3907 24.2 9.71582
      vertex 39.6093 24.2 9.71582
    endloop
  endfacet
  facet normal -0.34202 2.08654e-16 -0.939693
    outer loop
      vertex 41.125 27.2 9.44856
      vertex 41.125 24.2 9.44856
      vertex 40.3907 27.2 9.71582
    endloop
  endfacet
  facet normal -0.34202 2.08654e-16 -0.939693
    outer loop
      vertex 40.3907 27.2 9.71582
      vertex 41.125 24.2 9.44856
      vertex 40.3907 24.2 9.71582
    endloop
  endfacet
  facet normal -0.642788 1.70096e-16 -0.766044
    outer loop
      vertex 41.7236 27.2 8.94627
      vertex 41.7236 24.2 8.94627
      vertex 41.125 27.2 9.44856
    endloop
  endfacet
  facet normal -0.642788 1.70096e-16 -0.766044
    outer loop
      vertex 41.125 27.2 9.44856
      vertex 41.7236 24.2 8.94627
      vertex 41.125 24.2 9.44856
    endloop
  endfacet
  facet normal -0.866026 1.11022e-16 -0.5
    outer loop
      vertex 42.1143 27.2 8.26955
      vertex 42.1143 24.2 8.26955
      vertex 41.7236 27.2 8.94627
    endloop
  endfacet
  facet normal -0.866026 1.11022e-16 -0.5
    outer loop
      vertex 41.7236 27.2 8.94627
      vertex 42.1143 24.2 8.26955
      vertex 41.7236 24.2 8.94627
    endloop
  endfacet
  facet normal -0.984808 3.85578e-17 -0.173649
    outer loop
      vertex 42.25 27.2 7.5
      vertex 42.25 24.2 7.5
      vertex 42.1143 27.2 8.26955
    endloop
  endfacet
  facet normal -0.984808 3.85578e-17 -0.173649
    outer loop
      vertex 42.1143 27.2 8.26955
      vertex 42.25 24.2 7.5
      vertex 42.1143 24.2 8.26955
    endloop
  endfacet
  facet normal -0.984808 -3.85578e-17 0.173649
    outer loop
      vertex 42.25 27.2 7.5
      vertex 42.1143 27.2 6.73046
      vertex 42.25 24.2 7.5
    endloop
  endfacet
  facet normal -0.984808 -3.85578e-17 0.173649
    outer loop
      vertex 42.25 24.2 7.5
      vertex 42.1143 27.2 6.73046
      vertex 42.1143 24.2 6.73046
    endloop
  endfacet
  facet normal -0.866026 -1.11022e-16 0.5
    outer loop
      vertex 42.1143 27.2 6.73046
      vertex 41.7236 27.2 6.05373
      vertex 42.1143 24.2 6.73046
    endloop
  endfacet
  facet normal -0.866026 -1.11022e-16 0.5
    outer loop
      vertex 42.1143 24.2 6.73046
      vertex 41.7236 27.2 6.05373
      vertex 41.7236 24.2 6.05373
    endloop
  endfacet
  facet normal -0.642788 -1.70096e-16 0.766044
    outer loop
      vertex 41.7236 24.2 6.05373
      vertex 41.7236 27.2 6.05373
      vertex 41.125 27.2 5.55144
    endloop
  endfacet
  facet normal -0.642788 -1.70096e-16 0.766044
    outer loop
      vertex 41.125 24.2 5.55144
      vertex 41.7236 24.2 6.05373
      vertex 41.125 27.2 5.55144
    endloop
  endfacet
  facet normal -0.34202 -2.08654e-16 0.939693
    outer loop
      vertex 41.125 24.2 5.55144
      vertex 41.125 27.2 5.55144
      vertex 40.3907 27.2 5.28418
    endloop
  endfacet
  facet normal -0.34202 -2.08654e-16 0.939693
    outer loop
      vertex 40.3907 24.2 5.28418
      vertex 41.125 24.2 5.55144
      vertex 40.3907 27.2 5.28418
    endloop
  endfacet
  facet normal 0 -2.22045e-16 1
    outer loop
      vertex 40.3907 24.2 5.28418
      vertex 40.3907 27.2 5.28418
      vertex 39.6093 27.2 5.28418
    endloop
  endfacet
  facet normal 0 -2.22045e-16 1
    outer loop
      vertex 39.6093 24.2 5.28418
      vertex 40.3907 24.2 5.28418
      vertex 39.6093 27.2 5.28418
    endloop
  endfacet
  facet normal 0.34202 -2.08654e-16 0.939693
    outer loop
      vertex 39.6093 24.2 5.28418
      vertex 39.6093 27.2 5.28418
      vertex 38.875 27.2 5.55144
    endloop
  endfacet
  facet normal 0.34202 -2.08654e-16 0.939693
    outer loop
      vertex 38.875 24.2 5.55144
      vertex 39.6093 24.2 5.28418
      vertex 38.875 27.2 5.55144
    endloop
  endfacet
  facet normal 0.642788 -1.70096e-16 0.766044
    outer loop
      vertex 38.875 24.2 5.55144
      vertex 38.875 27.2 5.55144
      vertex 38.2764 27.2 6.05373
    endloop
  endfacet
  facet normal 0.642788 -1.70096e-16 0.766044
    outer loop
      vertex 38.2764 24.2 6.05373
      vertex 38.875 24.2 5.55144
      vertex 38.2764 27.2 6.05373
    endloop
  endfacet
  facet normal 0.866026 -1.11022e-16 0.5
    outer loop
      vertex 38.2764 24.2 6.05373
      vertex 38.2764 27.2 6.05373
      vertex 37.8857 27.2 6.73046
    endloop
  endfacet
  facet normal 0.866026 -1.11022e-16 0.5
    outer loop
      vertex 37.8857 24.2 6.73046
      vertex 38.2764 24.2 6.05373
      vertex 37.8857 27.2 6.73046
    endloop
  endfacet
  facet normal 0.984808 -3.85577e-17 0.173648
    outer loop
      vertex 50.0257 25.1 5.65309
      vertex 50.0257 27.2 5.65309
      vertex 49.7 27.2 7.5
    endloop
  endfacet
  facet normal 0.984808 -3.85577e-17 0.173648
    outer loop
      vertex 49.7 25.1 7.5
      vertex 50.0257 25.1 5.65309
      vertex 49.7 27.2 7.5
    endloop
  endfacet
  facet normal 0.984808 3.85577e-17 -0.173648
    outer loop
      vertex 49.7 27.2 7.5
      vertex 50.0257 27.2 9.34691
      vertex 50.0257 25.1 9.34691
    endloop
  endfacet
  facet normal 0.984808 3.85577e-17 -0.173648
    outer loop
      vertex 49.7 25.1 7.5
      vertex 49.7 27.2 7.5
      vertex 50.0257 25.1 9.34691
    endloop
  endfacet
  facet normal 0.866025 1.11022e-16 -0.5
    outer loop
      vertex 50.0257 27.2 9.34691
      vertex 50.9634 27.2 10.9711
      vertex 50.9634 25.1 10.9711
    endloop
  endfacet
  facet normal 0.866025 1.11022e-16 -0.5
    outer loop
      vertex 50.0257 25.1 9.34691
      vertex 50.0257 27.2 9.34691
      vertex 50.9634 25.1 10.9711
    endloop
  endfacet
  facet normal 0.642788 1.70096e-16 -0.766044
    outer loop
      vertex 52.4 27.2 12.1765
      vertex 52.4 25.1 12.1765
      vertex 50.9634 27.2 10.9711
    endloop
  endfacet
  facet normal 0.642788 1.70096e-16 -0.766044
    outer loop
      vertex 50.9634 27.2 10.9711
      vertex 52.4 25.1 12.1765
      vertex 50.9634 25.1 10.9711
    endloop
  endfacet
  facet normal 0.34202 2.08654e-16 -0.939693
    outer loop
      vertex 54.1623 27.2 12.818
      vertex 54.1623 25.1 12.818
      vertex 52.4 27.2 12.1765
    endloop
  endfacet
  facet normal 0.34202 2.08654e-16 -0.939693
    outer loop
      vertex 52.4 27.2 12.1765
      vertex 54.1623 25.1 12.818
      vertex 52.4 25.1 12.1765
    endloop
  endfacet
  facet normal 0 2.22045e-16 -1
    outer loop
      vertex 56.0377 27.2 12.818
      vertex 56.0377 25.1 12.818
      vertex 54.1623 27.2 12.818
    endloop
  endfacet
  facet normal 0 2.22045e-16 -1
    outer loop
      vertex 54.1623 27.2 12.818
      vertex 56.0377 25.1 12.818
      vertex 54.1623 25.1 12.818
    endloop
  endfacet
  facet normal -0.34202 2.08654e-16 -0.939693
    outer loop
      vertex 57.8 27.2 12.1765
      vertex 57.8 25.1 12.1765
      vertex 56.0377 27.2 12.818
    endloop
  endfacet
  facet normal -0.34202 2.08654e-16 -0.939693
    outer loop
      vertex 56.0377 27.2 12.818
      vertex 57.8 25.1 12.1765
      vertex 56.0377 25.1 12.818
    endloop
  endfacet
  facet normal -0.642788 1.70096e-16 -0.766044
    outer loop
      vertex 59.2366 27.2 10.9711
      vertex 59.2366 25.1 10.9711
      vertex 57.8 27.2 12.1765
    endloop
  endfacet
  facet normal -0.642788 1.70096e-16 -0.766044
    outer loop
      vertex 57.8 27.2 12.1765
      vertex 59.2366 25.1 10.9711
      vertex 57.8 25.1 12.1765
    endloop
  endfacet
  facet normal -0.866025 1.11022e-16 -0.5
    outer loop
      vertex 60.1743 27.2 9.34691
      vertex 60.1743 25.1 9.34691
      vertex 59.2366 27.2 10.9711
    endloop
  endfacet
  facet normal -0.866025 1.11022e-16 -0.5
    outer loop
      vertex 59.2366 27.2 10.9711
      vertex 60.1743 25.1 9.34691
      vertex 59.2366 25.1 10.9711
    endloop
  endfacet
  facet normal -0.984808 3.85577e-17 -0.173648
    outer loop
      vertex 60.5 27.2 7.5
      vertex 60.5 25.1 7.5
      vertex 60.1743 27.2 9.34691
    endloop
  endfacet
  facet normal -0.984808 3.85577e-17 -0.173648
    outer loop
      vertex 60.1743 27.2 9.34691
      vertex 60.5 25.1 7.5
      vertex 60.1743 25.1 9.34691
    endloop
  endfacet
  facet normal -0.984808 -3.85577e-17 0.173648
    outer loop
      vertex 60.5 27.2 7.5
      vertex 60.1743 27.2 5.65309
      vertex 60.5 25.1 7.5
    endloop
  endfacet
  facet normal -0.984808 -3.85577e-17 0.173648
    outer loop
      vertex 60.5 25.1 7.5
      vertex 60.1743 27.2 5.65309
      vertex 60.1743 25.1 5.65309
    endloop
  endfacet
  facet normal -0.866025 -1.11022e-16 0.5
    outer loop
      vertex 60.1743 27.2 5.65309
      vertex 59.2366 27.2 4.02895
      vertex 60.1743 25.1 5.65309
    endloop
  endfacet
  facet normal -0.866025 -1.11022e-16 0.5
    outer loop
      vertex 60.1743 25.1 5.65309
      vertex 59.2366 27.2 4.02895
      vertex 59.2366 25.1 4.02895
    endloop
  endfacet
  facet normal -0.642788 -1.70096e-16 0.766044
    outer loop
      vertex 59.2366 25.1 4.02895
      vertex 59.2366 27.2 4.02895
      vertex 57.8 27.2 2.82346
    endloop
  endfacet
  facet normal -0.642788 -1.70096e-16 0.766044
    outer loop
      vertex 57.8 25.1 2.82346
      vertex 59.2366 25.1 4.02895
      vertex 57.8 27.2 2.82346
    endloop
  endfacet
  facet normal -0.34202 -2.08654e-16 0.939693
    outer loop
      vertex 57.8 25.1 2.82346
      vertex 57.8 27.2 2.82346
      vertex 56.0377 27.2 2.18204
    endloop
  endfacet
  facet normal -0.34202 -2.08654e-16 0.939693
    outer loop
      vertex 56.0377 25.1 2.18204
      vertex 57.8 25.1 2.82346
      vertex 56.0377 27.2 2.18204
    endloop
  endfacet
  facet normal 0 -2.22045e-16 1
    outer loop
      vertex 56.0377 25.1 2.18204
      vertex 56.0377 27.2 2.18204
      vertex 54.1623 27.2 2.18204
    endloop
  endfacet
  facet normal 0 -2.22045e-16 1
    outer loop
      vertex 54.1623 25.1 2.18204
      vertex 56.0377 25.1 2.18204
      vertex 54.1623 27.2 2.18204
    endloop
  endfacet
  facet normal 0.34202 -2.08654e-16 0.939693
    outer loop
      vertex 54.1623 25.1 2.18204
      vertex 54.1623 27.2 2.18204
      vertex 52.4 27.2 2.82346
    endloop
  endfacet
  facet normal 0.34202 -2.08654e-16 0.939693
    outer loop
      vertex 52.4 25.1 2.82346
      vertex 54.1623 25.1 2.18204
      vertex 52.4 27.2 2.82346
    endloop
  endfacet
  facet normal 0.642788 -1.70096e-16 0.766044
    outer loop
      vertex 52.4 25.1 2.82346
      vertex 52.4 27.2 2.82346
      vertex 50.9634 27.2 4.02895
    endloop
  endfacet
  facet normal 0.642788 -1.70096e-16 0.766044
    outer loop
      vertex 50.9634 25.1 4.02895
      vertex 52.4 25.1 2.82346
      vertex 50.9634 27.2 4.02895
    endloop
  endfacet
  facet normal 0.866025 -1.11022e-16 0.5
    outer loop
      vertex 50.9634 25.1 4.02895
      vertex 50.9634 27.2 4.02895
      vertex 50.0257 27.2 5.65309
    endloop
  endfacet
  facet normal 0.866025 -1.11022e-16 0.5
    outer loop
      vertex 50.0257 25.1 5.65309
      vertex 50.9634 25.1 4.02895
      vertex 50.0257 27.2 5.65309
    endloop
  endfacet
  facet normal 0.984808 3.85577e-17 -0.173648
    outer loop
      vertex 11.25 24.2 7.5
      vertex 11.4762 24.2 8.78258
      vertex 11.4762 20.3 8.78258
    endloop
  endfacet
  facet normal 0.984808 3.85577e-17 -0.173648
    outer loop
      vertex 11.25 20.3 7.5
      vertex 11.25 24.2 7.5
      vertex 11.4762 20.3 8.78258
    endloop
  endfacet
  facet normal 0.984808 -3.85577e-17 0.173648
    outer loop
      vertex 11.4762 20.3 6.21742
      vertex 11.4762 24.2 6.21742
      vertex 11.25 24.2 7.5
    endloop
  endfacet
  facet normal 0.984808 -3.85577e-17 0.173648
    outer loop
      vertex 11.25 20.3 7.5
      vertex 11.4762 20.3 6.21742
      vertex 11.25 24.2 7.5
    endloop
  endfacet
  facet normal 0.866026 -1.11022e-16 0.5
    outer loop
      vertex 12.1273 20.3 5.08955
      vertex 12.1273 24.2 5.08955
      vertex 11.4762 24.2 6.21742
    endloop
  endfacet
  facet normal 0.866026 -1.11022e-16 0.5
    outer loop
      vertex 11.4762 20.3 6.21742
      vertex 12.1273 20.3 5.08955
      vertex 11.4762 24.2 6.21742
    endloop
  endfacet
  facet normal 0.642787 -1.70096e-16 0.766045
    outer loop
      vertex 13.125 20.3 4.2524
      vertex 13.125 24.2 4.25241
      vertex 12.1273 24.2 5.08955
    endloop
  endfacet
  facet normal 0.642787 -1.70096e-16 0.766045
    outer loop
      vertex 12.1273 20.3 5.08955
      vertex 13.125 20.3 4.2524
      vertex 12.1273 24.2 5.08955
    endloop
  endfacet
  facet normal 0.34202 -2.08654e-16 0.939693
    outer loop
      vertex 14.3488 20.3 3.80697
      vertex 14.3488 24.2 3.80697
      vertex 13.125 24.2 4.25241
    endloop
  endfacet
  facet normal 0.34202 -2.08654e-16 0.939693
    outer loop
      vertex 13.125 20.3 4.2524
      vertex 14.3488 20.3 3.80697
      vertex 13.125 24.2 4.25241
    endloop
  endfacet
  facet normal 0 -2.22045e-16 1
    outer loop
      vertex 15.6512 20.3 3.80697
      vertex 15.6512 24.2 3.80697
      vertex 14.3488 24.2 3.80697
    endloop
  endfacet
  facet normal 0 -2.22045e-16 1
    outer loop
      vertex 14.3488 20.3 3.80697
      vertex 15.6512 20.3 3.80697
      vertex 14.3488 24.2 3.80697
    endloop
  endfacet
  facet normal -0.34202 -2.08654e-16 0.939693
    outer loop
      vertex 16.875 20.3 4.2524
      vertex 16.875 24.2 4.25241
      vertex 15.6512 24.2 3.80697
    endloop
  endfacet
  facet normal -0.34202 -2.08654e-16 0.939693
    outer loop
      vertex 15.6512 20.3 3.80697
      vertex 16.875 20.3 4.2524
      vertex 15.6512 24.2 3.80697
    endloop
  endfacet
  facet normal -0.642787 -1.70096e-16 0.766045
    outer loop
      vertex 17.8727 20.3 5.08955
      vertex 17.8727 24.2 5.08955
      vertex 16.875 24.2 4.25241
    endloop
  endfacet
  facet normal -0.642787 -1.70096e-16 0.766045
    outer loop
      vertex 16.875 20.3 4.2524
      vertex 17.8727 20.3 5.08955
      vertex 16.875 24.2 4.25241
    endloop
  endfacet
  facet normal -0.866026 -1.11022e-16 0.5
    outer loop
      vertex 18.5238 24.2 6.21742
      vertex 17.8727 24.2 5.08955
      vertex 18.5238 20.3 6.21742
    endloop
  endfacet
  facet normal -0.866026 -1.11022e-16 0.5
    outer loop
      vertex 18.5238 20.3 6.21742
      vertex 17.8727 24.2 5.08955
      vertex 17.8727 20.3 5.08955
    endloop
  endfacet
  facet normal -0.984808 -3.85577e-17 0.173648
    outer loop
      vertex 18.75 24.2 7.5
      vertex 18.5238 24.2 6.21742
      vertex 18.75 20.3 7.5
    endloop
  endfacet
  facet normal -0.984808 -3.85577e-17 0.173648
    outer loop
      vertex 18.75 20.3 7.5
      vertex 18.5238 24.2 6.21742
      vertex 18.5238 20.3 6.21742
    endloop
  endfacet
  facet normal -0.984808 3.85577e-17 -0.173648
    outer loop
      vertex 18.75 24.2 7.5
      vertex 18.75 20.3 7.5
      vertex 18.5238 24.2 8.78258
    endloop
  endfacet
  facet normal -0.984808 3.85577e-17 -0.173648
    outer loop
      vertex 18.5238 24.2 8.78258
      vertex 18.75 20.3 7.5
      vertex 18.5238 20.3 8.78258
    endloop
  endfacet
  facet normal -0.866026 1.11022e-16 -0.5
    outer loop
      vertex 18.5238 24.2 8.78258
      vertex 18.5238 20.3 8.78258
      vertex 17.8727 24.2 9.91045
    endloop
  endfacet
  facet normal -0.866026 1.11022e-16 -0.5
    outer loop
      vertex 17.8727 24.2 9.91045
      vertex 18.5238 20.3 8.78258
      vertex 17.8727 20.3 9.91045
    endloop
  endfacet
  facet normal -0.642787 1.70096e-16 -0.766045
    outer loop
      vertex 17.8727 24.2 9.91045
      vertex 17.8727 20.3 9.91045
      vertex 16.875 24.2 10.7476
    endloop
  endfacet
  facet normal -0.642787 1.70096e-16 -0.766045
    outer loop
      vertex 16.875 24.2 10.7476
      vertex 17.8727 20.3 9.91045
      vertex 16.875 20.3 10.7476
    endloop
  endfacet
  facet normal -0.34202 2.08654e-16 -0.939693
    outer loop
      vertex 16.875 24.2 10.7476
      vertex 16.875 20.3 10.7476
      vertex 15.6512 24.2 11.193
    endloop
  endfacet
  facet normal -0.34202 2.08654e-16 -0.939693
    outer loop
      vertex 15.6512 24.2 11.193
      vertex 16.875 20.3 10.7476
      vertex 15.6512 20.3 11.193
    endloop
  endfacet
  facet normal 0 2.22045e-16 -1
    outer loop
      vertex 15.6512 24.2 11.193
      vertex 15.6512 20.3 11.193
      vertex 14.3488 24.2 11.193
    endloop
  endfacet
  facet normal 0 2.22045e-16 -1
    outer loop
      vertex 14.3488 24.2 11.193
      vertex 15.6512 20.3 11.193
      vertex 14.3488 20.3 11.193
    endloop
  endfacet
  facet normal 0.34202 2.08654e-16 -0.939693
    outer loop
      vertex 14.3488 24.2 11.193
      vertex 14.3488 20.3 11.193
      vertex 13.125 24.2 10.7476
    endloop
  endfacet
  facet normal 0.34202 2.08654e-16 -0.939693
    outer loop
      vertex 13.125 24.2 10.7476
      vertex 14.3488 20.3 11.193
      vertex 13.125 20.3 10.7476
    endloop
  endfacet
  facet normal 0.642787 1.70096e-16 -0.766045
    outer loop
      vertex 13.125 24.2 10.7476
      vertex 13.125 20.3 10.7476
      vertex 12.1273 24.2 9.91045
    endloop
  endfacet
  facet normal 0.642787 1.70096e-16 -0.766045
    outer loop
      vertex 12.1273 24.2 9.91045
      vertex 13.125 20.3 10.7476
      vertex 12.1273 20.3 9.91045
    endloop
  endfacet
  facet normal 0.866026 1.11022e-16 -0.5
    outer loop
      vertex 11.4762 24.2 8.78258
      vertex 12.1273 24.2 9.91045
      vertex 12.1273 20.3 9.91045
    endloop
  endfacet
  facet normal 0.866026 1.11022e-16 -0.5
    outer loop
      vertex 11.4762 20.3 8.78258
      vertex 11.4762 24.2 8.78258
      vertex 12.1273 20.3 9.91045
    endloop
  endfacet
  facet normal 0.984808 3.85577e-17 -0.173648
    outer loop
      vertex 36.25 24.2 7.5
      vertex 36.4762 24.2 8.78258
      vertex 36.4762 20.3 8.78258
    endloop
  endfacet
  facet normal 0.984808 3.85577e-17 -0.173648
    outer loop
      vertex 36.25 20.3 7.5
      vertex 36.25 24.2 7.5
      vertex 36.4762 20.3 8.78258
    endloop
  endfacet
  facet normal 0.984808 -3.85577e-17 0.173648
    outer loop
      vertex 36.4762 20.3 6.21742
      vertex 36.4762 24.2 6.21742
      vertex 36.25 24.2 7.5
    endloop
  endfacet
  facet normal 0.984808 -3.85577e-17 0.173648
    outer loop
      vertex 36.25 20.3 7.5
      vertex 36.4762 20.3 6.21742
      vertex 36.25 24.2 7.5
    endloop
  endfacet
  facet normal 0.866026 -1.11022e-16 0.5
    outer loop
      vertex 37.1273 20.3 5.08955
      vertex 37.1273 24.2 5.08955
      vertex 36.4762 24.2 6.21742
    endloop
  endfacet
  facet normal 0.866026 -1.11022e-16 0.5
    outer loop
      vertex 36.4762 20.3 6.21742
      vertex 37.1273 20.3 5.08955
      vertex 36.4762 24.2 6.21742
    endloop
  endfacet
  facet normal 0.642787 -1.70096e-16 0.766045
    outer loop
      vertex 38.125 20.3 4.2524
      vertex 38.125 24.2 4.25241
      vertex 37.1273 24.2 5.08955
    endloop
  endfacet
  facet normal 0.642787 -1.70096e-16 0.766045
    outer loop
      vertex 37.1273 20.3 5.08955
      vertex 38.125 20.3 4.2524
      vertex 37.1273 24.2 5.08955
    endloop
  endfacet
  facet normal 0.34202 -2.08654e-16 0.939693
    outer loop
      vertex 39.3488 20.3 3.80697
      vertex 39.3488 24.2 3.80697
      vertex 38.125 24.2 4.25241
    endloop
  endfacet
  facet normal 0.34202 -2.08654e-16 0.939693
    outer loop
      vertex 38.125 20.3 4.2524
      vertex 39.3488 20.3 3.80697
      vertex 38.125 24.2 4.25241
    endloop
  endfacet
  facet normal 0 -2.22045e-16 1
    outer loop
      vertex 40.6512 20.3 3.80697
      vertex 40.6512 24.2 3.80697
      vertex 39.3488 24.2 3.80697
    endloop
  endfacet
  facet normal 0 -2.22045e-16 1
    outer loop
      vertex 39.3488 20.3 3.80697
      vertex 40.6512 20.3 3.80697
      vertex 39.3488 24.2 3.80697
    endloop
  endfacet
  facet normal -0.34202 -2.08654e-16 0.939693
    outer loop
      vertex 41.875 20.3 4.2524
      vertex 41.875 24.2 4.25241
      vertex 40.6512 24.2 3.80697
    endloop
  endfacet
  facet normal -0.34202 -2.08654e-16 0.939693
    outer loop
      vertex 40.6512 20.3 3.80697
      vertex 41.875 20.3 4.2524
      vertex 40.6512 24.2 3.80697
    endloop
  endfacet
  facet normal -0.642787 -1.70096e-16 0.766045
    outer loop
      vertex 42.8727 20.3 5.08955
      vertex 42.8727 24.2 5.08955
      vertex 41.875 24.2 4.25241
    endloop
  endfacet
  facet normal -0.642787 -1.70096e-16 0.766045
    outer loop
      vertex 41.875 20.3 4.2524
      vertex 42.8727 20.3 5.08955
      vertex 41.875 24.2 4.25241
    endloop
  endfacet
  facet normal -0.866026 -1.11022e-16 0.5
    outer loop
      vertex 43.5238 24.2 6.21742
      vertex 42.8727 24.2 5.08955
      vertex 43.5238 20.3 6.21742
    endloop
  endfacet
  facet normal -0.866026 -1.11022e-16 0.5
    outer loop
      vertex 43.5238 20.3 6.21742
      vertex 42.8727 24.2 5.08955
      vertex 42.8727 20.3 5.08955
    endloop
  endfacet
  facet normal -0.984808 -3.85577e-17 0.173648
    outer loop
      vertex 43.75 24.2 7.5
      vertex 43.5238 24.2 6.21742
      vertex 43.75 20.3 7.5
    endloop
  endfacet
  facet normal -0.984808 -3.85577e-17 0.173648
    outer loop
      vertex 43.75 20.3 7.5
      vertex 43.5238 24.2 6.21742
      vertex 43.5238 20.3 6.21742
    endloop
  endfacet
  facet normal -0.984808 3.85577e-17 -0.173648
    outer loop
      vertex 43.75 24.2 7.5
      vertex 43.75 20.3 7.5
      vertex 43.5238 24.2 8.78258
    endloop
  endfacet
  facet normal -0.984808 3.85577e-17 -0.173648
    outer loop
      vertex 43.5238 24.2 8.78258
      vertex 43.75 20.3 7.5
      vertex 43.5238 20.3 8.78258
    endloop
  endfacet
  facet normal -0.866026 1.11022e-16 -0.5
    outer loop
      vertex 43.5238 24.2 8.78258
      vertex 43.5238 20.3 8.78258
      vertex 42.8727 24.2 9.91045
    endloop
  endfacet
  facet normal -0.866026 1.11022e-16 -0.5
    outer loop
      vertex 42.8727 24.2 9.91045
      vertex 43.5238 20.3 8.78258
      vertex 42.8727 20.3 9.91045
    endloop
  endfacet
  facet normal -0.642787 1.70096e-16 -0.766045
    outer loop
      vertex 42.8727 24.2 9.91045
      vertex 42.8727 20.3 9.91045
      vertex 41.875 24.2 10.7476
    endloop
  endfacet
  facet normal -0.642787 1.70096e-16 -0.766045
    outer loop
      vertex 41.875 24.2 10.7476
      vertex 42.8727 20.3 9.91045
      vertex 41.875 20.3 10.7476
    endloop
  endfacet
  facet normal -0.34202 2.08654e-16 -0.939693
    outer loop
      vertex 41.875 24.2 10.7476
      vertex 41.875 20.3 10.7476
      vertex 40.6512 24.2 11.193
    endloop
  endfacet
  facet normal -0.34202 2.08654e-16 -0.939693
    outer loop
      vertex 40.6512 24.2 11.193
      vertex 41.875 20.3 10.7476
      vertex 40.6512 20.3 11.193
    endloop
  endfacet
  facet normal 0 2.22045e-16 -1
    outer loop
      vertex 40.6512 24.2 11.193
      vertex 40.6512 20.3 11.193
      vertex 39.3488 24.2 11.193
    endloop
  endfacet
  facet normal 0 2.22045e-16 -1
    outer loop
      vertex 39.3488 24.2 11.193
      vertex 40.6512 20.3 11.193
      vertex 39.3488 20.3 11.193
    endloop
  endfacet
  facet normal 0.34202 2.08654e-16 -0.939693
    outer loop
      vertex 39.3488 24.2 11.193
      vertex 39.3488 20.3 11.193
      vertex 38.125 24.2 10.7476
    endloop
  endfacet
  facet normal 0.34202 2.08654e-16 -0.939693
    outer loop
      vertex 38.125 24.2 10.7476
      vertex 39.3488 20.3 11.193
      vertex 38.125 20.3 10.7476
    endloop
  endfacet
  facet normal 0.642787 1.70096e-16 -0.766045
    outer loop
      vertex 38.125 24.2 10.7476
      vertex 38.125 20.3 10.7476
      vertex 37.1273 24.2 9.91045
    endloop
  endfacet
  facet normal 0.642787 1.70096e-16 -0.766045
    outer loop
      vertex 37.1273 24.2 9.91045
      vertex 38.125 20.3 10.7476
      vertex 37.1273 20.3 9.91045
    endloop
  endfacet
  facet normal 0.866026 1.11022e-16 -0.5
    outer loop
      vertex 36.4762 24.2 8.78258
      vertex 37.1273 24.2 9.91045
      vertex 37.1273 20.3 9.91045
    endloop
  endfacet
  facet normal 0.866026 1.11022e-16 -0.5
    outer loop
      vertex 36.4762 20.3 8.78258
      vertex 36.4762 24.2 8.78258
      vertex 37.1273 20.3 9.91045
    endloop
  endfacet
  facet normal 0.984808 -3.85577e-17 0.173648
    outer loop
      vertex 52.5628 20.3 6.57655
      vertex 52.5628 25.1 6.57655
      vertex 52.4 25.1 7.5
    endloop
  endfacet
  facet normal 0.984808 -3.85577e-17 0.173648
    outer loop
      vertex 52.4 20.3 7.5
      vertex 52.5628 20.3 6.57655
      vertex 52.4 25.1 7.5
    endloop
  endfacet
  facet normal 0.984808 3.85577e-17 -0.173648
    outer loop
      vertex 52.4 25.1 7.5
      vertex 52.5628 25.1 8.42345
      vertex 52.5628 20.3 8.42345
    endloop
  endfacet
  facet normal 0.984808 3.85577e-17 -0.173648
    outer loop
      vertex 52.4 20.3 7.5
      vertex 52.4 25.1 7.5
      vertex 52.5628 20.3 8.42345
    endloop
  endfacet
  facet normal 0.866026 -1.11022e-16 0.5
    outer loop
      vertex 53.0317 20.3 5.76447
      vertex 53.0317 25.1 5.76447
      vertex 52.5628 25.1 6.57655
    endloop
  endfacet
  facet normal 0.866026 -1.11022e-16 0.5
    outer loop
      vertex 52.5628 20.3 6.57655
      vertex 53.0317 20.3 5.76447
      vertex 52.5628 25.1 6.57655
    endloop
  endfacet
  facet normal 0.642788 -1.70096e-16 0.766044
    outer loop
      vertex 53.75 20.3 5.16173
      vertex 53.75 25.1 5.16173
      vertex 53.0317 25.1 5.76447
    endloop
  endfacet
  facet normal 0.642788 -1.70096e-16 0.766044
    outer loop
      vertex 53.0317 20.3 5.76447
      vertex 53.75 20.3 5.16173
      vertex 53.0317 25.1 5.76447
    endloop
  endfacet
  facet normal 0.34202 -2.08654e-16 0.939693
    outer loop
      vertex 54.6311 20.3 4.84102
      vertex 54.6311 25.1 4.84102
      vertex 53.75 25.1 5.16173
    endloop
  endfacet
  facet normal 0.34202 -2.08654e-16 0.939693
    outer loop
      vertex 53.75 20.3 5.16173
      vertex 54.6311 20.3 4.84102
      vertex 53.75 25.1 5.16173
    endloop
  endfacet
  facet normal 0 -2.22045e-16 1
    outer loop
      vertex 55.5688 20.3 4.84102
      vertex 55.5688 25.1 4.84102
      vertex 54.6311 25.1 4.84102
    endloop
  endfacet
  facet normal 0 -2.22045e-16 1
    outer loop
      vertex 54.6311 20.3 4.84102
      vertex 55.5688 20.3 4.84102
      vertex 54.6311 25.1 4.84102
    endloop
  endfacet
  facet normal -0.34202 -2.08654e-16 0.939693
    outer loop
      vertex 56.45 20.3 5.16173
      vertex 56.45 25.1 5.16173
      vertex 55.5688 25.1 4.84102
    endloop
  endfacet
  facet normal -0.34202 -2.08654e-16 0.939693
    outer loop
      vertex 55.5688 20.3 4.84102
      vertex 56.45 20.3 5.16173
      vertex 55.5688 25.1 4.84102
    endloop
  endfacet
  facet normal -0.642788 -1.70096e-16 0.766044
    outer loop
      vertex 57.1683 20.3 5.76447
      vertex 57.1683 25.1 5.76447
      vertex 56.45 25.1 5.16173
    endloop
  endfacet
  facet normal -0.642788 -1.70096e-16 0.766044
    outer loop
      vertex 56.45 20.3 5.16173
      vertex 57.1683 20.3 5.76447
      vertex 56.45 25.1 5.16173
    endloop
  endfacet
  facet normal -0.866026 -1.11022e-16 0.5
    outer loop
      vertex 57.6372 25.1 6.57655
      vertex 57.1683 25.1 5.76447
      vertex 57.6372 20.3 6.57655
    endloop
  endfacet
  facet normal -0.866026 -1.11022e-16 0.5
    outer loop
      vertex 57.6372 20.3 6.57655
      vertex 57.1683 25.1 5.76447
      vertex 57.1683 20.3 5.76447
    endloop
  endfacet
  facet normal -0.984808 -3.85577e-17 0.173648
    outer loop
      vertex 57.8 25.1 7.5
      vertex 57.6372 25.1 6.57655
      vertex 57.8 20.3 7.5
    endloop
  endfacet
  facet normal -0.984808 -3.85577e-17 0.173648
    outer loop
      vertex 57.8 20.3 7.5
      vertex 57.6372 25.1 6.57655
      vertex 57.6372 20.3 6.57655
    endloop
  endfacet
  facet normal -0.984808 3.85577e-17 -0.173648
    outer loop
      vertex 57.8 25.1 7.5
      vertex 57.8 20.3 7.5
      vertex 57.6372 25.1 8.42345
    endloop
  endfacet
  facet normal -0.984808 3.85577e-17 -0.173648
    outer loop
      vertex 57.6372 25.1 8.42345
      vertex 57.8 20.3 7.5
      vertex 57.6372 20.3 8.42345
    endloop
  endfacet
  facet normal -0.866026 1.11022e-16 -0.5
    outer loop
      vertex 57.6372 25.1 8.42345
      vertex 57.6372 20.3 8.42345
      vertex 57.1683 25.1 9.23553
    endloop
  endfacet
  facet normal -0.866026 1.11022e-16 -0.5
    outer loop
      vertex 57.1683 25.1 9.23553
      vertex 57.6372 20.3 8.42345
      vertex 57.1683 20.3 9.23553
    endloop
  endfacet
  facet normal -0.642788 1.70096e-16 -0.766044
    outer loop
      vertex 57.1683 25.1 9.23553
      vertex 57.1683 20.3 9.23553
      vertex 56.45 25.1 9.83827
    endloop
  endfacet
  facet normal -0.642788 1.70096e-16 -0.766044
    outer loop
      vertex 56.45 25.1 9.83827
      vertex 57.1683 20.3 9.23553
      vertex 56.45 20.3 9.83827
    endloop
  endfacet
  facet normal -0.34202 2.08654e-16 -0.939693
    outer loop
      vertex 56.45 25.1 9.83827
      vertex 56.45 20.3 9.83827
      vertex 55.5688 25.1 10.159
    endloop
  endfacet
  facet normal -0.34202 2.08654e-16 -0.939693
    outer loop
      vertex 55.5688 25.1 10.159
      vertex 56.45 20.3 9.83827
      vertex 55.5688 20.3 10.159
    endloop
  endfacet
  facet normal 0 2.22045e-16 -1
    outer loop
      vertex 55.5688 25.1 10.159
      vertex 55.5688 20.3 10.159
      vertex 54.6311 25.1 10.159
    endloop
  endfacet
  facet normal 0 2.22045e-16 -1
    outer loop
      vertex 54.6311 25.1 10.159
      vertex 55.5688 20.3 10.159
      vertex 54.6311 20.3 10.159
    endloop
  endfacet
  facet normal 0.34202 2.08654e-16 -0.939693
    outer loop
      vertex 54.6311 25.1 10.159
      vertex 54.6311 20.3 10.159
      vertex 53.75 25.1 9.83827
    endloop
  endfacet
  facet normal 0.34202 2.08654e-16 -0.939693
    outer loop
      vertex 53.75 25.1 9.83827
      vertex 54.6311 20.3 10.159
      vertex 53.75 20.3 9.83827
    endloop
  endfacet
  facet normal 0.642788 1.70096e-16 -0.766044
    outer loop
      vertex 53.75 25.1 9.83827
      vertex 53.75 20.3 9.83827
      vertex 53.0317 25.1 9.23553
    endloop
  endfacet
  facet normal 0.642788 1.70096e-16 -0.766044
    outer loop
      vertex 53.0317 25.1 9.23553
      vertex 53.75 20.3 9.83827
      vertex 53.0317 20.3 9.23553
    endloop
  endfacet
  facet normal 0.866026 1.11022e-16 -0.5
    outer loop
      vertex 52.5628 25.1 8.42345
      vertex 53.0317 25.1 9.23553
      vertex 53.0317 20.3 9.23553
    endloop
  endfacet
  facet normal 0.866026 1.11022e-16 -0.5
    outer loop
      vertex 52.5628 20.3 8.42345
      vertex 52.5628 25.1 8.42345
      vertex 53.0317 20.3 9.23553
    endloop
  endfacet
  facet normal 0 -1 -2.22045e-16
    outer loop
      vertex 11.4762 24.2 6.21742
      vertex 12.1273 24.2 5.08955
      vertex 13.125 24.2 4.25241
    endloop
  endfacet
  facet normal 0 -1 -2.22045e-16
    outer loop
      vertex 15.6512 24.2 3.80697
      vertex 11.4762 24.2 6.21742
      vertex 14.3488 24.2 3.80697
    endloop
  endfacet
  facet normal 0 -1 -2.22045e-16
    outer loop
      vertex 14.3488 24.2 3.80697
      vertex 11.4762 24.2 6.21742
      vertex 13.125 24.2 4.25241
    endloop
  endfacet
  facet normal 0 -1 -2.22045e-16
    outer loop
      vertex 16.875 24.2 4.25241
      vertex 11.4762 24.2 6.21742
      vertex 15.6512 24.2 3.80697
    endloop
  endfacet
  facet normal 0 -1 -2.22045e-16
    outer loop
      vertex 14.6093 24.2 5.28418
      vertex 11.4762 24.2 6.21742
      vertex 16.875 24.2 4.25241
    endloop
  endfacet
  facet normal 0 -1 -2.22045e-16
    outer loop
      vertex 16.125 24.2 5.55144
      vertex 15.3907 24.2 5.28418
      vertex 17.8727 24.2 5.08955
    endloop
  endfacet
  facet normal 0 -1 -2.22045e-16
    outer loop
      vertex 17.1143 24.2 6.73046
      vertex 16.7236 24.2 6.05373
      vertex 18.5238 24.2 6.21742
    endloop
  endfacet
  facet normal 0 -1 -2.22045e-16
    outer loop
      vertex 17.25 24.2 7.5
      vertex 17.1143 24.2 6.73046
      vertex 18.75 24.2 7.5
    endloop
  endfacet
  facet normal 0 -1 -2.22045e-16
    outer loop
      vertex 16.125 24.2 9.44856
      vertex 16.7236 24.2 8.94627
      vertex 17.8727 24.2 9.91045
    endloop
  endfacet
  facet normal 0 -1 -2.22045e-16
    outer loop
      vertex 13.125 24.2 10.7476
      vertex 11.4762 24.2 6.21742
      vertex 14.3488 24.2 11.193
    endloop
  endfacet
  facet normal 0 -1 -2.22045e-16
    outer loop
      vertex 12.1273 24.2 9.91045
      vertex 11.4762 24.2 6.21742
      vertex 13.125 24.2 10.7476
    endloop
  endfacet
  facet normal 0 -1 -2.22045e-16
    outer loop
      vertex 11.4762 24.2 8.78258
      vertex 11.4762 24.2 6.21742
      vertex 12.1273 24.2 9.91045
    endloop
  endfacet
  facet normal 0 -1 -2.22045e-16
    outer loop
      vertex 11.25 24.2 7.5
      vertex 11.4762 24.2 6.21742
      vertex 11.4762 24.2 8.78258
    endloop
  endfacet
  facet normal 0 -1 -2.22045e-16
    outer loop
      vertex 15.3907 24.2 9.71582
      vertex 16.125 24.2 9.44856
      vertex 16.875 24.2 10.7476
    endloop
  endfacet
  facet normal 0 -1 -2.22045e-16
    outer loop
      vertex 14.3488 24.2 11.193
      vertex 11.4762 24.2 6.21742
      vertex 12.8857 24.2 8.26955
    endloop
  endfacet
  facet normal 0 -1 -2.22045e-16
    outer loop
      vertex 14.3488 24.2 11.193
      vertex 13.2764 24.2 8.94627
      vertex 15.6512 24.2 11.193
    endloop
  endfacet
  facet normal 0 -1 -2.22045e-16
    outer loop
      vertex 14.3488 24.2 11.193
      vertex 12.8857 24.2 8.26955
      vertex 13.2764 24.2 8.94627
    endloop
  endfacet
  facet normal 0 -1 -2.22045e-16
    outer loop
      vertex 13.2764 24.2 8.94627
      vertex 13.875 24.2 9.44856
      vertex 15.6512 24.2 11.193
    endloop
  endfacet
  facet normal 0 -1 -2.22045e-16
    outer loop
      vertex 15.6512 24.2 11.193
      vertex 14.6093 24.2 9.71582
      vertex 16.875 24.2 10.7476
    endloop
  endfacet
  facet normal 0 -1 -2.22045e-16
    outer loop
      vertex 13.875 24.2 9.44856
      vertex 14.6093 24.2 9.71582
      vertex 15.6512 24.2 11.193
    endloop
  endfacet
  facet normal 0 -1 -2.22045e-16
    outer loop
      vertex 14.6093 24.2 9.71582
      vertex 15.3907 24.2 9.71582
      vertex 16.875 24.2 10.7476
    endloop
  endfacet
  facet normal 0 -1 -2.22045e-16
    outer loop
      vertex 16.875 24.2 10.7476
      vertex 16.125 24.2 9.44856
      vertex 17.8727 24.2 9.91045
    endloop
  endfacet
  facet normal 0 -1 -2.22045e-16
    outer loop
      vertex 17.8727 24.2 9.91045
      vertex 16.7236 24.2 8.94627
      vertex 18.5238 24.2 8.78258
    endloop
  endfacet
  facet normal 0 -1 -2.22045e-16
    outer loop
      vertex 18.5238 24.2 8.78258
      vertex 17.1143 24.2 8.26955
      vertex 18.75 24.2 7.5
    endloop
  endfacet
  facet normal 0 -1 -2.22045e-16
    outer loop
      vertex 17.1143 24.2 8.26955
      vertex 17.25 24.2 7.5
      vertex 18.75 24.2 7.5
    endloop
  endfacet
  facet normal 0 -1 -2.22045e-16
    outer loop
      vertex 18.75 24.2 7.5
      vertex 17.1143 24.2 6.73046
      vertex 18.5238 24.2 6.21742
    endloop
  endfacet
  facet normal 0 -1 -2.22045e-16
    outer loop
      vertex 12.8857 24.2 6.73046
      vertex 12.75 24.2 7.5
      vertex 11.4762 24.2 6.21742
    endloop
  endfacet
  facet normal 0 -1 -2.22045e-16
    outer loop
      vertex 18.5238 24.2 6.21742
      vertex 16.7236 24.2 6.05373
      vertex 17.8727 24.2 5.08955
    endloop
  endfacet
  facet normal 0 -1 -2.22045e-16
    outer loop
      vertex 16.7236 24.2 6.05373
      vertex 16.125 24.2 5.55144
      vertex 17.8727 24.2 5.08955
    endloop
  endfacet
  facet normal 0 -1 -2.22045e-16
    outer loop
      vertex 17.8727 24.2 5.08955
      vertex 15.3907 24.2 5.28418
      vertex 16.875 24.2 4.25241
    endloop
  endfacet
  facet normal 0 -1 -2.22045e-16
    outer loop
      vertex 15.3907 24.2 5.28418
      vertex 14.6093 24.2 5.28418
      vertex 16.875 24.2 4.25241
    endloop
  endfacet
  facet normal 0 -1 -2.22045e-16
    outer loop
      vertex 13.875 24.2 5.55144
      vertex 11.4762 24.2 6.21742
      vertex 14.6093 24.2 5.28418
    endloop
  endfacet
  facet normal 0 -1 -2.22045e-16
    outer loop
      vertex 13.875 24.2 5.55144
      vertex 13.2764 24.2 6.05373
      vertex 11.4762 24.2 6.21742
    endloop
  endfacet
  facet normal 0 -1 -2.22045e-16
    outer loop
      vertex 16.7236 24.2 8.94627
      vertex 17.1143 24.2 8.26955
      vertex 18.5238 24.2 8.78258
    endloop
  endfacet
  facet normal 0 -1 -2.22045e-16
    outer loop
      vertex 12.75 24.2 7.5
      vertex 12.8857 24.2 8.26955
      vertex 11.4762 24.2 6.21742
    endloop
  endfacet
  facet normal 0 -1 -2.22045e-16
    outer loop
      vertex 13.2764 24.2 6.05373
      vertex 12.8857 24.2 6.73046
      vertex 11.4762 24.2 6.21742
    endloop
  endfacet
  facet normal 0 -1 -2.22045e-16
    outer loop
      vertex 36.4762 24.2 6.21742
      vertex 37.1273 24.2 5.08955
      vertex 38.125 24.2 4.25241
    endloop
  endfacet
  facet normal 0 -1 -2.22045e-16
    outer loop
      vertex 40.6512 24.2 3.80697
      vertex 36.4762 24.2 6.21742
      vertex 39.3488 24.2 3.80697
    endloop
  endfacet
  facet normal 0 -1 -2.22045e-16
    outer loop
      vertex 39.3488 24.2 3.80697
      vertex 36.4762 24.2 6.21742
      vertex 38.125 24.2 4.25241
    endloop
  endfacet
  facet normal 0 -1 -2.22045e-16
    outer loop
      vertex 41.875 24.2 4.25241
      vertex 36.4762 24.2 6.21742
      vertex 40.6512 24.2 3.80697
    endloop
  endfacet
  facet normal 0 -1 -2.22045e-16
    outer loop
      vertex 39.6093 24.2 5.28418
      vertex 36.4762 24.2 6.21742
      vertex 41.875 24.2 4.25241
    endloop
  endfacet
  facet normal 0 -1 -2.22045e-16
    outer loop
      vertex 41.125 24.2 5.55144
      vertex 40.3907 24.2 5.28418
      vertex 42.8727 24.2 5.08955
    endloop
  endfacet
  facet normal 0 -1 -2.22045e-16
    outer loop
      vertex 42.1143 24.2 6.73046
      vertex 41.7236 24.2 6.05373
      vertex 43.5238 24.2 6.21742
    endloop
  endfacet
  facet normal 0 -1 -2.22045e-16
    outer loop
      vertex 42.25 24.2 7.5
      vertex 42.1143 24.2 6.73046
      vertex 43.75 24.2 7.5
    endloop
  endfacet
  facet normal 0 -1 -2.22045e-16
    outer loop
      vertex 41.125 24.2 9.44856
      vertex 41.7236 24.2 8.94627
      vertex 42.8727 24.2 9.91045
    endloop
  endfacet
  facet normal 0 -1 -2.22045e-16
    outer loop
      vertex 38.125 24.2 10.7476
      vertex 36.4762 24.2 6.21742
      vertex 39.3488 24.2 11.193
    endloop
  endfacet
  facet normal 0 -1 -2.22045e-16
    outer loop
      vertex 37.1273 24.2 9.91045
      vertex 36.4762 24.2 6.21742
      vertex 38.125 24.2 10.7476
    endloop
  endfacet
  facet normal 0 -1 -2.22045e-16
    outer loop
      vertex 36.4762 24.2 8.78258
      vertex 36.4762 24.2 6.21742
      vertex 37.1273 24.2 9.91045
    endloop
  endfacet
  facet normal 0 -1 -2.22045e-16
    outer loop
      vertex 36.25 24.2 7.5
      vertex 36.4762 24.2 6.21742
      vertex 36.4762 24.2 8.78258
    endloop
  endfacet
  facet normal 0 -1 -2.22045e-16
    outer loop
      vertex 40.3907 24.2 9.71582
      vertex 41.125 24.2 9.44856
      vertex 41.875 24.2 10.7476
    endloop
  endfacet
  facet normal 0 -1 -2.22045e-16
    outer loop
      vertex 39.3488 24.2 11.193
      vertex 36.4762 24.2 6.21742
      vertex 37.8857 24.2 8.26955
    endloop
  endfacet
  facet normal 0 -1 -2.22045e-16
    outer loop
      vertex 39.3488 24.2 11.193
      vertex 38.2764 24.2 8.94627
      vertex 40.6512 24.2 11.193
    endloop
  endfacet
  facet normal 0 -1 -2.22045e-16
    outer loop
      vertex 39.3488 24.2 11.193
      vertex 37.8857 24.2 8.26955
      vertex 38.2764 24.2 8.94627
    endloop
  endfacet
  facet normal 0 -1 -2.22045e-16
    outer loop
      vertex 38.2764 24.2 8.94627
      vertex 38.875 24.2 9.44856
      vertex 40.6512 24.2 11.193
    endloop
  endfacet
  facet normal 0 -1 -2.22045e-16
    outer loop
      vertex 40.6512 24.2 11.193
      vertex 39.6093 24.2 9.71582
      vertex 41.875 24.2 10.7476
    endloop
  endfacet
  facet normal 0 -1 -2.22045e-16
    outer loop
      vertex 38.875 24.2 9.44856
      vertex 39.6093 24.2 9.71582
      vertex 40.6512 24.2 11.193
    endloop
  endfacet
  facet normal 0 -1 -2.22045e-16
    outer loop
      vertex 39.6093 24.2 9.71582
      vertex 40.3907 24.2 9.71582
      vertex 41.875 24.2 10.7476
    endloop
  endfacet
  facet normal 0 -1 -2.22045e-16
    outer loop
      vertex 41.875 24.2 10.7476
      vertex 41.125 24.2 9.44856
      vertex 42.8727 24.2 9.91045
    endloop
  endfacet
  facet normal 0 -1 -2.22045e-16
    outer loop
      vertex 42.8727 24.2 9.91045
      vertex 41.7236 24.2 8.94627
      vertex 43.5238 24.2 8.78258
    endloop
  endfacet
  facet normal 0 -1 -2.22045e-16
    outer loop
      vertex 43.5238 24.2 8.78258
      vertex 42.1143 24.2 8.26955
      vertex 43.75 24.2 7.5
    endloop
  endfacet
  facet normal 0 -1 -2.22045e-16
    outer loop
      vertex 42.1143 24.2 8.26955
      vertex 42.25 24.2 7.5
      vertex 43.75 24.2 7.5
    endloop
  endfacet
  facet normal 0 -1 -2.22045e-16
    outer loop
      vertex 43.75 24.2 7.5
      vertex 42.1143 24.2 6.73046
      vertex 43.5238 24.2 6.21742
    endloop
  endfacet
  facet normal 0 -1 -2.22045e-16
    outer loop
      vertex 37.8857 24.2 6.73046
      vertex 37.75 24.2 7.5
      vertex 36.4762 24.2 6.21742
    endloop
  endfacet
  facet normal 0 -1 -2.22045e-16
    outer loop
      vertex 43.5238 24.2 6.21742
      vertex 41.7236 24.2 6.05373
      vertex 42.8727 24.2 5.08955
    endloop
  endfacet
  facet normal 0 -1 -2.22045e-16
    outer loop
      vertex 41.7236 24.2 6.05373
      vertex 41.125 24.2 5.55144
      vertex 42.8727 24.2 5.08955
    endloop
  endfacet
  facet normal 0 -1 -2.22045e-16
    outer loop
      vertex 42.8727 24.2 5.08955
      vertex 40.3907 24.2 5.28418
      vertex 41.875 24.2 4.25241
    endloop
  endfacet
  facet normal 0 -1 -2.22045e-16
    outer loop
      vertex 40.3907 24.2 5.28418
      vertex 39.6093 24.2 5.28418
      vertex 41.875 24.2 4.25241
    endloop
  endfacet
  facet normal 0 -1 -2.22045e-16
    outer loop
      vertex 38.875 24.2 5.55144
      vertex 36.4762 24.2 6.21742
      vertex 39.6093 24.2 5.28418
    endloop
  endfacet
  facet normal 0 -1 -2.22045e-16
    outer loop
      vertex 38.875 24.2 5.55144
      vertex 38.2764 24.2 6.05373
      vertex 36.4762 24.2 6.21742
    endloop
  endfacet
  facet normal 0 -1 -2.22045e-16
    outer loop
      vertex 41.7236 24.2 8.94627
      vertex 42.1143 24.2 8.26955
      vertex 43.5238 24.2 8.78258
    endloop
  endfacet
  facet normal 0 -1 -2.22045e-16
    outer loop
      vertex 37.75 24.2 7.5
      vertex 37.8857 24.2 8.26955
      vertex 36.4762 24.2 6.21742
    endloop
  endfacet
  facet normal 0 -1 -2.22045e-16
    outer loop
      vertex 38.2764 24.2 6.05373
      vertex 37.8857 24.2 6.73046
      vertex 36.4762 24.2 6.21742
    endloop
  endfacet
  facet normal 0 1 2.22045e-16
    outer loop
      vertex 50.9634 25.1 10.9711
      vertex 52.4 25.1 12.1765
      vertex 50.0257 25.1 9.34691
    endloop
  endfacet
  facet normal 0 1 2.22045e-16
    outer loop
      vertex 50.0257 25.1 9.34691
      vertex 52.4 25.1 12.1765
      vertex 54.1623 25.1 12.818
    endloop
  endfacet
  facet normal 0 1 2.22045e-16
    outer loop
      vertex 50.0257 25.1 9.34691
      vertex 54.1623 25.1 12.818
      vertex 56.0377 25.1 12.818
    endloop
  endfacet
  facet normal 0 1 2.22045e-16
    outer loop
      vertex 50.0257 25.1 9.34691
      vertex 56.0377 25.1 12.818
      vertex 57.8 25.1 12.1765
    endloop
  endfacet
  facet normal 0 1 2.22045e-16
    outer loop
      vertex 54.6311 25.1 10.159
      vertex 57.8 25.1 12.1765
      vertex 59.2366 25.1 10.9711
    endloop
  endfacet
  facet normal 0 1 2.22045e-16
    outer loop
      vertex 56.45 25.1 9.83827
      vertex 59.2366 25.1 10.9711
      vertex 60.1743 25.1 9.34691
    endloop
  endfacet
  facet normal 0 1 2.22045e-16
    outer loop
      vertex 57.6372 25.1 8.42345
      vertex 60.1743 25.1 9.34691
      vertex 60.5 25.1 7.5
    endloop
  endfacet
  facet normal 0 1 2.22045e-16
    outer loop
      vertex 57.6372 25.1 6.57655
      vertex 60.5 25.1 7.5
      vertex 60.1743 25.1 5.65309
    endloop
  endfacet
  facet normal 0 1 2.22045e-16
    outer loop
      vertex 57.1683 25.1 5.76447
      vertex 60.1743 25.1 5.65309
      vertex 59.2366 25.1 4.02895
    endloop
  endfacet
  facet normal 0 1 2.22045e-16
    outer loop
      vertex 55.5688 25.1 4.84102
      vertex 59.2366 25.1 4.02895
      vertex 57.8 25.1 2.82346
    endloop
  endfacet
  facet normal 0 1 2.22045e-16
    outer loop
      vertex 53.75 25.1 5.16173
      vertex 57.8 25.1 2.82346
      vertex 56.0377 25.1 2.18204
    endloop
  endfacet
  facet normal 0 1 2.22045e-16
    outer loop
      vertex 53.0317 25.1 5.76447
      vertex 56.0377 25.1 2.18204
      vertex 54.1623 25.1 2.18204
    endloop
  endfacet
  facet normal 0 1 2.22045e-16
    outer loop
      vertex 50.0257 25.1 9.34691
      vertex 54.1623 25.1 2.18204
      vertex 52.4 25.1 2.82346
    endloop
  endfacet
  facet normal 0 1 2.22045e-16
    outer loop
      vertex 50.0257 25.1 9.34691
      vertex 52.4 25.1 2.82346
      vertex 50.9634 25.1 4.02895
    endloop
  endfacet
  facet normal 0 1 2.22045e-16
    outer loop
      vertex 50.0257 25.1 9.34691
      vertex 50.9634 25.1 4.02895
      vertex 50.0257 25.1 5.65309
    endloop
  endfacet
  facet normal 0 1 2.22045e-16
    outer loop
      vertex 50.0257 25.1 9.34691
      vertex 50.0257 25.1 5.65309
      vertex 49.7 25.1 7.5
    endloop
  endfacet
  facet normal 0 1 2.22045e-16
    outer loop
      vertex 52.5628 25.1 6.57655
      vertex 50.0257 25.1 9.34691
      vertex 52.4 25.1 7.5
    endloop
  endfacet
  facet normal 0 1 2.22045e-16
    outer loop
      vertex 53.0317 25.1 5.76447
      vertex 50.0257 25.1 9.34691
      vertex 52.5628 25.1 6.57655
    endloop
  endfacet
  facet normal 0 1 2.22045e-16
    outer loop
      vertex 53.75 25.1 5.16173
      vertex 56.0377 25.1 2.18204
      vertex 53.0317 25.1 5.76447
    endloop
  endfacet
  facet normal 0 1 2.22045e-16
    outer loop
      vertex 50.0257 25.1 9.34691
      vertex 53.0317 25.1 5.76447
      vertex 54.1623 25.1 2.18204
    endloop
  endfacet
  facet normal 0 1 2.22045e-16
    outer loop
      vertex 54.6311 25.1 4.84102
      vertex 57.8 25.1 2.82346
      vertex 53.75 25.1 5.16173
    endloop
  endfacet
  facet normal 0 1 2.22045e-16
    outer loop
      vertex 55.5688 25.1 4.84102
      vertex 57.8 25.1 2.82346
      vertex 54.6311 25.1 4.84102
    endloop
  endfacet
  facet normal 0 1 2.22045e-16
    outer loop
      vertex 56.45 25.1 5.16173
      vertex 59.2366 25.1 4.02895
      vertex 55.5688 25.1 4.84102
    endloop
  endfacet
  facet normal 0 1 2.22045e-16
    outer loop
      vertex 57.1683 25.1 5.76447
      vertex 59.2366 25.1 4.02895
      vertex 56.45 25.1 5.16173
    endloop
  endfacet
  facet normal 0 1 2.22045e-16
    outer loop
      vertex 57.8 25.1 7.5
      vertex 60.5 25.1 7.5
      vertex 57.6372 25.1 6.57655
    endloop
  endfacet
  facet normal 0 1 2.22045e-16
    outer loop
      vertex 57.6372 25.1 8.42345
      vertex 60.5 25.1 7.5
      vertex 57.8 25.1 7.5
    endloop
  endfacet
  facet normal 0 1 2.22045e-16
    outer loop
      vertex 57.1683 25.1 9.23553
      vertex 60.1743 25.1 9.34691
      vertex 57.6372 25.1 8.42345
    endloop
  endfacet
  facet normal 0 1 2.22045e-16
    outer loop
      vertex 56.45 25.1 9.83827
      vertex 60.1743 25.1 9.34691
      vertex 57.1683 25.1 9.23553
    endloop
  endfacet
  facet normal 0 1 2.22045e-16
    outer loop
      vertex 55.5688 25.1 10.159
      vertex 59.2366 25.1 10.9711
      vertex 56.45 25.1 9.83827
    endloop
  endfacet
  facet normal 0 1 2.22045e-16
    outer loop
      vertex 54.6311 25.1 10.159
      vertex 59.2366 25.1 10.9711
      vertex 55.5688 25.1 10.159
    endloop
  endfacet
  facet normal 0 1 2.22045e-16
    outer loop
      vertex 50.0257 25.1 9.34691
      vertex 57.8 25.1 12.1765
      vertex 54.6311 25.1 10.159
    endloop
  endfacet
  facet normal 0 1 2.22045e-16
    outer loop
      vertex 53.75 25.1 9.83827
      vertex 50.0257 25.1 9.34691
      vertex 54.6311 25.1 10.159
    endloop
  endfacet
  facet normal 0 1 2.22045e-16
    outer loop
      vertex 53.0317 25.1 9.23553
      vertex 50.0257 25.1 9.34691
      vertex 53.75 25.1 9.83827
    endloop
  endfacet
  facet normal 0 1 2.22045e-16
    outer loop
      vertex 52.5628 25.1 8.42345
      vertex 50.0257 25.1 9.34691
      vertex 53.0317 25.1 9.23553
    endloop
  endfacet
  facet normal 0 1 2.22045e-16
    outer loop
      vertex 52.4 25.1 7.5
      vertex 50.0257 25.1 9.34691
      vertex 52.5628 25.1 8.42345
    endloop
  endfacet
  facet normal 0 1 2.22045e-16
    outer loop
      vertex 57.6372 25.1 6.57655
      vertex 60.1743 25.1 5.65309
      vertex 57.1683 25.1 5.76447
    endloop
  endfacet
endsolid OpenSCAD_Model
