solid OpenSCAD_Model
  facet normal -0.965926 0.25882 0
    outer loop
      vertex -7.20131 3.6 0
      vertex -7.20131 3.6 30.2588
      vertex -7.0719 4.08296 0
    endloop
  endfacet
  facet normal -0.965926 0.25882 0
    outer loop
      vertex -7.0719 4.08296 0
      vertex -7.20131 3.6 30.2588
      vertex -7.0719 4.08296 30.2588
    endloop
  endfacet
  facet normal -1 -6.44111e-09 0
    outer loop
      vertex -7.20131 -1.72341 6.50388
      vertex -7.20131 -3.6 0
      vertex -7.20131 3.6 30.2588
    endloop
  endfacet
  facet normal -1 -6.44111e-09 0
    outer loop
      vertex -7.20131 3.6 30.2588
      vertex -7.20131 -3.6 0
      vertex -7.20131 -3.6 30.2588
    endloop
  endfacet
  facet normal -1 -6.44111e-09 0
    outer loop
      vertex -7.20131 3.6 0
      vertex -7.20131 1.72341 5.89612
      vertex -7.20131 3.6 30.2588
    endloop
  endfacet
  facet normal -1 -6.44111e-09 0
    outer loop
      vertex -7.20131 1.72341 5.89612
      vertex -7.20131 1.72341 6.50388
      vertex -7.20131 3.6 30.2588
    endloop
  endfacet
  facet normal -1 -6.44111e-09 0
    outer loop
      vertex -7.20131 0.598535 4.55554
      vertex -7.20131 -3.6 0
      vertex -7.20131 0 4.45
    endloop
  endfacet
  facet normal -1 -6.44111e-09 0
    outer loop
      vertex -7.20131 1.72341 6.50388
      vertex -7.20131 1.51554 7.075
      vertex -7.20131 3.6 30.2588
    endloop
  endfacet
  facet normal -1 -6.44111e-09 0
    outer loop
      vertex -7.20131 0 4.45
      vertex -7.20131 -3.6 0
      vertex -7.20131 -0.598535 4.55554
    endloop
  endfacet
  facet normal -1 -6.44111e-09 0
    outer loop
      vertex -7.20131 1.51554 7.075
      vertex -7.20131 1.12488 7.54058
      vertex -7.20131 3.6 30.2588
    endloop
  endfacet
  facet normal -1 -6.44111e-09 0
    outer loop
      vertex -7.20131 1.12488 7.54058
      vertex -7.20131 0.598535 7.84446
      vertex -7.20131 3.6 30.2588
    endloop
  endfacet
  facet normal -1 -6.44111e-09 0
    outer loop
      vertex -7.20131 -0.598535 4.55554
      vertex -7.20131 -3.6 0
      vertex -7.20131 -1.12488 4.85942
    endloop
  endfacet
  facet normal -1 -6.44111e-09 0
    outer loop
      vertex -7.20131 0.598535 7.84446
      vertex -7.20131 0 7.95
      vertex -7.20131 3.6 30.2588
    endloop
  endfacet
  facet normal -1 -6.44111e-09 0
    outer loop
      vertex -7.20131 -1.12488 4.85942
      vertex -7.20131 -3.6 0
      vertex -7.20131 -1.51554 5.325
    endloop
  endfacet
  facet normal -1 -6.44111e-09 0
    outer loop
      vertex -7.20131 0 7.95
      vertex -7.20131 -0.598535 7.84446
      vertex -7.20131 3.6 30.2588
    endloop
  endfacet
  facet normal -1 -6.44111e-09 0
    outer loop
      vertex -7.20131 -0.598535 7.84446
      vertex -7.20131 -1.12488 7.54058
      vertex -7.20131 3.6 30.2588
    endloop
  endfacet
  facet normal -1 -6.44111e-09 0
    outer loop
      vertex -7.20131 -1.51554 5.325
      vertex -7.20131 -3.6 0
      vertex -7.20131 -1.72341 5.89612
    endloop
  endfacet
  facet normal -1 -6.44111e-09 0
    outer loop
      vertex -7.20131 -1.12488 7.54058
      vertex -7.20131 -1.51554 7.075
      vertex -7.20131 3.6 30.2588
    endloop
  endfacet
  facet normal -1 -6.44111e-09 0
    outer loop
      vertex -7.20131 -1.51554 7.075
      vertex -7.20131 -1.72341 6.50388
      vertex -7.20131 3.6 30.2588
    endloop
  endfacet
  facet normal -1 -6.44111e-09 0
    outer loop
      vertex -7.20131 3.6 0
      vertex -7.20131 -3.6 0
      vertex -7.20131 0.598535 4.55554
    endloop
  endfacet
  facet normal -1 -6.44111e-09 0
    outer loop
      vertex -7.20131 3.6 0
      vertex -7.20131 0.598535 4.55554
      vertex -7.20131 1.12488 4.85942
    endloop
  endfacet
  facet normal -1 -6.44111e-09 0
    outer loop
      vertex -7.20131 3.6 0
      vertex -7.20131 1.12488 4.85942
      vertex -7.20131 1.51554 5.325
    endloop
  endfacet
  facet normal -1 -6.44111e-09 0
    outer loop
      vertex -7.20131 3.6 0
      vertex -7.20131 1.51554 5.325
      vertex -7.20131 1.72341 5.89612
    endloop
  endfacet
  facet normal -1 -6.44111e-09 0
    outer loop
      vertex -7.20131 -1.72341 5.89612
      vertex -7.20131 -3.6 0
      vertex -7.20131 -1.72341 6.50388
    endloop
  endfacet
  facet normal 0 0 -1
    outer loop
      vertex -7.20131 3.6 0
      vertex -7.0719 4.08296 0
      vertex -7.20131 -3.6 0
    endloop
  endfacet
  facet normal 0 0 -1
    outer loop
      vertex -7.20131 -3.6 0
      vertex -7.0719 4.08296 0
      vertex -6.71835 4.43652 0
    endloop
  endfacet
  facet normal 0 0 -1
    outer loop
      vertex -7.20131 -3.6 0
      vertex -6.71835 4.43652 0
      vertex -0.482963 8.03652 0
    endloop
  endfacet
  facet normal 0 0 -1
    outer loop
      vertex -7.20131 -3.6 0
      vertex -0.482963 8.03652 0
      vertex -4.6376e-08 8.16593 0
    endloop
  endfacet
  facet normal 0 0 -1
    outer loop
      vertex -7.20131 -3.6 0
      vertex -4.6376e-08 8.16593 0
      vertex 0.482963 8.03652 0
    endloop
  endfacet
  facet normal 0 0 -1
    outer loop
      vertex 0 4.38406 0
      vertex 0.482963 8.03652 0
      vertex 6.71835 4.43652 0
    endloop
  endfacet
  facet normal 0 0 -1
    outer loop
      vertex 4.38406 0 0
      vertex 7.20131 3.6 0
      vertex 7.20131 -3.6 0
    endloop
  endfacet
  facet normal 0 0 -1
    outer loop
      vertex 4.38406 0 0
      vertex 6.71835 -4.43652 0
      vertex 0 -4.38406 0
    endloop
  endfacet
  facet normal 0 0 -1
    outer loop
      vertex 4.38406 0 0
      vertex 7.0719 -4.08296 0
      vertex 6.71835 -4.43652 0
    endloop
  endfacet
  facet normal 0 0 -1
    outer loop
      vertex 0 -4.38406 0
      vertex 6.71835 -4.43652 0
      vertex 0.482963 -8.03652 0
    endloop
  endfacet
  facet normal 0 0 -1
    outer loop
      vertex -7.20131 -3.6 0
      vertex 0.482963 -8.03652 0
      vertex 4.6376e-08 -8.16593 0
    endloop
  endfacet
  facet normal 0 0 -1
    outer loop
      vertex -7.20131 -3.6 0
      vertex 4.6376e-08 -8.16593 0
      vertex -0.482963 -8.03652 0
    endloop
  endfacet
  facet normal 0 0 -1
    outer loop
      vertex -7.20131 -3.6 0
      vertex -0.482963 -8.03652 0
      vertex -6.71835 -4.43652 0
    endloop
  endfacet
  facet normal 0 0 -1
    outer loop
      vertex -7.20131 -3.6 0
      vertex -6.71835 -4.43652 0
      vertex -7.0719 -4.08296 0
    endloop
  endfacet
  facet normal 0 0 -1
    outer loop
      vertex -7.20131 -3.6 0
      vertex 0.482963 8.03652 0
      vertex -4.38406 0 0
    endloop
  endfacet
  facet normal 0 0 -1
    outer loop
      vertex 4.38406 0 0
      vertex 7.20131 -3.6 0
      vertex 7.0719 -4.08296 0
    endloop
  endfacet
  facet normal 0 0 -1
    outer loop
      vertex -7.20131 -3.6 0
      vertex 0 -4.38406 0
      vertex 0.482963 -8.03652 0
    endloop
  endfacet
  facet normal 0 0 -1
    outer loop
      vertex -4.38406 0 0
      vertex 0.482963 8.03652 0
      vertex 0 4.38406 0
    endloop
  endfacet
  facet normal 0 0 -1
    outer loop
      vertex 0 -4.38406 0
      vertex -7.20131 -3.6 0
      vertex -4.38406 0 0
    endloop
  endfacet
  facet normal 0 0 -1
    outer loop
      vertex 0 4.38406 0
      vertex 6.71835 4.43652 0
      vertex 7.0719 4.08296 0
    endloop
  endfacet
  facet normal 0 0 -1
    outer loop
      vertex 0 4.38406 0
      vertex 7.0719 4.08296 0
      vertex 7.20131 3.6 0
    endloop
  endfacet
  facet normal 0 0 -1
    outer loop
      vertex 0 4.38406 0
      vertex 7.20131 3.6 0
      vertex 4.38406 0 0
    endloop
  endfacet
  facet normal -0.707107 0.707107 0
    outer loop
      vertex -7.0719 4.08296 0
      vertex -7.0719 4.08296 30.2588
      vertex -6.71835 4.43652 0
    endloop
  endfacet
  facet normal -0.707107 0.707107 0
    outer loop
      vertex -6.71835 4.43652 0
      vertex -7.0719 4.08296 30.2588
      vertex -6.71835 4.43652 30.2588
    endloop
  endfacet
  facet normal -0.617565 0.617565 0.487059
    outer loop
      vertex -7.0719 4.08296 30.2588
      vertex -6.84775 3.95355 30.7071
      vertex -6.71835 4.43652 30.2588
    endloop
  endfacet
  facet normal -0.617565 0.617565 0.487059
    outer loop
      vertex -6.71835 4.43652 30.2588
      vertex -6.84775 3.95355 30.7071
      vertex -6.58894 4.21237 30.7071
    endloop
  endfacet
  facet normal -0.84361 0.226045 0.487059
    outer loop
      vertex -7.0719 4.08296 30.2588
      vertex -7.20131 3.6 30.2588
      vertex -6.84775 3.95355 30.7071
    endloop
  endfacet
  facet normal -0.84361 0.226046 0.487058
    outer loop
      vertex -6.84775 3.95355 30.7071
      vertex -7.20131 3.6 30.2588
      vertex -6.94249 3.6 30.7071
    endloop
  endfacet
  facet normal -0.866026 -5.57817e-09 0.5
    outer loop
      vertex -7.20131 3.6 30.2588
      vertex -7.20131 -3.6 30.2588
      vertex -6.94249 3.6 30.7071
    endloop
  endfacet
  facet normal -0.866026 -5.57817e-09 0.5
    outer loop
      vertex -6.94249 3.6 30.7071
      vertex -7.20131 -3.6 30.2588
      vertex -6.94249 -3.6 30.7071
    endloop
  endfacet
  facet normal -0.84361 -0.226045 0.487058
    outer loop
      vertex -6.94249 -3.6 30.7071
      vertex -7.20131 -3.6 30.2588
      vertex -7.0719 -4.08296 30.2588
    endloop
  endfacet
  facet normal -0.965926 -0.25882 0
    outer loop
      vertex -7.20131 -3.6 0
      vertex -7.0719 -4.08296 0
      vertex -7.20131 -3.6 30.2588
    endloop
  endfacet
  facet normal -0.965926 -0.25882 0
    outer loop
      vertex -7.20131 -3.6 30.2588
      vertex -7.0719 -4.08296 0
      vertex -7.0719 -4.08296 30.2588
    endloop
  endfacet
  facet normal -7.5944e-17 -0.939692 0.342021
    outer loop
      vertex -7.20131 1.51554 5.325
      vertex -2.86852 1.51554 5.325
      vertex -2.66065 1.72341 5.89612
    endloop
  endfacet
  facet normal -7.5944e-17 -0.939692 0.342021
    outer loop
      vertex -7.20131 1.72341 5.89612
      vertex -7.20131 1.51554 5.325
      vertex -2.66065 1.72341 5.89612
    endloop
  endfacet
  facet normal 0 -1 0
    outer loop
      vertex -2.66065 1.72341 5.89612
      vertex -2.66065 1.72341 6.50388
      vertex -7.20131 1.72341 6.50388
    endloop
  endfacet
  facet normal 0 -1 0
    outer loop
      vertex -7.20131 1.72341 5.89612
      vertex -2.66065 1.72341 5.89612
      vertex -7.20131 1.72341 6.50388
    endloop
  endfacet
  facet normal -1.42727e-16 -0.766045 0.642787
    outer loop
      vertex -7.20131 1.12488 4.85942
      vertex -3.25918 1.12488 4.85942
      vertex -2.86852 1.51554 5.325
    endloop
  endfacet
  facet normal -1.42727e-16 -0.766045 0.642787
    outer loop
      vertex -7.20131 1.51554 5.325
      vertex -7.20131 1.12488 4.85942
      vertex -2.86852 1.51554 5.325
    endloop
  endfacet
  facet normal -1.92296e-16 -0.5 0.866026
    outer loop
      vertex -7.20131 0.598535 4.55554
      vertex -3.78553 0.598535 4.55554
      vertex -3.25918 1.12488 4.85942
    endloop
  endfacet
  facet normal -1.92296e-16 -0.5 0.866026
    outer loop
      vertex -7.20131 1.12488 4.85942
      vertex -7.20131 0.598535 4.55554
      vertex -3.25918 1.12488 4.85942
    endloop
  endfacet
  facet normal -2.18671e-16 -0.173648 0.984808
    outer loop
      vertex -7.20131 0 4.45
      vertex -4.38406 0 4.45
      vertex -3.78553 0.598535 4.55554
    endloop
  endfacet
  facet normal -2.18671e-16 -0.173648 0.984808
    outer loop
      vertex -7.20131 0.598535 4.55554
      vertex -7.20131 0 4.45
      vertex -3.78553 0.598535 4.55554
    endloop
  endfacet
  facet normal -2.18671e-16 0.173648 0.984808
    outer loop
      vertex -7.20131 -0.598535 4.55554
      vertex -3.78553 -0.598535 4.55554
      vertex -4.38406 0 4.45
    endloop
  endfacet
  facet normal -2.18671e-16 0.173648 0.984808
    outer loop
      vertex -7.20131 0 4.45
      vertex -7.20131 -0.598535 4.55554
      vertex -4.38406 0 4.45
    endloop
  endfacet
  facet normal -1.92296e-16 0.5 0.866026
    outer loop
      vertex -7.20131 -1.12488 4.85942
      vertex -3.25918 -1.12488 4.85942
      vertex -3.78553 -0.598535 4.55554
    endloop
  endfacet
  facet normal -1.92296e-16 0.5 0.866026
    outer loop
      vertex -7.20131 -0.598535 4.55554
      vertex -7.20131 -1.12488 4.85942
      vertex -3.78553 -0.598535 4.55554
    endloop
  endfacet
  facet normal -1.42727e-16 0.766045 0.642787
    outer loop
      vertex -2.86852 -1.51554 5.325
      vertex -3.25918 -1.12488 4.85942
      vertex -7.20131 -1.51554 5.325
    endloop
  endfacet
  facet normal -1.42727e-16 0.766045 0.642787
    outer loop
      vertex -7.20131 -1.51554 5.325
      vertex -3.25918 -1.12488 4.85942
      vertex -7.20131 -1.12488 4.85942
    endloop
  endfacet
  facet normal -7.5944e-17 0.939692 0.342021
    outer loop
      vertex -2.66065 -1.72341 5.89612
      vertex -2.86852 -1.51554 5.325
      vertex -7.20131 -1.72341 5.89612
    endloop
  endfacet
  facet normal -7.5944e-17 0.939692 0.342021
    outer loop
      vertex -7.20131 -1.72341 5.89612
      vertex -2.86852 -1.51554 5.325
      vertex -7.20131 -1.51554 5.325
    endloop
  endfacet
  facet normal 0 1 0
    outer loop
      vertex -2.66065 -1.72341 6.50388
      vertex -2.66065 -1.72341 5.89612
      vertex -7.20131 -1.72341 6.50388
    endloop
  endfacet
  facet normal 0 1 0
    outer loop
      vertex -7.20131 -1.72341 6.50388
      vertex -2.66065 -1.72341 5.89612
      vertex -7.20131 -1.72341 5.89612
    endloop
  endfacet
  facet normal 7.5944e-17 0.939692 -0.342021
    outer loop
      vertex -2.66065 -1.72341 6.50388
      vertex -7.20131 -1.72341 6.50388
      vertex -2.86852 -1.51554 7.075
    endloop
  endfacet
  facet normal 7.5944e-17 0.939692 -0.342021
    outer loop
      vertex -2.86852 -1.51554 7.075
      vertex -7.20131 -1.72341 6.50388
      vertex -7.20131 -1.51554 7.075
    endloop
  endfacet
  facet normal 1.42727e-16 0.766045 -0.642787
    outer loop
      vertex -2.86852 -1.51554 7.075
      vertex -7.20131 -1.51554 7.075
      vertex -3.25918 -1.12488 7.54058
    endloop
  endfacet
  facet normal 1.42727e-16 0.766045 -0.642787
    outer loop
      vertex -3.25918 -1.12488 7.54058
      vertex -7.20131 -1.51554 7.075
      vertex -7.20131 -1.12488 7.54058
    endloop
  endfacet
  facet normal 1.92296e-16 0.5 -0.866026
    outer loop
      vertex -3.25918 -1.12488 7.54058
      vertex -7.20131 -1.12488 7.54058
      vertex -3.78553 -0.598535 7.84446
    endloop
  endfacet
  facet normal 1.92296e-16 0.5 -0.866026
    outer loop
      vertex -3.78553 -0.598535 7.84446
      vertex -7.20131 -1.12488 7.54058
      vertex -7.20131 -0.598535 7.84446
    endloop
  endfacet
  facet normal 2.18671e-16 0.173648 -0.984808
    outer loop
      vertex -3.78553 -0.598535 7.84446
      vertex -7.20131 -0.598535 7.84446
      vertex -4.38406 0 7.95
    endloop
  endfacet
  facet normal 2.18671e-16 0.173648 -0.984808
    outer loop
      vertex -4.38406 0 7.95
      vertex -7.20131 -0.598535 7.84446
      vertex -7.20131 0 7.95
    endloop
  endfacet
  facet normal 2.18671e-16 -0.173648 -0.984808
    outer loop
      vertex -4.38406 0 7.95
      vertex -7.20131 0 7.95
      vertex -3.78553 0.598535 7.84446
    endloop
  endfacet
  facet normal 2.18671e-16 -0.173648 -0.984808
    outer loop
      vertex -3.78553 0.598535 7.84446
      vertex -7.20131 0 7.95
      vertex -7.20131 0.598535 7.84446
    endloop
  endfacet
  facet normal 1.92296e-16 -0.5 -0.866026
    outer loop
      vertex -3.78553 0.598535 7.84446
      vertex -7.20131 0.598535 7.84446
      vertex -3.25918 1.12488 7.54058
    endloop
  endfacet
  facet normal 1.92296e-16 -0.5 -0.866026
    outer loop
      vertex -3.25918 1.12488 7.54058
      vertex -7.20131 0.598535 7.84446
      vertex -7.20131 1.12488 7.54058
    endloop
  endfacet
  facet normal 1.42727e-16 -0.766045 -0.642787
    outer loop
      vertex -2.86852 1.51554 7.075
      vertex -3.25918 1.12488 7.54058
      vertex -7.20131 1.12488 7.54058
    endloop
  endfacet
  facet normal 1.42727e-16 -0.766045 -0.642787
    outer loop
      vertex -7.20131 1.51554 7.075
      vertex -2.86852 1.51554 7.075
      vertex -7.20131 1.12488 7.54058
    endloop
  endfacet
  facet normal 7.5944e-17 -0.939692 -0.342021
    outer loop
      vertex -2.66065 1.72341 6.50388
      vertex -2.86852 1.51554 7.075
      vertex -7.20131 1.51554 7.075
    endloop
  endfacet
  facet normal 7.5944e-17 -0.939692 -0.342021
    outer loop
      vertex -7.20131 1.72341 6.50388
      vertex -2.66065 1.72341 6.50388
      vertex -7.20131 1.51554 7.075
    endloop
  endfacet
  facet normal -0.707107 -0.707107 0
    outer loop
      vertex -7.0719 -4.08296 30.2588
      vertex -7.0719 -4.08296 0
      vertex -6.71835 -4.43652 0
    endloop
  endfacet
  facet normal -0.707107 -0.707107 0
    outer loop
      vertex -6.71835 -4.43652 30.2588
      vertex -7.0719 -4.08296 30.2588
      vertex -6.71835 -4.43652 0
    endloop
  endfacet
  facet normal -0.5 -0.866025 0
    outer loop
      vertex -6.71835 -4.43652 30.2588
      vertex -6.71835 -4.43652 0
      vertex -0.482963 -8.03652 0
    endloop
  endfacet
  facet normal -0.5 -0.866025 0
    outer loop
      vertex -0.482963 -8.03652 30.2588
      vertex -6.71835 -4.43652 30.2588
      vertex -0.482963 -8.03652 0
    endloop
  endfacet
  facet normal -0.25882 -0.965926 0
    outer loop
      vertex -0.482963 -8.03652 30.2588
      vertex -0.482963 -8.03652 0
      vertex 4.6376e-08 -8.16593 0
    endloop
  endfacet
  facet normal -0.25882 -0.965926 0
    outer loop
      vertex 4.6376e-08 -8.16593 30.2588
      vertex -0.482963 -8.03652 30.2588
      vertex 4.6376e-08 -8.16593 0
    endloop
  endfacet
  facet normal 0.25882 -0.965926 0
    outer loop
      vertex 4.6376e-08 -8.16593 30.2588
      vertex 4.6376e-08 -8.16593 0
      vertex 0.482963 -8.03652 0
    endloop
  endfacet
  facet normal 0.25882 -0.965926 0
    outer loop
      vertex 0.482963 -8.03652 30.2588
      vertex 4.6376e-08 -8.16593 30.2588
      vertex 0.482963 -8.03652 0
    endloop
  endfacet
  facet normal 0.5 -0.866025 0
    outer loop
      vertex 0.482963 -8.03652 30.2588
      vertex 0.482963 -8.03652 0
      vertex 6.71835 -4.43652 0
    endloop
  endfacet
  facet normal 0.5 -0.866025 0
    outer loop
      vertex 6.71835 -4.43652 30.2588
      vertex 0.482963 -8.03652 30.2588
      vertex 6.71835 -4.43652 0
    endloop
  endfacet
  facet normal 0.707107 -0.707107 0
    outer loop
      vertex 6.71835 -4.43652 30.2588
      vertex 6.71835 -4.43652 0
      vertex 7.0719 -4.08296 0
    endloop
  endfacet
  facet normal 0.707107 -0.707107 0
    outer loop
      vertex 7.0719 -4.08296 30.2588
      vertex 6.71835 -4.43652 30.2588
      vertex 7.0719 -4.08296 0
    endloop
  endfacet
  facet normal 0.965926 -0.25882 0
    outer loop
      vertex 7.0719 -4.08296 30.2588
      vertex 7.0719 -4.08296 0
      vertex 7.20131 -3.6 0
    endloop
  endfacet
  facet normal 0.965926 -0.25882 0
    outer loop
      vertex 7.20131 -3.6 30.2588
      vertex 7.0719 -4.08296 30.2588
      vertex 7.20131 -3.6 0
    endloop
  endfacet
  facet normal 1 6.44111e-09 0
    outer loop
      vertex 7.20131 3.37523 27.3
      vertex 7.20131 3.6 0
      vertex 7.20131 3.6 30.2588
    endloop
  endfacet
  facet normal 1 6.44111e-09 0
    outer loop
      vertex 7.20131 3.37523 14.9
      vertex 7.20131 3.6 0
      vertex 7.20131 3.37523 27.3
    endloop
  endfacet
  facet normal 1 6.44111e-09 0
    outer loop
      vertex 7.20131 1.72341 6.50388
      vertex 7.20131 3.6 0
      vertex 7.20131 3.37523 14.9
    endloop
  endfacet
  facet normal 1 6.44111e-09 0
    outer loop
      vertex 7.20131 3.37523 14.9
      vertex 7.20131 -1.12488 7.54058
      vertex 7.20131 -0.598535 7.84446
    endloop
  endfacet
  facet normal 1 6.44111e-09 0
    outer loop
      vertex 7.20131 -3.6 30.2588
      vertex 7.20131 -3.6 0
      vertex 7.20131 -3.37523 14.9
    endloop
  endfacet
  facet normal 1 6.44111e-09 0
    outer loop
      vertex 7.20131 -3.6 30.2588
      vertex 7.20131 -3.37523 27.3
      vertex 7.20131 3.6 30.2588
    endloop
  endfacet
  facet normal 1 6.44111e-09 0
    outer loop
      vertex 7.20131 -3.6 30.2588
      vertex 7.20131 -3.37523 14.9
      vertex 7.20131 -3.37523 27.3
    endloop
  endfacet
  facet normal 1 6.44111e-09 0
    outer loop
      vertex 7.20131 1.51554 7.075
      vertex 7.20131 1.72341 6.50388
      vertex 7.20131 3.37523 14.9
    endloop
  endfacet
  facet normal 1 6.44111e-09 0
    outer loop
      vertex 7.20131 1.72341 5.89612
      vertex 7.20131 3.6 0
      vertex 7.20131 1.72341 6.50388
    endloop
  endfacet
  facet normal 1 6.44111e-09 0
    outer loop
      vertex 7.20131 1.51554 5.325
      vertex 7.20131 3.6 0
      vertex 7.20131 1.72341 5.89612
    endloop
  endfacet
  facet normal 1 6.44111e-09 0
    outer loop
      vertex 7.20131 1.12488 4.85942
      vertex 7.20131 3.6 0
      vertex 7.20131 1.51554 5.325
    endloop
  endfacet
  facet normal 1 6.44111e-09 0
    outer loop
      vertex 7.20131 -3.6 0
      vertex 7.20131 3.6 0
      vertex 7.20131 1.12488 4.85942
    endloop
  endfacet
  facet normal 1 6.44111e-09 0
    outer loop
      vertex 7.20131 -1.12488 4.85942
      vertex 7.20131 -1.51554 5.325
      vertex 7.20131 -3.6 0
    endloop
  endfacet
  facet normal 1 6.44111e-09 0
    outer loop
      vertex 7.20131 -3.6 0
      vertex 7.20131 0 4.45
      vertex 7.20131 -0.598535 4.55554
    endloop
  endfacet
  facet normal 1 6.44111e-09 0
    outer loop
      vertex 7.20131 0.598535 7.84446
      vertex 7.20131 1.12488 7.54058
      vertex 7.20131 3.37523 14.9
    endloop
  endfacet
  facet normal 1 6.44111e-09 0
    outer loop
      vertex 7.20131 -3.6 0
      vertex 7.20131 -0.598535 4.55554
      vertex 7.20131 -1.12488 4.85942
    endloop
  endfacet
  facet normal 1 6.44111e-09 0
    outer loop
      vertex 7.20131 -3.6 0
      vertex 7.20131 -1.51554 5.325
      vertex 7.20131 -1.72341 5.89612
    endloop
  endfacet
  facet normal 1 6.44111e-09 0
    outer loop
      vertex 7.20131 1.12488 4.85942
      vertex 7.20131 0.598535 4.55554
      vertex 7.20131 -3.6 0
    endloop
  endfacet
  facet normal 1 6.44111e-09 0
    outer loop
      vertex 7.20131 -3.6 0
      vertex 7.20131 -1.72341 5.89612
      vertex 7.20131 -1.72341 6.50388
    endloop
  endfacet
  facet normal 1 6.44111e-09 0
    outer loop
      vertex 7.20131 0.598535 4.55554
      vertex 7.20131 0 4.45
      vertex 7.20131 -3.6 0
    endloop
  endfacet
  facet normal 1 6.44111e-09 0
    outer loop
      vertex 7.20131 0 7.95
      vertex 7.20131 0.598535 7.84446
      vertex 7.20131 3.37523 14.9
    endloop
  endfacet
  facet normal 1 6.44111e-09 0
    outer loop
      vertex 7.20131 -0.598535 7.84446
      vertex 7.20131 0 7.95
      vertex 7.20131 3.37523 14.9
    endloop
  endfacet
  facet normal 1 6.44111e-09 0
    outer loop
      vertex 7.20131 1.12488 7.54058
      vertex 7.20131 1.51554 7.075
      vertex 7.20131 3.37523 14.9
    endloop
  endfacet
  facet normal 1 6.44111e-09 0
    outer loop
      vertex 7.20131 -3.37523 27.3
      vertex 7.20131 3.37523 27.3
      vertex 7.20131 3.6 30.2588
    endloop
  endfacet
  facet normal 1 6.44111e-09 0
    outer loop
      vertex 7.20131 3.37523 14.9
      vertex 7.20131 -1.51554 7.075
      vertex 7.20131 -1.12488 7.54058
    endloop
  endfacet
  facet normal 1 6.44111e-09 0
    outer loop
      vertex 7.20131 -1.72341 6.50388
      vertex 7.20131 -3.37523 14.9
      vertex 7.20131 -3.6 0
    endloop
  endfacet
  facet normal 1 6.44111e-09 0
    outer loop
      vertex 7.20131 -1.51554 7.075
      vertex 7.20131 -3.37523 14.9
      vertex 7.20131 -1.72341 6.50388
    endloop
  endfacet
  facet normal 1 6.44111e-09 0
    outer loop
      vertex 7.20131 3.37523 14.9
      vertex 7.20131 -3.37523 14.9
      vertex 7.20131 -1.51554 7.075
    endloop
  endfacet
  facet normal 0.965926 0.25882 0
    outer loop
      vertex 7.20131 3.6 0
      vertex 7.0719 4.08296 0
      vertex 7.0719 4.08296 30.2588
    endloop
  endfacet
  facet normal 0.965926 0.25882 0
    outer loop
      vertex 7.20131 3.6 30.2588
      vertex 7.20131 3.6 0
      vertex 7.0719 4.08296 30.2588
    endloop
  endfacet
  facet normal 0.707107 0.707107 0
    outer loop
      vertex 6.71835 4.43652 0
      vertex 6.71835 4.43652 30.2588
      vertex 7.0719 4.08296 0
    endloop
  endfacet
  facet normal 0.707107 0.707107 0
    outer loop
      vertex 7.0719 4.08296 0
      vertex 6.71835 4.43652 30.2588
      vertex 7.0719 4.08296 30.2588
    endloop
  endfacet
  facet normal 0.5 0.866025 0
    outer loop
      vertex 0.482963 8.03652 0
      vertex 0.482963 8.03652 30.2588
      vertex 6.71835 4.43652 0
    endloop
  endfacet
  facet normal 0.5 0.866025 0
    outer loop
      vertex 6.71835 4.43652 0
      vertex 0.482963 8.03652 30.2588
      vertex 6.71835 4.43652 30.2588
    endloop
  endfacet
  facet normal 0.25882 0.965926 0
    outer loop
      vertex -4.6376e-08 8.16593 0
      vertex -4.6376e-08 8.16593 30.2588
      vertex 0.482963 8.03652 0
    endloop
  endfacet
  facet normal 0.25882 0.965926 0
    outer loop
      vertex 0.482963 8.03652 0
      vertex -4.6376e-08 8.16593 30.2588
      vertex 0.482963 8.03652 30.2588
    endloop
  endfacet
  facet normal -0.25882 0.965926 0
    outer loop
      vertex -0.482963 8.03652 0
      vertex -0.482963 8.03652 30.2588
      vertex -4.6376e-08 8.16593 0
    endloop
  endfacet
  facet normal -0.25882 0.965926 0
    outer loop
      vertex -4.6376e-08 8.16593 0
      vertex -0.482963 8.03652 30.2588
      vertex -4.6376e-08 8.16593 30.2588
    endloop
  endfacet
  facet normal -0.5 0.866025 0
    outer loop
      vertex -6.71835 4.43652 0
      vertex -6.71835 4.43652 30.2588
      vertex -0.482963 8.03652 0
    endloop
  endfacet
  facet normal -0.5 0.866025 0
    outer loop
      vertex -0.482963 8.03652 0
      vertex -6.71835 4.43652 30.2588
      vertex -0.482963 8.03652 30.2588
    endloop
  endfacet
  facet normal 0.707107 -0.707107 0
    outer loop
      vertex 0 4.38406 0
      vertex 0 4.38406 12.39
      vertex -4.38406 0 12.39
    endloop
  endfacet
  facet normal 0.707107 -0.707107 0
    outer loop
      vertex -2.86852 1.51554 7.075
      vertex 0 4.38406 0
      vertex -4.38406 0 12.39
    endloop
  endfacet
  facet normal 0.707107 -0.707107 0
    outer loop
      vertex -4.38406 0 7.95
      vertex -3.78553 0.598535 7.84446
      vertex -4.38406 0 12.39
    endloop
  endfacet
  facet normal 0.707107 -0.707107 0
    outer loop
      vertex -3.78553 0.598535 7.84446
      vertex -3.25918 1.12488 7.54058
      vertex -4.38406 0 12.39
    endloop
  endfacet
  facet normal 0.707107 -0.707107 0
    outer loop
      vertex -3.25918 1.12488 7.54058
      vertex -2.86852 1.51554 7.075
      vertex -4.38406 0 12.39
    endloop
  endfacet
  facet normal 0.707107 -0.707107 0
    outer loop
      vertex -2.66065 1.72341 6.50388
      vertex 0 4.38406 0
      vertex -2.86852 1.51554 7.075
    endloop
  endfacet
  facet normal 0.707107 -0.707107 0
    outer loop
      vertex -2.66065 1.72341 5.89612
      vertex -2.86852 1.51554 5.325
      vertex 0 4.38406 0
    endloop
  endfacet
  facet normal 0.707107 -0.707107 0
    outer loop
      vertex -2.86852 1.51554 5.325
      vertex -3.25918 1.12488 4.85942
      vertex 0 4.38406 0
    endloop
  endfacet
  facet normal 0.707107 -0.707107 0
    outer loop
      vertex -3.78553 0.598535 4.55554
      vertex 0 4.38406 0
      vertex -3.25918 1.12488 4.85942
    endloop
  endfacet
  facet normal 0.707107 -0.707107 0
    outer loop
      vertex -4.38406 0 4.45
      vertex 0 4.38406 0
      vertex -3.78553 0.598535 4.55554
    endloop
  endfacet
  facet normal 0.707107 -0.707107 0
    outer loop
      vertex -4.38406 0 0
      vertex 0 4.38406 0
      vertex -4.38406 0 4.45
    endloop
  endfacet
  facet normal 0.707107 -0.707107 0
    outer loop
      vertex -2.66065 1.72341 6.50388
      vertex -2.66065 1.72341 5.89612
      vertex 0 4.38406 0
    endloop
  endfacet
  facet normal 0.707107 0.707107 0
    outer loop
      vertex -3.78553 -0.598535 4.55554
      vertex 0 -4.38406 0
      vertex -4.38406 0 4.45
    endloop
  endfacet
  facet normal 0.707107 0.707107 0
    outer loop
      vertex -3.78553 -0.598535 4.55554
      vertex -3.25918 -1.12488 4.85942
      vertex 0 -4.38406 0
    endloop
  endfacet
  facet normal 0.707107 0.707107 0
    outer loop
      vertex 0 -4.38406 0
      vertex -2.86852 -1.51554 5.325
      vertex 0 -4.38406 12.39
    endloop
  endfacet
  facet normal 0.707107 0.707107 0
    outer loop
      vertex -2.86852 -1.51554 5.325
      vertex -2.66065 -1.72341 5.89612
      vertex 0 -4.38406 12.39
    endloop
  endfacet
  facet normal 0.707107 0.707107 0
    outer loop
      vertex 0 -4.38406 12.39
      vertex -2.66065 -1.72341 6.50388
      vertex -4.38406 0 12.39
    endloop
  endfacet
  facet normal 0.707107 0.707107 0
    outer loop
      vertex -2.66065 -1.72341 6.50388
      vertex -2.86852 -1.51554 7.075
      vertex -4.38406 0 12.39
    endloop
  endfacet
  facet normal 0.707107 0.707107 0
    outer loop
      vertex -2.86852 -1.51554 7.075
      vertex -3.25918 -1.12488 7.54058
      vertex -4.38406 0 12.39
    endloop
  endfacet
  facet normal 0.707107 0.707107 0
    outer loop
      vertex -4.38406 0 12.39
      vertex -3.78553 -0.598535 7.84446
      vertex -4.38406 0 7.95
    endloop
  endfacet
  facet normal 0.707107 0.707107 0
    outer loop
      vertex -3.25918 -1.12488 7.54058
      vertex -3.78553 -0.598535 7.84446
      vertex -4.38406 0 12.39
    endloop
  endfacet
  facet normal 0.707107 0.707107 0
    outer loop
      vertex -2.66065 -1.72341 5.89612
      vertex -2.66065 -1.72341 6.50388
      vertex 0 -4.38406 12.39
    endloop
  endfacet
  facet normal 0.707107 0.707107 0
    outer loop
      vertex -3.25918 -1.12488 4.85942
      vertex -2.86852 -1.51554 5.325
      vertex 0 -4.38406 0
    endloop
  endfacet
  facet normal 0.707107 0.707107 0
    outer loop
      vertex 0 -4.38406 0
      vertex -4.38406 0 0
      vertex -4.38406 0 4.45
    endloop
  endfacet
  facet normal -0.707107 -0.707107 0
    outer loop
      vertex 2.86852 1.51554 5.325
      vertex 2.66065 1.72341 5.89612
      vertex 4.38406 0 0
    endloop
  endfacet
  facet normal -0.707107 -0.707107 0
    outer loop
      vertex 4.38406 0 0
      vertex 4.38406 0 4.45
      vertex 3.78553 0.598535 4.55554
    endloop
  endfacet
  facet normal -0.707107 -0.707107 0
    outer loop
      vertex 2.66065 1.72341 5.89612
      vertex 0 4.38406 12.39
      vertex 4.38406 0 0
    endloop
  endfacet
  facet normal -0.707107 -0.707107 0
    outer loop
      vertex 3.25918 1.12488 4.85942
      vertex 4.38406 0 0
      vertex 3.78553 0.598535 4.55554
    endloop
  endfacet
  facet normal -0.707107 -0.707107 0
    outer loop
      vertex 3.25918 1.12488 4.85942
      vertex 2.86852 1.51554 5.325
      vertex 4.38406 0 0
    endloop
  endfacet
  facet normal -0.707107 -0.707107 0
    outer loop
      vertex 2.66065 1.72341 6.50388
      vertex 0 4.38406 12.39
      vertex 2.66065 1.72341 5.89612
    endloop
  endfacet
  facet normal -0.707107 -0.707107 0
    outer loop
      vertex 2.86852 1.51554 7.075
      vertex 4.38406 0 12.39
      vertex 2.66065 1.72341 6.50388
    endloop
  endfacet
  facet normal -0.707107 -0.707107 0
    outer loop
      vertex 3.25918 1.12488 7.54058
      vertex 4.38406 0 12.39
      vertex 2.86852 1.51554 7.075
    endloop
  endfacet
  facet normal -0.707107 -0.707107 0
    outer loop
      vertex 3.78553 0.598535 7.84446
      vertex 4.38406 0 12.39
      vertex 3.25918 1.12488 7.54058
    endloop
  endfacet
  facet normal -0.707107 -0.707107 0
    outer loop
      vertex 4.38406 0 7.95
      vertex 4.38406 0 12.39
      vertex 3.78553 0.598535 7.84446
    endloop
  endfacet
  facet normal -0.707107 -0.707107 0
    outer loop
      vertex 4.38406 0 12.39
      vertex 0 4.38406 12.39
      vertex 2.66065 1.72341 6.50388
    endloop
  endfacet
  facet normal -0.707107 -0.707107 0
    outer loop
      vertex 0 4.38406 12.39
      vertex 0 4.38406 0
      vertex 4.38406 0 0
    endloop
  endfacet
  facet normal -0.707107 0.707107 0
    outer loop
      vertex 4.38406 0 12.39
      vertex 4.38406 0 7.95
      vertex 0 -4.38406 12.39
    endloop
  endfacet
  facet normal -0.707107 0.707107 0
    outer loop
      vertex 0 -4.38406 12.39
      vertex 4.38406 0 7.95
      vertex 3.78553 -0.598535 7.84446
    endloop
  endfacet
  facet normal -0.707107 0.707107 0
    outer loop
      vertex 0 -4.38406 12.39
      vertex 3.78553 -0.598535 7.84446
      vertex 3.25918 -1.12488 7.54058
    endloop
  endfacet
  facet normal -0.707107 0.707107 0
    outer loop
      vertex 3.25918 -1.12488 7.54058
      vertex 2.86852 -1.51554 7.075
      vertex 0 -4.38406 12.39
    endloop
  endfacet
  facet normal -0.707107 0.707107 0
    outer loop
      vertex 2.86852 -1.51554 7.075
      vertex 2.66065 -1.72341 6.50388
      vertex 0 -4.38406 12.39
    endloop
  endfacet
  facet normal -0.707107 0.707107 0
    outer loop
      vertex 2.66065 -1.72341 6.50388
      vertex 2.66065 -1.72341 5.89612
      vertex 0 -4.38406 12.39
    endloop
  endfacet
  facet normal -0.707107 0.707107 0
    outer loop
      vertex 2.66065 -1.72341 5.89612
      vertex 2.86852 -1.51554 5.325
      vertex 0 -4.38406 12.39
    endloop
  endfacet
  facet normal -0.707107 0.707107 0
    outer loop
      vertex 2.86852 -1.51554 5.325
      vertex 4.38406 0 0
      vertex 0 -4.38406 12.39
    endloop
  endfacet
  facet normal -0.707107 0.707107 0
    outer loop
      vertex 3.25918 -1.12488 4.85942
      vertex 4.38406 0 0
      vertex 2.86852 -1.51554 5.325
    endloop
  endfacet
  facet normal -0.707107 0.707107 0
    outer loop
      vertex 3.78553 -0.598535 4.55554
      vertex 4.38406 0 4.45
      vertex 4.38406 0 0
    endloop
  endfacet
  facet normal -0.707107 0.707107 0
    outer loop
      vertex 3.78553 -0.598535 4.55554
      vertex 4.38406 0 0
      vertex 3.25918 -1.12488 4.85942
    endloop
  endfacet
  facet normal -0.707107 0.707107 0
    outer loop
      vertex 0 -4.38406 12.39
      vertex 4.38406 0 0
      vertex 0 -4.38406 0
    endloop
  endfacet
  facet normal -0.433013 0.75 0.5
    outer loop
      vertex -6.71835 4.43652 30.2588
      vertex -6.58894 4.21237 30.7071
      vertex -0.482963 8.03652 30.2588
    endloop
  endfacet
  facet normal -0.433013 0.75 0.5
    outer loop
      vertex -0.482963 8.03652 30.2588
      vertex -6.58894 4.21237 30.7071
      vertex -0.353553 7.81237 30.7071
    endloop
  endfacet
  facet normal -0.362785 0.362785 0.858356
    outer loop
      vertex -6.58894 4.21237 30.7071
      vertex -6.84775 3.95355 30.7071
      vertex -6.45953 3.72941 30.9659
    endloop
  endfacet
  facet normal -0.362785 0.362785 0.858356
    outer loop
      vertex -6.36479 3.82414 30.9659
      vertex -6.58894 4.21237 30.7071
      vertex -6.45953 3.72941 30.9659
    endloop
  endfacet
  facet normal -0.25 0.433013 0.866025
    outer loop
      vertex -0.353553 7.81237 30.7071
      vertex -6.58894 4.21237 30.7071
      vertex -6.36479 3.82414 30.9659
    endloop
  endfacet
  facet normal -0.25 0.433013 0.866025
    outer loop
      vertex -0.12941 7.42414 30.9659
      vertex -0.353553 7.81237 30.7071
      vertex -6.36479 3.82414 30.9659
    endloop
  endfacet
  facet normal -0.495572 0.132789 0.858356
    outer loop
      vertex -6.84775 3.95355 30.7071
      vertex -6.94249 3.6 30.7071
      vertex -6.45953 3.72941 30.9659
    endloop
  endfacet
  facet normal -0.495572 0.132787 0.858357
    outer loop
      vertex -6.45953 3.72941 30.9659
      vertex -6.94249 3.6 30.7071
      vertex -6.4942 3.6 30.9659
    endloop
  endfacet
  facet normal -0.5 -3.22056e-09 0.866026
    outer loop
      vertex -6.4942 3.6 30.9659
      vertex -6.94249 3.6 30.7071
      vertex -6.94249 -3.6 30.7071
    endloop
  endfacet
  facet normal -0.5 -3.22056e-09 0.866026
    outer loop
      vertex -6.4942 -3.6 30.9659
      vertex -6.4942 3.6 30.9659
      vertex -6.94249 -3.6 30.7071
    endloop
  endfacet
  facet normal -0.495572 -0.132789 0.858356
    outer loop
      vertex -6.4942 -3.6 30.9659
      vertex -6.94249 -3.6 30.7071
      vertex -6.84775 -3.95355 30.7071
    endloop
  endfacet
  facet normal -0.843609 -0.226046 0.487059
    outer loop
      vertex -6.94249 -3.6 30.7071
      vertex -7.0719 -4.08296 30.2588
      vertex -6.84775 -3.95355 30.7071
    endloop
  endfacet
  facet normal -0.617565 -0.617565 0.487059
    outer loop
      vertex -6.84775 -3.95355 30.7071
      vertex -7.0719 -4.08296 30.2588
      vertex -6.71835 -4.43652 30.2588
    endloop
  endfacet
  facet normal -0.617565 -0.617565 0.487059
    outer loop
      vertex -6.58894 -4.21237 30.7071
      vertex -6.84775 -3.95355 30.7071
      vertex -6.71835 -4.43652 30.2588
    endloop
  endfacet
  facet normal -0.433013 -0.75 0.5
    outer loop
      vertex -6.58894 -4.21237 30.7071
      vertex -6.71835 -4.43652 30.2588
      vertex -0.482963 -8.03652 30.2588
    endloop
  endfacet
  facet normal -0.433013 -0.75 0.5
    outer loop
      vertex -0.353553 -7.81237 30.7071
      vertex -6.58894 -4.21237 30.7071
      vertex -0.482963 -8.03652 30.2588
    endloop
  endfacet
  facet normal -0.226045 -0.84361 0.487059
    outer loop
      vertex -0.353553 -7.81237 30.7071
      vertex -0.482963 -8.03652 30.2588
      vertex 4.6376e-08 -8.16593 30.2588
    endloop
  endfacet
  facet normal -0.226046 -0.84361 0.487058
    outer loop
      vertex 4.6376e-08 -7.90711 30.7071
      vertex -0.353553 -7.81237 30.7071
      vertex 4.6376e-08 -8.16593 30.2588
    endloop
  endfacet
  facet normal 0.226045 -0.84361 0.487058
    outer loop
      vertex 4.6376e-08 -7.90711 30.7071
      vertex 4.6376e-08 -8.16593 30.2588
      vertex 0.482963 -8.03652 30.2588
    endloop
  endfacet
  facet normal 0.226046 -0.843609 0.487059
    outer loop
      vertex 0.353553 -7.81237 30.7071
      vertex 4.6376e-08 -7.90711 30.7071
      vertex 0.482963 -8.03652 30.2588
    endloop
  endfacet
  facet normal 0.433013 -0.75 0.5
    outer loop
      vertex 6.58894 -4.21237 30.7071
      vertex 0.353553 -7.81237 30.7071
      vertex 0.482963 -8.03652 30.2588
    endloop
  endfacet
  facet normal 0.433013 -0.75 0.5
    outer loop
      vertex 6.71835 -4.43652 30.2588
      vertex 6.58894 -4.21237 30.7071
      vertex 0.482963 -8.03652 30.2588
    endloop
  endfacet
  facet normal 0.617565 -0.617565 0.487059
    outer loop
      vertex 6.84775 -3.95355 30.7071
      vertex 6.58894 -4.21237 30.7071
      vertex 6.71835 -4.43652 30.2588
    endloop
  endfacet
  facet normal 0.617565 -0.617565 0.487059
    outer loop
      vertex 7.0719 -4.08296 30.2588
      vertex 6.84775 -3.95355 30.7071
      vertex 6.71835 -4.43652 30.2588
    endloop
  endfacet
  facet normal 0.84361 -0.226045 0.487059
    outer loop
      vertex 7.20131 -3.6 30.2588
      vertex 6.84775 -3.95355 30.7071
      vertex 7.0719 -4.08296 30.2588
    endloop
  endfacet
  facet normal 0.84361 -0.226046 0.487058
    outer loop
      vertex 6.94249 -3.6 30.7071
      vertex 6.84775 -3.95355 30.7071
      vertex 7.20131 -3.6 30.2588
    endloop
  endfacet
  facet normal 0.866026 5.57817e-09 0.5
    outer loop
      vertex 7.20131 3.6 30.2588
      vertex 6.94249 3.6 30.7071
      vertex 6.94249 -3.6 30.7071
    endloop
  endfacet
  facet normal 0.866026 5.57817e-09 0.5
    outer loop
      vertex 7.20131 -3.6 30.2588
      vertex 7.20131 3.6 30.2588
      vertex 6.94249 -3.6 30.7071
    endloop
  endfacet
  facet normal 0.84361 0.226045 0.487058
    outer loop
      vertex 7.0719 4.08296 30.2588
      vertex 6.94249 3.6 30.7071
      vertex 7.20131 3.6 30.2588
    endloop
  endfacet
  facet normal 0 0 -1
    outer loop
      vertex 6.8625 3.96207 27.3
      vertex 7.20131 3.37523 27.3
      vertex -2.2875 3.96207 27.3
    endloop
  endfacet
  facet normal 0 0 -1
    outer loop
      vertex -2.2875 3.96207 27.3
      vertex 7.20131 3.37523 27.3
      vertex 7.20131 -3.37523 27.3
    endloop
  endfacet
  facet normal 0 0 -1
    outer loop
      vertex -2.2875 3.96207 27.3
      vertex 7.20131 -3.37523 27.3
      vertex 6.8625 -3.96207 27.3
    endloop
  endfacet
  facet normal 0 0 -1
    outer loop
      vertex -2.2875 3.96207 27.3
      vertex 6.8625 -3.96207 27.3
      vertex -2.2875 -3.96207 27.3
    endloop
  endfacet
  facet normal 0 0 -1
    outer loop
      vertex -2.2875 3.96207 27.3
      vertex -2.2875 -3.96207 27.3
      vertex -4.575 0 27.3
    endloop
  endfacet
  facet normal -0.866025 -0.5 0
    outer loop
      vertex 7.20131 3.37523 27.3
      vertex 6.8625 3.96207 27.3
      vertex 7.20131 3.37523 14.9
    endloop
  endfacet
  facet normal -0.866025 -0.5 0
    outer loop
      vertex 7.20131 3.37523 14.9
      vertex 6.8625 3.96207 27.3
      vertex 6.8625 3.96207 14.9
    endloop
  endfacet
  facet normal -0.866025 0.5 0
    outer loop
      vertex 7.20131 -3.37523 27.3
      vertex 7.20131 -3.37523 14.9
      vertex 6.8625 -3.96207 27.3
    endloop
  endfacet
  facet normal -0.866025 0.5 0
    outer loop
      vertex 6.8625 -3.96207 27.3
      vertex 7.20131 -3.37523 14.9
      vertex 6.8625 -3.96207 14.9
    endloop
  endfacet
  facet normal 0 0 1
    outer loop
      vertex -2.2875 -3.96207 14.9
      vertex 6.8625 -3.96207 14.9
      vertex 7.20131 -3.37523 14.9
    endloop
  endfacet
  facet normal 0 0 1
    outer loop
      vertex 6.8625 3.96207 14.9
      vertex -2.2875 -3.96207 14.9
      vertex 7.20131 3.37523 14.9
    endloop
  endfacet
  facet normal 0 0 1
    outer loop
      vertex 7.20131 3.37523 14.9
      vertex -2.2875 -3.96207 14.9
      vertex 7.20131 -3.37523 14.9
    endloop
  endfacet
  facet normal 0 0 1
    outer loop
      vertex -2.2875 3.96207 14.9
      vertex -2.2875 -3.96207 14.9
      vertex 6.8625 3.96207 14.9
    endloop
  endfacet
  facet normal 0 0 1
    outer loop
      vertex -4.575 0 14.9
      vertex -2.2875 -3.96207 14.9
      vertex -2.2875 3.96207 14.9
    endloop
  endfacet
  facet normal 0 -1 0
    outer loop
      vertex 7.20131 1.72341 5.89612
      vertex 7.20131 1.72341 6.50388
      vertex 2.66065 1.72341 6.50388
    endloop
  endfacet
  facet normal 0 -1 0
    outer loop
      vertex 2.66065 1.72341 5.89612
      vertex 7.20131 1.72341 5.89612
      vertex 2.66065 1.72341 6.50388
    endloop
  endfacet
  facet normal 7.5944e-17 -0.939692 -0.342021
    outer loop
      vertex 7.20131 1.72341 6.50388
      vertex 7.20131 1.51554 7.075
      vertex 2.86852 1.51554 7.075
    endloop
  endfacet
  facet normal 7.5944e-17 -0.939692 -0.342021
    outer loop
      vertex 2.66065 1.72341 6.50388
      vertex 7.20131 1.72341 6.50388
      vertex 2.86852 1.51554 7.075
    endloop
  endfacet
  facet normal 1.42727e-16 -0.766045 -0.642787
    outer loop
      vertex 7.20131 1.51554 7.075
      vertex 7.20131 1.12488 7.54058
      vertex 3.25918 1.12488 7.54058
    endloop
  endfacet
  facet normal 1.42727e-16 -0.766045 -0.642787
    outer loop
      vertex 2.86852 1.51554 7.075
      vertex 7.20131 1.51554 7.075
      vertex 3.25918 1.12488 7.54058
    endloop
  endfacet
  facet normal 1.92296e-16 -0.5 -0.866026
    outer loop
      vertex 7.20131 0.598535 7.84446
      vertex 3.78553 0.598535 7.84446
      vertex 7.20131 1.12488 7.54058
    endloop
  endfacet
  facet normal 1.92296e-16 -0.5 -0.866026
    outer loop
      vertex 7.20131 1.12488 7.54058
      vertex 3.78553 0.598535 7.84446
      vertex 3.25918 1.12488 7.54058
    endloop
  endfacet
  facet normal 2.18671e-16 -0.173648 -0.984808
    outer loop
      vertex 7.20131 0 7.95
      vertex 4.38406 0 7.95
      vertex 7.20131 0.598535 7.84446
    endloop
  endfacet
  facet normal 2.18671e-16 -0.173648 -0.984808
    outer loop
      vertex 7.20131 0.598535 7.84446
      vertex 4.38406 0 7.95
      vertex 3.78553 0.598535 7.84446
    endloop
  endfacet
  facet normal 2.18671e-16 0.173648 -0.984808
    outer loop
      vertex 7.20131 0 7.95
      vertex 7.20131 -0.598535 7.84446
      vertex 4.38406 0 7.95
    endloop
  endfacet
  facet normal 2.18671e-16 0.173648 -0.984808
    outer loop
      vertex 4.38406 0 7.95
      vertex 7.20131 -0.598535 7.84446
      vertex 3.78553 -0.598535 7.84446
    endloop
  endfacet
  facet normal 1.92296e-16 0.5 -0.866026
    outer loop
      vertex 7.20131 -0.598535 7.84446
      vertex 7.20131 -1.12488 7.54058
      vertex 3.78553 -0.598535 7.84446
    endloop
  endfacet
  facet normal 1.92296e-16 0.5 -0.866026
    outer loop
      vertex 3.78553 -0.598535 7.84446
      vertex 7.20131 -1.12488 7.54058
      vertex 3.25918 -1.12488 7.54058
    endloop
  endfacet
  facet normal 1.42727e-16 0.766045 -0.642787
    outer loop
      vertex 7.20131 -1.12488 7.54058
      vertex 7.20131 -1.51554 7.075
      vertex 3.25918 -1.12488 7.54058
    endloop
  endfacet
  facet normal 1.42727e-16 0.766045 -0.642787
    outer loop
      vertex 3.25918 -1.12488 7.54058
      vertex 7.20131 -1.51554 7.075
      vertex 2.86852 -1.51554 7.075
    endloop
  endfacet
  facet normal 7.5944e-17 0.939692 -0.342021
    outer loop
      vertex 7.20131 -1.51554 7.075
      vertex 7.20131 -1.72341 6.50388
      vertex 2.86852 -1.51554 7.075
    endloop
  endfacet
  facet normal 7.5944e-17 0.939692 -0.342021
    outer loop
      vertex 2.86852 -1.51554 7.075
      vertex 7.20131 -1.72341 6.50388
      vertex 2.66065 -1.72341 6.50388
    endloop
  endfacet
  facet normal 0 1 0
    outer loop
      vertex 7.20131 -1.72341 6.50388
      vertex 7.20131 -1.72341 5.89612
      vertex 2.66065 -1.72341 6.50388
    endloop
  endfacet
  facet normal 0 1 0
    outer loop
      vertex 2.66065 -1.72341 6.50388
      vertex 7.20131 -1.72341 5.89612
      vertex 2.66065 -1.72341 5.89612
    endloop
  endfacet
  facet normal -7.5944e-17 0.939692 0.342021
    outer loop
      vertex 7.20131 -1.51554 5.325
      vertex 2.86852 -1.51554 5.325
      vertex 7.20131 -1.72341 5.89612
    endloop
  endfacet
  facet normal -7.5944e-17 0.939692 0.342021
    outer loop
      vertex 7.20131 -1.72341 5.89612
      vertex 2.86852 -1.51554 5.325
      vertex 2.66065 -1.72341 5.89612
    endloop
  endfacet
  facet normal -1.42727e-16 0.766045 0.642787
    outer loop
      vertex 7.20131 -1.12488 4.85942
      vertex 3.25918 -1.12488 4.85942
      vertex 7.20131 -1.51554 5.325
    endloop
  endfacet
  facet normal -1.42727e-16 0.766045 0.642787
    outer loop
      vertex 7.20131 -1.51554 5.325
      vertex 3.25918 -1.12488 4.85942
      vertex 2.86852 -1.51554 5.325
    endloop
  endfacet
  facet normal -1.92296e-16 0.5 0.866026
    outer loop
      vertex 7.20131 -1.12488 4.85942
      vertex 7.20131 -0.598535 4.55554
      vertex 3.78553 -0.598535 4.55554
    endloop
  endfacet
  facet normal -1.92296e-16 0.5 0.866026
    outer loop
      vertex 3.25918 -1.12488 4.85942
      vertex 7.20131 -1.12488 4.85942
      vertex 3.78553 -0.598535 4.55554
    endloop
  endfacet
  facet normal -2.18671e-16 0.173648 0.984808
    outer loop
      vertex 7.20131 -0.598535 4.55554
      vertex 7.20131 0 4.45
      vertex 4.38406 0 4.45
    endloop
  endfacet
  facet normal -2.18671e-16 0.173648 0.984808
    outer loop
      vertex 3.78553 -0.598535 4.55554
      vertex 7.20131 -0.598535 4.55554
      vertex 4.38406 0 4.45
    endloop
  endfacet
  facet normal -2.18671e-16 -0.173648 0.984808
    outer loop
      vertex 4.38406 0 4.45
      vertex 7.20131 0 4.45
      vertex 7.20131 0.598535 4.55554
    endloop
  endfacet
  facet normal -2.18671e-16 -0.173648 0.984808
    outer loop
      vertex 3.78553 0.598535 4.55554
      vertex 4.38406 0 4.45
      vertex 7.20131 0.598535 4.55554
    endloop
  endfacet
  facet normal -1.92296e-16 -0.5 0.866026
    outer loop
      vertex 3.78553 0.598535 4.55554
      vertex 7.20131 0.598535 4.55554
      vertex 7.20131 1.12488 4.85942
    endloop
  endfacet
  facet normal -1.92296e-16 -0.5 0.866026
    outer loop
      vertex 3.25918 1.12488 4.85942
      vertex 3.78553 0.598535 4.55554
      vertex 7.20131 1.12488 4.85942
    endloop
  endfacet
  facet normal -1.42727e-16 -0.766045 0.642787
    outer loop
      vertex 3.25918 1.12488 4.85942
      vertex 7.20131 1.12488 4.85942
      vertex 7.20131 1.51554 5.325
    endloop
  endfacet
  facet normal -1.42727e-16 -0.766045 0.642787
    outer loop
      vertex 2.86852 1.51554 5.325
      vertex 3.25918 1.12488 4.85942
      vertex 7.20131 1.51554 5.325
    endloop
  endfacet
  facet normal -7.5944e-17 -0.939692 0.342021
    outer loop
      vertex 2.86852 1.51554 5.325
      vertex 7.20131 1.51554 5.325
      vertex 7.20131 1.72341 5.89612
    endloop
  endfacet
  facet normal -7.5944e-17 -0.939692 0.342021
    outer loop
      vertex 2.66065 1.72341 5.89612
      vertex 2.86852 1.51554 5.325
      vertex 7.20131 1.72341 5.89612
    endloop
  endfacet
  facet normal 0.617565 0.617565 0.487059
    outer loop
      vertex 6.58894 4.21237 30.7071
      vertex 6.84775 3.95355 30.7071
      vertex 6.71835 4.43652 30.2588
    endloop
  endfacet
  facet normal 0.617565 0.617565 0.487059
    outer loop
      vertex 6.71835 4.43652 30.2588
      vertex 6.84775 3.95355 30.7071
      vertex 7.0719 4.08296 30.2588
    endloop
  endfacet
  facet normal 0.843609 0.226046 0.487059
    outer loop
      vertex 7.0719 4.08296 30.2588
      vertex 6.84775 3.95355 30.7071
      vertex 6.94249 3.6 30.7071
    endloop
  endfacet
  facet normal 0.433013 0.75 0.5
    outer loop
      vertex 0.353553 7.81237 30.7071
      vertex 6.58894 4.21237 30.7071
      vertex 0.482963 8.03652 30.2588
    endloop
  endfacet
  facet normal 0.433013 0.75 0.5
    outer loop
      vertex 0.482963 8.03652 30.2588
      vertex 6.58894 4.21237 30.7071
      vertex 6.71835 4.43652 30.2588
    endloop
  endfacet
  facet normal 0.226045 0.84361 0.487059
    outer loop
      vertex 0.482963 8.03652 30.2588
      vertex -4.6376e-08 8.16593 30.2588
      vertex 0.353553 7.81237 30.7071
    endloop
  endfacet
  facet normal 0.226046 0.84361 0.487058
    outer loop
      vertex -4.6376e-08 8.16593 30.2588
      vertex -4.6376e-08 7.90711 30.7071
      vertex 0.353553 7.81237 30.7071
    endloop
  endfacet
  facet normal -0.226045 0.84361 0.487058
    outer loop
      vertex -4.6376e-08 8.16593 30.2588
      vertex -0.482963 8.03652 30.2588
      vertex -4.6376e-08 7.90711 30.7071
    endloop
  endfacet
  facet normal -0.226046 0.843609 0.487059
    outer loop
      vertex -4.6376e-08 7.90711 30.7071
      vertex -0.482963 8.03652 30.2588
      vertex -0.353553 7.81237 30.7071
    endloop
  endfacet
  facet normal 0 0 -1
    outer loop
      vertex 4.38406 0 12.39
      vertex 0 -4.38406 12.39
      vertex 0 4.38406 12.39
    endloop
  endfacet
  facet normal 0 0 -1
    outer loop
      vertex 0 4.38406 12.39
      vertex 0 -4.38406 12.39
      vertex -4.38406 0 12.39
    endloop
  endfacet
  facet normal -0.132789 0.495572 0.858356
    outer loop
      vertex -4.6376e-08 7.90711 30.7071
      vertex -0.353553 7.81237 30.7071
      vertex -4.6376e-08 7.45882 30.9659
    endloop
  endfacet
  facet normal -0.132787 0.495573 0.858356
    outer loop
      vertex -4.6376e-08 7.45882 30.9659
      vertex -0.353553 7.81237 30.7071
      vertex -0.12941 7.42414 30.9659
    endloop
  endfacet
  facet normal 0 0 1
    outer loop
      vertex -6.45953 3.72941 30.9659
      vertex -6.4942 3.6 30.9659
      vertex -6.4942 -3.6 30.9659
    endloop
  endfacet
  facet normal 0 0 1
    outer loop
      vertex -6.36479 -3.82414 30.9659
      vertex -6.45953 3.72941 30.9659
      vertex -6.45953 -3.72941 30.9659
    endloop
  endfacet
  facet normal 0 0 1
    outer loop
      vertex -6.45953 -3.72941 30.9659
      vertex -6.45953 3.72941 30.9659
      vertex -6.4942 -3.6 30.9659
    endloop
  endfacet
  facet normal 0 0 1
    outer loop
      vertex -0.12941 -7.42414 30.9659
      vertex -6.45953 3.72941 30.9659
      vertex -6.36479 -3.82414 30.9659
    endloop
  endfacet
  facet normal 0 0 1
    outer loop
      vertex 4.6376e-08 -7.45882 30.9659
      vertex -6.45953 3.72941 30.9659
      vertex -0.12941 -7.42414 30.9659
    endloop
  endfacet
  facet normal 0 0 1
    outer loop
      vertex 0.12941 -7.42414 30.9659
      vertex -6.45953 3.72941 30.9659
      vertex 4.6376e-08 -7.45882 30.9659
    endloop
  endfacet
  facet normal 0 0 1
    outer loop
      vertex -2.46669 -0.897803 30.9659
      vertex -6.45953 3.72941 30.9659
      vertex 0.12941 -7.42414 30.9659
    endloop
  endfacet
  facet normal 0 0 1
    outer loop
      vertex 0.455826 2.58512 30.9659
      vertex 1.3125 2.27332 30.9659
      vertex 6.4942 3.6 30.9659
    endloop
  endfacet
  facet normal 0 0 1
    outer loop
      vertex 6.45953 3.72941 30.9659
      vertex -6.45953 3.72941 30.9659
      vertex 6.4942 3.6 30.9659
    endloop
  endfacet
  facet normal 0 0 1
    outer loop
      vertex 6.36479 3.82414 30.9659
      vertex -6.45953 3.72941 30.9659
      vertex 6.45953 3.72941 30.9659
    endloop
  endfacet
  facet normal 0 0 1
    outer loop
      vertex 0.12941 7.42414 30.9659
      vertex -6.45953 3.72941 30.9659
      vertex 6.36479 3.82414 30.9659
    endloop
  endfacet
  facet normal 0 0 1
    outer loop
      vertex -4.6376e-08 7.45882 30.9659
      vertex -6.45953 3.72941 30.9659
      vertex 0.12941 7.42414 30.9659
    endloop
  endfacet
  facet normal 0 0 1
    outer loop
      vertex -0.12941 7.42414 30.9659
      vertex -6.45953 3.72941 30.9659
      vertex -4.6376e-08 7.45882 30.9659
    endloop
  endfacet
  facet normal 0 0 1
    outer loop
      vertex -6.36479 3.82414 30.9659
      vertex -6.45953 3.72941 30.9659
      vertex -0.12941 7.42414 30.9659
    endloop
  endfacet
  facet normal 0 0 1
    outer loop
      vertex -2.01087 -1.68732 30.9659
      vertex -2.46669 -0.897803 30.9659
      vertex 0.12941 -7.42414 30.9659
    endloop
  endfacet
  facet normal 0 0 1
    outer loop
      vertex -2.625 0 30.9659
      vertex -6.45953 3.72941 30.9659
      vertex -2.46669 -0.897803 30.9659
    endloop
  endfacet
  facet normal 0 0 1
    outer loop
      vertex -2.46669 0.897803 30.9659
      vertex -6.45953 3.72941 30.9659
      vertex -2.625 0 30.9659
    endloop
  endfacet
  facet normal 0 0 1
    outer loop
      vertex 2.46669 -0.897803 30.9659
      vertex 6.36479 -3.82414 30.9659
      vertex 6.45953 -3.72941 30.9659
    endloop
  endfacet
  facet normal 0 0 1
    outer loop
      vertex -1.3125 2.27332 30.9659
      vertex -6.45953 3.72941 30.9659
      vertex -2.01087 1.68732 30.9659
    endloop
  endfacet
  facet normal 0 0 1
    outer loop
      vertex 2.01087 1.68732 30.9659
      vertex 2.46669 0.897803 30.9659
      vertex 6.4942 -3.6 30.9659
    endloop
  endfacet
  facet normal 0 0 1
    outer loop
      vertex -0.455826 2.58512 30.9659
      vertex -6.45953 3.72941 30.9659
      vertex -1.3125 2.27332 30.9659
    endloop
  endfacet
  facet normal 0 0 1
    outer loop
      vertex 6.4942 3.6 30.9659
      vertex -6.45953 3.72941 30.9659
      vertex -0.455826 2.58512 30.9659
    endloop
  endfacet
  facet normal 0 0 1
    outer loop
      vertex 2.46669 -0.897803 30.9659
      vertex 6.45953 -3.72941 30.9659
      vertex 6.4942 -3.6 30.9659
    endloop
  endfacet
  facet normal 0 0 1
    outer loop
      vertex 6.4942 3.6 30.9659
      vertex -0.455826 2.58512 30.9659
      vertex 0.455826 2.58512 30.9659
    endloop
  endfacet
  facet normal 0 0 1
    outer loop
      vertex 6.4942 3.6 30.9659
      vertex 2.01087 1.68732 30.9659
      vertex 6.4942 -3.6 30.9659
    endloop
  endfacet
  facet normal 0 0 1
    outer loop
      vertex 6.4942 3.6 30.9659
      vertex 1.3125 2.27332 30.9659
      vertex 2.01087 1.68732 30.9659
    endloop
  endfacet
  facet normal 0 0 1
    outer loop
      vertex 2.46669 0.897803 30.9659
      vertex 2.625 0 30.9659
      vertex 6.4942 -3.6 30.9659
    endloop
  endfacet
  facet normal 0 0 1
    outer loop
      vertex 2.625 0 30.9659
      vertex 2.46669 -0.897803 30.9659
      vertex 6.4942 -3.6 30.9659
    endloop
  endfacet
  facet normal 0 0 1
    outer loop
      vertex 6.36479 -3.82414 30.9659
      vertex 1.3125 -2.27332 30.9659
      vertex 0.12941 -7.42414 30.9659
    endloop
  endfacet
  facet normal 0 0 1
    outer loop
      vertex 1.3125 -2.27332 30.9659
      vertex 0.455826 -2.58512 30.9659
      vertex 0.12941 -7.42414 30.9659
    endloop
  endfacet
  facet normal 0 0 1
    outer loop
      vertex 0.455826 -2.58512 30.9659
      vertex -0.455826 -2.58512 30.9659
      vertex 0.12941 -7.42414 30.9659
    endloop
  endfacet
  facet normal 0 0 1
    outer loop
      vertex -0.455826 -2.58512 30.9659
      vertex -1.3125 -2.27332 30.9659
      vertex 0.12941 -7.42414 30.9659
    endloop
  endfacet
  facet normal 0 0 1
    outer loop
      vertex -1.3125 -2.27332 30.9659
      vertex -2.01087 -1.68732 30.9659
      vertex 0.12941 -7.42414 30.9659
    endloop
  endfacet
  facet normal 0 0 1
    outer loop
      vertex 2.01087 -1.68732 30.9659
      vertex 1.3125 -2.27332 30.9659
      vertex 6.36479 -3.82414 30.9659
    endloop
  endfacet
  facet normal 0 0 1
    outer loop
      vertex -2.46669 0.897803 30.9659
      vertex -2.01087 1.68732 30.9659
      vertex -6.45953 3.72941 30.9659
    endloop
  endfacet
  facet normal 0 0 1
    outer loop
      vertex 2.46669 -0.897803 30.9659
      vertex 2.01087 -1.68732 30.9659
      vertex 6.36479 -3.82414 30.9659
    endloop
  endfacet
  facet normal -0.495573 -0.132787 0.858356
    outer loop
      vertex -6.4942 -3.6 30.9659
      vertex -6.84775 -3.95355 30.7071
      vertex -6.45953 -3.72941 30.9659
    endloop
  endfacet
  facet normal -0.362785 -0.362785 0.858356
    outer loop
      vertex -6.45953 -3.72941 30.9659
      vertex -6.84775 -3.95355 30.7071
      vertex -6.58894 -4.21237 30.7071
    endloop
  endfacet
  facet normal -0.362785 -0.362785 0.858356
    outer loop
      vertex -6.36479 -3.82414 30.9659
      vertex -6.45953 -3.72941 30.9659
      vertex -6.58894 -4.21237 30.7071
    endloop
  endfacet
  facet normal -0.25 -0.433013 0.866025
    outer loop
      vertex -6.36479 -3.82414 30.9659
      vertex -6.58894 -4.21237 30.7071
      vertex -0.353553 -7.81237 30.7071
    endloop
  endfacet
  facet normal -0.25 -0.433013 0.866025
    outer loop
      vertex -0.12941 -7.42414 30.9659
      vertex -6.36479 -3.82414 30.9659
      vertex -0.353553 -7.81237 30.7071
    endloop
  endfacet
  facet normal -0.132789 -0.495572 0.858356
    outer loop
      vertex -0.12941 -7.42414 30.9659
      vertex -0.353553 -7.81237 30.7071
      vertex 4.6376e-08 -7.90711 30.7071
    endloop
  endfacet
  facet normal -0.132787 -0.495572 0.858357
    outer loop
      vertex 4.6376e-08 -7.45882 30.9659
      vertex -0.12941 -7.42414 30.9659
      vertex 4.6376e-08 -7.90711 30.7071
    endloop
  endfacet
  facet normal 0.132789 -0.495572 0.858356
    outer loop
      vertex 4.6376e-08 -7.45882 30.9659
      vertex 4.6376e-08 -7.90711 30.7071
      vertex 0.353553 -7.81237 30.7071
    endloop
  endfacet
  facet normal 0.132787 -0.495573 0.858356
    outer loop
      vertex 0.12941 -7.42414 30.9659
      vertex 4.6376e-08 -7.45882 30.9659
      vertex 0.353553 -7.81237 30.7071
    endloop
  endfacet
  facet normal 0.25 -0.433013 0.866025
    outer loop
      vertex 6.36479 -3.82414 30.9659
      vertex 0.12941 -7.42414 30.9659
      vertex 0.353553 -7.81237 30.7071
    endloop
  endfacet
  facet normal 0.25 -0.433013 0.866025
    outer loop
      vertex 6.58894 -4.21237 30.7071
      vertex 6.36479 -3.82414 30.9659
      vertex 0.353553 -7.81237 30.7071
    endloop
  endfacet
  facet normal 0.362785 -0.362785 0.858356
    outer loop
      vertex 6.45953 -3.72941 30.9659
      vertex 6.36479 -3.82414 30.9659
      vertex 6.58894 -4.21237 30.7071
    endloop
  endfacet
  facet normal 0.362785 -0.362785 0.858356
    outer loop
      vertex 6.84775 -3.95355 30.7071
      vertex 6.45953 -3.72941 30.9659
      vertex 6.58894 -4.21237 30.7071
    endloop
  endfacet
  facet normal 0.495572 -0.132789 0.858356
    outer loop
      vertex 6.94249 -3.6 30.7071
      vertex 6.45953 -3.72941 30.9659
      vertex 6.84775 -3.95355 30.7071
    endloop
  endfacet
  facet normal 0.495572 -0.132787 0.858357
    outer loop
      vertex 6.4942 -3.6 30.9659
      vertex 6.45953 -3.72941 30.9659
      vertex 6.94249 -3.6 30.7071
    endloop
  endfacet
  facet normal 0.5 3.22056e-09 0.866026
    outer loop
      vertex 6.94249 3.6 30.7071
      vertex 6.4942 3.6 30.9659
      vertex 6.4942 -3.6 30.9659
    endloop
  endfacet
  facet normal 0.5 3.22056e-09 0.866026
    outer loop
      vertex 6.94249 -3.6 30.7071
      vertex 6.94249 3.6 30.7071
      vertex 6.4942 -3.6 30.9659
    endloop
  endfacet
  facet normal 0.495572 0.132789 0.858356
    outer loop
      vertex 6.84775 3.95355 30.7071
      vertex 6.4942 3.6 30.9659
      vertex 6.94249 3.6 30.7071
    endloop
  endfacet
  facet normal 0 -1 0
    outer loop
      vertex 6.8625 3.96207 14.9
      vertex 6.8625 3.96207 27.3
      vertex -2.2875 3.96207 27.3
    endloop
  endfacet
  facet normal 0 -1 0
    outer loop
      vertex -2.2875 3.96207 14.9
      vertex 6.8625 3.96207 14.9
      vertex -2.2875 3.96207 27.3
    endloop
  endfacet
  facet normal 0.866025 -0.5 0
    outer loop
      vertex -2.2875 3.96207 14.9
      vertex -2.2875 3.96207 27.3
      vertex -4.575 0 27.3
    endloop
  endfacet
  facet normal 0.866025 -0.5 0
    outer loop
      vertex -4.575 0 14.9
      vertex -2.2875 3.96207 14.9
      vertex -4.575 0 27.3
    endloop
  endfacet
  facet normal 0.866025 0.5 0
    outer loop
      vertex -4.575 0 27.3
      vertex -2.2875 -3.96207 27.3
      vertex -2.2875 -3.96207 14.9
    endloop
  endfacet
  facet normal 0.866025 0.5 0
    outer loop
      vertex -4.575 0 14.9
      vertex -4.575 0 27.3
      vertex -2.2875 -3.96207 14.9
    endloop
  endfacet
  facet normal 0 1 0
    outer loop
      vertex 6.8625 -3.96207 27.3
      vertex 6.8625 -3.96207 14.9
      vertex -2.2875 -3.96207 27.3
    endloop
  endfacet
  facet normal 0 1 0
    outer loop
      vertex -2.2875 -3.96207 27.3
      vertex 6.8625 -3.96207 14.9
      vertex -2.2875 -3.96207 14.9
    endloop
  endfacet
  facet normal 0.362785 0.362785 0.858356
    outer loop
      vertex 6.58894 4.21237 30.7071
      vertex 6.36479 3.82414 30.9659
      vertex 6.45953 3.72941 30.9659
    endloop
  endfacet
  facet normal 0.362785 0.362785 0.858356
    outer loop
      vertex 6.84775 3.95355 30.7071
      vertex 6.58894 4.21237 30.7071
      vertex 6.45953 3.72941 30.9659
    endloop
  endfacet
  facet normal 0.495573 0.132787 0.858356
    outer loop
      vertex 6.84775 3.95355 30.7071
      vertex 6.45953 3.72941 30.9659
      vertex 6.4942 3.6 30.9659
    endloop
  endfacet
  facet normal 0.25 0.433013 0.866025
    outer loop
      vertex 0.353553 7.81237 30.7071
      vertex 0.12941 7.42414 30.9659
      vertex 6.36479 3.82414 30.9659
    endloop
  endfacet
  facet normal 0.25 0.433013 0.866025
    outer loop
      vertex 6.58894 4.21237 30.7071
      vertex 0.353553 7.81237 30.7071
      vertex 6.36479 3.82414 30.9659
    endloop
  endfacet
  facet normal 0.132789 0.495572 0.858356
    outer loop
      vertex 0.353553 7.81237 30.7071
      vertex -4.6376e-08 7.90711 30.7071
      vertex 0.12941 7.42414 30.9659
    endloop
  endfacet
  facet normal 0.132787 0.495572 0.858357
    outer loop
      vertex -4.6376e-08 7.90711 30.7071
      vertex -4.6376e-08 7.45882 30.9659
      vertex 0.12941 7.42414 30.9659
    endloop
  endfacet
  facet normal 0.984808 0.173648 0
    outer loop
      vertex -2.625 0 30.9659
      vertex -2.46669 -0.897803 30.9659
      vertex -2.46669 -0.897803 27.6
    endloop
  endfacet
  facet normal 0.984808 0.173648 0
    outer loop
      vertex -2.625 0 27.6
      vertex -2.625 0 30.9659
      vertex -2.46669 -0.897803 27.6
    endloop
  endfacet
  facet normal 0.866025 0.5 0
    outer loop
      vertex -2.46669 -0.897803 30.9659
      vertex -2.01087 -1.68732 30.9659
      vertex -2.01087 -1.68732 27.6
    endloop
  endfacet
  facet normal 0.866025 0.5 0
    outer loop
      vertex -2.46669 -0.897803 27.6
      vertex -2.46669 -0.897803 30.9659
      vertex -2.01087 -1.68732 27.6
    endloop
  endfacet
  facet normal 0.642788 0.766044 0
    outer loop
      vertex -1.3125 -2.27332 30.9659
      vertex -1.3125 -2.27332 27.6
      vertex -2.01087 -1.68732 30.9659
    endloop
  endfacet
  facet normal 0.642788 0.766044 0
    outer loop
      vertex -2.01087 -1.68732 30.9659
      vertex -1.3125 -2.27332 27.6
      vertex -2.01087 -1.68732 27.6
    endloop
  endfacet
  facet normal 0.342019 0.939693 0
    outer loop
      vertex -0.455826 -2.58512 30.9659
      vertex -0.455826 -2.58512 27.6
      vertex -1.3125 -2.27332 30.9659
    endloop
  endfacet
  facet normal 0.342019 0.939693 0
    outer loop
      vertex -1.3125 -2.27332 30.9659
      vertex -0.455826 -2.58512 27.6
      vertex -1.3125 -2.27332 27.6
    endloop
  endfacet
  facet normal 0 1 0
    outer loop
      vertex 0.455826 -2.58512 30.9659
      vertex 0.455826 -2.58512 27.6
      vertex -0.455826 -2.58512 30.9659
    endloop
  endfacet
  facet normal 0 1 0
    outer loop
      vertex -0.455826 -2.58512 30.9659
      vertex 0.455826 -2.58512 27.6
      vertex -0.455826 -2.58512 27.6
    endloop
  endfacet
  facet normal -0.342019 0.939693 0
    outer loop
      vertex 1.3125 -2.27332 30.9659
      vertex 1.3125 -2.27332 27.6
      vertex 0.455826 -2.58512 30.9659
    endloop
  endfacet
  facet normal -0.342019 0.939693 0
    outer loop
      vertex 0.455826 -2.58512 30.9659
      vertex 1.3125 -2.27332 27.6
      vertex 0.455826 -2.58512 27.6
    endloop
  endfacet
  facet normal -0.642788 0.766044 0
    outer loop
      vertex 2.01087 -1.68732 30.9659
      vertex 2.01087 -1.68732 27.6
      vertex 1.3125 -2.27332 30.9659
    endloop
  endfacet
  facet normal -0.642788 0.766044 0
    outer loop
      vertex 1.3125 -2.27332 30.9659
      vertex 2.01087 -1.68732 27.6
      vertex 1.3125 -2.27332 27.6
    endloop
  endfacet
  facet normal -0.866025 0.5 0
    outer loop
      vertex 2.46669 -0.897803 30.9659
      vertex 2.46669 -0.897803 27.6
      vertex 2.01087 -1.68732 30.9659
    endloop
  endfacet
  facet normal -0.866025 0.5 0
    outer loop
      vertex 2.01087 -1.68732 30.9659
      vertex 2.46669 -0.897803 27.6
      vertex 2.01087 -1.68732 27.6
    endloop
  endfacet
  facet normal -0.984808 0.173648 0
    outer loop
      vertex 2.625 0 30.9659
      vertex 2.625 0 27.6
      vertex 2.46669 -0.897803 30.9659
    endloop
  endfacet
  facet normal -0.984808 0.173648 0
    outer loop
      vertex 2.46669 -0.897803 30.9659
      vertex 2.625 0 27.6
      vertex 2.46669 -0.897803 27.6
    endloop
  endfacet
  facet normal -0.984808 -0.173648 0
    outer loop
      vertex 2.625 0 30.9659
      vertex 2.46669 0.897803 30.9659
      vertex 2.625 0 27.6
    endloop
  endfacet
  facet normal -0.984808 -0.173648 0
    outer loop
      vertex 2.625 0 27.6
      vertex 2.46669 0.897803 30.9659
      vertex 2.46669 0.897803 27.6
    endloop
  endfacet
  facet normal -0.866025 -0.5 0
    outer loop
      vertex 2.46669 0.897803 30.9659
      vertex 2.01087 1.68732 30.9659
      vertex 2.46669 0.897803 27.6
    endloop
  endfacet
  facet normal -0.866025 -0.5 0
    outer loop
      vertex 2.46669 0.897803 27.6
      vertex 2.01087 1.68732 30.9659
      vertex 2.01087 1.68732 27.6
    endloop
  endfacet
  facet normal -0.642788 -0.766044 0
    outer loop
      vertex 2.01087 1.68732 27.6
      vertex 2.01087 1.68732 30.9659
      vertex 1.3125 2.27332 30.9659
    endloop
  endfacet
  facet normal -0.642788 -0.766044 0
    outer loop
      vertex 1.3125 2.27332 27.6
      vertex 2.01087 1.68732 27.6
      vertex 1.3125 2.27332 30.9659
    endloop
  endfacet
  facet normal -0.342019 -0.939693 0
    outer loop
      vertex 1.3125 2.27332 27.6
      vertex 1.3125 2.27332 30.9659
      vertex 0.455826 2.58512 30.9659
    endloop
  endfacet
  facet normal -0.342019 -0.939693 0
    outer loop
      vertex 0.455826 2.58512 27.6
      vertex 1.3125 2.27332 27.6
      vertex 0.455826 2.58512 30.9659
    endloop
  endfacet
  facet normal 0 -1 0
    outer loop
      vertex 0.455826 2.58512 27.6
      vertex 0.455826 2.58512 30.9659
      vertex -0.455826 2.58512 30.9659
    endloop
  endfacet
  facet normal 0 -1 0
    outer loop
      vertex -0.455826 2.58512 27.6
      vertex 0.455826 2.58512 27.6
      vertex -0.455826 2.58512 30.9659
    endloop
  endfacet
  facet normal 0.342019 -0.939693 0
    outer loop
      vertex -0.455826 2.58512 27.6
      vertex -0.455826 2.58512 30.9659
      vertex -1.3125 2.27332 30.9659
    endloop
  endfacet
  facet normal 0.342019 -0.939693 0
    outer loop
      vertex -1.3125 2.27332 27.6
      vertex -0.455826 2.58512 27.6
      vertex -1.3125 2.27332 30.9659
    endloop
  endfacet
  facet normal 0.642788 -0.766044 0
    outer loop
      vertex -1.3125 2.27332 27.6
      vertex -1.3125 2.27332 30.9659
      vertex -2.01087 1.68732 30.9659
    endloop
  endfacet
  facet normal 0.642788 -0.766044 0
    outer loop
      vertex -2.01087 1.68732 27.6
      vertex -1.3125 2.27332 27.6
      vertex -2.01087 1.68732 30.9659
    endloop
  endfacet
  facet normal 0.866025 -0.5 0
    outer loop
      vertex -2.01087 1.68732 27.6
      vertex -2.01087 1.68732 30.9659
      vertex -2.46669 0.897803 30.9659
    endloop
  endfacet
  facet normal 0.866025 -0.5 0
    outer loop
      vertex -2.46669 0.897803 27.6
      vertex -2.01087 1.68732 27.6
      vertex -2.46669 0.897803 30.9659
    endloop
  endfacet
  facet normal 0.984808 -0.173648 0
    outer loop
      vertex -2.46669 0.897803 27.6
      vertex -2.46669 0.897803 30.9659
      vertex -2.625 0 30.9659
    endloop
  endfacet
  facet normal 0.984808 -0.173648 0
    outer loop
      vertex -2.625 0 27.6
      vertex -2.46669 0.897803 27.6
      vertex -2.625 0 30.9659
    endloop
  endfacet
  facet normal 0 0 1
    outer loop
      vertex -2.46669 -0.897803 27.6
      vertex -2.01087 -1.68732 27.6
      vertex -1.3125 -2.27332 27.6
    endloop
  endfacet
  facet normal 0 0 1
    outer loop
      vertex 0.455826 -2.58512 27.6
      vertex -2.46669 -0.897803 27.6
      vertex -0.455826 -2.58512 27.6
    endloop
  endfacet
  facet normal 0 0 1
    outer loop
      vertex -0.455826 -2.58512 27.6
      vertex -2.46669 -0.897803 27.6
      vertex -1.3125 -2.27332 27.6
    endloop
  endfacet
  facet normal 0 0 1
    outer loop
      vertex 1.3125 -2.27332 27.6
      vertex -2.46669 -0.897803 27.6
      vertex 0.455826 -2.58512 27.6
    endloop
  endfacet
  facet normal 0 0 1
    outer loop
      vertex 2.01087 -1.68732 27.6
      vertex -2.46669 -0.897803 27.6
      vertex 1.3125 -2.27332 27.6
    endloop
  endfacet
  facet normal 0 0 1
    outer loop
      vertex 2.46669 -0.897803 27.6
      vertex -2.46669 -0.897803 27.6
      vertex 2.01087 -1.68732 27.6
    endloop
  endfacet
  facet normal 0 0 1
    outer loop
      vertex 2.625 0 27.6
      vertex -2.46669 -0.897803 27.6
      vertex 2.46669 -0.897803 27.6
    endloop
  endfacet
  facet normal 0 0 1
    outer loop
      vertex 2.46669 0.897803 27.6
      vertex -2.46669 -0.897803 27.6
      vertex 2.625 0 27.6
    endloop
  endfacet
  facet normal 0 0 1
    outer loop
      vertex 2.01087 1.68732 27.6
      vertex -2.46669 -0.897803 27.6
      vertex 2.46669 0.897803 27.6
    endloop
  endfacet
  facet normal 0 0 1
    outer loop
      vertex 1.3125 2.27332 27.6
      vertex -2.46669 -0.897803 27.6
      vertex 2.01087 1.68732 27.6
    endloop
  endfacet
  facet normal 0 0 1
    outer loop
      vertex 0.455826 2.58512 27.6
      vertex -2.46669 -0.897803 27.6
      vertex 1.3125 2.27332 27.6
    endloop
  endfacet
  facet normal 0 0 1
    outer loop
      vertex -0.455826 2.58512 27.6
      vertex -2.46669 -0.897803 27.6
      vertex 0.455826 2.58512 27.6
    endloop
  endfacet
  facet normal 0 0 1
    outer loop
      vertex -1.3125 2.27332 27.6
      vertex -2.46669 -0.897803 27.6
      vertex -0.455826 2.58512 27.6
    endloop
  endfacet
  facet normal 0 0 1
    outer loop
      vertex -2.01087 1.68732 27.6
      vertex -2.46669 -0.897803 27.6
      vertex -1.3125 2.27332 27.6
    endloop
  endfacet
  facet normal 0 0 1
    outer loop
      vertex -2.46669 0.897803 27.6
      vertex -2.46669 -0.897803 27.6
      vertex -2.01087 1.68732 27.6
    endloop
  endfacet
  facet normal 0 0 1
    outer loop
      vertex -2.625 0 27.6
      vertex -2.46669 -0.897803 27.6
      vertex -2.46669 0.897803 27.6
    endloop
  endfacet
endsolid OpenSCAD_Model
