solid OpenSCAD_Model
  facet normal 0 0.997564 0.0697565
    outer loop
      vertex -8.4 0 6.27461
      vertex -4.77735 -0.437695 12.5339
      vertex -4.77735 0.437695 0.0152846
    endloop
  endfacet
  facet normal 0 0.997564 0.0697565
    outer loop
      vertex -4.2 -0.292977 10.4644
      vertex -4.77735 -0.437695 12.5339
      vertex 4.77735 -0.437695 12.5339
    endloop
  endfacet
  facet normal 0 0.997564 0.0697565
    outer loop
      vertex 4.2 -0.292977 10.4644
      vertex 4.77735 -0.437695 12.5339
      vertex 8.4 0 6.27461
    endloop
  endfacet
  facet normal 0 0.997564 0.0697565
    outer loop
      vertex 4.2 0.292977 2.08484
      vertex 8.4 0 6.27461
      vertex 4.77735 0.437695 0.0152846
    endloop
  endfacet
  facet normal 0 0.997564 0.0697565
    outer loop
      vertex -4.77735 0.437695 0.0152846
      vertex -4.77735 -0.437695 12.5339
      vertex -4.2 -0.292977 10.4644
    endloop
  endfacet
  facet normal 0 0.997564 0.0697565
    outer loop
      vertex 4.2 0.292977 2.08484
      vertex -4.77735 0.437695 0.0152846
      vertex -4.2 0.292977 2.08484
    endloop
  endfacet
  facet normal 0 0.997564 0.0697565
    outer loop
      vertex -4.77735 0.437695 0.0152846
      vertex -4.2 -0.292977 10.4644
      vertex -4.2 0.292977 2.08484
    endloop
  endfacet
  facet normal 0 0.997564 0.0697565
    outer loop
      vertex 4.2 -0.292977 10.4644
      vertex 8.4 0 6.27461
      vertex 4.2 0.292977 2.08484
    endloop
  endfacet
  facet normal 0 0.997564 0.0697565
    outer loop
      vertex -4.77735 0.437695 0.0152846
      vertex 4.2 0.292977 2.08484
      vertex 4.77735 0.437695 0.0152846
    endloop
  endfacet
  facet normal 0 0.997564 0.0697565
    outer loop
      vertex -4.2 -0.292977 10.4644
      vertex 4.77735 -0.437695 12.5339
      vertex 4.2 -0.292977 10.4644
    endloop
  endfacet
  facet normal -0.866025 -0.0348782 0.498782
    outer loop
      vertex -8.4 0 6.27461
      vertex -8.4 -39.9026 3.48435
      vertex -4.77735 -0.437695 12.5339
    endloop
  endfacet
  facet normal -0.866025 -0.0348782 0.498782
    outer loop
      vertex -4.77735 -0.437695 12.5339
      vertex -8.4 -39.9026 3.48435
      vertex -6.39224 -40.1451 6.95342
    endloop
  endfacet
  facet normal -0.866025 0.0348782 -0.498782
    outer loop
      vertex -8.4 0 6.27461
      vertex -4.77735 0.437695 0.0152846
      vertex -8.4 -39.9026 3.48435
    endloop
  endfacet
  facet normal -0.866025 0.0348782 -0.498782
    outer loop
      vertex -8.4 -39.9026 3.48435
      vertex -4.77735 0.437695 0.0152846
      vertex -6.39224 -39.66 0.0152846
    endloop
  endfacet
  facet normal 0 -1.10752e-16 -1
    outer loop
      vertex 2.9625 -22.1172 0.0152846
      vertex 6.39224 -39.66 0.0152846
      vertex 2.9625 -37.1539 0.0152846
    endloop
  endfacet
  facet normal 0 -1.10752e-16 -1
    outer loop
      vertex 2.9625 -22.1172 0.0152846
      vertex -4.77735 0.437695 0.0152846
      vertex 4.77735 0.437695 0.0152846
    endloop
  endfacet
  facet normal 0 -1.10752e-16 -1
    outer loop
      vertex -6.39224 -39.66 0.0152846
      vertex -4.77735 0.437695 0.0152846
      vertex -2.9625 -22.1172 0.0152846
    endloop
  endfacet
  facet normal 0 -1.10752e-16 -1
    outer loop
      vertex -6.39224 -39.66 0.0152846
      vertex -2.9625 -22.1172 0.0152846
      vertex -2.9625 -37.1539 0.0152846
    endloop
  endfacet
  facet normal 0 -1.10752e-16 -1
    outer loop
      vertex -6.39224 -39.66 0.0152846
      vertex -2.9625 -37.1539 0.0152846
      vertex 6.39224 -39.66 0.0152846
    endloop
  endfacet
  facet normal 0 -1.10752e-16 -1
    outer loop
      vertex -2.9625 -37.1539 0.0152846
      vertex 2.9625 -37.1539 0.0152846
      vertex 6.39224 -39.66 0.0152846
    endloop
  endfacet
  facet normal 0 -1.10752e-16 -1
    outer loop
      vertex 6.39224 -39.66 0.0152846
      vertex 2.9625 -22.1172 0.0152846
      vertex 4.77735 0.437695 0.0152846
    endloop
  endfacet
  facet normal 0 -1.10752e-16 -1
    outer loop
      vertex -2.9625 -22.1172 0.0152846
      vertex -4.77735 0.437695 0.0152846
      vertex 2.9625 -22.1172 0.0152846
    endloop
  endfacet
  facet normal 0.866025 0.0348782 -0.498782
    outer loop
      vertex 6.39224 -39.66 0.0152846
      vertex 4.77735 0.437695 0.0152846
      vertex 8.4 0 6.27461
    endloop
  endfacet
  facet normal 0.866025 0.0348782 -0.498782
    outer loop
      vertex 8.4 -39.9026 3.48435
      vertex 6.39224 -39.66 0.0152846
      vertex 8.4 0 6.27461
    endloop
  endfacet
  facet normal 0.866025 -0.0348782 0.498782
    outer loop
      vertex 8.4 0 6.27461
      vertex 4.77735 -0.437695 12.5339
      vertex 6.39224 -40.1451 6.95342
    endloop
  endfacet
  facet normal 0.866025 -0.0348782 0.498782
    outer loop
      vertex 8.4 -39.9026 3.48435
      vertex 8.4 0 6.27461
      vertex 6.39224 -40.1451 6.95342
    endloop
  endfacet
  facet normal 0 -0.139173 0.990268
    outer loop
      vertex 2.9625 -22.7731 9.3949
      vertex 4.77735 -0.437695 12.5339
      vertex -4.77735 -0.437695 12.5339
    endloop
  endfacet
  facet normal 0 -0.139173 0.990268
    outer loop
      vertex 2.9625 -22.7731 9.3949
      vertex 2.9625 -37.6634 7.30221
      vertex 6.39224 -40.1451 6.95342
    endloop
  endfacet
  facet normal 0 -0.139173 0.990268
    outer loop
      vertex -6.39224 -40.1451 6.95342
      vertex -2.9625 -22.7731 9.3949
      vertex -4.77735 -0.437695 12.5339
    endloop
  endfacet
  facet normal 0 -0.139173 0.990268
    outer loop
      vertex 6.39224 -40.1451 6.95342
      vertex 4.77735 -0.437695 12.5339
      vertex 2.9625 -22.7731 9.3949
    endloop
  endfacet
  facet normal 0 -0.139173 0.990268
    outer loop
      vertex -6.39224 -40.1451 6.95342
      vertex 6.39224 -40.1451 6.95342
      vertex 2.9625 -37.6634 7.30221
    endloop
  endfacet
  facet normal 0 -0.139173 0.990268
    outer loop
      vertex -6.39224 -40.1451 6.95342
      vertex -2.9625 -37.6634 7.30221
      vertex -2.9625 -22.7731 9.3949
    endloop
  endfacet
  facet normal 0 -0.139173 0.990268
    outer loop
      vertex -6.39224 -40.1451 6.95342
      vertex 2.9625 -37.6634 7.30221
      vertex -2.9625 -37.6634 7.30221
    endloop
  endfacet
  facet normal 0 -0.139173 0.990268
    outer loop
      vertex -2.9625 -22.7731 9.3949
      vertex 2.9625 -22.7731 9.3949
      vertex -4.77735 -0.437695 12.5339
    endloop
  endfacet
  facet normal 7.85046e-17 0.0697565 -0.997564
    outer loop
      vertex 4.2 -20.2343 9.06995
      vertex -4.2 -20.2343 9.06995
      vertex 4.2 -0.292977 10.4644
    endloop
  endfacet
  facet normal 7.85046e-17 0.0697565 -0.997564
    outer loop
      vertex 4.2 -0.292977 10.4644
      vertex -4.2 -20.2343 9.06995
      vertex -4.2 -0.292977 10.4644
    endloop
  endfacet
  facet normal 1 -5.47621e-18 7.83134e-17
    outer loop
      vertex -4.2 -20.2343 9.06995
      vertex -4.2 -19.6483 0.690412
      vertex -4.2 0.292977 2.08484
    endloop
  endfacet
  facet normal 1 -5.47621e-18 7.83134e-17
    outer loop
      vertex -4.2 -0.292977 10.4644
      vertex -4.2 -20.2343 9.06995
      vertex -4.2 0.292977 2.08484
    endloop
  endfacet
  facet normal -1 5.47621e-18 -7.83134e-17
    outer loop
      vertex 4.2 -19.6483 0.690412
      vertex 4.2 -20.2343 9.06995
      vertex 4.2 0.292977 2.08484
    endloop
  endfacet
  facet normal -1 5.47621e-18 -7.83134e-17
    outer loop
      vertex 4.2 0.292977 2.08484
      vertex 4.2 -20.2343 9.06995
      vertex 4.2 -0.292977 10.4644
    endloop
  endfacet
  facet normal -7.85046e-17 -0.0697565 0.997564
    outer loop
      vertex -4.2 -19.6483 0.690412
      vertex 4.2 -19.6483 0.690412
      vertex 4.2 0.292977 2.08484
    endloop
  endfacet
  facet normal -7.85046e-17 -0.0697565 0.997564
    outer loop
      vertex -4.2 0.292977 2.08484
      vertex -4.2 -19.6483 0.690412
      vertex 4.2 0.292977 2.08484
    endloop
  endfacet
  facet normal 0 -0.997564 -0.0697565
    outer loop
      vertex -6.39224 -40.1451 6.95342
      vertex -8.4 -39.9026 3.48435
      vertex -6.39224 -39.66 0.0152846
    endloop
  endfacet
  facet normal 0 -0.997564 -0.0697565
    outer loop
      vertex -2.58415 -39.837 2.54609
      vertex -6.39224 -40.1451 6.95342
      vertex -6.39224 -39.66 0.0152846
    endloop
  endfacet
  facet normal 0 -0.997564 -0.0697565
    outer loop
      vertex -2.10662 -39.7793 1.72099
      vertex -2.58415 -39.837 2.54609
      vertex -6.39224 -39.66 0.0152846
    endloop
  endfacet
  facet normal 0 -0.997564 -0.0697565
    outer loop
      vertex -2.75 -39.9026 3.48435
      vertex -6.39224 -40.1451 6.95342
      vertex -2.58415 -39.837 2.54609
    endloop
  endfacet
  facet normal 0 -0.997564 -0.0697565
    outer loop
      vertex -0.477532 -39.7136 0.782731
      vertex -1.375 -39.7364 1.10859
      vertex -6.39224 -39.66 0.0152846
    endloop
  endfacet
  facet normal 0 -0.997564 -0.0697565
    outer loop
      vertex -2.58415 -39.9682 4.42262
      vertex -6.39224 -40.1451 6.95342
      vertex -2.75 -39.9026 3.48435
    endloop
  endfacet
  facet normal 0 -0.997564 -0.0697565
    outer loop
      vertex -2.10662 -40.0259 5.24771
      vertex -1.375 -40.0687 5.86012
      vertex -6.39224 -40.1451 6.95342
    endloop
  endfacet
  facet normal 0 -0.997564 -0.0697565
    outer loop
      vertex 2.10662 -39.7793 1.72099
      vertex 1.375 -39.7364 1.10859
      vertex 6.39224 -39.66 0.0152846
    endloop
  endfacet
  facet normal 0 -0.997564 -0.0697565
    outer loop
      vertex 0.477532 -40.0915 6.18598
      vertex 1.375 -40.0687 5.86012
      vertex 6.39224 -40.1451 6.95342
    endloop
  endfacet
  facet normal 0 -0.997564 -0.0697565
    outer loop
      vertex 2.58415 -39.837 2.54609
      vertex 2.10662 -39.7793 1.72099
      vertex 6.39224 -39.66 0.0152846
    endloop
  endfacet
  facet normal 0 -0.997564 -0.0697565
    outer loop
      vertex -0.477532 -40.0915 6.18598
      vertex -6.39224 -40.1451 6.95342
      vertex -1.375 -40.0687 5.86012
    endloop
  endfacet
  facet normal 0 -0.997564 -0.0697565
    outer loop
      vertex 6.39224 -40.1451 6.95342
      vertex -6.39224 -40.1451 6.95342
      vertex -0.477532 -40.0915 6.18598
    endloop
  endfacet
  facet normal 0 -0.997564 -0.0697565
    outer loop
      vertex 6.39224 -40.1451 6.95342
      vertex -0.477532 -40.0915 6.18598
      vertex 0.477532 -40.0915 6.18598
    endloop
  endfacet
  facet normal 0 -0.997564 -0.0697565
    outer loop
      vertex 6.39224 -40.1451 6.95342
      vertex 1.375 -40.0687 5.86012
      vertex 8.4 -39.9026 3.48435
    endloop
  endfacet
  facet normal 0 -0.997564 -0.0697565
    outer loop
      vertex 1.375 -40.0687 5.86012
      vertex 2.10662 -40.0259 5.24771
      vertex 8.4 -39.9026 3.48435
    endloop
  endfacet
  facet normal 0 -0.997564 -0.0697565
    outer loop
      vertex 8.4 -39.9026 3.48435
      vertex 2.58415 -39.9682 4.42262
      vertex 6.39224 -39.66 0.0152846
    endloop
  endfacet
  facet normal 0 -0.997564 -0.0697565
    outer loop
      vertex 2.58415 -39.9682 4.42262
      vertex 2.75 -39.9026 3.48435
      vertex 6.39224 -39.66 0.0152846
    endloop
  endfacet
  facet normal 0 -0.997564 -0.0697565
    outer loop
      vertex 2.75 -39.9026 3.48435
      vertex 2.58415 -39.837 2.54609
      vertex 6.39224 -39.66 0.0152846
    endloop
  endfacet
  facet normal 0 -0.997564 -0.0697565
    outer loop
      vertex 6.39224 -39.66 0.0152846
      vertex 0.477532 -39.7136 0.782731
      vertex -6.39224 -39.66 0.0152846
    endloop
  endfacet
  facet normal 0 -0.997564 -0.0697565
    outer loop
      vertex 6.39224 -39.66 0.0152846
      vertex 1.375 -39.7364 1.10859
      vertex 0.477532 -39.7136 0.782731
    endloop
  endfacet
  facet normal 0 -0.997564 -0.0697565
    outer loop
      vertex 0.477532 -39.7136 0.782731
      vertex -0.477532 -39.7136 0.782731
      vertex -6.39224 -39.66 0.0152846
    endloop
  endfacet
  facet normal 0 -0.997564 -0.0697565
    outer loop
      vertex -1.375 -39.7364 1.10859
      vertex -2.10662 -39.7793 1.72099
      vertex -6.39224 -39.66 0.0152846
    endloop
  endfacet
  facet normal 0 -0.997564 -0.0697565
    outer loop
      vertex -2.58415 -39.9682 4.42262
      vertex -2.10662 -40.0259 5.24771
      vertex -6.39224 -40.1451 6.95342
    endloop
  endfacet
  facet normal 0 -0.997564 -0.0697565
    outer loop
      vertex 2.10662 -40.0259 5.24771
      vertex 2.58415 -39.9682 4.42262
      vertex 8.4 -39.9026 3.48435
    endloop
  endfacet
  facet normal 1 0 0
    outer loop
      vertex -2.9625 -22.2081 1.31422
      vertex -2.9625 -37.1715 0.267876
      vertex -2.9625 -37.1539 0.0152846
    endloop
  endfacet
  facet normal 1 0 0
    outer loop
      vertex -2.9625 -22.1172 0.0152846
      vertex -2.9625 -22.2081 1.31422
      vertex -2.9625 -37.1539 0.0152846
    endloop
  endfacet
  facet normal 0 -0.997564 -0.0697565
    outer loop
      vertex -2.9625 -22.2081 1.31422
      vertex -2.9625 -22.1172 0.0152846
      vertex 2.9625 -22.1172 0.0152846
    endloop
  endfacet
  facet normal 0 -0.997564 -0.0697565
    outer loop
      vertex 4.925 -22.4452 4.70509
      vertex -2.9625 -22.2081 1.31422
      vertex 2.9625 -22.2081 1.31422
    endloop
  endfacet
  facet normal 0 -0.997564 -0.0697565
    outer loop
      vertex 2.9625 -22.2081 1.31422
      vertex -2.9625 -22.2081 1.31422
      vertex 2.9625 -22.1172 0.0152846
    endloop
  endfacet
  facet normal 0 -0.997564 -0.0697565
    outer loop
      vertex 2.9625 -22.6823 8.09596
      vertex -2.9625 -22.2081 1.31422
      vertex 4.925 -22.4452 4.70509
    endloop
  endfacet
  facet normal 0 -0.997564 -0.0697565
    outer loop
      vertex 2.9625 -22.7731 9.3949
      vertex -2.9625 -22.2081 1.31422
      vertex 2.9625 -22.6823 8.09596
    endloop
  endfacet
  facet normal 0 -0.997564 -0.0697565
    outer loop
      vertex -2.9625 -22.6823 8.09596
      vertex -2.9625 -22.2081 1.31422
      vertex 2.9625 -22.7731 9.3949
    endloop
  endfacet
  facet normal 0 -0.997564 -0.0697565
    outer loop
      vertex -4.925 -22.4452 4.70509
      vertex -2.9625 -22.2081 1.31422
      vertex -2.9625 -22.6823 8.09596
    endloop
  endfacet
  facet normal 0 -0.997564 -0.0697565
    outer loop
      vertex -2.9625 -22.7731 9.3949
      vertex -2.9625 -22.6823 8.09596
      vertex 2.9625 -22.7731 9.3949
    endloop
  endfacet
  facet normal -1 0 0
    outer loop
      vertex 2.9625 -37.1715 0.267876
      vertex 2.9625 -22.2081 1.31422
      vertex 2.9625 -37.1539 0.0152846
    endloop
  endfacet
  facet normal -1 0 0
    outer loop
      vertex 2.9625 -37.1539 0.0152846
      vertex 2.9625 -22.2081 1.31422
      vertex 2.9625 -22.1172 0.0152846
    endloop
  endfacet
  facet normal 0 0.997564 0.0697565
    outer loop
      vertex -2.9625 -37.6634 7.30221
      vertex 2.9625 -37.6634 7.30221
      vertex -2.9625 -37.6458 7.04962
    endloop
  endfacet
  facet normal 0 0.997564 0.0697565
    outer loop
      vertex -2.9625 -37.6458 7.04962
      vertex 2.9625 -37.6634 7.30221
      vertex 2.9625 -37.6458 7.04962
    endloop
  endfacet
  facet normal 0 0.997564 0.0697565
    outer loop
      vertex 2.10662 -37.532 5.42211
      vertex 2.9625 -37.6458 7.04962
      vertex 4.925 -37.4087 3.65875
    endloop
  endfacet
  facet normal 0 0.997564 0.0697565
    outer loop
      vertex 2.10662 -37.2853 1.89539
      vertex 4.925 -37.4087 3.65875
      vertex 2.9625 -37.1715 0.267876
    endloop
  endfacet
  facet normal 0 0.997564 0.0697565
    outer loop
      vertex -2.9625 -37.1715 0.267876
      vertex 2.9625 -37.1539 0.0152846
      vertex -2.9625 -37.1539 0.0152846
    endloop
  endfacet
  facet normal 0 0.997564 0.0697565
    outer loop
      vertex -0.477532 -37.2197 0.957122
      vertex 2.9625 -37.1539 0.0152846
      vertex -2.9625 -37.1715 0.267876
    endloop
  endfacet
  facet normal 0 0.997564 0.0697565
    outer loop
      vertex -2.9625 -37.1715 0.267876
      vertex -4.925 -37.4087 3.65875
      vertex -2.9625 -37.6458 7.04962
    endloop
  endfacet
  facet normal 0 0.997564 0.0697565
    outer loop
      vertex 2.10662 -37.2853 1.89539
      vertex 2.9625 -37.1715 0.267876
      vertex 2.9625 -37.1539 0.0152846
    endloop
  endfacet
  facet normal 0 0.997564 0.0697565
    outer loop
      vertex -2.75 -37.4087 3.65875
      vertex -2.58415 -37.343 2.72048
      vertex -2.9625 -37.1715 0.267876
    endloop
  endfacet
  facet normal 0 0.997564 0.0697565
    outer loop
      vertex 1.375 -37.2425 1.28298
      vertex 2.9625 -37.1539 0.0152846
      vertex 0.477532 -37.2197 0.957122
    endloop
  endfacet
  facet normal 0 0.997564 0.0697565
    outer loop
      vertex -2.58415 -37.343 2.72048
      vertex -2.10662 -37.2853 1.89539
      vertex -2.9625 -37.1715 0.267876
    endloop
  endfacet
  facet normal 0 0.997564 0.0697565
    outer loop
      vertex -2.10662 -37.2853 1.89539
      vertex -1.375 -37.2425 1.28298
      vertex -2.9625 -37.1715 0.267876
    endloop
  endfacet
  facet normal 0 0.997564 0.0697565
    outer loop
      vertex -1.375 -37.2425 1.28298
      vertex -0.477532 -37.2197 0.957122
      vertex -2.9625 -37.1715 0.267876
    endloop
  endfacet
  facet normal 0 0.997564 0.0697565
    outer loop
      vertex 2.10662 -37.2853 1.89539
      vertex 2.9625 -37.1539 0.0152846
      vertex 1.375 -37.2425 1.28298
    endloop
  endfacet
  facet normal 0 0.997564 0.0697565
    outer loop
      vertex 2.58415 -37.343 2.72048
      vertex 4.925 -37.4087 3.65875
      vertex 2.10662 -37.2853 1.89539
    endloop
  endfacet
  facet normal 0 0.997564 0.0697565
    outer loop
      vertex 2.10662 -37.532 5.42211
      vertex 4.925 -37.4087 3.65875
      vertex 2.58415 -37.4743 4.59701
    endloop
  endfacet
  facet normal 0 0.997564 0.0697565
    outer loop
      vertex 2.75 -37.4087 3.65875
      vertex 4.925 -37.4087 3.65875
      vertex 2.58415 -37.343 2.72048
    endloop
  endfacet
  facet normal 0 0.997564 0.0697565
    outer loop
      vertex 2.58415 -37.4743 4.59701
      vertex 4.925 -37.4087 3.65875
      vertex 2.75 -37.4087 3.65875
    endloop
  endfacet
  facet normal 0 0.997564 0.0697565
    outer loop
      vertex 1.375 -37.5748 6.03451
      vertex 2.9625 -37.6458 7.04962
      vertex 2.10662 -37.532 5.42211
    endloop
  endfacet
  facet normal 0 0.997564 0.0697565
    outer loop
      vertex -0.477532 -37.5976 6.36037
      vertex -2.9625 -37.6458 7.04962
      vertex 0.477532 -37.5976 6.36037
    endloop
  endfacet
  facet normal 0 0.997564 0.0697565
    outer loop
      vertex 0.477532 -37.5976 6.36037
      vertex 2.9625 -37.6458 7.04962
      vertex 1.375 -37.5748 6.03451
    endloop
  endfacet
  facet normal 0 0.997564 0.0697565
    outer loop
      vertex -2.9625 -37.6458 7.04962
      vertex 2.9625 -37.6458 7.04962
      vertex 0.477532 -37.5976 6.36037
    endloop
  endfacet
  facet normal 0 0.997564 0.0697565
    outer loop
      vertex -1.375 -37.5748 6.03451
      vertex -2.9625 -37.6458 7.04962
      vertex -0.477532 -37.5976 6.36037
    endloop
  endfacet
  facet normal 0 0.997564 0.0697565
    outer loop
      vertex -2.10662 -37.532 5.42211
      vertex -2.9625 -37.6458 7.04962
      vertex -1.375 -37.5748 6.03451
    endloop
  endfacet
  facet normal 0 0.997564 0.0697565
    outer loop
      vertex -2.75 -37.4087 3.65875
      vertex -2.9625 -37.6458 7.04962
      vertex -2.58415 -37.4743 4.59701
    endloop
  endfacet
  facet normal 0 0.997564 0.0697565
    outer loop
      vertex -2.9625 -37.6458 7.04962
      vertex -2.10662 -37.532 5.42211
      vertex -2.58415 -37.4743 4.59701
    endloop
  endfacet
  facet normal 0 0.997564 0.0697565
    outer loop
      vertex -2.9625 -37.6458 7.04962
      vertex -2.75 -37.4087 3.65875
      vertex -2.9625 -37.1715 0.267876
    endloop
  endfacet
  facet normal 0 0.997564 0.0697565
    outer loop
      vertex 0.477532 -37.2197 0.957122
      vertex 2.9625 -37.1539 0.0152846
      vertex -0.477532 -37.2197 0.957122
    endloop
  endfacet
  facet normal 1 0 0
    outer loop
      vertex -2.9625 -22.7731 9.3949
      vertex -2.9625 -37.6634 7.30221
      vertex -2.9625 -37.6458 7.04962
    endloop
  endfacet
  facet normal 1 0 0
    outer loop
      vertex -2.9625 -22.6823 8.09596
      vertex -2.9625 -22.7731 9.3949
      vertex -2.9625 -37.6458 7.04962
    endloop
  endfacet
  facet normal -1 0 0
    outer loop
      vertex 2.9625 -37.6634 7.30221
      vertex 2.9625 -22.7731 9.3949
      vertex 2.9625 -37.6458 7.04962
    endloop
  endfacet
  facet normal -1 0 0
    outer loop
      vertex 2.9625 -37.6458 7.04962
      vertex 2.9625 -22.7731 9.3949
      vertex 2.9625 -22.6823 8.09596
    endloop
  endfacet
  facet normal 0 0.997564 0.0697565
    outer loop
      vertex 4.2 -19.6483 0.690412
      vertex -4.2 -19.6483 0.690412
      vertex 4.2 -20.2343 9.06995
    endloop
  endfacet
  facet normal 0 0.997564 0.0697565
    outer loop
      vertex 4.2 -20.2343 9.06995
      vertex -4.2 -19.6483 0.690412
      vertex -4.2 -20.2343 9.06995
    endloop
  endfacet
  facet normal 0.866025 -0.0348783 0.498782
    outer loop
      vertex -2.58415 -39.837 2.54609
      vertex -2.10662 -39.7793 1.72099
      vertex -2.10662 -37.2853 1.89539
    endloop
  endfacet
  facet normal 0.866025 -0.0348783 0.498782
    outer loop
      vertex -2.58415 -37.343 2.72048
      vertex -2.58415 -39.837 2.54609
      vertex -2.10662 -37.2853 1.89539
    endloop
  endfacet
  facet normal 0.984808 -0.0121131 0.173225
    outer loop
      vertex -2.75 -39.9026 3.48435
      vertex -2.58415 -39.837 2.54609
      vertex -2.58415 -37.343 2.72048
    endloop
  endfacet
  facet normal 0.984808 -0.0121131 0.173225
    outer loop
      vertex -2.75 -37.4087 3.65875
      vertex -2.75 -39.9026 3.48435
      vertex -2.58415 -37.343 2.72048
    endloop
  endfacet
  facet normal 0.642788 -0.0534366 0.764178
    outer loop
      vertex -2.10662 -39.7793 1.72099
      vertex -1.375 -39.7364 1.10859
      vertex -1.375 -37.2425 1.28298
    endloop
  endfacet
  facet normal 0.642788 -0.0534366 0.764178
    outer loop
      vertex -2.10662 -37.2853 1.89539
      vertex -2.10662 -39.7793 1.72099
      vertex -1.375 -37.2425 1.28298
    endloop
  endfacet
  facet normal 0.34202 -0.0655497 0.937404
    outer loop
      vertex -1.375 -39.7364 1.10859
      vertex -0.477532 -39.7136 0.782731
      vertex -0.477532 -37.2197 0.957122
    endloop
  endfacet
  facet normal 0.34202 -0.0655497 0.937404
    outer loop
      vertex -1.375 -37.2425 1.28298
      vertex -1.375 -39.7364 1.10859
      vertex -0.477532 -37.2197 0.957122
    endloop
  endfacet
  facet normal 0 -0.0697565 0.997564
    outer loop
      vertex -0.477532 -39.7136 0.782731
      vertex 0.477532 -39.7136 0.782731
      vertex 0.477532 -37.2197 0.957122
    endloop
  endfacet
  facet normal 0 -0.0697565 0.997564
    outer loop
      vertex -0.477532 -37.2197 0.957122
      vertex -0.477532 -39.7136 0.782731
      vertex 0.477532 -37.2197 0.957122
    endloop
  endfacet
  facet normal -0.34202 -0.0655497 0.937404
    outer loop
      vertex 0.477532 -39.7136 0.782731
      vertex 1.375 -39.7364 1.10859
      vertex 1.375 -37.2425 1.28298
    endloop
  endfacet
  facet normal -0.34202 -0.0655497 0.937404
    outer loop
      vertex 0.477532 -37.2197 0.957122
      vertex 0.477532 -39.7136 0.782731
      vertex 1.375 -37.2425 1.28298
    endloop
  endfacet
  facet normal -0.642788 -0.0534366 0.764178
    outer loop
      vertex 1.375 -39.7364 1.10859
      vertex 2.10662 -39.7793 1.72099
      vertex 2.10662 -37.2853 1.89539
    endloop
  endfacet
  facet normal -0.642788 -0.0534366 0.764178
    outer loop
      vertex 1.375 -37.2425 1.28298
      vertex 1.375 -39.7364 1.10859
      vertex 2.10662 -37.2853 1.89539
    endloop
  endfacet
  facet normal -0.866025 -0.0348783 0.498782
    outer loop
      vertex 2.58415 -39.837 2.54609
      vertex 2.58415 -37.343 2.72048
      vertex 2.10662 -39.7793 1.72099
    endloop
  endfacet
  facet normal -0.866025 -0.0348783 0.498782
    outer loop
      vertex 2.10662 -39.7793 1.72099
      vertex 2.58415 -37.343 2.72048
      vertex 2.10662 -37.2853 1.89539
    endloop
  endfacet
  facet normal -0.984808 -0.0121131 0.173225
    outer loop
      vertex 2.75 -39.9026 3.48435
      vertex 2.75 -37.4087 3.65875
      vertex 2.58415 -39.837 2.54609
    endloop
  endfacet
  facet normal -0.984808 -0.0121131 0.173225
    outer loop
      vertex 2.58415 -39.837 2.54609
      vertex 2.75 -37.4087 3.65875
      vertex 2.58415 -37.343 2.72048
    endloop
  endfacet
  facet normal -0.984808 0.0121131 -0.173225
    outer loop
      vertex 2.75 -39.9026 3.48435
      vertex 2.58415 -39.9682 4.42262
      vertex 2.75 -37.4087 3.65875
    endloop
  endfacet
  facet normal -0.984808 0.0121131 -0.173225
    outer loop
      vertex 2.75 -37.4087 3.65875
      vertex 2.58415 -39.9682 4.42262
      vertex 2.58415 -37.4743 4.59701
    endloop
  endfacet
  facet normal -0.866025 0.0348783 -0.498782
    outer loop
      vertex 2.58415 -39.9682 4.42262
      vertex 2.10662 -40.0259 5.24771
      vertex 2.58415 -37.4743 4.59701
    endloop
  endfacet
  facet normal -0.866025 0.0348783 -0.498782
    outer loop
      vertex 2.58415 -37.4743 4.59701
      vertex 2.10662 -40.0259 5.24771
      vertex 2.10662 -37.532 5.42211
    endloop
  endfacet
  facet normal -0.642788 0.0534366 -0.764178
    outer loop
      vertex 2.10662 -40.0259 5.24771
      vertex 1.375 -40.0687 5.86012
      vertex 2.10662 -37.532 5.42211
    endloop
  endfacet
  facet normal -0.642788 0.0534366 -0.764178
    outer loop
      vertex 2.10662 -37.532 5.42211
      vertex 1.375 -40.0687 5.86012
      vertex 1.375 -37.5748 6.03451
    endloop
  endfacet
  facet normal -0.34202 0.0655497 -0.937404
    outer loop
      vertex 1.375 -40.0687 5.86012
      vertex 0.477532 -40.0915 6.18598
      vertex 1.375 -37.5748 6.03451
    endloop
  endfacet
  facet normal -0.34202 0.0655497 -0.937404
    outer loop
      vertex 1.375 -37.5748 6.03451
      vertex 0.477532 -40.0915 6.18598
      vertex 0.477532 -37.5976 6.36037
    endloop
  endfacet
  facet normal 0 0.0697565 -0.997564
    outer loop
      vertex 0.477532 -40.0915 6.18598
      vertex -0.477532 -40.0915 6.18598
      vertex 0.477532 -37.5976 6.36037
    endloop
  endfacet
  facet normal 0 0.0697565 -0.997564
    outer loop
      vertex 0.477532 -37.5976 6.36037
      vertex -0.477532 -40.0915 6.18598
      vertex -0.477532 -37.5976 6.36037
    endloop
  endfacet
  facet normal 0.34202 0.0655497 -0.937404
    outer loop
      vertex -0.477532 -40.0915 6.18598
      vertex -1.375 -40.0687 5.86012
      vertex -0.477532 -37.5976 6.36037
    endloop
  endfacet
  facet normal 0.34202 0.0655497 -0.937404
    outer loop
      vertex -0.477532 -37.5976 6.36037
      vertex -1.375 -40.0687 5.86012
      vertex -1.375 -37.5748 6.03451
    endloop
  endfacet
  facet normal 0.642788 0.0534366 -0.764178
    outer loop
      vertex -1.375 -40.0687 5.86012
      vertex -2.10662 -40.0259 5.24771
      vertex -1.375 -37.5748 6.03451
    endloop
  endfacet
  facet normal 0.642788 0.0534366 -0.764178
    outer loop
      vertex -1.375 -37.5748 6.03451
      vertex -2.10662 -40.0259 5.24771
      vertex -2.10662 -37.532 5.42211
    endloop
  endfacet
  facet normal 0.866025 0.0348783 -0.498782
    outer loop
      vertex -2.10662 -37.532 5.42211
      vertex -2.10662 -40.0259 5.24771
      vertex -2.58415 -39.9682 4.42262
    endloop
  endfacet
  facet normal 0.866025 0.0348783 -0.498782
    outer loop
      vertex -2.58415 -37.4743 4.59701
      vertex -2.10662 -37.532 5.42211
      vertex -2.58415 -39.9682 4.42262
    endloop
  endfacet
  facet normal 0.984808 0.0121131 -0.173225
    outer loop
      vertex -2.58415 -37.4743 4.59701
      vertex -2.58415 -39.9682 4.42262
      vertex -2.75 -39.9026 3.48435
    endloop
  endfacet
  facet normal 0.984808 0.0121131 -0.173225
    outer loop
      vertex -2.75 -37.4087 3.65875
      vertex -2.58415 -37.4743 4.59701
      vertex -2.75 -39.9026 3.48435
    endloop
  endfacet
  facet normal 0.866025 -0.0348782 0.498782
    outer loop
      vertex -4.925 -37.4087 3.65875
      vertex -2.9625 -37.1715 0.267876
      vertex -2.9625 -22.2081 1.31422
    endloop
  endfacet
  facet normal 0.866025 -0.0348782 0.498782
    outer loop
      vertex -4.925 -22.4452 4.70509
      vertex -4.925 -37.4087 3.65875
      vertex -2.9625 -22.2081 1.31422
    endloop
  endfacet
  facet normal 0.866025 0.0348782 -0.498782
    outer loop
      vertex -2.9625 -22.6823 8.09596
      vertex -2.9625 -37.6458 7.04962
      vertex -4.925 -37.4087 3.65875
    endloop
  endfacet
  facet normal 0.866025 0.0348782 -0.498782
    outer loop
      vertex -4.925 -22.4452 4.70509
      vertex -2.9625 -22.6823 8.09596
      vertex -4.925 -37.4087 3.65875
    endloop
  endfacet
  facet normal -0.866025 0.0348782 -0.498782
    outer loop
      vertex 4.925 -37.4087 3.65875
      vertex 2.9625 -37.6458 7.04962
      vertex 4.925 -22.4452 4.70509
    endloop
  endfacet
  facet normal -0.866025 0.0348782 -0.498782
    outer loop
      vertex 4.925 -22.4452 4.70509
      vertex 2.9625 -37.6458 7.04962
      vertex 2.9625 -22.6823 8.09596
    endloop
  endfacet
  facet normal -0.866025 -0.0348782 0.498782
    outer loop
      vertex 4.925 -37.4087 3.65875
      vertex 4.925 -22.4452 4.70509
      vertex 2.9625 -37.1715 0.267876
    endloop
  endfacet
  facet normal -0.866025 -0.0348782 0.498782
    outer loop
      vertex 2.9625 -37.1715 0.267876
      vertex 4.925 -22.4452 4.70509
      vertex 2.9625 -22.2081 1.31422
    endloop
  endfacet
endsolid OpenSCAD_Model
