solid OpenSCAD_Model
  facet normal 0 0.997564 0.0697565
    outer loop
      vertex -8.4 0 6.27461
      vertex -4.77735 -0.437695 12.5339
      vertex -4.77735 0.437695 0.0152846
    endloop
  endfacet
  facet normal 0 0.997564 0.0697565
    outer loop
      vertex -4.2 -0.292977 10.4644
      vertex -4.77735 -0.437695 12.5339
      vertex 4.77735 -0.437695 12.5339
    endloop
  endfacet
  facet normal 0 0.997564 0.0697565
    outer loop
      vertex 4.2 -0.292977 10.4644
      vertex 4.77735 -0.437695 12.5339
      vertex 8.4 0 6.27461
    endloop
  endfacet
  facet normal 0 0.997564 0.0697565
    outer loop
      vertex 4.2 0.292977 2.08484
      vertex 8.4 0 6.27461
      vertex 4.77735 0.437695 0.0152846
    endloop
  endfacet
  facet normal 0 0.997564 0.0697565
    outer loop
      vertex -4.77735 0.437695 0.0152846
      vertex -4.77735 -0.437695 12.5339
      vertex -4.2 -0.292977 10.4644
    endloop
  endfacet
  facet normal 0 0.997564 0.0697565
    outer loop
      vertex 4.2 0.292977 2.08484
      vertex -4.77735 0.437695 0.0152846
      vertex -4.2 0.292977 2.08484
    endloop
  endfacet
  facet normal 0 0.997564 0.0697565
    outer loop
      vertex -4.77735 0.437695 0.0152846
      vertex -4.2 -0.292977 10.4644
      vertex -4.2 0.292977 2.08484
    endloop
  endfacet
  facet normal 0 0.997564 0.0697565
    outer loop
      vertex 4.2 -0.292977 10.4644
      vertex 8.4 0 6.27461
      vertex 4.2 0.292977 2.08484
    endloop
  endfacet
  facet normal 0 0.997564 0.0697565
    outer loop
      vertex -4.77735 0.437695 0.0152846
      vertex 4.2 0.292977 2.08484
      vertex 4.77735 0.437695 0.0152846
    endloop
  endfacet
  facet normal 0 0.997564 0.0697565
    outer loop
      vertex -4.2 -0.292977 10.4644
      vertex 4.77735 -0.437695 12.5339
      vertex 4.2 -0.292977 10.4644
    endloop
  endfacet
  facet normal -0.866025 -0.0348782 0.498782
    outer loop
      vertex -8.4 0 6.27461
      vertex -8.4 -39.9026 3.48435
      vertex -4.77735 -0.437695 12.5339
    endloop
  endfacet
  facet normal -0.866025 -0.0348782 0.498782
    outer loop
      vertex -4.77735 -0.437695 12.5339
      vertex -8.4 -39.9026 3.48435
      vertex -6.39224 -40.1451 6.95342
    endloop
  endfacet
  facet normal -0.866025 0.0348782 -0.498782
    outer loop
      vertex -8.4 0 6.27461
      vertex -4.77735 0.437695 0.0152846
      vertex -8.4 -39.9026 3.48435
    endloop
  endfacet
  facet normal -0.866025 0.0348782 -0.498782
    outer loop
      vertex -8.4 -39.9026 3.48435
      vertex -4.77735 0.437695 0.0152846
      vertex -6.39224 -39.66 0.0152846
    endloop
  endfacet
  facet normal 0 -1.10752e-16 -1
    outer loop
      vertex 3.21355 -22.1172 0.0152846
      vertex -4.77735 0.437695 0.0152846
      vertex 4.77735 0.437695 0.0152846
    endloop
  endfacet
  facet normal 0 -1.10752e-16 -1
    outer loop
      vertex -6.39224 -39.66 0.0152846
      vertex -4.77735 0.437695 0.0152846
      vertex -3.21355 -34.5503 0.0152846
    endloop
  endfacet
  facet normal 0 -1.10752e-16 -1
    outer loop
      vertex -6.39224 -39.66 0.0152846
      vertex -3.21355 -34.5503 0.0152846
      vertex -3.3184 -37.1539 0.0152846
    endloop
  endfacet
  facet normal 0 -1.10752e-16 -1
    outer loop
      vertex -6.39224 -39.66 0.0152846
      vertex -3.3184 -37.1539 0.0152846
      vertex 6.39224 -39.66 0.0152846
    endloop
  endfacet
  facet normal 0 -1.10752e-16 -1
    outer loop
      vertex 3.21355 -22.1172 0.0152846
      vertex 6.39224 -39.66 0.0152846
      vertex 3.21355 -34.5503 0.0152846
    endloop
  endfacet
  facet normal 0 -1.10752e-16 -1
    outer loop
      vertex 3.3184 -37.1539 0.0152846
      vertex 3.21355 -34.5503 0.0152846
      vertex 6.39224 -39.66 0.0152846
    endloop
  endfacet
  facet normal 0 -1.10752e-16 -1
    outer loop
      vertex -3.21355 -22.1172 0.0152846
      vertex -4.77735 0.437695 0.0152846
      vertex 3.21355 -22.1172 0.0152846
    endloop
  endfacet
  facet normal 0 -1.10752e-16 -1
    outer loop
      vertex 6.39224 -39.66 0.0152846
      vertex 3.21355 -22.1172 0.0152846
      vertex 4.77735 0.437695 0.0152846
    endloop
  endfacet
  facet normal 0 -1.10752e-16 -1
    outer loop
      vertex -3.21355 -34.5503 0.0152846
      vertex -4.77735 0.437695 0.0152846
      vertex -3.21355 -22.1172 0.0152846
    endloop
  endfacet
  facet normal 0 -1.10752e-16 -1
    outer loop
      vertex 3.3184 -37.1539 0.0152846
      vertex 6.39224 -39.66 0.0152846
      vertex -3.3184 -37.1539 0.0152846
    endloop
  endfacet
  facet normal 0.866025 0.0348782 -0.498782
    outer loop
      vertex 6.39224 -39.66 0.0152846
      vertex 4.77735 0.437695 0.0152846
      vertex 8.4 0 6.27461
    endloop
  endfacet
  facet normal 0.866025 0.0348782 -0.498782
    outer loop
      vertex 8.4 -39.9026 3.48435
      vertex 6.39224 -39.66 0.0152846
      vertex 8.4 0 6.27461
    endloop
  endfacet
  facet normal 0.866025 -0.0348782 0.498782
    outer loop
      vertex 8.4 0 6.27461
      vertex 4.77735 -0.437695 12.5339
      vertex 6.39224 -40.1451 6.95342
    endloop
  endfacet
  facet normal 0.866025 -0.0348782 0.498782
    outer loop
      vertex 8.4 -39.9026 3.48435
      vertex 8.4 0 6.27461
      vertex 6.39224 -40.1451 6.95342
    endloop
  endfacet
  facet normal 0 -0.139173 0.990268
    outer loop
      vertex 3.21355 -22.7731 9.3949
      vertex 4.77735 -0.437695 12.5339
      vertex -4.77735 -0.437695 12.5339
    endloop
  endfacet
  facet normal 0 -0.139173 0.990268
    outer loop
      vertex 3.21355 -22.7731 9.3949
      vertex 3.21355 -35.0852 7.66456
      vertex 6.39224 -40.1451 6.95342
    endloop
  endfacet
  facet normal 0 -0.139173 0.990268
    outer loop
      vertex -6.39224 -40.1451 6.95342
      vertex -3.21355 -35.0852 7.66456
      vertex -4.77735 -0.437695 12.5339
    endloop
  endfacet
  facet normal 0 -0.139173 0.990268
    outer loop
      vertex -3.21355 -35.0852 7.66456
      vertex -3.21355 -22.7731 9.3949
      vertex -4.77735 -0.437695 12.5339
    endloop
  endfacet
  facet normal 0 -0.139173 0.990268
    outer loop
      vertex 6.39224 -40.1451 6.95342
      vertex 4.77735 -0.437695 12.5339
      vertex 3.21355 -22.7731 9.3949
    endloop
  endfacet
  facet normal 0 -0.139173 0.990268
    outer loop
      vertex 3.3184 -37.6634 7.30221
      vertex 6.39224 -40.1451 6.95342
      vertex 3.21355 -35.0852 7.66456
    endloop
  endfacet
  facet normal 0 -0.139173 0.990268
    outer loop
      vertex -6.39224 -40.1451 6.95342
      vertex -3.3184 -37.6634 7.30221
      vertex -3.21355 -35.0852 7.66456
    endloop
  endfacet
  facet normal 0 -0.139173 0.990268
    outer loop
      vertex -6.39224 -40.1451 6.95342
      vertex 6.39224 -40.1451 6.95342
      vertex -3.3184 -37.6634 7.30221
    endloop
  endfacet
  facet normal 0 -0.139173 0.990268
    outer loop
      vertex 3.3184 -37.6634 7.30221
      vertex -3.3184 -37.6634 7.30221
      vertex 6.39224 -40.1451 6.95342
    endloop
  endfacet
  facet normal 0 -0.139173 0.990268
    outer loop
      vertex -3.21355 -22.7731 9.3949
      vertex 3.21355 -22.7731 9.3949
      vertex -4.77735 -0.437695 12.5339
    endloop
  endfacet
  facet normal 7.85046e-17 0.0697565 -0.997564
    outer loop
      vertex 4.2 -20.2343 9.06995
      vertex -4.2 -20.2343 9.06995
      vertex 4.2 -0.292977 10.4644
    endloop
  endfacet
  facet normal 7.85046e-17 0.0697565 -0.997564
    outer loop
      vertex 4.2 -0.292977 10.4644
      vertex -4.2 -20.2343 9.06995
      vertex -4.2 -0.292977 10.4644
    endloop
  endfacet
  facet normal 1 -5.47621e-18 7.83134e-17
    outer loop
      vertex -4.2 -20.2343 9.06995
      vertex -4.2 -19.6483 0.690412
      vertex -4.2 0.292977 2.08484
    endloop
  endfacet
  facet normal 1 -5.47621e-18 7.83134e-17
    outer loop
      vertex -4.2 -0.292977 10.4644
      vertex -4.2 -20.2343 9.06995
      vertex -4.2 0.292977 2.08484
    endloop
  endfacet
  facet normal -1 5.47621e-18 -7.83134e-17
    outer loop
      vertex 4.2 -19.6483 0.690412
      vertex 4.2 -20.2343 9.06995
      vertex 4.2 0.292977 2.08484
    endloop
  endfacet
  facet normal -1 5.47621e-18 -7.83134e-17
    outer loop
      vertex 4.2 0.292977 2.08484
      vertex 4.2 -20.2343 9.06995
      vertex 4.2 -0.292977 10.4644
    endloop
  endfacet
  facet normal -7.85046e-17 -0.0697565 0.997564
    outer loop
      vertex -4.2 -19.6483 0.690412
      vertex 4.2 -19.6483 0.690412
      vertex 4.2 0.292977 2.08484
    endloop
  endfacet
  facet normal -7.85046e-17 -0.0697565 0.997564
    outer loop
      vertex -4.2 0.292977 2.08484
      vertex -4.2 -19.6483 0.690412
      vertex 4.2 0.292977 2.08484
    endloop
  endfacet
  facet normal 0 -0.997564 -0.0697565
    outer loop
      vertex -6.39224 -40.1451 6.95342
      vertex -8.4 -39.9026 3.48435
      vertex -6.39224 -39.66 0.0152846
    endloop
  endfacet
  facet normal 0 -0.997564 -0.0697565
    outer loop
      vertex -2.53717 -39.8381 2.56315
      vertex -6.39224 -40.1451 6.95342
      vertex -6.39224 -39.66 0.0152846
    endloop
  endfacet
  facet normal 0 -0.997564 -0.0697565
    outer loop
      vertex -2.06832 -39.7815 1.75306
      vertex -2.53717 -39.8381 2.56315
      vertex -6.39224 -39.66 0.0152846
    endloop
  endfacet
  facet normal 0 -0.997564 -0.0697565
    outer loop
      vertex -2.7 -39.9026 3.48435
      vertex -6.39224 -40.1451 6.95342
      vertex -2.53717 -39.8381 2.56315
    endloop
  endfacet
  facet normal 0 -0.997564 -0.0697565
    outer loop
      vertex -0.46885 -39.7171 0.831851
      vertex -1.35 -39.7395 1.15178
      vertex -6.39224 -39.66 0.0152846
    endloop
  endfacet
  facet normal 0 -0.997564 -0.0697565
    outer loop
      vertex -2.53717 -39.967 4.40556
      vertex -6.39224 -40.1451 6.95342
      vertex -2.7 -39.9026 3.48435
    endloop
  endfacet
  facet normal 0 -0.997564 -0.0697565
    outer loop
      vertex -2.06832 -40.0236 5.21565
      vertex -1.35 -40.0657 5.81693
      vertex -6.39224 -40.1451 6.95342
    endloop
  endfacet
  facet normal 0 -0.997564 -0.0697565
    outer loop
      vertex 2.06832 -39.7815 1.75306
      vertex 1.35 -39.7395 1.15178
      vertex 6.39224 -39.66 0.0152846
    endloop
  endfacet
  facet normal 0 -0.997564 -0.0697565
    outer loop
      vertex 0.46885 -40.088 6.13686
      vertex 1.35 -40.0657 5.81693
      vertex 6.39224 -40.1451 6.95342
    endloop
  endfacet
  facet normal 0 -0.997564 -0.0697565
    outer loop
      vertex 2.53717 -39.8381 2.56315
      vertex 2.06832 -39.7815 1.75306
      vertex 6.39224 -39.66 0.0152846
    endloop
  endfacet
  facet normal 0 -0.997564 -0.0697565
    outer loop
      vertex -0.46885 -40.088 6.13686
      vertex -6.39224 -40.1451 6.95342
      vertex -1.35 -40.0657 5.81693
    endloop
  endfacet
  facet normal 0 -0.997564 -0.0697565
    outer loop
      vertex 6.39224 -40.1451 6.95342
      vertex -6.39224 -40.1451 6.95342
      vertex -0.46885 -40.088 6.13686
    endloop
  endfacet
  facet normal 0 -0.997564 -0.0697565
    outer loop
      vertex 6.39224 -40.1451 6.95342
      vertex -0.46885 -40.088 6.13686
      vertex 0.46885 -40.088 6.13686
    endloop
  endfacet
  facet normal 0 -0.997564 -0.0697565
    outer loop
      vertex 6.39224 -40.1451 6.95342
      vertex 1.35 -40.0657 5.81693
      vertex 8.4 -39.9026 3.48435
    endloop
  endfacet
  facet normal 0 -0.997564 -0.0697565
    outer loop
      vertex 1.35 -40.0657 5.81693
      vertex 2.06832 -40.0236 5.21565
      vertex 8.4 -39.9026 3.48435
    endloop
  endfacet
  facet normal 0 -0.997564 -0.0697565
    outer loop
      vertex 8.4 -39.9026 3.48435
      vertex 2.53717 -39.967 4.40556
      vertex 6.39224 -39.66 0.0152846
    endloop
  endfacet
  facet normal 0 -0.997564 -0.0697565
    outer loop
      vertex 2.53717 -39.967 4.40556
      vertex 2.7 -39.9026 3.48435
      vertex 6.39224 -39.66 0.0152846
    endloop
  endfacet
  facet normal 0 -0.997564 -0.0697565
    outer loop
      vertex 2.7 -39.9026 3.48435
      vertex 2.53717 -39.8381 2.56315
      vertex 6.39224 -39.66 0.0152846
    endloop
  endfacet
  facet normal 0 -0.997564 -0.0697565
    outer loop
      vertex 6.39224 -39.66 0.0152846
      vertex 0.46885 -39.7171 0.831851
      vertex -6.39224 -39.66 0.0152846
    endloop
  endfacet
  facet normal 0 -0.997564 -0.0697565
    outer loop
      vertex 6.39224 -39.66 0.0152846
      vertex 1.35 -39.7395 1.15178
      vertex 0.46885 -39.7171 0.831851
    endloop
  endfacet
  facet normal 0 -0.997564 -0.0697565
    outer loop
      vertex 0.46885 -39.7171 0.831851
      vertex -0.46885 -39.7171 0.831851
      vertex -6.39224 -39.66 0.0152846
    endloop
  endfacet
  facet normal 0 -0.997564 -0.0697565
    outer loop
      vertex -1.35 -39.7395 1.15178
      vertex -2.06832 -39.7815 1.75306
      vertex -6.39224 -39.66 0.0152846
    endloop
  endfacet
  facet normal 0 -0.997564 -0.0697565
    outer loop
      vertex -2.53717 -39.967 4.40556
      vertex -2.06832 -40.0236 5.21565
      vertex -6.39224 -40.1451 6.95342
    endloop
  endfacet
  facet normal 0 -0.997564 -0.0697565
    outer loop
      vertex 2.06832 -40.0236 5.21565
      vertex 2.53717 -39.967 4.40556
      vertex 8.4 -39.9026 3.48435
    endloop
  endfacet
  facet normal 1 0 0
    outer loop
      vertex -3.21355 -22.1777 0.880457
      vertex -3.21355 -34.5503 0.0152846
      vertex -3.21355 -22.1172 0.0152846
    endloop
  endfacet
  facet normal 0.866025 -0.0348782 0.498782
    outer loop
      vertex -5.42709 -37.4087 3.65875
      vertex -3.3184 -37.1539 0.0152846
      vertex -3.21355 -34.5503 0.0152846
    endloop
  endfacet
  facet normal 0.866025 -0.0348782 0.498782
    outer loop
      vertex -5.42709 -22.4452 4.70509
      vertex -5.42709 -37.4087 3.65875
      vertex -3.21355 -22.1777 0.880457
    endloop
  endfacet
  facet normal 0.866025 -0.0348782 0.498782
    outer loop
      vertex -3.21355 -22.1777 0.880457
      vertex -5.42709 -37.4087 3.65875
      vertex -3.21355 -34.5503 0.0152846
    endloop
  endfacet
  facet normal 0 -0.997564 -0.0697565
    outer loop
      vertex -3.21355 -22.1777 0.880457
      vertex -3.21355 -22.1172 0.0152846
      vertex 3.21355 -22.1172 0.0152846
    endloop
  endfacet
  facet normal 0 -0.997564 -0.0697565
    outer loop
      vertex 5.42709 -22.4452 4.70509
      vertex -3.21355 -22.1777 0.880457
      vertex 3.21355 -22.1777 0.880457
    endloop
  endfacet
  facet normal 0 -0.997564 -0.0697565
    outer loop
      vertex 3.21355 -22.1777 0.880457
      vertex -3.21355 -22.1777 0.880457
      vertex 3.21355 -22.1172 0.0152846
    endloop
  endfacet
  facet normal 0 -0.997564 -0.0697565
    outer loop
      vertex 3.21355 -22.7126 8.52973
      vertex -3.21355 -22.1777 0.880457
      vertex 5.42709 -22.4452 4.70509
    endloop
  endfacet
  facet normal 0 -0.997564 -0.0697565
    outer loop
      vertex 3.21355 -22.7731 9.3949
      vertex -3.21355 -22.1777 0.880457
      vertex 3.21355 -22.7126 8.52973
    endloop
  endfacet
  facet normal 0 -0.997564 -0.0697565
    outer loop
      vertex -3.21355 -22.7126 8.52973
      vertex -3.21355 -22.1777 0.880457
      vertex 3.21355 -22.7731 9.3949
    endloop
  endfacet
  facet normal 0 -0.997564 -0.0697565
    outer loop
      vertex -5.42709 -22.4452 4.70509
      vertex -3.21355 -22.1777 0.880457
      vertex -3.21355 -22.7126 8.52973
    endloop
  endfacet
  facet normal 0 -0.997564 -0.0697565
    outer loop
      vertex -3.21355 -22.7731 9.3949
      vertex -3.21355 -22.7126 8.52973
      vertex 3.21355 -22.7731 9.3949
    endloop
  endfacet
  facet normal -1 0 0
    outer loop
      vertex 3.21355 -34.5503 0.0152846
      vertex 3.21355 -22.1777 0.880457
      vertex 3.21355 -22.1172 0.0152846
    endloop
  endfacet
  facet normal -0.866025 -0.0348782 0.498782
    outer loop
      vertex 3.3184 -37.1539 0.0152846
      vertex 5.42709 -37.4087 3.65875
      vertex 3.21355 -34.5503 0.0152846
    endloop
  endfacet
  facet normal -0.866025 -0.0348782 0.498782
    outer loop
      vertex 3.21355 -34.5503 0.0152846
      vertex 5.42709 -37.4087 3.65875
      vertex 5.42709 -22.4452 4.70509
    endloop
  endfacet
  facet normal -0.866025 -0.0348782 0.498782
    outer loop
      vertex 3.21355 -34.5503 0.0152846
      vertex 5.42709 -22.4452 4.70509
      vertex 3.21355 -22.1777 0.880457
    endloop
  endfacet
  facet normal 0 0.997564 0.0697565
    outer loop
      vertex -0.46885 -37.5941 6.31125
      vertex -3.3184 -37.6634 7.30221
      vertex 0.46885 -37.5941 6.31125
    endloop
  endfacet
  facet normal 0 0.997564 0.0697565
    outer loop
      vertex 2.06832 -37.2876 1.92745
      vertex 5.42709 -37.4087 3.65875
      vertex 3.3184 -37.1539 0.0152846
    endloop
  endfacet
  facet normal 0 0.997564 0.0697565
    outer loop
      vertex -0.46885 -37.2232 1.00624
      vertex 3.3184 -37.1539 0.0152846
      vertex -3.3184 -37.1539 0.0152846
    endloop
  endfacet
  facet normal 0 0.997564 0.0697565
    outer loop
      vertex -3.3184 -37.6634 7.30221
      vertex -3.3184 -37.1539 0.0152846
      vertex -5.42709 -37.4087 3.65875
    endloop
  endfacet
  facet normal 0 0.997564 0.0697565
    outer loop
      vertex 2.06832 -37.2876 1.92745
      vertex 3.3184 -37.1539 0.0152846
      vertex 1.35 -37.2455 1.32617
    endloop
  endfacet
  facet normal 0 0.997564 0.0697565
    outer loop
      vertex -2.7 -37.4087 3.65875
      vertex -2.53717 -37.3442 2.73754
      vertex -3.3184 -37.1539 0.0152846
    endloop
  endfacet
  facet normal 0 0.997564 0.0697565
    outer loop
      vertex -2.53717 -37.3442 2.73754
      vertex -2.06832 -37.2876 1.92745
      vertex -3.3184 -37.1539 0.0152846
    endloop
  endfacet
  facet normal 0 0.997564 0.0697565
    outer loop
      vertex 1.35 -37.2455 1.32617
      vertex 3.3184 -37.1539 0.0152846
      vertex 0.46885 -37.2232 1.00624
    endloop
  endfacet
  facet normal 0 0.997564 0.0697565
    outer loop
      vertex -2.06832 -37.2876 1.92745
      vertex -1.35 -37.2455 1.32617
      vertex -3.3184 -37.1539 0.0152846
    endloop
  endfacet
  facet normal 0 0.997564 0.0697565
    outer loop
      vertex -1.35 -37.2455 1.32617
      vertex -0.46885 -37.2232 1.00624
      vertex -3.3184 -37.1539 0.0152846
    endloop
  endfacet
  facet normal 0 0.997564 0.0697565
    outer loop
      vertex 2.53717 -37.3442 2.73754
      vertex 5.42709 -37.4087 3.65875
      vertex 2.06832 -37.2876 1.92745
    endloop
  endfacet
  facet normal 0 0.997564 0.0697565
    outer loop
      vertex 2.06832 -37.5297 5.39004
      vertex 5.42709 -37.4087 3.65875
      vertex 2.53717 -37.4731 4.57995
    endloop
  endfacet
  facet normal 0 0.997564 0.0697565
    outer loop
      vertex 2.7 -37.4087 3.65875
      vertex 5.42709 -37.4087 3.65875
      vertex 2.53717 -37.3442 2.73754
    endloop
  endfacet
  facet normal 0 0.997564 0.0697565
    outer loop
      vertex 2.53717 -37.4731 4.57995
      vertex 5.42709 -37.4087 3.65875
      vertex 2.7 -37.4087 3.65875
    endloop
  endfacet
  facet normal 0 0.997564 0.0697565
    outer loop
      vertex 3.3184 -37.6634 7.30221
      vertex 5.42709 -37.4087 3.65875
      vertex 2.06832 -37.5297 5.39004
    endloop
  endfacet
  facet normal 0 0.997564 0.0697565
    outer loop
      vertex 3.3184 -37.6634 7.30221
      vertex 2.06832 -37.5297 5.39004
      vertex 1.35 -37.5718 5.99132
    endloop
  endfacet
  facet normal 0 0.997564 0.0697565
    outer loop
      vertex 3.3184 -37.6634 7.30221
      vertex 1.35 -37.5718 5.99132
      vertex 0.46885 -37.5941 6.31125
    endloop
  endfacet
  facet normal 0 0.997564 0.0697565
    outer loop
      vertex 3.3184 -37.6634 7.30221
      vertex 0.46885 -37.5941 6.31125
      vertex -3.3184 -37.6634 7.30221
    endloop
  endfacet
  facet normal 0 0.997564 0.0697565
    outer loop
      vertex -1.35 -37.5718 5.99132
      vertex -3.3184 -37.6634 7.30221
      vertex -0.46885 -37.5941 6.31125
    endloop
  endfacet
  facet normal 0 0.997564 0.0697565
    outer loop
      vertex -2.06832 -37.5297 5.39004
      vertex -3.3184 -37.6634 7.30221
      vertex -1.35 -37.5718 5.99132
    endloop
  endfacet
  facet normal 0 0.997564 0.0697565
    outer loop
      vertex -2.7 -37.4087 3.65875
      vertex -3.3184 -37.6634 7.30221
      vertex -2.53717 -37.4731 4.57995
    endloop
  endfacet
  facet normal 0 0.997564 0.0697565
    outer loop
      vertex -3.3184 -37.6634 7.30221
      vertex -2.06832 -37.5297 5.39004
      vertex -2.53717 -37.4731 4.57995
    endloop
  endfacet
  facet normal 0 0.997564 0.0697565
    outer loop
      vertex -3.3184 -37.6634 7.30221
      vertex -2.7 -37.4087 3.65875
      vertex -3.3184 -37.1539 0.0152846
    endloop
  endfacet
  facet normal 0 0.997564 0.0697565
    outer loop
      vertex 0.46885 -37.2232 1.00624
      vertex 3.3184 -37.1539 0.0152846
      vertex -0.46885 -37.2232 1.00624
    endloop
  endfacet
  facet normal 0.866025 0.0348782 -0.498782
    outer loop
      vertex -3.21355 -22.7126 8.52973
      vertex -3.21355 -35.0852 7.66456
      vertex -3.3184 -37.6634 7.30221
    endloop
  endfacet
  facet normal 0.866025 0.0348782 -0.498782
    outer loop
      vertex -5.42709 -22.4452 4.70509
      vertex -3.21355 -22.7126 8.52973
      vertex -5.42709 -37.4087 3.65875
    endloop
  endfacet
  facet normal 0.866025 0.0348782 -0.498782
    outer loop
      vertex -5.42709 -37.4087 3.65875
      vertex -3.21355 -22.7126 8.52973
      vertex -3.3184 -37.6634 7.30221
    endloop
  endfacet
  facet normal 1 0 0
    outer loop
      vertex -3.21355 -22.7731 9.3949
      vertex -3.21355 -35.0852 7.66456
      vertex -3.21355 -22.7126 8.52973
    endloop
  endfacet
  facet normal -0.866025 0.0348782 -0.498782
    outer loop
      vertex 5.42709 -37.4087 3.65875
      vertex 3.3184 -37.6634 7.30221
      vertex 5.42709 -22.4452 4.70509
    endloop
  endfacet
  facet normal -0.866025 0.0348782 -0.498782
    outer loop
      vertex 5.42709 -22.4452 4.70509
      vertex 3.3184 -37.6634 7.30221
      vertex 3.21355 -35.0852 7.66456
    endloop
  endfacet
  facet normal -0.866025 0.0348782 -0.498782
    outer loop
      vertex 5.42709 -22.4452 4.70509
      vertex 3.21355 -35.0852 7.66456
      vertex 3.21355 -22.7126 8.52973
    endloop
  endfacet
  facet normal -1 0 0
    outer loop
      vertex 3.21355 -35.0852 7.66456
      vertex 3.21355 -22.7731 9.3949
      vertex 3.21355 -22.7126 8.52973
    endloop
  endfacet
  facet normal 0 0.997564 0.0697565
    outer loop
      vertex 4.2 -19.6483 0.690412
      vertex -4.2 -19.6483 0.690412
      vertex 4.2 -20.2343 9.06995
    endloop
  endfacet
  facet normal 0 0.997564 0.0697565
    outer loop
      vertex 4.2 -20.2343 9.06995
      vertex -4.2 -19.6483 0.690412
      vertex -4.2 -20.2343 9.06995
    endloop
  endfacet
  facet normal 0.866026 -0.0348782 0.498782
    outer loop
      vertex -2.53717 -39.8381 2.56315
      vertex -2.06832 -39.7815 1.75306
      vertex -2.06832 -37.2876 1.92745
    endloop
  endfacet
  facet normal 0.866026 -0.0348782 0.498782
    outer loop
      vertex -2.53717 -37.3442 2.73754
      vertex -2.53717 -39.8381 2.56315
      vertex -2.06832 -37.2876 1.92745
    endloop
  endfacet
  facet normal 0.984808 -0.0121131 0.173225
    outer loop
      vertex -2.7 -39.9026 3.48435
      vertex -2.53717 -39.8381 2.56315
      vertex -2.53717 -37.3442 2.73754
    endloop
  endfacet
  facet normal 0.984808 -0.0121131 0.173225
    outer loop
      vertex -2.7 -37.4087 3.65875
      vertex -2.7 -39.9026 3.48435
      vertex -2.53717 -37.3442 2.73754
    endloop
  endfacet
  facet normal 0.642788 -0.0534366 0.764178
    outer loop
      vertex -2.06832 -39.7815 1.75306
      vertex -1.35 -39.7395 1.15178
      vertex -1.35 -37.2455 1.32617
    endloop
  endfacet
  facet normal 0.642788 -0.0534366 0.764178
    outer loop
      vertex -2.06832 -37.2876 1.92745
      vertex -2.06832 -39.7815 1.75306
      vertex -1.35 -37.2455 1.32617
    endloop
  endfacet
  facet normal 0.34202 -0.0655497 0.937404
    outer loop
      vertex -1.35 -39.7395 1.15178
      vertex -0.46885 -39.7171 0.831851
      vertex -0.46885 -37.2232 1.00624
    endloop
  endfacet
  facet normal 0.34202 -0.0655497 0.937404
    outer loop
      vertex -1.35 -37.2455 1.32617
      vertex -1.35 -39.7395 1.15178
      vertex -0.46885 -37.2232 1.00624
    endloop
  endfacet
  facet normal 0 -0.0697565 0.997564
    outer loop
      vertex -0.46885 -39.7171 0.831851
      vertex 0.46885 -39.7171 0.831851
      vertex 0.46885 -37.2232 1.00624
    endloop
  endfacet
  facet normal 0 -0.0697565 0.997564
    outer loop
      vertex -0.46885 -37.2232 1.00624
      vertex -0.46885 -39.7171 0.831851
      vertex 0.46885 -37.2232 1.00624
    endloop
  endfacet
  facet normal -0.34202 -0.0655497 0.937404
    outer loop
      vertex 0.46885 -39.7171 0.831851
      vertex 1.35 -39.7395 1.15178
      vertex 1.35 -37.2455 1.32617
    endloop
  endfacet
  facet normal -0.34202 -0.0655497 0.937404
    outer loop
      vertex 0.46885 -37.2232 1.00624
      vertex 0.46885 -39.7171 0.831851
      vertex 1.35 -37.2455 1.32617
    endloop
  endfacet
  facet normal -0.642788 -0.0534366 0.764178
    outer loop
      vertex 1.35 -39.7395 1.15178
      vertex 2.06832 -39.7815 1.75306
      vertex 2.06832 -37.2876 1.92745
    endloop
  endfacet
  facet normal -0.642788 -0.0534366 0.764178
    outer loop
      vertex 1.35 -37.2455 1.32617
      vertex 1.35 -39.7395 1.15178
      vertex 2.06832 -37.2876 1.92745
    endloop
  endfacet
  facet normal -0.866026 -0.0348782 0.498782
    outer loop
      vertex 2.53717 -39.8381 2.56315
      vertex 2.53717 -37.3442 2.73754
      vertex 2.06832 -39.7815 1.75306
    endloop
  endfacet
  facet normal -0.866026 -0.0348782 0.498782
    outer loop
      vertex 2.06832 -39.7815 1.75306
      vertex 2.53717 -37.3442 2.73754
      vertex 2.06832 -37.2876 1.92745
    endloop
  endfacet
  facet normal -0.984808 -0.0121131 0.173225
    outer loop
      vertex 2.7 -39.9026 3.48435
      vertex 2.7 -37.4087 3.65875
      vertex 2.53717 -39.8381 2.56315
    endloop
  endfacet
  facet normal -0.984808 -0.0121131 0.173225
    outer loop
      vertex 2.53717 -39.8381 2.56315
      vertex 2.7 -37.4087 3.65875
      vertex 2.53717 -37.3442 2.73754
    endloop
  endfacet
  facet normal -0.984808 0.0121131 -0.173225
    outer loop
      vertex 2.7 -39.9026 3.48435
      vertex 2.53717 -39.967 4.40556
      vertex 2.7 -37.4087 3.65875
    endloop
  endfacet
  facet normal -0.984808 0.0121131 -0.173225
    outer loop
      vertex 2.7 -37.4087 3.65875
      vertex 2.53717 -39.967 4.40556
      vertex 2.53717 -37.4731 4.57995
    endloop
  endfacet
  facet normal -0.866026 0.0348782 -0.498782
    outer loop
      vertex 2.53717 -39.967 4.40556
      vertex 2.06832 -40.0236 5.21565
      vertex 2.53717 -37.4731 4.57995
    endloop
  endfacet
  facet normal -0.866026 0.0348782 -0.498782
    outer loop
      vertex 2.53717 -37.4731 4.57995
      vertex 2.06832 -40.0236 5.21565
      vertex 2.06832 -37.5297 5.39004
    endloop
  endfacet
  facet normal -0.642788 0.0534366 -0.764178
    outer loop
      vertex 2.06832 -40.0236 5.21565
      vertex 1.35 -40.0657 5.81693
      vertex 2.06832 -37.5297 5.39004
    endloop
  endfacet
  facet normal -0.642788 0.0534366 -0.764178
    outer loop
      vertex 2.06832 -37.5297 5.39004
      vertex 1.35 -40.0657 5.81693
      vertex 1.35 -37.5718 5.99132
    endloop
  endfacet
  facet normal -0.34202 0.0655497 -0.937404
    outer loop
      vertex 1.35 -40.0657 5.81693
      vertex 0.46885 -40.088 6.13686
      vertex 1.35 -37.5718 5.99132
    endloop
  endfacet
  facet normal -0.34202 0.0655497 -0.937404
    outer loop
      vertex 1.35 -37.5718 5.99132
      vertex 0.46885 -40.088 6.13686
      vertex 0.46885 -37.5941 6.31125
    endloop
  endfacet
  facet normal 0 0.0697565 -0.997564
    outer loop
      vertex 0.46885 -40.088 6.13686
      vertex -0.46885 -40.088 6.13686
      vertex 0.46885 -37.5941 6.31125
    endloop
  endfacet
  facet normal 0 0.0697565 -0.997564
    outer loop
      vertex 0.46885 -37.5941 6.31125
      vertex -0.46885 -40.088 6.13686
      vertex -0.46885 -37.5941 6.31125
    endloop
  endfacet
  facet normal 0.34202 0.0655497 -0.937404
    outer loop
      vertex -0.46885 -40.088 6.13686
      vertex -1.35 -40.0657 5.81693
      vertex -0.46885 -37.5941 6.31125
    endloop
  endfacet
  facet normal 0.34202 0.0655497 -0.937404
    outer loop
      vertex -0.46885 -37.5941 6.31125
      vertex -1.35 -40.0657 5.81693
      vertex -1.35 -37.5718 5.99132
    endloop
  endfacet
  facet normal 0.642788 0.0534366 -0.764178
    outer loop
      vertex -1.35 -40.0657 5.81693
      vertex -2.06832 -40.0236 5.21565
      vertex -1.35 -37.5718 5.99132
    endloop
  endfacet
  facet normal 0.642788 0.0534366 -0.764178
    outer loop
      vertex -1.35 -37.5718 5.99132
      vertex -2.06832 -40.0236 5.21565
      vertex -2.06832 -37.5297 5.39004
    endloop
  endfacet
  facet normal 0.866026 0.0348782 -0.498782
    outer loop
      vertex -2.06832 -37.5297 5.39004
      vertex -2.06832 -40.0236 5.21565
      vertex -2.53717 -39.967 4.40556
    endloop
  endfacet
  facet normal 0.866026 0.0348782 -0.498782
    outer loop
      vertex -2.53717 -37.4731 4.57995
      vertex -2.06832 -37.5297 5.39004
      vertex -2.53717 -39.967 4.40556
    endloop
  endfacet
  facet normal 0.984808 0.0121131 -0.173225
    outer loop
      vertex -2.53717 -37.4731 4.57995
      vertex -2.53717 -39.967 4.40556
      vertex -2.7 -39.9026 3.48435
    endloop
  endfacet
  facet normal 0.984808 0.0121131 -0.173225
    outer loop
      vertex -2.7 -37.4087 3.65875
      vertex -2.53717 -37.4731 4.57995
      vertex -2.7 -39.9026 3.48435
    endloop
  endfacet
endsolid OpenSCAD_Model
