solid OpenSCAD_Model
  facet normal -1 0 0
    outer loop
      vertex 0 0 0
      vertex 0 0 18
      vertex 0 5 0
    endloop
  endfacet
  facet normal -1 0 0
    outer loop
      vertex 0 5 0
      vertex 0 0 18
      vertex 0 5 18
    endloop
  endfacet
  facet normal -1.77321e-16 -1 0
    outer loop
      vertex 0 0 18
      vertex 0 0 0
      vertex 5 -8.86606e-16 0
    endloop
  endfacet
  facet normal -1.77321e-16 -1 0
    outer loop
      vertex 5 -8.86606e-16 18
      vertex 0 0 18
      vertex 5 -8.86606e-16 0
    endloop
  endfacet
  facet normal 0 0 -1
    outer loop
      vertex 0 0 0
      vertex 0 5 0
      vertex 5 -8.86606e-16 0
    endloop
  endfacet
  facet normal 0 0 -1
    outer loop
      vertex 5 -8.86606e-16 0
      vertex 0 5 0
      vertex 8.86606e-16 5 0
    endloop
  endfacet
  facet normal 0 0 -1
    outer loop
      vertex 5 -8.86606e-16 0
      vertex 8.86606e-16 5 0
      vertex 1.52496e-14 86 0
    endloop
  endfacet
  facet normal 0 0 -1
    outer loop
      vertex 5 66.8113 0
      vertex 1.52496e-14 86 0
      vertex 5 86 0
    endloop
  endfacet
  facet normal 0 0 -1
    outer loop
      vertex 5 -8.86606e-16 0
      vertex 1.52496e-14 86 0
      vertex 5 0 0
    endloop
  endfacet
  facet normal 0 0 -1
    outer loop
      vertex 34.9132 5 0
      vertex 40.6868 5 0
      vertex 5 0 0
    endloop
  endfacet
  facet normal 0 0 -1
    outer loop
      vertex 5 5 0
      vertex 5 0 0
      vertex 1.52496e-14 86 0
    endloop
  endfacet
  facet normal 0 0 -1
    outer loop
      vertex 5 66.8113 0
      vertex 40.6868 5 0
      vertex 5 56.8113 0
    endloop
  endfacet
  facet normal 0 0 -1
    outer loop
      vertex 5 66.8113 0
      vertex 5 56.8113 0
      vertex 1.52496e-14 86 0
    endloop
  endfacet
  facet normal 0 0 -1
    outer loop
      vertex 5 56.8113 0
      vertex 5 5 0
      vertex 1.52496e-14 86 0
    endloop
  endfacet
  facet normal 0 0 -1
    outer loop
      vertex 5 56.8113 0
      vertex 40.6868 5 0
      vertex 34.9132 5 0
    endloop
  endfacet
  facet normal 0 0 -1
    outer loop
      vertex 5 5 0
      vertex 34.9132 5 0
      vertex 5 0 0
    endloop
  endfacet
  facet normal 0 0 -1
    outer loop
      vertex 5 0 0
      vertex 40.6868 5 0
      vertex 55.2 5 0
    endloop
  endfacet
  facet normal 0 0 -1
    outer loop
      vertex 5 0 0
      vertex 55.2 5 0
      vertex 55.2 0 0
    endloop
  endfacet
  facet normal 0 1 0
    outer loop
      vertex 0 5 0
      vertex 0 5 18
      vertex 8.86606e-16 5 0
    endloop
  endfacet
  facet normal 0 1 0
    outer loop
      vertex 8.86606e-16 5 0
      vertex 0 5 18
      vertex 8.86606e-16 5 18
    endloop
  endfacet
  facet normal 0 0 1
    outer loop
      vertex 0 5 18
      vertex 0 0 18
      vertex 5 -8.86606e-16 18
    endloop
  endfacet
  facet normal 0 0 1
    outer loop
      vertex 55.2 0 18
      vertex 0 5 18
      vertex 5 0 18
    endloop
  endfacet
  facet normal 0 0 1
    outer loop
      vertex 5 0 18
      vertex 0 5 18
      vertex 5 -8.86606e-16 18
    endloop
  endfacet
  facet normal 0 0 1
    outer loop
      vertex 5 5 18
      vertex 8.86606e-16 5 18
      vertex 55.2 0 18
    endloop
  endfacet
  facet normal 0 0 1
    outer loop
      vertex 8.86606e-16 5 18
      vertex 0 5 18
      vertex 55.2 0 18
    endloop
  endfacet
  facet normal 0 0 1
    outer loop
      vertex 55.2 5 18
      vertex 5 5 18
      vertex 55.2 0 18
    endloop
  endfacet
  facet normal 0 0 1
    outer loop
      vertex 5 86 18
      vertex 8.86606e-16 5 18
      vertex 5 5 18
    endloop
  endfacet
  facet normal 0 0 1
    outer loop
      vertex 1.52496e-14 86 18
      vertex 8.86606e-16 5 18
      vertex 5 86 18
    endloop
  endfacet
  facet normal 1 -1.77321e-16 0
    outer loop
      vertex 5 -8.86606e-16 18
      vertex 5 -8.86606e-16 0
      vertex 5 0 0
    endloop
  endfacet
  facet normal 1 -1.77321e-16 0
    outer loop
      vertex 5 0 18
      vertex 5 -8.86606e-16 18
      vertex 5 0 0
    endloop
  endfacet
  facet normal 0 -1 0
    outer loop
      vertex 10.9 0 3.61436
      vertex 5 0 0
      vertex 55.2 0 0
    endloop
  endfacet
  facet normal 0 -1 0
    outer loop
      vertex 50.2222 0 3.42431
      vertex 5 0 18
      vertex 55.2 0 0
    endloop
  endfacet
  facet normal 0 -1 0
    outer loop
      vertex 10.9 0 3.61436
      vertex 10.3778 0 3.42431
      vertex 5 0 0
    endloop
  endfacet
  facet normal 0 -1 0
    outer loop
      vertex 5 0 18
      vertex 5 0 0
      vertex 8.59649 0 4.45277
    endloop
  endfacet
  facet normal 0 -1 0
    outer loop
      vertex 11.6035 0 4.45277
      vertex 11.3257 0 3.97154
      vertex 55.2 0 0
    endloop
  endfacet
  facet normal 0 -1 0
    outer loop
      vertex 5 0 18
      vertex 8.59649 0 4.45277
      vertex 8.5 0 5
    endloop
  endfacet
  facet normal 0 -1 0
    outer loop
      vertex 11.7 0 5
      vertex 11.6035 0 4.45277
      vertex 55.2 0 0
    endloop
  endfacet
  facet normal 0 -1 0
    outer loop
      vertex 5 0 18
      vertex 8.5 0 5
      vertex 8.59649 0 5.54723
    endloop
  endfacet
  facet normal 0 -1 0
    outer loop
      vertex 11.6035 0 5.54723
      vertex 11.7 0 5
      vertex 55.2 0 0
    endloop
  endfacet
  facet normal 0 -1 0
    outer loop
      vertex 5 0 18
      vertex 8.59649 0 5.54723
      vertex 8.87433 0 6.02846
    endloop
  endfacet
  facet normal 0 -1 0
    outer loop
      vertex 11.3257 0 6.02846
      vertex 11.6035 0 5.54723
      vertex 55.2 0 0
    endloop
  endfacet
  facet normal 0 -1 0
    outer loop
      vertex 5 0 18
      vertex 8.87433 0 6.02846
      vertex 9.3 0 6.38564
    endloop
  endfacet
  facet normal 0 -1 0
    outer loop
      vertex 10.9 0 6.38564
      vertex 11.3257 0 6.02846
      vertex 55.2 0 0
    endloop
  endfacet
  facet normal 0 -1 0
    outer loop
      vertex 5 0 18
      vertex 9.3 0 6.38564
      vertex 9.82216 0 6.57569
    endloop
  endfacet
  facet normal 0 -1 0
    outer loop
      vertex 5 0 18
      vertex 10.3778 0 6.57569
      vertex 55.2 0 0
    endloop
  endfacet
  facet normal 0 -1 0
    outer loop
      vertex 5 0 18
      vertex 9.82216 0 6.57569
      vertex 10.3778 0 6.57569
    endloop
  endfacet
  facet normal 0 -1 0
    outer loop
      vertex 11.3257 0 3.97154
      vertex 10.9 0 3.61436
      vertex 55.2 0 0
    endloop
  endfacet
  facet normal 0 -1 0
    outer loop
      vertex 49.2743 0 6.02846
      vertex 49.7 0 6.38564
      vertex 55.2 0 18
    endloop
  endfacet
  facet normal 0 -1 0
    outer loop
      vertex 9.82216 0 3.42431
      vertex 5 0 0
      vertex 10.3778 0 3.42431
    endloop
  endfacet
  facet normal 0 -1 0
    outer loop
      vertex 9.3 0 3.61436
      vertex 5 0 0
      vertex 9.82216 0 3.42431
    endloop
  endfacet
  facet normal 0 -1 0
    outer loop
      vertex 8.87433 0 3.97154
      vertex 5 0 0
      vertex 9.3 0 3.61436
    endloop
  endfacet
  facet normal 0 -1 0
    outer loop
      vertex 8.59649 0 4.45277
      vertex 5 0 0
      vertex 8.87433 0 3.97154
    endloop
  endfacet
  facet normal 0 -1 0
    outer loop
      vertex 48.9 0 5
      vertex 5 0 18
      vertex 48.9965 0 4.45277
    endloop
  endfacet
  facet normal 0 -1 0
    outer loop
      vertex 48.9965 0 5.54723
      vertex 5 0 18
      vertex 48.9 0 5
    endloop
  endfacet
  facet normal 0 -1 0
    outer loop
      vertex 55.2 0 18
      vertex 5 0 18
      vertex 48.9965 0 5.54723
    endloop
  endfacet
  facet normal 0 -1 0
    outer loop
      vertex 49.7 0 6.38564
      vertex 50.2222 0 6.57569
      vertex 55.2 0 18
    endloop
  endfacet
  facet normal 0 -1 0
    outer loop
      vertex 55.2 0 18
      vertex 48.9965 0 5.54723
      vertex 49.2743 0 6.02846
    endloop
  endfacet
  facet normal 0 -1 0
    outer loop
      vertex 50.7778 0 3.42431
      vertex 50.2222 0 3.42431
      vertex 55.2 0 0
    endloop
  endfacet
  facet normal 0 -1 0
    outer loop
      vertex 52.0035 0 4.45277
      vertex 51.7257 0 3.97154
      vertex 55.2 0 0
    endloop
  endfacet
  facet normal 0 -1 0
    outer loop
      vertex 55.2 0 18
      vertex 50.2222 0 6.57569
      vertex 50.7778 0 6.57569
    endloop
  endfacet
  facet normal 0 -1 0
    outer loop
      vertex 52.1 0 5
      vertex 52.0035 0 4.45277
      vertex 55.2 0 0
    endloop
  endfacet
  facet normal 0 -1 0
    outer loop
      vertex 55.2 0 18
      vertex 50.7778 0 6.57569
      vertex 51.3 0 6.38564
    endloop
  endfacet
  facet normal 0 -1 0
    outer loop
      vertex 55.2 0 18
      vertex 51.3 0 6.38564
      vertex 51.7257 0 6.02846
    endloop
  endfacet
  facet normal 0 -1 0
    outer loop
      vertex 55.2 0 18
      vertex 52.0035 0 5.54723
      vertex 55.2 0 0
    endloop
  endfacet
  facet normal 0 -1 0
    outer loop
      vertex 55.2 0 18
      vertex 51.7257 0 6.02846
      vertex 52.0035 0 5.54723
    endloop
  endfacet
  facet normal 0 -1 0
    outer loop
      vertex 51.7257 0 3.97154
      vertex 51.3 0 3.61436
      vertex 55.2 0 0
    endloop
  endfacet
  facet normal 0 -1 0
    outer loop
      vertex 51.3 0 3.61436
      vertex 50.7778 0 3.42431
      vertex 55.2 0 0
    endloop
  endfacet
  facet normal 0 -1 0
    outer loop
      vertex 49.7 0 3.61436
      vertex 5 0 18
      vertex 50.2222 0 3.42431
    endloop
  endfacet
  facet normal 0 -1 0
    outer loop
      vertex 49.2743 0 3.97154
      vertex 5 0 18
      vertex 49.7 0 3.61436
    endloop
  endfacet
  facet normal 0 -1 0
    outer loop
      vertex 48.9965 0 4.45277
      vertex 5 0 18
      vertex 49.2743 0 3.97154
    endloop
  endfacet
  facet normal 0 -1 0
    outer loop
      vertex 10.3778 0 6.57569
      vertex 10.9 0 6.38564
      vertex 55.2 0 0
    endloop
  endfacet
  facet normal 0 -1 0
    outer loop
      vertex 52.0035 0 5.54723
      vertex 52.1 0 5
      vertex 55.2 0 0
    endloop
  endfacet
  facet normal 1 0 0
    outer loop
      vertex 55.2 0 18
      vertex 55.2 0 0
      vertex 55.2 5 0
    endloop
  endfacet
  facet normal 1 0 0
    outer loop
      vertex 55.2 5 18
      vertex 55.2 0 18
      vertex 55.2 5 0
    endloop
  endfacet
  facet normal 0 1 0
    outer loop
      vertex 11.6035 5 5.54723
      vertex 5 5 18
      vertex 34.9132 5 0
    endloop
  endfacet
  facet normal 0 1 0
    outer loop
      vertex 40.6868 5 10
      vertex 5 5 18
      vertex 55.2 5 18
    endloop
  endfacet
  facet normal 0 1 0
    outer loop
      vertex 52.0035 5 4.45277
      vertex 55.2 5 18
      vertex 55.2 5 0
    endloop
  endfacet
  facet normal 0 1 0
    outer loop
      vertex 34.9132 5 10
      vertex 5 5 18
      vertex 40.6868 5 10
    endloop
  endfacet
  facet normal 0 1 0
    outer loop
      vertex 10.9 5 3.61436
      vertex 34.9132 5 0
      vertex 10.3778 5 3.42431
    endloop
  endfacet
  facet normal 0 1 0
    outer loop
      vertex 34.9132 5 0
      vertex 5 5 18
      vertex 34.9132 5 10
    endloop
  endfacet
  facet normal 0 1 0
    outer loop
      vertex 5 5 0
      vertex 5 5 18
      vertex 8.5 5 5
    endloop
  endfacet
  facet normal 0 1 0
    outer loop
      vertex 5 5 0
      vertex 8.5 5 5
      vertex 8.59649 5 4.45277
    endloop
  endfacet
  facet normal 0 1 0
    outer loop
      vertex 5 5 0
      vertex 8.59649 5 4.45277
      vertex 8.87433 5 3.97154
    endloop
  endfacet
  facet normal 0 1 0
    outer loop
      vertex 5 5 0
      vertex 8.87433 5 3.97154
      vertex 9.3 5 3.61436
    endloop
  endfacet
  facet normal 0 1 0
    outer loop
      vertex 5 5 0
      vertex 9.3 5 3.61436
      vertex 9.82216 5 3.42431
    endloop
  endfacet
  facet normal 0 1 0
    outer loop
      vertex 5 5 0
      vertex 9.82216 5 3.42431
      vertex 34.9132 5 0
    endloop
  endfacet
  facet normal 0 1 0
    outer loop
      vertex 9.82216 5 3.42431
      vertex 10.3778 5 3.42431
      vertex 34.9132 5 0
    endloop
  endfacet
  facet normal 0 1 0
    outer loop
      vertex 11.3257 5 3.97154
      vertex 34.9132 5 0
      vertex 10.9 5 3.61436
    endloop
  endfacet
  facet normal 0 1 0
    outer loop
      vertex 11.6035 5 4.45277
      vertex 34.9132 5 0
      vertex 11.3257 5 3.97154
    endloop
  endfacet
  facet normal 0 1 0
    outer loop
      vertex 50.2222 5 3.42431
      vertex 55.2 5 0
      vertex 49.7 5 3.61436
    endloop
  endfacet
  facet normal 0 1 0
    outer loop
      vertex 10.9 5 6.38564
      vertex 5 5 18
      vertex 11.3257 5 6.02846
    endloop
  endfacet
  facet normal 0 1 0
    outer loop
      vertex 10.3778 5 6.57569
      vertex 5 5 18
      vertex 10.9 5 6.38564
    endloop
  endfacet
  facet normal 0 1 0
    outer loop
      vertex 11.6035 5 4.45277
      vertex 11.7 5 5
      vertex 34.9132 5 0
    endloop
  endfacet
  facet normal 0 1 0
    outer loop
      vertex 11.3257 5 6.02846
      vertex 5 5 18
      vertex 11.6035 5 5.54723
    endloop
  endfacet
  facet normal 0 1 0
    outer loop
      vertex 11.7 5 5
      vertex 11.6035 5 5.54723
      vertex 34.9132 5 0
    endloop
  endfacet
  facet normal 0 1 0
    outer loop
      vertex 9.82216 5 6.57569
      vertex 5 5 18
      vertex 10.3778 5 6.57569
    endloop
  endfacet
  facet normal 0 1 0
    outer loop
      vertex 9.3 5 6.38564
      vertex 5 5 18
      vertex 9.82216 5 6.57569
    endloop
  endfacet
  facet normal 0 1 0
    outer loop
      vertex 8.87433 5 6.02846
      vertex 5 5 18
      vertex 9.3 5 6.38564
    endloop
  endfacet
  facet normal 0 1 0
    outer loop
      vertex 8.59649 5 5.54723
      vertex 5 5 18
      vertex 8.87433 5 6.02846
    endloop
  endfacet
  facet normal 0 1 0
    outer loop
      vertex 8.5 5 5
      vertex 5 5 18
      vertex 8.59649 5 5.54723
    endloop
  endfacet
  facet normal 0 1 0
    outer loop
      vertex 40.6868 5 0
      vertex 48.9 5 5
      vertex 48.9965 5 4.45277
    endloop
  endfacet
  facet normal 0 1 0
    outer loop
      vertex 40.6868 5 0
      vertex 48.9965 5 4.45277
      vertex 49.2743 5 3.97154
    endloop
  endfacet
  facet normal 0 1 0
    outer loop
      vertex 40.6868 5 0
      vertex 49.2743 5 3.97154
      vertex 49.7 5 3.61436
    endloop
  endfacet
  facet normal 0 1 0
    outer loop
      vertex 40.6868 5 0
      vertex 49.7 5 3.61436
      vertex 55.2 5 0
    endloop
  endfacet
  facet normal 0 1 0
    outer loop
      vertex 50.7778 5 3.42431
      vertex 55.2 5 0
      vertex 50.2222 5 3.42431
    endloop
  endfacet
  facet normal 0 1 0
    outer loop
      vertex 51.3 5 3.61436
      vertex 55.2 5 0
      vertex 50.7778 5 3.42431
    endloop
  endfacet
  facet normal 0 1 0
    outer loop
      vertex 49.2743 5 6.02846
      vertex 55.2 5 18
      vertex 49.7 5 6.38564
    endloop
  endfacet
  facet normal 0 1 0
    outer loop
      vertex 52.0035 5 5.54723
      vertex 55.2 5 18
      vertex 52.1 5 5
    endloop
  endfacet
  facet normal 0 1 0
    outer loop
      vertex 51.7257 5 6.02846
      vertex 55.2 5 18
      vertex 52.0035 5 5.54723
    endloop
  endfacet
  facet normal 0 1 0
    outer loop
      vertex 51.3 5 3.61436
      vertex 51.7257 5 3.97154
      vertex 55.2 5 0
    endloop
  endfacet
  facet normal 0 1 0
    outer loop
      vertex 52.1 5 5
      vertex 55.2 5 18
      vertex 52.0035 5 4.45277
    endloop
  endfacet
  facet normal 0 1 0
    outer loop
      vertex 51.7257 5 3.97154
      vertex 52.0035 5 4.45277
      vertex 55.2 5 0
    endloop
  endfacet
  facet normal 0 1 0
    outer loop
      vertex 51.3 5 6.38564
      vertex 55.2 5 18
      vertex 51.7257 5 6.02846
    endloop
  endfacet
  facet normal 0 1 0
    outer loop
      vertex 50.7778 5 6.57569
      vertex 55.2 5 18
      vertex 51.3 5 6.38564
    endloop
  endfacet
  facet normal 0 1 0
    outer loop
      vertex 50.2222 5 6.57569
      vertex 55.2 5 18
      vertex 50.7778 5 6.57569
    endloop
  endfacet
  facet normal 0 1 0
    outer loop
      vertex 49.7 5 6.38564
      vertex 55.2 5 18
      vertex 50.2222 5 6.57569
    endloop
  endfacet
  facet normal 0 1 0
    outer loop
      vertex 40.6868 5 0
      vertex 55.2 5 18
      vertex 49.2743 5 6.02846
    endloop
  endfacet
  facet normal 0 1 0
    outer loop
      vertex 40.6868 5 0
      vertex 49.2743 5 6.02846
      vertex 48.9965 5 5.54723
    endloop
  endfacet
  facet normal 0 1 0
    outer loop
      vertex 40.6868 5 0
      vertex 48.9965 5 5.54723
      vertex 48.9 5 5
    endloop
  endfacet
  facet normal 0 1 0
    outer loop
      vertex 40.6868 5 10
      vertex 55.2 5 18
      vertex 40.6868 5 0
    endloop
  endfacet
  facet normal 0.866025 0.5 0
    outer loop
      vertex 40.6868 5 0
      vertex 5 66.8113 0
      vertex 5 66.8113 10
    endloop
  endfacet
  facet normal 0.866025 0.5 0
    outer loop
      vertex 40.6868 5 10
      vertex 40.6868 5 0
      vertex 5 66.8113 10
    endloop
  endfacet
  facet normal 1 -1.77321e-16 0
    outer loop
      vertex 5 16.5711 10.9358
      vertex 5 5 0
      vertex 5 56.8113 0
    endloop
  endfacet
  facet normal 1 -1.77321e-16 0
    outer loop
      vertex 5 86 0
      vertex 5 66.8113 10
      vertex 5 66.8113 0
    endloop
  endfacet
  facet normal 1 -1.77321e-16 0
    outer loop
      vertex 5 78.9288 10.9358
      vertex 5 66.8113 10
      vertex 5 86 0
    endloop
  endfacet
  facet normal 1 -1.77321e-16 0
    outer loop
      vertex 5 5 18
      vertex 5 5 0
      vertex 5 10.0608 13.3054
    endloop
  endfacet
  facet normal 1 -1.77321e-16 0
    outer loop
      vertex 5 17.4641 12
      vertex 5 16.5711 10.9358
      vertex 5 56.8113 0
    endloop
  endfacet
  facet normal 1 -1.77321e-16 0
    outer loop
      vertex 5 5 18
      vertex 5 10.0608 13.3054
      vertex 5 10.0608 14.6946
    endloop
  endfacet
  facet normal 1 -1.77321e-16 0
    outer loop
      vertex 5 77.5608 13.3054
      vertex 5 77.5608 14.6946
      vertex 5 66.8113 10
    endloop
  endfacet
  facet normal 1 -1.77321e-16 0
    outer loop
      vertex 5 5 18
      vertex 5 10.0608 14.6946
      vertex 5 10.5359 16
    endloop
  endfacet
  facet normal 1 -1.77321e-16 0
    outer loop
      vertex 5 81.5 18
      vertex 5 82.8681 17.7588
      vertex 5 86 18
    endloop
  endfacet
  facet normal 1 -1.77321e-16 0
    outer loop
      vertex 5 15.3681 17.7588
      vertex 5 16.5711 17.0642
      vertex 5 66.8113 10
    endloop
  endfacet
  facet normal 1 -1.77321e-16 0
    outer loop
      vertex 5 14 18
      vertex 5 5 18
      vertex 5 12.6319 17.7588
    endloop
  endfacet
  facet normal 1 -1.77321e-16 0
    outer loop
      vertex 5 86 18
      vertex 5 5 18
      vertex 5 14 18
    endloop
  endfacet
  facet normal 1 -1.77321e-16 0
    outer loop
      vertex 5 77.5608 14.6946
      vertex 5 15.3681 17.7588
      vertex 5 66.8113 10
    endloop
  endfacet
  facet normal 1 -1.77321e-16 0
    outer loop
      vertex 5 56.8113 10
      vertex 5 17.4641 16
      vertex 5 56.8113 0
    endloop
  endfacet
  facet normal 1 -1.77321e-16 0
    outer loop
      vertex 5 17.9392 14.6946
      vertex 5 17.9392 13.3054
      vertex 5 56.8113 0
    endloop
  endfacet
  facet normal 1 -1.77321e-16 0
    outer loop
      vertex 5 17.4641 16
      vertex 5 17.9392 14.6946
      vertex 5 56.8113 0
    endloop
  endfacet
  facet normal 1 -1.77321e-16 0
    outer loop
      vertex 5 11.4289 17.0642
      vertex 5 12.6319 17.7588
      vertex 5 5 18
    endloop
  endfacet
  facet normal 1 -1.77321e-16 0
    outer loop
      vertex 5 15.3681 10.2412
      vertex 5 5 0
      vertex 5 16.5711 10.9358
    endloop
  endfacet
  facet normal 1 -1.77321e-16 0
    outer loop
      vertex 5 14 10
      vertex 5 5 0
      vertex 5 15.3681 10.2412
    endloop
  endfacet
  facet normal 1 -1.77321e-16 0
    outer loop
      vertex 5 12.6319 10.2412
      vertex 5 5 0
      vertex 5 14 10
    endloop
  endfacet
  facet normal 1 -1.77321e-16 0
    outer loop
      vertex 5 11.4288 10.9358
      vertex 5 5 0
      vertex 5 12.6319 10.2412
    endloop
  endfacet
  facet normal 1 -1.77321e-16 0
    outer loop
      vertex 5 10.5359 12
      vertex 5 5 0
      vertex 5 11.4288 10.9358
    endloop
  endfacet
  facet normal 1 -1.77321e-16 0
    outer loop
      vertex 5 10.0608 13.3054
      vertex 5 5 0
      vertex 5 10.5359 12
    endloop
  endfacet
  facet normal 1 -1.77321e-16 0
    outer loop
      vertex 5 80.1319 17.7588
      vertex 5 14 18
      vertex 5 15.3681 17.7588
    endloop
  endfacet
  facet normal 1 -1.77321e-16 0
    outer loop
      vertex 5 84.0711 17.0642
      vertex 5 84.9641 16
      vertex 5 86 18
    endloop
  endfacet
  facet normal 1 -1.77321e-16 0
    outer loop
      vertex 5 78.0359 16
      vertex 5 15.3681 17.7588
      vertex 5 77.5608 14.6946
    endloop
  endfacet
  facet normal 1 -1.77321e-16 0
    outer loop
      vertex 5 85.4392 13.3054
      vertex 5 84.9641 12
      vertex 5 86 0
    endloop
  endfacet
  facet normal 1 -1.77321e-16 0
    outer loop
      vertex 5 78.9288 17.0642
      vertex 5 15.3681 17.7588
      vertex 5 78.0359 16
    endloop
  endfacet
  facet normal 1 -1.77321e-16 0
    outer loop
      vertex 5 80.1319 17.7588
      vertex 5 15.3681 17.7588
      vertex 5 78.9288 17.0642
    endloop
  endfacet
  facet normal 1 -1.77321e-16 0
    outer loop
      vertex 5 16.5711 17.0642
      vertex 5 17.4641 16
      vertex 5 56.8113 10
    endloop
  endfacet
  facet normal 1 -1.77321e-16 0
    outer loop
      vertex 5 86 18
      vertex 5 14 18
      vertex 5 81.5 18
    endloop
  endfacet
  facet normal 1 -1.77321e-16 0
    outer loop
      vertex 5 16.5711 17.0642
      vertex 5 56.8113 10
      vertex 5 66.8113 10
    endloop
  endfacet
  facet normal 1 -1.77321e-16 0
    outer loop
      vertex 5 80.1319 10.2412
      vertex 5 78.9288 10.9358
      vertex 5 86 0
    endloop
  endfacet
  facet normal 1 -1.77321e-16 0
    outer loop
      vertex 5 86 18
      vertex 5 85.4392 14.6946
      vertex 5 86 0
    endloop
  endfacet
  facet normal 1 -1.77321e-16 0
    outer loop
      vertex 5 86 18
      vertex 5 84.9641 16
      vertex 5 85.4392 14.6946
    endloop
  endfacet
  facet normal 1 -1.77321e-16 0
    outer loop
      vertex 5 85.4392 14.6946
      vertex 5 85.4392 13.3054
      vertex 5 86 0
    endloop
  endfacet
  facet normal 1 -1.77321e-16 0
    outer loop
      vertex 5 84.9641 12
      vertex 5 84.0711 10.9358
      vertex 5 86 0
    endloop
  endfacet
  facet normal 1 -1.77321e-16 0
    outer loop
      vertex 5 84.0711 10.9358
      vertex 5 82.8681 10.2412
      vertex 5 86 0
    endloop
  endfacet
  facet normal 1 -1.77321e-16 0
    outer loop
      vertex 5 82.8681 10.2412
      vertex 5 81.5 10
      vertex 5 86 0
    endloop
  endfacet
  facet normal 1 -1.77321e-16 0
    outer loop
      vertex 5 81.5 10
      vertex 5 80.1319 10.2412
      vertex 5 86 0
    endloop
  endfacet
  facet normal 1 -1.77321e-16 0
    outer loop
      vertex 5 78.0359 12
      vertex 5 66.8113 10
      vertex 5 78.9288 10.9358
    endloop
  endfacet
  facet normal 1 -1.77321e-16 0
    outer loop
      vertex 5 77.5608 13.3054
      vertex 5 66.8113 10
      vertex 5 78.0359 12
    endloop
  endfacet
  facet normal 1 -1.77321e-16 0
    outer loop
      vertex 5 80.1319 17.7588
      vertex 5 81.5 18
      vertex 5 14 18
    endloop
  endfacet
  facet normal 1 -1.77321e-16 0
    outer loop
      vertex 5 17.9392 13.3054
      vertex 5 17.4641 12
      vertex 5 56.8113 0
    endloop
  endfacet
  facet normal 1 -1.77321e-16 0
    outer loop
      vertex 5 10.5359 16
      vertex 5 11.4289 17.0642
      vertex 5 5 18
    endloop
  endfacet
  facet normal 1 -1.77321e-16 0
    outer loop
      vertex 5 82.8681 17.7588
      vertex 5 84.0711 17.0642
      vertex 5 86 18
    endloop
  endfacet
  facet normal 1.77321e-16 1 0
    outer loop
      vertex 1.52496e-14 86 0
      vertex 1.52496e-14 86 18
      vertex 5 86 0
    endloop
  endfacet
  facet normal 1.77321e-16 1 0
    outer loop
      vertex 5 86 0
      vertex 1.52496e-14 86 18
      vertex 5 86 18
    endloop
  endfacet
  facet normal -1 1.77321e-16 0
    outer loop
      vertex 2.4825e-15 14 17.44
      vertex 8.86606e-16 5 18
      vertex 1.52496e-14 86 18
    endloop
  endfacet
  facet normal -1 1.77321e-16 0
    outer loop
      vertex 8.86606e-16 5 0
      vertex 8.86606e-16 5 18
      vertex 1.95424e-15 11.0209 15.72
    endloop
  endfacet
  facet normal -1 1.77321e-16 0
    outer loop
      vertex 8.86606e-16 5 0
      vertex 1.95424e-15 11.0209 15.72
      vertex 1.95424e-15 11.0209 12.28
    endloop
  endfacet
  facet normal -1 1.77321e-16 0
    outer loop
      vertex 8.86606e-16 5 0
      vertex 1.95424e-15 11.0209 12.28
      vertex 2.46284e-15 13.8891 10.624
    endloop
  endfacet
  facet normal -1 1.77321e-16 0
    outer loop
      vertex 1.4432e-14 81.3891 10.624
      vertex 1.52496e-14 86 0
      vertex 1.39234e-14 78.5209 12.28
    endloop
  endfacet
  facet normal -1 1.77321e-16 0
    outer loop
      vertex 8.86606e-16 5 0
      vertex 2.46284e-15 13.8891 10.624
      vertex 2.4825e-15 14 10.56
    endloop
  endfacet
  facet normal -1 1.77321e-16 0
    outer loop
      vertex 8.86606e-16 5 0
      vertex 2.4825e-15 14 10.56
      vertex 1.52496e-14 86 0
    endloop
  endfacet
  facet normal -1 1.77321e-16 0
    outer loop
      vertex 3.01076e-15 16.9791 15.72
      vertex 1.52496e-14 86 0
      vertex 3.01076e-15 16.9791 12.28
    endloop
  endfacet
  facet normal -1 1.77321e-16 0
    outer loop
      vertex 2.9911e-15 16.8683 12.216
      vertex 3.01076e-15 16.9791 12.28
      vertex 1.52496e-14 86 0
    endloop
  endfacet
  facet normal -1 1.77321e-16 0
    outer loop
      vertex 1.97389e-15 11.1317 15.784
      vertex 8.86606e-16 5 18
      vertex 2.4825e-15 14 17.44
    endloop
  endfacet
  facet normal -1 1.77321e-16 0
    outer loop
      vertex 1.44517e-14 81.5 17.44
      vertex 3.01076e-15 16.9791 15.72
      vertex 1.52496e-14 86 18
    endloop
  endfacet
  facet normal -1 1.77321e-16 0
    outer loop
      vertex 3.01076e-15 16.9791 15.72
      vertex 2.50215e-15 14.1109 17.376
      vertex 1.52496e-14 86 18
    endloop
  endfacet
  facet normal -1 1.77321e-16 0
    outer loop
      vertex 2.50215e-15 14.1109 17.376
      vertex 2.4825e-15 14 17.44
      vertex 1.52496e-14 86 18
    endloop
  endfacet
  facet normal -1 1.77321e-16 0
    outer loop
      vertex 1.95424e-15 11.0209 15.72
      vertex 8.86606e-16 5 18
      vertex 1.97389e-15 11.1317 15.784
    endloop
  endfacet
  facet normal -1 1.77321e-16 0
    outer loop
      vertex 1.39234e-14 78.5209 12.28
      vertex 3.01076e-15 16.9791 15.72
      vertex 1.39234e-14 78.5209 15.72
    endloop
  endfacet
  facet normal -1 1.77321e-16 0
    outer loop
      vertex 1.52496e-14 86 0
      vertex 3.01076e-15 16.9791 15.72
      vertex 1.39234e-14 78.5209 12.28
    endloop
  endfacet
  facet normal -1 1.77321e-16 0
    outer loop
      vertex 1.49799e-14 84.4791 15.72
      vertex 1.52496e-14 86 18
      vertex 1.49799e-14 84.4791 12.28
    endloop
  endfacet
  facet normal -1 1.77321e-16 0
    outer loop
      vertex 1.52496e-14 86 0
      vertex 1.4432e-14 81.3891 10.624
      vertex 1.44517e-14 81.5 10.56
    endloop
  endfacet
  facet normal -1 1.77321e-16 0
    outer loop
      vertex 1.52496e-14 86 0
      vertex 1.44517e-14 81.5 10.56
      vertex 1.49603e-14 84.3683 12.216
    endloop
  endfacet
  facet normal -1 1.77321e-16 0
    outer loop
      vertex 1.52496e-14 86 0
      vertex 1.49603e-14 84.3683 12.216
      vertex 1.49799e-14 84.4791 12.28
    endloop
  endfacet
  facet normal -1 1.77321e-16 0
    outer loop
      vertex 1.52496e-14 86 0
      vertex 1.49799e-14 84.4791 12.28
      vertex 1.52496e-14 86 18
    endloop
  endfacet
  facet normal -1 1.77321e-16 0
    outer loop
      vertex 1.44713e-14 81.6109 17.376
      vertex 1.52496e-14 86 18
      vertex 1.49799e-14 84.4791 15.72
    endloop
  endfacet
  facet normal -1 1.77321e-16 0
    outer loop
      vertex 1.39431e-14 78.6317 15.784
      vertex 3.01076e-15 16.9791 15.72
      vertex 1.44517e-14 81.5 17.44
    endloop
  endfacet
  facet normal -1 1.77321e-16 0
    outer loop
      vertex 1.44713e-14 81.6109 17.376
      vertex 1.44517e-14 81.5 17.44
      vertex 1.52496e-14 86 18
    endloop
  endfacet
  facet normal -1 1.77321e-16 0
    outer loop
      vertex 1.39234e-14 78.5209 15.72
      vertex 3.01076e-15 16.9791 15.72
      vertex 1.39431e-14 78.6317 15.784
    endloop
  endfacet
  facet normal -1 1.77321e-16 0
    outer loop
      vertex 2.9911e-15 16.8683 12.216
      vertex 1.52496e-14 86 0
      vertex 2.4825e-15 14 10.56
    endloop
  endfacet
  facet normal -0.866025 -0.5 0
    outer loop
      vertex 5 56.8113 0
      vertex 34.9132 5 0
      vertex 5 56.8113 10
    endloop
  endfacet
  facet normal -0.866025 -0.5 0
    outer loop
      vertex 5 56.8113 10
      vertex 34.9132 5 0
      vertex 34.9132 5 10
    endloop
  endfacet
  facet normal 0.984808 3.85577e-17 0.173649
    outer loop
      vertex 8.59649 0 4.45277
      vertex 8.59649 5 4.45277
      vertex 8.5 5 5
    endloop
  endfacet
  facet normal 0.984808 3.85577e-17 0.173649
    outer loop
      vertex 8.5 0 5
      vertex 8.59649 0 4.45277
      vertex 8.5 5 5
    endloop
  endfacet
  facet normal 0.866025 1.11022e-16 0.5
    outer loop
      vertex 8.87433 0 3.97154
      vertex 8.87433 5 3.97154
      vertex 8.59649 5 4.45277
    endloop
  endfacet
  facet normal 0.866025 1.11022e-16 0.5
    outer loop
      vertex 8.59649 0 4.45277
      vertex 8.87433 0 3.97154
      vertex 8.59649 5 4.45277
    endloop
  endfacet
  facet normal 0.642788 1.70096e-16 0.766044
    outer loop
      vertex 9.3 0 3.61436
      vertex 9.3 5 3.61436
      vertex 8.87433 5 3.97154
    endloop
  endfacet
  facet normal 0.642788 1.70096e-16 0.766044
    outer loop
      vertex 8.87433 0 3.97154
      vertex 9.3 0 3.61436
      vertex 8.87433 5 3.97154
    endloop
  endfacet
  facet normal 0.342019 2.08654e-16 0.939693
    outer loop
      vertex 9.82216 0 3.42431
      vertex 9.82216 5 3.42431
      vertex 9.3 5 3.61436
    endloop
  endfacet
  facet normal 0.342019 2.08654e-16 0.939693
    outer loop
      vertex 9.3 0 3.61436
      vertex 9.82216 0 3.42431
      vertex 9.3 5 3.61436
    endloop
  endfacet
  facet normal 0 2.22045e-16 1
    outer loop
      vertex 10.3778 0 3.42431
      vertex 10.3778 5 3.42431
      vertex 9.82216 5 3.42431
    endloop
  endfacet
  facet normal 0 2.22045e-16 1
    outer loop
      vertex 9.82216 0 3.42431
      vertex 10.3778 0 3.42431
      vertex 9.82216 5 3.42431
    endloop
  endfacet
  facet normal -0.342019 2.08654e-16 0.939693
    outer loop
      vertex 10.9 0 3.61436
      vertex 10.9 5 3.61436
      vertex 10.3778 5 3.42431
    endloop
  endfacet
  facet normal -0.342019 2.08654e-16 0.939693
    outer loop
      vertex 10.3778 0 3.42431
      vertex 10.9 0 3.61436
      vertex 10.3778 5 3.42431
    endloop
  endfacet
  facet normal -0.642788 1.70096e-16 0.766044
    outer loop
      vertex 11.3257 0 3.97154
      vertex 11.3257 5 3.97154
      vertex 10.9 5 3.61436
    endloop
  endfacet
  facet normal -0.642788 1.70096e-16 0.766044
    outer loop
      vertex 10.9 0 3.61436
      vertex 11.3257 0 3.97154
      vertex 10.9 5 3.61436
    endloop
  endfacet
  facet normal -0.866025 1.11022e-16 0.5
    outer loop
      vertex 11.6035 5 4.45277
      vertex 11.3257 5 3.97154
      vertex 11.6035 0 4.45277
    endloop
  endfacet
  facet normal -0.866025 1.11022e-16 0.5
    outer loop
      vertex 11.6035 0 4.45277
      vertex 11.3257 5 3.97154
      vertex 11.3257 0 3.97154
    endloop
  endfacet
  facet normal -0.984808 3.85577e-17 0.173649
    outer loop
      vertex 11.7 5 5
      vertex 11.6035 5 4.45277
      vertex 11.7 0 5
    endloop
  endfacet
  facet normal -0.984808 3.85577e-17 0.173649
    outer loop
      vertex 11.7 0 5
      vertex 11.6035 5 4.45277
      vertex 11.6035 0 4.45277
    endloop
  endfacet
  facet normal -0.984808 -3.85577e-17 -0.173649
    outer loop
      vertex 11.7 5 5
      vertex 11.7 0 5
      vertex 11.6035 5 5.54723
    endloop
  endfacet
  facet normal -0.984808 -3.85577e-17 -0.173649
    outer loop
      vertex 11.6035 5 5.54723
      vertex 11.7 0 5
      vertex 11.6035 0 5.54723
    endloop
  endfacet
  facet normal -0.866025 -1.11022e-16 -0.5
    outer loop
      vertex 11.6035 5 5.54723
      vertex 11.6035 0 5.54723
      vertex 11.3257 5 6.02846
    endloop
  endfacet
  facet normal -0.866025 -1.11022e-16 -0.5
    outer loop
      vertex 11.3257 5 6.02846
      vertex 11.6035 0 5.54723
      vertex 11.3257 0 6.02846
    endloop
  endfacet
  facet normal -0.642788 -1.70096e-16 -0.766044
    outer loop
      vertex 11.3257 5 6.02846
      vertex 11.3257 0 6.02846
      vertex 10.9 5 6.38564
    endloop
  endfacet
  facet normal -0.642788 -1.70096e-16 -0.766044
    outer loop
      vertex 10.9 5 6.38564
      vertex 11.3257 0 6.02846
      vertex 10.9 0 6.38564
    endloop
  endfacet
  facet normal -0.342019 -2.08654e-16 -0.939693
    outer loop
      vertex 10.9 5 6.38564
      vertex 10.9 0 6.38564
      vertex 10.3778 5 6.57569
    endloop
  endfacet
  facet normal -0.342019 -2.08654e-16 -0.939693
    outer loop
      vertex 10.3778 5 6.57569
      vertex 10.9 0 6.38564
      vertex 10.3778 0 6.57569
    endloop
  endfacet
  facet normal 0 -2.22045e-16 -1
    outer loop
      vertex 10.3778 5 6.57569
      vertex 10.3778 0 6.57569
      vertex 9.82216 5 6.57569
    endloop
  endfacet
  facet normal 0 -2.22045e-16 -1
    outer loop
      vertex 9.82216 5 6.57569
      vertex 10.3778 0 6.57569
      vertex 9.82216 0 6.57569
    endloop
  endfacet
  facet normal 0.342019 -2.08654e-16 -0.939693
    outer loop
      vertex 9.82216 5 6.57569
      vertex 9.82216 0 6.57569
      vertex 9.3 5 6.38564
    endloop
  endfacet
  facet normal 0.342019 -2.08654e-16 -0.939693
    outer loop
      vertex 9.3 5 6.38564
      vertex 9.82216 0 6.57569
      vertex 9.3 0 6.38564
    endloop
  endfacet
  facet normal 0.642788 -1.70096e-16 -0.766044
    outer loop
      vertex 9.3 5 6.38564
      vertex 9.3 0 6.38564
      vertex 8.87433 5 6.02846
    endloop
  endfacet
  facet normal 0.642788 -1.70096e-16 -0.766044
    outer loop
      vertex 8.87433 5 6.02846
      vertex 9.3 0 6.38564
      vertex 8.87433 0 6.02846
    endloop
  endfacet
  facet normal 0.866025 -1.11022e-16 -0.5
    outer loop
      vertex 8.59649 5 5.54723
      vertex 8.87433 5 6.02846
      vertex 8.87433 0 6.02846
    endloop
  endfacet
  facet normal 0.866025 -1.11022e-16 -0.5
    outer loop
      vertex 8.59649 0 5.54723
      vertex 8.59649 5 5.54723
      vertex 8.87433 0 6.02846
    endloop
  endfacet
  facet normal 0.984808 -3.85577e-17 -0.173649
    outer loop
      vertex 8.5 5 5
      vertex 8.59649 5 5.54723
      vertex 8.59649 0 5.54723
    endloop
  endfacet
  facet normal 0.984808 -3.85577e-17 -0.173649
    outer loop
      vertex 8.5 0 5
      vertex 8.5 5 5
      vertex 8.59649 0 5.54723
    endloop
  endfacet
  facet normal 0.984808 3.85577e-17 0.173649
    outer loop
      vertex 48.9965 0 4.45277
      vertex 48.9965 5 4.45277
      vertex 48.9 5 5
    endloop
  endfacet
  facet normal 0.984808 3.85577e-17 0.173649
    outer loop
      vertex 48.9 0 5
      vertex 48.9965 0 4.45277
      vertex 48.9 5 5
    endloop
  endfacet
  facet normal 0.866025 1.11022e-16 0.5
    outer loop
      vertex 49.2743 0 3.97154
      vertex 49.2743 5 3.97154
      vertex 48.9965 5 4.45277
    endloop
  endfacet
  facet normal 0.866025 1.11022e-16 0.5
    outer loop
      vertex 48.9965 0 4.45277
      vertex 49.2743 0 3.97154
      vertex 48.9965 5 4.45277
    endloop
  endfacet
  facet normal 0.642788 1.70096e-16 0.766044
    outer loop
      vertex 49.7 0 3.61436
      vertex 49.7 5 3.61436
      vertex 49.2743 5 3.97154
    endloop
  endfacet
  facet normal 0.642788 1.70096e-16 0.766044
    outer loop
      vertex 49.2743 0 3.97154
      vertex 49.7 0 3.61436
      vertex 49.2743 5 3.97154
    endloop
  endfacet
  facet normal 0.342019 2.08654e-16 0.939693
    outer loop
      vertex 50.2222 0 3.42431
      vertex 50.2222 5 3.42431
      vertex 49.7 5 3.61436
    endloop
  endfacet
  facet normal 0.342019 2.08654e-16 0.939693
    outer loop
      vertex 49.7 0 3.61436
      vertex 50.2222 0 3.42431
      vertex 49.7 5 3.61436
    endloop
  endfacet
  facet normal 0 2.22045e-16 1
    outer loop
      vertex 50.7778 0 3.42431
      vertex 50.7778 5 3.42431
      vertex 50.2222 5 3.42431
    endloop
  endfacet
  facet normal 0 2.22045e-16 1
    outer loop
      vertex 50.2222 0 3.42431
      vertex 50.7778 0 3.42431
      vertex 50.2222 5 3.42431
    endloop
  endfacet
  facet normal -0.342019 2.08654e-16 0.939693
    outer loop
      vertex 51.3 0 3.61436
      vertex 51.3 5 3.61436
      vertex 50.7778 5 3.42431
    endloop
  endfacet
  facet normal -0.342019 2.08654e-16 0.939693
    outer loop
      vertex 50.7778 0 3.42431
      vertex 51.3 0 3.61436
      vertex 50.7778 5 3.42431
    endloop
  endfacet
  facet normal -0.642788 1.70096e-16 0.766044
    outer loop
      vertex 51.7257 0 3.97154
      vertex 51.7257 5 3.97154
      vertex 51.3 5 3.61436
    endloop
  endfacet
  facet normal -0.642788 1.70096e-16 0.766044
    outer loop
      vertex 51.3 0 3.61436
      vertex 51.7257 0 3.97154
      vertex 51.3 5 3.61436
    endloop
  endfacet
  facet normal -0.866025 1.11022e-16 0.5
    outer loop
      vertex 52.0035 5 4.45277
      vertex 51.7257 5 3.97154
      vertex 52.0035 0 4.45277
    endloop
  endfacet
  facet normal -0.866025 1.11022e-16 0.5
    outer loop
      vertex 52.0035 0 4.45277
      vertex 51.7257 5 3.97154
      vertex 51.7257 0 3.97154
    endloop
  endfacet
  facet normal -0.984808 3.85577e-17 0.173649
    outer loop
      vertex 52.1 5 5
      vertex 52.0035 5 4.45277
      vertex 52.1 0 5
    endloop
  endfacet
  facet normal -0.984808 3.85577e-17 0.173649
    outer loop
      vertex 52.1 0 5
      vertex 52.0035 5 4.45277
      vertex 52.0035 0 4.45277
    endloop
  endfacet
  facet normal -0.984808 -3.85577e-17 -0.173649
    outer loop
      vertex 52.1 5 5
      vertex 52.1 0 5
      vertex 52.0035 5 5.54723
    endloop
  endfacet
  facet normal -0.984808 -3.85577e-17 -0.173649
    outer loop
      vertex 52.0035 5 5.54723
      vertex 52.1 0 5
      vertex 52.0035 0 5.54723
    endloop
  endfacet
  facet normal -0.866025 -1.11022e-16 -0.5
    outer loop
      vertex 52.0035 5 5.54723
      vertex 52.0035 0 5.54723
      vertex 51.7257 5 6.02846
    endloop
  endfacet
  facet normal -0.866025 -1.11022e-16 -0.5
    outer loop
      vertex 51.7257 5 6.02846
      vertex 52.0035 0 5.54723
      vertex 51.7257 0 6.02846
    endloop
  endfacet
  facet normal -0.642788 -1.70096e-16 -0.766044
    outer loop
      vertex 51.7257 5 6.02846
      vertex 51.7257 0 6.02846
      vertex 51.3 5 6.38564
    endloop
  endfacet
  facet normal -0.642788 -1.70096e-16 -0.766044
    outer loop
      vertex 51.3 5 6.38564
      vertex 51.7257 0 6.02846
      vertex 51.3 0 6.38564
    endloop
  endfacet
  facet normal -0.342019 -2.08654e-16 -0.939693
    outer loop
      vertex 51.3 5 6.38564
      vertex 51.3 0 6.38564
      vertex 50.7778 5 6.57569
    endloop
  endfacet
  facet normal -0.342019 -2.08654e-16 -0.939693
    outer loop
      vertex 50.7778 5 6.57569
      vertex 51.3 0 6.38564
      vertex 50.7778 0 6.57569
    endloop
  endfacet
  facet normal 0 -2.22045e-16 -1
    outer loop
      vertex 50.7778 5 6.57569
      vertex 50.7778 0 6.57569
      vertex 50.2222 5 6.57569
    endloop
  endfacet
  facet normal 0 -2.22045e-16 -1
    outer loop
      vertex 50.2222 5 6.57569
      vertex 50.7778 0 6.57569
      vertex 50.2222 0 6.57569
    endloop
  endfacet
  facet normal 0.342019 -2.08654e-16 -0.939693
    outer loop
      vertex 50.2222 5 6.57569
      vertex 50.2222 0 6.57569
      vertex 49.7 5 6.38564
    endloop
  endfacet
  facet normal 0.342019 -2.08654e-16 -0.939693
    outer loop
      vertex 49.7 5 6.38564
      vertex 50.2222 0 6.57569
      vertex 49.7 0 6.38564
    endloop
  endfacet
  facet normal 0.642788 -1.70096e-16 -0.766044
    outer loop
      vertex 49.7 5 6.38564
      vertex 49.7 0 6.38564
      vertex 49.2743 5 6.02846
    endloop
  endfacet
  facet normal 0.642788 -1.70096e-16 -0.766044
    outer loop
      vertex 49.2743 5 6.02846
      vertex 49.7 0 6.38564
      vertex 49.2743 0 6.02846
    endloop
  endfacet
  facet normal 0.866025 -1.11022e-16 -0.5
    outer loop
      vertex 48.9965 5 5.54723
      vertex 49.2743 5 6.02846
      vertex 49.2743 0 6.02846
    endloop
  endfacet
  facet normal 0.866025 -1.11022e-16 -0.5
    outer loop
      vertex 48.9965 0 5.54723
      vertex 48.9965 5 5.54723
      vertex 49.2743 0 6.02846
    endloop
  endfacet
  facet normal 0.984808 -3.85577e-17 -0.173649
    outer loop
      vertex 48.9 5 5
      vertex 48.9965 5 5.54723
      vertex 48.9965 0 5.54723
    endloop
  endfacet
  facet normal 0.984808 -3.85577e-17 -0.173649
    outer loop
      vertex 48.9 0 5
      vertex 48.9 5 5
      vertex 48.9965 0 5.54723
    endloop
  endfacet
  facet normal 0 0 1
    outer loop
      vertex 5 66.8113 10
      vertex 5 56.8113 10
      vertex 34.9132 5 10
    endloop
  endfacet
  facet normal 0 0 1
    outer loop
      vertex 40.6868 5 10
      vertex 5 66.8113 10
      vertex 34.9132 5 10
    endloop
  endfacet
  facet normal 0.33048 -0.943813 5.86011e-17
    outer loop
      vertex 5 10.0608 14.6946
      vertex 5 10.0608 13.3054
      vertex 7.25 10.8486 13.4443
    endloop
  endfacet
  facet normal 0.33048 -0.943813 5.86011e-17
    outer loop
      vertex 7.25 10.8486 14.5557
      vertex 5 10.0608 14.6946
      vertex 7.25 10.8486 13.4443
    endloop
  endfacet
  facet normal 0.33048 -0.886894 -0.322803
    outer loop
      vertex 7.25 10.8486 13.4443
      vertex 5 10.0608 13.3054
      vertex 5 10.5359 12
    endloop
  endfacet
  facet normal 0.33048 -0.886894 -0.322803
    outer loop
      vertex 7.25 11.2287 12.4
      vertex 7.25 10.8486 13.4443
      vertex 5 10.5359 12
    endloop
  endfacet
  facet normal 0.33048 -0.723002 -0.606672
    outer loop
      vertex 7.25 11.2287 12.4
      vertex 5 10.5359 12
      vertex 5 11.4288 10.9358
    endloop
  endfacet
  facet normal 0.33048 -0.723003 -0.606671
    outer loop
      vertex 7.25 11.9431 11.5487
      vertex 7.25 11.2287 12.4
      vertex 5 11.4288 10.9358
    endloop
  endfacet
  facet normal 0.33048 -0.471906 -0.817366
    outer loop
      vertex 7.25 11.9431 11.5487
      vertex 5 11.4288 10.9358
      vertex 5 12.6319 10.2412
    endloop
  endfacet
  facet normal 0.33048 -0.471906 -0.817366
    outer loop
      vertex 7.25 11.9431 11.5487
      vertex 5 12.6319 10.2412
      vertex 7.25 12.9055 10.993
    endloop
  endfacet
  facet normal 0.33048 -0.163892 -0.929474
    outer loop
      vertex 7.25 12.9055 10.993
      vertex 5 12.6319 10.2412
      vertex 5 14 10
    endloop
  endfacet
  facet normal 0.33048 -0.163892 -0.929474
    outer loop
      vertex 7.25 12.9055 10.993
      vertex 5 14 10
      vertex 7.25 14 10.8
    endloop
  endfacet
  facet normal 0.33048 0.163892 -0.929474
    outer loop
      vertex 7.25 14 10.8
      vertex 5 14 10
      vertex 5 15.3681 10.2412
    endloop
  endfacet
  facet normal 0.33048 0.163892 -0.929474
    outer loop
      vertex 7.25 14 10.8
      vertex 5 15.3681 10.2412
      vertex 7.25 15.0945 10.993
    endloop
  endfacet
  facet normal 0.33048 0.471906 -0.817366
    outer loop
      vertex 7.25 15.0945 10.993
      vertex 5 15.3681 10.2412
      vertex 5 16.5711 10.9358
    endloop
  endfacet
  facet normal 0.33048 0.471906 -0.817366
    outer loop
      vertex 7.25 15.0945 10.993
      vertex 5 16.5711 10.9358
      vertex 7.25 16.0569 11.5487
    endloop
  endfacet
  facet normal 0.33048 0.723003 -0.606672
    outer loop
      vertex 7.25 16.0569 11.5487
      vertex 5 16.5711 10.9358
      vertex 5 17.4641 12
    endloop
  endfacet
  facet normal 0.33048 0.723003 -0.606671
    outer loop
      vertex 7.25 16.0569 11.5487
      vertex 5 17.4641 12
      vertex 7.25 16.7713 12.4
    endloop
  endfacet
  facet normal 0.33048 0.886894 -0.322803
    outer loop
      vertex 7.25 16.7713 12.4
      vertex 5 17.4641 12
      vertex 5 17.9392 13.3054
    endloop
  endfacet
  facet normal 0.33048 0.886894 -0.322803
    outer loop
      vertex 7.25 16.7713 12.4
      vertex 5 17.9392 13.3054
      vertex 7.25 17.1514 13.4443
    endloop
  endfacet
  facet normal 0.33048 0.943813 5.86011e-17
    outer loop
      vertex 5 17.9392 14.6946
      vertex 7.25 17.1514 14.5557
      vertex 5 17.9392 13.3054
    endloop
  endfacet
  facet normal 0.33048 0.943813 5.86011e-17
    outer loop
      vertex 5 17.9392 13.3054
      vertex 7.25 17.1514 14.5557
      vertex 7.25 17.1514 13.4443
    endloop
  endfacet
  facet normal 0.33048 0.886894 0.322803
    outer loop
      vertex 5 17.9392 14.6946
      vertex 5 17.4641 16
      vertex 7.25 17.1514 14.5557
    endloop
  endfacet
  facet normal 0.33048 0.886894 0.322803
    outer loop
      vertex 5 17.4641 16
      vertex 7.25 16.7713 15.6
      vertex 7.25 17.1514 14.5557
    endloop
  endfacet
  facet normal 0.33048 0.723002 0.606672
    outer loop
      vertex 5 17.4641 16
      vertex 5 16.5711 17.0642
      vertex 7.25 16.7713 15.6
    endloop
  endfacet
  facet normal 0.33048 0.723003 0.606671
    outer loop
      vertex 5 16.5711 17.0642
      vertex 7.25 16.0569 16.4513
      vertex 7.25 16.7713 15.6
    endloop
  endfacet
  facet normal 0.33048 0.471906 0.817366
    outer loop
      vertex 5 16.5711 17.0642
      vertex 5 15.3681 17.7588
      vertex 7.25 16.0569 16.4513
    endloop
  endfacet
  facet normal 0.33048 0.471906 0.817366
    outer loop
      vertex 7.25 16.0569 16.4513
      vertex 5 15.3681 17.7588
      vertex 7.25 15.0945 17.007
    endloop
  endfacet
  facet normal 0.33048 0.163892 0.929474
    outer loop
      vertex 5 15.3681 17.7588
      vertex 5 14 18
      vertex 7.25 15.0945 17.007
    endloop
  endfacet
  facet normal 0.33048 0.163892 0.929474
    outer loop
      vertex 7.25 15.0945 17.007
      vertex 5 14 18
      vertex 7.25 14 17.2
    endloop
  endfacet
  facet normal 0.33048 -0.163892 0.929474
    outer loop
      vertex 5 14 18
      vertex 5 12.6319 17.7588
      vertex 7.25 14 17.2
    endloop
  endfacet
  facet normal 0.33048 -0.163892 0.929474
    outer loop
      vertex 7.25 14 17.2
      vertex 5 12.6319 17.7588
      vertex 7.25 12.9055 17.007
    endloop
  endfacet
  facet normal 0.33048 -0.471906 0.817366
    outer loop
      vertex 5 12.6319 17.7588
      vertex 5 11.4289 17.0642
      vertex 7.25 12.9055 17.007
    endloop
  endfacet
  facet normal 0.33048 -0.471906 0.817366
    outer loop
      vertex 7.25 12.9055 17.007
      vertex 5 11.4289 17.0642
      vertex 7.25 11.9431 16.4513
    endloop
  endfacet
  facet normal 0.33048 -0.723003 0.606672
    outer loop
      vertex 5 11.4289 17.0642
      vertex 5 10.5359 16
      vertex 7.25 11.9431 16.4513
    endloop
  endfacet
  facet normal 0.33048 -0.723003 0.606671
    outer loop
      vertex 7.25 11.9431 16.4513
      vertex 5 10.5359 16
      vertex 7.25 11.2287 15.6
    endloop
  endfacet
  facet normal 0.33048 -0.886894 0.322803
    outer loop
      vertex 5 10.5359 16
      vertex 5 10.0608 14.6946
      vertex 7.25 11.2287 15.6
    endloop
  endfacet
  facet normal 0.33048 -0.886894 0.322803
    outer loop
      vertex 7.25 11.2287 15.6
      vertex 5 10.0608 14.6946
      vertex 7.25 10.8486 14.5557
    endloop
  endfacet
  facet normal 0.33048 -0.886894 -0.322803
    outer loop
      vertex 7.25 78.3486 13.4443
      vertex 5 77.5608 13.3054
      vertex 5 78.0359 12
    endloop
  endfacet
  facet normal 0.33048 -0.943813 5.86011e-17
    outer loop
      vertex 5 77.5608 14.6946
      vertex 5 77.5608 13.3054
      vertex 7.25 78.3486 13.4443
    endloop
  endfacet
  facet normal 0.33048 -0.943813 5.86011e-17
    outer loop
      vertex 7.25 78.3486 14.5557
      vertex 5 77.5608 14.6946
      vertex 7.25 78.3486 13.4443
    endloop
  endfacet
  facet normal 0.33048 -0.886894 -0.322803
    outer loop
      vertex 7.25 78.7287 12.4
      vertex 7.25 78.3486 13.4443
      vertex 5 78.0359 12
    endloop
  endfacet
  facet normal 0.33048 -0.723002 -0.606672
    outer loop
      vertex 7.25 78.7287 12.4
      vertex 5 78.0359 12
      vertex 5 78.9288 10.9358
    endloop
  endfacet
  facet normal 0.33048 -0.723003 -0.606671
    outer loop
      vertex 7.25 79.4431 11.5487
      vertex 7.25 78.7287 12.4
      vertex 5 78.9288 10.9358
    endloop
  endfacet
  facet normal 0.33048 -0.471906 -0.817366
    outer loop
      vertex 7.25 79.4431 11.5487
      vertex 5 78.9288 10.9358
      vertex 5 80.1319 10.2412
    endloop
  endfacet
  facet normal 0.33048 -0.471906 -0.817366
    outer loop
      vertex 7.25 79.4431 11.5487
      vertex 5 80.1319 10.2412
      vertex 7.25 80.4055 10.993
    endloop
  endfacet
  facet normal 0.33048 -0.163892 -0.929474
    outer loop
      vertex 7.25 80.4055 10.993
      vertex 5 80.1319 10.2412
      vertex 5 81.5 10
    endloop
  endfacet
  facet normal 0.33048 -0.163892 -0.929474
    outer loop
      vertex 7.25 80.4055 10.993
      vertex 5 81.5 10
      vertex 7.25 81.5 10.8
    endloop
  endfacet
  facet normal 0.33048 0.163892 -0.929474
    outer loop
      vertex 7.25 81.5 10.8
      vertex 5 81.5 10
      vertex 5 82.8681 10.2412
    endloop
  endfacet
  facet normal 0.33048 0.163892 -0.929474
    outer loop
      vertex 7.25 81.5 10.8
      vertex 5 82.8681 10.2412
      vertex 7.25 82.5945 10.993
    endloop
  endfacet
  facet normal 0.33048 0.471906 -0.817366
    outer loop
      vertex 7.25 82.5945 10.993
      vertex 5 82.8681 10.2412
      vertex 5 84.0711 10.9358
    endloop
  endfacet
  facet normal 0.33048 0.471906 -0.817366
    outer loop
      vertex 7.25 82.5945 10.993
      vertex 5 84.0711 10.9358
      vertex 7.25 83.5569 11.5487
    endloop
  endfacet
  facet normal 0.33048 0.723003 -0.606672
    outer loop
      vertex 7.25 83.5569 11.5487
      vertex 5 84.0711 10.9358
      vertex 5 84.9641 12
    endloop
  endfacet
  facet normal 0.33048 0.723003 -0.606671
    outer loop
      vertex 7.25 83.5569 11.5487
      vertex 5 84.9641 12
      vertex 7.25 84.2713 12.4
    endloop
  endfacet
  facet normal 0.33048 0.886894 -0.322803
    outer loop
      vertex 7.25 84.2713 12.4
      vertex 5 84.9641 12
      vertex 5 85.4392 13.3054
    endloop
  endfacet
  facet normal 0.33048 0.886894 -0.322803
    outer loop
      vertex 7.25 84.2713 12.4
      vertex 5 85.4392 13.3054
      vertex 7.25 84.6514 13.4443
    endloop
  endfacet
  facet normal 0.33048 0.943813 5.86011e-17
    outer loop
      vertex 5 85.4392 14.6946
      vertex 7.25 84.6514 14.5557
      vertex 5 85.4392 13.3054
    endloop
  endfacet
  facet normal 0.33048 0.943813 5.86011e-17
    outer loop
      vertex 5 85.4392 13.3054
      vertex 7.25 84.6514 14.5557
      vertex 7.25 84.6514 13.4443
    endloop
  endfacet
  facet normal 0.33048 0.886894 0.322803
    outer loop
      vertex 5 85.4392 14.6946
      vertex 5 84.9641 16
      vertex 7.25 84.6514 14.5557
    endloop
  endfacet
  facet normal 0.33048 0.886894 0.322803
    outer loop
      vertex 5 84.9641 16
      vertex 7.25 84.2713 15.6
      vertex 7.25 84.6514 14.5557
    endloop
  endfacet
  facet normal 0.33048 0.723002 0.606672
    outer loop
      vertex 5 84.9641 16
      vertex 5 84.0711 17.0642
      vertex 7.25 84.2713 15.6
    endloop
  endfacet
  facet normal 0.33048 0.723003 0.606671
    outer loop
      vertex 5 84.0711 17.0642
      vertex 7.25 83.5569 16.4513
      vertex 7.25 84.2713 15.6
    endloop
  endfacet
  facet normal 0.33048 0.471906 0.817366
    outer loop
      vertex 5 84.0711 17.0642
      vertex 5 82.8681 17.7588
      vertex 7.25 83.5569 16.4513
    endloop
  endfacet
  facet normal 0.33048 0.471906 0.817366
    outer loop
      vertex 7.25 83.5569 16.4513
      vertex 5 82.8681 17.7588
      vertex 7.25 82.5945 17.007
    endloop
  endfacet
  facet normal 0.33048 0.163892 0.929474
    outer loop
      vertex 5 82.8681 17.7588
      vertex 5 81.5 18
      vertex 7.25 82.5945 17.007
    endloop
  endfacet
  facet normal 0.33048 0.163892 0.929474
    outer loop
      vertex 7.25 82.5945 17.007
      vertex 5 81.5 18
      vertex 7.25 81.5 17.2
    endloop
  endfacet
  facet normal 0.33048 -0.163892 0.929474
    outer loop
      vertex 5 81.5 18
      vertex 5 80.1319 17.7588
      vertex 7.25 81.5 17.2
    endloop
  endfacet
  facet normal 0.33048 -0.163892 0.929474
    outer loop
      vertex 7.25 81.5 17.2
      vertex 5 80.1319 17.7588
      vertex 7.25 80.4055 17.007
    endloop
  endfacet
  facet normal 0.33048 -0.471906 0.817366
    outer loop
      vertex 5 80.1319 17.7588
      vertex 5 78.9288 17.0642
      vertex 7.25 80.4055 17.007
    endloop
  endfacet
  facet normal 0.33048 -0.471906 0.817366
    outer loop
      vertex 7.25 80.4055 17.007
      vertex 5 78.9288 17.0642
      vertex 7.25 79.4431 16.4513
    endloop
  endfacet
  facet normal 0.33048 -0.723003 0.606672
    outer loop
      vertex 5 78.9288 17.0642
      vertex 5 78.0359 16
      vertex 7.25 79.4431 16.4513
    endloop
  endfacet
  facet normal 0.33048 -0.723003 0.606671
    outer loop
      vertex 7.25 79.4431 16.4513
      vertex 5 78.0359 16
      vertex 7.25 78.7287 15.6
    endloop
  endfacet
  facet normal 0.33048 -0.886894 0.322803
    outer loop
      vertex 5 78.0359 16
      vertex 5 77.5608 14.6946
      vertex 7.25 78.7287 15.6
    endloop
  endfacet
  facet normal 0.33048 -0.886894 0.322803
    outer loop
      vertex 7.25 78.7287 15.6
      vertex 5 77.5608 14.6946
      vertex 7.25 78.3486 14.5557
    endloop
  endfacet
  facet normal -0.0862797 0.498136 -0.862796
    outer loop
      vertex 2.4 14 17.2
      vertex 2.4 11.2287 15.6
      vertex 1.97389e-15 11.1317 15.784
    endloop
  endfacet
  facet normal -0.0862797 0.498136 -0.862796
    outer loop
      vertex 1.97389e-15 11.1317 15.784
      vertex 2.4 11.2287 15.6
      vertex 1.95424e-15 11.0209 15.72
    endloop
  endfacet
  facet normal -0.0862799 0.996271 -1.52993e-17
    outer loop
      vertex 2.4 11.2287 15.6
      vertex 2.4 11.2287 12.4
      vertex 1.95424e-15 11.0209 15.72
    endloop
  endfacet
  facet normal -0.0862799 0.996271 -1.52993e-17
    outer loop
      vertex 1.95424e-15 11.0209 15.72
      vertex 2.4 11.2287 12.4
      vertex 1.95424e-15 11.0209 12.28
    endloop
  endfacet
  facet normal -0.0862796 0.498135 -0.862796
    outer loop
      vertex 2.4825e-15 14 17.44
      vertex 2.4 14 17.2
      vertex 1.97389e-15 11.1317 15.784
    endloop
  endfacet
  facet normal -0.0862796 -0.498136 -0.862796
    outer loop
      vertex 2.4 16.7713 15.6
      vertex 2.4 14 17.2
      vertex 2.50215e-15 14.1109 17.376
    endloop
  endfacet
  facet normal -0.0862796 -0.498136 -0.862796
    outer loop
      vertex 2.50215e-15 14.1109 17.376
      vertex 2.4 14 17.2
      vertex 2.4825e-15 14 17.44
    endloop
  endfacet
  facet normal -0.0862797 -0.498135 -0.862796
    outer loop
      vertex 3.01076e-15 16.9791 15.72
      vertex 2.4 16.7713 15.6
      vertex 2.50215e-15 14.1109 17.376
    endloop
  endfacet
  facet normal -0.0862799 -0.996271 -1.52993e-17
    outer loop
      vertex 3.01076e-15 16.9791 12.28
      vertex 2.4 16.7713 12.4
      vertex 2.4 16.7713 15.6
    endloop
  endfacet
  facet normal -0.0862799 -0.996271 -1.52993e-17
    outer loop
      vertex 3.01076e-15 16.9791 15.72
      vertex 3.01076e-15 16.9791 12.28
      vertex 2.4 16.7713 15.6
    endloop
  endfacet
  facet normal -0.0862797 -0.498136 0.862796
    outer loop
      vertex 2.4 14 10.8
      vertex 2.4 16.7713 12.4
      vertex 3.01076e-15 16.9791 12.28
    endloop
  endfacet
  facet normal -0.0862797 -0.498136 0.862796
    outer loop
      vertex 2.9911e-15 16.8683 12.216
      vertex 2.4 14 10.8
      vertex 3.01076e-15 16.9791 12.28
    endloop
  endfacet
  facet normal -0.0862796 -0.498135 0.862796
    outer loop
      vertex 2.4 14 10.8
      vertex 2.9911e-15 16.8683 12.216
      vertex 2.4825e-15 14 10.56
    endloop
  endfacet
  facet normal -0.0862796 0.498136 0.862796
    outer loop
      vertex 2.4 11.2287 12.4
      vertex 2.4 14 10.8
      vertex 2.4825e-15 14 10.56
    endloop
  endfacet
  facet normal -0.0862796 0.498136 0.862796
    outer loop
      vertex 2.46284e-15 13.8891 10.624
      vertex 2.4 11.2287 12.4
      vertex 2.4825e-15 14 10.56
    endloop
  endfacet
  facet normal -0.0862797 0.498135 0.862796
    outer loop
      vertex 2.4 11.2287 12.4
      vertex 2.46284e-15 13.8891 10.624
      vertex 1.95424e-15 11.0209 12.28
    endloop
  endfacet
  facet normal -0.0862797 0.498136 -0.862796
    outer loop
      vertex 2.4 81.5 17.2
      vertex 2.4 78.7287 15.6
      vertex 1.39431e-14 78.6317 15.784
    endloop
  endfacet
  facet normal -0.0862797 0.498136 -0.862796
    outer loop
      vertex 1.39431e-14 78.6317 15.784
      vertex 2.4 78.7287 15.6
      vertex 1.39234e-14 78.5209 15.72
    endloop
  endfacet
  facet normal -0.0862799 0.996271 -1.52993e-17
    outer loop
      vertex 2.4 78.7287 15.6
      vertex 2.4 78.7287 12.4
      vertex 1.39234e-14 78.5209 15.72
    endloop
  endfacet
  facet normal -0.0862799 0.996271 -1.52993e-17
    outer loop
      vertex 1.39234e-14 78.5209 15.72
      vertex 2.4 78.7287 12.4
      vertex 1.39234e-14 78.5209 12.28
    endloop
  endfacet
  facet normal -0.0862796 0.498135 -0.862796
    outer loop
      vertex 1.44517e-14 81.5 17.44
      vertex 2.4 81.5 17.2
      vertex 1.39431e-14 78.6317 15.784
    endloop
  endfacet
  facet normal -0.0862796 -0.498136 -0.862796
    outer loop
      vertex 2.4 84.2713 15.6
      vertex 2.4 81.5 17.2
      vertex 1.44713e-14 81.6109 17.376
    endloop
  endfacet
  facet normal -0.0862796 -0.498136 -0.862796
    outer loop
      vertex 1.44713e-14 81.6109 17.376
      vertex 2.4 81.5 17.2
      vertex 1.44517e-14 81.5 17.44
    endloop
  endfacet
  facet normal -0.0862797 -0.498135 -0.862796
    outer loop
      vertex 1.49799e-14 84.4791 15.72
      vertex 2.4 84.2713 15.6
      vertex 1.44713e-14 81.6109 17.376
    endloop
  endfacet
  facet normal -0.0862799 -0.996271 -1.52993e-17
    outer loop
      vertex 1.49799e-14 84.4791 12.28
      vertex 2.4 84.2713 12.4
      vertex 2.4 84.2713 15.6
    endloop
  endfacet
  facet normal -0.0862799 -0.996271 -1.52993e-17
    outer loop
      vertex 1.49799e-14 84.4791 15.72
      vertex 1.49799e-14 84.4791 12.28
      vertex 2.4 84.2713 15.6
    endloop
  endfacet
  facet normal -0.0862797 -0.498136 0.862796
    outer loop
      vertex 2.4 81.5 10.8
      vertex 2.4 84.2713 12.4
      vertex 1.49799e-14 84.4791 12.28
    endloop
  endfacet
  facet normal -0.0862797 -0.498136 0.862796
    outer loop
      vertex 1.49603e-14 84.3683 12.216
      vertex 2.4 81.5 10.8
      vertex 1.49799e-14 84.4791 12.28
    endloop
  endfacet
  facet normal -0.0862796 -0.498135 0.862796
    outer loop
      vertex 2.4 81.5 10.8
      vertex 1.49603e-14 84.3683 12.216
      vertex 1.44517e-14 81.5 10.56
    endloop
  endfacet
  facet normal -0.0862796 0.498136 0.862796
    outer loop
      vertex 2.4 78.7287 12.4
      vertex 2.4 81.5 10.8
      vertex 1.44517e-14 81.5 10.56
    endloop
  endfacet
  facet normal -0.0862796 0.498136 0.862796
    outer loop
      vertex 1.4432e-14 81.3891 10.624
      vertex 2.4 78.7287 12.4
      vertex 1.44517e-14 81.5 10.56
    endloop
  endfacet
  facet normal -0.0862797 0.498135 0.862796
    outer loop
      vertex 2.4 78.7287 12.4
      vertex 1.4432e-14 81.3891 10.624
      vertex 1.39234e-14 78.5209 12.28
    endloop
  endfacet
  facet normal 1 0 1.77321e-16
    outer loop
      vertex 7.25 15.0945 17.007
      vertex 7.25 14 17.2
      vertex 7.25 12.9055 17.007
    endloop
  endfacet
  facet normal 1 0 1.77321e-16
    outer loop
      vertex 7.25 11.2287 15.6
      vertex 7.25 15.0945 17.007
      vertex 7.25 11.9431 16.4513
    endloop
  endfacet
  facet normal 1 0 1.77321e-16
    outer loop
      vertex 7.25 11.9431 16.4513
      vertex 7.25 15.0945 17.007
      vertex 7.25 12.9055 17.007
    endloop
  endfacet
  facet normal 1 0 1.77321e-16
    outer loop
      vertex 7.25 10.8486 14.5557
      vertex 7.25 15.0945 17.007
      vertex 7.25 11.2287 15.6
    endloop
  endfacet
  facet normal 1 0 1.77321e-16
    outer loop
      vertex 7.25 10.8486 13.4443
      vertex 7.25 15.0945 17.007
      vertex 7.25 10.8486 14.5557
    endloop
  endfacet
  facet normal 1 0 1.77321e-16
    outer loop
      vertex 7.25 12.9715 15.2257
      vertex 7.25 15.0945 17.007
      vertex 7.25 10.8486 13.4443
    endloop
  endfacet
  facet normal 1 0 1.77321e-16
    outer loop
      vertex 7.25 12.9055 10.993
      vertex 7.25 13.4528 12.4965
      vertex 7.25 11.9431 11.5487
    endloop
  endfacet
  facet normal 1 0 1.77321e-16
    outer loop
      vertex 7.25 17.1514 13.4443
      vertex 7.25 15.0945 17.007
      vertex 7.25 16.7713 12.4
    endloop
  endfacet
  facet normal 1 0 1.77321e-16
    outer loop
      vertex 7.25 17.1514 14.5557
      vertex 7.25 15.0945 17.007
      vertex 7.25 17.1514 13.4443
    endloop
  endfacet
  facet normal 1 0 1.77321e-16
    outer loop
      vertex 7.25 16.7713 15.6
      vertex 7.25 15.0945 17.007
      vertex 7.25 17.1514 14.5557
    endloop
  endfacet
  facet normal 1 0 1.77321e-16
    outer loop
      vertex 7.25 16.0569 16.4513
      vertex 7.25 15.0945 17.007
      vertex 7.25 16.7713 15.6
    endloop
  endfacet
  facet normal 1 0 1.77321e-16
    outer loop
      vertex 7.25 14 15.6
      vertex 7.25 14.5472 15.5035
      vertex 7.25 15.0945 17.007
    endloop
  endfacet
  facet normal 1 0 1.77321e-16
    outer loop
      vertex 7.25 14.5472 15.5035
      vertex 7.25 15.0285 15.2257
      vertex 7.25 15.0945 17.007
    endloop
  endfacet
  facet normal 1 0 1.77321e-16
    outer loop
      vertex 7.25 12.4243 13.7222
      vertex 7.25 12.4243 14.2778
      vertex 7.25 11.2287 12.4
    endloop
  endfacet
  facet normal 1 0 1.77321e-16
    outer loop
      vertex 7.25 15.0285 15.2257
      vertex 7.25 15.3856 14.8
      vertex 7.25 15.0945 17.007
    endloop
  endfacet
  facet normal 1 0 1.77321e-16
    outer loop
      vertex 7.25 12.9715 12.7743
      vertex 7.25 12.6144 13.2
      vertex 7.25 11.9431 11.5487
    endloop
  endfacet
  facet normal 1 0 1.77321e-16
    outer loop
      vertex 7.25 15.3856 14.8
      vertex 7.25 15.5757 14.2778
      vertex 7.25 15.0945 17.007
    endloop
  endfacet
  facet normal 1 0 1.77321e-16
    outer loop
      vertex 7.25 14.5472 12.4965
      vertex 7.25 14 12.4
      vertex 7.25 14 10.8
    endloop
  endfacet
  facet normal 1 0 1.77321e-16
    outer loop
      vertex 7.25 15.5757 14.2778
      vertex 7.25 15.5757 13.7222
      vertex 7.25 16.0569 11.5487
    endloop
  endfacet
  facet normal 1 0 1.77321e-16
    outer loop
      vertex 7.25 16.7713 12.4
      vertex 7.25 15.5757 14.2778
      vertex 7.25 16.0569 11.5487
    endloop
  endfacet
  facet normal 1 0 1.77321e-16
    outer loop
      vertex 7.25 16.7713 12.4
      vertex 7.25 15.0945 17.007
      vertex 7.25 15.5757 14.2778
    endloop
  endfacet
  facet normal 1 0 1.77321e-16
    outer loop
      vertex 7.25 16.0569 11.5487
      vertex 7.25 15.5757 13.7222
      vertex 7.25 15.0945 10.993
    endloop
  endfacet
  facet normal 1 0 1.77321e-16
    outer loop
      vertex 7.25 15.5757 13.7222
      vertex 7.25 15.3856 13.2
      vertex 7.25 15.0945 10.993
    endloop
  endfacet
  facet normal 1 0 1.77321e-16
    outer loop
      vertex 7.25 15.0945 10.993
      vertex 7.25 15.0285 12.7743
      vertex 7.25 14 10.8
    endloop
  endfacet
  facet normal 1 0 1.77321e-16
    outer loop
      vertex 7.25 15.0285 12.7743
      vertex 7.25 14.5472 12.4965
      vertex 7.25 14 10.8
    endloop
  endfacet
  facet normal 1 0 1.77321e-16
    outer loop
      vertex 7.25 14 10.8
      vertex 7.25 14 12.4
      vertex 7.25 12.9055 10.993
    endloop
  endfacet
  facet normal 1 0 1.77321e-16
    outer loop
      vertex 7.25 14 12.4
      vertex 7.25 13.4528 12.4965
      vertex 7.25 12.9055 10.993
    endloop
  endfacet
  facet normal 1 0 1.77321e-16
    outer loop
      vertex 7.25 13.4528 12.4965
      vertex 7.25 12.9715 12.7743
      vertex 7.25 11.9431 11.5487
    endloop
  endfacet
  facet normal 1 0 1.77321e-16
    outer loop
      vertex 7.25 11.9431 11.5487
      vertex 7.25 12.6144 13.2
      vertex 7.25 11.2287 12.4
    endloop
  endfacet
  facet normal 1 0 1.77321e-16
    outer loop
      vertex 7.25 12.6144 13.2
      vertex 7.25 12.4243 13.7222
      vertex 7.25 11.2287 12.4
    endloop
  endfacet
  facet normal 1 0 1.77321e-16
    outer loop
      vertex 7.25 11.2287 12.4
      vertex 7.25 12.4243 14.2778
      vertex 7.25 10.8486 13.4443
    endloop
  endfacet
  facet normal 1 0 1.77321e-16
    outer loop
      vertex 7.25 12.4243 14.2778
      vertex 7.25 12.6144 14.8
      vertex 7.25 10.8486 13.4443
    endloop
  endfacet
  facet normal 1 0 1.77321e-16
    outer loop
      vertex 7.25 13.4528 15.5035
      vertex 7.25 15.0945 17.007
      vertex 7.25 12.9715 15.2257
    endloop
  endfacet
  facet normal 1 0 1.77321e-16
    outer loop
      vertex 7.25 12.6144 14.8
      vertex 7.25 12.9715 15.2257
      vertex 7.25 10.8486 13.4443
    endloop
  endfacet
  facet normal 1 0 1.77321e-16
    outer loop
      vertex 7.25 13.4528 15.5035
      vertex 7.25 14 15.6
      vertex 7.25 15.0945 17.007
    endloop
  endfacet
  facet normal 1 0 1.77321e-16
    outer loop
      vertex 7.25 15.3856 13.2
      vertex 7.25 15.0285 12.7743
      vertex 7.25 15.0945 10.993
    endloop
  endfacet
  facet normal 1 0 1.77321e-16
    outer loop
      vertex 7.25 82.5945 17.007
      vertex 7.25 81.5 17.2
      vertex 7.25 80.4055 17.007
    endloop
  endfacet
  facet normal 1 0 1.77321e-16
    outer loop
      vertex 7.25 78.7287 15.6
      vertex 7.25 82.5945 17.007
      vertex 7.25 79.4431 16.4513
    endloop
  endfacet
  facet normal 1 0 1.77321e-16
    outer loop
      vertex 7.25 79.4431 16.4513
      vertex 7.25 82.5945 17.007
      vertex 7.25 80.4055 17.007
    endloop
  endfacet
  facet normal 1 0 1.77321e-16
    outer loop
      vertex 7.25 78.3486 14.5557
      vertex 7.25 82.5945 17.007
      vertex 7.25 78.7287 15.6
    endloop
  endfacet
  facet normal 1 0 1.77321e-16
    outer loop
      vertex 7.25 78.3486 13.4443
      vertex 7.25 82.5945 17.007
      vertex 7.25 78.3486 14.5557
    endloop
  endfacet
  facet normal 1 0 1.77321e-16
    outer loop
      vertex 7.25 80.4715 15.2257
      vertex 7.25 82.5945 17.007
      vertex 7.25 78.3486 13.4443
    endloop
  endfacet
  facet normal 1 0 1.77321e-16
    outer loop
      vertex 7.25 80.4055 10.993
      vertex 7.25 80.9528 12.4965
      vertex 7.25 79.4431 11.5487
    endloop
  endfacet
  facet normal 1 0 1.77321e-16
    outer loop
      vertex 7.25 84.6514 13.4443
      vertex 7.25 82.5945 17.007
      vertex 7.25 84.2713 12.4
    endloop
  endfacet
  facet normal 1 0 1.77321e-16
    outer loop
      vertex 7.25 84.6514 14.5557
      vertex 7.25 82.5945 17.007
      vertex 7.25 84.6514 13.4443
    endloop
  endfacet
  facet normal 1 0 1.77321e-16
    outer loop
      vertex 7.25 84.2713 15.6
      vertex 7.25 82.5945 17.007
      vertex 7.25 84.6514 14.5557
    endloop
  endfacet
  facet normal 1 0 1.77321e-16
    outer loop
      vertex 7.25 83.5569 16.4513
      vertex 7.25 82.5945 17.007
      vertex 7.25 84.2713 15.6
    endloop
  endfacet
  facet normal 1 0 1.77321e-16
    outer loop
      vertex 7.25 81.5 15.6
      vertex 7.25 82.0472 15.5035
      vertex 7.25 82.5945 17.007
    endloop
  endfacet
  facet normal 1 0 1.77321e-16
    outer loop
      vertex 7.25 82.0472 15.5035
      vertex 7.25 82.5285 15.2257
      vertex 7.25 82.5945 17.007
    endloop
  endfacet
  facet normal 1 0 1.77321e-16
    outer loop
      vertex 7.25 79.9243 13.7222
      vertex 7.25 79.9243 14.2778
      vertex 7.25 78.7287 12.4
    endloop
  endfacet
  facet normal 1 0 1.77321e-16
    outer loop
      vertex 7.25 82.5285 15.2257
      vertex 7.25 82.8856 14.8
      vertex 7.25 82.5945 17.007
    endloop
  endfacet
  facet normal 1 0 1.77321e-16
    outer loop
      vertex 7.25 80.4715 12.7743
      vertex 7.25 80.1144 13.2
      vertex 7.25 79.4431 11.5487
    endloop
  endfacet
  facet normal 1 0 1.77321e-16
    outer loop
      vertex 7.25 82.8856 14.8
      vertex 7.25 83.0757 14.2778
      vertex 7.25 82.5945 17.007
    endloop
  endfacet
  facet normal 1 0 1.77321e-16
    outer loop
      vertex 7.25 82.0472 12.4965
      vertex 7.25 81.5 12.4
      vertex 7.25 81.5 10.8
    endloop
  endfacet
  facet normal 1 0 1.77321e-16
    outer loop
      vertex 7.25 83.0757 14.2778
      vertex 7.25 83.0757 13.7222
      vertex 7.25 83.5569 11.5487
    endloop
  endfacet
  facet normal 1 0 1.77321e-16
    outer loop
      vertex 7.25 84.2713 12.4
      vertex 7.25 83.0757 14.2778
      vertex 7.25 83.5569 11.5487
    endloop
  endfacet
  facet normal 1 0 1.77321e-16
    outer loop
      vertex 7.25 84.2713 12.4
      vertex 7.25 82.5945 17.007
      vertex 7.25 83.0757 14.2778
    endloop
  endfacet
  facet normal 1 0 1.77321e-16
    outer loop
      vertex 7.25 83.5569 11.5487
      vertex 7.25 83.0757 13.7222
      vertex 7.25 82.5945 10.993
    endloop
  endfacet
  facet normal 1 0 1.77321e-16
    outer loop
      vertex 7.25 83.0757 13.7222
      vertex 7.25 82.8856 13.2
      vertex 7.25 82.5945 10.993
    endloop
  endfacet
  facet normal 1 0 1.77321e-16
    outer loop
      vertex 7.25 82.5945 10.993
      vertex 7.25 82.5285 12.7743
      vertex 7.25 81.5 10.8
    endloop
  endfacet
  facet normal 1 0 1.77321e-16
    outer loop
      vertex 7.25 82.5285 12.7743
      vertex 7.25 82.0472 12.4965
      vertex 7.25 81.5 10.8
    endloop
  endfacet
  facet normal 1 0 1.77321e-16
    outer loop
      vertex 7.25 81.5 10.8
      vertex 7.25 81.5 12.4
      vertex 7.25 80.4055 10.993
    endloop
  endfacet
  facet normal 1 0 1.77321e-16
    outer loop
      vertex 7.25 81.5 12.4
      vertex 7.25 80.9528 12.4965
      vertex 7.25 80.4055 10.993
    endloop
  endfacet
  facet normal 1 0 1.77321e-16
    outer loop
      vertex 7.25 80.9528 12.4965
      vertex 7.25 80.4715 12.7743
      vertex 7.25 79.4431 11.5487
    endloop
  endfacet
  facet normal 1 0 1.77321e-16
    outer loop
      vertex 7.25 79.4431 11.5487
      vertex 7.25 80.1144 13.2
      vertex 7.25 78.7287 12.4
    endloop
  endfacet
  facet normal 1 0 1.77321e-16
    outer loop
      vertex 7.25 80.1144 13.2
      vertex 7.25 79.9243 13.7222
      vertex 7.25 78.7287 12.4
    endloop
  endfacet
  facet normal 1 0 1.77321e-16
    outer loop
      vertex 7.25 78.7287 12.4
      vertex 7.25 79.9243 14.2778
      vertex 7.25 78.3486 13.4443
    endloop
  endfacet
  facet normal 1 0 1.77321e-16
    outer loop
      vertex 7.25 79.9243 14.2778
      vertex 7.25 80.1144 14.8
      vertex 7.25 78.3486 13.4443
    endloop
  endfacet
  facet normal 1 0 1.77321e-16
    outer loop
      vertex 7.25 80.9528 15.5035
      vertex 7.25 82.5945 17.007
      vertex 7.25 80.4715 15.2257
    endloop
  endfacet
  facet normal 1 0 1.77321e-16
    outer loop
      vertex 7.25 80.1144 14.8
      vertex 7.25 80.4715 15.2257
      vertex 7.25 78.3486 13.4443
    endloop
  endfacet
  facet normal 1 0 1.77321e-16
    outer loop
      vertex 7.25 80.9528 15.5035
      vertex 7.25 81.5 15.6
      vertex 7.25 82.5945 17.007
    endloop
  endfacet
  facet normal 1 0 1.77321e-16
    outer loop
      vertex 7.25 82.8856 13.2
      vertex 7.25 82.5285 12.7743
      vertex 7.25 82.5945 10.993
    endloop
  endfacet
  facet normal -1 0 -1.77321e-16
    outer loop
      vertex 2.4 15.5757 13.7222
      vertex 2.4 16.7713 15.6
      vertex 2.4 15.3856 13.2
    endloop
  endfacet
  facet normal -1 0 -1.77321e-16
    outer loop
      vertex 2.4 12.9715 12.7743
      vertex 2.4 14 10.8
      vertex 2.4 11.2287 12.4
    endloop
  endfacet
  facet normal -1 0 -1.77321e-16
    outer loop
      vertex 2.4 12.6144 14.8
      vertex 2.4 11.2287 12.4
      vertex 2.4 11.2287 15.6
    endloop
  endfacet
  facet normal -1 0 -1.77321e-16
    outer loop
      vertex 2.4 16.7713 15.6
      vertex 2.4 11.2287 15.6
      vertex 2.4 14 17.2
    endloop
  endfacet
  facet normal -1 0 -1.77321e-16
    outer loop
      vertex 2.4 12.9715 12.7743
      vertex 2.4 11.2287 12.4
      vertex 2.4 12.6144 13.2
    endloop
  endfacet
  facet normal -1 0 -1.77321e-16
    outer loop
      vertex 2.4 14 15.6
      vertex 2.4 13.4528 15.5035
      vertex 2.4 11.2287 15.6
    endloop
  endfacet
  facet normal -1 0 -1.77321e-16
    outer loop
      vertex 2.4 12.4243 13.7222
      vertex 2.4 11.2287 12.4
      vertex 2.4 12.4243 14.2778
    endloop
  endfacet
  facet normal -1 0 -1.77321e-16
    outer loop
      vertex 2.4 13.4528 15.5035
      vertex 2.4 12.9715 15.2257
      vertex 2.4 11.2287 15.6
    endloop
  endfacet
  facet normal -1 0 -1.77321e-16
    outer loop
      vertex 2.4 12.9715 15.2257
      vertex 2.4 12.6144 14.8
      vertex 2.4 11.2287 15.6
    endloop
  endfacet
  facet normal -1 0 -1.77321e-16
    outer loop
      vertex 2.4 12.6144 13.2
      vertex 2.4 11.2287 12.4
      vertex 2.4 12.4243 13.7222
    endloop
  endfacet
  facet normal -1 0 -1.77321e-16
    outer loop
      vertex 2.4 13.4528 12.4965
      vertex 2.4 14 10.8
      vertex 2.4 12.9715 12.7743
    endloop
  endfacet
  facet normal -1 0 -1.77321e-16
    outer loop
      vertex 2.4 15.3856 13.2
      vertex 2.4 14 10.8
      vertex 2.4 15.0285 12.7743
    endloop
  endfacet
  facet normal -1 0 -1.77321e-16
    outer loop
      vertex 2.4 14 12.4
      vertex 2.4 14 10.8
      vertex 2.4 13.4528 12.4965
    endloop
  endfacet
  facet normal -1 0 -1.77321e-16
    outer loop
      vertex 2.4 14.5472 12.4965
      vertex 2.4 14 10.8
      vertex 2.4 14 12.4
    endloop
  endfacet
  facet normal -1 0 -1.77321e-16
    outer loop
      vertex 2.4 15.0285 12.7743
      vertex 2.4 14 10.8
      vertex 2.4 14.5472 12.4965
    endloop
  endfacet
  facet normal -1 0 -1.77321e-16
    outer loop
      vertex 2.4 16.7713 12.4
      vertex 2.4 14 10.8
      vertex 2.4 15.3856 13.2
    endloop
  endfacet
  facet normal -1 0 -1.77321e-16
    outer loop
      vertex 2.4 16.7713 12.4
      vertex 2.4 15.3856 13.2
      vertex 2.4 16.7713 15.6
    endloop
  endfacet
  facet normal -1 0 -1.77321e-16
    outer loop
      vertex 2.4 15.5757 14.2778
      vertex 2.4 16.7713 15.6
      vertex 2.4 15.5757 13.7222
    endloop
  endfacet
  facet normal -1 0 -1.77321e-16
    outer loop
      vertex 2.4 15.3856 14.8
      vertex 2.4 16.7713 15.6
      vertex 2.4 15.5757 14.2778
    endloop
  endfacet
  facet normal -1 0 -1.77321e-16
    outer loop
      vertex 2.4 15.0285 15.2257
      vertex 2.4 16.7713 15.6
      vertex 2.4 15.3856 14.8
    endloop
  endfacet
  facet normal -1 0 -1.77321e-16
    outer loop
      vertex 2.4 14 15.6
      vertex 2.4 16.7713 15.6
      vertex 2.4 14.5472 15.5035
    endloop
  endfacet
  facet normal -1 0 -1.77321e-16
    outer loop
      vertex 2.4 16.7713 15.6
      vertex 2.4 15.0285 15.2257
      vertex 2.4 14.5472 15.5035
    endloop
  endfacet
  facet normal -1 0 -1.77321e-16
    outer loop
      vertex 2.4 16.7713 15.6
      vertex 2.4 14 15.6
      vertex 2.4 11.2287 15.6
    endloop
  endfacet
  facet normal -1 0 -1.77321e-16
    outer loop
      vertex 2.4 12.4243 14.2778
      vertex 2.4 11.2287 12.4
      vertex 2.4 12.6144 14.8
    endloop
  endfacet
  facet normal -1 0 -1.77321e-16
    outer loop
      vertex 2.4 83.0757 13.7222
      vertex 2.4 84.2713 15.6
      vertex 2.4 82.8856 13.2
    endloop
  endfacet
  facet normal -1 0 -1.77321e-16
    outer loop
      vertex 2.4 80.4715 12.7743
      vertex 2.4 81.5 10.8
      vertex 2.4 78.7287 12.4
    endloop
  endfacet
  facet normal -1 0 -1.77321e-16
    outer loop
      vertex 2.4 80.1144 14.8
      vertex 2.4 78.7287 12.4
      vertex 2.4 78.7287 15.6
    endloop
  endfacet
  facet normal -1 0 -1.77321e-16
    outer loop
      vertex 2.4 84.2713 15.6
      vertex 2.4 78.7287 15.6
      vertex 2.4 81.5 17.2
    endloop
  endfacet
  facet normal -1 0 -1.77321e-16
    outer loop
      vertex 2.4 80.4715 12.7743
      vertex 2.4 78.7287 12.4
      vertex 2.4 80.1144 13.2
    endloop
  endfacet
  facet normal -1 0 -1.77321e-16
    outer loop
      vertex 2.4 81.5 15.6
      vertex 2.4 80.9528 15.5035
      vertex 2.4 78.7287 15.6
    endloop
  endfacet
  facet normal -1 0 -1.77321e-16
    outer loop
      vertex 2.4 79.9243 13.7222
      vertex 2.4 78.7287 12.4
      vertex 2.4 79.9243 14.2778
    endloop
  endfacet
  facet normal -1 0 -1.77321e-16
    outer loop
      vertex 2.4 80.9528 15.5035
      vertex 2.4 80.4715 15.2257
      vertex 2.4 78.7287 15.6
    endloop
  endfacet
  facet normal -1 0 -1.77321e-16
    outer loop
      vertex 2.4 80.4715 15.2257
      vertex 2.4 80.1144 14.8
      vertex 2.4 78.7287 15.6
    endloop
  endfacet
  facet normal -1 0 -1.77321e-16
    outer loop
      vertex 2.4 80.1144 13.2
      vertex 2.4 78.7287 12.4
      vertex 2.4 79.9243 13.7222
    endloop
  endfacet
  facet normal -1 0 -1.77321e-16
    outer loop
      vertex 2.4 80.9528 12.4965
      vertex 2.4 81.5 10.8
      vertex 2.4 80.4715 12.7743
    endloop
  endfacet
  facet normal -1 0 -1.77321e-16
    outer loop
      vertex 2.4 82.8856 13.2
      vertex 2.4 81.5 10.8
      vertex 2.4 82.5285 12.7743
    endloop
  endfacet
  facet normal -1 0 -1.77321e-16
    outer loop
      vertex 2.4 81.5 12.4
      vertex 2.4 81.5 10.8
      vertex 2.4 80.9528 12.4965
    endloop
  endfacet
  facet normal -1 0 -1.77321e-16
    outer loop
      vertex 2.4 82.0472 12.4965
      vertex 2.4 81.5 10.8
      vertex 2.4 81.5 12.4
    endloop
  endfacet
  facet normal -1 0 -1.77321e-16
    outer loop
      vertex 2.4 82.5285 12.7743
      vertex 2.4 81.5 10.8
      vertex 2.4 82.0472 12.4965
    endloop
  endfacet
  facet normal -1 0 -1.77321e-16
    outer loop
      vertex 2.4 84.2713 12.4
      vertex 2.4 81.5 10.8
      vertex 2.4 82.8856 13.2
    endloop
  endfacet
  facet normal -1 0 -1.77321e-16
    outer loop
      vertex 2.4 84.2713 12.4
      vertex 2.4 82.8856 13.2
      vertex 2.4 84.2713 15.6
    endloop
  endfacet
  facet normal -1 0 -1.77321e-16
    outer loop
      vertex 2.4 83.0757 14.2778
      vertex 2.4 84.2713 15.6
      vertex 2.4 83.0757 13.7222
    endloop
  endfacet
  facet normal -1 0 -1.77321e-16
    outer loop
      vertex 2.4 82.8856 14.8
      vertex 2.4 84.2713 15.6
      vertex 2.4 83.0757 14.2778
    endloop
  endfacet
  facet normal -1 0 -1.77321e-16
    outer loop
      vertex 2.4 82.5285 15.2257
      vertex 2.4 84.2713 15.6
      vertex 2.4 82.8856 14.8
    endloop
  endfacet
  facet normal -1 0 -1.77321e-16
    outer loop
      vertex 2.4 81.5 15.6
      vertex 2.4 84.2713 15.6
      vertex 2.4 82.0472 15.5035
    endloop
  endfacet
  facet normal -1 0 -1.77321e-16
    outer loop
      vertex 2.4 84.2713 15.6
      vertex 2.4 82.5285 15.2257
      vertex 2.4 82.0472 15.5035
    endloop
  endfacet
  facet normal -1 0 -1.77321e-16
    outer loop
      vertex 2.4 84.2713 15.6
      vertex 2.4 81.5 15.6
      vertex 2.4 78.7287 15.6
    endloop
  endfacet
  facet normal -1 0 -1.77321e-16
    outer loop
      vertex 2.4 79.9243 14.2778
      vertex 2.4 78.7287 12.4
      vertex 2.4 80.1144 14.8
    endloop
  endfacet
  facet normal 2.18671e-16 0.173649 -0.984808
    outer loop
      vertex 7.25 13.4528 15.5035
      vertex 2.4 13.4528 15.5035
      vertex 7.25 14 15.6
    endloop
  endfacet
  facet normal 2.18671e-16 0.173649 -0.984808
    outer loop
      vertex 7.25 14 15.6
      vertex 2.4 13.4528 15.5035
      vertex 2.4 14 15.6
    endloop
  endfacet
  facet normal 1.92296e-16 0.5 -0.866025
    outer loop
      vertex 7.25 12.9715 15.2257
      vertex 2.4 12.9715 15.2257
      vertex 7.25 13.4528 15.5035
    endloop
  endfacet
  facet normal 1.92296e-16 0.5 -0.866025
    outer loop
      vertex 7.25 13.4528 15.5035
      vertex 2.4 12.9715 15.2257
      vertex 2.4 13.4528 15.5035
    endloop
  endfacet
  facet normal 1.42728e-16 0.766044 -0.642788
    outer loop
      vertex 7.25 12.6144 14.8
      vertex 2.4 12.6144 14.8
      vertex 7.25 12.9715 15.2257
    endloop
  endfacet
  facet normal 1.42728e-16 0.766044 -0.642788
    outer loop
      vertex 7.25 12.9715 15.2257
      vertex 2.4 12.6144 14.8
      vertex 2.4 12.9715 15.2257
    endloop
  endfacet
  facet normal 7.59434e-17 0.939693 -0.342019
    outer loop
      vertex 7.25 12.4243 14.2778
      vertex 2.4 12.4243 14.2778
      vertex 7.25 12.6144 14.8
    endloop
  endfacet
  facet normal 7.59434e-17 0.939693 -0.342019
    outer loop
      vertex 7.25 12.6144 14.8
      vertex 2.4 12.4243 14.2778
      vertex 2.4 12.6144 14.8
    endloop
  endfacet
  facet normal 0 1 0
    outer loop
      vertex 7.25 12.4243 13.7222
      vertex 2.4 12.4243 13.7222
      vertex 7.25 12.4243 14.2778
    endloop
  endfacet
  facet normal 0 1 0
    outer loop
      vertex 7.25 12.4243 14.2778
      vertex 2.4 12.4243 13.7222
      vertex 2.4 12.4243 14.2778
    endloop
  endfacet
  facet normal -7.59434e-17 0.939693 0.342019
    outer loop
      vertex 7.25 12.6144 13.2
      vertex 2.4 12.6144 13.2
      vertex 7.25 12.4243 13.7222
    endloop
  endfacet
  facet normal -7.59434e-17 0.939693 0.342019
    outer loop
      vertex 7.25 12.4243 13.7222
      vertex 2.4 12.6144 13.2
      vertex 2.4 12.4243 13.7222
    endloop
  endfacet
  facet normal -1.42728e-16 0.766044 0.642788
    outer loop
      vertex 7.25 12.9715 12.7743
      vertex 2.4 12.9715 12.7743
      vertex 7.25 12.6144 13.2
    endloop
  endfacet
  facet normal -1.42728e-16 0.766044 0.642788
    outer loop
      vertex 7.25 12.6144 13.2
      vertex 2.4 12.9715 12.7743
      vertex 2.4 12.6144 13.2
    endloop
  endfacet
  facet normal -1.92296e-16 0.5 0.866025
    outer loop
      vertex 7.25 12.9715 12.7743
      vertex 7.25 13.4528 12.4965
      vertex 2.4 13.4528 12.4965
    endloop
  endfacet
  facet normal -1.92296e-16 0.5 0.866025
    outer loop
      vertex 2.4 12.9715 12.7743
      vertex 7.25 12.9715 12.7743
      vertex 2.4 13.4528 12.4965
    endloop
  endfacet
  facet normal -2.18671e-16 0.173649 0.984808
    outer loop
      vertex 7.25 13.4528 12.4965
      vertex 7.25 14 12.4
      vertex 2.4 14 12.4
    endloop
  endfacet
  facet normal -2.18671e-16 0.173649 0.984808
    outer loop
      vertex 2.4 13.4528 12.4965
      vertex 7.25 13.4528 12.4965
      vertex 2.4 14 12.4
    endloop
  endfacet
  facet normal -2.18671e-16 -0.173649 0.984808
    outer loop
      vertex 2.4 14 12.4
      vertex 7.25 14 12.4
      vertex 7.25 14.5472 12.4965
    endloop
  endfacet
  facet normal -2.18671e-16 -0.173649 0.984808
    outer loop
      vertex 2.4 14.5472 12.4965
      vertex 2.4 14 12.4
      vertex 7.25 14.5472 12.4965
    endloop
  endfacet
  facet normal -1.92296e-16 -0.5 0.866025
    outer loop
      vertex 2.4 14.5472 12.4965
      vertex 7.25 14.5472 12.4965
      vertex 7.25 15.0285 12.7743
    endloop
  endfacet
  facet normal -1.92296e-16 -0.5 0.866025
    outer loop
      vertex 2.4 15.0285 12.7743
      vertex 2.4 14.5472 12.4965
      vertex 7.25 15.0285 12.7743
    endloop
  endfacet
  facet normal -1.42728e-16 -0.766044 0.642788
    outer loop
      vertex 2.4 15.0285 12.7743
      vertex 7.25 15.0285 12.7743
      vertex 7.25 15.3856 13.2
    endloop
  endfacet
  facet normal -1.42728e-16 -0.766044 0.642788
    outer loop
      vertex 2.4 15.3856 13.2
      vertex 2.4 15.0285 12.7743
      vertex 7.25 15.3856 13.2
    endloop
  endfacet
  facet normal -7.59434e-17 -0.939693 0.342019
    outer loop
      vertex 2.4 15.3856 13.2
      vertex 7.25 15.3856 13.2
      vertex 7.25 15.5757 13.7222
    endloop
  endfacet
  facet normal -7.59434e-17 -0.939693 0.342019
    outer loop
      vertex 2.4 15.5757 13.7222
      vertex 2.4 15.3856 13.2
      vertex 7.25 15.5757 13.7222
    endloop
  endfacet
  facet normal 0 -1 0
    outer loop
      vertex 2.4 15.5757 13.7222
      vertex 7.25 15.5757 13.7222
      vertex 7.25 15.5757 14.2778
    endloop
  endfacet
  facet normal 0 -1 0
    outer loop
      vertex 2.4 15.5757 14.2778
      vertex 2.4 15.5757 13.7222
      vertex 7.25 15.5757 14.2778
    endloop
  endfacet
  facet normal 7.59434e-17 -0.939693 -0.342019
    outer loop
      vertex 2.4 15.5757 14.2778
      vertex 7.25 15.5757 14.2778
      vertex 7.25 15.3856 14.8
    endloop
  endfacet
  facet normal 7.59434e-17 -0.939693 -0.342019
    outer loop
      vertex 2.4 15.3856 14.8
      vertex 2.4 15.5757 14.2778
      vertex 7.25 15.3856 14.8
    endloop
  endfacet
  facet normal 1.42728e-16 -0.766044 -0.642788
    outer loop
      vertex 2.4 15.3856 14.8
      vertex 7.25 15.3856 14.8
      vertex 7.25 15.0285 15.2257
    endloop
  endfacet
  facet normal 1.42728e-16 -0.766044 -0.642788
    outer loop
      vertex 2.4 15.0285 15.2257
      vertex 2.4 15.3856 14.8
      vertex 7.25 15.0285 15.2257
    endloop
  endfacet
  facet normal 1.92296e-16 -0.5 -0.866025
    outer loop
      vertex 7.25 15.0285 15.2257
      vertex 7.25 14.5472 15.5035
      vertex 2.4 15.0285 15.2257
    endloop
  endfacet
  facet normal 1.92296e-16 -0.5 -0.866025
    outer loop
      vertex 2.4 15.0285 15.2257
      vertex 7.25 14.5472 15.5035
      vertex 2.4 14.5472 15.5035
    endloop
  endfacet
  facet normal 2.18671e-16 -0.173649 -0.984808
    outer loop
      vertex 7.25 14.5472 15.5035
      vertex 7.25 14 15.6
      vertex 2.4 14.5472 15.5035
    endloop
  endfacet
  facet normal 2.18671e-16 -0.173649 -0.984808
    outer loop
      vertex 2.4 14.5472 15.5035
      vertex 7.25 14 15.6
      vertex 2.4 14 15.6
    endloop
  endfacet
  facet normal 2.18671e-16 0.173649 -0.984808
    outer loop
      vertex 7.25 80.9528 15.5035
      vertex 2.4 80.9528 15.5035
      vertex 7.25 81.5 15.6
    endloop
  endfacet
  facet normal 2.18671e-16 0.173649 -0.984808
    outer loop
      vertex 7.25 81.5 15.6
      vertex 2.4 80.9528 15.5035
      vertex 2.4 81.5 15.6
    endloop
  endfacet
  facet normal 1.92296e-16 0.5 -0.866025
    outer loop
      vertex 7.25 80.4715 15.2257
      vertex 2.4 80.4715 15.2257
      vertex 7.25 80.9528 15.5035
    endloop
  endfacet
  facet normal 1.92296e-16 0.5 -0.866025
    outer loop
      vertex 7.25 80.9528 15.5035
      vertex 2.4 80.4715 15.2257
      vertex 2.4 80.9528 15.5035
    endloop
  endfacet
  facet normal 1.42728e-16 0.766044 -0.642788
    outer loop
      vertex 7.25 80.1144 14.8
      vertex 2.4 80.1144 14.8
      vertex 7.25 80.4715 15.2257
    endloop
  endfacet
  facet normal 1.42728e-16 0.766044 -0.642788
    outer loop
      vertex 7.25 80.4715 15.2257
      vertex 2.4 80.1144 14.8
      vertex 2.4 80.4715 15.2257
    endloop
  endfacet
  facet normal 7.59434e-17 0.939693 -0.342019
    outer loop
      vertex 7.25 79.9243 14.2778
      vertex 2.4 79.9243 14.2778
      vertex 7.25 80.1144 14.8
    endloop
  endfacet
  facet normal 7.59434e-17 0.939693 -0.342019
    outer loop
      vertex 7.25 80.1144 14.8
      vertex 2.4 79.9243 14.2778
      vertex 2.4 80.1144 14.8
    endloop
  endfacet
  facet normal 0 1 0
    outer loop
      vertex 7.25 79.9243 13.7222
      vertex 2.4 79.9243 13.7222
      vertex 7.25 79.9243 14.2778
    endloop
  endfacet
  facet normal 0 1 0
    outer loop
      vertex 7.25 79.9243 14.2778
      vertex 2.4 79.9243 13.7222
      vertex 2.4 79.9243 14.2778
    endloop
  endfacet
  facet normal -7.59434e-17 0.939693 0.342019
    outer loop
      vertex 7.25 80.1144 13.2
      vertex 2.4 80.1144 13.2
      vertex 7.25 79.9243 13.7222
    endloop
  endfacet
  facet normal -7.59434e-17 0.939693 0.342019
    outer loop
      vertex 7.25 79.9243 13.7222
      vertex 2.4 80.1144 13.2
      vertex 2.4 79.9243 13.7222
    endloop
  endfacet
  facet normal -1.42728e-16 0.766044 0.642788
    outer loop
      vertex 7.25 80.4715 12.7743
      vertex 2.4 80.4715 12.7743
      vertex 7.25 80.1144 13.2
    endloop
  endfacet
  facet normal -1.42728e-16 0.766044 0.642788
    outer loop
      vertex 7.25 80.1144 13.2
      vertex 2.4 80.4715 12.7743
      vertex 2.4 80.1144 13.2
    endloop
  endfacet
  facet normal -1.92296e-16 0.5 0.866025
    outer loop
      vertex 7.25 80.4715 12.7743
      vertex 7.25 80.9528 12.4965
      vertex 2.4 80.9528 12.4965
    endloop
  endfacet
  facet normal -1.92296e-16 0.5 0.866025
    outer loop
      vertex 2.4 80.4715 12.7743
      vertex 7.25 80.4715 12.7743
      vertex 2.4 80.9528 12.4965
    endloop
  endfacet
  facet normal -2.18671e-16 0.173649 0.984808
    outer loop
      vertex 7.25 80.9528 12.4965
      vertex 7.25 81.5 12.4
      vertex 2.4 81.5 12.4
    endloop
  endfacet
  facet normal -2.18671e-16 0.173649 0.984808
    outer loop
      vertex 2.4 80.9528 12.4965
      vertex 7.25 80.9528 12.4965
      vertex 2.4 81.5 12.4
    endloop
  endfacet
  facet normal -2.18671e-16 -0.173649 0.984808
    outer loop
      vertex 2.4 81.5 12.4
      vertex 7.25 81.5 12.4
      vertex 7.25 82.0472 12.4965
    endloop
  endfacet
  facet normal -2.18671e-16 -0.173649 0.984808
    outer loop
      vertex 2.4 82.0472 12.4965
      vertex 2.4 81.5 12.4
      vertex 7.25 82.0472 12.4965
    endloop
  endfacet
  facet normal -1.92296e-16 -0.5 0.866025
    outer loop
      vertex 2.4 82.0472 12.4965
      vertex 7.25 82.0472 12.4965
      vertex 7.25 82.5285 12.7743
    endloop
  endfacet
  facet normal -1.92296e-16 -0.5 0.866025
    outer loop
      vertex 2.4 82.5285 12.7743
      vertex 2.4 82.0472 12.4965
      vertex 7.25 82.5285 12.7743
    endloop
  endfacet
  facet normal -1.42728e-16 -0.766044 0.642788
    outer loop
      vertex 2.4 82.5285 12.7743
      vertex 7.25 82.5285 12.7743
      vertex 7.25 82.8856 13.2
    endloop
  endfacet
  facet normal -1.42728e-16 -0.766044 0.642788
    outer loop
      vertex 2.4 82.8856 13.2
      vertex 2.4 82.5285 12.7743
      vertex 7.25 82.8856 13.2
    endloop
  endfacet
  facet normal -7.59434e-17 -0.939693 0.342019
    outer loop
      vertex 2.4 82.8856 13.2
      vertex 7.25 82.8856 13.2
      vertex 7.25 83.0757 13.7222
    endloop
  endfacet
  facet normal -7.59434e-17 -0.939693 0.342019
    outer loop
      vertex 2.4 83.0757 13.7222
      vertex 2.4 82.8856 13.2
      vertex 7.25 83.0757 13.7222
    endloop
  endfacet
  facet normal 0 -1 0
    outer loop
      vertex 2.4 83.0757 13.7222
      vertex 7.25 83.0757 13.7222
      vertex 7.25 83.0757 14.2778
    endloop
  endfacet
  facet normal 0 -1 0
    outer loop
      vertex 2.4 83.0757 14.2778
      vertex 2.4 83.0757 13.7222
      vertex 7.25 83.0757 14.2778
    endloop
  endfacet
  facet normal 7.59434e-17 -0.939693 -0.342019
    outer loop
      vertex 2.4 83.0757 14.2778
      vertex 7.25 83.0757 14.2778
      vertex 7.25 82.8856 14.8
    endloop
  endfacet
  facet normal 7.59434e-17 -0.939693 -0.342019
    outer loop
      vertex 2.4 82.8856 14.8
      vertex 2.4 83.0757 14.2778
      vertex 7.25 82.8856 14.8
    endloop
  endfacet
  facet normal 1.42728e-16 -0.766044 -0.642788
    outer loop
      vertex 2.4 82.8856 14.8
      vertex 7.25 82.8856 14.8
      vertex 7.25 82.5285 15.2257
    endloop
  endfacet
  facet normal 1.42728e-16 -0.766044 -0.642788
    outer loop
      vertex 2.4 82.5285 15.2257
      vertex 2.4 82.8856 14.8
      vertex 7.25 82.5285 15.2257
    endloop
  endfacet
  facet normal 1.92296e-16 -0.5 -0.866025
    outer loop
      vertex 7.25 82.5285 15.2257
      vertex 7.25 82.0472 15.5035
      vertex 2.4 82.5285 15.2257
    endloop
  endfacet
  facet normal 1.92296e-16 -0.5 -0.866025
    outer loop
      vertex 2.4 82.5285 15.2257
      vertex 7.25 82.0472 15.5035
      vertex 2.4 82.0472 15.5035
    endloop
  endfacet
  facet normal 2.18671e-16 -0.173649 -0.984808
    outer loop
      vertex 7.25 82.0472 15.5035
      vertex 7.25 81.5 15.6
      vertex 2.4 82.0472 15.5035
    endloop
  endfacet
  facet normal 2.18671e-16 -0.173649 -0.984808
    outer loop
      vertex 2.4 82.0472 15.5035
      vertex 7.25 81.5 15.6
      vertex 2.4 81.5 15.6
    endloop
  endfacet
endsolid OpenSCAD_Model
