solid OpenSCAD_Model
  facet normal -1 0 0
    outer loop
      vertex 0 0 0
      vertex 0 0 10
      vertex 0 5 0
    endloop
  endfacet
  facet normal -1 0 0
    outer loop
      vertex 0 5 0
      vertex 0 0 10
      vertex 0 5 10
    endloop
  endfacet
  facet normal -2.22045e-16 -1 0
    outer loop
      vertex 0 0 10
      vertex 0 0 0
      vertex 5 -1.11022e-15 0
    endloop
  endfacet
  facet normal -2.22045e-16 -1 0
    outer loop
      vertex 0 0 17
      vertex 0 0 10
      vertex 5 -1.11022e-15 17
    endloop
  endfacet
  facet normal -2.22045e-16 -1 0
    outer loop
      vertex 5 -1.11022e-15 17
      vertex 0 0 10
      vertex 5 -1.11022e-15 0
    endloop
  endfacet
  facet normal 0 0 -1
    outer loop
      vertex 0 0 0
      vertex 0 5 0
      vertex 5 -1.11022e-15 0
    endloop
  endfacet
  facet normal 0 0 -1
    outer loop
      vertex 5 -1.11022e-15 0
      vertex 0 5 0
      vertex 1.11022e-15 5 0
    endloop
  endfacet
  facet normal 0 0 -1
    outer loop
      vertex 5 -1.11022e-15 0
      vertex 1.11022e-15 5 0
      vertex 9.54792e-15 43 0
    endloop
  endfacet
  facet normal 0 0 -1
    outer loop
      vertex 9.54792e-15 43 0
      vertex 1.88738e-14 85 0
      vertex 5 -1.11022e-15 0
    endloop
  endfacet
  facet normal 0 0 -1
    outer loop
      vertex 5 45.0711 0
      vertex 1.88738e-14 85 0
      vertex 5 85 0
    endloop
  endfacet
  facet normal 0 0 -1
    outer loop
      vertex 5 -1.11022e-15 0
      vertex 1.88738e-14 85 0
      vertex 5 0 0
    endloop
  endfacet
  facet normal 0 0 -1
    outer loop
      vertex 38 5 0
      vertex 45.0711 5 0
      vertex 5 0 0
    endloop
  endfacet
  facet normal 0 0 -1
    outer loop
      vertex 5 5 0
      vertex 5 0 0
      vertex 1.88738e-14 85 0
    endloop
  endfacet
  facet normal 0 0 -1
    outer loop
      vertex 5 45.0711 0
      vertex 45.0711 5 0
      vertex 5 38 0
    endloop
  endfacet
  facet normal 0 0 -1
    outer loop
      vertex 5 45.0711 0
      vertex 5 38 0
      vertex 1.88738e-14 85 0
    endloop
  endfacet
  facet normal 0 0 -1
    outer loop
      vertex 5 38 0
      vertex 5 5 0
      vertex 1.88738e-14 85 0
    endloop
  endfacet
  facet normal 0 0 -1
    outer loop
      vertex 5 38 0
      vertex 45.0711 5 0
      vertex 38 5 0
    endloop
  endfacet
  facet normal 0 0 -1
    outer loop
      vertex 5 5 0
      vertex 38 5 0
      vertex 5 0 0
    endloop
  endfacet
  facet normal 0 0 -1
    outer loop
      vertex 5 0 0
      vertex 45.0711 5 0
      vertex 55 5 0
    endloop
  endfacet
  facet normal 0 0 -1
    outer loop
      vertex 5 0 0
      vertex 55 5 0
      vertex 55 0 0
    endloop
  endfacet
  facet normal 0 1 0
    outer loop
      vertex 0 5 0
      vertex 0 5 10
      vertex 1.11022e-15 5 0
    endloop
  endfacet
  facet normal 0 1 0
    outer loop
      vertex 1.11022e-15 5 0
      vertex 0 5 10
      vertex 1.11022e-15 5 10
    endloop
  endfacet
  facet normal 0 0 1
    outer loop
      vertex 0 5 10
      vertex 0 0 10
      vertex 1.11022e-15 5 10
    endloop
  endfacet
  facet normal -1 2.22045e-16 0
    outer loop
      vertex 0 0 10
      vertex 0 0 17
      vertex 1.11022e-15 5 10
    endloop
  endfacet
  facet normal -1 2.22045e-16 0
    outer loop
      vertex 3.10862e-15 14 15.1
      vertex 0 0 17
      vertex 1.88738e-14 85 17
    endloop
  endfacet
  facet normal -1 2.22045e-16 0
    outer loop
      vertex 1.82933e-14 82.3856 12.7
      vertex 1.88738e-14 85 17
      vertex 1.88738e-14 85 0
    endloop
  endfacet
  facet normal -1 2.22045e-16 0
    outer loop
      vertex 9.54792e-15 43 10
      vertex 1.88738e-14 85 0
      vertex 9.54792e-15 43 0
    endloop
  endfacet
  facet normal -1 2.22045e-16 0
    outer loop
      vertex 1.11022e-15 5 10
      vertex 1.88738e-14 85 17
      vertex 9.54792e-15 43 10
    endloop
  endfacet
  facet normal -1 2.22045e-16 0
    outer loop
      vertex 9.54792e-15 43 0
      vertex 1.11022e-15 5 10
      vertex 9.54792e-15 43 10
    endloop
  endfacet
  facet normal -1 2.22045e-16 0
    outer loop
      vertex 1.11022e-15 5 10
      vertex 0 0 17
      vertex 2.75875e-15 12.4243 13.7778
    endloop
  endfacet
  facet normal -1 2.22045e-16 0
    outer loop
      vertex 1.11022e-15 5 10
      vertex 2.75875e-15 12.4243 13.7778
      vertex 2.75875e-15 12.4243 13.2222
    endloop
  endfacet
  facet normal -1 2.22045e-16 0
    outer loop
      vertex 1.11022e-15 5 10
      vertex 2.75875e-15 12.4243 13.2222
      vertex 2.80095e-15 12.6144 12.7
    endloop
  endfacet
  facet normal -1 2.22045e-16 0
    outer loop
      vertex 1.11022e-15 5 10
      vertex 2.80095e-15 12.6144 12.7
      vertex 2.88026e-15 12.9715 12.2743
    endloop
  endfacet
  facet normal -1 2.22045e-16 0
    outer loop
      vertex 1.11022e-15 5 10
      vertex 2.88026e-15 12.9715 12.2743
      vertex 2.98711e-15 13.4528 11.9965
    endloop
  endfacet
  facet normal -1 2.22045e-16 0
    outer loop
      vertex 1.11022e-15 5 10
      vertex 2.98711e-15 13.4528 11.9965
      vertex 3.10862e-15 14 11.9
    endloop
  endfacet
  facet normal -1 2.22045e-16 0
    outer loop
      vertex 1.11022e-15 5 10
      vertex 3.10862e-15 14 11.9
      vertex 1.88738e-14 85 17
    endloop
  endfacet
  facet normal -1 2.22045e-16 0
    outer loop
      vertex 3.10862e-15 14 11.9
      vertex 3.23013e-15 14.5472 11.9965
      vertex 1.88738e-14 85 17
    endloop
  endfacet
  facet normal -1 2.22045e-16 0
    outer loop
      vertex 3.4163e-15 15.3856 12.7
      vertex 1.88738e-14 85 17
      vertex 3.33699e-15 15.0285 12.2743
    endloop
  endfacet
  facet normal -1 2.22045e-16 0
    outer loop
      vertex 3.4585e-15 15.5757 13.2222
      vertex 1.88738e-14 85 17
      vertex 3.4163e-15 15.3856 12.7
    endloop
  endfacet
  facet normal -1 2.22045e-16 0
    outer loop
      vertex 3.4585e-15 15.5757 13.7778
      vertex 1.88738e-14 85 17
      vertex 3.4585e-15 15.5757 13.2222
    endloop
  endfacet
  facet normal -1 2.22045e-16 0
    outer loop
      vertex 3.4163e-15 15.3856 14.3
      vertex 1.88738e-14 85 17
      vertex 3.4585e-15 15.5757 13.7778
    endloop
  endfacet
  facet normal -1 2.22045e-16 0
    outer loop
      vertex 1.77572e-14 79.9715 12.2743
      vertex 1.88738e-14 85 0
      vertex 1.76779e-14 79.6144 12.7
    endloop
  endfacet
  facet normal -1 2.22045e-16 0
    outer loop
      vertex 2.98711e-15 13.4528 15.0035
      vertex 0 0 17
      vertex 3.10862e-15 14 15.1
    endloop
  endfacet
  facet normal -1 2.22045e-16 0
    outer loop
      vertex 2.80095e-15 12.6144 14.3
      vertex 0 0 17
      vertex 2.88026e-15 12.9715 14.7257
    endloop
  endfacet
  facet normal -1 2.22045e-16 0
    outer loop
      vertex 3.4163e-15 15.3856 14.3
      vertex 3.33699e-15 15.0285 14.7257
      vertex 1.88738e-14 85 17
    endloop
  endfacet
  facet normal -1 2.22045e-16 0
    outer loop
      vertex 2.88026e-15 12.9715 14.7257
      vertex 0 0 17
      vertex 2.98711e-15 13.4528 15.0035
    endloop
  endfacet
  facet normal -1 2.22045e-16 0
    outer loop
      vertex 3.33699e-15 15.0285 14.7257
      vertex 3.23013e-15 14.5472 15.0035
      vertex 1.88738e-14 85 17
    endloop
  endfacet
  facet normal -1 2.22045e-16 0
    outer loop
      vertex 3.23013e-15 14.5472 15.0035
      vertex 3.10862e-15 14 15.1
      vertex 1.88738e-14 85 17
    endloop
  endfacet
  facet normal -1 2.22045e-16 0
    outer loop
      vertex 2.75875e-15 12.4243 13.7778
      vertex 0 0 17
      vertex 2.80095e-15 12.6144 14.3
    endloop
  endfacet
  facet normal -1 2.22045e-16 0
    outer loop
      vertex 9.54792e-15 43 10
      vertex 1.76357e-14 79.4243 13.7778
      vertex 1.76357e-14 79.4243 13.2222
    endloop
  endfacet
  facet normal -1 2.22045e-16 0
    outer loop
      vertex 9.54792e-15 43 10
      vertex 1.76357e-14 79.4243 13.2222
      vertex 1.76779e-14 79.6144 12.7
    endloop
  endfacet
  facet normal -1 2.22045e-16 0
    outer loop
      vertex 9.54792e-15 43 10
      vertex 1.76779e-14 79.6144 12.7
      vertex 1.88738e-14 85 0
    endloop
  endfacet
  facet normal -1 2.22045e-16 0
    outer loop
      vertex 1.78641e-14 80.4528 11.9965
      vertex 1.88738e-14 85 0
      vertex 1.77572e-14 79.9715 12.2743
    endloop
  endfacet
  facet normal -1 2.22045e-16 0
    outer loop
      vertex 1.79856e-14 81 15.1
      vertex 1.88738e-14 85 17
      vertex 1.81071e-14 81.5472 15.0035
    endloop
  endfacet
  facet normal -1 2.22045e-16 0
    outer loop
      vertex 1.83355e-14 82.5757 13.2222
      vertex 1.88738e-14 85 17
      vertex 1.82933e-14 82.3856 12.7
    endloop
  endfacet
  facet normal -1 2.22045e-16 0
    outer loop
      vertex 1.78641e-14 80.4528 11.9965
      vertex 1.79856e-14 81 11.9
      vertex 1.88738e-14 85 0
    endloop
  endfacet
  facet normal -1 2.22045e-16 0
    outer loop
      vertex 1.82933e-14 82.3856 14.3
      vertex 1.88738e-14 85 17
      vertex 1.83355e-14 82.5757 13.7778
    endloop
  endfacet
  facet normal -1 2.22045e-16 0
    outer loop
      vertex 1.79856e-14 81 11.9
      vertex 1.81071e-14 81.5472 11.9965
      vertex 1.88738e-14 85 0
    endloop
  endfacet
  facet normal -1 2.22045e-16 0
    outer loop
      vertex 1.83355e-14 82.5757 13.7778
      vertex 1.88738e-14 85 17
      vertex 1.83355e-14 82.5757 13.2222
    endloop
  endfacet
  facet normal -1 2.22045e-16 0
    outer loop
      vertex 1.81071e-14 81.5472 11.9965
      vertex 1.8214e-14 82.0285 12.2743
      vertex 1.88738e-14 85 0
    endloop
  endfacet
  facet normal -1 2.22045e-16 0
    outer loop
      vertex 1.8214e-14 82.0285 12.2743
      vertex 1.82933e-14 82.3856 12.7
      vertex 1.88738e-14 85 0
    endloop
  endfacet
  facet normal -1 2.22045e-16 0
    outer loop
      vertex 1.8214e-14 82.0285 14.7257
      vertex 1.88738e-14 85 17
      vertex 1.82933e-14 82.3856 14.3
    endloop
  endfacet
  facet normal -1 2.22045e-16 0
    outer loop
      vertex 1.81071e-14 81.5472 15.0035
      vertex 1.88738e-14 85 17
      vertex 1.8214e-14 82.0285 14.7257
    endloop
  endfacet
  facet normal -1 2.22045e-16 0
    outer loop
      vertex 9.54792e-15 43 10
      vertex 1.88738e-14 85 17
      vertex 1.79856e-14 81 15.1
    endloop
  endfacet
  facet normal -1 2.22045e-16 0
    outer loop
      vertex 9.54792e-15 43 10
      vertex 1.79856e-14 81 15.1
      vertex 1.78641e-14 80.4528 15.0035
    endloop
  endfacet
  facet normal -1 2.22045e-16 0
    outer loop
      vertex 9.54792e-15 43 10
      vertex 1.78641e-14 80.4528 15.0035
      vertex 1.77572e-14 79.9715 14.7257
    endloop
  endfacet
  facet normal -1 2.22045e-16 0
    outer loop
      vertex 9.54792e-15 43 10
      vertex 1.77572e-14 79.9715 14.7257
      vertex 1.76779e-14 79.6144 14.3
    endloop
  endfacet
  facet normal -1 2.22045e-16 0
    outer loop
      vertex 9.54792e-15 43 10
      vertex 1.76779e-14 79.6144 14.3
      vertex 1.76357e-14 79.4243 13.7778
    endloop
  endfacet
  facet normal -1 2.22045e-16 0
    outer loop
      vertex 3.33699e-15 15.0285 12.2743
      vertex 1.88738e-14 85 17
      vertex 3.23013e-15 14.5472 11.9965
    endloop
  endfacet
  facet normal -1 2.22045e-16 0
    outer loop
      vertex 1.11022e-15 5 10
      vertex 9.54792e-15 43 0
      vertex 1.11022e-15 5 0
    endloop
  endfacet
  facet normal 0 0 1
    outer loop
      vertex 1.88738e-14 85 17
      vertex 0 0 17
      vertex 5 -1.11022e-15 17
    endloop
  endfacet
  facet normal 0 0 1
    outer loop
      vertex 5 85 17
      vertex 1.88738e-14 85 17
      vertex 5 -1.11022e-15 17
    endloop
  endfacet
  facet normal 1 -2.22045e-16 0
    outer loop
      vertex 5 -1.11022e-15 17
      vertex 5 -1.11022e-15 0
      vertex 5 0 0
    endloop
  endfacet
  facet normal 1 -2.22045e-16 0
    outer loop
      vertex 5 5 10
      vertex 5 -1.11022e-15 17
      vertex 5 0 10
    endloop
  endfacet
  facet normal 1 -2.22045e-16 0
    outer loop
      vertex 5 0 10
      vertex 5 -1.11022e-15 17
      vertex 5 0 0
    endloop
  endfacet
  facet normal 1 -2.22045e-16 0
    outer loop
      vertex 5 12.9055 10.493
      vertex 5 -1.11022e-15 17
      vertex 5 5 10
    endloop
  endfacet
  facet normal 1 -2.22045e-16 0
    outer loop
      vertex 5 38 0
      vertex 5 5 10
      vertex 5 5 0
    endloop
  endfacet
  facet normal 1 -2.22045e-16 0
    outer loop
      vertex 5 14 16.7
      vertex 5 15.0945 16.507
      vertex 5 85 17
    endloop
  endfacet
  facet normal 1 -2.22045e-16 0
    outer loop
      vertex 5 85 0
      vertex 5 45.0711 10
      vertex 5 45.0711 0
    endloop
  endfacet
  facet normal 1 -2.22045e-16 0
    outer loop
      vertex 5 78.2287 11.9
      vertex 5 45.0711 10
      vertex 5 85 0
    endloop
  endfacet
  facet normal 1 -2.22045e-16 0
    outer loop
      vertex 5 10.8486 14.0557
      vertex 5 -1.11022e-15 17
      vertex 5 10.8486 12.9443
    endloop
  endfacet
  facet normal 1 -2.22045e-16 0
    outer loop
      vertex 5 17.1514 12.9443
      vertex 5 16.7713 11.9
      vertex 5 38 10
    endloop
  endfacet
  facet normal 1 -2.22045e-16 0
    outer loop
      vertex 5 11.2287 15.1
      vertex 5 11.9431 15.9513
      vertex 5 -1.11022e-15 17
    endloop
  endfacet
  facet normal 1 -2.22045e-16 0
    outer loop
      vertex 5 17.1514 14.0557
      vertex 5 17.1514 12.9443
      vertex 5 38 10
    endloop
  endfacet
  facet normal 1 -2.22045e-16 0
    outer loop
      vertex 5 12.9055 16.507
      vertex 5 -1.11022e-15 17
      vertex 5 11.9431 15.9513
    endloop
  endfacet
  facet normal 1 -2.22045e-16 0
    outer loop
      vertex 5 14 16.7
      vertex 5 -1.11022e-15 17
      vertex 5 12.9055 16.507
    endloop
  endfacet
  facet normal 1 -2.22045e-16 0
    outer loop
      vertex 5 85 17
      vertex 5 -1.11022e-15 17
      vertex 5 14 16.7
    endloop
  endfacet
  facet normal 1 -2.22045e-16 0
    outer loop
      vertex 5 15.0945 16.507
      vertex 5 16.0569 15.9513
      vertex 5 85 17
    endloop
  endfacet
  facet normal 1 -2.22045e-16 0
    outer loop
      vertex 5 78.9431 15.9513
      vertex 5 16.0569 15.9513
      vertex 5 45.0711 10
    endloop
  endfacet
  facet normal 1 -2.22045e-16 0
    outer loop
      vertex 5 16.0569 15.9513
      vertex 5 16.7713 15.1
      vertex 5 45.0711 10
    endloop
  endfacet
  facet normal 1 -2.22045e-16 0
    outer loop
      vertex 5 45.0711 10
      vertex 5 17.1514 14.0557
      vertex 5 38 10
    endloop
  endfacet
  facet normal 1 -2.22045e-16 0
    outer loop
      vertex 5 16.0569 11.0487
      vertex 5 15.0945 10.493
      vertex 5 38 0
    endloop
  endfacet
  facet normal 1 -2.22045e-16 0
    outer loop
      vertex 5 38 10
      vertex 5 16.7713 11.9
      vertex 5 38 0
    endloop
  endfacet
  facet normal 1 -2.22045e-16 0
    outer loop
      vertex 5 16.7713 11.9
      vertex 5 16.0569 11.0487
      vertex 5 38 0
    endloop
  endfacet
  facet normal 1 -2.22045e-16 0
    outer loop
      vertex 5 15.0945 10.493
      vertex 5 14 10.3
      vertex 5 38 0
    endloop
  endfacet
  facet normal 1 -2.22045e-16 0
    outer loop
      vertex 5 10.8486 14.0557
      vertex 5 11.2287 15.1
      vertex 5 -1.11022e-15 17
    endloop
  endfacet
  facet normal 1 -2.22045e-16 0
    outer loop
      vertex 5 38 0
      vertex 5 14 10.3
      vertex 5 5 10
    endloop
  endfacet
  facet normal 1 -2.22045e-16 0
    outer loop
      vertex 5 78.2287 15.1
      vertex 5 78.9431 15.9513
      vertex 5 45.0711 10
    endloop
  endfacet
  facet normal 1 -2.22045e-16 0
    outer loop
      vertex 5 14 10.3
      vertex 5 12.9055 10.493
      vertex 5 5 10
    endloop
  endfacet
  facet normal 1 -2.22045e-16 0
    outer loop
      vertex 5 11.9431 11.0487
      vertex 5 -1.11022e-15 17
      vertex 5 12.9055 10.493
    endloop
  endfacet
  facet normal 1 -2.22045e-16 0
    outer loop
      vertex 5 81 16.7
      vertex 5 82.0945 16.507
      vertex 5 85 17
    endloop
  endfacet
  facet normal 1 -2.22045e-16 0
    outer loop
      vertex 5 16.7713 15.1
      vertex 5 17.1514 14.0557
      vertex 5 45.0711 10
    endloop
  endfacet
  facet normal 1 -2.22045e-16 0
    outer loop
      vertex 5 77.8486 14.0557
      vertex 5 45.0711 10
      vertex 5 77.8486 12.9443
    endloop
  endfacet
  facet normal 1 -2.22045e-16 0
    outer loop
      vertex 5 83.0569 15.9513
      vertex 5 83.7713 15.1
      vertex 5 85 17
    endloop
  endfacet
  facet normal 1 -2.22045e-16 0
    outer loop
      vertex 5 78.2287 15.1
      vertex 5 45.0711 10
      vertex 5 77.8486 14.0557
    endloop
  endfacet
  facet normal 1 -2.22045e-16 0
    outer loop
      vertex 5 84.1514 12.9443
      vertex 5 83.7713 11.9
      vertex 5 85 0
    endloop
  endfacet
  facet normal 1 -2.22045e-16 0
    outer loop
      vertex 5 79.9055 16.507
      vertex 5 16.0569 15.9513
      vertex 5 78.9431 15.9513
    endloop
  endfacet
  facet normal 1 -2.22045e-16 0
    outer loop
      vertex 5 81 16.7
      vertex 5 16.0569 15.9513
      vertex 5 79.9055 16.507
    endloop
  endfacet
  facet normal 1 -2.22045e-16 0
    outer loop
      vertex 5 85 17
      vertex 5 16.0569 15.9513
      vertex 5 81 16.7
    endloop
  endfacet
  facet normal 1 -2.22045e-16 0
    outer loop
      vertex 5 78.9431 11.0487
      vertex 5 78.2287 11.9
      vertex 5 85 0
    endloop
  endfacet
  facet normal 1 -2.22045e-16 0
    outer loop
      vertex 5 85 17
      vertex 5 84.1514 14.0557
      vertex 5 85 0
    endloop
  endfacet
  facet normal 1 -2.22045e-16 0
    outer loop
      vertex 5 85 17
      vertex 5 83.7713 15.1
      vertex 5 84.1514 14.0557
    endloop
  endfacet
  facet normal 1 -2.22045e-16 0
    outer loop
      vertex 5 84.1514 14.0557
      vertex 5 84.1514 12.9443
      vertex 5 85 0
    endloop
  endfacet
  facet normal 1 -2.22045e-16 0
    outer loop
      vertex 5 83.7713 11.9
      vertex 5 83.0569 11.0487
      vertex 5 85 0
    endloop
  endfacet
  facet normal 1 -2.22045e-16 0
    outer loop
      vertex 5 83.0569 11.0487
      vertex 5 82.0945 10.493
      vertex 5 85 0
    endloop
  endfacet
  facet normal 1 -2.22045e-16 0
    outer loop
      vertex 5 82.0945 10.493
      vertex 5 81 10.3
      vertex 5 85 0
    endloop
  endfacet
  facet normal 1 -2.22045e-16 0
    outer loop
      vertex 5 81 10.3
      vertex 5 79.9055 10.493
      vertex 5 85 0
    endloop
  endfacet
  facet normal 1 -2.22045e-16 0
    outer loop
      vertex 5 79.9055 10.493
      vertex 5 78.9431 11.0487
      vertex 5 85 0
    endloop
  endfacet
  facet normal 1 -2.22045e-16 0
    outer loop
      vertex 5 77.8486 12.9443
      vertex 5 45.0711 10
      vertex 5 78.2287 11.9
    endloop
  endfacet
  facet normal 1 -2.22045e-16 0
    outer loop
      vertex 5 11.9431 11.0487
      vertex 5 11.2287 11.9
      vertex 5 -1.11022e-15 17
    endloop
  endfacet
  facet normal 1 -2.22045e-16 0
    outer loop
      vertex 5 11.2287 11.9
      vertex 5 10.8486 12.9443
      vertex 5 -1.11022e-15 17
    endloop
  endfacet
  facet normal 1 -2.22045e-16 0
    outer loop
      vertex 5 82.0945 16.507
      vertex 5 83.0569 15.9513
      vertex 5 85 17
    endloop
  endfacet
  facet normal 0 -1 0
    outer loop
      vertex 11.375 0 2.61843
      vertex 5 0 0
      vertex 55 0 0
    endloop
  endfacet
  facet normal 0 -1 0
    outer loop
      vertex 49.5225 0 2.29178
      vertex 5 0 10
      vertex 55 0 0
    endloop
  endfacet
  facet normal 0 -1 0
    outer loop
      vertex 10.4775 0 2.29178
      vertex 9.52247 0 2.29178
      vertex 5 0 0
    endloop
  endfacet
  facet normal 0 -1 0
    outer loop
      vertex 5 0 10
      vertex 5 0 0
      vertex 7.41585 0 4.05944
    endloop
  endfacet
  facet normal 0 -1 0
    outer loop
      vertex 12.5842 0 4.05944
      vertex 12.1066 0 3.23233
      vertex 55 0 0
    endloop
  endfacet
  facet normal 0 -1 0
    outer loop
      vertex 5 0 10
      vertex 7.41585 0 4.05944
      vertex 7.25 0 5
    endloop
  endfacet
  facet normal 0 -1 0
    outer loop
      vertex 12.75 0 5
      vertex 12.5842 0 4.05944
      vertex 55 0 0
    endloop
  endfacet
  facet normal 0 -1 0
    outer loop
      vertex 5 0 10
      vertex 7.25 0 5
      vertex 7.41585 0 5.94055
    endloop
  endfacet
  facet normal 0 -1 0
    outer loop
      vertex 12.5842 0 5.94055
      vertex 12.75 0 5
      vertex 55 0 0
    endloop
  endfacet
  facet normal 0 -1 0
    outer loop
      vertex 5 0 10
      vertex 7.41585 0 5.94055
      vertex 7.89338 0 6.76767
    endloop
  endfacet
  facet normal 0 -1 0
    outer loop
      vertex 12.1066 0 6.76767
      vertex 12.5842 0 5.94055
      vertex 55 0 0
    endloop
  endfacet
  facet normal 0 -1 0
    outer loop
      vertex 5 0 10
      vertex 7.89338 0 6.76767
      vertex 8.625 0 7.38157
    endloop
  endfacet
  facet normal 0 -1 0
    outer loop
      vertex 11.375 0 7.38157
      vertex 12.1066 0 6.76767
      vertex 55 0 0
    endloop
  endfacet
  facet normal 0 -1 0
    outer loop
      vertex 5 0 10
      vertex 8.625 0 7.38157
      vertex 9.52247 0 7.70822
    endloop
  endfacet
  facet normal 0 -1 0
    outer loop
      vertex 5 0 10
      vertex 10.4775 0 7.70822
      vertex 55 0 0
    endloop
  endfacet
  facet normal 0 -1 0
    outer loop
      vertex 5 0 10
      vertex 9.52247 0 7.70822
      vertex 10.4775 0 7.70822
    endloop
  endfacet
  facet normal 0 -1 0
    outer loop
      vertex 12.1066 0 3.23233
      vertex 11.375 0 2.61843
      vertex 55 0 0
    endloop
  endfacet
  facet normal 0 -1 0
    outer loop
      vertex 10.4775 0 2.29178
      vertex 5 0 0
      vertex 11.375 0 2.61843
    endloop
  endfacet
  facet normal 0 -1 0
    outer loop
      vertex 49.5225 0 7.70822
      vertex 50.4775 0 7.70822
      vertex 55 0 10
    endloop
  endfacet
  facet normal 0 -1 0
    outer loop
      vertex 8.625 0 2.61843
      vertex 5 0 0
      vertex 9.52247 0 2.29178
    endloop
  endfacet
  facet normal 0 -1 0
    outer loop
      vertex 7.89338 0 3.23233
      vertex 5 0 0
      vertex 8.625 0 2.61843
    endloop
  endfacet
  facet normal 0 -1 0
    outer loop
      vertex 7.41585 0 4.05944
      vertex 5 0 0
      vertex 7.89338 0 3.23233
    endloop
  endfacet
  facet normal 0 -1 0
    outer loop
      vertex 49.5225 0 2.29178
      vertex 48.625 0 2.61843
      vertex 5 0 10
    endloop
  endfacet
  facet normal 0 -1 0
    outer loop
      vertex 47.25 0 5
      vertex 5 0 10
      vertex 47.4158 0 4.05944
    endloop
  endfacet
  facet normal 0 -1 0
    outer loop
      vertex 47.4158 0 5.94055
      vertex 5 0 10
      vertex 47.25 0 5
    endloop
  endfacet
  facet normal 0 -1 0
    outer loop
      vertex 51.375 0 7.38157
      vertex 52.1066 0 6.76767
      vertex 55 0 10
    endloop
  endfacet
  facet normal 0 -1 0
    outer loop
      vertex 47.8934 0 6.76767
      vertex 5 0 10
      vertex 47.4158 0 5.94055
    endloop
  endfacet
  facet normal 0 -1 0
    outer loop
      vertex 48.625 0 7.38157
      vertex 5 0 10
      vertex 47.8934 0 6.76767
    endloop
  endfacet
  facet normal 0 -1 0
    outer loop
      vertex 55 0 10
      vertex 5 0 10
      vertex 48.625 0 7.38157
    endloop
  endfacet
  facet normal 0 -1 0
    outer loop
      vertex 55 0 10
      vertex 48.625 0 7.38157
      vertex 49.5225 0 7.70822
    endloop
  endfacet
  facet normal 0 -1 0
    outer loop
      vertex 52.5842 0 5.94055
      vertex 52.75 0 5
      vertex 55 0 0
    endloop
  endfacet
  facet normal 0 -1 0
    outer loop
      vertex 51.375 0 2.61843
      vertex 50.4775 0 2.29178
      vertex 55 0 0
    endloop
  endfacet
  facet normal 0 -1 0
    outer loop
      vertex 55 0 10
      vertex 52.5842 0 5.94055
      vertex 55 0 0
    endloop
  endfacet
  facet normal 0 -1 0
    outer loop
      vertex 55 0 10
      vertex 52.1066 0 6.76767
      vertex 52.5842 0 5.94055
    endloop
  endfacet
  facet normal 0 -1 0
    outer loop
      vertex 52.75 0 5
      vertex 52.5842 0 4.05944
      vertex 55 0 0
    endloop
  endfacet
  facet normal 0 -1 0
    outer loop
      vertex 52.5842 0 4.05944
      vertex 52.1066 0 3.23233
      vertex 55 0 0
    endloop
  endfacet
  facet normal 0 -1 0
    outer loop
      vertex 52.1066 0 3.23233
      vertex 51.375 0 2.61843
      vertex 55 0 0
    endloop
  endfacet
  facet normal 0 -1 0
    outer loop
      vertex 50.4775 0 2.29178
      vertex 49.5225 0 2.29178
      vertex 55 0 0
    endloop
  endfacet
  facet normal 0 -1 0
    outer loop
      vertex 47.8934 0 3.23233
      vertex 5 0 10
      vertex 48.625 0 2.61843
    endloop
  endfacet
  facet normal 0 -1 0
    outer loop
      vertex 47.4158 0 4.05944
      vertex 5 0 10
      vertex 47.8934 0 3.23233
    endloop
  endfacet
  facet normal 0 -1 0
    outer loop
      vertex 10.4775 0 7.70822
      vertex 11.375 0 7.38157
      vertex 55 0 0
    endloop
  endfacet
  facet normal 0 -1 0
    outer loop
      vertex 50.4775 0 7.70822
      vertex 51.375 0 7.38157
      vertex 55 0 10
    endloop
  endfacet
  facet normal 1 0 0
    outer loop
      vertex 55 0 10
      vertex 55 0 0
      vertex 55 5 0
    endloop
  endfacet
  facet normal 1 0 0
    outer loop
      vertex 55 5 10
      vertex 55 0 10
      vertex 55 5 0
    endloop
  endfacet
  facet normal 0 1 0
    outer loop
      vertex 51.375 5 7.38157
      vertex 45.0711 5 10
      vertex 55 5 10
    endloop
  endfacet
  facet normal 0 1 0
    outer loop
      vertex 45.0711 5 0
      vertex 45.0711 5 10
      vertex 47.25 5 5
    endloop
  endfacet
  facet normal 0 1 0
    outer loop
      vertex 47.4158 5 5.94055
      vertex 45.0711 5 10
      vertex 47.8934 5 6.76767
    endloop
  endfacet
  facet normal 0 1 0
    outer loop
      vertex 45.0711 5 0
      vertex 47.25 5 5
      vertex 47.4158 5 4.05944
    endloop
  endfacet
  facet normal 0 1 0
    outer loop
      vertex 45.0711 5 0
      vertex 47.4158 5 4.05944
      vertex 47.8934 5 3.23233
    endloop
  endfacet
  facet normal 0 1 0
    outer loop
      vertex 45.0711 5 0
      vertex 47.8934 5 3.23233
      vertex 48.625 5 2.61843
    endloop
  endfacet
  facet normal 0 1 0
    outer loop
      vertex 45.0711 5 0
      vertex 48.625 5 2.61843
      vertex 55 5 0
    endloop
  endfacet
  facet normal 0 1 0
    outer loop
      vertex 48.625 5 2.61843
      vertex 49.5225 5 2.29178
      vertex 55 5 0
    endloop
  endfacet
  facet normal 0 1 0
    outer loop
      vertex 51.375 5 2.61843
      vertex 55 5 0
      vertex 50.4775 5 2.29178
    endloop
  endfacet
  facet normal 0 1 0
    outer loop
      vertex 52.1066 5 3.23233
      vertex 55 5 0
      vertex 51.375 5 2.61843
    endloop
  endfacet
  facet normal 0 1 0
    outer loop
      vertex 52.75 5 5
      vertex 55 5 10
      vertex 52.5842 5 4.05944
    endloop
  endfacet
  facet normal 0 1 0
    outer loop
      vertex 55 5 0
      vertex 52.1066 5 3.23233
      vertex 52.5842 5 4.05944
    endloop
  endfacet
  facet normal 0 1 0
    outer loop
      vertex 55 5 0
      vertex 52.5842 5 4.05944
      vertex 55 5 10
    endloop
  endfacet
  facet normal 0 1 0
    outer loop
      vertex 47.8934 5 6.76767
      vertex 45.0711 5 10
      vertex 48.625 5 7.38157
    endloop
  endfacet
  facet normal 0 1 0
    outer loop
      vertex 49.5225 5 7.70822
      vertex 45.0711 5 10
      vertex 50.4775 5 7.70822
    endloop
  endfacet
  facet normal 0 1 0
    outer loop
      vertex 52.75 5 5
      vertex 52.5842 5 5.94055
      vertex 55 5 10
    endloop
  endfacet
  facet normal 0 1 0
    outer loop
      vertex 48.625 5 7.38157
      vertex 45.0711 5 10
      vertex 49.5225 5 7.70822
    endloop
  endfacet
  facet normal 0 1 0
    outer loop
      vertex 52.5842 5 5.94055
      vertex 52.1066 5 6.76767
      vertex 55 5 10
    endloop
  endfacet
  facet normal 0 1 0
    outer loop
      vertex 50.4775 5 7.70822
      vertex 45.0711 5 10
      vertex 51.375 5 7.38157
    endloop
  endfacet
  facet normal 0 1 0
    outer loop
      vertex 52.1066 5 6.76767
      vertex 51.375 5 7.38157
      vertex 55 5 10
    endloop
  endfacet
  facet normal 0 1 0
    outer loop
      vertex 47.25 5 5
      vertex 45.0711 5 10
      vertex 47.4158 5 5.94055
    endloop
  endfacet
  facet normal 0 1 0
    outer loop
      vertex 50.4775 5 2.29178
      vertex 55 5 0
      vertex 49.5225 5 2.29178
    endloop
  endfacet
  facet normal 0.707107 0.707107 0
    outer loop
      vertex 45.0711 5 0
      vertex 5 45.0711 0
      vertex 5 45.0711 10
    endloop
  endfacet
  facet normal 0.707107 0.707107 0
    outer loop
      vertex 45.0711 5 10
      vertex 45.0711 5 0
      vertex 5 45.0711 10
    endloop
  endfacet
  facet normal 2.22045e-16 1 0
    outer loop
      vertex 1.88738e-14 85 0
      vertex 1.88738e-14 85 17
      vertex 5 85 0
    endloop
  endfacet
  facet normal 2.22045e-16 1 0
    outer loop
      vertex 5 85 0
      vertex 1.88738e-14 85 17
      vertex 5 85 17
    endloop
  endfacet
  facet normal -0.707107 0.707107 0
    outer loop
      vertex 0 43 0
      vertex 0 43 10
      vertex 9.54792e-15 43 0
    endloop
  endfacet
  facet normal -0.707107 0.707107 0
    outer loop
      vertex 9.54792e-15 43 0
      vertex 0 43 10
      vertex 9.54792e-15 43 10
    endloop
  endfacet
  facet normal -0.707107 -0.707107 0
    outer loop
      vertex 0 43 0
      vertex 9.54792e-15 43 0
      vertex 0 43 10
    endloop
  endfacet
  facet normal -0.707107 -0.707107 0
    outer loop
      vertex 0 43 10
      vertex 9.54792e-15 43 0
      vertex 9.54792e-15 43 10
    endloop
  endfacet
  facet normal -0.707107 -0.707107 0
    outer loop
      vertex 5 38 0
      vertex 38 5 0
      vertex 5 38 10
    endloop
  endfacet
  facet normal -0.707107 -0.707107 0
    outer loop
      vertex 5 38 10
      vertex 38 5 0
      vertex 38 5 10
    endloop
  endfacet
  facet normal 0 1 0
    outer loop
      vertex 11.375 5 7.38157
      vertex 5 5 10
      vertex 38 5 0
    endloop
  endfacet
  facet normal 0 1 0
    outer loop
      vertex 38 5 0
      vertex 5 5 10
      vertex 38 5 10
    endloop
  endfacet
  facet normal 0 1 0
    outer loop
      vertex 5 5 0
      vertex 5 5 10
      vertex 7.25 5 5
    endloop
  endfacet
  facet normal 0 1 0
    outer loop
      vertex 5 5 0
      vertex 7.25 5 5
      vertex 7.41585 5 4.05944
    endloop
  endfacet
  facet normal 0 1 0
    outer loop
      vertex 5 5 0
      vertex 7.41585 5 4.05944
      vertex 7.89338 5 3.23233
    endloop
  endfacet
  facet normal 0 1 0
    outer loop
      vertex 5 5 0
      vertex 7.89338 5 3.23233
      vertex 8.625 5 2.61843
    endloop
  endfacet
  facet normal 0 1 0
    outer loop
      vertex 5 5 0
      vertex 8.625 5 2.61843
      vertex 9.52247 5 2.29178
    endloop
  endfacet
  facet normal 0 1 0
    outer loop
      vertex 5 5 0
      vertex 9.52247 5 2.29178
      vertex 38 5 0
    endloop
  endfacet
  facet normal 0 1 0
    outer loop
      vertex 9.52247 5 2.29178
      vertex 10.4775 5 2.29178
      vertex 38 5 0
    endloop
  endfacet
  facet normal 0 1 0
    outer loop
      vertex 12.1066 5 3.23233
      vertex 38 5 0
      vertex 11.375 5 2.61843
    endloop
  endfacet
  facet normal 0 1 0
    outer loop
      vertex 12.5842 5 4.05944
      vertex 38 5 0
      vertex 12.1066 5 3.23233
    endloop
  endfacet
  facet normal 0 1 0
    outer loop
      vertex 12.75 5 5
      vertex 38 5 0
      vertex 12.5842 5 4.05944
    endloop
  endfacet
  facet normal 0 1 0
    outer loop
      vertex 9.52247 5 7.70822
      vertex 5 5 10
      vertex 10.4775 5 7.70822
    endloop
  endfacet
  facet normal 0 1 0
    outer loop
      vertex 12.75 5 5
      vertex 12.5842 5 5.94055
      vertex 38 5 0
    endloop
  endfacet
  facet normal 0 1 0
    outer loop
      vertex 8.625 5 7.38157
      vertex 5 5 10
      vertex 9.52247 5 7.70822
    endloop
  endfacet
  facet normal 0 1 0
    outer loop
      vertex 12.5842 5 5.94055
      vertex 12.1066 5 6.76767
      vertex 38 5 0
    endloop
  endfacet
  facet normal 0 1 0
    outer loop
      vertex 10.4775 5 7.70822
      vertex 5 5 10
      vertex 11.375 5 7.38157
    endloop
  endfacet
  facet normal 0 1 0
    outer loop
      vertex 12.1066 5 6.76767
      vertex 11.375 5 7.38157
      vertex 38 5 0
    endloop
  endfacet
  facet normal 0 1 0
    outer loop
      vertex 7.89338 5 6.76767
      vertex 5 5 10
      vertex 8.625 5 7.38157
    endloop
  endfacet
  facet normal 0 1 0
    outer loop
      vertex 7.41585 5 5.94055
      vertex 5 5 10
      vertex 7.89338 5 6.76767
    endloop
  endfacet
  facet normal 0 1 0
    outer loop
      vertex 7.25 5 5
      vertex 5 5 10
      vertex 7.41585 5 5.94055
    endloop
  endfacet
  facet normal 0 1 0
    outer loop
      vertex 11.375 5 2.61843
      vertex 38 5 0
      vertex 10.4775 5 2.29178
    endloop
  endfacet
  facet normal 7.59434e-17 0.939693 -0.342019
    outer loop
      vertex 6.6 12.6144 14.3
      vertex 6.6 12.4243 13.7778
      vertex 2.80095e-15 12.6144 14.3
    endloop
  endfacet
  facet normal 7.59434e-17 0.939693 -0.342019
    outer loop
      vertex 2.80095e-15 12.6144 14.3
      vertex 6.6 12.4243 13.7778
      vertex 2.75875e-15 12.4243 13.7778
    endloop
  endfacet
  facet normal 0 1 0
    outer loop
      vertex 6.6 12.4243 13.7778
      vertex 6.6 12.4243 13.2222
      vertex 2.75875e-15 12.4243 13.7778
    endloop
  endfacet
  facet normal 0 1 0
    outer loop
      vertex 2.75875e-15 12.4243 13.7778
      vertex 6.6 12.4243 13.2222
      vertex 2.75875e-15 12.4243 13.2222
    endloop
  endfacet
  facet normal 1.42728e-16 0.766044 -0.642788
    outer loop
      vertex 6.6 12.9715 14.7257
      vertex 6.6 12.6144 14.3
      vertex 2.88026e-15 12.9715 14.7257
    endloop
  endfacet
  facet normal 1.42728e-16 0.766044 -0.642788
    outer loop
      vertex 2.88026e-15 12.9715 14.7257
      vertex 6.6 12.6144 14.3
      vertex 2.80095e-15 12.6144 14.3
    endloop
  endfacet
  facet normal 1.92296e-16 0.5 -0.866025
    outer loop
      vertex 6.6 13.4528 15.0035
      vertex 6.6 12.9715 14.7257
      vertex 2.98711e-15 13.4528 15.0035
    endloop
  endfacet
  facet normal 1.92296e-16 0.5 -0.866025
    outer loop
      vertex 2.98711e-15 13.4528 15.0035
      vertex 6.6 12.9715 14.7257
      vertex 2.88026e-15 12.9715 14.7257
    endloop
  endfacet
  facet normal 2.18671e-16 0.173649 -0.984808
    outer loop
      vertex 6.6 14 15.1
      vertex 6.6 13.4528 15.0035
      vertex 3.10862e-15 14 15.1
    endloop
  endfacet
  facet normal 2.18671e-16 0.173649 -0.984808
    outer loop
      vertex 3.10862e-15 14 15.1
      vertex 6.6 13.4528 15.0035
      vertex 2.98711e-15 13.4528 15.0035
    endloop
  endfacet
  facet normal 2.18671e-16 -0.173649 -0.984808
    outer loop
      vertex 6.6 14.5472 15.0035
      vertex 6.6 14 15.1
      vertex 3.23013e-15 14.5472 15.0035
    endloop
  endfacet
  facet normal 2.18671e-16 -0.173649 -0.984808
    outer loop
      vertex 3.23013e-15 14.5472 15.0035
      vertex 6.6 14 15.1
      vertex 3.10862e-15 14 15.1
    endloop
  endfacet
  facet normal 1.92296e-16 -0.5 -0.866025
    outer loop
      vertex 6.6 15.0285 14.7257
      vertex 6.6 14.5472 15.0035
      vertex 3.33699e-15 15.0285 14.7257
    endloop
  endfacet
  facet normal 1.92296e-16 -0.5 -0.866025
    outer loop
      vertex 3.33699e-15 15.0285 14.7257
      vertex 6.6 14.5472 15.0035
      vertex 3.23013e-15 14.5472 15.0035
    endloop
  endfacet
  facet normal 1.42728e-16 -0.766044 -0.642788
    outer loop
      vertex 3.4163e-15 15.3856 14.3
      vertex 6.6 15.3856 14.3
      vertex 6.6 15.0285 14.7257
    endloop
  endfacet
  facet normal 1.42728e-16 -0.766044 -0.642788
    outer loop
      vertex 3.33699e-15 15.0285 14.7257
      vertex 3.4163e-15 15.3856 14.3
      vertex 6.6 15.0285 14.7257
    endloop
  endfacet
  facet normal 7.59434e-17 -0.939693 -0.342019
    outer loop
      vertex 3.4585e-15 15.5757 13.7778
      vertex 6.6 15.5757 13.7778
      vertex 6.6 15.3856 14.3
    endloop
  endfacet
  facet normal 7.59434e-17 -0.939693 -0.342019
    outer loop
      vertex 3.4163e-15 15.3856 14.3
      vertex 3.4585e-15 15.5757 13.7778
      vertex 6.6 15.3856 14.3
    endloop
  endfacet
  facet normal 0 -1 0
    outer loop
      vertex 6.6 15.5757 13.2222
      vertex 6.6 15.5757 13.7778
      vertex 3.4585e-15 15.5757 13.7778
    endloop
  endfacet
  facet normal 0 -1 0
    outer loop
      vertex 3.4585e-15 15.5757 13.2222
      vertex 6.6 15.5757 13.2222
      vertex 3.4585e-15 15.5757 13.7778
    endloop
  endfacet
  facet normal -7.59434e-17 -0.939693 0.342019
    outer loop
      vertex 6.6 15.3856 12.7
      vertex 6.6 15.5757 13.2222
      vertex 3.4585e-15 15.5757 13.2222
    endloop
  endfacet
  facet normal -7.59434e-17 -0.939693 0.342019
    outer loop
      vertex 3.4163e-15 15.3856 12.7
      vertex 6.6 15.3856 12.7
      vertex 3.4585e-15 15.5757 13.2222
    endloop
  endfacet
  facet normal -1.42728e-16 -0.766044 0.642788
    outer loop
      vertex 6.6 15.0285 12.2743
      vertex 6.6 15.3856 12.7
      vertex 3.4163e-15 15.3856 12.7
    endloop
  endfacet
  facet normal -1.42728e-16 -0.766044 0.642788
    outer loop
      vertex 3.33699e-15 15.0285 12.2743
      vertex 6.6 15.0285 12.2743
      vertex 3.4163e-15 15.3856 12.7
    endloop
  endfacet
  facet normal -1.92296e-16 -0.5 0.866025
    outer loop
      vertex 6.6 14.5472 11.9965
      vertex 6.6 15.0285 12.2743
      vertex 3.33699e-15 15.0285 12.2743
    endloop
  endfacet
  facet normal -1.92296e-16 -0.5 0.866025
    outer loop
      vertex 3.23013e-15 14.5472 11.9965
      vertex 6.6 14.5472 11.9965
      vertex 3.33699e-15 15.0285 12.2743
    endloop
  endfacet
  facet normal -2.18671e-16 -0.173649 0.984808
    outer loop
      vertex 6.6 14 11.9
      vertex 6.6 14.5472 11.9965
      vertex 3.23013e-15 14.5472 11.9965
    endloop
  endfacet
  facet normal -2.18671e-16 -0.173649 0.984808
    outer loop
      vertex 3.10862e-15 14 11.9
      vertex 6.6 14 11.9
      vertex 3.23013e-15 14.5472 11.9965
    endloop
  endfacet
  facet normal -2.18671e-16 0.173649 0.984808
    outer loop
      vertex 6.6 13.4528 11.9965
      vertex 6.6 14 11.9
      vertex 3.10862e-15 14 11.9
    endloop
  endfacet
  facet normal -2.18671e-16 0.173649 0.984808
    outer loop
      vertex 2.98711e-15 13.4528 11.9965
      vertex 6.6 13.4528 11.9965
      vertex 3.10862e-15 14 11.9
    endloop
  endfacet
  facet normal -1.92296e-16 0.5 0.866025
    outer loop
      vertex 6.6 12.9715 12.2743
      vertex 6.6 13.4528 11.9965
      vertex 2.98711e-15 13.4528 11.9965
    endloop
  endfacet
  facet normal -1.92296e-16 0.5 0.866025
    outer loop
      vertex 2.88026e-15 12.9715 12.2743
      vertex 6.6 12.9715 12.2743
      vertex 2.98711e-15 13.4528 11.9965
    endloop
  endfacet
  facet normal -1.42728e-16 0.766044 0.642788
    outer loop
      vertex 6.6 12.9715 12.2743
      vertex 2.88026e-15 12.9715 12.2743
      vertex 6.6 12.6144 12.7
    endloop
  endfacet
  facet normal -1.42728e-16 0.766044 0.642788
    outer loop
      vertex 6.6 12.6144 12.7
      vertex 2.88026e-15 12.9715 12.2743
      vertex 2.80095e-15 12.6144 12.7
    endloop
  endfacet
  facet normal -7.59434e-17 0.939693 0.342019
    outer loop
      vertex 6.6 12.6144 12.7
      vertex 2.80095e-15 12.6144 12.7
      vertex 6.6 12.4243 13.2222
    endloop
  endfacet
  facet normal -7.59434e-17 0.939693 0.342019
    outer loop
      vertex 6.6 12.4243 13.2222
      vertex 2.80095e-15 12.6144 12.7
      vertex 2.75875e-15 12.4243 13.2222
    endloop
  endfacet
  facet normal 7.59434e-17 0.939693 -0.342019
    outer loop
      vertex 6.6 79.6144 14.3
      vertex 6.6 79.4243 13.7778
      vertex 1.76779e-14 79.6144 14.3
    endloop
  endfacet
  facet normal 7.59434e-17 0.939693 -0.342019
    outer loop
      vertex 1.76779e-14 79.6144 14.3
      vertex 6.6 79.4243 13.7778
      vertex 1.76357e-14 79.4243 13.7778
    endloop
  endfacet
  facet normal 0 1 0
    outer loop
      vertex 6.6 79.4243 13.7778
      vertex 6.6 79.4243 13.2222
      vertex 1.76357e-14 79.4243 13.7778
    endloop
  endfacet
  facet normal 0 1 0
    outer loop
      vertex 1.76357e-14 79.4243 13.7778
      vertex 6.6 79.4243 13.2222
      vertex 1.76357e-14 79.4243 13.2222
    endloop
  endfacet
  facet normal 1.42728e-16 0.766044 -0.642788
    outer loop
      vertex 6.6 79.9715 14.7257
      vertex 6.6 79.6144 14.3
      vertex 1.77572e-14 79.9715 14.7257
    endloop
  endfacet
  facet normal 1.42728e-16 0.766044 -0.642788
    outer loop
      vertex 1.77572e-14 79.9715 14.7257
      vertex 6.6 79.6144 14.3
      vertex 1.76779e-14 79.6144 14.3
    endloop
  endfacet
  facet normal 1.92296e-16 0.5 -0.866025
    outer loop
      vertex 6.6 80.4528 15.0035
      vertex 6.6 79.9715 14.7257
      vertex 1.78641e-14 80.4528 15.0035
    endloop
  endfacet
  facet normal 1.92296e-16 0.5 -0.866025
    outer loop
      vertex 1.78641e-14 80.4528 15.0035
      vertex 6.6 79.9715 14.7257
      vertex 1.77572e-14 79.9715 14.7257
    endloop
  endfacet
  facet normal 2.18671e-16 0.173649 -0.984808
    outer loop
      vertex 6.6 81 15.1
      vertex 6.6 80.4528 15.0035
      vertex 1.79856e-14 81 15.1
    endloop
  endfacet
  facet normal 2.18671e-16 0.173649 -0.984808
    outer loop
      vertex 1.79856e-14 81 15.1
      vertex 6.6 80.4528 15.0035
      vertex 1.78641e-14 80.4528 15.0035
    endloop
  endfacet
  facet normal 2.18671e-16 -0.173649 -0.984808
    outer loop
      vertex 6.6 81.5472 15.0035
      vertex 6.6 81 15.1
      vertex 1.81071e-14 81.5472 15.0035
    endloop
  endfacet
  facet normal 2.18671e-16 -0.173649 -0.984808
    outer loop
      vertex 1.81071e-14 81.5472 15.0035
      vertex 6.6 81 15.1
      vertex 1.79856e-14 81 15.1
    endloop
  endfacet
  facet normal 1.92296e-16 -0.5 -0.866025
    outer loop
      vertex 6.6 82.0285 14.7257
      vertex 6.6 81.5472 15.0035
      vertex 1.8214e-14 82.0285 14.7257
    endloop
  endfacet
  facet normal 1.92296e-16 -0.5 -0.866025
    outer loop
      vertex 1.8214e-14 82.0285 14.7257
      vertex 6.6 81.5472 15.0035
      vertex 1.81071e-14 81.5472 15.0035
    endloop
  endfacet
  facet normal 1.42728e-16 -0.766044 -0.642788
    outer loop
      vertex 1.82933e-14 82.3856 14.3
      vertex 6.6 82.3856 14.3
      vertex 6.6 82.0285 14.7257
    endloop
  endfacet
  facet normal 1.42728e-16 -0.766044 -0.642788
    outer loop
      vertex 1.8214e-14 82.0285 14.7257
      vertex 1.82933e-14 82.3856 14.3
      vertex 6.6 82.0285 14.7257
    endloop
  endfacet
  facet normal 7.59434e-17 -0.939693 -0.342019
    outer loop
      vertex 1.83355e-14 82.5757 13.7778
      vertex 6.6 82.5757 13.7778
      vertex 6.6 82.3856 14.3
    endloop
  endfacet
  facet normal 7.59434e-17 -0.939693 -0.342019
    outer loop
      vertex 1.82933e-14 82.3856 14.3
      vertex 1.83355e-14 82.5757 13.7778
      vertex 6.6 82.3856 14.3
    endloop
  endfacet
  facet normal 0 -1 0
    outer loop
      vertex 6.6 82.5757 13.2222
      vertex 6.6 82.5757 13.7778
      vertex 1.83355e-14 82.5757 13.7778
    endloop
  endfacet
  facet normal 0 -1 0
    outer loop
      vertex 1.83355e-14 82.5757 13.2222
      vertex 6.6 82.5757 13.2222
      vertex 1.83355e-14 82.5757 13.7778
    endloop
  endfacet
  facet normal -7.59434e-17 -0.939693 0.342019
    outer loop
      vertex 6.6 82.3856 12.7
      vertex 6.6 82.5757 13.2222
      vertex 1.83355e-14 82.5757 13.2222
    endloop
  endfacet
  facet normal -7.59434e-17 -0.939693 0.342019
    outer loop
      vertex 1.82933e-14 82.3856 12.7
      vertex 6.6 82.3856 12.7
      vertex 1.83355e-14 82.5757 13.2222
    endloop
  endfacet
  facet normal -1.42728e-16 -0.766044 0.642788
    outer loop
      vertex 6.6 82.0285 12.2743
      vertex 6.6 82.3856 12.7
      vertex 1.82933e-14 82.3856 12.7
    endloop
  endfacet
  facet normal -1.42728e-16 -0.766044 0.642788
    outer loop
      vertex 1.8214e-14 82.0285 12.2743
      vertex 6.6 82.0285 12.2743
      vertex 1.82933e-14 82.3856 12.7
    endloop
  endfacet
  facet normal -1.92296e-16 -0.5 0.866025
    outer loop
      vertex 6.6 81.5472 11.9965
      vertex 6.6 82.0285 12.2743
      vertex 1.8214e-14 82.0285 12.2743
    endloop
  endfacet
  facet normal -1.92296e-16 -0.5 0.866025
    outer loop
      vertex 1.81071e-14 81.5472 11.9965
      vertex 6.6 81.5472 11.9965
      vertex 1.8214e-14 82.0285 12.2743
    endloop
  endfacet
  facet normal -2.18671e-16 -0.173649 0.984808
    outer loop
      vertex 6.6 81 11.9
      vertex 6.6 81.5472 11.9965
      vertex 1.81071e-14 81.5472 11.9965
    endloop
  endfacet
  facet normal -2.18671e-16 -0.173649 0.984808
    outer loop
      vertex 1.79856e-14 81 11.9
      vertex 6.6 81 11.9
      vertex 1.81071e-14 81.5472 11.9965
    endloop
  endfacet
  facet normal -2.18671e-16 0.173649 0.984808
    outer loop
      vertex 6.6 80.4528 11.9965
      vertex 6.6 81 11.9
      vertex 1.79856e-14 81 11.9
    endloop
  endfacet
  facet normal -2.18671e-16 0.173649 0.984808
    outer loop
      vertex 1.78641e-14 80.4528 11.9965
      vertex 6.6 80.4528 11.9965
      vertex 1.79856e-14 81 11.9
    endloop
  endfacet
  facet normal -1.92296e-16 0.5 0.866025
    outer loop
      vertex 6.6 79.9715 12.2743
      vertex 6.6 80.4528 11.9965
      vertex 1.78641e-14 80.4528 11.9965
    endloop
  endfacet
  facet normal -1.92296e-16 0.5 0.866025
    outer loop
      vertex 1.77572e-14 79.9715 12.2743
      vertex 6.6 79.9715 12.2743
      vertex 1.78641e-14 80.4528 11.9965
    endloop
  endfacet
  facet normal -1.42728e-16 0.766044 0.642788
    outer loop
      vertex 6.6 79.9715 12.2743
      vertex 1.77572e-14 79.9715 12.2743
      vertex 6.6 79.6144 12.7
    endloop
  endfacet
  facet normal -1.42728e-16 0.766044 0.642788
    outer loop
      vertex 6.6 79.6144 12.7
      vertex 1.77572e-14 79.9715 12.2743
      vertex 1.76779e-14 79.6144 12.7
    endloop
  endfacet
  facet normal -7.59434e-17 0.939693 0.342019
    outer loop
      vertex 6.6 79.6144 12.7
      vertex 1.76779e-14 79.6144 12.7
      vertex 6.6 79.4243 13.2222
    endloop
  endfacet
  facet normal -7.59434e-17 0.939693 0.342019
    outer loop
      vertex 6.6 79.4243 13.2222
      vertex 1.76779e-14 79.6144 12.7
      vertex 1.76357e-14 79.4243 13.2222
    endloop
  endfacet
  facet normal 0 0 1
    outer loop
      vertex 5 5 10
      vertex 5 0 10
      vertex 55 0 10
    endloop
  endfacet
  facet normal 0 0 1
    outer loop
      vertex 38 5 10
      vertex 5 5 10
      vertex 55 0 10
    endloop
  endfacet
  facet normal 0 0 1
    outer loop
      vertex 45.0711 5 10
      vertex 38 5 10
      vertex 55 0 10
    endloop
  endfacet
  facet normal 0 0 1
    outer loop
      vertex 55 5 10
      vertex 45.0711 5 10
      vertex 55 0 10
    endloop
  endfacet
  facet normal 0 0 1
    outer loop
      vertex 5 45.0711 10
      vertex 5 38 10
      vertex 45.0711 5 10
    endloop
  endfacet
  facet normal 0 0 1
    outer loop
      vertex 5 38 10
      vertex 38 5 10
      vertex 45.0711 5 10
    endloop
  endfacet
  facet normal 0.441753 -0.897137 9.8089e-17
    outer loop
      vertex 5 10.8486 14.0557
      vertex 5 10.8486 12.9443
      vertex 6.6 11.6365 13.0832
    endloop
  endfacet
  facet normal 0.441753 -0.897137 9.8089e-17
    outer loop
      vertex 6.6 11.6365 13.9168
      vertex 5 10.8486 14.0557
      vertex 6.6 11.6365 13.0832
    endloop
  endfacet
  facet normal 0.441753 -0.843033 -0.306839
    outer loop
      vertex 6.6 11.6365 13.0832
      vertex 5 10.8486 12.9443
      vertex 5 11.2287 11.9
    endloop
  endfacet
  facet normal 0.441753 -0.843032 -0.306839
    outer loop
      vertex 6.6 11.9215 12.3
      vertex 6.6 11.6365 13.0832
      vertex 5 11.2287 11.9
    endloop
  endfacet
  facet normal 0.441753 -0.687246 -0.576668
    outer loop
      vertex 6.6 11.9215 12.3
      vertex 5 11.2287 11.9
      vertex 5 11.9431 11.0487
    endloop
  endfacet
  facet normal 0.441753 -0.687246 -0.576668
    outer loop
      vertex 6.6 12.4573 11.6615
      vertex 6.6 11.9215 12.3
      vertex 5 11.9431 11.0487
    endloop
  endfacet
  facet normal 0.441753 -0.448568 -0.776943
    outer loop
      vertex 6.6 12.4573 11.6615
      vertex 5 11.9431 11.0487
      vertex 5 12.9055 10.493
    endloop
  endfacet
  facet normal 0.441753 -0.448568 -0.776943
    outer loop
      vertex 6.6 12.4573 11.6615
      vertex 5 12.9055 10.493
      vertex 6.6 13.1792 11.2447
    endloop
  endfacet
  facet normal 0.441753 -0.155786 -0.883507
    outer loop
      vertex 6.6 13.1792 11.2447
      vertex 5 12.9055 10.493
      vertex 5 14 10.3
    endloop
  endfacet
  facet normal 0.441753 -0.155786 -0.883507
    outer loop
      vertex 6.6 13.1792 11.2447
      vertex 5 14 10.3
      vertex 6.6 14 11.1
    endloop
  endfacet
  facet normal 0.441753 0.155786 -0.883507
    outer loop
      vertex 6.6 14 11.1
      vertex 5 14 10.3
      vertex 5 15.0945 10.493
    endloop
  endfacet
  facet normal 0.441753 0.155786 -0.883507
    outer loop
      vertex 6.6 14 11.1
      vertex 5 15.0945 10.493
      vertex 6.6 14.8208 11.2447
    endloop
  endfacet
  facet normal 0.441753 0.448568 -0.776943
    outer loop
      vertex 6.6 14.8208 11.2447
      vertex 5 15.0945 10.493
      vertex 5 16.0569 11.0487
    endloop
  endfacet
  facet normal 0.441753 0.448568 -0.776943
    outer loop
      vertex 6.6 14.8208 11.2447
      vertex 5 16.0569 11.0487
      vertex 6.6 15.5427 11.6615
    endloop
  endfacet
  facet normal 0.441753 0.687246 -0.576668
    outer loop
      vertex 6.6 15.5427 11.6615
      vertex 5 16.0569 11.0487
      vertex 5 16.7713 11.9
    endloop
  endfacet
  facet normal 0.441753 0.687246 -0.576668
    outer loop
      vertex 6.6 15.5427 11.6615
      vertex 5 16.7713 11.9
      vertex 6.6 16.0785 12.3
    endloop
  endfacet
  facet normal 0.441753 0.843032 -0.306839
    outer loop
      vertex 6.6 16.0785 12.3
      vertex 5 16.7713 11.9
      vertex 5 17.1514 12.9443
    endloop
  endfacet
  facet normal 0.441753 0.843032 -0.306839
    outer loop
      vertex 6.6 16.0785 12.3
      vertex 5 17.1514 12.9443
      vertex 6.6 16.3635 13.0832
    endloop
  endfacet
  facet normal 0.441753 0.897137 9.8089e-17
    outer loop
      vertex 5 17.1514 14.0557
      vertex 6.6 16.3635 13.9168
      vertex 5 17.1514 12.9443
    endloop
  endfacet
  facet normal 0.441753 0.897137 9.8089e-17
    outer loop
      vertex 5 17.1514 12.9443
      vertex 6.6 16.3635 13.9168
      vertex 6.6 16.3635 13.0832
    endloop
  endfacet
  facet normal 0.441753 0.843033 0.306839
    outer loop
      vertex 5 17.1514 14.0557
      vertex 5 16.7713 15.1
      vertex 6.6 16.3635 13.9168
    endloop
  endfacet
  facet normal 0.441753 0.843032 0.306839
    outer loop
      vertex 5 16.7713 15.1
      vertex 6.6 16.0785 14.7
      vertex 6.6 16.3635 13.9168
    endloop
  endfacet
  facet normal 0.441753 0.687246 0.576668
    outer loop
      vertex 5 16.7713 15.1
      vertex 5 16.0569 15.9513
      vertex 6.6 16.0785 14.7
    endloop
  endfacet
  facet normal 0.441753 0.687246 0.576668
    outer loop
      vertex 5 16.0569 15.9513
      vertex 6.6 15.5427 15.3385
      vertex 6.6 16.0785 14.7
    endloop
  endfacet
  facet normal 0.441753 0.448568 0.776943
    outer loop
      vertex 5 16.0569 15.9513
      vertex 5 15.0945 16.507
      vertex 6.6 15.5427 15.3385
    endloop
  endfacet
  facet normal 0.441753 0.448568 0.776943
    outer loop
      vertex 6.6 15.5427 15.3385
      vertex 5 15.0945 16.507
      vertex 6.6 14.8208 15.7553
    endloop
  endfacet
  facet normal 0.441753 0.155786 0.883507
    outer loop
      vertex 5 15.0945 16.507
      vertex 5 14 16.7
      vertex 6.6 14.8208 15.7553
    endloop
  endfacet
  facet normal 0.441753 0.155786 0.883507
    outer loop
      vertex 6.6 14.8208 15.7553
      vertex 5 14 16.7
      vertex 6.6 14 15.9
    endloop
  endfacet
  facet normal 0.441753 -0.155786 0.883507
    outer loop
      vertex 5 14 16.7
      vertex 5 12.9055 16.507
      vertex 6.6 14 15.9
    endloop
  endfacet
  facet normal 0.441753 -0.155786 0.883507
    outer loop
      vertex 6.6 14 15.9
      vertex 5 12.9055 16.507
      vertex 6.6 13.1792 15.7553
    endloop
  endfacet
  facet normal 0.441753 -0.448568 0.776943
    outer loop
      vertex 5 12.9055 16.507
      vertex 5 11.9431 15.9513
      vertex 6.6 13.1792 15.7553
    endloop
  endfacet
  facet normal 0.441753 -0.448568 0.776943
    outer loop
      vertex 6.6 13.1792 15.7553
      vertex 5 11.9431 15.9513
      vertex 6.6 12.4573 15.3385
    endloop
  endfacet
  facet normal 0.441753 -0.687246 0.576668
    outer loop
      vertex 5 11.9431 15.9513
      vertex 5 11.2287 15.1
      vertex 6.6 12.4573 15.3385
    endloop
  endfacet
  facet normal 0.441753 -0.687246 0.576668
    outer loop
      vertex 6.6 12.4573 15.3385
      vertex 5 11.2287 15.1
      vertex 6.6 11.9215 14.7
    endloop
  endfacet
  facet normal 0.441753 -0.843032 0.306839
    outer loop
      vertex 5 11.2287 15.1
      vertex 5 10.8486 14.0557
      vertex 6.6 11.9215 14.7
    endloop
  endfacet
  facet normal 0.441753 -0.843032 0.306839
    outer loop
      vertex 6.6 11.9215 14.7
      vertex 5 10.8486 14.0557
      vertex 6.6 11.6365 13.9168
    endloop
  endfacet
  facet normal 0.441753 -0.897137 9.8089e-17
    outer loop
      vertex 5 77.8486 14.0557
      vertex 5 77.8486 12.9443
      vertex 6.6 78.6365 13.0832
    endloop
  endfacet
  facet normal 0.441753 -0.897137 9.8089e-17
    outer loop
      vertex 6.6 78.6365 13.9168
      vertex 5 77.8486 14.0557
      vertex 6.6 78.6365 13.0832
    endloop
  endfacet
  facet normal 0.441753 -0.843033 -0.306839
    outer loop
      vertex 6.6 78.6365 13.0832
      vertex 5 77.8486 12.9443
      vertex 5 78.2287 11.9
    endloop
  endfacet
  facet normal 0.441753 -0.843032 -0.306839
    outer loop
      vertex 6.6 78.9215 12.3
      vertex 6.6 78.6365 13.0832
      vertex 5 78.2287 11.9
    endloop
  endfacet
  facet normal 0.441753 -0.687246 -0.576668
    outer loop
      vertex 6.6 78.9215 12.3
      vertex 5 78.2287 11.9
      vertex 5 78.9431 11.0487
    endloop
  endfacet
  facet normal 0.441753 -0.687246 -0.576668
    outer loop
      vertex 6.6 79.4573 11.6615
      vertex 6.6 78.9215 12.3
      vertex 5 78.9431 11.0487
    endloop
  endfacet
  facet normal 0.441753 -0.448568 -0.776943
    outer loop
      vertex 6.6 79.4573 11.6615
      vertex 5 78.9431 11.0487
      vertex 5 79.9055 10.493
    endloop
  endfacet
  facet normal 0.441753 -0.448568 -0.776943
    outer loop
      vertex 6.6 79.4573 11.6615
      vertex 5 79.9055 10.493
      vertex 6.6 80.1792 11.2447
    endloop
  endfacet
  facet normal 0.441753 -0.155786 -0.883507
    outer loop
      vertex 6.6 80.1792 11.2447
      vertex 5 79.9055 10.493
      vertex 5 81 10.3
    endloop
  endfacet
  facet normal 0.441753 -0.155786 -0.883507
    outer loop
      vertex 6.6 80.1792 11.2447
      vertex 5 81 10.3
      vertex 6.6 81 11.1
    endloop
  endfacet
  facet normal 0.441753 0.155786 -0.883507
    outer loop
      vertex 6.6 81 11.1
      vertex 5 81 10.3
      vertex 5 82.0945 10.493
    endloop
  endfacet
  facet normal 0.441753 0.155786 -0.883507
    outer loop
      vertex 6.6 81 11.1
      vertex 5 82.0945 10.493
      vertex 6.6 81.8208 11.2447
    endloop
  endfacet
  facet normal 0.441753 0.448568 -0.776943
    outer loop
      vertex 6.6 81.8208 11.2447
      vertex 5 82.0945 10.493
      vertex 5 83.0569 11.0487
    endloop
  endfacet
  facet normal 0.441753 0.448568 -0.776943
    outer loop
      vertex 6.6 81.8208 11.2447
      vertex 5 83.0569 11.0487
      vertex 6.6 82.5427 11.6615
    endloop
  endfacet
  facet normal 0.441753 0.687246 -0.576668
    outer loop
      vertex 6.6 82.5427 11.6615
      vertex 5 83.0569 11.0487
      vertex 5 83.7713 11.9
    endloop
  endfacet
  facet normal 0.441753 0.687246 -0.576668
    outer loop
      vertex 6.6 82.5427 11.6615
      vertex 5 83.7713 11.9
      vertex 6.6 83.0785 12.3
    endloop
  endfacet
  facet normal 0.441753 0.843032 -0.306839
    outer loop
      vertex 6.6 83.0785 12.3
      vertex 5 83.7713 11.9
      vertex 5 84.1514 12.9443
    endloop
  endfacet
  facet normal 0.441753 0.843032 -0.306839
    outer loop
      vertex 6.6 83.0785 12.3
      vertex 5 84.1514 12.9443
      vertex 6.6 83.3635 13.0832
    endloop
  endfacet
  facet normal 0.441753 0.897137 9.8089e-17
    outer loop
      vertex 5 84.1514 14.0557
      vertex 6.6 83.3635 13.9168
      vertex 5 84.1514 12.9443
    endloop
  endfacet
  facet normal 0.441753 0.897137 9.8089e-17
    outer loop
      vertex 5 84.1514 12.9443
      vertex 6.6 83.3635 13.9168
      vertex 6.6 83.3635 13.0832
    endloop
  endfacet
  facet normal 0.441753 0.843033 0.306839
    outer loop
      vertex 5 84.1514 14.0557
      vertex 5 83.7713 15.1
      vertex 6.6 83.3635 13.9168
    endloop
  endfacet
  facet normal 0.441753 0.843032 0.306839
    outer loop
      vertex 5 83.7713 15.1
      vertex 6.6 83.0785 14.7
      vertex 6.6 83.3635 13.9168
    endloop
  endfacet
  facet normal 0.441753 0.687246 0.576668
    outer loop
      vertex 5 83.7713 15.1
      vertex 5 83.0569 15.9513
      vertex 6.6 83.0785 14.7
    endloop
  endfacet
  facet normal 0.441753 0.687246 0.576668
    outer loop
      vertex 5 83.0569 15.9513
      vertex 6.6 82.5427 15.3385
      vertex 6.6 83.0785 14.7
    endloop
  endfacet
  facet normal 0.441753 0.448568 0.776943
    outer loop
      vertex 5 83.0569 15.9513
      vertex 5 82.0945 16.507
      vertex 6.6 82.5427 15.3385
    endloop
  endfacet
  facet normal 0.441753 0.448568 0.776943
    outer loop
      vertex 6.6 82.5427 15.3385
      vertex 5 82.0945 16.507
      vertex 6.6 81.8208 15.7553
    endloop
  endfacet
  facet normal 0.441753 0.155786 0.883507
    outer loop
      vertex 5 82.0945 16.507
      vertex 5 81 16.7
      vertex 6.6 81.8208 15.7553
    endloop
  endfacet
  facet normal 0.441753 0.155786 0.883507
    outer loop
      vertex 6.6 81.8208 15.7553
      vertex 5 81 16.7
      vertex 6.6 81 15.9
    endloop
  endfacet
  facet normal 0.441753 -0.155786 0.883507
    outer loop
      vertex 5 81 16.7
      vertex 5 79.9055 16.507
      vertex 6.6 81 15.9
    endloop
  endfacet
  facet normal 0.441753 -0.155786 0.883507
    outer loop
      vertex 6.6 81 15.9
      vertex 5 79.9055 16.507
      vertex 6.6 80.1792 15.7553
    endloop
  endfacet
  facet normal 0.441753 -0.448568 0.776943
    outer loop
      vertex 5 79.9055 16.507
      vertex 5 78.9431 15.9513
      vertex 6.6 80.1792 15.7553
    endloop
  endfacet
  facet normal 0.441753 -0.448568 0.776943
    outer loop
      vertex 6.6 80.1792 15.7553
      vertex 5 78.9431 15.9513
      vertex 6.6 79.4573 15.3385
    endloop
  endfacet
  facet normal 0.441753 -0.687246 0.576668
    outer loop
      vertex 5 78.9431 15.9513
      vertex 5 78.2287 15.1
      vertex 6.6 79.4573 15.3385
    endloop
  endfacet
  facet normal 0.441753 -0.687246 0.576668
    outer loop
      vertex 6.6 79.4573 15.3385
      vertex 5 78.2287 15.1
      vertex 6.6 78.9215 14.7
    endloop
  endfacet
  facet normal 0.441753 -0.843032 0.306839
    outer loop
      vertex 5 78.2287 15.1
      vertex 5 77.8486 14.0557
      vertex 6.6 78.9215 14.7
    endloop
  endfacet
  facet normal 0.441753 -0.843032 0.306839
    outer loop
      vertex 6.6 78.9215 14.7
      vertex 5 77.8486 14.0557
      vertex 6.6 78.6365 13.9168
    endloop
  endfacet
  facet normal 0.984808 3.85576e-17 0.173648
    outer loop
      vertex 7.41585 0 4.05944
      vertex 7.41585 5 4.05944
      vertex 7.25 5 5
    endloop
  endfacet
  facet normal 0.984808 3.85576e-17 0.173648
    outer loop
      vertex 7.25 0 5
      vertex 7.41585 0 4.05944
      vertex 7.25 5 5
    endloop
  endfacet
  facet normal 0.866025 1.11022e-16 0.5
    outer loop
      vertex 7.89338 0 3.23233
      vertex 7.89338 5 3.23233
      vertex 7.41585 5 4.05944
    endloop
  endfacet
  facet normal 0.866025 1.11022e-16 0.5
    outer loop
      vertex 7.41585 0 4.05944
      vertex 7.89338 0 3.23233
      vertex 7.41585 5 4.05944
    endloop
  endfacet
  facet normal 0.642788 1.70096e-16 0.766044
    outer loop
      vertex 8.625 0 2.61843
      vertex 8.625 5 2.61843
      vertex 7.89338 5 3.23233
    endloop
  endfacet
  facet normal 0.642788 1.70096e-16 0.766044
    outer loop
      vertex 7.89338 0 3.23233
      vertex 8.625 0 2.61843
      vertex 7.89338 5 3.23233
    endloop
  endfacet
  facet normal 0.34202 2.08654e-16 0.939693
    outer loop
      vertex 9.52247 0 2.29178
      vertex 9.52247 5 2.29178
      vertex 8.625 5 2.61843
    endloop
  endfacet
  facet normal 0.34202 2.08654e-16 0.939693
    outer loop
      vertex 8.625 0 2.61843
      vertex 9.52247 0 2.29178
      vertex 8.625 5 2.61843
    endloop
  endfacet
  facet normal 0 2.22045e-16 1
    outer loop
      vertex 10.4775 0 2.29178
      vertex 10.4775 5 2.29178
      vertex 9.52247 5 2.29178
    endloop
  endfacet
  facet normal 0 2.22045e-16 1
    outer loop
      vertex 9.52247 0 2.29178
      vertex 10.4775 0 2.29178
      vertex 9.52247 5 2.29178
    endloop
  endfacet
  facet normal -0.34202 2.08654e-16 0.939693
    outer loop
      vertex 11.375 0 2.61843
      vertex 11.375 5 2.61843
      vertex 10.4775 5 2.29178
    endloop
  endfacet
  facet normal -0.34202 2.08654e-16 0.939693
    outer loop
      vertex 10.4775 0 2.29178
      vertex 11.375 0 2.61843
      vertex 10.4775 5 2.29178
    endloop
  endfacet
  facet normal -0.642788 1.70096e-16 0.766044
    outer loop
      vertex 12.1066 0 3.23233
      vertex 12.1066 5 3.23233
      vertex 11.375 5 2.61843
    endloop
  endfacet
  facet normal -0.642788 1.70096e-16 0.766044
    outer loop
      vertex 11.375 0 2.61843
      vertex 12.1066 0 3.23233
      vertex 11.375 5 2.61843
    endloop
  endfacet
  facet normal -0.866025 1.11022e-16 0.5
    outer loop
      vertex 12.5842 5 4.05944
      vertex 12.1066 5 3.23233
      vertex 12.5842 0 4.05944
    endloop
  endfacet
  facet normal -0.866025 1.11022e-16 0.5
    outer loop
      vertex 12.5842 0 4.05944
      vertex 12.1066 5 3.23233
      vertex 12.1066 0 3.23233
    endloop
  endfacet
  facet normal -0.984808 3.85576e-17 0.173648
    outer loop
      vertex 12.75 5 5
      vertex 12.5842 5 4.05944
      vertex 12.75 0 5
    endloop
  endfacet
  facet normal -0.984808 3.85576e-17 0.173648
    outer loop
      vertex 12.75 0 5
      vertex 12.5842 5 4.05944
      vertex 12.5842 0 4.05944
    endloop
  endfacet
  facet normal -0.984808 -3.85576e-17 -0.173648
    outer loop
      vertex 12.75 5 5
      vertex 12.75 0 5
      vertex 12.5842 5 5.94055
    endloop
  endfacet
  facet normal -0.984808 -3.85576e-17 -0.173648
    outer loop
      vertex 12.5842 5 5.94055
      vertex 12.75 0 5
      vertex 12.5842 0 5.94055
    endloop
  endfacet
  facet normal -0.866025 -1.11022e-16 -0.5
    outer loop
      vertex 12.5842 5 5.94055
      vertex 12.5842 0 5.94055
      vertex 12.1066 5 6.76767
    endloop
  endfacet
  facet normal -0.866025 -1.11022e-16 -0.5
    outer loop
      vertex 12.1066 5 6.76767
      vertex 12.5842 0 5.94055
      vertex 12.1066 0 6.76767
    endloop
  endfacet
  facet normal -0.642788 -1.70096e-16 -0.766044
    outer loop
      vertex 12.1066 5 6.76767
      vertex 12.1066 0 6.76767
      vertex 11.375 5 7.38157
    endloop
  endfacet
  facet normal -0.642788 -1.70096e-16 -0.766044
    outer loop
      vertex 11.375 5 7.38157
      vertex 12.1066 0 6.76767
      vertex 11.375 0 7.38157
    endloop
  endfacet
  facet normal -0.34202 -2.08654e-16 -0.939693
    outer loop
      vertex 11.375 5 7.38157
      vertex 11.375 0 7.38157
      vertex 10.4775 5 7.70822
    endloop
  endfacet
  facet normal -0.34202 -2.08654e-16 -0.939693
    outer loop
      vertex 10.4775 5 7.70822
      vertex 11.375 0 7.38157
      vertex 10.4775 0 7.70822
    endloop
  endfacet
  facet normal 0 -2.22045e-16 -1
    outer loop
      vertex 10.4775 5 7.70822
      vertex 10.4775 0 7.70822
      vertex 9.52247 5 7.70822
    endloop
  endfacet
  facet normal 0 -2.22045e-16 -1
    outer loop
      vertex 9.52247 5 7.70822
      vertex 10.4775 0 7.70822
      vertex 9.52247 0 7.70822
    endloop
  endfacet
  facet normal 0.34202 -2.08654e-16 -0.939693
    outer loop
      vertex 9.52247 5 7.70822
      vertex 9.52247 0 7.70822
      vertex 8.625 5 7.38157
    endloop
  endfacet
  facet normal 0.34202 -2.08654e-16 -0.939693
    outer loop
      vertex 8.625 5 7.38157
      vertex 9.52247 0 7.70822
      vertex 8.625 0 7.38157
    endloop
  endfacet
  facet normal 0.642788 -1.70096e-16 -0.766044
    outer loop
      vertex 8.625 5 7.38157
      vertex 8.625 0 7.38157
      vertex 7.89338 5 6.76767
    endloop
  endfacet
  facet normal 0.642788 -1.70096e-16 -0.766044
    outer loop
      vertex 7.89338 5 6.76767
      vertex 8.625 0 7.38157
      vertex 7.89338 0 6.76767
    endloop
  endfacet
  facet normal 0.866025 -1.11022e-16 -0.5
    outer loop
      vertex 7.41585 5 5.94055
      vertex 7.89338 5 6.76767
      vertex 7.89338 0 6.76767
    endloop
  endfacet
  facet normal 0.866025 -1.11022e-16 -0.5
    outer loop
      vertex 7.41585 0 5.94055
      vertex 7.41585 5 5.94055
      vertex 7.89338 0 6.76767
    endloop
  endfacet
  facet normal 0.984808 -3.85576e-17 -0.173648
    outer loop
      vertex 7.25 5 5
      vertex 7.41585 5 5.94055
      vertex 7.41585 0 5.94055
    endloop
  endfacet
  facet normal 0.984808 -3.85576e-17 -0.173648
    outer loop
      vertex 7.25 0 5
      vertex 7.25 5 5
      vertex 7.41585 0 5.94055
    endloop
  endfacet
  facet normal 0.984808 3.85576e-17 0.173648
    outer loop
      vertex 47.4158 0 4.05944
      vertex 47.4158 5 4.05944
      vertex 47.25 5 5
    endloop
  endfacet
  facet normal 0.984808 3.85576e-17 0.173648
    outer loop
      vertex 47.25 0 5
      vertex 47.4158 0 4.05944
      vertex 47.25 5 5
    endloop
  endfacet
  facet normal 0.866025 1.11022e-16 0.5
    outer loop
      vertex 47.8934 0 3.23233
      vertex 47.8934 5 3.23233
      vertex 47.4158 5 4.05944
    endloop
  endfacet
  facet normal 0.866025 1.11022e-16 0.5
    outer loop
      vertex 47.4158 0 4.05944
      vertex 47.8934 0 3.23233
      vertex 47.4158 5 4.05944
    endloop
  endfacet
  facet normal 0.642788 1.70096e-16 0.766044
    outer loop
      vertex 48.625 0 2.61843
      vertex 48.625 5 2.61843
      vertex 47.8934 5 3.23233
    endloop
  endfacet
  facet normal 0.642788 1.70096e-16 0.766044
    outer loop
      vertex 47.8934 0 3.23233
      vertex 48.625 0 2.61843
      vertex 47.8934 5 3.23233
    endloop
  endfacet
  facet normal 0.34202 2.08654e-16 0.939693
    outer loop
      vertex 49.5225 0 2.29178
      vertex 49.5225 5 2.29178
      vertex 48.625 5 2.61843
    endloop
  endfacet
  facet normal 0.34202 2.08654e-16 0.939693
    outer loop
      vertex 48.625 0 2.61843
      vertex 49.5225 0 2.29178
      vertex 48.625 5 2.61843
    endloop
  endfacet
  facet normal 0 2.22045e-16 1
    outer loop
      vertex 50.4775 0 2.29178
      vertex 50.4775 5 2.29178
      vertex 49.5225 5 2.29178
    endloop
  endfacet
  facet normal 0 2.22045e-16 1
    outer loop
      vertex 49.5225 0 2.29178
      vertex 50.4775 0 2.29178
      vertex 49.5225 5 2.29178
    endloop
  endfacet
  facet normal -0.34202 2.08654e-16 0.939693
    outer loop
      vertex 51.375 0 2.61843
      vertex 51.375 5 2.61843
      vertex 50.4775 5 2.29178
    endloop
  endfacet
  facet normal -0.34202 2.08654e-16 0.939693
    outer loop
      vertex 50.4775 0 2.29178
      vertex 51.375 0 2.61843
      vertex 50.4775 5 2.29178
    endloop
  endfacet
  facet normal -0.642788 1.70096e-16 0.766044
    outer loop
      vertex 52.1066 0 3.23233
      vertex 52.1066 5 3.23233
      vertex 51.375 5 2.61843
    endloop
  endfacet
  facet normal -0.642788 1.70096e-16 0.766044
    outer loop
      vertex 51.375 0 2.61843
      vertex 52.1066 0 3.23233
      vertex 51.375 5 2.61843
    endloop
  endfacet
  facet normal -0.866025 1.11022e-16 0.5
    outer loop
      vertex 52.5842 5 4.05944
      vertex 52.1066 5 3.23233
      vertex 52.5842 0 4.05944
    endloop
  endfacet
  facet normal -0.866025 1.11022e-16 0.5
    outer loop
      vertex 52.5842 0 4.05944
      vertex 52.1066 5 3.23233
      vertex 52.1066 0 3.23233
    endloop
  endfacet
  facet normal -0.984808 3.85576e-17 0.173648
    outer loop
      vertex 52.75 5 5
      vertex 52.5842 5 4.05944
      vertex 52.75 0 5
    endloop
  endfacet
  facet normal -0.984808 3.85576e-17 0.173648
    outer loop
      vertex 52.75 0 5
      vertex 52.5842 5 4.05944
      vertex 52.5842 0 4.05944
    endloop
  endfacet
  facet normal -0.984808 -3.85576e-17 -0.173648
    outer loop
      vertex 52.75 5 5
      vertex 52.75 0 5
      vertex 52.5842 5 5.94055
    endloop
  endfacet
  facet normal -0.984808 -3.85576e-17 -0.173648
    outer loop
      vertex 52.5842 5 5.94055
      vertex 52.75 0 5
      vertex 52.5842 0 5.94055
    endloop
  endfacet
  facet normal -0.866025 -1.11022e-16 -0.5
    outer loop
      vertex 52.5842 5 5.94055
      vertex 52.5842 0 5.94055
      vertex 52.1066 5 6.76767
    endloop
  endfacet
  facet normal -0.866025 -1.11022e-16 -0.5
    outer loop
      vertex 52.1066 5 6.76767
      vertex 52.5842 0 5.94055
      vertex 52.1066 0 6.76767
    endloop
  endfacet
  facet normal -0.642788 -1.70096e-16 -0.766044
    outer loop
      vertex 52.1066 5 6.76767
      vertex 52.1066 0 6.76767
      vertex 51.375 5 7.38157
    endloop
  endfacet
  facet normal -0.642788 -1.70096e-16 -0.766044
    outer loop
      vertex 51.375 5 7.38157
      vertex 52.1066 0 6.76767
      vertex 51.375 0 7.38157
    endloop
  endfacet
  facet normal -0.34202 -2.08654e-16 -0.939693
    outer loop
      vertex 51.375 5 7.38157
      vertex 51.375 0 7.38157
      vertex 50.4775 5 7.70822
    endloop
  endfacet
  facet normal -0.34202 -2.08654e-16 -0.939693
    outer loop
      vertex 50.4775 5 7.70822
      vertex 51.375 0 7.38157
      vertex 50.4775 0 7.70822
    endloop
  endfacet
  facet normal 0 -2.22045e-16 -1
    outer loop
      vertex 50.4775 5 7.70822
      vertex 50.4775 0 7.70822
      vertex 49.5225 5 7.70822
    endloop
  endfacet
  facet normal 0 -2.22045e-16 -1
    outer loop
      vertex 49.5225 5 7.70822
      vertex 50.4775 0 7.70822
      vertex 49.5225 0 7.70822
    endloop
  endfacet
  facet normal 0.34202 -2.08654e-16 -0.939693
    outer loop
      vertex 49.5225 5 7.70822
      vertex 49.5225 0 7.70822
      vertex 48.625 5 7.38157
    endloop
  endfacet
  facet normal 0.34202 -2.08654e-16 -0.939693
    outer loop
      vertex 48.625 5 7.38157
      vertex 49.5225 0 7.70822
      vertex 48.625 0 7.38157
    endloop
  endfacet
  facet normal 0.642788 -1.70096e-16 -0.766044
    outer loop
      vertex 48.625 5 7.38157
      vertex 48.625 0 7.38157
      vertex 47.8934 5 6.76767
    endloop
  endfacet
  facet normal 0.642788 -1.70096e-16 -0.766044
    outer loop
      vertex 47.8934 5 6.76767
      vertex 48.625 0 7.38157
      vertex 47.8934 0 6.76767
    endloop
  endfacet
  facet normal 0.866025 -1.11022e-16 -0.5
    outer loop
      vertex 47.4158 5 5.94055
      vertex 47.8934 5 6.76767
      vertex 47.8934 0 6.76767
    endloop
  endfacet
  facet normal 0.866025 -1.11022e-16 -0.5
    outer loop
      vertex 47.4158 0 5.94055
      vertex 47.4158 5 5.94055
      vertex 47.8934 0 6.76767
    endloop
  endfacet
  facet normal 0.984808 -3.85576e-17 -0.173648
    outer loop
      vertex 47.25 5 5
      vertex 47.4158 5 5.94055
      vertex 47.4158 0 5.94055
    endloop
  endfacet
  facet normal 0.984808 -3.85576e-17 -0.173648
    outer loop
      vertex 47.25 0 5
      vertex 47.25 5 5
      vertex 47.4158 0 5.94055
    endloop
  endfacet
  facet normal 1 0 2.22045e-16
    outer loop
      vertex 6.6 14.8208 15.7553
      vertex 6.6 14 15.9
      vertex 6.6 13.1792 15.7553
    endloop
  endfacet
  facet normal 1 0 2.22045e-16
    outer loop
      vertex 6.6 11.9215 14.7
      vertex 6.6 14.8208 15.7553
      vertex 6.6 12.4573 15.3385
    endloop
  endfacet
  facet normal 1 0 2.22045e-16
    outer loop
      vertex 6.6 12.4573 15.3385
      vertex 6.6 14.8208 15.7553
      vertex 6.6 13.1792 15.7553
    endloop
  endfacet
  facet normal 1 0 2.22045e-16
    outer loop
      vertex 6.6 13.4528 15.0035
      vertex 6.6 14.8208 15.7553
      vertex 6.6 11.9215 14.7
    endloop
  endfacet
  facet normal 1 0 2.22045e-16
    outer loop
      vertex 6.6 14.5472 15.0035
      vertex 6.6 15.0285 14.7257
      vertex 6.6 14.8208 15.7553
    endloop
  endfacet
  facet normal 1 0 2.22045e-16
    outer loop
      vertex 6.6 12.4243 13.2222
      vertex 6.6 12.4243 13.7778
      vertex 6.6 11.6365 13.0832
    endloop
  endfacet
  facet normal 1 0 2.22045e-16
    outer loop
      vertex 6.6 15.5757 13.7778
      vertex 6.6 15.5757 13.2222
      vertex 6.6 16.0785 12.3
    endloop
  endfacet
  facet normal 1 0 2.22045e-16
    outer loop
      vertex 6.6 15.3856 12.7
      vertex 6.6 15.0285 12.2743
      vertex 6.6 15.5427 11.6615
    endloop
  endfacet
  facet normal 1 0 2.22045e-16
    outer loop
      vertex 6.6 16.3635 13.9168
      vertex 6.6 14.8208 15.7553
      vertex 6.6 16.3635 13.0832
    endloop
  endfacet
  facet normal 1 0 2.22045e-16
    outer loop
      vertex 6.6 16.0785 14.7
      vertex 6.6 14.8208 15.7553
      vertex 6.6 16.3635 13.9168
    endloop
  endfacet
  facet normal 1 0 2.22045e-16
    outer loop
      vertex 6.6 15.5427 15.3385
      vertex 6.6 14.8208 15.7553
      vertex 6.6 16.0785 14.7
    endloop
  endfacet
  facet normal 1 0 2.22045e-16
    outer loop
      vertex 6.6 12.9715 14.7257
      vertex 6.6 13.4528 15.0035
      vertex 6.6 11.9215 14.7
    endloop
  endfacet
  facet normal 1 0 2.22045e-16
    outer loop
      vertex 6.6 12.9715 12.2743
      vertex 6.6 12.6144 12.7
      vertex 6.6 12.4573 11.6615
    endloop
  endfacet
  facet normal 1 0 2.22045e-16
    outer loop
      vertex 6.6 15.0285 12.2743
      vertex 6.6 14.5472 11.9965
      vertex 6.6 14.8208 11.2447
    endloop
  endfacet
  facet normal 1 0 2.22045e-16
    outer loop
      vertex 6.6 14.5472 11.9965
      vertex 6.6 14 11.9
      vertex 6.6 14 11.1
    endloop
  endfacet
  facet normal 1 0 2.22045e-16
    outer loop
      vertex 6.6 16.3635 13.0832
      vertex 6.6 14.8208 15.7553
      vertex 6.6 15.3856 14.3
    endloop
  endfacet
  facet normal 1 0 2.22045e-16
    outer loop
      vertex 6.6 16.3635 13.0832
      vertex 6.6 15.5757 13.7778
      vertex 6.6 16.0785 12.3
    endloop
  endfacet
  facet normal 1 0 2.22045e-16
    outer loop
      vertex 6.6 16.3635 13.0832
      vertex 6.6 15.3856 14.3
      vertex 6.6 15.5757 13.7778
    endloop
  endfacet
  facet normal 1 0 2.22045e-16
    outer loop
      vertex 6.6 16.0785 12.3
      vertex 6.6 15.5757 13.2222
      vertex 6.6 15.5427 11.6615
    endloop
  endfacet
  facet normal 1 0 2.22045e-16
    outer loop
      vertex 6.6 15.5757 13.2222
      vertex 6.6 15.3856 12.7
      vertex 6.6 15.5427 11.6615
    endloop
  endfacet
  facet normal 1 0 2.22045e-16
    outer loop
      vertex 6.6 15.5427 11.6615
      vertex 6.6 15.0285 12.2743
      vertex 6.6 14.8208 11.2447
    endloop
  endfacet
  facet normal 1 0 2.22045e-16
    outer loop
      vertex 6.6 15.0285 14.7257
      vertex 6.6 15.3856 14.3
      vertex 6.6 14.8208 15.7553
    endloop
  endfacet
  facet normal 1 0 2.22045e-16
    outer loop
      vertex 6.6 14.8208 11.2447
      vertex 6.6 14.5472 11.9965
      vertex 6.6 14 11.1
    endloop
  endfacet
  facet normal 1 0 2.22045e-16
    outer loop
      vertex 6.6 14 11.1
      vertex 6.6 14 11.9
      vertex 6.6 13.1792 11.2447
    endloop
  endfacet
  facet normal 1 0 2.22045e-16
    outer loop
      vertex 6.6 13.1792 11.2447
      vertex 6.6 13.4528 11.9965
      vertex 6.6 12.4573 11.6615
    endloop
  endfacet
  facet normal 1 0 2.22045e-16
    outer loop
      vertex 6.6 13.4528 11.9965
      vertex 6.6 12.9715 12.2743
      vertex 6.6 12.4573 11.6615
    endloop
  endfacet
  facet normal 1 0 2.22045e-16
    outer loop
      vertex 6.6 12.4573 11.6615
      vertex 6.6 12.6144 12.7
      vertex 6.6 11.9215 12.3
    endloop
  endfacet
  facet normal 1 0 2.22045e-16
    outer loop
      vertex 6.6 14 11.9
      vertex 6.6 13.4528 11.9965
      vertex 6.6 13.1792 11.2447
    endloop
  endfacet
  facet normal 1 0 2.22045e-16
    outer loop
      vertex 6.6 11.9215 12.3
      vertex 6.6 12.4243 13.2222
      vertex 6.6 11.6365 13.0832
    endloop
  endfacet
  facet normal 1 0 2.22045e-16
    outer loop
      vertex 6.6 11.6365 13.0832
      vertex 6.6 12.4243 13.7778
      vertex 6.6 11.6365 13.9168
    endloop
  endfacet
  facet normal 1 0 2.22045e-16
    outer loop
      vertex 6.6 12.4243 13.7778
      vertex 6.6 12.6144 14.3
      vertex 6.6 11.6365 13.9168
    endloop
  endfacet
  facet normal 1 0 2.22045e-16
    outer loop
      vertex 6.6 11.6365 13.9168
      vertex 6.6 12.9715 14.7257
      vertex 6.6 11.9215 14.7
    endloop
  endfacet
  facet normal 1 0 2.22045e-16
    outer loop
      vertex 6.6 13.4528 15.0035
      vertex 6.6 14 15.1
      vertex 6.6 14.8208 15.7553
    endloop
  endfacet
  facet normal 1 0 2.22045e-16
    outer loop
      vertex 6.6 12.6144 12.7
      vertex 6.6 12.4243 13.2222
      vertex 6.6 11.9215 12.3
    endloop
  endfacet
  facet normal 1 0 2.22045e-16
    outer loop
      vertex 6.6 12.6144 14.3
      vertex 6.6 12.9715 14.7257
      vertex 6.6 11.6365 13.9168
    endloop
  endfacet
  facet normal 1 0 2.22045e-16
    outer loop
      vertex 6.6 14 15.1
      vertex 6.6 14.5472 15.0035
      vertex 6.6 14.8208 15.7553
    endloop
  endfacet
  facet normal 1 0 2.22045e-16
    outer loop
      vertex 6.6 81.8208 15.7553
      vertex 6.6 81 15.9
      vertex 6.6 80.1792 15.7553
    endloop
  endfacet
  facet normal 1 0 2.22045e-16
    outer loop
      vertex 6.6 78.9215 14.7
      vertex 6.6 81.8208 15.7553
      vertex 6.6 79.4573 15.3385
    endloop
  endfacet
  facet normal 1 0 2.22045e-16
    outer loop
      vertex 6.6 79.4573 15.3385
      vertex 6.6 81.8208 15.7553
      vertex 6.6 80.1792 15.7553
    endloop
  endfacet
  facet normal 1 0 2.22045e-16
    outer loop
      vertex 6.6 80.4528 15.0035
      vertex 6.6 81.8208 15.7553
      vertex 6.6 78.9215 14.7
    endloop
  endfacet
  facet normal 1 0 2.22045e-16
    outer loop
      vertex 6.6 81.5472 15.0035
      vertex 6.6 82.0285 14.7257
      vertex 6.6 81.8208 15.7553
    endloop
  endfacet
  facet normal 1 0 2.22045e-16
    outer loop
      vertex 6.6 79.4243 13.2222
      vertex 6.6 79.4243 13.7778
      vertex 6.6 78.6365 13.0832
    endloop
  endfacet
  facet normal 1 0 2.22045e-16
    outer loop
      vertex 6.6 82.5757 13.7778
      vertex 6.6 82.5757 13.2222
      vertex 6.6 83.0785 12.3
    endloop
  endfacet
  facet normal 1 0 2.22045e-16
    outer loop
      vertex 6.6 82.3856 12.7
      vertex 6.6 82.0285 12.2743
      vertex 6.6 82.5427 11.6615
    endloop
  endfacet
  facet normal 1 0 2.22045e-16
    outer loop
      vertex 6.6 83.3635 13.9168
      vertex 6.6 81.8208 15.7553
      vertex 6.6 83.3635 13.0832
    endloop
  endfacet
  facet normal 1 0 2.22045e-16
    outer loop
      vertex 6.6 83.0785 14.7
      vertex 6.6 81.8208 15.7553
      vertex 6.6 83.3635 13.9168
    endloop
  endfacet
  facet normal 1 0 2.22045e-16
    outer loop
      vertex 6.6 82.5427 15.3385
      vertex 6.6 81.8208 15.7553
      vertex 6.6 83.0785 14.7
    endloop
  endfacet
  facet normal 1 0 2.22045e-16
    outer loop
      vertex 6.6 79.9715 14.7257
      vertex 6.6 80.4528 15.0035
      vertex 6.6 78.9215 14.7
    endloop
  endfacet
  facet normal 1 0 2.22045e-16
    outer loop
      vertex 6.6 79.9715 12.2743
      vertex 6.6 79.6144 12.7
      vertex 6.6 79.4573 11.6615
    endloop
  endfacet
  facet normal 1 0 2.22045e-16
    outer loop
      vertex 6.6 82.0285 12.2743
      vertex 6.6 81.5472 11.9965
      vertex 6.6 81.8208 11.2447
    endloop
  endfacet
  facet normal 1 0 2.22045e-16
    outer loop
      vertex 6.6 81.5472 11.9965
      vertex 6.6 81 11.9
      vertex 6.6 81 11.1
    endloop
  endfacet
  facet normal 1 0 2.22045e-16
    outer loop
      vertex 6.6 83.3635 13.0832
      vertex 6.6 81.8208 15.7553
      vertex 6.6 82.3856 14.3
    endloop
  endfacet
  facet normal 1 0 2.22045e-16
    outer loop
      vertex 6.6 83.3635 13.0832
      vertex 6.6 82.5757 13.7778
      vertex 6.6 83.0785 12.3
    endloop
  endfacet
  facet normal 1 0 2.22045e-16
    outer loop
      vertex 6.6 83.3635 13.0832
      vertex 6.6 82.3856 14.3
      vertex 6.6 82.5757 13.7778
    endloop
  endfacet
  facet normal 1 0 2.22045e-16
    outer loop
      vertex 6.6 83.0785 12.3
      vertex 6.6 82.5757 13.2222
      vertex 6.6 82.5427 11.6615
    endloop
  endfacet
  facet normal 1 0 2.22045e-16
    outer loop
      vertex 6.6 82.5757 13.2222
      vertex 6.6 82.3856 12.7
      vertex 6.6 82.5427 11.6615
    endloop
  endfacet
  facet normal 1 0 2.22045e-16
    outer loop
      vertex 6.6 82.5427 11.6615
      vertex 6.6 82.0285 12.2743
      vertex 6.6 81.8208 11.2447
    endloop
  endfacet
  facet normal 1 0 2.22045e-16
    outer loop
      vertex 6.6 82.0285 14.7257
      vertex 6.6 82.3856 14.3
      vertex 6.6 81.8208 15.7553
    endloop
  endfacet
  facet normal 1 0 2.22045e-16
    outer loop
      vertex 6.6 81.8208 11.2447
      vertex 6.6 81.5472 11.9965
      vertex 6.6 81 11.1
    endloop
  endfacet
  facet normal 1 0 2.22045e-16
    outer loop
      vertex 6.6 81 11.1
      vertex 6.6 81 11.9
      vertex 6.6 80.1792 11.2447
    endloop
  endfacet
  facet normal 1 0 2.22045e-16
    outer loop
      vertex 6.6 80.1792 11.2447
      vertex 6.6 80.4528 11.9965
      vertex 6.6 79.4573 11.6615
    endloop
  endfacet
  facet normal 1 0 2.22045e-16
    outer loop
      vertex 6.6 80.4528 11.9965
      vertex 6.6 79.9715 12.2743
      vertex 6.6 79.4573 11.6615
    endloop
  endfacet
  facet normal 1 0 2.22045e-16
    outer loop
      vertex 6.6 79.4573 11.6615
      vertex 6.6 79.6144 12.7
      vertex 6.6 78.9215 12.3
    endloop
  endfacet
  facet normal 1 0 2.22045e-16
    outer loop
      vertex 6.6 81 11.9
      vertex 6.6 80.4528 11.9965
      vertex 6.6 80.1792 11.2447
    endloop
  endfacet
  facet normal 1 0 2.22045e-16
    outer loop
      vertex 6.6 78.9215 12.3
      vertex 6.6 79.4243 13.2222
      vertex 6.6 78.6365 13.0832
    endloop
  endfacet
  facet normal 1 0 2.22045e-16
    outer loop
      vertex 6.6 78.6365 13.0832
      vertex 6.6 79.4243 13.7778
      vertex 6.6 78.6365 13.9168
    endloop
  endfacet
  facet normal 1 0 2.22045e-16
    outer loop
      vertex 6.6 79.4243 13.7778
      vertex 6.6 79.6144 14.3
      vertex 6.6 78.6365 13.9168
    endloop
  endfacet
  facet normal 1 0 2.22045e-16
    outer loop
      vertex 6.6 78.6365 13.9168
      vertex 6.6 79.9715 14.7257
      vertex 6.6 78.9215 14.7
    endloop
  endfacet
  facet normal 1 0 2.22045e-16
    outer loop
      vertex 6.6 80.4528 15.0035
      vertex 6.6 81 15.1
      vertex 6.6 81.8208 15.7553
    endloop
  endfacet
  facet normal 1 0 2.22045e-16
    outer loop
      vertex 6.6 79.6144 12.7
      vertex 6.6 79.4243 13.2222
      vertex 6.6 78.9215 12.3
    endloop
  endfacet
  facet normal 1 0 2.22045e-16
    outer loop
      vertex 6.6 79.6144 14.3
      vertex 6.6 79.9715 14.7257
      vertex 6.6 78.6365 13.9168
    endloop
  endfacet
  facet normal 1 0 2.22045e-16
    outer loop
      vertex 6.6 81 15.1
      vertex 6.6 81.5472 15.0035
      vertex 6.6 81.8208 15.7553
    endloop
  endfacet
endsolid OpenSCAD_Model
