solid OpenSCAD_Model
  facet normal 0 0 1
    outer loop
      vertex -8 1.73205 10
      vertex -8 -1.73205 10
      vertex -5.24722 -6.5 10
    endloop
  endfacet
  facet normal 0 0 1
    outer loop
      vertex -4.19825 -8.31687 10
      vertex -8 1.73205 10
      vertex -5 -6.5 10
    endloop
  endfacet
  facet normal 0 0 1
    outer loop
      vertex -5 -6.5 10
      vertex -8 1.73205 10
      vertex -5.24722 -6.5 10
    endloop
  endfacet
  facet normal 0 0 1
    outer loop
      vertex -4.19825 -8.31687 10
      vertex -5 -6.5 10
      vertex -5.24722 -6.5 10
    endloop
  endfacet
  facet normal 0 0 1
    outer loop
      vertex -5.53009 -2.01279 10
      vertex -8 1.73205 10
      vertex -4.19825 -8.31687 10
    endloop
  endfacet
  facet normal 0 0 1
    outer loop
      vertex -5.18279 2.61432 10
      vertex -4.50817 3.7828 10
      vertex -8 1.73205 10
    endloop
  endfacet
  facet normal 0 0 1
    outer loop
      vertex -4.19825 8.31687 10
      vertex -5.24722 6.5 10
      vertex 8 8.31687 10
    endloop
  endfacet
  facet normal 0 0 1
    outer loop
      vertex -5.24722 6.5 10
      vertex -5 6.5 10
      vertex 8 8.31687 10
    endloop
  endfacet
  facet normal 0 0 1
    outer loop
      vertex -4.85547 -3.18127 10
      vertex -5.53009 -2.01279 10
      vertex -4.19825 -8.31687 10
    endloop
  endfacet
  facet normal 0 0 1
    outer loop
      vertex 2.9425 -5.09656 10
      vertex 2.2898 -5.33412 10
      vertex 8 -8.31687 10
    endloop
  endfacet
  facet normal 0 0 1
    outer loop
      vertex -5.53009 2.01279 10
      vertex -8 1.73205 10
      vertex -5.76438 0.68404 10
    endloop
  endfacet
  facet normal 0 0 1
    outer loop
      vertex -5.18279 2.61432 10
      vertex -8 1.73205 10
      vertex -5.53009 2.01279 10
    endloop
  endfacet
  facet normal 0 0 1
    outer loop
      vertex 1.67462 5.55803 10
      vertex 2.9425 5.09656 10
      vertex 8 8.31687 10
    endloop
  endfacet
  facet normal 0 0 1
    outer loop
      vertex -5 6.5 10
      vertex -8 1.73205 10
      vertex -4.50817 3.7828 10
    endloop
  endfacet
  facet normal 0 0 1
    outer loop
      vertex -5 6.5 10
      vertex -4.50817 3.7828 10
      vertex -3.97608 4.22928 10
    endloop
  endfacet
  facet normal 0 0 1
    outer loop
      vertex 1.02192 5.79559 10
      vertex 1.67462 5.55803 10
      vertex 8 8.31687 10
    endloop
  endfacet
  facet normal 0 0 1
    outer loop
      vertex -5 6.5 10
      vertex -3.97608 4.22928 10
      vertex -2.9425 5.09656 10
    endloop
  endfacet
  facet normal 0 0 1
    outer loop
      vertex -5 6.5 10
      vertex -2.9425 5.09656 10
      vertex -2.2898 5.33412 10
    endloop
  endfacet
  facet normal 0 0 1
    outer loop
      vertex -5 6.5 10
      vertex -1.02192 5.79559 10
      vertex 8 8.31687 10
    endloop
  endfacet
  facet normal 0 0 1
    outer loop
      vertex -5 6.5 10
      vertex -2.2898 5.33412 10
      vertex -1.02192 5.79559 10
    endloop
  endfacet
  facet normal 0 0 1
    outer loop
      vertex 5.885 0 10
      vertex 5.76438 -0.68404 10
      vertex 8 -8.31687 10
    endloop
  endfacet
  facet normal 0 0 1
    outer loop
      vertex 3.97608 -4.22928 10
      vertex 2.9425 -5.09656 10
      vertex 8 -8.31687 10
    endloop
  endfacet
  facet normal 0 0 1
    outer loop
      vertex 8 8.31687 10
      vertex 2.9425 5.09656 10
      vertex 3.47459 4.65008 10
    endloop
  endfacet
  facet normal 0 0 1
    outer loop
      vertex 8 8.31687 10
      vertex 3.47459 4.65008 10
      vertex 4.50817 3.7828 10
    endloop
  endfacet
  facet normal 0 0 1
    outer loop
      vertex 5.76438 -0.68404 10
      vertex 5.53009 -2.01279 10
      vertex 8 -8.31687 10
    endloop
  endfacet
  facet normal 0 0 1
    outer loop
      vertex 8 8.31687 10
      vertex 4.50817 3.7828 10
      vertex 4.85547 3.18127 10
    endloop
  endfacet
  facet normal 0 0 1
    outer loop
      vertex 8 8.31687 10
      vertex 5.53009 2.01279 10
      vertex 8 -8.31687 10
    endloop
  endfacet
  facet normal 0 0 1
    outer loop
      vertex 8 8.31687 10
      vertex 4.85547 3.18127 10
      vertex 5.53009 2.01279 10
    endloop
  endfacet
  facet normal 0 0 1
    outer loop
      vertex 5.53009 2.01279 10
      vertex 5.65071 1.32875 10
      vertex 8 -8.31687 10
    endloop
  endfacet
  facet normal 0 0 1
    outer loop
      vertex 5.65071 1.32875 10
      vertex 5.885 0 10
      vertex 8 -8.31687 10
    endloop
  endfacet
  facet normal 0 0 1
    outer loop
      vertex 5.53009 -2.01279 10
      vertex 5.18279 -2.61432 10
      vertex 8 -8.31687 10
    endloop
  endfacet
  facet normal 0 0 1
    outer loop
      vertex 5.18279 -2.61432 10
      vertex 4.50817 -3.7828 10
      vertex 8 -8.31687 10
    endloop
  endfacet
  facet normal 0 0 1
    outer loop
      vertex 4.50817 -3.7828 10
      vertex 3.97608 -4.22928 10
      vertex 8 -8.31687 10
    endloop
  endfacet
  facet normal 0 0 1
    outer loop
      vertex 8 -8.31687 10
      vertex 2.2898 -5.33412 10
      vertex -4.19825 -8.31687 10
    endloop
  endfacet
  facet normal 0 0 1
    outer loop
      vertex 2.2898 -5.33412 10
      vertex 1.02192 -5.79559 10
      vertex -4.19825 -8.31687 10
    endloop
  endfacet
  facet normal 0 0 1
    outer loop
      vertex 1.02192 -5.79559 10
      vertex -1.02192 -5.79559 10
      vertex -4.19825 -8.31687 10
    endloop
  endfacet
  facet normal 0 0 1
    outer loop
      vertex -1.02192 -5.79559 10
      vertex -1.67462 -5.55803 10
      vertex -4.19825 -8.31687 10
    endloop
  endfacet
  facet normal 0 0 1
    outer loop
      vertex -1.67462 -5.55803 10
      vertex -2.9425 -5.09656 10
      vertex -4.19825 -8.31687 10
    endloop
  endfacet
  facet normal 0 0 1
    outer loop
      vertex -2.9425 -5.09656 10
      vertex -3.47459 -4.65008 10
      vertex -4.19825 -8.31687 10
    endloop
  endfacet
  facet normal 0 0 1
    outer loop
      vertex -3.47459 -4.65008 10
      vertex -4.50817 -3.7828 10
      vertex -4.19825 -8.31687 10
    endloop
  endfacet
  facet normal 0 0 1
    outer loop
      vertex -4.50817 -3.7828 10
      vertex -4.85547 -3.18127 10
      vertex -4.19825 -8.31687 10
    endloop
  endfacet
  facet normal 0 0 1
    outer loop
      vertex -5.65071 -1.32875 10
      vertex -8 1.73205 10
      vertex -5.53009 -2.01279 10
    endloop
  endfacet
  facet normal 0 0 1
    outer loop
      vertex -5.885 0 10
      vertex -8 1.73205 10
      vertex -5.65071 -1.32875 10
    endloop
  endfacet
  facet normal 0 0 1
    outer loop
      vertex -5 6.5 10
      vertex -5.24722 6.5 10
      vertex -8 1.73205 10
    endloop
  endfacet
  facet normal 0 0 1
    outer loop
      vertex -5.885 0 10
      vertex -5.76438 0.68404 10
      vertex -8 1.73205 10
    endloop
  endfacet
  facet normal 0 0 1
    outer loop
      vertex -1.02192 5.79559 10
      vertex 1.02192 5.79559 10
      vertex 8 8.31687 10
    endloop
  endfacet
  facet normal -0.866025 -0.5 0
    outer loop
      vertex -8 -1.73205 10
      vertex -8 -1.73205 6.29709
      vertex -7.74722 -2.16987 7.5
    endloop
  endfacet
  facet normal -0.866025 -0.5 0
    outer loop
      vertex -8 -1.73205 10
      vertex -7.74722 -2.16987 7.5
      vertex -7.10279 -3.28606 8.83022
    endloop
  endfacet
  facet normal -0.866025 -0.5 0
    outer loop
      vertex -8 -1.73205 10
      vertex -7.10279 -3.28606 8.83022
      vertex -6.23455 -4.7899 9.69846
    endloop
  endfacet
  facet normal -0.866025 -0.5 0
    outer loop
      vertex -8 -1.73205 10
      vertex -6.23455 -4.7899 9.69846
      vertex -5.24722 -6.5 10
    endloop
  endfacet
  facet normal -1 0 -2.22045e-16
    outer loop
      vertex -8 -1.73205 10
      vertex -8 1.73205 10
      vertex -8 -1.73205 6.29709
    endloop
  endfacet
  facet normal -1 0 -2.22045e-16
    outer loop
      vertex -8 -1.73205 6.29709
      vertex -8 1.73205 10
      vertex -8 1.73205 6.29709
    endloop
  endfacet
  facet normal -1 0 -2.22045e-16
    outer loop
      vertex -8 -1.73205 6.29709
      vertex -8 1.73205 6.29709
      vertex -8 1.57596 5.86824
    endloop
  endfacet
  facet normal -1 0 -2.22045e-16
    outer loop
      vertex -8 -1.73205 6.29709
      vertex -8 1.57596 5.86824
      vertex -8 1.57596 4.13176
    endloop
  endfacet
  facet normal -1 0 -2.22045e-16
    outer loop
      vertex -8 1.57596 4.13176
      vertex -8 1.73205 3.70291
      vertex -8 -1.73205 6.29709
    endloop
  endfacet
  facet normal -1 0 -2.22045e-16
    outer loop
      vertex -8 -1.73205 6.29709
      vertex -8 1.73205 3.70291
      vertex -8 1.73205 0
    endloop
  endfacet
  facet normal -1 0 -2.22045e-16
    outer loop
      vertex -8 -1.73205 3.70291
      vertex -8 1.73205 0
      vertex -8 -1.73205 0
    endloop
  endfacet
  facet normal -1 0 -2.22045e-16
    outer loop
      vertex -8 -1.57596 4.13176
      vertex -8 1.73205 0
      vertex -8 -1.73205 3.70291
    endloop
  endfacet
  facet normal -1 0 -2.22045e-16
    outer loop
      vertex -8 -1.57596 5.86824
      vertex -8 1.73205 0
      vertex -8 -1.57596 4.13176
    endloop
  endfacet
  facet normal -1 0 -2.22045e-16
    outer loop
      vertex -8 -1.73205 6.29709
      vertex -8 1.73205 0
      vertex -8 -1.57596 5.86824
    endloop
  endfacet
  facet normal -0.866025 0.5 0
    outer loop
      vertex -8 1.73205 10
      vertex -5.24722 6.5 10
      vertex -6.23455 4.7899 9.69846
    endloop
  endfacet
  facet normal -0.866025 0.5 0
    outer loop
      vertex -8 1.73205 10
      vertex -6.23455 4.7899 9.69846
      vertex -7.10279 3.28606 8.83022
    endloop
  endfacet
  facet normal -0.866025 0.5 0
    outer loop
      vertex -8 1.73205 10
      vertex -7.10279 3.28606 8.83022
      vertex -7.74722 2.16987 7.5
    endloop
  endfacet
  facet normal -0.866025 0.5 0
    outer loop
      vertex -8 1.73205 10
      vertex -7.74722 2.16987 7.5
      vertex -8 1.73205 6.29709
    endloop
  endfacet
  facet normal 2.18671e-16 0.173648 -0.984808
    outer loop
      vertex -5 6.5 10
      vertex -5 4.7899 9.69846
      vertex -5.24722 6.5 10
    endloop
  endfacet
  facet normal 2.18671e-16 0.173648 -0.984808
    outer loop
      vertex -5.24722 6.5 10
      vertex -5 4.7899 9.69846
      vertex -6.23455 4.7899 9.69846
    endloop
  endfacet
  facet normal -1 0 -2.22045e-16
    outer loop
      vertex -5 6.9282 9.9245
      vertex -5 6.9282 7.6745
      vertex -5 6.5 10
    endloop
  endfacet
  facet normal -1 0 -2.22045e-16
    outer loop
      vertex -5 6.5 10
      vertex -5 6.9282 7.6745
      vertex -5 6.5 7.75
    endloop
  endfacet
  facet normal -1 0 -2.22045e-16
    outer loop
      vertex -5 6.5 10
      vertex -5 6.5 7.75
      vertex -5 5.55944 7.58416
    endloop
  endfacet
  facet normal -1 0 -2.22045e-16
    outer loop
      vertex -5 5.55944 7.58416
      vertex -5 4.73233 7.10662
      vertex -5 6.5 10
    endloop
  endfacet
  facet normal -1 0 -2.22045e-16
    outer loop
      vertex -5 4.73233 7.10662
      vertex -5 4.11843 6.375
      vertex -5 6.5 10
    endloop
  endfacet
  facet normal -1 0 -2.22045e-16
    outer loop
      vertex -5 4.73233 2.89338
      vertex -5 6.9282 0.0755038
      vertex -5 4.11843 3.625
    endloop
  endfacet
  facet normal -1 0 -2.22045e-16
    outer loop
      vertex -5 5.55944 2.41585
      vertex -5 6.9282 0.0755038
      vertex -5 4.73233 2.89338
    endloop
  endfacet
  facet normal -1 0 -2.22045e-16
    outer loop
      vertex -5 6.5 2.25
      vertex -5 6.9282 2.3255
      vertex -5 6.9282 0.0755038
    endloop
  endfacet
  facet normal -1 0 -2.22045e-16
    outer loop
      vertex -5 6.5 2.25
      vertex -5 6.9282 0.0755038
      vertex -5 5.55944 2.41585
    endloop
  endfacet
  facet normal -1 0 -2.22045e-16
    outer loop
      vertex -5 4.11843 3.625
      vertex -5 6.9282 0.0755038
      vertex -5 6.5 1.77636e-15
    endloop
  endfacet
  facet normal -1 0 -2.22045e-16
    outer loop
      vertex -5 4.11843 3.625
      vertex -5 6.5 1.77636e-15
      vertex -5 4.7899 0.301537
    endloop
  endfacet
  facet normal -1 0 -2.22045e-16
    outer loop
      vertex -5 4.11843 3.625
      vertex -5 4.7899 0.301537
      vertex -5 3.79178 4.52247
    endloop
  endfacet
  facet normal -1 0 -2.22045e-16
    outer loop
      vertex -5 3.79178 4.52247
      vertex -5 4.7899 0.301537
      vertex -5 3.28606 1.16978
    endloop
  endfacet
  facet normal -1 0 -2.22045e-16
    outer loop
      vertex -5 3.79178 4.52247
      vertex -5 3.28606 1.16978
      vertex -5 3.79178 5.47753
    endloop
  endfacet
  facet normal -1 0 -2.22045e-16
    outer loop
      vertex -5 3.79178 5.47753
      vertex -5 3.28606 1.16978
      vertex -5 2.16987 2.5
    endloop
  endfacet
  facet normal -1 0 -2.22045e-16
    outer loop
      vertex -5 3.79178 5.47753
      vertex -5 2.16987 2.5
      vertex -5 4.11843 6.375
    endloop
  endfacet
  facet normal -1 0 -2.22045e-16
    outer loop
      vertex -5 4.11843 6.375
      vertex -5 2.16987 2.5
      vertex -5 1.57596 4.13176
    endloop
  endfacet
  facet normal -1 0 -2.22045e-16
    outer loop
      vertex -5 4.11843 6.375
      vertex -5 1.57596 4.13176
      vertex -5 6.5 10
    endloop
  endfacet
  facet normal -1 0 -2.22045e-16
    outer loop
      vertex -5 6.5 10
      vertex -5 1.57596 4.13176
      vertex -5 1.57596 5.86824
    endloop
  endfacet
  facet normal -1 0 -2.22045e-16
    outer loop
      vertex -5 6.5 10
      vertex -5 1.57596 5.86824
      vertex -5 2.16987 7.5
    endloop
  endfacet
  facet normal -1 0 -2.22045e-16
    outer loop
      vertex -5 6.5 10
      vertex -5 2.16987 7.5
      vertex -5 3.28606 8.83022
    endloop
  endfacet
  facet normal -1 0 -2.22045e-16
    outer loop
      vertex -5 6.5 10
      vertex -5 3.28606 8.83022
      vertex -5 4.7899 9.69846
    endloop
  endfacet
  facet normal 2.18671e-16 -0.173648 -0.984808
    outer loop
      vertex -5 6.9282 9.9245
      vertex -5 6.5 10
      vertex -5.24722 6.5 10
    endloop
  endfacet
  facet normal -0.866025 0.5 0
    outer loop
      vertex -8 1.73205 3.70291
      vertex -7.74722 2.16987 2.5
      vertex -8 1.73205 0
    endloop
  endfacet
  facet normal -0.866025 0.5 0
    outer loop
      vertex -8 1.73205 0
      vertex -7.74722 2.16987 2.5
      vertex -7.10279 3.28606 1.16978
    endloop
  endfacet
  facet normal -0.866025 0.5 0
    outer loop
      vertex -7.10279 3.28606 1.16978
      vertex -6.23455 4.7899 0.301537
      vertex -8 1.73205 0
    endloop
  endfacet
  facet normal -0.866025 0.5 0
    outer loop
      vertex -6.23455 4.7899 0.301537
      vertex -5.24722 6.5 1.72146e-15
      vertex -8 1.73205 0
    endloop
  endfacet
  facet normal -0.866025 0.5 0
    outer loop
      vertex -5.24722 6.5 1.72146e-15
      vertex -4.19825 8.31687 0
      vertex -8 1.73205 0
    endloop
  endfacet
  facet normal -0.866025 0.5 0
    outer loop
      vertex -5 6.9282 0.0755038
      vertex -5 6.9282 2.3255
      vertex -4.70419 7.44055 2.41585
    endloop
  endfacet
  facet normal -0.866025 0.5 0
    outer loop
      vertex -4.70419 7.44055 2.41585
      vertex -4.22666 8.26767 2.89338
      vertex -5 6.9282 0.0755038
    endloop
  endfacet
  facet normal -0.866025 0.5 0
    outer loop
      vertex -4.22666 8.26767 2.89338
      vertex -3.87222 8.88157 3.625
      vertex -5 6.9282 0.0755038
    endloop
  endfacet
  facet normal -0.866025 0.5 0
    outer loop
      vertex -3.87222 8.88157 3.625
      vertex -1.3115 13.3169 5
      vertex -5 6.9282 0.0755038
    endloop
  endfacet
  facet normal -0.866025 0.5 0
    outer loop
      vertex -3.68363 9.20822 4.52247
      vertex -1.3115 13.3169 5
      vertex -3.87222 8.88157 3.625
    endloop
  endfacet
  facet normal -0.866025 0.5 0
    outer loop
      vertex -3.87222 8.88157 6.375
      vertex -4.19825 8.31687 10
      vertex -3.68363 9.20822 5.47753
    endloop
  endfacet
  facet normal -0.866025 0.5 0
    outer loop
      vertex -4.22666 8.26767 7.10662
      vertex -5 6.9282 9.9245
      vertex -3.87222 8.88157 6.375
    endloop
  endfacet
  facet normal -0.866025 0.5 0
    outer loop
      vertex -4.70419 7.44055 7.58416
      vertex -5 6.9282 7.6745
      vertex -5 6.9282 9.9245
    endloop
  endfacet
  facet normal -0.866025 0.5 0
    outer loop
      vertex -4.70419 7.44055 7.58416
      vertex -5 6.9282 9.9245
      vertex -4.22666 8.26767 7.10662
    endloop
  endfacet
  facet normal -0.866025 0.5 0
    outer loop
      vertex -5 6.9282 9.9245
      vertex -5.24722 6.5 10
      vertex -4.19825 8.31687 10
    endloop
  endfacet
  facet normal -0.866025 0.5 0
    outer loop
      vertex -5 6.9282 9.9245
      vertex -4.19825 8.31687 10
      vertex -3.87222 8.88157 6.375
    endloop
  endfacet
  facet normal -0.866025 0.5 0
    outer loop
      vertex -3.68363 9.20822 5.47753
      vertex -4.19825 8.31687 10
      vertex -1.3115 13.3169 5
    endloop
  endfacet
  facet normal -0.866025 0.5 0
    outer loop
      vertex -3.68363 9.20822 5.47753
      vertex -1.3115 13.3169 5
      vertex -3.68363 9.20822 4.52247
    endloop
  endfacet
  facet normal -0.866025 0.5 0
    outer loop
      vertex -5 6.9282 0.0755038
      vertex -1.3115 13.3169 5
      vertex -4.19825 8.31687 0
    endloop
  endfacet
  facet normal -0.866025 0.5 0
    outer loop
      vertex -5 6.9282 0.0755038
      vertex -4.19825 8.31687 0
      vertex -5.24722 6.5 1.72146e-15
    endloop
  endfacet
  facet normal -1.57009e-16 0.707107 0.707107
    outer loop
      vertex -4.19825 8.31687 10
      vertex 8 8.31687 10
      vertex -1.3115 13.3169 5
    endloop
  endfacet
  facet normal -1.57009e-16 0.707107 0.707107
    outer loop
      vertex -1.3115 13.3169 5
      vertex 8 8.31687 10
      vertex 8 13.3169 5
    endloop
  endfacet
  facet normal 1 0 2.22045e-16
    outer loop
      vertex 8 -7.44055 7.58416
      vertex 8 -8.31687 10
      vertex 8 -13.3169 5
    endloop
  endfacet
  facet normal 1 0 2.22045e-16
    outer loop
      vertex 8 5.55944 7.58416
      vertex 8 8.31687 10
      vertex 8 -8.31687 0
    endloop
  endfacet
  facet normal 1 0 2.22045e-16
    outer loop
      vertex 8 -8.26767 7.10662
      vertex 8 -7.44055 7.58416
      vertex 8 -13.3169 5
    endloop
  endfacet
  facet normal 1 0 2.22045e-16
    outer loop
      vertex 8 -6.5 7.75
      vertex 8 -8.31687 10
      vertex 8 -7.44055 7.58416
    endloop
  endfacet
  facet normal 1 0 2.22045e-16
    outer loop
      vertex 8 -4.73233 7.10662
      vertex 8 -4.11843 6.375
      vertex 8 8.31687 10
    endloop
  endfacet
  facet normal 1 0 2.22045e-16
    outer loop
      vertex 8 8.31687 10
      vertex 8 -8.31687 10
      vertex 8 -6.5 7.75
    endloop
  endfacet
  facet normal 1 0 2.22045e-16
    outer loop
      vertex 8 8.26767 7.10662
      vertex 8 8.88157 6.375
      vertex 8 8.31687 10
    endloop
  endfacet
  facet normal 1 0 2.22045e-16
    outer loop
      vertex 8 -8.88157 6.375
      vertex 8 -8.26767 7.10662
      vertex 8 -13.3169 5
    endloop
  endfacet
  facet normal 1 0 2.22045e-16
    outer loop
      vertex 8 -4.73233 2.89338
      vertex 8 -5.55944 2.41585
      vertex 8 -8.31687 0
    endloop
  endfacet
  facet normal 1 0 2.22045e-16
    outer loop
      vertex 8 8.31687 10
      vertex 8 -5.55944 7.58416
      vertex 8 -4.73233 7.10662
    endloop
  endfacet
  facet normal 1 0 2.22045e-16
    outer loop
      vertex 8 8.88157 3.625
      vertex 8 8.26767 2.89338
      vertex 8 8.31687 0
    endloop
  endfacet
  facet normal 1 0 2.22045e-16
    outer loop
      vertex 8 -3.79178 5.47753
      vertex 8 8.31687 10
      vertex 8 -4.11843 6.375
    endloop
  endfacet
  facet normal 1 0 2.22045e-16
    outer loop
      vertex 8 -3.79178 4.52247
      vertex 8 8.31687 10
      vertex 8 -3.79178 5.47753
    endloop
  endfacet
  facet normal 1 0 2.22045e-16
    outer loop
      vertex 8 -6.5 2.25
      vertex 8 -7.44055 2.41585
      vertex 8 -8.31687 0
    endloop
  endfacet
  facet normal 1 0 2.22045e-16
    outer loop
      vertex 8 -4.11843 3.625
      vertex 8 8.31687 10
      vertex 8 -3.79178 4.52247
    endloop
  endfacet
  facet normal 1 0 2.22045e-16
    outer loop
      vertex 8 -4.73233 2.89338
      vertex 8 8.31687 10
      vertex 8 -4.11843 3.625
    endloop
  endfacet
  facet normal 1 0 2.22045e-16
    outer loop
      vertex 8 -8.31687 0
      vertex 8 8.31687 10
      vertex 8 -4.73233 2.89338
    endloop
  endfacet
  facet normal 1 0 2.22045e-16
    outer loop
      vertex 8 -9.20822 5.47753
      vertex 8 -8.88157 6.375
      vertex 8 -13.3169 5
    endloop
  endfacet
  facet normal 1 0 2.22045e-16
    outer loop
      vertex 8 -8.31687 0
      vertex 8 -7.44055 2.41585
      vertex 8 -13.3169 5
    endloop
  endfacet
  facet normal 1 0 2.22045e-16
    outer loop
      vertex 8 -7.44055 2.41585
      vertex 8 -8.26767 2.89338
      vertex 8 -13.3169 5
    endloop
  endfacet
  facet normal 1 0 2.22045e-16
    outer loop
      vertex 8 -8.26767 2.89338
      vertex 8 -8.88157 3.625
      vertex 8 -13.3169 5
    endloop
  endfacet
  facet normal 1 0 2.22045e-16
    outer loop
      vertex 8 -8.88157 3.625
      vertex 8 -9.20822 4.52247
      vertex 8 -13.3169 5
    endloop
  endfacet
  facet normal 1 0 2.22045e-16
    outer loop
      vertex 8 -9.20822 4.52247
      vertex 8 -9.20822 5.47753
      vertex 8 -13.3169 5
    endloop
  endfacet
  facet normal 1 0 2.22045e-16
    outer loop
      vertex 8 4.73233 7.10662
      vertex 8 5.55944 7.58416
      vertex 8 -8.31687 0
    endloop
  endfacet
  facet normal 1 0 2.22045e-16
    outer loop
      vertex 8 6.5 7.75
      vertex 8 8.31687 10
      vertex 8 5.55944 7.58416
    endloop
  endfacet
  facet normal 1 0 2.22045e-16
    outer loop
      vertex 8 7.44055 7.58416
      vertex 8 8.31687 10
      vertex 8 6.5 7.75
    endloop
  endfacet
  facet normal 1 0 2.22045e-16
    outer loop
      vertex 8 7.44055 2.41585
      vertex 8 6.5 2.25
      vertex 8 8.31687 0
    endloop
  endfacet
  facet normal 1 0 2.22045e-16
    outer loop
      vertex 8 8.26767 7.10662
      vertex 8 8.31687 10
      vertex 8 7.44055 7.58416
    endloop
  endfacet
  facet normal 1 0 2.22045e-16
    outer loop
      vertex 8 9.20822 4.52247
      vertex 8 8.88157 3.625
      vertex 8 8.31687 0
    endloop
  endfacet
  facet normal 1 0 2.22045e-16
    outer loop
      vertex 8 8.26767 2.89338
      vertex 8 7.44055 2.41585
      vertex 8 8.31687 0
    endloop
  endfacet
  facet normal 1 0 2.22045e-16
    outer loop
      vertex 8 13.3169 5
      vertex 8 8.31687 10
      vertex 8 8.88157 6.375
    endloop
  endfacet
  facet normal 1 0 2.22045e-16
    outer loop
      vertex 8 13.3169 5
      vertex 8 8.88157 6.375
      vertex 8 9.20822 5.47753
    endloop
  endfacet
  facet normal 1 0 2.22045e-16
    outer loop
      vertex 8 13.3169 5
      vertex 8 9.20822 4.52247
      vertex 8 8.31687 0
    endloop
  endfacet
  facet normal 1 0 2.22045e-16
    outer loop
      vertex 8 13.3169 5
      vertex 8 9.20822 5.47753
      vertex 8 9.20822 4.52247
    endloop
  endfacet
  facet normal 1 0 2.22045e-16
    outer loop
      vertex 8 8.31687 0
      vertex 8 6.5 2.25
      vertex 8 -8.31687 0
    endloop
  endfacet
  facet normal 1 0 2.22045e-16
    outer loop
      vertex 8 6.5 2.25
      vertex 8 5.55944 2.41585
      vertex 8 -8.31687 0
    endloop
  endfacet
  facet normal 1 0 2.22045e-16
    outer loop
      vertex 8 5.55944 2.41585
      vertex 8 4.73233 2.89338
      vertex 8 -8.31687 0
    endloop
  endfacet
  facet normal 1 0 2.22045e-16
    outer loop
      vertex 8 4.73233 2.89338
      vertex 8 4.11843 3.625
      vertex 8 -8.31687 0
    endloop
  endfacet
  facet normal 1 0 2.22045e-16
    outer loop
      vertex 8 4.11843 3.625
      vertex 8 3.79178 4.52247
      vertex 8 -8.31687 0
    endloop
  endfacet
  facet normal 1 0 2.22045e-16
    outer loop
      vertex 8 3.79178 4.52247
      vertex 8 3.79178 5.47753
      vertex 8 -8.31687 0
    endloop
  endfacet
  facet normal 1 0 2.22045e-16
    outer loop
      vertex 8 3.79178 5.47753
      vertex 8 4.11843 6.375
      vertex 8 -8.31687 0
    endloop
  endfacet
  facet normal 1 0 2.22045e-16
    outer loop
      vertex 8 4.11843 6.375
      vertex 8 4.73233 7.10662
      vertex 8 -8.31687 0
    endloop
  endfacet
  facet normal 1 0 2.22045e-16
    outer loop
      vertex 8 -6.5 7.75
      vertex 8 -5.55944 7.58416
      vertex 8 8.31687 10
    endloop
  endfacet
  facet normal 1 0 2.22045e-16
    outer loop
      vertex 8 -5.55944 2.41585
      vertex 8 -6.5 2.25
      vertex 8 -8.31687 0
    endloop
  endfacet
  facet normal -1.57009e-16 -0.707107 0.707107
    outer loop
      vertex 8 -8.31687 10
      vertex -4.19825 -8.31687 10
      vertex -1.3115 -13.3169 5
    endloop
  endfacet
  facet normal -1.57009e-16 -0.707107 0.707107
    outer loop
      vertex 8 -13.3169 5
      vertex 8 -8.31687 10
      vertex -1.3115 -13.3169 5
    endloop
  endfacet
  facet normal -0.866025 -0.5 0
    outer loop
      vertex -8 -1.73205 3.70291
      vertex -8 -1.73205 0
      vertex -7.74722 -2.16987 2.5
    endloop
  endfacet
  facet normal -0.866025 -0.5 0
    outer loop
      vertex -5.24722 -6.5 1.72146e-15
      vertex -8 -1.73205 0
      vertex -4.19825 -8.31687 0
    endloop
  endfacet
  facet normal -0.866025 -0.5 0
    outer loop
      vertex -5 -6.9282 0.0755038
      vertex -4.19825 -8.31687 0
      vertex -5 -6.9282 2.3255
    endloop
  endfacet
  facet normal -0.866025 -0.5 0
    outer loop
      vertex -4.22666 -8.26767 7.10662
      vertex -1.3115 -13.3169 5
      vertex -4.70419 -7.44055 7.58416
    endloop
  endfacet
  facet normal -0.866025 -0.5 0
    outer loop
      vertex -4.19825 -8.31687 10
      vertex -5.24722 -6.5 10
      vertex -5 -6.9282 9.9245
    endloop
  endfacet
  facet normal -0.866025 -0.5 0
    outer loop
      vertex -4.70419 -7.44055 7.58416
      vertex -4.19825 -8.31687 10
      vertex -5 -6.9282 7.6745
    endloop
  endfacet
  facet normal -0.866025 -0.5 0
    outer loop
      vertex -1.3115 -13.3169 5
      vertex -4.19825 -8.31687 10
      vertex -4.70419 -7.44055 7.58416
    endloop
  endfacet
  facet normal -0.866025 -0.5 0
    outer loop
      vertex -3.68363 -9.20822 4.52247
      vertex -1.3115 -13.3169 5
      vertex -3.68363 -9.20822 5.47753
    endloop
  endfacet
  facet normal -0.866025 -0.5 0
    outer loop
      vertex -1.3115 -13.3169 5
      vertex -4.22666 -8.26767 7.10662
      vertex -3.87222 -8.88157 6.375
    endloop
  endfacet
  facet normal -0.866025 -0.5 0
    outer loop
      vertex -1.3115 -13.3169 5
      vertex -3.87222 -8.88157 6.375
      vertex -3.68363 -9.20822 5.47753
    endloop
  endfacet
  facet normal -0.866025 -0.5 0
    outer loop
      vertex -4.19825 -8.31687 0
      vertex -1.3115 -13.3169 5
      vertex -3.68363 -9.20822 4.52247
    endloop
  endfacet
  facet normal -0.866025 -0.5 0
    outer loop
      vertex -4.19825 -8.31687 0
      vertex -3.68363 -9.20822 4.52247
      vertex -3.87222 -8.88157 3.625
    endloop
  endfacet
  facet normal -0.866025 -0.5 0
    outer loop
      vertex -4.19825 -8.31687 0
      vertex -3.87222 -8.88157 3.625
      vertex -4.22666 -8.26767 2.89338
    endloop
  endfacet
  facet normal -0.866025 -0.5 0
    outer loop
      vertex -4.19825 -8.31687 0
      vertex -4.22666 -8.26767 2.89338
      vertex -4.70419 -7.44055 2.41585
    endloop
  endfacet
  facet normal -0.866025 -0.5 0
    outer loop
      vertex -4.19825 -8.31687 0
      vertex -4.70419 -7.44055 2.41585
      vertex -5 -6.9282 2.3255
    endloop
  endfacet
  facet normal -0.866025 -0.5 0
    outer loop
      vertex -6.23455 -4.7899 0.301537
      vertex -8 -1.73205 0
      vertex -5.24722 -6.5 1.72146e-15
    endloop
  endfacet
  facet normal -0.866025 -0.5 0
    outer loop
      vertex -5 -6.9282 0.0755038
      vertex -5.24722 -6.5 1.72146e-15
      vertex -4.19825 -8.31687 0
    endloop
  endfacet
  facet normal -0.866025 -0.5 0
    outer loop
      vertex -7.10279 -3.28606 1.16978
      vertex -8 -1.73205 0
      vertex -6.23455 -4.7899 0.301537
    endloop
  endfacet
  facet normal -0.866025 -0.5 0
    outer loop
      vertex -7.74722 -2.16987 2.5
      vertex -8 -1.73205 0
      vertex -7.10279 -3.28606 1.16978
    endloop
  endfacet
  facet normal -0.866025 -0.5 0
    outer loop
      vertex -5 -6.9282 7.6745
      vertex -4.19825 -8.31687 10
      vertex -5 -6.9282 9.9245
    endloop
  endfacet
  facet normal 2.18671e-16 0.173648 -0.984808
    outer loop
      vertex -5 -6.9282 9.9245
      vertex -5.24722 -6.5 10
      vertex -5 -6.5 10
    endloop
  endfacet
  facet normal -1 0 -2.22045e-16
    outer loop
      vertex -5 -6.9282 9.9245
      vertex -5 -6.5 10
      vertex -5 -4.7899 9.69846
    endloop
  endfacet
  facet normal -1 0 -2.22045e-16
    outer loop
      vertex -5 -6.9282 9.9245
      vertex -5 -4.7899 9.69846
      vertex -5 -3.28606 8.83022
    endloop
  endfacet
  facet normal -1 0 -2.22045e-16
    outer loop
      vertex -5 -6.9282 9.9245
      vertex -5 -3.28606 8.83022
      vertex -5 -2.16987 7.5
    endloop
  endfacet
  facet normal -1 0 -2.22045e-16
    outer loop
      vertex -5 -6.9282 9.9245
      vertex -5 -2.16987 7.5
      vertex -5 -1.57596 5.86824
    endloop
  endfacet
  facet normal -1 0 -2.22045e-16
    outer loop
      vertex -5 -6.9282 9.9245
      vertex -5 -1.57596 5.86824
      vertex -5 -1.57596 4.13176
    endloop
  endfacet
  facet normal -1 0 -2.22045e-16
    outer loop
      vertex -5 -3.79178 5.47753
      vertex -5 -1.57596 4.13176
      vertex -5 -2.16987 2.5
    endloop
  endfacet
  facet normal -1 0 -2.22045e-16
    outer loop
      vertex -5 -4.11843 3.625
      vertex -5 -2.16987 2.5
      vertex -5 -3.28606 1.16978
    endloop
  endfacet
  facet normal -1 0 -2.22045e-16
    outer loop
      vertex -5 -4.73233 2.89338
      vertex -5 -3.28606 1.16978
      vertex -5 -4.7899 0.301537
    endloop
  endfacet
  facet normal -1 0 -2.22045e-16
    outer loop
      vertex -5 -6.5 2.25
      vertex -5 -4.7899 0.301537
      vertex -5 -6.5 1.77636e-15
    endloop
  endfacet
  facet normal -1 0 -2.22045e-16
    outer loop
      vertex -5 -6.9282 2.3255
      vertex -5 -6.5 1.77636e-15
      vertex -5 -6.9282 0.0755038
    endloop
  endfacet
  facet normal -1 0 -2.22045e-16
    outer loop
      vertex -5 -5.55944 2.41585
      vertex -5 -4.7899 0.301537
      vertex -5 -6.5 2.25
    endloop
  endfacet
  facet normal -1 0 -2.22045e-16
    outer loop
      vertex -5 -4.73233 2.89338
      vertex -5 -4.7899 0.301537
      vertex -5 -5.55944 2.41585
    endloop
  endfacet
  facet normal -1 0 -2.22045e-16
    outer loop
      vertex -5 -6.5 7.75
      vertex -5 -6.9282 9.9245
      vertex -5 -5.55944 7.58416
    endloop
  endfacet
  facet normal -1 0 -2.22045e-16
    outer loop
      vertex -5 -4.11843 3.625
      vertex -5 -3.28606 1.16978
      vertex -5 -4.73233 2.89338
    endloop
  endfacet
  facet normal -1 0 -2.22045e-16
    outer loop
      vertex -5 -3.79178 4.52247
      vertex -5 -2.16987 2.5
      vertex -5 -4.11843 3.625
    endloop
  endfacet
  facet normal -1 0 -2.22045e-16
    outer loop
      vertex -5 -3.79178 5.47753
      vertex -5 -2.16987 2.5
      vertex -5 -3.79178 4.52247
    endloop
  endfacet
  facet normal -1 0 -2.22045e-16
    outer loop
      vertex -5 -4.11843 6.375
      vertex -5 -1.57596 4.13176
      vertex -5 -3.79178 5.47753
    endloop
  endfacet
  facet normal -1 0 -2.22045e-16
    outer loop
      vertex -5 -5.55944 7.58416
      vertex -5 -6.9282 9.9245
      vertex -5 -4.73233 7.10662
    endloop
  endfacet
  facet normal -1 0 -2.22045e-16
    outer loop
      vertex -5 -6.9282 9.9245
      vertex -5 -1.57596 4.13176
      vertex -5 -4.11843 6.375
    endloop
  endfacet
  facet normal -1 0 -2.22045e-16
    outer loop
      vertex -5 -6.9282 9.9245
      vertex -5 -4.11843 6.375
      vertex -5 -4.73233 7.10662
    endloop
  endfacet
  facet normal -1 0 -2.22045e-16
    outer loop
      vertex -5 -6.9282 7.6745
      vertex -5 -6.9282 9.9245
      vertex -5 -6.5 7.75
    endloop
  endfacet
  facet normal -1 0 -2.22045e-16
    outer loop
      vertex -5 -6.5 2.25
      vertex -5 -6.5 1.77636e-15
      vertex -5 -6.9282 2.3255
    endloop
  endfacet
  facet normal 2.18671e-16 -0.173648 -0.984808
    outer loop
      vertex -6.23455 -4.7899 9.69846
      vertex -5 -4.7899 9.69846
      vertex -5.24722 -6.5 10
    endloop
  endfacet
  facet normal 2.18671e-16 -0.173648 -0.984808
    outer loop
      vertex -5.24722 -6.5 10
      vertex -5 -4.7899 9.69846
      vertex -5 -6.5 10
    endloop
  endfacet
  facet normal -0.923231 -0.16279 0.348058
    outer loop
      vertex -4 0 15
      vertex -5.885 0 10
      vertex -5.65071 -1.32875 10
    endloop
  endfacet
  facet normal -0.923231 0.162791 0.348058
    outer loop
      vertex -5.885 0 10
      vertex -4 0 15
      vertex -5.76438 0.68404 10
    endloop
  endfacet
  facet normal -0.923231 0.162791 0.348058
    outer loop
      vertex -5.76438 0.68404 10
      vertex -4 0 15
      vertex -3.75877 1.36808 15
    endloop
  endfacet
  facet normal -0.923231 -0.162791 0.348058
    outer loop
      vertex -5.65071 -1.32875 10
      vertex -5.53009 -2.01279 10
      vertex -4 0 15
    endloop
  endfacet
  facet normal -0.923231 -0.162791 0.348058
    outer loop
      vertex -4 0 15
      vertex -5.53009 -2.01279 10
      vertex -3.75877 -1.36808 15
    endloop
  endfacet
  facet normal -0.811875 -0.468737 0.348058
    outer loop
      vertex -3.75877 -1.36808 15
      vertex -5.53009 -2.01279 10
      vertex -4.85547 -3.18127 10
    endloop
  endfacet
  facet normal -0.811876 -0.468736 0.348058
    outer loop
      vertex -4.85547 -3.18127 10
      vertex -4.50817 -3.7828 10
      vertex -3.75877 -1.36808 15
    endloop
  endfacet
  facet normal -0.811876 -0.468736 0.348058
    outer loop
      vertex -3.75877 -1.36808 15
      vertex -4.50817 -3.7828 10
      vertex -3.06418 -2.57115 15
    endloop
  endfacet
  facet normal -0.602596 -0.718146 0.348058
    outer loop
      vertex -3.06418 -2.57115 15
      vertex -4.50817 -3.7828 10
      vertex -3.47459 -4.65008 10
    endloop
  endfacet
  facet normal -0.602596 -0.718146 0.348058
    outer loop
      vertex -3.06418 -2.57115 15
      vertex -3.47459 -4.65008 10
      vertex -2.9425 -5.09656 10
    endloop
  endfacet
  facet normal -0.602596 -0.718146 0.348058
    outer loop
      vertex -2 -3.4641 15
      vertex -3.06418 -2.57115 15
      vertex -2.9425 -5.09656 10
    endloop
  endfacet
  facet normal -0.320635 -0.880936 0.348058
    outer loop
      vertex -2 -3.4641 15
      vertex -2.9425 -5.09656 10
      vertex -1.67462 -5.55803 10
    endloop
  endfacet
  facet normal -0.320634 -0.880937 0.348058
    outer loop
      vertex -0.694593 -3.93923 15
      vertex -2 -3.4641 15
      vertex -1.67462 -5.55803 10
    endloop
  endfacet
  facet normal -0.320634 -0.880937 0.348058
    outer loop
      vertex -1.02192 -5.79559 10
      vertex -0.694593 -3.93923 15
      vertex -1.67462 -5.55803 10
    endloop
  endfacet
  facet normal 0 -0.937473 0.348058
    outer loop
      vertex -0.694593 -3.93923 15
      vertex -1.02192 -5.79559 10
      vertex 1.02192 -5.79559 10
    endloop
  endfacet
  facet normal 0 -0.937473 0.348058
    outer loop
      vertex 0.694593 -3.93923 15
      vertex -0.694593 -3.93923 15
      vertex 1.02192 -5.79559 10
    endloop
  endfacet
  facet normal 0.320635 -0.880936 0.348058
    outer loop
      vertex 2.2898 -5.33412 10
      vertex 0.694593 -3.93923 15
      vertex 1.02192 -5.79559 10
    endloop
  endfacet
  facet normal 0.320634 -0.880937 0.348058
    outer loop
      vertex 2 -3.4641 15
      vertex 0.694593 -3.93923 15
      vertex 2.2898 -5.33412 10
    endloop
  endfacet
  facet normal 0.320634 -0.880937 0.348058
    outer loop
      vertex 2.9425 -5.09656 10
      vertex 2 -3.4641 15
      vertex 2.2898 -5.33412 10
    endloop
  endfacet
  facet normal 0.602596 -0.718146 0.348058
    outer loop
      vertex 3.97608 -4.22928 10
      vertex 2 -3.4641 15
      vertex 2.9425 -5.09656 10
    endloop
  endfacet
  facet normal 0.602596 -0.718146 0.348058
    outer loop
      vertex 3.06418 -2.57115 15
      vertex 2 -3.4641 15
      vertex 3.97608 -4.22928 10
    endloop
  endfacet
  facet normal 0.602596 -0.718146 0.348058
    outer loop
      vertex 4.50817 -3.7828 10
      vertex 3.06418 -2.57115 15
      vertex 3.97608 -4.22928 10
    endloop
  endfacet
  facet normal 0.811875 -0.468737 0.348058
    outer loop
      vertex 5.18279 -2.61432 10
      vertex 3.06418 -2.57115 15
      vertex 4.50817 -3.7828 10
    endloop
  endfacet
  facet normal 0.811875 -0.468736 0.348058
    outer loop
      vertex 3.75877 -1.36808 15
      vertex 3.06418 -2.57115 15
      vertex 5.18279 -2.61432 10
    endloop
  endfacet
  facet normal 0.811875 -0.468736 0.348058
    outer loop
      vertex 5.53009 -2.01279 10
      vertex 3.75877 -1.36808 15
      vertex 5.18279 -2.61432 10
    endloop
  endfacet
  facet normal 0.923231 -0.16279 0.348058
    outer loop
      vertex 5.76438 -0.68404 10
      vertex 3.75877 -1.36808 15
      vertex 5.53009 -2.01279 10
    endloop
  endfacet
  facet normal 0.923231 -0.162791 0.348058
    outer loop
      vertex 4 0 15
      vertex 3.75877 -1.36808 15
      vertex 5.76438 -0.68404 10
    endloop
  endfacet
  facet normal 0.923231 -0.162791 0.348058
    outer loop
      vertex 5.885 0 10
      vertex 4 0 15
      vertex 5.76438 -0.68404 10
    endloop
  endfacet
  facet normal 0.923231 0.16279 0.348058
    outer loop
      vertex 5.65071 1.32875 10
      vertex 4 0 15
      vertex 5.885 0 10
    endloop
  endfacet
  facet normal 0.923231 0.162791 0.348058
    outer loop
      vertex 5.53009 2.01279 10
      vertex 3.75877 1.36808 15
      vertex 4 0 15
    endloop
  endfacet
  facet normal 0.923231 0.162791 0.348058
    outer loop
      vertex 5.65071 1.32875 10
      vertex 5.53009 2.01279 10
      vertex 4 0 15
    endloop
  endfacet
  facet normal 0.811875 0.468737 0.348058
    outer loop
      vertex 4.85547 3.18127 10
      vertex 3.75877 1.36808 15
      vertex 5.53009 2.01279 10
    endloop
  endfacet
  facet normal 0.811876 0.468736 0.348058
    outer loop
      vertex 4.50817 3.7828 10
      vertex 3.06418 2.57115 15
      vertex 3.75877 1.36808 15
    endloop
  endfacet
  facet normal 0.811876 0.468736 0.348058
    outer loop
      vertex 4.85547 3.18127 10
      vertex 4.50817 3.7828 10
      vertex 3.75877 1.36808 15
    endloop
  endfacet
  facet normal 0.602596 0.718146 0.348058
    outer loop
      vertex 3.47459 4.65008 10
      vertex 3.06418 2.57115 15
      vertex 4.50817 3.7828 10
    endloop
  endfacet
  facet normal 0.602596 0.718146 0.348058
    outer loop
      vertex 2 3.4641 15
      vertex 3.06418 2.57115 15
      vertex 2.9425 5.09656 10
    endloop
  endfacet
  facet normal 0.602596 0.718146 0.348058
    outer loop
      vertex 2.9425 5.09656 10
      vertex 3.06418 2.57115 15
      vertex 3.47459 4.65008 10
    endloop
  endfacet
  facet normal 0.320635 0.880936 0.348058
    outer loop
      vertex 2.9425 5.09656 10
      vertex 1.67462 5.55803 10
      vertex 2 3.4641 15
    endloop
  endfacet
  facet normal 0.320634 0.880937 0.348058
    outer loop
      vertex 0.694593 3.93923 15
      vertex 2 3.4641 15
      vertex 1.02192 5.79559 10
    endloop
  endfacet
  facet normal 0.320634 0.880937 0.348058
    outer loop
      vertex 1.02192 5.79559 10
      vertex 2 3.4641 15
      vertex 1.67462 5.55803 10
    endloop
  endfacet
  facet normal 0 0.937473 0.348058
    outer loop
      vertex -1.02192 5.79559 10
      vertex -0.694593 3.93923 15
      vertex 1.02192 5.79559 10
    endloop
  endfacet
  facet normal 0 0.937473 0.348058
    outer loop
      vertex 1.02192 5.79559 10
      vertex -0.694593 3.93923 15
      vertex 0.694593 3.93923 15
    endloop
  endfacet
  facet normal -0.320635 0.880936 0.348058
    outer loop
      vertex -1.02192 5.79559 10
      vertex -2.2898 5.33412 10
      vertex -0.694593 3.93923 15
    endloop
  endfacet
  facet normal -0.320634 0.880937 0.348058
    outer loop
      vertex -2.9425 5.09656 10
      vertex -2 3.4641 15
      vertex -2.2898 5.33412 10
    endloop
  endfacet
  facet normal -0.320634 0.880937 0.348058
    outer loop
      vertex -2.2898 5.33412 10
      vertex -2 3.4641 15
      vertex -0.694593 3.93923 15
    endloop
  endfacet
  facet normal -0.602596 0.718146 0.348058
    outer loop
      vertex -2.9425 5.09656 10
      vertex -3.97608 4.22928 10
      vertex -2 3.4641 15
    endloop
  endfacet
  facet normal -0.602596 0.718146 0.348058
    outer loop
      vertex -4.50817 3.7828 10
      vertex -3.06418 2.57115 15
      vertex -3.97608 4.22928 10
    endloop
  endfacet
  facet normal -0.602596 0.718146 0.348058
    outer loop
      vertex -3.97608 4.22928 10
      vertex -3.06418 2.57115 15
      vertex -2 3.4641 15
    endloop
  endfacet
  facet normal -0.811875 0.468737 0.348058
    outer loop
      vertex -4.50817 3.7828 10
      vertex -5.18279 2.61432 10
      vertex -3.06418 2.57115 15
    endloop
  endfacet
  facet normal -0.811875 0.468736 0.348058
    outer loop
      vertex -5.53009 2.01279 10
      vertex -3.75877 1.36808 15
      vertex -5.18279 2.61432 10
    endloop
  endfacet
  facet normal -0.811875 0.468736 0.348058
    outer loop
      vertex -5.18279 2.61432 10
      vertex -3.75877 1.36808 15
      vertex -3.06418 2.57115 15
    endloop
  endfacet
  facet normal -0.923231 0.16279 0.348058
    outer loop
      vertex -5.53009 2.01279 10
      vertex -5.76438 0.68404 10
      vertex -3.75877 1.36808 15
    endloop
  endfacet
  facet normal 1.92296e-16 -0.5 -0.866025
    outer loop
      vertex -7.10279 -3.28606 8.83022
      vertex -5 -3.28606 8.83022
      vertex -6.23455 -4.7899 9.69846
    endloop
  endfacet
  facet normal 1.92296e-16 -0.5 -0.866025
    outer loop
      vertex -6.23455 -4.7899 9.69846
      vertex -5 -3.28606 8.83022
      vertex -5 -4.7899 9.69846
    endloop
  endfacet
  facet normal 1.42728e-16 -0.766044 -0.642788
    outer loop
      vertex -7.10279 -3.28606 8.83022
      vertex -7.74722 -2.16987 7.5
      vertex -5 -2.16987 7.5
    endloop
  endfacet
  facet normal 1.42728e-16 -0.766044 -0.642788
    outer loop
      vertex -5 -3.28606 8.83022
      vertex -7.10279 -3.28606 8.83022
      vertex -5 -2.16987 7.5
    endloop
  endfacet
  facet normal 7.59438e-17 -0.939693 -0.34202
    outer loop
      vertex -7.74722 -2.16987 7.5
      vertex -8 -1.73205 6.29709
      vertex -8 -1.57596 5.86824
    endloop
  endfacet
  facet normal 7.59438e-17 -0.939693 -0.34202
    outer loop
      vertex -5 -2.16987 7.5
      vertex -7.74722 -2.16987 7.5
      vertex -5 -1.57596 5.86824
    endloop
  endfacet
  facet normal 7.59438e-17 -0.939693 -0.34202
    outer loop
      vertex -5 -1.57596 5.86824
      vertex -7.74722 -2.16987 7.5
      vertex -8 -1.57596 5.86824
    endloop
  endfacet
  facet normal 0 -1 0
    outer loop
      vertex -5 -1.57596 5.86824
      vertex -8 -1.57596 5.86824
      vertex -8 -1.57596 4.13176
    endloop
  endfacet
  facet normal 0 -1 0
    outer loop
      vertex -5 -1.57596 4.13176
      vertex -5 -1.57596 5.86824
      vertex -8 -1.57596 4.13176
    endloop
  endfacet
  facet normal -7.59438e-17 -0.939693 0.34202
    outer loop
      vertex -5 -1.57596 4.13176
      vertex -8 -1.57596 4.13176
      vertex -8 -1.73205 3.70291
    endloop
  endfacet
  facet normal -7.59438e-17 -0.939693 0.34202
    outer loop
      vertex -5 -2.16987 2.5
      vertex -5 -1.57596 4.13176
      vertex -7.74722 -2.16987 2.5
    endloop
  endfacet
  facet normal -7.59438e-17 -0.939693 0.34202
    outer loop
      vertex -7.74722 -2.16987 2.5
      vertex -5 -1.57596 4.13176
      vertex -8 -1.73205 3.70291
    endloop
  endfacet
  facet normal 0 0 -1
    outer loop
      vertex -8 -1.73205 0
      vertex -8 1.73205 0
      vertex -4.19825 -8.31687 0
    endloop
  endfacet
  facet normal 0 0 -1
    outer loop
      vertex -4.925 0 0
      vertex -8 1.73205 0
      vertex -4.19825 8.31687 0
    endloop
  endfacet
  facet normal 0 0 -1
    outer loop
      vertex 2.4625 4.26518 0
      vertex -4.19825 8.31687 0
      vertex 8 8.31687 0
    endloop
  endfacet
  facet normal 0 0 -1
    outer loop
      vertex 4.925 0 0
      vertex 8 8.31687 0
      vertex 8 -8.31687 0
    endloop
  endfacet
  facet normal 0 0 -1
    outer loop
      vertex -4.19825 -8.31687 0
      vertex -8 1.73205 0
      vertex -4.925 0 0
    endloop
  endfacet
  facet normal 0 0 -1
    outer loop
      vertex -2.4625 -4.26518 0
      vertex -4.19825 -8.31687 0
      vertex -4.925 0 0
    endloop
  endfacet
  facet normal 0 0 -1
    outer loop
      vertex 2.4625 4.26518 0
      vertex 8 8.31687 0
      vertex 4.925 0 0
    endloop
  endfacet
  facet normal 0 0 -1
    outer loop
      vertex -4.19825 -8.31687 0
      vertex 2.4625 -4.26518 0
      vertex 8 -8.31687 0
    endloop
  endfacet
  facet normal 0 0 -1
    outer loop
      vertex 2.4625 -4.26518 0
      vertex 4.925 0 0
      vertex 8 -8.31687 0
    endloop
  endfacet
  facet normal 0 0 -1
    outer loop
      vertex -2.4625 4.26518 0
      vertex -4.19825 8.31687 0
      vertex 2.4625 4.26518 0
    endloop
  endfacet
  facet normal 0 0 -1
    outer loop
      vertex -4.925 0 0
      vertex -4.19825 8.31687 0
      vertex -2.4625 4.26518 0
    endloop
  endfacet
  facet normal 0 0 -1
    outer loop
      vertex 2.4625 -4.26518 0
      vertex -4.19825 -8.31687 0
      vertex -2.4625 -4.26518 0
    endloop
  endfacet
  facet normal -7.59438e-17 0.939693 0.34202
    outer loop
      vertex -5 2.16987 2.5
      vertex -7.74722 2.16987 2.5
      vertex -5 1.57596 4.13176
    endloop
  endfacet
  facet normal -7.59438e-17 0.939693 0.34202
    outer loop
      vertex -5 1.57596 4.13176
      vertex -7.74722 2.16987 2.5
      vertex -8 1.73205 3.70291
    endloop
  endfacet
  facet normal -7.59438e-17 0.939693 0.34202
    outer loop
      vertex -5 1.57596 4.13176
      vertex -8 1.73205 3.70291
      vertex -8 1.57596 4.13176
    endloop
  endfacet
  facet normal 0 1 0
    outer loop
      vertex -5 1.57596 4.13176
      vertex -8 1.57596 4.13176
      vertex -5 1.57596 5.86824
    endloop
  endfacet
  facet normal 0 1 0
    outer loop
      vertex -5 1.57596 5.86824
      vertex -8 1.57596 4.13176
      vertex -8 1.57596 5.86824
    endloop
  endfacet
  facet normal 7.59438e-17 0.939693 -0.34202
    outer loop
      vertex -5 2.16987 7.5
      vertex -5 1.57596 5.86824
      vertex -7.74722 2.16987 7.5
    endloop
  endfacet
  facet normal 7.59438e-17 0.939693 -0.34202
    outer loop
      vertex -7.74722 2.16987 7.5
      vertex -5 1.57596 5.86824
      vertex -8 1.57596 5.86824
    endloop
  endfacet
  facet normal 7.59438e-17 0.939693 -0.34202
    outer loop
      vertex -7.74722 2.16987 7.5
      vertex -8 1.57596 5.86824
      vertex -8 1.73205 6.29709
    endloop
  endfacet
  facet normal 1.42728e-16 0.766044 -0.642788
    outer loop
      vertex -5 3.28606 8.83022
      vertex -5 2.16987 7.5
      vertex -7.10279 3.28606 8.83022
    endloop
  endfacet
  facet normal 1.42728e-16 0.766044 -0.642788
    outer loop
      vertex -7.10279 3.28606 8.83022
      vertex -5 2.16987 7.5
      vertex -7.74722 2.16987 7.5
    endloop
  endfacet
  facet normal 1.92296e-16 0.5 -0.866025
    outer loop
      vertex -5 4.7899 9.69846
      vertex -5 3.28606 8.83022
      vertex -6.23455 4.7899 9.69846
    endloop
  endfacet
  facet normal 1.92296e-16 0.5 -0.866025
    outer loop
      vertex -6.23455 4.7899 9.69846
      vertex -5 3.28606 8.83022
      vertex -7.10279 3.28606 8.83022
    endloop
  endfacet
  facet normal -1.42728e-16 0.766044 0.642788
    outer loop
      vertex -5 3.28606 1.16978
      vertex -7.10279 3.28606 1.16978
      vertex -5 2.16987 2.5
    endloop
  endfacet
  facet normal -1.42728e-16 0.766044 0.642788
    outer loop
      vertex -5 2.16987 2.5
      vertex -7.10279 3.28606 1.16978
      vertex -7.74722 2.16987 2.5
    endloop
  endfacet
  facet normal -1.92296e-16 0.5 0.866025
    outer loop
      vertex -5 3.28606 1.16978
      vertex -5 4.7899 0.301537
      vertex -6.23455 4.7899 0.301537
    endloop
  endfacet
  facet normal -1.92296e-16 0.5 0.866025
    outer loop
      vertex -7.10279 3.28606 1.16978
      vertex -5 3.28606 1.16978
      vertex -6.23455 4.7899 0.301537
    endloop
  endfacet
  facet normal -2.18671e-16 0.173648 0.984808
    outer loop
      vertex -5 4.7899 0.301537
      vertex -5 6.5 1.77636e-15
      vertex -5.24722 6.5 1.72146e-15
    endloop
  endfacet
  facet normal -2.18671e-16 0.173648 0.984808
    outer loop
      vertex -6.23455 4.7899 0.301537
      vertex -5 4.7899 0.301537
      vertex -5.24722 6.5 1.72146e-15
    endloop
  endfacet
  facet normal -2.18671e-16 -0.173648 0.984808
    outer loop
      vertex -5 6.5 1.77636e-15
      vertex -5 6.9282 0.0755038
      vertex -5.24722 6.5 1.72146e-15
    endloop
  endfacet
  facet normal -2.18671e-16 -0.173648 0.984808
    outer loop
      vertex -5 6.5 2.25
      vertex 8 6.5 2.25
      vertex 8 7.44055 2.41585
    endloop
  endfacet
  facet normal -2.18671e-16 -0.173648 0.984808
    outer loop
      vertex -5 6.9282 2.3255
      vertex -5 6.5 2.25
      vertex -4.70419 7.44055 2.41585
    endloop
  endfacet
  facet normal -2.18671e-16 -0.173648 0.984808
    outer loop
      vertex -4.70419 7.44055 2.41585
      vertex -5 6.5 2.25
      vertex 8 7.44055 2.41585
    endloop
  endfacet
  facet normal -2.18671e-16 0.173648 0.984808
    outer loop
      vertex 8 5.55944 2.41585
      vertex 8 6.5 2.25
      vertex -5 6.5 2.25
    endloop
  endfacet
  facet normal -2.18671e-16 0.173648 0.984808
    outer loop
      vertex -5 5.55944 2.41585
      vertex 8 5.55944 2.41585
      vertex -5 6.5 2.25
    endloop
  endfacet
  facet normal -1.92296e-16 0.5 0.866025
    outer loop
      vertex 8 4.73233 2.89338
      vertex 8 5.55944 2.41585
      vertex -5 5.55944 2.41585
    endloop
  endfacet
  facet normal -1.92296e-16 0.5 0.866025
    outer loop
      vertex -5 4.73233 2.89338
      vertex 8 4.73233 2.89338
      vertex -5 5.55944 2.41585
    endloop
  endfacet
  facet normal -1.42728e-16 0.766044 0.642788
    outer loop
      vertex 8 4.11843 3.625
      vertex 2.4625 4.26518 3.45012
      vertex 2.54722 4.11843 3.625
    endloop
  endfacet
  facet normal -1.42728e-16 0.766044 0.642788
    outer loop
      vertex 8 4.73233 2.89338
      vertex 2.4625 4.26518 3.45012
      vertex 8 4.11843 3.625
    endloop
  endfacet
  facet normal -1.42728e-16 0.766044 0.642788
    outer loop
      vertex -2.4625 4.26518 3.45012
      vertex 2.4625 4.26518 3.45012
      vertex 8 4.73233 2.89338
    endloop
  endfacet
  facet normal -1.42728e-16 0.766044 0.642788
    outer loop
      vertex -2.4625 4.26518 3.45012
      vertex 8 4.73233 2.89338
      vertex -5 4.73233 2.89338
    endloop
  endfacet
  facet normal -1.42728e-16 0.766044 0.642788
    outer loop
      vertex -2.4625 4.26518 3.45012
      vertex -5 4.73233 2.89338
      vertex -2.54722 4.11843 3.625
    endloop
  endfacet
  facet normal -1.42728e-16 0.766044 0.642788
    outer loop
      vertex -5 4.73233 2.89338
      vertex -5 4.11843 3.625
      vertex -2.54722 4.11843 3.625
    endloop
  endfacet
  facet normal -7.59436e-17 0.939693 0.34202
    outer loop
      vertex -2.54722 4.11843 3.625
      vertex -5 4.11843 3.625
      vertex -2.73582 3.79178 4.52247
    endloop
  endfacet
  facet normal -7.59436e-17 0.939693 0.34202
    outer loop
      vertex -2.73582 3.79178 4.52247
      vertex -5 4.11843 3.625
      vertex -5 3.79178 4.52247
    endloop
  endfacet
  facet normal 0 1 0
    outer loop
      vertex -2.73582 3.79178 4.52247
      vertex -5 3.79178 4.52247
      vertex -2.73582 3.79178 5.47753
    endloop
  endfacet
  facet normal 0 1 0
    outer loop
      vertex -2.73582 3.79178 5.47753
      vertex -5 3.79178 4.52247
      vertex -5 3.79178 5.47753
    endloop
  endfacet
  facet normal 7.59436e-17 0.939693 -0.34202
    outer loop
      vertex 8 3.79178 5.47753
      vertex 2.73582 3.79178 5.47753
      vertex 8 4.11843 6.375
    endloop
  endfacet
  facet normal 7.59436e-17 0.939693 -0.34202
    outer loop
      vertex 8 4.11843 6.375
      vertex 2.73582 3.79178 5.47753
      vertex 2.62813 3.9783 5.99
    endloop
  endfacet
  facet normal 7.59436e-17 0.939693 -0.34202
    outer loop
      vertex 8 4.11843 6.375
      vertex 2.62813 3.9783 5.99
      vertex -2.62813 3.9783 5.99
    endloop
  endfacet
  facet normal 7.59436e-17 0.939693 -0.34202
    outer loop
      vertex -2.62813 3.9783 5.99
      vertex -2.73582 3.79178 5.47753
      vertex -5 3.79178 5.47753
    endloop
  endfacet
  facet normal 7.59436e-17 0.939693 -0.34202
    outer loop
      vertex -2.62813 3.9783 5.99
      vertex -5 3.79178 5.47753
      vertex -5 4.11843 6.375
    endloop
  endfacet
  facet normal 7.59436e-17 0.939693 -0.34202
    outer loop
      vertex -2.62813 3.9783 5.99
      vertex -5 4.11843 6.375
      vertex 8 4.11843 6.375
    endloop
  endfacet
  facet normal 1.42728e-16 0.766044 -0.642788
    outer loop
      vertex 8 4.11843 6.375
      vertex -5 4.11843 6.375
      vertex 8 4.73233 7.10662
    endloop
  endfacet
  facet normal 1.42728e-16 0.766044 -0.642788
    outer loop
      vertex 8 4.73233 7.10662
      vertex -5 4.11843 6.375
      vertex -5 4.73233 7.10662
    endloop
  endfacet
  facet normal 1.92296e-16 0.5 -0.866025
    outer loop
      vertex 8 4.73233 7.10662
      vertex -5 4.73233 7.10662
      vertex 8 5.55944 7.58416
    endloop
  endfacet
  facet normal 1.92296e-16 0.5 -0.866025
    outer loop
      vertex 8 5.55944 7.58416
      vertex -5 4.73233 7.10662
      vertex -5 5.55944 7.58416
    endloop
  endfacet
  facet normal 2.18671e-16 0.173648 -0.984808
    outer loop
      vertex 8 5.55944 7.58416
      vertex -5 5.55944 7.58416
      vertex 8 6.5 7.75
    endloop
  endfacet
  facet normal 2.18671e-16 0.173648 -0.984808
    outer loop
      vertex 8 6.5 7.75
      vertex -5 5.55944 7.58416
      vertex -5 6.5 7.75
    endloop
  endfacet
  facet normal 2.18671e-16 -0.173648 -0.984808
    outer loop
      vertex -4.70419 7.44055 7.58416
      vertex 8 7.44055 7.58416
      vertex -5 6.9282 7.6745
    endloop
  endfacet
  facet normal 2.18671e-16 -0.173648 -0.984808
    outer loop
      vertex -5 6.9282 7.6745
      vertex 8 7.44055 7.58416
      vertex 8 6.5 7.75
    endloop
  endfacet
  facet normal 2.18671e-16 -0.173648 -0.984808
    outer loop
      vertex -5 6.9282 7.6745
      vertex 8 6.5 7.75
      vertex -5 6.5 7.75
    endloop
  endfacet
  facet normal 1.57009e-16 0.707107 -0.707107
    outer loop
      vertex -4.19825 8.31687 0
      vertex -1.3115 13.3169 5
      vertex 8 8.31687 0
    endloop
  endfacet
  facet normal 1.57009e-16 0.707107 -0.707107
    outer loop
      vertex 8 8.31687 0
      vertex -1.3115 13.3169 5
      vertex 8 13.3169 5
    endloop
  endfacet
  facet normal 1.92296e-16 -0.5 -0.866025
    outer loop
      vertex 8 8.26767 7.10662
      vertex 8 7.44055 7.58416
      vertex -4.22666 8.26767 7.10662
    endloop
  endfacet
  facet normal 1.92296e-16 -0.5 -0.866025
    outer loop
      vertex -4.22666 8.26767 7.10662
      vertex 8 7.44055 7.58416
      vertex -4.70419 7.44055 7.58416
    endloop
  endfacet
  facet normal 1.42728e-16 -0.766044 -0.642788
    outer loop
      vertex -3.87222 8.88157 6.375
      vertex 8 8.88157 6.375
      vertex 8 8.26767 7.10662
    endloop
  endfacet
  facet normal 1.42728e-16 -0.766044 -0.642788
    outer loop
      vertex -4.22666 8.26767 7.10662
      vertex -3.87222 8.88157 6.375
      vertex 8 8.26767 7.10662
    endloop
  endfacet
  facet normal 7.59436e-17 -0.939693 -0.34202
    outer loop
      vertex -3.68363 9.20822 5.47753
      vertex 8 9.20822 5.47753
      vertex 8 8.88157 6.375
    endloop
  endfacet
  facet normal 7.59436e-17 -0.939693 -0.34202
    outer loop
      vertex -3.87222 8.88157 6.375
      vertex -3.68363 9.20822 5.47753
      vertex 8 8.88157 6.375
    endloop
  endfacet
  facet normal 0 -1 0
    outer loop
      vertex 8 9.20822 4.52247
      vertex 8 9.20822 5.47753
      vertex -3.68363 9.20822 5.47753
    endloop
  endfacet
  facet normal 0 -1 0
    outer loop
      vertex -3.68363 9.20822 4.52247
      vertex 8 9.20822 4.52247
      vertex -3.68363 9.20822 5.47753
    endloop
  endfacet
  facet normal -7.59436e-17 -0.939693 0.34202
    outer loop
      vertex 8 8.88157 3.625
      vertex 8 9.20822 4.52247
      vertex -3.68363 9.20822 4.52247
    endloop
  endfacet
  facet normal -7.59436e-17 -0.939693 0.34202
    outer loop
      vertex -3.87222 8.88157 3.625
      vertex 8 8.88157 3.625
      vertex -3.68363 9.20822 4.52247
    endloop
  endfacet
  facet normal -1.42728e-16 -0.766044 0.642788
    outer loop
      vertex 8 8.26767 2.89338
      vertex 8 8.88157 3.625
      vertex -3.87222 8.88157 3.625
    endloop
  endfacet
  facet normal -1.42728e-16 -0.766044 0.642788
    outer loop
      vertex -4.22666 8.26767 2.89338
      vertex 8 8.26767 2.89338
      vertex -3.87222 8.88157 3.625
    endloop
  endfacet
  facet normal -1.92296e-16 -0.5 0.866025
    outer loop
      vertex 8 7.44055 2.41585
      vertex 8 8.26767 2.89338
      vertex -4.22666 8.26767 2.89338
    endloop
  endfacet
  facet normal -1.92296e-16 -0.5 0.866025
    outer loop
      vertex -4.70419 7.44055 2.41585
      vertex 8 7.44055 2.41585
      vertex -4.22666 8.26767 2.89338
    endloop
  endfacet
  facet normal 1.57009e-16 -0.707107 -0.707107
    outer loop
      vertex -1.3115 -13.3169 5
      vertex -4.19825 -8.31687 0
      vertex 8 -8.31687 0
    endloop
  endfacet
  facet normal 1.57009e-16 -0.707107 -0.707107
    outer loop
      vertex 8 -13.3169 5
      vertex -1.3115 -13.3169 5
      vertex 8 -8.31687 0
    endloop
  endfacet
  facet normal 2.18671e-16 0.173648 -0.984808
    outer loop
      vertex -5 -6.5 7.75
      vertex 8 -6.5 7.75
      vertex -5 -6.9282 7.6745
    endloop
  endfacet
  facet normal 2.18671e-16 0.173648 -0.984808
    outer loop
      vertex -5 -6.9282 7.6745
      vertex 8 -6.5 7.75
      vertex 8 -7.44055 7.58416
    endloop
  endfacet
  facet normal 2.18671e-16 0.173648 -0.984808
    outer loop
      vertex -5 -6.9282 7.6745
      vertex 8 -7.44055 7.58416
      vertex -4.70419 -7.44055 7.58416
    endloop
  endfacet
  facet normal 1.92296e-16 0.5 -0.866025
    outer loop
      vertex -4.70419 -7.44055 7.58416
      vertex 8 -7.44055 7.58416
      vertex -4.22666 -8.26767 7.10662
    endloop
  endfacet
  facet normal 1.92296e-16 0.5 -0.866025
    outer loop
      vertex -4.22666 -8.26767 7.10662
      vertex 8 -7.44055 7.58416
      vertex 8 -8.26767 7.10662
    endloop
  endfacet
  facet normal 1.42728e-16 0.766044 -0.642788
    outer loop
      vertex -4.22666 -8.26767 7.10662
      vertex 8 -8.26767 7.10662
      vertex -3.87222 -8.88157 6.375
    endloop
  endfacet
  facet normal 1.42728e-16 0.766044 -0.642788
    outer loop
      vertex -3.87222 -8.88157 6.375
      vertex 8 -8.26767 7.10662
      vertex 8 -8.88157 6.375
    endloop
  endfacet
  facet normal 7.59436e-17 0.939693 -0.34202
    outer loop
      vertex -3.87222 -8.88157 6.375
      vertex 8 -8.88157 6.375
      vertex -3.68363 -9.20822 5.47753
    endloop
  endfacet
  facet normal 7.59436e-17 0.939693 -0.34202
    outer loop
      vertex -3.68363 -9.20822 5.47753
      vertex 8 -8.88157 6.375
      vertex 8 -9.20822 5.47753
    endloop
  endfacet
  facet normal 0 1 0
    outer loop
      vertex -3.68363 -9.20822 4.52247
      vertex -3.68363 -9.20822 5.47753
      vertex 8 -9.20822 4.52247
    endloop
  endfacet
  facet normal 0 1 0
    outer loop
      vertex 8 -9.20822 4.52247
      vertex -3.68363 -9.20822 5.47753
      vertex 8 -9.20822 5.47753
    endloop
  endfacet
  facet normal -7.59436e-17 0.939693 0.34202
    outer loop
      vertex -3.87222 -8.88157 3.625
      vertex -3.68363 -9.20822 4.52247
      vertex 8 -8.88157 3.625
    endloop
  endfacet
  facet normal -7.59436e-17 0.939693 0.34202
    outer loop
      vertex 8 -8.88157 3.625
      vertex -3.68363 -9.20822 4.52247
      vertex 8 -9.20822 4.52247
    endloop
  endfacet
  facet normal -1.42728e-16 0.766044 0.642788
    outer loop
      vertex -4.22666 -8.26767 2.89338
      vertex -3.87222 -8.88157 3.625
      vertex 8 -8.26767 2.89338
    endloop
  endfacet
  facet normal -1.42728e-16 0.766044 0.642788
    outer loop
      vertex 8 -8.26767 2.89338
      vertex -3.87222 -8.88157 3.625
      vertex 8 -8.88157 3.625
    endloop
  endfacet
  facet normal -1.92296e-16 0.5 0.866025
    outer loop
      vertex 8 -7.44055 2.41585
      vertex -4.70419 -7.44055 2.41585
      vertex -4.22666 -8.26767 2.89338
    endloop
  endfacet
  facet normal -1.92296e-16 0.5 0.866025
    outer loop
      vertex 8 -8.26767 2.89338
      vertex 8 -7.44055 2.41585
      vertex -4.22666 -8.26767 2.89338
    endloop
  endfacet
  facet normal -2.18671e-16 0.173648 0.984808
    outer loop
      vertex -5 -6.5 2.25
      vertex -5 -6.9282 2.3255
      vertex -4.70419 -7.44055 2.41585
    endloop
  endfacet
  facet normal -2.18671e-16 0.173648 0.984808
    outer loop
      vertex 8 -6.5 2.25
      vertex -5 -6.5 2.25
      vertex 8 -7.44055 2.41585
    endloop
  endfacet
  facet normal -2.18671e-16 0.173648 0.984808
    outer loop
      vertex 8 -7.44055 2.41585
      vertex -5 -6.5 2.25
      vertex -4.70419 -7.44055 2.41585
    endloop
  endfacet
  facet normal -2.18671e-16 -0.173648 0.984808
    outer loop
      vertex 8 -5.55944 2.41585
      vertex -5 -5.55944 2.41585
      vertex -5 -6.5 2.25
    endloop
  endfacet
  facet normal -2.18671e-16 -0.173648 0.984808
    outer loop
      vertex 8 -6.5 2.25
      vertex 8 -5.55944 2.41585
      vertex -5 -6.5 2.25
    endloop
  endfacet
  facet normal -1.92296e-16 -0.5 0.866025
    outer loop
      vertex 8 -4.73233 2.89338
      vertex -5 -4.73233 2.89338
      vertex -5 -5.55944 2.41585
    endloop
  endfacet
  facet normal -1.92296e-16 -0.5 0.866025
    outer loop
      vertex 8 -5.55944 2.41585
      vertex 8 -4.73233 2.89338
      vertex -5 -5.55944 2.41585
    endloop
  endfacet
  facet normal -1.42728e-16 -0.766044 0.642788
    outer loop
      vertex -2.54722 -4.11843 3.625
      vertex -5 -4.11843 3.625
      vertex -5 -4.73233 2.89338
    endloop
  endfacet
  facet normal -1.42728e-16 -0.766044 0.642788
    outer loop
      vertex -2.4625 -4.26518 3.45012
      vertex -2.54722 -4.11843 3.625
      vertex -5 -4.73233 2.89338
    endloop
  endfacet
  facet normal -1.42728e-16 -0.766044 0.642788
    outer loop
      vertex 8 -4.11843 3.625
      vertex 2.54722 -4.11843 3.625
      vertex 8 -4.73233 2.89338
    endloop
  endfacet
  facet normal -1.42728e-16 -0.766044 0.642788
    outer loop
      vertex 2.54722 -4.11843 3.625
      vertex 2.4625 -4.26518 3.45012
      vertex 8 -4.73233 2.89338
    endloop
  endfacet
  facet normal -1.42728e-16 -0.766044 0.642788
    outer loop
      vertex 8 -4.73233 2.89338
      vertex -2.4625 -4.26518 3.45012
      vertex -5 -4.73233 2.89338
    endloop
  endfacet
  facet normal -1.42728e-16 -0.766044 0.642788
    outer loop
      vertex 2.4625 -4.26518 3.45012
      vertex -2.4625 -4.26518 3.45012
      vertex 8 -4.73233 2.89338
    endloop
  endfacet
  facet normal -7.59436e-17 -0.939693 0.34202
    outer loop
      vertex 2.73582 -3.79178 4.52247
      vertex 2.54722 -4.11843 3.625
      vertex 8 -4.11843 3.625
    endloop
  endfacet
  facet normal -7.59436e-17 -0.939693 0.34202
    outer loop
      vertex 8 -3.79178 4.52247
      vertex 2.73582 -3.79178 4.52247
      vertex 8 -4.11843 3.625
    endloop
  endfacet
  facet normal 0 -1 0
    outer loop
      vertex 2.73582 -3.79178 5.47753
      vertex 2.73582 -3.79178 4.52247
      vertex 8 -3.79178 4.52247
    endloop
  endfacet
  facet normal 0 -1 0
    outer loop
      vertex 8 -3.79178 5.47753
      vertex 2.73582 -3.79178 5.47753
      vertex 8 -3.79178 4.52247
    endloop
  endfacet
  facet normal 7.59436e-17 -0.939693 -0.34202
    outer loop
      vertex -2.62813 -3.9783 5.99
      vertex -5 -4.11843 6.375
      vertex -5 -3.79178 5.47753
    endloop
  endfacet
  facet normal 7.59436e-17 -0.939693 -0.34202
    outer loop
      vertex 2.62813 -3.9783 5.99
      vertex 2.73582 -3.79178 5.47753
      vertex 8 -4.11843 6.375
    endloop
  endfacet
  facet normal 7.59436e-17 -0.939693 -0.34202
    outer loop
      vertex 8 -4.11843 6.375
      vertex -5 -4.11843 6.375
      vertex -2.62813 -3.9783 5.99
    endloop
  endfacet
  facet normal 7.59436e-17 -0.939693 -0.34202
    outer loop
      vertex 8 -3.79178 5.47753
      vertex 8 -4.11843 6.375
      vertex 2.73582 -3.79178 5.47753
    endloop
  endfacet
  facet normal 7.59436e-17 -0.939693 -0.34202
    outer loop
      vertex -2.62813 -3.9783 5.99
      vertex 2.62813 -3.9783 5.99
      vertex 8 -4.11843 6.375
    endloop
  endfacet
  facet normal 7.59436e-17 -0.939693 -0.34202
    outer loop
      vertex -2.73582 -3.79178 5.47753
      vertex -2.62813 -3.9783 5.99
      vertex -5 -3.79178 5.47753
    endloop
  endfacet
  facet normal 1.42728e-16 -0.766044 -0.642788
    outer loop
      vertex 8 -4.73233 7.10662
      vertex -5 -4.73233 7.10662
      vertex -5 -4.11843 6.375
    endloop
  endfacet
  facet normal 1.42728e-16 -0.766044 -0.642788
    outer loop
      vertex 8 -4.11843 6.375
      vertex 8 -4.73233 7.10662
      vertex -5 -4.11843 6.375
    endloop
  endfacet
  facet normal 1.92296e-16 -0.5 -0.866025
    outer loop
      vertex -5 -5.55944 7.58416
      vertex -5 -4.73233 7.10662
      vertex 8 -5.55944 7.58416
    endloop
  endfacet
  facet normal 1.92296e-16 -0.5 -0.866025
    outer loop
      vertex 8 -5.55944 7.58416
      vertex -5 -4.73233 7.10662
      vertex 8 -4.73233 7.10662
    endloop
  endfacet
  facet normal 2.18671e-16 -0.173648 -0.984808
    outer loop
      vertex -5 -6.5 7.75
      vertex -5 -5.55944 7.58416
      vertex 8 -6.5 7.75
    endloop
  endfacet
  facet normal 2.18671e-16 -0.173648 -0.984808
    outer loop
      vertex 8 -6.5 7.75
      vertex -5 -5.55944 7.58416
      vertex 8 -5.55944 7.58416
    endloop
  endfacet
  facet normal 0 1 0
    outer loop
      vertex 8 3.79178 5.47753
      vertex 8 3.79178 4.52247
      vertex 2.73582 3.79178 5.47753
    endloop
  endfacet
  facet normal 0 1 0
    outer loop
      vertex 2.73582 3.79178 5.47753
      vertex 8 3.79178 4.52247
      vertex 2.73582 3.79178 4.52247
    endloop
  endfacet
  facet normal -7.59436e-17 0.939693 0.34202
    outer loop
      vertex 8 3.79178 4.52247
      vertex 8 4.11843 3.625
      vertex 2.73582 3.79178 4.52247
    endloop
  endfacet
  facet normal -7.59436e-17 0.939693 0.34202
    outer loop
      vertex 2.73582 3.79178 4.52247
      vertex 8 4.11843 3.625
      vertex 2.54722 4.11843 3.625
    endloop
  endfacet
  facet normal -1.42728e-16 -0.766044 0.642788
    outer loop
      vertex -5 -2.16987 2.5
      vertex -7.74722 -2.16987 2.5
      vertex -7.10279 -3.28606 1.16978
    endloop
  endfacet
  facet normal -1.42728e-16 -0.766044 0.642788
    outer loop
      vertex -5 -3.28606 1.16978
      vertex -5 -2.16987 2.5
      vertex -7.10279 -3.28606 1.16978
    endloop
  endfacet
  facet normal -1.92296e-16 -0.5 0.866025
    outer loop
      vertex -5 -3.28606 1.16978
      vertex -7.10279 -3.28606 1.16978
      vertex -6.23455 -4.7899 0.301537
    endloop
  endfacet
  facet normal -1.92296e-16 -0.5 0.866025
    outer loop
      vertex -5 -4.7899 0.301537
      vertex -5 -3.28606 1.16978
      vertex -6.23455 -4.7899 0.301537
    endloop
  endfacet
  facet normal -2.18671e-16 -0.173648 0.984808
    outer loop
      vertex -5 -4.7899 0.301537
      vertex -6.23455 -4.7899 0.301537
      vertex -5.24722 -6.5 1.72146e-15
    endloop
  endfacet
  facet normal -2.18671e-16 -0.173648 0.984808
    outer loop
      vertex -5 -6.5 1.77636e-15
      vertex -5 -4.7899 0.301537
      vertex -5.24722 -6.5 1.72146e-15
    endloop
  endfacet
  facet normal -2.18671e-16 0.173648 0.984808
    outer loop
      vertex -5 -6.5 1.77636e-15
      vertex -5.24722 -6.5 1.72146e-15
      vertex -5 -6.9282 0.0755038
    endloop
  endfacet
  facet normal 0 -1 0
    outer loop
      vertex -2.73582 -3.79178 5.47753
      vertex -5 -3.79178 5.47753
      vertex -5 -3.79178 4.52247
    endloop
  endfacet
  facet normal 0 -1 0
    outer loop
      vertex -2.73582 -3.79178 4.52247
      vertex -2.73582 -3.79178 5.47753
      vertex -5 -3.79178 4.52247
    endloop
  endfacet
  facet normal -7.59436e-17 -0.939693 0.34202
    outer loop
      vertex -2.73582 -3.79178 4.52247
      vertex -5 -3.79178 4.52247
      vertex -5 -4.11843 3.625
    endloop
  endfacet
  facet normal -7.59436e-17 -0.939693 0.34202
    outer loop
      vertex -2.54722 -4.11843 3.625
      vertex -2.73582 -3.79178 4.52247
      vertex -5 -4.11843 3.625
    endloop
  endfacet
  facet normal 0 0 1
    outer loop
      vertex -3.75877 1.36808 15
      vertex -4 0 15
      vertex -3.75877 -1.36808 15
    endloop
  endfacet
  facet normal 0 0 1
    outer loop
      vertex -2 -3.4641 15
      vertex -3.75877 1.36808 15
      vertex -3.06418 -2.57115 15
    endloop
  endfacet
  facet normal 0 0 1
    outer loop
      vertex -3.06418 -2.57115 15
      vertex -3.75877 1.36808 15
      vertex -3.75877 -1.36808 15
    endloop
  endfacet
  facet normal 0 0 1
    outer loop
      vertex -2.58415 -0.940555 15
      vertex -3.75877 1.36808 15
      vertex -2 -3.4641 15
    endloop
  endfacet
  facet normal 0 0 1
    outer loop
      vertex -0.477532 2.70822 15
      vertex 0.477532 2.70822 15
      vertex 2 3.4641 15
    endloop
  endfacet
  facet normal 0 0 1
    outer loop
      vertex 1.375 2.38157 15
      vertex 2.10662 1.76767 15
      vertex 3.06418 2.57115 15
    endloop
  endfacet
  facet normal 0 0 1
    outer loop
      vertex -0.694593 3.93923 15
      vertex -3.75877 1.36808 15
      vertex 0.694593 3.93923 15
    endloop
  endfacet
  facet normal 0 0 1
    outer loop
      vertex -2 3.4641 15
      vertex -3.75877 1.36808 15
      vertex -0.694593 3.93923 15
    endloop
  endfacet
  facet normal 0 0 1
    outer loop
      vertex -3.06418 2.57115 15
      vertex -3.75877 1.36808 15
      vertex -2 3.4641 15
    endloop
  endfacet
  facet normal 0 0 1
    outer loop
      vertex -2.10662 -1.76767 15
      vertex -2.58415 -0.940555 15
      vertex -2 -3.4641 15
    endloop
  endfacet
  facet normal 0 0 1
    outer loop
      vertex 1.375 -2.38157 15
      vertex 0.477532 -2.70822 15
      vertex 2 -3.4641 15
    endloop
  endfacet
  facet normal 0 0 1
    outer loop
      vertex 2.10662 1.76767 15
      vertex 2.58415 0.940555 15
      vertex 3.75877 1.36808 15
    endloop
  endfacet
  facet normal 0 0 1
    outer loop
      vertex 0.477532 -2.70822 15
      vertex -0.477532 -2.70822 15
      vertex 0.694593 -3.93923 15
    endloop
  endfacet
  facet normal 0 0 1
    outer loop
      vertex 0.694593 3.93923 15
      vertex -3.75877 1.36808 15
      vertex -1.375 2.38157 15
    endloop
  endfacet
  facet normal 0 0 1
    outer loop
      vertex 0.694593 3.93923 15
      vertex -0.477532 2.70822 15
      vertex 2 3.4641 15
    endloop
  endfacet
  facet normal 0 0 1
    outer loop
      vertex 0.694593 3.93923 15
      vertex -1.375 2.38157 15
      vertex -0.477532 2.70822 15
    endloop
  endfacet
  facet normal 0 0 1
    outer loop
      vertex 2 3.4641 15
      vertex 0.477532 2.70822 15
      vertex 3.06418 2.57115 15
    endloop
  endfacet
  facet normal 0 0 1
    outer loop
      vertex 0.477532 2.70822 15
      vertex 1.375 2.38157 15
      vertex 3.06418 2.57115 15
    endloop
  endfacet
  facet normal 0 0 1
    outer loop
      vertex 3.06418 2.57115 15
      vertex 2.10662 1.76767 15
      vertex 3.75877 1.36808 15
    endloop
  endfacet
  facet normal 0 0 1
    outer loop
      vertex -2.10662 1.76767 15
      vertex -1.375 2.38157 15
      vertex -3.75877 1.36808 15
    endloop
  endfacet
  facet normal 0 0 1
    outer loop
      vertex 3.75877 1.36808 15
      vertex 2.58415 0.940555 15
      vertex 4 0 15
    endloop
  endfacet
  facet normal 0 0 1
    outer loop
      vertex 4 0 15
      vertex 2.75 0 15
      vertex 3.75877 -1.36808 15
    endloop
  endfacet
  facet normal 0 0 1
    outer loop
      vertex 2.75 0 15
      vertex 2.58415 -0.940555 15
      vertex 3.75877 -1.36808 15
    endloop
  endfacet
  facet normal 0 0 1
    outer loop
      vertex 3.75877 -1.36808 15
      vertex 2.10662 -1.76767 15
      vertex 3.06418 -2.57115 15
    endloop
  endfacet
  facet normal 0 0 1
    outer loop
      vertex 3.06418 -2.57115 15
      vertex 1.375 -2.38157 15
      vertex 2 -3.4641 15
    endloop
  endfacet
  facet normal 0 0 1
    outer loop
      vertex 2.58415 0.940555 15
      vertex 2.75 0 15
      vertex 4 0 15
    endloop
  endfacet
  facet normal 0 0 1
    outer loop
      vertex 2 -3.4641 15
      vertex 0.477532 -2.70822 15
      vertex 0.694593 -3.93923 15
    endloop
  endfacet
  facet normal 0 0 1
    outer loop
      vertex 2.58415 -0.940555 15
      vertex 2.10662 -1.76767 15
      vertex 3.75877 -1.36808 15
    endloop
  endfacet
  facet normal 0 0 1
    outer loop
      vertex 0.694593 -3.93923 15
      vertex -0.477532 -2.70822 15
      vertex -0.694593 -3.93923 15
    endloop
  endfacet
  facet normal 0 0 1
    outer loop
      vertex -0.477532 -2.70822 15
      vertex -1.375 -2.38157 15
      vertex -0.694593 -3.93923 15
    endloop
  endfacet
  facet normal 0 0 1
    outer loop
      vertex -0.694593 -3.93923 15
      vertex -2.10662 -1.76767 15
      vertex -2 -3.4641 15
    endloop
  endfacet
  facet normal 0 0 1
    outer loop
      vertex -2.58415 -0.940555 15
      vertex -2.75 0 15
      vertex -3.75877 1.36808 15
    endloop
  endfacet
  facet normal 0 0 1
    outer loop
      vertex -1.375 -2.38157 15
      vertex -2.10662 -1.76767 15
      vertex -0.694593 -3.93923 15
    endloop
  endfacet
  facet normal 0 0 1
    outer loop
      vertex -2.75 0 15
      vertex -2.58415 0.940555 15
      vertex -3.75877 1.36808 15
    endloop
  endfacet
  facet normal 0 0 1
    outer loop
      vertex 2.10662 -1.76767 15
      vertex 1.375 -2.38157 15
      vertex 3.06418 -2.57115 15
    endloop
  endfacet
  facet normal 0 0 1
    outer loop
      vertex -2.58415 0.940555 15
      vertex -2.10662 1.76767 15
      vertex -3.75877 1.36808 15
    endloop
  endfacet
  facet normal 0.866025 0.5 0
    outer loop
      vertex -2.54722 -4.11843 3.625
      vertex -2.4625 -4.26518 3.45012
      vertex -4.925 0 5.99
    endloop
  endfacet
  facet normal 0.866025 0.5 0
    outer loop
      vertex -4.925 0 5.99
      vertex -2.62813 -3.9783 5.99
      vertex -2.73582 -3.79178 5.47753
    endloop
  endfacet
  facet normal 0.866025 0.5 0
    outer loop
      vertex -2.73582 -3.79178 4.52247
      vertex -4.925 0 5.99
      vertex -2.73582 -3.79178 5.47753
    endloop
  endfacet
  facet normal 0.866025 0.5 0
    outer loop
      vertex -2.73582 -3.79178 4.52247
      vertex -2.54722 -4.11843 3.625
      vertex -4.925 0 5.99
    endloop
  endfacet
  facet normal 0.866025 0.5 0
    outer loop
      vertex -2.4625 -4.26518 3.45012
      vertex -2.4625 -4.26518 0
      vertex -4.925 0 5.99
    endloop
  endfacet
  facet normal 0.866025 0.5 0
    outer loop
      vertex -2.4625 -4.26518 0
      vertex -4.925 0 0
      vertex -4.925 0 5.99
    endloop
  endfacet
  facet normal 0.866025 -0.5 0
    outer loop
      vertex -2.73582 3.79178 4.52247
      vertex -4.925 0 5.99
      vertex -2.4625 4.26518 0
    endloop
  endfacet
  facet normal 0.866025 -0.5 0
    outer loop
      vertex -2.4625 4.26518 0
      vertex -2.4625 4.26518 3.45012
      vertex -2.54722 4.11843 3.625
    endloop
  endfacet
  facet normal 0.866025 -0.5 0
    outer loop
      vertex -2.73582 3.79178 5.47753
      vertex -4.925 0 5.99
      vertex -2.73582 3.79178 4.52247
    endloop
  endfacet
  facet normal 0.866025 -0.5 0
    outer loop
      vertex -2.73582 3.79178 4.52247
      vertex -2.4625 4.26518 0
      vertex -2.54722 4.11843 3.625
    endloop
  endfacet
  facet normal 0.866025 -0.5 0
    outer loop
      vertex -2.62813 3.9783 5.99
      vertex -4.925 0 5.99
      vertex -2.73582 3.79178 5.47753
    endloop
  endfacet
  facet normal 0.866025 -0.5 0
    outer loop
      vertex -4.925 0 5.99
      vertex -4.925 0 0
      vertex -2.4625 4.26518 0
    endloop
  endfacet
  facet normal 0 -1 0
    outer loop
      vertex 2.4625 4.26518 0
      vertex 2.4625 4.26518 3.45012
      vertex -2.4625 4.26518 3.45012
    endloop
  endfacet
  facet normal 0 -1 0
    outer loop
      vertex -2.4625 4.26518 0
      vertex 2.4625 4.26518 0
      vertex -2.4625 4.26518 3.45012
    endloop
  endfacet
  facet normal -0.866025 -0.5 0
    outer loop
      vertex 4.925 0 5.99
      vertex 2.62813 3.9783 5.99
      vertex 4.925 0 0
    endloop
  endfacet
  facet normal -0.866025 -0.5 0
    outer loop
      vertex 4.925 0 0
      vertex 2.62813 3.9783 5.99
      vertex 2.73582 3.79178 5.47753
    endloop
  endfacet
  facet normal -0.866025 -0.5 0
    outer loop
      vertex 4.925 0 0
      vertex 2.73582 3.79178 5.47753
      vertex 2.73582 3.79178 4.52247
    endloop
  endfacet
  facet normal -0.866025 -0.5 0
    outer loop
      vertex 2.73582 3.79178 4.52247
      vertex 2.54722 4.11843 3.625
      vertex 4.925 0 0
    endloop
  endfacet
  facet normal -0.866025 -0.5 0
    outer loop
      vertex 2.54722 4.11843 3.625
      vertex 2.4625 4.26518 3.45012
      vertex 4.925 0 0
    endloop
  endfacet
  facet normal -0.866025 -0.5 0
    outer loop
      vertex 4.925 0 0
      vertex 2.4625 4.26518 3.45012
      vertex 2.4625 4.26518 0
    endloop
  endfacet
  facet normal -0.866025 0.5 0
    outer loop
      vertex 2.54722 -4.11843 3.625
      vertex 4.925 0 5.99
      vertex 2.4625 -4.26518 3.45012
    endloop
  endfacet
  facet normal -0.866025 0.5 0
    outer loop
      vertex 4.925 0 5.99
      vertex 2.73582 -3.79178 4.52247
      vertex 2.73582 -3.79178 5.47753
    endloop
  endfacet
  facet normal -0.866025 0.5 0
    outer loop
      vertex 4.925 0 5.99
      vertex 2.73582 -3.79178 5.47753
      vertex 2.62813 -3.9783 5.99
    endloop
  endfacet
  facet normal -0.866025 0.5 0
    outer loop
      vertex 2.54722 -4.11843 3.625
      vertex 2.73582 -3.79178 4.52247
      vertex 4.925 0 5.99
    endloop
  endfacet
  facet normal -0.866025 0.5 0
    outer loop
      vertex 4.925 0 5.99
      vertex 4.925 0 0
      vertex 2.4625 -4.26518 3.45012
    endloop
  endfacet
  facet normal -0.866025 0.5 0
    outer loop
      vertex 4.925 0 0
      vertex 2.4625 -4.26518 0
      vertex 2.4625 -4.26518 3.45012
    endloop
  endfacet
  facet normal 0 1 0
    outer loop
      vertex 2.4625 -4.26518 3.45012
      vertex 2.4625 -4.26518 0
      vertex -2.4625 -4.26518 3.45012
    endloop
  endfacet
  facet normal 0 1 0
    outer loop
      vertex -2.4625 -4.26518 3.45012
      vertex 2.4625 -4.26518 0
      vertex -2.4625 -4.26518 0
    endloop
  endfacet
  facet normal 0 0 -1
    outer loop
      vertex 2.62813 3.9783 5.99
      vertex 4.925 0 5.99
      vertex -2.62813 3.9783 5.99
    endloop
  endfacet
  facet normal 0 0 -1
    outer loop
      vertex -2.62813 3.9783 5.99
      vertex 4.925 0 5.99
      vertex 2.62813 -3.9783 5.99
    endloop
  endfacet
  facet normal 0 0 -1
    outer loop
      vertex -2.62813 3.9783 5.99
      vertex 2.62813 -3.9783 5.99
      vertex -2.62813 -3.9783 5.99
    endloop
  endfacet
  facet normal 0 0 -1
    outer loop
      vertex -2.62813 3.9783 5.99
      vertex -2.62813 -3.9783 5.99
      vertex -4.925 0 5.99
    endloop
  endfacet
  facet normal 0.984808 0.173648 0
    outer loop
      vertex -2.75 0 15
      vertex -2.58415 -0.940555 15
      vertex -2.58415 -0.940555 6.3
    endloop
  endfacet
  facet normal 0.984808 0.173648 0
    outer loop
      vertex -2.75 0 6.3
      vertex -2.75 0 15
      vertex -2.58415 -0.940555 6.3
    endloop
  endfacet
  facet normal 0.866025 0.5 0
    outer loop
      vertex -2.58415 -0.940555 15
      vertex -2.10662 -1.76767 15
      vertex -2.10662 -1.76767 6.3
    endloop
  endfacet
  facet normal 0.866025 0.5 0
    outer loop
      vertex -2.58415 -0.940555 6.3
      vertex -2.58415 -0.940555 15
      vertex -2.10662 -1.76767 6.3
    endloop
  endfacet
  facet normal 0.642788 0.766044 0
    outer loop
      vertex -1.375 -2.38157 15
      vertex -1.375 -2.38157 6.3
      vertex -2.10662 -1.76767 15
    endloop
  endfacet
  facet normal 0.642788 0.766044 0
    outer loop
      vertex -2.10662 -1.76767 15
      vertex -1.375 -2.38157 6.3
      vertex -2.10662 -1.76767 6.3
    endloop
  endfacet
  facet normal 0.34202 0.939693 0
    outer loop
      vertex -0.477532 -2.70822 15
      vertex -0.477532 -2.70822 6.3
      vertex -1.375 -2.38157 15
    endloop
  endfacet
  facet normal 0.34202 0.939693 0
    outer loop
      vertex -1.375 -2.38157 15
      vertex -0.477532 -2.70822 6.3
      vertex -1.375 -2.38157 6.3
    endloop
  endfacet
  facet normal 0 1 0
    outer loop
      vertex 0.477532 -2.70822 15
      vertex 0.477532 -2.70822 6.3
      vertex -0.477532 -2.70822 15
    endloop
  endfacet
  facet normal 0 1 0
    outer loop
      vertex -0.477532 -2.70822 15
      vertex 0.477532 -2.70822 6.3
      vertex -0.477532 -2.70822 6.3
    endloop
  endfacet
  facet normal -0.34202 0.939693 0
    outer loop
      vertex 1.375 -2.38157 15
      vertex 1.375 -2.38157 6.3
      vertex 0.477532 -2.70822 15
    endloop
  endfacet
  facet normal -0.34202 0.939693 0
    outer loop
      vertex 0.477532 -2.70822 15
      vertex 1.375 -2.38157 6.3
      vertex 0.477532 -2.70822 6.3
    endloop
  endfacet
  facet normal -0.642788 0.766044 0
    outer loop
      vertex 2.10662 -1.76767 15
      vertex 2.10662 -1.76767 6.3
      vertex 1.375 -2.38157 15
    endloop
  endfacet
  facet normal -0.642788 0.766044 0
    outer loop
      vertex 1.375 -2.38157 15
      vertex 2.10662 -1.76767 6.3
      vertex 1.375 -2.38157 6.3
    endloop
  endfacet
  facet normal -0.866025 0.5 0
    outer loop
      vertex 2.58415 -0.940555 15
      vertex 2.58415 -0.940555 6.3
      vertex 2.10662 -1.76767 15
    endloop
  endfacet
  facet normal -0.866025 0.5 0
    outer loop
      vertex 2.10662 -1.76767 15
      vertex 2.58415 -0.940555 6.3
      vertex 2.10662 -1.76767 6.3
    endloop
  endfacet
  facet normal -0.984808 0.173648 0
    outer loop
      vertex 2.75 0 15
      vertex 2.75 0 6.3
      vertex 2.58415 -0.940555 15
    endloop
  endfacet
  facet normal -0.984808 0.173648 0
    outer loop
      vertex 2.58415 -0.940555 15
      vertex 2.75 0 6.3
      vertex 2.58415 -0.940555 6.3
    endloop
  endfacet
  facet normal -0.984808 -0.173648 0
    outer loop
      vertex 2.75 0 15
      vertex 2.58415 0.940555 15
      vertex 2.75 0 6.3
    endloop
  endfacet
  facet normal -0.984808 -0.173648 0
    outer loop
      vertex 2.75 0 6.3
      vertex 2.58415 0.940555 15
      vertex 2.58415 0.940555 6.3
    endloop
  endfacet
  facet normal -0.866025 -0.5 0
    outer loop
      vertex 2.58415 0.940555 15
      vertex 2.10662 1.76767 15
      vertex 2.58415 0.940555 6.3
    endloop
  endfacet
  facet normal -0.866025 -0.5 0
    outer loop
      vertex 2.58415 0.940555 6.3
      vertex 2.10662 1.76767 15
      vertex 2.10662 1.76767 6.3
    endloop
  endfacet
  facet normal -0.642788 -0.766044 0
    outer loop
      vertex 2.10662 1.76767 6.3
      vertex 2.10662 1.76767 15
      vertex 1.375 2.38157 15
    endloop
  endfacet
  facet normal -0.642788 -0.766044 0
    outer loop
      vertex 1.375 2.38157 6.3
      vertex 2.10662 1.76767 6.3
      vertex 1.375 2.38157 15
    endloop
  endfacet
  facet normal -0.34202 -0.939693 0
    outer loop
      vertex 1.375 2.38157 6.3
      vertex 1.375 2.38157 15
      vertex 0.477532 2.70822 15
    endloop
  endfacet
  facet normal -0.34202 -0.939693 0
    outer loop
      vertex 0.477532 2.70822 6.3
      vertex 1.375 2.38157 6.3
      vertex 0.477532 2.70822 15
    endloop
  endfacet
  facet normal 0 -1 0
    outer loop
      vertex 0.477532 2.70822 6.3
      vertex 0.477532 2.70822 15
      vertex -0.477532 2.70822 15
    endloop
  endfacet
  facet normal 0 -1 0
    outer loop
      vertex -0.477532 2.70822 6.3
      vertex 0.477532 2.70822 6.3
      vertex -0.477532 2.70822 15
    endloop
  endfacet
  facet normal 0.34202 -0.939693 0
    outer loop
      vertex -0.477532 2.70822 6.3
      vertex -0.477532 2.70822 15
      vertex -1.375 2.38157 15
    endloop
  endfacet
  facet normal 0.34202 -0.939693 0
    outer loop
      vertex -1.375 2.38157 6.3
      vertex -0.477532 2.70822 6.3
      vertex -1.375 2.38157 15
    endloop
  endfacet
  facet normal 0.642788 -0.766044 0
    outer loop
      vertex -1.375 2.38157 6.3
      vertex -1.375 2.38157 15
      vertex -2.10662 1.76767 15
    endloop
  endfacet
  facet normal 0.642788 -0.766044 0
    outer loop
      vertex -2.10662 1.76767 6.3
      vertex -1.375 2.38157 6.3
      vertex -2.10662 1.76767 15
    endloop
  endfacet
  facet normal 0.866025 -0.5 0
    outer loop
      vertex -2.10662 1.76767 6.3
      vertex -2.10662 1.76767 15
      vertex -2.58415 0.940555 15
    endloop
  endfacet
  facet normal 0.866025 -0.5 0
    outer loop
      vertex -2.58415 0.940555 6.3
      vertex -2.10662 1.76767 6.3
      vertex -2.58415 0.940555 15
    endloop
  endfacet
  facet normal 0.984808 -0.173648 0
    outer loop
      vertex -2.58415 0.940555 6.3
      vertex -2.58415 0.940555 15
      vertex -2.75 0 15
    endloop
  endfacet
  facet normal 0.984808 -0.173648 0
    outer loop
      vertex -2.75 0 6.3
      vertex -2.58415 0.940555 6.3
      vertex -2.75 0 15
    endloop
  endfacet
  facet normal 0 0 1
    outer loop
      vertex -2.58415 -0.940555 6.3
      vertex -2.10662 -1.76767 6.3
      vertex -1.375 -2.38157 6.3
    endloop
  endfacet
  facet normal 0 0 1
    outer loop
      vertex 0.477532 -2.70822 6.3
      vertex -2.58415 -0.940555 6.3
      vertex -0.477532 -2.70822 6.3
    endloop
  endfacet
  facet normal 0 0 1
    outer loop
      vertex -0.477532 -2.70822 6.3
      vertex -2.58415 -0.940555 6.3
      vertex -1.375 -2.38157 6.3
    endloop
  endfacet
  facet normal 0 0 1
    outer loop
      vertex 1.375 -2.38157 6.3
      vertex -2.58415 -0.940555 6.3
      vertex 0.477532 -2.70822 6.3
    endloop
  endfacet
  facet normal 0 0 1
    outer loop
      vertex 2.10662 -1.76767 6.3
      vertex -2.58415 -0.940555 6.3
      vertex 1.375 -2.38157 6.3
    endloop
  endfacet
  facet normal 0 0 1
    outer loop
      vertex 2.58415 -0.940555 6.3
      vertex -2.58415 -0.940555 6.3
      vertex 2.10662 -1.76767 6.3
    endloop
  endfacet
  facet normal 0 0 1
    outer loop
      vertex 2.75 0 6.3
      vertex -2.58415 -0.940555 6.3
      vertex 2.58415 -0.940555 6.3
    endloop
  endfacet
  facet normal 0 0 1
    outer loop
      vertex 2.58415 0.940555 6.3
      vertex -2.58415 -0.940555 6.3
      vertex 2.75 0 6.3
    endloop
  endfacet
  facet normal 0 0 1
    outer loop
      vertex 2.10662 1.76767 6.3
      vertex -2.58415 -0.940555 6.3
      vertex 2.58415 0.940555 6.3
    endloop
  endfacet
  facet normal 0 0 1
    outer loop
      vertex 1.375 2.38157 6.3
      vertex -2.58415 -0.940555 6.3
      vertex 2.10662 1.76767 6.3
    endloop
  endfacet
  facet normal 0 0 1
    outer loop
      vertex 0.477532 2.70822 6.3
      vertex -2.58415 -0.940555 6.3
      vertex 1.375 2.38157 6.3
    endloop
  endfacet
  facet normal 0 0 1
    outer loop
      vertex -0.477532 2.70822 6.3
      vertex -2.58415 -0.940555 6.3
      vertex 0.477532 2.70822 6.3
    endloop
  endfacet
  facet normal 0 0 1
    outer loop
      vertex -1.375 2.38157 6.3
      vertex -2.58415 -0.940555 6.3
      vertex -0.477532 2.70822 6.3
    endloop
  endfacet
  facet normal 0 0 1
    outer loop
      vertex -2.10662 1.76767 6.3
      vertex -2.58415 -0.940555 6.3
      vertex -1.375 2.38157 6.3
    endloop
  endfacet
  facet normal 0 0 1
    outer loop
      vertex -2.58415 0.940555 6.3
      vertex -2.58415 -0.940555 6.3
      vertex -2.10662 1.76767 6.3
    endloop
  endfacet
  facet normal 0 0 1
    outer loop
      vertex -2.75 0 6.3
      vertex -2.58415 -0.940555 6.3
      vertex -2.58415 0.940555 6.3
    endloop
  endfacet
endsolid OpenSCAD_Model
