solid OpenSCAD_Model
  facet normal -0.866025 0.5 0
    outer loop
      vertex -4.3685 8.02199 0.818368
      vertex -4.19825 8.31687 0
      vertex -5.24722 6.5 0.55
    endloop
  endfacet
  facet normal -0.866025 0.5 0
    outer loop
      vertex -5.24722 6.5 9.45
      vertex -9 0 10
      vertex -4.19825 8.31687 10
    endloop
  endfacet
  facet normal -0.866025 0.5 0
    outer loop
      vertex -3.02222 10.3538 7.225
      vertex -4.19825 8.31687 10
      vertex -1.3115 13.3169 5
    endloop
  endfacet
  facet normal -0.866025 0.5 0
    outer loop
      vertex -9 0 0
      vertex -9 0 10
      vertex -7.7774 2.11761 5.77273
    endloop
  endfacet
  facet normal -0.866025 0.5 0
    outer loop
      vertex -9 0 0
      vertex -7.7774 2.11761 5.77273
      vertex -7.7774 2.11761 4.22727
    endloop
  endfacet
  facet normal -0.866025 0.5 0
    outer loop
      vertex -9 0 0
      vertex -7.7774 2.11761 4.22727
      vertex -7.47222 2.64619 2.775
    endloop
  endfacet
  facet normal -0.866025 0.5 0
    outer loop
      vertex -9 0 0
      vertex -7.47222 2.64619 2.775
      vertex -6.89868 3.63959 1.5911
    endloop
  endfacet
  facet normal -0.866025 0.5 0
    outer loop
      vertex -9 0 0
      vertex -6.89868 3.63959 1.5911
      vertex -6.12594 4.97801 0.818368
    endloop
  endfacet
  facet normal -0.866025 0.5 0
    outer loop
      vertex -9 0 0
      vertex -6.12594 4.97801 0.818368
      vertex -4.19825 8.31687 0
    endloop
  endfacet
  facet normal -0.866025 0.5 0
    outer loop
      vertex -6.12594 4.97801 0.818368
      vertex -5.24722 6.5 0.55
      vertex -4.19825 8.31687 0
    endloop
  endfacet
  facet normal -0.866025 0.5 0
    outer loop
      vertex -3.59577 9.36041 8.4089
      vertex -4.19825 8.31687 10
      vertex -3.02222 10.3538 7.225
    endloop
  endfacet
  facet normal -0.866025 0.5 0
    outer loop
      vertex -4.19825 8.31687 0
      vertex -3.59577 9.36041 1.5911
      vertex -1.3115 13.3169 5
    endloop
  endfacet
  facet normal -0.866025 0.5 0
    outer loop
      vertex -3.59577 9.36041 1.5911
      vertex -3.02222 10.3538 2.775
      vertex -1.3115 13.3169 5
    endloop
  endfacet
  facet normal -0.866025 0.5 0
    outer loop
      vertex -3.02222 10.3538 2.775
      vertex -3 10.3923 2.88075
      vertex -1.3115 13.3169 5
    endloop
  endfacet
  facet normal -0.866025 0.5 0
    outer loop
      vertex -4.3685 8.02199 9.18163
      vertex -4.19825 8.31687 10
      vertex -3.59577 9.36041 8.4089
    endloop
  endfacet
  facet normal -0.866025 0.5 0
    outer loop
      vertex -3 10.3923 2.88075
      vertex -3 10.3923 7.11925
      vertex -1.3115 13.3169 5
    endloop
  endfacet
  facet normal -0.866025 0.5 0
    outer loop
      vertex -3 10.3923 7.11925
      vertex -3.02222 10.3538 7.225
      vertex -1.3115 13.3169 5
    endloop
  endfacet
  facet normal -0.866025 0.5 0
    outer loop
      vertex -6.12594 4.97801 9.18163
      vertex -9 0 10
      vertex -5.24722 6.5 9.45
    endloop
  endfacet
  facet normal -0.866025 0.5 0
    outer loop
      vertex -4.3685 8.02199 9.18163
      vertex -5.24722 6.5 9.45
      vertex -4.19825 8.31687 10
    endloop
  endfacet
  facet normal -0.866025 0.5 0
    outer loop
      vertex -6.89868 3.63959 8.4089
      vertex -9 0 10
      vertex -6.12594 4.97801 9.18163
    endloop
  endfacet
  facet normal -0.866025 0.5 0
    outer loop
      vertex -7.47222 2.64619 7.225
      vertex -9 0 10
      vertex -6.89868 3.63959 8.4089
    endloop
  endfacet
  facet normal -0.866025 0.5 0
    outer loop
      vertex -7.7774 2.11761 5.77273
      vertex -9 0 10
      vertex -7.47222 2.64619 7.225
    endloop
  endfacet
  facet normal -0.866025 0.5 0
    outer loop
      vertex -3.59577 9.36041 1.5911
      vertex -4.19825 8.31687 0
      vertex -4.3685 8.02199 0.818368
    endloop
  endfacet
  facet normal -0.866025 -0.5 0
    outer loop
      vertex -3.02222 -10.3538 2.775
      vertex -4.19825 -8.31687 0
      vertex -1.3115 -13.3169 5
    endloop
  endfacet
  facet normal -0.866025 -0.5 0
    outer loop
      vertex -3.59577 -9.36041 8.4089
      vertex -1.3115 -13.3169 5
      vertex -4.19825 -8.31687 10
    endloop
  endfacet
  facet normal -0.866025 -0.5 0
    outer loop
      vertex -9 0 0
      vertex -7.7774 -2.11761 4.22727
      vertex -9 0 10
    endloop
  endfacet
  facet normal -0.866025 -0.5 0
    outer loop
      vertex -7.7774 -2.11761 4.22727
      vertex -7.7774 -2.11761 5.77273
      vertex -9 0 10
    endloop
  endfacet
  facet normal -0.866025 -0.5 0
    outer loop
      vertex -6.12594 -4.97801 9.18163
      vertex -9 0 10
      vertex -6.89868 -3.63959 8.4089
    endloop
  endfacet
  facet normal -0.866025 -0.5 0
    outer loop
      vertex -9 0 10
      vertex -7.47222 -2.64619 7.225
      vertex -6.89868 -3.63959 8.4089
    endloop
  endfacet
  facet normal -0.866025 -0.5 0
    outer loop
      vertex -3.02222 -10.3538 7.225
      vertex -1.3115 -13.3169 5
      vertex -3.59577 -9.36041 8.4089
    endloop
  endfacet
  facet normal -0.866025 -0.5 0
    outer loop
      vertex -9 0 10
      vertex -6.12594 -4.97801 9.18163
      vertex -4.19825 -8.31687 10
    endloop
  endfacet
  facet normal -0.866025 -0.5 0
    outer loop
      vertex -6.12594 -4.97801 9.18163
      vertex -5.24722 -6.5 9.45
      vertex -4.19825 -8.31687 10
    endloop
  endfacet
  facet normal -0.866025 -0.5 0
    outer loop
      vertex -3 -10.3923 2.88075
      vertex -1.3115 -13.3169 5
      vertex -3 -10.3923 7.11925
    endloop
  endfacet
  facet normal -0.866025 -0.5 0
    outer loop
      vertex -5.24722 -6.5 9.45
      vertex -4.3685 -8.02199 9.18163
      vertex -4.19825 -8.31687 10
    endloop
  endfacet
  facet normal -0.866025 -0.5 0
    outer loop
      vertex -4.3685 -8.02199 9.18163
      vertex -3.59577 -9.36041 8.4089
      vertex -4.19825 -8.31687 10
    endloop
  endfacet
  facet normal -0.866025 -0.5 0
    outer loop
      vertex -3 -10.3923 7.11925
      vertex -1.3115 -13.3169 5
      vertex -3.02222 -10.3538 7.225
    endloop
  endfacet
  facet normal -0.866025 -0.5 0
    outer loop
      vertex -5.24722 -6.5 0.55
      vertex -4.19825 -8.31687 0
      vertex -4.3685 -8.02199 0.818368
    endloop
  endfacet
  facet normal -0.866025 -0.5 0
    outer loop
      vertex -3.59577 -9.36041 1.5911
      vertex -4.19825 -8.31687 0
      vertex -3.02222 -10.3538 2.775
    endloop
  endfacet
  facet normal -0.866025 -0.5 0
    outer loop
      vertex -3 -10.3923 2.88075
      vertex -3.02222 -10.3538 2.775
      vertex -1.3115 -13.3169 5
    endloop
  endfacet
  facet normal -0.866025 -0.5 0
    outer loop
      vertex -4.3685 -8.02199 0.818368
      vertex -4.19825 -8.31687 0
      vertex -3.59577 -9.36041 1.5911
    endloop
  endfacet
  facet normal -0.866025 -0.5 0
    outer loop
      vertex -9 0 0
      vertex -4.19825 -8.31687 0
      vertex -5.24722 -6.5 0.55
    endloop
  endfacet
  facet normal -0.866025 -0.5 0
    outer loop
      vertex -9 0 0
      vertex -5.24722 -6.5 0.55
      vertex -6.12594 -4.97801 0.818368
    endloop
  endfacet
  facet normal -0.866025 -0.5 0
    outer loop
      vertex -9 0 0
      vertex -6.12594 -4.97801 0.818368
      vertex -6.89868 -3.63959 1.5911
    endloop
  endfacet
  facet normal -0.866025 -0.5 0
    outer loop
      vertex -9 0 0
      vertex -6.89868 -3.63959 1.5911
      vertex -7.47222 -2.64619 2.775
    endloop
  endfacet
  facet normal -0.866025 -0.5 0
    outer loop
      vertex -9 0 0
      vertex -7.47222 -2.64619 2.775
      vertex -7.7774 -2.11761 4.22727
    endloop
  endfacet
  facet normal -0.866025 -0.5 0
    outer loop
      vertex -7.47222 -2.64619 7.225
      vertex -9 0 10
      vertex -7.7774 -2.11761 5.77273
    endloop
  endfacet
  facet normal 0 0 -1
    outer loop
      vertex -2.35 -4.07032 0
      vertex -4.19825 -8.31687 0
      vertex -4.7 0 0
    endloop
  endfacet
  facet normal 0 0 -1
    outer loop
      vertex 2.35 4.07032 0
      vertex -4.19825 8.31687 0
      vertex 10 8.31687 0
    endloop
  endfacet
  facet normal 0 0 -1
    outer loop
      vertex 2.35 -4.07032 0
      vertex 10 8.31687 0
      vertex 10 -8.31687 0
    endloop
  endfacet
  facet normal 0 0 -1
    outer loop
      vertex -9 0 0
      vertex -4.19825 8.31687 0
      vertex -4.7 0 0
    endloop
  endfacet
  facet normal 0 0 -1
    outer loop
      vertex -9 0 0
      vertex -4.7 0 0
      vertex -4.19825 -8.31687 0
    endloop
  endfacet
  facet normal 0 0 -1
    outer loop
      vertex 4.7 0 0
      vertex 10 8.31687 0
      vertex 2.35 -4.07032 0
    endloop
  endfacet
  facet normal 0 0 -1
    outer loop
      vertex -4.19825 -8.31687 0
      vertex 2.35 -4.07032 0
      vertex 10 -8.31687 0
    endloop
  endfacet
  facet normal 0 0 -1
    outer loop
      vertex 2.35 4.07032 0
      vertex 10 8.31687 0
      vertex 4.7 0 0
    endloop
  endfacet
  facet normal 0 0 -1
    outer loop
      vertex -2.35 4.07032 0
      vertex -4.19825 8.31687 0
      vertex 2.35 4.07032 0
    endloop
  endfacet
  facet normal 0 0 -1
    outer loop
      vertex -4.7 0 0
      vertex -4.19825 8.31687 0
      vertex -2.35 4.07032 0
    endloop
  endfacet
  facet normal 0 0 -1
    outer loop
      vertex 2.35 -4.07032 0
      vertex -4.19825 -8.31687 0
      vertex -2.35 -4.07032 0
    endloop
  endfacet
  facet normal 1.57009e-16 0.707107 -0.707107
    outer loop
      vertex -4.19825 8.31687 0
      vertex -1.3115 13.3169 5
      vertex 10 8.31687 0
    endloop
  endfacet
  facet normal 1.57009e-16 0.707107 -0.707107
    outer loop
      vertex 10 8.31687 0
      vertex -1.3115 13.3169 5
      vertex 10 13.3169 5
    endloop
  endfacet
  facet normal -1.57009e-16 0.707107 0.707107
    outer loop
      vertex -4.19825 8.31687 10
      vertex 10 8.31687 10
      vertex -1.3115 13.3169 5
    endloop
  endfacet
  facet normal -1.57009e-16 0.707107 0.707107
    outer loop
      vertex -1.3115 13.3169 5
      vertex 10 8.31687 10
      vertex 10 13.3169 5
    endloop
  endfacet
  facet normal 0 0 1
    outer loop
      vertex -5.53009 -2.01279 10
      vertex -9 0 10
      vertex -4.19825 -8.31687 10
    endloop
  endfacet
  facet normal 0 0 1
    outer loop
      vertex 5.53009 2.01279 10
      vertex 5.65071 1.32875 10
      vertex 10 -8.31687 10
    endloop
  endfacet
  facet normal 0 0 1
    outer loop
      vertex -5.76438 0.68404 10
      vertex -9 0 10
      vertex -5.885 0 10
    endloop
  endfacet
  facet normal 0 0 1
    outer loop
      vertex -4.50817 3.7828 10
      vertex -3.97608 4.22928 10
      vertex -4.19825 8.31687 10
    endloop
  endfacet
  facet normal 0 0 1
    outer loop
      vertex -5.53009 2.01279 10
      vertex -9 0 10
      vertex -5.76438 0.68404 10
    endloop
  endfacet
  facet normal 0 0 1
    outer loop
      vertex -2.2898 5.33412 10
      vertex -1.02192 5.79559 10
      vertex -4.19825 8.31687 10
    endloop
  endfacet
  facet normal 0 0 1
    outer loop
      vertex -4.19825 8.31687 10
      vertex -9 0 10
      vertex -5.53009 2.01279 10
    endloop
  endfacet
  facet normal 0 0 1
    outer loop
      vertex -4.85547 -3.18127 10
      vertex -5.53009 -2.01279 10
      vertex -4.19825 -8.31687 10
    endloop
  endfacet
  facet normal 0 0 1
    outer loop
      vertex -4.50817 -3.7828 10
      vertex -4.85547 -3.18127 10
      vertex -4.19825 -8.31687 10
    endloop
  endfacet
  facet normal 0 0 1
    outer loop
      vertex -4.19825 8.31687 10
      vertex -5.18279 2.61432 10
      vertex -4.50817 3.7828 10
    endloop
  endfacet
  facet normal 0 0 1
    outer loop
      vertex -2.9425 5.09656 10
      vertex -4.19825 8.31687 10
      vertex -3.97608 4.22928 10
    endloop
  endfacet
  facet normal 0 0 1
    outer loop
      vertex -2.2898 5.33412 10
      vertex -4.19825 8.31687 10
      vertex -2.9425 5.09656 10
    endloop
  endfacet
  facet normal 0 0 1
    outer loop
      vertex 1.02192 -5.79559 10
      vertex -1.02192 -5.79559 10
      vertex -4.19825 -8.31687 10
    endloop
  endfacet
  facet normal 0 0 1
    outer loop
      vertex 5.885 0 10
      vertex 5.76438 -0.68404 10
      vertex 10 -8.31687 10
    endloop
  endfacet
  facet normal 0 0 1
    outer loop
      vertex 10 8.31687 10
      vertex -4.19825 8.31687 10
      vertex -1.02192 5.79559 10
    endloop
  endfacet
  facet normal 0 0 1
    outer loop
      vertex 5.53009 -2.01279 10
      vertex 5.18279 -2.61432 10
      vertex 10 -8.31687 10
    endloop
  endfacet
  facet normal 0 0 1
    outer loop
      vertex 10 8.31687 10
      vertex -1.02192 5.79559 10
      vertex 1.02192 5.79559 10
    endloop
  endfacet
  facet normal 0 0 1
    outer loop
      vertex 10 8.31687 10
      vertex 1.02192 5.79559 10
      vertex 1.67462 5.55803 10
    endloop
  endfacet
  facet normal 0 0 1
    outer loop
      vertex 10 8.31687 10
      vertex 1.67462 5.55803 10
      vertex 2.9425 5.09656 10
    endloop
  endfacet
  facet normal 0 0 1
    outer loop
      vertex 5.76438 -0.68404 10
      vertex 5.53009 -2.01279 10
      vertex 10 -8.31687 10
    endloop
  endfacet
  facet normal 0 0 1
    outer loop
      vertex 10 8.31687 10
      vertex 2.9425 5.09656 10
      vertex 3.47459 4.65008 10
    endloop
  endfacet
  facet normal 0 0 1
    outer loop
      vertex 10 8.31687 10
      vertex 3.47459 4.65008 10
      vertex 4.50817 3.7828 10
    endloop
  endfacet
  facet normal 0 0 1
    outer loop
      vertex 5.65071 1.32875 10
      vertex 5.885 0 10
      vertex 10 -8.31687 10
    endloop
  endfacet
  facet normal 0 0 1
    outer loop
      vertex 10 8.31687 10
      vertex 4.50817 3.7828 10
      vertex 4.85547 3.18127 10
    endloop
  endfacet
  facet normal 0 0 1
    outer loop
      vertex 10 8.31687 10
      vertex 5.53009 2.01279 10
      vertex 10 -8.31687 10
    endloop
  endfacet
  facet normal 0 0 1
    outer loop
      vertex 10 8.31687 10
      vertex 4.85547 3.18127 10
      vertex 5.53009 2.01279 10
    endloop
  endfacet
  facet normal 0 0 1
    outer loop
      vertex -3.47459 -4.65008 10
      vertex -4.50817 -3.7828 10
      vertex -4.19825 -8.31687 10
    endloop
  endfacet
  facet normal 0 0 1
    outer loop
      vertex 10 -8.31687 10
      vertex 4.50817 -3.7828 10
      vertex 3.97608 -4.22928 10
    endloop
  endfacet
  facet normal 0 0 1
    outer loop
      vertex 10 -8.31687 10
      vertex 2.9425 -5.09656 10
      vertex -4.19825 -8.31687 10
    endloop
  endfacet
  facet normal 0 0 1
    outer loop
      vertex 10 -8.31687 10
      vertex 3.97608 -4.22928 10
      vertex 2.9425 -5.09656 10
    endloop
  endfacet
  facet normal 0 0 1
    outer loop
      vertex 2.9425 -5.09656 10
      vertex 2.2898 -5.33412 10
      vertex -4.19825 -8.31687 10
    endloop
  endfacet
  facet normal 0 0 1
    outer loop
      vertex 2.2898 -5.33412 10
      vertex 1.02192 -5.79559 10
      vertex -4.19825 -8.31687 10
    endloop
  endfacet
  facet normal 0 0 1
    outer loop
      vertex -1.02192 -5.79559 10
      vertex -1.67462 -5.55803 10
      vertex -4.19825 -8.31687 10
    endloop
  endfacet
  facet normal 0 0 1
    outer loop
      vertex -1.67462 -5.55803 10
      vertex -2.9425 -5.09656 10
      vertex -4.19825 -8.31687 10
    endloop
  endfacet
  facet normal 0 0 1
    outer loop
      vertex -2.9425 -5.09656 10
      vertex -3.47459 -4.65008 10
      vertex -4.19825 -8.31687 10
    endloop
  endfacet
  facet normal 0 0 1
    outer loop
      vertex -5.65071 -1.32875 10
      vertex -9 0 10
      vertex -5.53009 -2.01279 10
    endloop
  endfacet
  facet normal 0 0 1
    outer loop
      vertex -5.885 0 10
      vertex -9 0 10
      vertex -5.65071 -1.32875 10
    endloop
  endfacet
  facet normal 0 0 1
    outer loop
      vertex -5.53009 2.01279 10
      vertex -5.18279 2.61432 10
      vertex -4.19825 8.31687 10
    endloop
  endfacet
  facet normal 0 0 1
    outer loop
      vertex 5.18279 -2.61432 10
      vertex 4.50817 -3.7828 10
      vertex 10 -8.31687 10
    endloop
  endfacet
  facet normal 7.59438e-17 0.939693 -0.34202
    outer loop
      vertex -3 2.64619 7.225
      vertex -3 2.19668 5.99
      vertex -7.47222 2.64619 7.225
    endloop
  endfacet
  facet normal 7.59438e-17 0.939693 -0.34202
    outer loop
      vertex -7.47222 2.64619 7.225
      vertex -3 2.19668 5.99
      vertex -3.43174 2.19668 5.99
    endloop
  endfacet
  facet normal 7.59438e-17 0.939693 -0.34202
    outer loop
      vertex -7.47222 2.64619 7.225
      vertex -3.43174 2.19668 5.99
      vertex -3.4774 2.11761 5.77273
    endloop
  endfacet
  facet normal 7.59438e-17 0.939693 -0.34202
    outer loop
      vertex -7.47222 2.64619 7.225
      vertex -3.4774 2.11761 5.77273
      vertex -7.7774 2.11761 5.77273
    endloop
  endfacet
  facet normal 0 1 0
    outer loop
      vertex -3.4774 2.11761 5.77273
      vertex -3.4774 2.11761 4.22727
      vertex -7.7774 2.11761 5.77273
    endloop
  endfacet
  facet normal 0 1 0
    outer loop
      vertex -7.7774 2.11761 5.77273
      vertex -3.4774 2.11761 4.22727
      vertex -7.7774 2.11761 4.22727
    endloop
  endfacet
  facet normal 1.42727e-16 0.766045 -0.642787
    outer loop
      vertex -3 3.63959 8.4089
      vertex -3 2.64619 7.225
      vertex -6.89868 3.63959 8.4089
    endloop
  endfacet
  facet normal 1.42727e-16 0.766045 -0.642787
    outer loop
      vertex -6.89868 3.63959 8.4089
      vertex -3 2.64619 7.225
      vertex -7.47222 2.64619 7.225
    endloop
  endfacet
  facet normal 1.92296e-16 0.5 -0.866025
    outer loop
      vertex -3 4.97801 9.18163
      vertex -3 3.63959 8.4089
      vertex -6.12594 4.97801 9.18163
    endloop
  endfacet
  facet normal 1.92296e-16 0.5 -0.866025
    outer loop
      vertex -6.12594 4.97801 9.18163
      vertex -3 3.63959 8.4089
      vertex -6.89868 3.63959 8.4089
    endloop
  endfacet
  facet normal 2.18671e-16 0.173648 -0.984808
    outer loop
      vertex -3 6.5 9.45
      vertex -3 4.97801 9.18163
      vertex -5.24722 6.5 9.45
    endloop
  endfacet
  facet normal 2.18671e-16 0.173648 -0.984808
    outer loop
      vertex -5.24722 6.5 9.45
      vertex -3 4.97801 9.18163
      vertex -6.12594 4.97801 9.18163
    endloop
  endfacet
  facet normal 2.18671e-16 -0.173648 -0.984808
    outer loop
      vertex -3 8.02199 9.18163
      vertex -3 6.5 9.45
      vertex -4.3685 8.02199 9.18163
    endloop
  endfacet
  facet normal 2.18671e-16 -0.173648 -0.984808
    outer loop
      vertex -4.3685 8.02199 9.18163
      vertex -3 6.5 9.45
      vertex -5.24722 6.5 9.45
    endloop
  endfacet
  facet normal 1.92296e-16 -0.5 -0.866025
    outer loop
      vertex -3 9.36041 8.4089
      vertex -3 8.02199 9.18163
      vertex -3.59577 9.36041 8.4089
    endloop
  endfacet
  facet normal 1.92296e-16 -0.5 -0.866025
    outer loop
      vertex -3.59577 9.36041 8.4089
      vertex -3 8.02199 9.18163
      vertex -4.3685 8.02199 9.18163
    endloop
  endfacet
  facet normal 1.42727e-16 -0.766045 -0.642787
    outer loop
      vertex -3.02222 10.3538 7.225
      vertex -3 10.3538 7.225
      vertex -3 9.36041 8.4089
    endloop
  endfacet
  facet normal 1.42727e-16 -0.766045 -0.642787
    outer loop
      vertex -3.59577 9.36041 8.4089
      vertex -3.02222 10.3538 7.225
      vertex -3 9.36041 8.4089
    endloop
  endfacet
  facet normal 7.59438e-17 -0.939693 -0.34202
    outer loop
      vertex -3 10.3923 7.11925
      vertex -3 10.3538 7.225
      vertex -3.02222 10.3538 7.225
    endloop
  endfacet
  facet normal -1 0 -2.22045e-16
    outer loop
      vertex -3 9.36041 8.4089
      vertex -3 10.3538 7.225
      vertex -3 8.02199 9.18163
    endloop
  endfacet
  facet normal -1 0 -2.22045e-16
    outer loop
      vertex -3 8.02199 9.18163
      vertex -3 10.3538 7.225
      vertex -3 10.3923 7.11925
    endloop
  endfacet
  facet normal -1 0 -2.22045e-16
    outer loop
      vertex -3 8.02199 9.18163
      vertex -3 10.3923 7.11925
      vertex -3 10.3923 2.88075
    endloop
  endfacet
  facet normal -1 0 -2.22045e-16
    outer loop
      vertex -3 8.02199 9.18163
      vertex -3 10.3923 2.88075
      vertex -3 10.3538 2.775
    endloop
  endfacet
  facet normal -1 0 -2.22045e-16
    outer loop
      vertex -3 9.15898 4.53115
      vertex -3 10.3538 2.775
      vertex -3 9.36041 1.5911
    endloop
  endfacet
  facet normal -1 0 -2.22045e-16
    outer loop
      vertex -3 8.23553 2.93168
      vertex -3 9.36041 1.5911
      vertex -3 8.02199 0.818368
    endloop
  endfacet
  facet normal -1 0 -2.22045e-16
    outer loop
      vertex -3 7.42345 2.46283
      vertex -3 8.02199 0.818368
      vertex -3 6.5 0.55
    endloop
  endfacet
  facet normal -1 0 -2.22045e-16
    outer loop
      vertex -3 5.57655 2.46283
      vertex -3 6.5 0.55
      vertex -3 4.97801 0.818368
    endloop
  endfacet
  facet normal -1 0 -2.22045e-16
    outer loop
      vertex -3 4.76447 2.93168
      vertex -3 4.97801 0.818368
      vertex -3 3.63959 1.5911
    endloop
  endfacet
  facet normal -1 0 -2.22045e-16
    outer loop
      vertex -3 4.16173 3.65
      vertex -3 3.63959 1.5911
      vertex -3 2.94449 2.4195
    endloop
  endfacet
  facet normal -1 0 -2.22045e-16
    outer loop
      vertex -3 3.84102 5.46885
      vertex -3 2.94449 2.4195
      vertex -3 2.94449 5.99
    endloop
  endfacet
  facet normal -1 0 -2.22045e-16
    outer loop
      vertex -3 8.02199 9.18163
      vertex -3 2.94449 5.99
      vertex -3 2.19668 5.99
    endloop
  endfacet
  facet normal -1 0 -2.22045e-16
    outer loop
      vertex -3 8.02199 9.18163
      vertex -3 2.19668 5.99
      vertex -3 2.64619 7.225
    endloop
  endfacet
  facet normal -1 0 -2.22045e-16
    outer loop
      vertex -3 8.02199 9.18163
      vertex -3 2.64619 7.225
      vertex -3 3.63959 8.4089
    endloop
  endfacet
  facet normal -1 0 -2.22045e-16
    outer loop
      vertex -3 8.02199 9.18163
      vertex -3 3.63959 8.4089
      vertex -3 4.97801 9.18163
    endloop
  endfacet
  facet normal -1 0 -2.22045e-16
    outer loop
      vertex -3 8.02199 9.18163
      vertex -3 4.97801 9.18163
      vertex -3 6.5 9.45
    endloop
  endfacet
  facet normal -1 0 -2.22045e-16
    outer loop
      vertex -3 8.02199 9.18163
      vertex -3 5.57655 7.53717
      vertex -3 4.76447 7.06832
    endloop
  endfacet
  facet normal -1 0 -2.22045e-16
    outer loop
      vertex -3 8.02199 9.18163
      vertex -3 4.76447 7.06832
      vertex -3 2.94449 5.99
    endloop
  endfacet
  facet normal -1 0 -2.22045e-16
    outer loop
      vertex -3 4.16173 3.65
      vertex -3 2.94449 2.4195
      vertex -3 3.84102 4.53115
    endloop
  endfacet
  facet normal -1 0 -2.22045e-16
    outer loop
      vertex -3 3.84102 4.53115
      vertex -3 2.94449 2.4195
      vertex -3 3.84102 5.46885
    endloop
  endfacet
  facet normal -1 0 -2.22045e-16
    outer loop
      vertex -3 4.16173 6.35
      vertex -3 3.84102 5.46885
      vertex -3 2.94449 5.99
    endloop
  endfacet
  facet normal -1 0 -2.22045e-16
    outer loop
      vertex -3 6.5 7.7
      vertex -3 8.02199 9.18163
      vertex -3 7.42345 7.53717
    endloop
  endfacet
  facet normal -1 0 -2.22045e-16
    outer loop
      vertex -3 4.76447 2.93168
      vertex -3 3.63959 1.5911
      vertex -3 4.16173 3.65
    endloop
  endfacet
  facet normal -1 0 -2.22045e-16
    outer loop
      vertex -3 5.57655 2.46283
      vertex -3 4.97801 0.818368
      vertex -3 4.76447 2.93168
    endloop
  endfacet
  facet normal -1 0 -2.22045e-16
    outer loop
      vertex -3 6.5 2.3
      vertex -3 6.5 0.55
      vertex -3 5.57655 2.46283
    endloop
  endfacet
  facet normal -1 0 -2.22045e-16
    outer loop
      vertex -3 7.42345 2.46283
      vertex -3 6.5 0.55
      vertex -3 6.5 2.3
    endloop
  endfacet
  facet normal -1 0 -2.22045e-16
    outer loop
      vertex -3 8.23553 2.93168
      vertex -3 8.02199 0.818368
      vertex -3 7.42345 2.46283
    endloop
  endfacet
  facet normal -1 0 -2.22045e-16
    outer loop
      vertex -3 8.83827 3.65
      vertex -3 9.36041 1.5911
      vertex -3 8.23553 2.93168
    endloop
  endfacet
  facet normal -1 0 -2.22045e-16
    outer loop
      vertex -3 9.15898 4.53115
      vertex -3 9.36041 1.5911
      vertex -3 8.83827 3.65
    endloop
  endfacet
  facet normal -1 0 -2.22045e-16
    outer loop
      vertex -3 9.15898 5.46885
      vertex -3 10.3538 2.775
      vertex -3 9.15898 4.53115
    endloop
  endfacet
  facet normal -1 0 -2.22045e-16
    outer loop
      vertex -3 8.23553 7.06832
      vertex -3 8.02199 9.18163
      vertex -3 8.83827 6.35
    endloop
  endfacet
  facet normal -1 0 -2.22045e-16
    outer loop
      vertex -3 8.02199 9.18163
      vertex -3 10.3538 2.775
      vertex -3 9.15898 5.46885
    endloop
  endfacet
  facet normal -1 0 -2.22045e-16
    outer loop
      vertex -3 8.02199 9.18163
      vertex -3 9.15898 5.46885
      vertex -3 8.83827 6.35
    endloop
  endfacet
  facet normal -1 0 -2.22045e-16
    outer loop
      vertex -3 7.42345 7.53717
      vertex -3 8.02199 9.18163
      vertex -3 8.23553 7.06832
    endloop
  endfacet
  facet normal -1 0 -2.22045e-16
    outer loop
      vertex -3 8.02199 9.18163
      vertex -3 6.5 7.7
      vertex -3 5.57655 7.53717
    endloop
  endfacet
  facet normal -1 0 -2.22045e-16
    outer loop
      vertex -3 4.16173 6.35
      vertex -3 2.94449 5.99
      vertex -3 4.76447 7.06832
    endloop
  endfacet
  facet normal -7.59438e-17 -0.939693 0.34202
    outer loop
      vertex -3 10.3538 2.775
      vertex -3 10.3923 2.88075
      vertex -3.02222 10.3538 2.775
    endloop
  endfacet
  facet normal -1.42727e-16 -0.766045 0.642787
    outer loop
      vertex -3 9.36041 1.5911
      vertex -3 10.3538 2.775
      vertex -3.02222 10.3538 2.775
    endloop
  endfacet
  facet normal -1.42727e-16 -0.766045 0.642787
    outer loop
      vertex -3.59577 9.36041 1.5911
      vertex -3 9.36041 1.5911
      vertex -3.02222 10.3538 2.775
    endloop
  endfacet
  facet normal -1.92296e-16 -0.5 0.866025
    outer loop
      vertex -3 8.02199 0.818368
      vertex -3 9.36041 1.5911
      vertex -3.59577 9.36041 1.5911
    endloop
  endfacet
  facet normal -1.92296e-16 -0.5 0.866025
    outer loop
      vertex -4.3685 8.02199 0.818368
      vertex -3 8.02199 0.818368
      vertex -3.59577 9.36041 1.5911
    endloop
  endfacet
  facet normal -2.18671e-16 -0.173648 0.984808
    outer loop
      vertex -3 6.5 0.55
      vertex -3 8.02199 0.818368
      vertex -4.3685 8.02199 0.818368
    endloop
  endfacet
  facet normal -2.18671e-16 -0.173648 0.984808
    outer loop
      vertex -5.24722 6.5 0.55
      vertex -3 6.5 0.55
      vertex -4.3685 8.02199 0.818368
    endloop
  endfacet
  facet normal -2.18671e-16 0.173648 0.984808
    outer loop
      vertex -3 4.97801 0.818368
      vertex -3 6.5 0.55
      vertex -5.24722 6.5 0.55
    endloop
  endfacet
  facet normal -2.18671e-16 0.173648 0.984808
    outer loop
      vertex -6.12594 4.97801 0.818368
      vertex -3 4.97801 0.818368
      vertex -5.24722 6.5 0.55
    endloop
  endfacet
  facet normal -1.92296e-16 0.5 0.866025
    outer loop
      vertex -3 3.63959 1.5911
      vertex -3 4.97801 0.818368
      vertex -6.12594 4.97801 0.818368
    endloop
  endfacet
  facet normal -1.92296e-16 0.5 0.866025
    outer loop
      vertex -6.89868 3.63959 1.5911
      vertex -3 3.63959 1.5911
      vertex -6.12594 4.97801 0.818368
    endloop
  endfacet
  facet normal -1.42727e-16 0.766045 0.642787
    outer loop
      vertex -3 2.94449 2.4195
      vertex -3 3.63959 1.5911
      vertex -3.17222 2.64619 2.775
    endloop
  endfacet
  facet normal -1.42727e-16 0.766045 0.642787
    outer loop
      vertex -3.17222 2.64619 2.775
      vertex -3 3.63959 1.5911
      vertex -6.89868 3.63959 1.5911
    endloop
  endfacet
  facet normal -1.42727e-16 0.766045 0.642787
    outer loop
      vertex -3.17222 2.64619 2.775
      vertex -6.89868 3.63959 1.5911
      vertex -7.47222 2.64619 2.775
    endloop
  endfacet
  facet normal -7.59438e-17 0.939693 0.34202
    outer loop
      vertex -3.17222 2.64619 2.775
      vertex -7.47222 2.64619 2.775
      vertex -3.4774 2.11761 4.22727
    endloop
  endfacet
  facet normal -7.59438e-17 0.939693 0.34202
    outer loop
      vertex -3.4774 2.11761 4.22727
      vertex -7.47222 2.64619 2.775
      vertex -7.7774 2.11761 4.22727
    endloop
  endfacet
  facet normal -1.57009e-16 -0.707107 0.707107
    outer loop
      vertex 10 -8.31687 10
      vertex -4.19825 -8.31687 10
      vertex -1.3115 -13.3169 5
    endloop
  endfacet
  facet normal -1.57009e-16 -0.707107 0.707107
    outer loop
      vertex 10 -13.3169 5
      vertex 10 -8.31687 10
      vertex -1.3115 -13.3169 5
    endloop
  endfacet
  facet normal 1.57009e-16 -0.707107 -0.707107
    outer loop
      vertex -1.3115 -13.3169 5
      vertex -4.19825 -8.31687 0
      vertex 10 -8.31687 0
    endloop
  endfacet
  facet normal 1.57009e-16 -0.707107 -0.707107
    outer loop
      vertex 10 -13.3169 5
      vertex -1.3115 -13.3169 5
      vertex 10 -8.31687 0
    endloop
  endfacet
  facet normal -7.59438e-17 -0.939693 0.34202
    outer loop
      vertex -3.4774 -2.11761 4.22727
      vertex -7.7774 -2.11761 4.22727
      vertex -7.47222 -2.64619 2.775
    endloop
  endfacet
  facet normal -7.59438e-17 -0.939693 0.34202
    outer loop
      vertex -3.17222 -2.64619 2.775
      vertex -3.4774 -2.11761 4.22727
      vertex -7.47222 -2.64619 2.775
    endloop
  endfacet
  facet normal 0 -1 0
    outer loop
      vertex -7.7774 -2.11761 5.77273
      vertex -7.7774 -2.11761 4.22727
      vertex -3.4774 -2.11761 4.22727
    endloop
  endfacet
  facet normal 0 -1 0
    outer loop
      vertex -3.4774 -2.11761 5.77273
      vertex -7.7774 -2.11761 5.77273
      vertex -3.4774 -2.11761 4.22727
    endloop
  endfacet
  facet normal -1.42727e-16 -0.766045 0.642787
    outer loop
      vertex -3.17222 -2.64619 2.775
      vertex -7.47222 -2.64619 2.775
      vertex -6.89868 -3.63959 1.5911
    endloop
  endfacet
  facet normal -1.42727e-16 -0.766045 0.642787
    outer loop
      vertex -3 -2.94449 2.4195
      vertex -3.17222 -2.64619 2.775
      vertex -3 -3.63959 1.5911
    endloop
  endfacet
  facet normal -1.42727e-16 -0.766045 0.642787
    outer loop
      vertex -3 -3.63959 1.5911
      vertex -3.17222 -2.64619 2.775
      vertex -6.89868 -3.63959 1.5911
    endloop
  endfacet
  facet normal -1.92296e-16 -0.5 0.866025
    outer loop
      vertex -3 -3.63959 1.5911
      vertex -6.89868 -3.63959 1.5911
      vertex -6.12594 -4.97801 0.818368
    endloop
  endfacet
  facet normal -1.92296e-16 -0.5 0.866025
    outer loop
      vertex -3 -4.97801 0.818368
      vertex -3 -3.63959 1.5911
      vertex -6.12594 -4.97801 0.818368
    endloop
  endfacet
  facet normal -2.18671e-16 -0.173648 0.984808
    outer loop
      vertex -3 -4.97801 0.818368
      vertex -6.12594 -4.97801 0.818368
      vertex -5.24722 -6.5 0.55
    endloop
  endfacet
  facet normal -2.18671e-16 -0.173648 0.984808
    outer loop
      vertex -3 -6.5 0.55
      vertex -3 -4.97801 0.818368
      vertex -5.24722 -6.5 0.55
    endloop
  endfacet
  facet normal -2.18671e-16 0.173648 0.984808
    outer loop
      vertex -3 -6.5 0.55
      vertex -5.24722 -6.5 0.55
      vertex -4.3685 -8.02199 0.818368
    endloop
  endfacet
  facet normal -2.18671e-16 0.173648 0.984808
    outer loop
      vertex -3 -8.02199 0.818368
      vertex -3 -6.5 0.55
      vertex -4.3685 -8.02199 0.818368
    endloop
  endfacet
  facet normal -1.92296e-16 0.5 0.866025
    outer loop
      vertex -3 -8.02199 0.818368
      vertex -4.3685 -8.02199 0.818368
      vertex -3.59577 -9.36041 1.5911
    endloop
  endfacet
  facet normal -1.92296e-16 0.5 0.866025
    outer loop
      vertex -3 -9.36041 1.5911
      vertex -3 -8.02199 0.818368
      vertex -3.59577 -9.36041 1.5911
    endloop
  endfacet
  facet normal -1.42727e-16 0.766045 0.642787
    outer loop
      vertex -3.59577 -9.36041 1.5911
      vertex -3.02222 -10.3538 2.775
      vertex -3 -9.36041 1.5911
    endloop
  endfacet
  facet normal -1.42727e-16 0.766045 0.642787
    outer loop
      vertex -3 -9.36041 1.5911
      vertex -3.02222 -10.3538 2.775
      vertex -3 -10.3538 2.775
    endloop
  endfacet
  facet normal -7.59438e-17 0.939693 0.34202
    outer loop
      vertex -3 -10.3538 2.775
      vertex -3.02222 -10.3538 2.775
      vertex -3 -10.3923 2.88075
    endloop
  endfacet
  facet normal -1 0 -2.22045e-16
    outer loop
      vertex -3 -6.5 9.45
      vertex -3 -4.97801 9.18163
      vertex -3 -8.02199 9.18163
    endloop
  endfacet
  facet normal -1 0 -2.22045e-16
    outer loop
      vertex -3 -8.02199 9.18163
      vertex -3 -4.97801 9.18163
      vertex -3 -3.63959 8.4089
    endloop
  endfacet
  facet normal -1 0 -2.22045e-16
    outer loop
      vertex -3 -8.02199 9.18163
      vertex -3 -3.63959 8.4089
      vertex -3 -2.64619 7.225
    endloop
  endfacet
  facet normal -1 0 -2.22045e-16
    outer loop
      vertex -3 -8.02199 9.18163
      vertex -3 -2.64619 7.225
      vertex -3 -2.19668 5.99
    endloop
  endfacet
  facet normal -1 0 -2.22045e-16
    outer loop
      vertex -3 -8.02199 9.18163
      vertex -3 -2.19668 5.99
      vertex -3 -2.94449 5.99
    endloop
  endfacet
  facet normal -1 0 -2.22045e-16
    outer loop
      vertex -3 -3.84102 4.53115
      vertex -3 -2.94449 5.99
      vertex -3 -2.94449 2.4195
    endloop
  endfacet
  facet normal -1 0 -2.22045e-16
    outer loop
      vertex -3 -4.16173 3.65
      vertex -3 -2.94449 2.4195
      vertex -3 -3.63959 1.5911
    endloop
  endfacet
  facet normal -1 0 -2.22045e-16
    outer loop
      vertex -3 -4.76447 2.93168
      vertex -3 -3.63959 1.5911
      vertex -3 -4.97801 0.818368
    endloop
  endfacet
  facet normal -1 0 -2.22045e-16
    outer loop
      vertex -3 -6.5 2.3
      vertex -3 -4.97801 0.818368
      vertex -3 -6.5 0.55
    endloop
  endfacet
  facet normal -1 0 -2.22045e-16
    outer loop
      vertex -3 -7.42345 2.46283
      vertex -3 -6.5 0.55
      vertex -3 -8.02199 0.818368
    endloop
  endfacet
  facet normal -1 0 -2.22045e-16
    outer loop
      vertex -3 -8.83827 3.65
      vertex -3 -8.02199 0.818368
      vertex -3 -9.36041 1.5911
    endloop
  endfacet
  facet normal -1 0 -2.22045e-16
    outer loop
      vertex -3 -9.15898 5.46885
      vertex -3 -9.36041 1.5911
      vertex -3 -10.3538 2.775
    endloop
  endfacet
  facet normal -1 0 -2.22045e-16
    outer loop
      vertex -3 -8.02199 9.18163
      vertex -3 -10.3538 2.775
      vertex -3 -10.3923 2.88075
    endloop
  endfacet
  facet normal -1 0 -2.22045e-16
    outer loop
      vertex -3 -8.02199 9.18163
      vertex -3 -10.3923 2.88075
      vertex -3 -10.3923 7.11925
    endloop
  endfacet
  facet normal -1 0 -2.22045e-16
    outer loop
      vertex -3 -8.02199 9.18163
      vertex -3 -10.3923 7.11925
      vertex -3 -10.3538 7.225
    endloop
  endfacet
  facet normal -1 0 -2.22045e-16
    outer loop
      vertex -3 -8.02199 9.18163
      vertex -3 -10.3538 7.225
      vertex -3 -9.36041 8.4089
    endloop
  endfacet
  facet normal -1 0 -2.22045e-16
    outer loop
      vertex -3 -4.76447 2.93168
      vertex -3 -4.97801 0.818368
      vertex -3 -5.57655 2.46283
    endloop
  endfacet
  facet normal -1 0 -2.22045e-16
    outer loop
      vertex -3 -8.23553 7.06832
      vertex -3 -8.02199 9.18163
      vertex -3 -7.42345 7.53717
    endloop
  endfacet
  facet normal -1 0 -2.22045e-16
    outer loop
      vertex -3 -8.83827 6.35
      vertex -3 -8.02199 9.18163
      vertex -3 -8.23553 7.06832
    endloop
  endfacet
  facet normal -1 0 -2.22045e-16
    outer loop
      vertex -3 -8.83827 3.65
      vertex -3 -9.36041 1.5911
      vertex -3 -9.15898 4.53115
    endloop
  endfacet
  facet normal -1 0 -2.22045e-16
    outer loop
      vertex -3 -8.02199 9.18163
      vertex -3 -8.83827 6.35
      vertex -3 -10.3538 2.775
    endloop
  endfacet
  facet normal -1 0 -2.22045e-16
    outer loop
      vertex -3 -9.15898 4.53115
      vertex -3 -9.36041 1.5911
      vertex -3 -9.15898 5.46885
    endloop
  endfacet
  facet normal -1 0 -2.22045e-16
    outer loop
      vertex -3 -8.83827 6.35
      vertex -3 -9.15898 5.46885
      vertex -3 -10.3538 2.775
    endloop
  endfacet
  facet normal -1 0 -2.22045e-16
    outer loop
      vertex -3 -8.23553 2.93168
      vertex -3 -8.02199 0.818368
      vertex -3 -8.83827 3.65
    endloop
  endfacet
  facet normal -1 0 -2.22045e-16
    outer loop
      vertex -3 -7.42345 2.46283
      vertex -3 -8.02199 0.818368
      vertex -3 -8.23553 2.93168
    endloop
  endfacet
  facet normal -1 0 -2.22045e-16
    outer loop
      vertex -3 -5.57655 2.46283
      vertex -3 -4.97801 0.818368
      vertex -3 -6.5 2.3
    endloop
  endfacet
  facet normal -1 0 -2.22045e-16
    outer loop
      vertex -3 -4.16173 3.65
      vertex -3 -3.63959 1.5911
      vertex -3 -4.76447 2.93168
    endloop
  endfacet
  facet normal -1 0 -2.22045e-16
    outer loop
      vertex -3 -3.84102 5.46885
      vertex -3 -2.94449 5.99
      vertex -3 -3.84102 4.53115
    endloop
  endfacet
  facet normal -1 0 -2.22045e-16
    outer loop
      vertex -3 -4.76447 7.06832
      vertex -3 -2.94449 5.99
      vertex -3 -4.16173 6.35
    endloop
  endfacet
  facet normal -1 0 -2.22045e-16
    outer loop
      vertex -3 -4.16173 6.35
      vertex -3 -2.94449 5.99
      vertex -3 -3.84102 5.46885
    endloop
  endfacet
  facet normal -1 0 -2.22045e-16
    outer loop
      vertex -3 -8.02199 9.18163
      vertex -3 -2.94449 5.99
      vertex -3 -4.76447 7.06832
    endloop
  endfacet
  facet normal -1 0 -2.22045e-16
    outer loop
      vertex -3 -8.02199 9.18163
      vertex -3 -4.76447 7.06832
      vertex -3 -5.57655 7.53717
    endloop
  endfacet
  facet normal -1 0 -2.22045e-16
    outer loop
      vertex -3 -8.02199 9.18163
      vertex -3 -5.57655 7.53717
      vertex -3 -6.5 7.7
    endloop
  endfacet
  facet normal -1 0 -2.22045e-16
    outer loop
      vertex -3 -7.42345 7.53717
      vertex -3 -8.02199 9.18163
      vertex -3 -6.5 7.7
    endloop
  endfacet
  facet normal -1 0 -2.22045e-16
    outer loop
      vertex -3 -3.84102 4.53115
      vertex -3 -2.94449 2.4195
      vertex -3 -4.16173 3.65
    endloop
  endfacet
  facet normal -1 0 -2.22045e-16
    outer loop
      vertex -3 -6.5 2.3
      vertex -3 -6.5 0.55
      vertex -3 -7.42345 2.46283
    endloop
  endfacet
  facet normal 7.59438e-17 0.939693 -0.34202
    outer loop
      vertex -3 -10.3923 7.11925
      vertex -3.02222 -10.3538 7.225
      vertex -3 -10.3538 7.225
    endloop
  endfacet
  facet normal 1.42727e-16 0.766045 -0.642787
    outer loop
      vertex -3.59577 -9.36041 8.4089
      vertex -3 -9.36041 8.4089
      vertex -3.02222 -10.3538 7.225
    endloop
  endfacet
  facet normal 1.42727e-16 0.766045 -0.642787
    outer loop
      vertex -3.02222 -10.3538 7.225
      vertex -3 -9.36041 8.4089
      vertex -3 -10.3538 7.225
    endloop
  endfacet
  facet normal 1.92296e-16 0.5 -0.866025
    outer loop
      vertex -4.3685 -8.02199 9.18163
      vertex -3 -8.02199 9.18163
      vertex -3.59577 -9.36041 8.4089
    endloop
  endfacet
  facet normal 1.92296e-16 0.5 -0.866025
    outer loop
      vertex -3.59577 -9.36041 8.4089
      vertex -3 -8.02199 9.18163
      vertex -3 -9.36041 8.4089
    endloop
  endfacet
  facet normal 2.18671e-16 0.173648 -0.984808
    outer loop
      vertex -5.24722 -6.5 9.45
      vertex -3 -6.5 9.45
      vertex -4.3685 -8.02199 9.18163
    endloop
  endfacet
  facet normal 2.18671e-16 0.173648 -0.984808
    outer loop
      vertex -4.3685 -8.02199 9.18163
      vertex -3 -6.5 9.45
      vertex -3 -8.02199 9.18163
    endloop
  endfacet
  facet normal 2.18671e-16 -0.173648 -0.984808
    outer loop
      vertex -6.12594 -4.97801 9.18163
      vertex -3 -4.97801 9.18163
      vertex -5.24722 -6.5 9.45
    endloop
  endfacet
  facet normal 2.18671e-16 -0.173648 -0.984808
    outer loop
      vertex -5.24722 -6.5 9.45
      vertex -3 -4.97801 9.18163
      vertex -3 -6.5 9.45
    endloop
  endfacet
  facet normal 1.92296e-16 -0.5 -0.866025
    outer loop
      vertex -6.89868 -3.63959 8.4089
      vertex -3 -3.63959 8.4089
      vertex -6.12594 -4.97801 9.18163
    endloop
  endfacet
  facet normal 1.92296e-16 -0.5 -0.866025
    outer loop
      vertex -6.12594 -4.97801 9.18163
      vertex -3 -3.63959 8.4089
      vertex -3 -4.97801 9.18163
    endloop
  endfacet
  facet normal 1.42727e-16 -0.766045 -0.642787
    outer loop
      vertex -6.89868 -3.63959 8.4089
      vertex -7.47222 -2.64619 7.225
      vertex -3 -2.64619 7.225
    endloop
  endfacet
  facet normal 1.42727e-16 -0.766045 -0.642787
    outer loop
      vertex -3 -3.63959 8.4089
      vertex -6.89868 -3.63959 8.4089
      vertex -3 -2.64619 7.225
    endloop
  endfacet
  facet normal 7.59438e-17 -0.939693 -0.34202
    outer loop
      vertex -7.47222 -2.64619 7.225
      vertex -7.7774 -2.11761 5.77273
      vertex -3.4774 -2.11761 5.77273
    endloop
  endfacet
  facet normal 7.59438e-17 -0.939693 -0.34202
    outer loop
      vertex -3 -2.19668 5.99
      vertex -7.47222 -2.64619 7.225
      vertex -3.43174 -2.19668 5.99
    endloop
  endfacet
  facet normal 7.59438e-17 -0.939693 -0.34202
    outer loop
      vertex -3.43174 -2.19668 5.99
      vertex -7.47222 -2.64619 7.225
      vertex -3.4774 -2.11761 5.77273
    endloop
  endfacet
  facet normal 7.59438e-17 -0.939693 -0.34202
    outer loop
      vertex -3 -2.64619 7.225
      vertex -7.47222 -2.64619 7.225
      vertex -3 -2.19668 5.99
    endloop
  endfacet
  facet normal 1 0 0
    outer loop
      vertex 10 -9.15898 4.53115
      vertex 10 -13.3169 5
      vertex 10 -8.31687 0
    endloop
  endfacet
  facet normal 1 0 0
    outer loop
      vertex 10 -8.83827 3.65
      vertex 10 -9.15898 4.53115
      vertex 10 -8.31687 0
    endloop
  endfacet
  facet normal 1 0 0
    outer loop
      vertex 10 13.3169 5
      vertex 10 9.15898 4.53115
      vertex 10 8.31687 0
    endloop
  endfacet
  facet normal 1 0 0
    outer loop
      vertex 10 13.3169 5
      vertex 10 9.15898 5
      vertex 10 9.15898 4.53115
    endloop
  endfacet
  facet normal 1 0 0
    outer loop
      vertex 10 8.83827 3.65
      vertex 10 8.23553 2.93168
      vertex 10 8.31687 0
    endloop
  endfacet
  facet normal 1 0 0
    outer loop
      vertex 10 8.23553 2.93168
      vertex 10 7.42345 2.46283
      vertex 10 8.31687 0
    endloop
  endfacet
  facet normal 1 0 0
    outer loop
      vertex 10 7.42345 2.46283
      vertex 10 6.5 2.3
      vertex 10 8.31687 0
    endloop
  endfacet
  facet normal 1 0 0
    outer loop
      vertex 10 -4.16173 3.65
      vertex 10 -4.76447 2.93168
      vertex 10 8.31687 0
    endloop
  endfacet
  facet normal 1 0 0
    outer loop
      vertex 10 -3.84102 4.53115
      vertex 10 4.76447 2.93168
      vertex 10 4.16173 3.65
    endloop
  endfacet
  facet normal 1 0 0
    outer loop
      vertex 10 3.84102 5
      vertex 10 -3.84102 5
      vertex 10 3.84102 4.53115
    endloop
  endfacet
  facet normal 1 0 0
    outer loop
      vertex 10 -3.84102 4.53115
      vertex 10 5.57655 2.46283
      vertex 10 4.76447 2.93168
    endloop
  endfacet
  facet normal 1 0 0
    outer loop
      vertex 10 -3.84102 5
      vertex 10 -3.84102 4.53115
      vertex 10 3.84102 4.53115
    endloop
  endfacet
  facet normal 1 0 0
    outer loop
      vertex 10 6.5 2.3
      vertex 10 -4.16173 3.65
      vertex 10 8.31687 0
    endloop
  endfacet
  facet normal 1 0 0
    outer loop
      vertex 10 8.31687 0
      vertex 10 -4.76447 2.93168
      vertex 10 -8.31687 0
    endloop
  endfacet
  facet normal 1 0 0
    outer loop
      vertex 10 -4.76447 2.93168
      vertex 10 -5.57655 2.46283
      vertex 10 -8.31687 0
    endloop
  endfacet
  facet normal 1 0 0
    outer loop
      vertex 10 -5.57655 2.46283
      vertex 10 -6.5 2.3
      vertex 10 -8.31687 0
    endloop
  endfacet
  facet normal 1 0 0
    outer loop
      vertex 10 -6.5 2.3
      vertex 10 -7.42345 2.46283
      vertex 10 -8.31687 0
    endloop
  endfacet
  facet normal 1 0 0
    outer loop
      vertex 10 -7.42345 2.46283
      vertex 10 -8.23553 2.93168
      vertex 10 -8.31687 0
    endloop
  endfacet
  facet normal 1 0 0
    outer loop
      vertex 10 -8.23553 2.93168
      vertex 10 -8.83827 3.65
      vertex 10 -8.31687 0
    endloop
  endfacet
  facet normal 1 0 0
    outer loop
      vertex 10 -9.15898 5
      vertex 10 -13.3169 5
      vertex 10 -9.15898 4.53115
    endloop
  endfacet
  facet normal 1 0 0
    outer loop
      vertex 10 9.15898 4.53115
      vertex 10 8.83827 3.65
      vertex 10 8.31687 0
    endloop
  endfacet
  facet normal 1 0 0
    outer loop
      vertex 10 4.16173 3.65
      vertex 10 3.84102 4.53115
      vertex 10 -3.84102 4.53115
    endloop
  endfacet
  facet normal 1 0 0
    outer loop
      vertex 10 5.57655 2.46283
      vertex 10 -4.16173 3.65
      vertex 10 6.5 2.3
    endloop
  endfacet
  facet normal 1 0 0
    outer loop
      vertex 10 -3.84102 4.53115
      vertex 10 -4.16173 3.65
      vertex 10 5.57655 2.46283
    endloop
  endfacet
  facet normal 0.866025 -0.5 0
    outer loop
      vertex -2.48239 3.84102 5.46885
      vertex -3 2.94449 5.99
      vertex -2.48239 3.84102 4.53115
    endloop
  endfacet
  facet normal 0.866025 -0.5 0
    outer loop
      vertex -2.35 4.07032 0
      vertex -2.35 4.07032 3.90115
      vertex -2.48239 3.84102 4.53115
    endloop
  endfacet
  facet normal 0.866025 -0.5 0
    outer loop
      vertex -3 2.94449 2.4195
      vertex -3.17222 2.64619 2.775
      vertex -2.35 4.07032 0
    endloop
  endfacet
  facet normal 0.866025 -0.5 0
    outer loop
      vertex -3 2.94449 5.99
      vertex -2.35 4.07032 0
      vertex -2.48239 3.84102 4.53115
    endloop
  endfacet
  facet normal 0.866025 -0.5 0
    outer loop
      vertex -2.37287 4.0307 5.99
      vertex -3 2.94449 5.99
      vertex -2.48239 3.84102 5.46885
    endloop
  endfacet
  facet normal 0.866025 -0.5 0
    outer loop
      vertex -3 2.94449 5.99
      vertex -3 2.94449 2.4195
      vertex -2.35 4.07032 0
    endloop
  endfacet
  facet normal 0.866025 -0.5 0
    outer loop
      vertex -3.17222 2.64619 2.775
      vertex -4.7 0 5.99
      vertex -2.35 4.07032 0
    endloop
  endfacet
  facet normal 0.866025 -0.5 0
    outer loop
      vertex -3.4774 2.11761 4.22727
      vertex -4.7 0 5.99
      vertex -3.17222 2.64619 2.775
    endloop
  endfacet
  facet normal 0.866025 -0.5 0
    outer loop
      vertex -3.4774 2.11761 5.77273
      vertex -4.7 0 5.99
      vertex -3.4774 2.11761 4.22727
    endloop
  endfacet
  facet normal 0.866025 -0.5 0
    outer loop
      vertex -3.43174 2.19668 5.99
      vertex -4.7 0 5.99
      vertex -3.4774 2.11761 5.77273
    endloop
  endfacet
  facet normal 0.866025 -0.5 0
    outer loop
      vertex -4.7 0 5.99
      vertex -4.7 0 0
      vertex -2.35 4.07032 0
    endloop
  endfacet
  facet normal 0.866025 0.5 0
    outer loop
      vertex -3.17222 -2.64619 2.775
      vertex -2.35 -4.07032 0
      vertex -4.7 0 5.99
    endloop
  endfacet
  facet normal 0.866025 0.5 0
    outer loop
      vertex -4.7 0 5.99
      vertex -3.43174 -2.19668 5.99
      vertex -3.4774 -2.11761 5.77273
    endloop
  endfacet
  facet normal 0.866025 0.5 0
    outer loop
      vertex -3 -2.94449 2.4195
      vertex -2.35 -4.07032 0
      vertex -3.17222 -2.64619 2.775
    endloop
  endfacet
  facet normal 0.866025 0.5 0
    outer loop
      vertex -3.4774 -2.11761 4.22727
      vertex -4.7 0 5.99
      vertex -3.4774 -2.11761 5.77273
    endloop
  endfacet
  facet normal 0.866025 0.5 0
    outer loop
      vertex -3.4774 -2.11761 4.22727
      vertex -3.17222 -2.64619 2.775
      vertex -4.7 0 5.99
    endloop
  endfacet
  facet normal 0.866025 0.5 0
    outer loop
      vertex -2.48239 -3.84102 4.53115
      vertex -2.35 -4.07032 3.90115
      vertex -3 -2.94449 2.4195
    endloop
  endfacet
  facet normal 0.866025 0.5 0
    outer loop
      vertex -3 -2.94449 5.99
      vertex -2.48239 -3.84102 5.46885
      vertex -3 -2.94449 2.4195
    endloop
  endfacet
  facet normal 0.866025 0.5 0
    outer loop
      vertex -3 -2.94449 5.99
      vertex -2.37287 -4.0307 5.99
      vertex -2.48239 -3.84102 5.46885
    endloop
  endfacet
  facet normal 0.866025 0.5 0
    outer loop
      vertex -2.35 -4.07032 3.90115
      vertex -2.35 -4.07032 0
      vertex -3 -2.94449 2.4195
    endloop
  endfacet
  facet normal 0.866025 0.5 0
    outer loop
      vertex -2.35 -4.07032 0
      vertex -4.7 0 0
      vertex -4.7 0 5.99
    endloop
  endfacet
  facet normal 0.866025 0.5 0
    outer loop
      vertex -2.48239 -3.84102 5.46885
      vertex -2.48239 -3.84102 4.53115
      vertex -3 -2.94449 2.4195
    endloop
  endfacet
  facet normal 0 -1 0
    outer loop
      vertex 2.35 4.07032 0
      vertex 2.35 4.07032 3.90115
      vertex -2.35 4.07032 3.90115
    endloop
  endfacet
  facet normal 0 -1 0
    outer loop
      vertex -2.35 4.07032 0
      vertex 2.35 4.07032 0
      vertex -2.35 4.07032 3.90115
    endloop
  endfacet
  facet normal -0.866025 -0.5 0
    outer loop
      vertex 4.7 0 5.99
      vertex 2.37287 4.0307 5.99
      vertex 4.7 0 0
    endloop
  endfacet
  facet normal -0.866025 -0.5 0
    outer loop
      vertex 4.7 0 0
      vertex 2.37287 4.0307 5.99
      vertex 2.48239 3.84102 5.46885
    endloop
  endfacet
  facet normal -0.866025 -0.5 0
    outer loop
      vertex 4.7 0 0
      vertex 2.48239 3.84102 5.46885
      vertex 2.48239 3.84102 4.53115
    endloop
  endfacet
  facet normal -0.866025 -0.5 0
    outer loop
      vertex 2.48239 3.84102 4.53115
      vertex 2.35 4.07032 3.90115
      vertex 4.7 0 0
    endloop
  endfacet
  facet normal -0.866025 -0.5 0
    outer loop
      vertex 4.7 0 0
      vertex 2.35 4.07032 3.90115
      vertex 2.35 4.07032 0
    endloop
  endfacet
  facet normal -0.866025 0.5 0
    outer loop
      vertex 4.7 0 5.99
      vertex 2.48239 -3.84102 5.46885
      vertex 2.37287 -4.0307 5.99
    endloop
  endfacet
  facet normal -0.866025 0.5 0
    outer loop
      vertex 2.48239 -3.84102 4.53115
      vertex 2.48239 -3.84102 5.46885
      vertex 4.7 0 5.99
    endloop
  endfacet
  facet normal -0.866025 0.5 0
    outer loop
      vertex 2.48239 -3.84102 4.53115
      vertex 4.7 0 5.99
      vertex 2.35 -4.07032 3.90115
    endloop
  endfacet
  facet normal -0.866025 0.5 0
    outer loop
      vertex 4.7 0 5.99
      vertex 4.7 0 0
      vertex 2.35 -4.07032 3.90115
    endloop
  endfacet
  facet normal -0.866025 0.5 0
    outer loop
      vertex 4.7 0 0
      vertex 2.35 -4.07032 0
      vertex 2.35 -4.07032 3.90115
    endloop
  endfacet
  facet normal 0 1 0
    outer loop
      vertex 2.35 -4.07032 3.90115
      vertex 2.35 -4.07032 0
      vertex -2.35 -4.07032 3.90115
    endloop
  endfacet
  facet normal 0 1 0
    outer loop
      vertex -2.35 -4.07032 3.90115
      vertex 2.35 -4.07032 0
      vertex -2.35 -4.07032 0
    endloop
  endfacet
  facet normal 1 0 2.22045e-16
    outer loop
      vertex 10 -8.83827 6.35
      vertex 10 -8.31687 10
      vertex 10 -13.3169 5
    endloop
  endfacet
  facet normal 1 0 2.22045e-16
    outer loop
      vertex 10 -6.5 7.7
      vertex 10 -5.57655 7.53717
      vertex 10 8.31687 10
    endloop
  endfacet
  facet normal 1 0 2.22045e-16
    outer loop
      vertex 10 -9.15898 5
      vertex 10 -9.15898 5.46885
      vertex 10 -13.3169 5
    endloop
  endfacet
  facet normal 1 0 2.22045e-16
    outer loop
      vertex 10 4.76447 7.06832
      vertex 10 5.57655 7.53717
      vertex 10 8.31687 10
    endloop
  endfacet
  facet normal 1 0 2.22045e-16
    outer loop
      vertex 10 -8.23553 7.06832
      vertex 10 -8.31687 10
      vertex 10 -8.83827 6.35
    endloop
  endfacet
  facet normal 1 0 2.22045e-16
    outer loop
      vertex 10 -7.42345 7.53717
      vertex 10 -8.31687 10
      vertex 10 -8.23553 7.06832
    endloop
  endfacet
  facet normal 1 0 2.22045e-16
    outer loop
      vertex 10 -5.57655 7.53717
      vertex 10 -4.76447 7.06832
      vertex 10 8.31687 10
    endloop
  endfacet
  facet normal 1 0 2.22045e-16
    outer loop
      vertex 10 -6.5 7.7
      vertex 10 -8.31687 10
      vertex 10 -7.42345 7.53717
    endloop
  endfacet
  facet normal 1 0 2.22045e-16
    outer loop
      vertex 10 -4.76447 7.06832
      vertex 10 -4.16173 6.35
      vertex 10 8.31687 10
    endloop
  endfacet
  facet normal 1 0 2.22045e-16
    outer loop
      vertex 10 8.31687 10
      vertex 10 -8.31687 10
      vertex 10 -6.5 7.7
    endloop
  endfacet
  facet normal 1 0 2.22045e-16
    outer loop
      vertex 10 -3.84102 5.46885
      vertex 10 8.31687 10
      vertex 10 -4.16173 6.35
    endloop
  endfacet
  facet normal 1 0 2.22045e-16
    outer loop
      vertex 10 -3.84102 5
      vertex 10 8.31687 10
      vertex 10 -3.84102 5.46885
    endloop
  endfacet
  facet normal 1 0 2.22045e-16
    outer loop
      vertex 10 4.76447 7.06832
      vertex 10 8.31687 10
      vertex 10 -3.84102 5
    endloop
  endfacet
  facet normal 1 0 2.22045e-16
    outer loop
      vertex 10 3.84102 5
      vertex 10 3.84102 5.46885
      vertex 10 -3.84102 5
    endloop
  endfacet
  facet normal 1 0 2.22045e-16
    outer loop
      vertex 10 3.84102 5.46885
      vertex 10 4.16173 6.35
      vertex 10 -3.84102 5
    endloop
  endfacet
  facet normal 1 0 2.22045e-16
    outer loop
      vertex 10 4.16173 6.35
      vertex 10 4.76447 7.06832
      vertex 10 -3.84102 5
    endloop
  endfacet
  facet normal 1 0 2.22045e-16
    outer loop
      vertex 10 7.42345 7.53717
      vertex 10 8.31687 10
      vertex 10 6.5 7.7
    endloop
  endfacet
  facet normal 1 0 2.22045e-16
    outer loop
      vertex 10 8.23553 7.06832
      vertex 10 8.31687 10
      vertex 10 7.42345 7.53717
    endloop
  endfacet
  facet normal 1 0 2.22045e-16
    outer loop
      vertex 10 8.83827 6.35
      vertex 10 8.31687 10
      vertex 10 8.23553 7.06832
    endloop
  endfacet
  facet normal 1 0 2.22045e-16
    outer loop
      vertex 10 9.15898 5.46885
      vertex 10 8.31687 10
      vertex 10 8.83827 6.35
    endloop
  endfacet
  facet normal 1 0 2.22045e-16
    outer loop
      vertex 10 13.3169 5
      vertex 10 8.31687 10
      vertex 10 9.15898 5.46885
    endloop
  endfacet
  facet normal 1 0 2.22045e-16
    outer loop
      vertex 10 13.3169 5
      vertex 10 9.15898 5.46885
      vertex 10 9.15898 5
    endloop
  endfacet
  facet normal 1 0 2.22045e-16
    outer loop
      vertex 10 5.57655 7.53717
      vertex 10 6.5 7.7
      vertex 10 8.31687 10
    endloop
  endfacet
  facet normal 1 0 2.22045e-16
    outer loop
      vertex 10 -9.15898 5.46885
      vertex 10 -8.83827 6.35
      vertex 10 -13.3169 5
    endloop
  endfacet
  facet normal -0.923231 -0.16279 0.348058
    outer loop
      vertex -4 0 15
      vertex -5.885 0 10
      vertex -5.65071 -1.32875 10
    endloop
  endfacet
  facet normal -0.923231 0.162791 0.348058
    outer loop
      vertex -5.885 0 10
      vertex -4 0 15
      vertex -5.76438 0.68404 10
    endloop
  endfacet
  facet normal -0.923231 0.162791 0.348058
    outer loop
      vertex -5.76438 0.68404 10
      vertex -4 0 15
      vertex -3.75877 1.36808 15
    endloop
  endfacet
  facet normal -0.923231 -0.162791 0.348058
    outer loop
      vertex -5.65071 -1.32875 10
      vertex -5.53009 -2.01279 10
      vertex -4 0 15
    endloop
  endfacet
  facet normal -0.923231 -0.162791 0.348058
    outer loop
      vertex -4 0 15
      vertex -5.53009 -2.01279 10
      vertex -3.75877 -1.36808 15
    endloop
  endfacet
  facet normal -0.811875 -0.468737 0.348058
    outer loop
      vertex -3.75877 -1.36808 15
      vertex -5.53009 -2.01279 10
      vertex -4.85547 -3.18127 10
    endloop
  endfacet
  facet normal -0.811876 -0.468736 0.348058
    outer loop
      vertex -4.85547 -3.18127 10
      vertex -4.50817 -3.7828 10
      vertex -3.75877 -1.36808 15
    endloop
  endfacet
  facet normal -0.811876 -0.468736 0.348058
    outer loop
      vertex -3.75877 -1.36808 15
      vertex -4.50817 -3.7828 10
      vertex -3.06418 -2.57115 15
    endloop
  endfacet
  facet normal -0.602596 -0.718146 0.348058
    outer loop
      vertex -3.06418 -2.57115 15
      vertex -4.50817 -3.7828 10
      vertex -3.47459 -4.65008 10
    endloop
  endfacet
  facet normal -0.602596 -0.718146 0.348058
    outer loop
      vertex -3.06418 -2.57115 15
      vertex -3.47459 -4.65008 10
      vertex -2.9425 -5.09656 10
    endloop
  endfacet
  facet normal -0.602596 -0.718146 0.348058
    outer loop
      vertex -2 -3.4641 15
      vertex -3.06418 -2.57115 15
      vertex -2.9425 -5.09656 10
    endloop
  endfacet
  facet normal -0.320635 -0.880936 0.348058
    outer loop
      vertex -2 -3.4641 15
      vertex -2.9425 -5.09656 10
      vertex -1.67462 -5.55803 10
    endloop
  endfacet
  facet normal -0.320634 -0.880937 0.348058
    outer loop
      vertex -0.694593 -3.93923 15
      vertex -2 -3.4641 15
      vertex -1.67462 -5.55803 10
    endloop
  endfacet
  facet normal -0.320634 -0.880937 0.348058
    outer loop
      vertex -1.02192 -5.79559 10
      vertex -0.694593 -3.93923 15
      vertex -1.67462 -5.55803 10
    endloop
  endfacet
  facet normal 0 -0.937473 0.348058
    outer loop
      vertex -0.694593 -3.93923 15
      vertex -1.02192 -5.79559 10
      vertex 1.02192 -5.79559 10
    endloop
  endfacet
  facet normal 0 -0.937473 0.348058
    outer loop
      vertex 0.694593 -3.93923 15
      vertex -0.694593 -3.93923 15
      vertex 1.02192 -5.79559 10
    endloop
  endfacet
  facet normal 0.320635 -0.880936 0.348058
    outer loop
      vertex 2.2898 -5.33412 10
      vertex 0.694593 -3.93923 15
      vertex 1.02192 -5.79559 10
    endloop
  endfacet
  facet normal 0.320634 -0.880937 0.348058
    outer loop
      vertex 2 -3.4641 15
      vertex 0.694593 -3.93923 15
      vertex 2.2898 -5.33412 10
    endloop
  endfacet
  facet normal 0.320634 -0.880937 0.348058
    outer loop
      vertex 2.9425 -5.09656 10
      vertex 2 -3.4641 15
      vertex 2.2898 -5.33412 10
    endloop
  endfacet
  facet normal 0.602596 -0.718146 0.348058
    outer loop
      vertex 3.97608 -4.22928 10
      vertex 2 -3.4641 15
      vertex 2.9425 -5.09656 10
    endloop
  endfacet
  facet normal 0.602596 -0.718146 0.348058
    outer loop
      vertex 3.06418 -2.57115 15
      vertex 2 -3.4641 15
      vertex 3.97608 -4.22928 10
    endloop
  endfacet
  facet normal 0.602596 -0.718146 0.348058
    outer loop
      vertex 4.50817 -3.7828 10
      vertex 3.06418 -2.57115 15
      vertex 3.97608 -4.22928 10
    endloop
  endfacet
  facet normal 0.811875 -0.468737 0.348058
    outer loop
      vertex 5.18279 -2.61432 10
      vertex 3.06418 -2.57115 15
      vertex 4.50817 -3.7828 10
    endloop
  endfacet
  facet normal 0.811875 -0.468736 0.348058
    outer loop
      vertex 3.75877 -1.36808 15
      vertex 3.06418 -2.57115 15
      vertex 5.18279 -2.61432 10
    endloop
  endfacet
  facet normal 0.811875 -0.468736 0.348058
    outer loop
      vertex 5.53009 -2.01279 10
      vertex 3.75877 -1.36808 15
      vertex 5.18279 -2.61432 10
    endloop
  endfacet
  facet normal 0.923231 -0.16279 0.348058
    outer loop
      vertex 5.76438 -0.68404 10
      vertex 3.75877 -1.36808 15
      vertex 5.53009 -2.01279 10
    endloop
  endfacet
  facet normal 0.923231 -0.162791 0.348058
    outer loop
      vertex 4 0 15
      vertex 3.75877 -1.36808 15
      vertex 5.76438 -0.68404 10
    endloop
  endfacet
  facet normal 0.923231 -0.162791 0.348058
    outer loop
      vertex 5.885 0 10
      vertex 4 0 15
      vertex 5.76438 -0.68404 10
    endloop
  endfacet
  facet normal 0.923231 0.16279 0.348058
    outer loop
      vertex 5.65071 1.32875 10
      vertex 4 0 15
      vertex 5.885 0 10
    endloop
  endfacet
  facet normal 0.923231 0.162791 0.348058
    outer loop
      vertex 5.53009 2.01279 10
      vertex 3.75877 1.36808 15
      vertex 4 0 15
    endloop
  endfacet
  facet normal 0.923231 0.162791 0.348058
    outer loop
      vertex 5.65071 1.32875 10
      vertex 5.53009 2.01279 10
      vertex 4 0 15
    endloop
  endfacet
  facet normal 0.811875 0.468737 0.348058
    outer loop
      vertex 4.85547 3.18127 10
      vertex 3.75877 1.36808 15
      vertex 5.53009 2.01279 10
    endloop
  endfacet
  facet normal 0.811876 0.468736 0.348058
    outer loop
      vertex 4.50817 3.7828 10
      vertex 3.06418 2.57115 15
      vertex 3.75877 1.36808 15
    endloop
  endfacet
  facet normal 0.811876 0.468736 0.348058
    outer loop
      vertex 4.85547 3.18127 10
      vertex 4.50817 3.7828 10
      vertex 3.75877 1.36808 15
    endloop
  endfacet
  facet normal 0.602596 0.718146 0.348058
    outer loop
      vertex 3.47459 4.65008 10
      vertex 3.06418 2.57115 15
      vertex 4.50817 3.7828 10
    endloop
  endfacet
  facet normal 0.602596 0.718146 0.348058
    outer loop
      vertex 2 3.4641 15
      vertex 3.06418 2.57115 15
      vertex 2.9425 5.09656 10
    endloop
  endfacet
  facet normal 0.602596 0.718146 0.348058
    outer loop
      vertex 2.9425 5.09656 10
      vertex 3.06418 2.57115 15
      vertex 3.47459 4.65008 10
    endloop
  endfacet
  facet normal 0.320635 0.880936 0.348058
    outer loop
      vertex 2.9425 5.09656 10
      vertex 1.67462 5.55803 10
      vertex 2 3.4641 15
    endloop
  endfacet
  facet normal 0.320634 0.880937 0.348058
    outer loop
      vertex 0.694593 3.93923 15
      vertex 2 3.4641 15
      vertex 1.02192 5.79559 10
    endloop
  endfacet
  facet normal 0.320634 0.880937 0.348058
    outer loop
      vertex 1.02192 5.79559 10
      vertex 2 3.4641 15
      vertex 1.67462 5.55803 10
    endloop
  endfacet
  facet normal 0 0.937473 0.348058
    outer loop
      vertex -1.02192 5.79559 10
      vertex -0.694593 3.93923 15
      vertex 1.02192 5.79559 10
    endloop
  endfacet
  facet normal 0 0.937473 0.348058
    outer loop
      vertex 1.02192 5.79559 10
      vertex -0.694593 3.93923 15
      vertex 0.694593 3.93923 15
    endloop
  endfacet
  facet normal -0.320635 0.880936 0.348058
    outer loop
      vertex -1.02192 5.79559 10
      vertex -2.2898 5.33412 10
      vertex -0.694593 3.93923 15
    endloop
  endfacet
  facet normal -0.320634 0.880937 0.348058
    outer loop
      vertex -2.9425 5.09656 10
      vertex -2 3.4641 15
      vertex -2.2898 5.33412 10
    endloop
  endfacet
  facet normal -0.320634 0.880937 0.348058
    outer loop
      vertex -2.2898 5.33412 10
      vertex -2 3.4641 15
      vertex -0.694593 3.93923 15
    endloop
  endfacet
  facet normal -0.602596 0.718146 0.348058
    outer loop
      vertex -2.9425 5.09656 10
      vertex -3.97608 4.22928 10
      vertex -2 3.4641 15
    endloop
  endfacet
  facet normal -0.602596 0.718146 0.348058
    outer loop
      vertex -4.50817 3.7828 10
      vertex -3.06418 2.57115 15
      vertex -3.97608 4.22928 10
    endloop
  endfacet
  facet normal -0.602596 0.718146 0.348058
    outer loop
      vertex -3.97608 4.22928 10
      vertex -3.06418 2.57115 15
      vertex -2 3.4641 15
    endloop
  endfacet
  facet normal -0.811875 0.468737 0.348058
    outer loop
      vertex -4.50817 3.7828 10
      vertex -5.18279 2.61432 10
      vertex -3.06418 2.57115 15
    endloop
  endfacet
  facet normal -0.811875 0.468736 0.348058
    outer loop
      vertex -5.53009 2.01279 10
      vertex -3.75877 1.36808 15
      vertex -5.18279 2.61432 10
    endloop
  endfacet
  facet normal -0.811875 0.468736 0.348058
    outer loop
      vertex -5.18279 2.61432 10
      vertex -3.75877 1.36808 15
      vertex -3.06418 2.57115 15
    endloop
  endfacet
  facet normal -0.923231 0.16279 0.348058
    outer loop
      vertex -5.53009 2.01279 10
      vertex -5.76438 0.68404 10
      vertex -3.75877 1.36808 15
    endloop
  endfacet
  facet normal 0 0 -1
    outer loop
      vertex -3 2.19668 5.99
      vertex -3 2.94449 5.99
      vertex -2.37287 4.0307 5.99
    endloop
  endfacet
  facet normal 0 0 -1
    outer loop
      vertex -3 2.19668 5.99
      vertex -2.37287 4.0307 5.99
      vertex 2.37287 4.0307 5.99
    endloop
  endfacet
  facet normal 0 0 -1
    outer loop
      vertex -3 2.19668 5.99
      vertex 2.37287 4.0307 5.99
      vertex 4.7 0 5.99
    endloop
  endfacet
  facet normal 0 0 -1
    outer loop
      vertex -3 2.19668 5.99
      vertex 4.7 0 5.99
      vertex -3.43174 2.19668 5.99
    endloop
  endfacet
  facet normal 0 0 -1
    outer loop
      vertex 4.7 0 5.99
      vertex 2.37287 -4.0307 5.99
      vertex -3.43174 2.19668 5.99
    endloop
  endfacet
  facet normal 0 0 -1
    outer loop
      vertex 2.37287 -4.0307 5.99
      vertex -2.37287 -4.0307 5.99
      vertex -3.43174 2.19668 5.99
    endloop
  endfacet
  facet normal 0 0 -1
    outer loop
      vertex -2.37287 -4.0307 5.99
      vertex -3 -2.94449 5.99
      vertex -3 -2.19668 5.99
    endloop
  endfacet
  facet normal 0 0 -1
    outer loop
      vertex -2.37287 -4.0307 5.99
      vertex -3 -2.19668 5.99
      vertex -3.43174 2.19668 5.99
    endloop
  endfacet
  facet normal 0 0 -1
    outer loop
      vertex -3.43174 -2.19668 5.99
      vertex -4.7 0 5.99
      vertex -3.43174 2.19668 5.99
    endloop
  endfacet
  facet normal 0 0 -1
    outer loop
      vertex -3.43174 -2.19668 5.99
      vertex -3.43174 2.19668 5.99
      vertex -3 -2.19668 5.99
    endloop
  endfacet
  facet normal 2.18671e-16 0.173648 -0.984808
    outer loop
      vertex 10 5.57655 7.53717
      vertex -3 5.57655 7.53717
      vertex 10 6.5 7.7
    endloop
  endfacet
  facet normal 2.18671e-16 0.173648 -0.984808
    outer loop
      vertex 10 6.5 7.7
      vertex -3 5.57655 7.53717
      vertex -3 6.5 7.7
    endloop
  endfacet
  facet normal 1.92296e-16 0.5 -0.866026
    outer loop
      vertex 10 4.76447 7.06832
      vertex -3 4.76447 7.06832
      vertex 10 5.57655 7.53717
    endloop
  endfacet
  facet normal 1.92296e-16 0.5 -0.866026
    outer loop
      vertex 10 5.57655 7.53717
      vertex -3 4.76447 7.06832
      vertex -3 5.57655 7.53717
    endloop
  endfacet
  facet normal 2.18671e-16 -0.173648 -0.984808
    outer loop
      vertex 10 7.42345 7.53717
      vertex 10 6.5 7.7
      vertex -3 7.42345 7.53717
    endloop
  endfacet
  facet normal 2.18671e-16 -0.173648 -0.984808
    outer loop
      vertex -3 7.42345 7.53717
      vertex 10 6.5 7.7
      vertex -3 6.5 7.7
    endloop
  endfacet
  facet normal 1.92296e-16 -0.5 -0.866026
    outer loop
      vertex 10 8.23553 7.06832
      vertex 10 7.42345 7.53717
      vertex -3 8.23553 7.06832
    endloop
  endfacet
  facet normal 1.92296e-16 -0.5 -0.866026
    outer loop
      vertex -3 8.23553 7.06832
      vertex 10 7.42345 7.53717
      vertex -3 7.42345 7.53717
    endloop
  endfacet
  facet normal 1.42728e-16 -0.766044 -0.642788
    outer loop
      vertex -3 8.83827 6.35
      vertex 10 8.83827 6.35
      vertex 10 8.23553 7.06832
    endloop
  endfacet
  facet normal 1.42728e-16 -0.766044 -0.642788
    outer loop
      vertex -3 8.23553 7.06832
      vertex -3 8.83827 6.35
      vertex 10 8.23553 7.06832
    endloop
  endfacet
  facet normal 7.59436e-17 -0.939693 -0.34202
    outer loop
      vertex -3 9.15898 5.46885
      vertex 10 9.15898 5.46885
      vertex 10 8.83827 6.35
    endloop
  endfacet
  facet normal 7.59436e-17 -0.939693 -0.34202
    outer loop
      vertex -3 8.83827 6.35
      vertex -3 9.15898 5.46885
      vertex 10 8.83827 6.35
    endloop
  endfacet
  facet normal 0 -1 0
    outer loop
      vertex -3 9.15898 4.53115
      vertex 10 9.15898 4.53115
      vertex 10 9.15898 5
    endloop
  endfacet
  facet normal 0 -1 0
    outer loop
      vertex -3 9.15898 5.46885
      vertex -3 9.15898 4.53115
      vertex 10 9.15898 5.46885
    endloop
  endfacet
  facet normal 0 -1 0
    outer loop
      vertex 10 9.15898 5.46885
      vertex -3 9.15898 4.53115
      vertex 10 9.15898 5
    endloop
  endfacet
  facet normal -7.59436e-17 -0.939693 0.34202
    outer loop
      vertex -3 8.83827 3.65
      vertex 10 8.83827 3.65
      vertex 10 9.15898 4.53115
    endloop
  endfacet
  facet normal -7.59436e-17 -0.939693 0.34202
    outer loop
      vertex -3 9.15898 4.53115
      vertex -3 8.83827 3.65
      vertex 10 9.15898 4.53115
    endloop
  endfacet
  facet normal -1.42728e-16 -0.766044 0.642788
    outer loop
      vertex -3 8.23553 2.93168
      vertex 10 8.23553 2.93168
      vertex 10 8.83827 3.65
    endloop
  endfacet
  facet normal -1.42728e-16 -0.766044 0.642788
    outer loop
      vertex -3 8.83827 3.65
      vertex -3 8.23553 2.93168
      vertex 10 8.83827 3.65
    endloop
  endfacet
  facet normal -1.92296e-16 -0.5 0.866026
    outer loop
      vertex -3 7.42345 2.46283
      vertex 10 7.42345 2.46283
      vertex 10 8.23553 2.93168
    endloop
  endfacet
  facet normal -1.92296e-16 -0.5 0.866026
    outer loop
      vertex -3 8.23553 2.93168
      vertex -3 7.42345 2.46283
      vertex 10 8.23553 2.93168
    endloop
  endfacet
  facet normal -2.18671e-16 -0.173648 0.984808
    outer loop
      vertex -3 6.5 2.3
      vertex 10 6.5 2.3
      vertex 10 7.42345 2.46283
    endloop
  endfacet
  facet normal -2.18671e-16 -0.173648 0.984808
    outer loop
      vertex -3 7.42345 2.46283
      vertex -3 6.5 2.3
      vertex 10 7.42345 2.46283
    endloop
  endfacet
  facet normal -2.18671e-16 0.173648 0.984808
    outer loop
      vertex 10 5.57655 2.46283
      vertex 10 6.5 2.3
      vertex -3 6.5 2.3
    endloop
  endfacet
  facet normal -2.18671e-16 0.173648 0.984808
    outer loop
      vertex -3 5.57655 2.46283
      vertex 10 5.57655 2.46283
      vertex -3 6.5 2.3
    endloop
  endfacet
  facet normal -1.92296e-16 0.5 0.866026
    outer loop
      vertex 10 4.76447 2.93168
      vertex 10 5.57655 2.46283
      vertex -3 5.57655 2.46283
    endloop
  endfacet
  facet normal -1.92296e-16 0.5 0.866026
    outer loop
      vertex -3 4.76447 2.93168
      vertex 10 4.76447 2.93168
      vertex -3 5.57655 2.46283
    endloop
  endfacet
  facet normal -1.42728e-16 0.766044 0.642788
    outer loop
      vertex 10 4.76447 2.93168
      vertex -3 4.76447 2.93168
      vertex 10 4.16173 3.65
    endloop
  endfacet
  facet normal -1.42728e-16 0.766044 0.642788
    outer loop
      vertex 10 4.16173 3.65
      vertex -3 4.76447 2.93168
      vertex -3 4.16173 3.65
    endloop
  endfacet
  facet normal -7.59436e-17 0.939693 0.34202
    outer loop
      vertex 10 3.84102 4.53115
      vertex 2.35 4.07032 3.90115
      vertex 2.48239 3.84102 4.53115
    endloop
  endfacet
  facet normal -7.59436e-17 0.939693 0.34202
    outer loop
      vertex 10 4.16173 3.65
      vertex 2.35 4.07032 3.90115
      vertex 10 3.84102 4.53115
    endloop
  endfacet
  facet normal -7.59436e-17 0.939693 0.34202
    outer loop
      vertex -2.35 4.07032 3.90115
      vertex 2.35 4.07032 3.90115
      vertex 10 4.16173 3.65
    endloop
  endfacet
  facet normal -7.59436e-17 0.939693 0.34202
    outer loop
      vertex -2.35 4.07032 3.90115
      vertex 10 4.16173 3.65
      vertex -3 4.16173 3.65
    endloop
  endfacet
  facet normal -7.59436e-17 0.939693 0.34202
    outer loop
      vertex -2.35 4.07032 3.90115
      vertex -3 4.16173 3.65
      vertex -2.48239 3.84102 4.53115
    endloop
  endfacet
  facet normal -7.59436e-17 0.939693 0.34202
    outer loop
      vertex -3 4.16173 3.65
      vertex -3 3.84102 4.53115
      vertex -2.48239 3.84102 4.53115
    endloop
  endfacet
  facet normal 0 1 0
    outer loop
      vertex -2.48239 3.84102 4.53115
      vertex -3 3.84102 4.53115
      vertex -2.48239 3.84102 5.46885
    endloop
  endfacet
  facet normal 0 1 0
    outer loop
      vertex -2.48239 3.84102 5.46885
      vertex -3 3.84102 4.53115
      vertex -3 3.84102 5.46885
    endloop
  endfacet
  facet normal 7.59436e-17 0.939693 -0.34202
    outer loop
      vertex 10 3.84102 5.46885
      vertex 2.48239 3.84102 5.46885
      vertex 10 4.16173 6.35
    endloop
  endfacet
  facet normal 7.59436e-17 0.939693 -0.34202
    outer loop
      vertex 10 4.16173 6.35
      vertex 2.48239 3.84102 5.46885
      vertex 2.37287 4.0307 5.99
    endloop
  endfacet
  facet normal 7.59436e-17 0.939693 -0.34202
    outer loop
      vertex 10 4.16173 6.35
      vertex 2.37287 4.0307 5.99
      vertex -2.37287 4.0307 5.99
    endloop
  endfacet
  facet normal 7.59436e-17 0.939693 -0.34202
    outer loop
      vertex -2.37287 4.0307 5.99
      vertex -2.48239 3.84102 5.46885
      vertex -3 3.84102 5.46885
    endloop
  endfacet
  facet normal 7.59436e-17 0.939693 -0.34202
    outer loop
      vertex -2.37287 4.0307 5.99
      vertex -3 3.84102 5.46885
      vertex -3 4.16173 6.35
    endloop
  endfacet
  facet normal 7.59436e-17 0.939693 -0.34202
    outer loop
      vertex -2.37287 4.0307 5.99
      vertex -3 4.16173 6.35
      vertex 10 4.16173 6.35
    endloop
  endfacet
  facet normal 1.42728e-16 0.766044 -0.642788
    outer loop
      vertex 10 4.16173 6.35
      vertex -3 4.16173 6.35
      vertex 10 4.76447 7.06832
    endloop
  endfacet
  facet normal 1.42728e-16 0.766044 -0.642788
    outer loop
      vertex 10 4.76447 7.06832
      vertex -3 4.16173 6.35
      vertex -3 4.76447 7.06832
    endloop
  endfacet
  facet normal 2.18671e-16 0.173648 -0.984808
    outer loop
      vertex -3 -6.5 7.7
      vertex 10 -6.5 7.7
      vertex -3 -7.42345 7.53717
    endloop
  endfacet
  facet normal 2.18671e-16 0.173648 -0.984808
    outer loop
      vertex -3 -7.42345 7.53717
      vertex 10 -6.5 7.7
      vertex 10 -7.42345 7.53717
    endloop
  endfacet
  facet normal 2.18671e-16 -0.173648 -0.984808
    outer loop
      vertex -3 -6.5 7.7
      vertex -3 -5.57655 7.53717
      vertex 10 -6.5 7.7
    endloop
  endfacet
  facet normal 2.18671e-16 -0.173648 -0.984808
    outer loop
      vertex 10 -6.5 7.7
      vertex -3 -5.57655 7.53717
      vertex 10 -5.57655 7.53717
    endloop
  endfacet
  facet normal 1.92296e-16 -0.5 -0.866026
    outer loop
      vertex -3 -5.57655 7.53717
      vertex -3 -4.76447 7.06832
      vertex 10 -5.57655 7.53717
    endloop
  endfacet
  facet normal 1.92296e-16 -0.5 -0.866026
    outer loop
      vertex 10 -5.57655 7.53717
      vertex -3 -4.76447 7.06832
      vertex 10 -4.76447 7.06832
    endloop
  endfacet
  facet normal 1.42728e-16 -0.766044 -0.642788
    outer loop
      vertex 10 -4.76447 7.06832
      vertex -3 -4.76447 7.06832
      vertex -3 -4.16173 6.35
    endloop
  endfacet
  facet normal 1.42728e-16 -0.766044 -0.642788
    outer loop
      vertex 10 -4.16173 6.35
      vertex 10 -4.76447 7.06832
      vertex -3 -4.16173 6.35
    endloop
  endfacet
  facet normal 7.59436e-17 -0.939693 -0.34202
    outer loop
      vertex -2.37287 -4.0307 5.99
      vertex -3 -4.16173 6.35
      vertex -3 -3.84102 5.46885
    endloop
  endfacet
  facet normal 7.59436e-17 -0.939693 -0.34202
    outer loop
      vertex 10 -4.16173 6.35
      vertex -3 -4.16173 6.35
      vertex -2.37287 -4.0307 5.99
    endloop
  endfacet
  facet normal 7.59436e-17 -0.939693 -0.34202
    outer loop
      vertex 2.37287 -4.0307 5.99
      vertex 2.48239 -3.84102 5.46885
      vertex 10 -4.16173 6.35
    endloop
  endfacet
  facet normal 7.59436e-17 -0.939693 -0.34202
    outer loop
      vertex 10 -4.16173 6.35
      vertex -2.37287 -4.0307 5.99
      vertex 2.37287 -4.0307 5.99
    endloop
  endfacet
  facet normal 7.59436e-17 -0.939693 -0.34202
    outer loop
      vertex 10 -3.84102 5.46885
      vertex 10 -4.16173 6.35
      vertex 2.48239 -3.84102 5.46885
    endloop
  endfacet
  facet normal 7.59436e-17 -0.939693 -0.34202
    outer loop
      vertex -2.48239 -3.84102 5.46885
      vertex -2.37287 -4.0307 5.99
      vertex -3 -3.84102 5.46885
    endloop
  endfacet
  facet normal 0 -1 0
    outer loop
      vertex -2.48239 -3.84102 5.46885
      vertex -3 -3.84102 5.46885
      vertex -3 -3.84102 4.53115
    endloop
  endfacet
  facet normal 0 -1 0
    outer loop
      vertex -2.48239 -3.84102 4.53115
      vertex -2.48239 -3.84102 5.46885
      vertex -3 -3.84102 4.53115
    endloop
  endfacet
  facet normal -7.59436e-17 -0.939693 0.34202
    outer loop
      vertex -2.48239 -3.84102 4.53115
      vertex -3 -3.84102 4.53115
      vertex -3 -4.16173 3.65
    endloop
  endfacet
  facet normal -7.59436e-17 -0.939693 0.34202
    outer loop
      vertex -2.35 -4.07032 3.90115
      vertex -2.48239 -3.84102 4.53115
      vertex -3 -4.16173 3.65
    endloop
  endfacet
  facet normal -7.59436e-17 -0.939693 0.34202
    outer loop
      vertex 10 -3.84102 4.53115
      vertex 2.48239 -3.84102 4.53115
      vertex 10 -4.16173 3.65
    endloop
  endfacet
  facet normal -7.59436e-17 -0.939693 0.34202
    outer loop
      vertex 10 -4.16173 3.65
      vertex 2.35 -4.07032 3.90115
      vertex -3 -4.16173 3.65
    endloop
  endfacet
  facet normal -7.59436e-17 -0.939693 0.34202
    outer loop
      vertex 2.35 -4.07032 3.90115
      vertex -2.35 -4.07032 3.90115
      vertex -3 -4.16173 3.65
    endloop
  endfacet
  facet normal -7.59436e-17 -0.939693 0.34202
    outer loop
      vertex 2.48239 -3.84102 4.53115
      vertex 2.35 -4.07032 3.90115
      vertex 10 -4.16173 3.65
    endloop
  endfacet
  facet normal -1.42728e-16 -0.766044 0.642788
    outer loop
      vertex 10 -4.16173 3.65
      vertex -3 -4.16173 3.65
      vertex -3 -4.76447 2.93168
    endloop
  endfacet
  facet normal -1.42728e-16 -0.766044 0.642788
    outer loop
      vertex 10 -4.76447 2.93168
      vertex 10 -4.16173 3.65
      vertex -3 -4.76447 2.93168
    endloop
  endfacet
  facet normal -1.92296e-16 -0.5 0.866026
    outer loop
      vertex 10 -4.76447 2.93168
      vertex -3 -4.76447 2.93168
      vertex -3 -5.57655 2.46283
    endloop
  endfacet
  facet normal -1.92296e-16 -0.5 0.866026
    outer loop
      vertex 10 -5.57655 2.46283
      vertex 10 -4.76447 2.93168
      vertex -3 -5.57655 2.46283
    endloop
  endfacet
  facet normal -2.18671e-16 -0.173648 0.984808
    outer loop
      vertex 10 -5.57655 2.46283
      vertex -3 -5.57655 2.46283
      vertex -3 -6.5 2.3
    endloop
  endfacet
  facet normal -2.18671e-16 -0.173648 0.984808
    outer loop
      vertex 10 -6.5 2.3
      vertex 10 -5.57655 2.46283
      vertex -3 -6.5 2.3
    endloop
  endfacet
  facet normal -2.18671e-16 0.173648 0.984808
    outer loop
      vertex -3 -6.5 2.3
      vertex -3 -7.42345 2.46283
      vertex 10 -7.42345 2.46283
    endloop
  endfacet
  facet normal -2.18671e-16 0.173648 0.984808
    outer loop
      vertex 10 -6.5 2.3
      vertex -3 -6.5 2.3
      vertex 10 -7.42345 2.46283
    endloop
  endfacet
  facet normal -1.92296e-16 0.5 0.866026
    outer loop
      vertex -3 -7.42345 2.46283
      vertex -3 -8.23553 2.93168
      vertex 10 -8.23553 2.93168
    endloop
  endfacet
  facet normal -1.92296e-16 0.5 0.866026
    outer loop
      vertex 10 -7.42345 2.46283
      vertex -3 -7.42345 2.46283
      vertex 10 -8.23553 2.93168
    endloop
  endfacet
  facet normal -1.42728e-16 0.766044 0.642788
    outer loop
      vertex -3 -8.83827 3.65
      vertex 10 -8.83827 3.65
      vertex -3 -8.23553 2.93168
    endloop
  endfacet
  facet normal -1.42728e-16 0.766044 0.642788
    outer loop
      vertex -3 -8.23553 2.93168
      vertex 10 -8.83827 3.65
      vertex 10 -8.23553 2.93168
    endloop
  endfacet
  facet normal -7.59436e-17 0.939693 0.34202
    outer loop
      vertex -3 -9.15898 4.53115
      vertex 10 -9.15898 4.53115
      vertex -3 -8.83827 3.65
    endloop
  endfacet
  facet normal -7.59436e-17 0.939693 0.34202
    outer loop
      vertex -3 -8.83827 3.65
      vertex 10 -9.15898 4.53115
      vertex 10 -8.83827 3.65
    endloop
  endfacet
  facet normal 0 1 0
    outer loop
      vertex -3 -9.15898 5.46885
      vertex 10 -9.15898 5.46885
      vertex -3 -9.15898 4.53115
    endloop
  endfacet
  facet normal 0 1 0
    outer loop
      vertex -3 -9.15898 4.53115
      vertex 10 -9.15898 5.46885
      vertex 10 -9.15898 5
    endloop
  endfacet
  facet normal 0 1 0
    outer loop
      vertex -3 -9.15898 4.53115
      vertex 10 -9.15898 5
      vertex 10 -9.15898 4.53115
    endloop
  endfacet
  facet normal 7.59436e-17 0.939693 -0.34202
    outer loop
      vertex -3 -8.83827 6.35
      vertex 10 -8.83827 6.35
      vertex -3 -9.15898 5.46885
    endloop
  endfacet
  facet normal 7.59436e-17 0.939693 -0.34202
    outer loop
      vertex -3 -9.15898 5.46885
      vertex 10 -8.83827 6.35
      vertex 10 -9.15898 5.46885
    endloop
  endfacet
  facet normal 1.42728e-16 0.766044 -0.642788
    outer loop
      vertex -3 -8.23553 7.06832
      vertex 10 -8.23553 7.06832
      vertex -3 -8.83827 6.35
    endloop
  endfacet
  facet normal 1.42728e-16 0.766044 -0.642788
    outer loop
      vertex -3 -8.83827 6.35
      vertex 10 -8.23553 7.06832
      vertex 10 -8.83827 6.35
    endloop
  endfacet
  facet normal 1.92296e-16 0.5 -0.866026
    outer loop
      vertex -3 -7.42345 7.53717
      vertex 10 -7.42345 7.53717
      vertex -3 -8.23553 7.06832
    endloop
  endfacet
  facet normal 1.92296e-16 0.5 -0.866026
    outer loop
      vertex -3 -8.23553 7.06832
      vertex 10 -7.42345 7.53717
      vertex 10 -8.23553 7.06832
    endloop
  endfacet
  facet normal 0 -1 0
    outer loop
      vertex 2.48239 -3.84102 5.46885
      vertex 2.48239 -3.84102 4.53115
      vertex 10 -3.84102 4.53115
    endloop
  endfacet
  facet normal 0 -1 0
    outer loop
      vertex 10 -3.84102 5.46885
      vertex 2.48239 -3.84102 5.46885
      vertex 10 -3.84102 5
    endloop
  endfacet
  facet normal 0 -1 0
    outer loop
      vertex 10 -3.84102 5
      vertex 2.48239 -3.84102 5.46885
      vertex 10 -3.84102 4.53115
    endloop
  endfacet
  facet normal 0 1 0
    outer loop
      vertex 10 3.84102 5.46885
      vertex 10 3.84102 5
      vertex 2.48239 3.84102 5.46885
    endloop
  endfacet
  facet normal 0 1 0
    outer loop
      vertex 2.48239 3.84102 5.46885
      vertex 10 3.84102 5
      vertex 10 3.84102 4.53115
    endloop
  endfacet
  facet normal 0 1 0
    outer loop
      vertex 2.48239 3.84102 5.46885
      vertex 10 3.84102 4.53115
      vertex 2.48239 3.84102 4.53115
    endloop
  endfacet
  facet normal 0 0 1
    outer loop
      vertex -3.75877 1.36808 15
      vertex -4 0 15
      vertex -3.75877 -1.36808 15
    endloop
  endfacet
  facet normal 0 0 1
    outer loop
      vertex -2 -3.4641 15
      vertex -3.75877 1.36808 15
      vertex -3.06418 -2.57115 15
    endloop
  endfacet
  facet normal 0 0 1
    outer loop
      vertex -3.06418 -2.57115 15
      vertex -3.75877 1.36808 15
      vertex -3.75877 -1.36808 15
    endloop
  endfacet
  facet normal 0 0 1
    outer loop
      vertex -2.53717 -0.923454 15
      vertex -3.75877 1.36808 15
      vertex -2 -3.4641 15
    endloop
  endfacet
  facet normal 0 0 1
    outer loop
      vertex -0.46885 2.65898 15
      vertex 0.46885 2.65898 15
      vertex 2 3.4641 15
    endloop
  endfacet
  facet normal 0 0 1
    outer loop
      vertex 1.35 2.33827 15
      vertex 2.06832 1.73553 15
      vertex 3.06418 2.57115 15
    endloop
  endfacet
  facet normal 0 0 1
    outer loop
      vertex -0.694593 3.93923 15
      vertex -3.75877 1.36808 15
      vertex 0.694593 3.93923 15
    endloop
  endfacet
  facet normal 0 0 1
    outer loop
      vertex -2 3.4641 15
      vertex -3.75877 1.36808 15
      vertex -0.694593 3.93923 15
    endloop
  endfacet
  facet normal 0 0 1
    outer loop
      vertex -3.06418 2.57115 15
      vertex -3.75877 1.36808 15
      vertex -2 3.4641 15
    endloop
  endfacet
  facet normal 0 0 1
    outer loop
      vertex -2.06832 -1.73553 15
      vertex -2.53717 -0.923454 15
      vertex -2 -3.4641 15
    endloop
  endfacet
  facet normal 0 0 1
    outer loop
      vertex 1.35 -2.33827 15
      vertex 0.46885 -2.65898 15
      vertex 2 -3.4641 15
    endloop
  endfacet
  facet normal 0 0 1
    outer loop
      vertex 2.06832 1.73553 15
      vertex 2.53717 0.923454 15
      vertex 3.75877 1.36808 15
    endloop
  endfacet
  facet normal 0 0 1
    outer loop
      vertex 0.46885 -2.65898 15
      vertex -0.46885 -2.65898 15
      vertex 0.694593 -3.93923 15
    endloop
  endfacet
  facet normal 0 0 1
    outer loop
      vertex 0.694593 3.93923 15
      vertex -3.75877 1.36808 15
      vertex -1.35 2.33827 15
    endloop
  endfacet
  facet normal 0 0 1
    outer loop
      vertex 0.694593 3.93923 15
      vertex -0.46885 2.65898 15
      vertex 2 3.4641 15
    endloop
  endfacet
  facet normal 0 0 1
    outer loop
      vertex 0.694593 3.93923 15
      vertex -1.35 2.33827 15
      vertex -0.46885 2.65898 15
    endloop
  endfacet
  facet normal 0 0 1
    outer loop
      vertex 2 3.4641 15
      vertex 0.46885 2.65898 15
      vertex 3.06418 2.57115 15
    endloop
  endfacet
  facet normal 0 0 1
    outer loop
      vertex 0.46885 2.65898 15
      vertex 1.35 2.33827 15
      vertex 3.06418 2.57115 15
    endloop
  endfacet
  facet normal 0 0 1
    outer loop
      vertex 3.06418 2.57115 15
      vertex 2.06832 1.73553 15
      vertex 3.75877 1.36808 15
    endloop
  endfacet
  facet normal 0 0 1
    outer loop
      vertex -2.06832 1.73553 15
      vertex -1.35 2.33827 15
      vertex -3.75877 1.36808 15
    endloop
  endfacet
  facet normal 0 0 1
    outer loop
      vertex 3.75877 1.36808 15
      vertex 2.53717 0.923454 15
      vertex 4 0 15
    endloop
  endfacet
  facet normal 0 0 1
    outer loop
      vertex 4 0 15
      vertex 2.7 0 15
      vertex 3.75877 -1.36808 15
    endloop
  endfacet
  facet normal 0 0 1
    outer loop
      vertex 2.7 0 15
      vertex 2.53717 -0.923454 15
      vertex 3.75877 -1.36808 15
    endloop
  endfacet
  facet normal 0 0 1
    outer loop
      vertex 3.75877 -1.36808 15
      vertex 2.06832 -1.73553 15
      vertex 3.06418 -2.57115 15
    endloop
  endfacet
  facet normal 0 0 1
    outer loop
      vertex 3.06418 -2.57115 15
      vertex 1.35 -2.33827 15
      vertex 2 -3.4641 15
    endloop
  endfacet
  facet normal 0 0 1
    outer loop
      vertex 2.53717 0.923454 15
      vertex 2.7 0 15
      vertex 4 0 15
    endloop
  endfacet
  facet normal 0 0 1
    outer loop
      vertex 2 -3.4641 15
      vertex 0.46885 -2.65898 15
      vertex 0.694593 -3.93923 15
    endloop
  endfacet
  facet normal 0 0 1
    outer loop
      vertex 2.53717 -0.923454 15
      vertex 2.06832 -1.73553 15
      vertex 3.75877 -1.36808 15
    endloop
  endfacet
  facet normal 0 0 1
    outer loop
      vertex 0.694593 -3.93923 15
      vertex -0.46885 -2.65898 15
      vertex -0.694593 -3.93923 15
    endloop
  endfacet
  facet normal 0 0 1
    outer loop
      vertex -0.46885 -2.65898 15
      vertex -1.35 -2.33827 15
      vertex -0.694593 -3.93923 15
    endloop
  endfacet
  facet normal 0 0 1
    outer loop
      vertex -0.694593 -3.93923 15
      vertex -2.06832 -1.73553 15
      vertex -2 -3.4641 15
    endloop
  endfacet
  facet normal 0 0 1
    outer loop
      vertex -2.53717 -0.923454 15
      vertex -2.7 0 15
      vertex -3.75877 1.36808 15
    endloop
  endfacet
  facet normal 0 0 1
    outer loop
      vertex -1.35 -2.33827 15
      vertex -2.06832 -1.73553 15
      vertex -0.694593 -3.93923 15
    endloop
  endfacet
  facet normal 0 0 1
    outer loop
      vertex -2.7 0 15
      vertex -2.53717 0.923454 15
      vertex -3.75877 1.36808 15
    endloop
  endfacet
  facet normal 0 0 1
    outer loop
      vertex 2.06832 -1.73553 15
      vertex 1.35 -2.33827 15
      vertex 3.06418 -2.57115 15
    endloop
  endfacet
  facet normal 0 0 1
    outer loop
      vertex -2.53717 0.923454 15
      vertex -2.06832 1.73553 15
      vertex -3.75877 1.36808 15
    endloop
  endfacet
  facet normal 0.984808 0.173648 0
    outer loop
      vertex -2.7 0 15
      vertex -2.53717 -0.923454 15
      vertex -2.53717 -0.923454 6.3
    endloop
  endfacet
  facet normal 0.984808 0.173648 0
    outer loop
      vertex -2.7 0 6.3
      vertex -2.7 0 15
      vertex -2.53717 -0.923454 6.3
    endloop
  endfacet
  facet normal 0.866026 0.5 0
    outer loop
      vertex -2.53717 -0.923454 15
      vertex -2.06832 -1.73553 15
      vertex -2.06832 -1.73553 6.3
    endloop
  endfacet
  facet normal 0.866026 0.5 0
    outer loop
      vertex -2.53717 -0.923454 6.3
      vertex -2.53717 -0.923454 15
      vertex -2.06832 -1.73553 6.3
    endloop
  endfacet
  facet normal 0.642788 0.766044 0
    outer loop
      vertex -1.35 -2.33827 15
      vertex -1.35 -2.33827 6.3
      vertex -2.06832 -1.73553 15
    endloop
  endfacet
  facet normal 0.642788 0.766044 0
    outer loop
      vertex -2.06832 -1.73553 15
      vertex -1.35 -2.33827 6.3
      vertex -2.06832 -1.73553 6.3
    endloop
  endfacet
  facet normal 0.34202 0.939693 0
    outer loop
      vertex -0.46885 -2.65898 15
      vertex -0.46885 -2.65898 6.3
      vertex -1.35 -2.33827 15
    endloop
  endfacet
  facet normal 0.34202 0.939693 0
    outer loop
      vertex -1.35 -2.33827 15
      vertex -0.46885 -2.65898 6.3
      vertex -1.35 -2.33827 6.3
    endloop
  endfacet
  facet normal 0 1 0
    outer loop
      vertex 0.46885 -2.65898 15
      vertex 0.46885 -2.65898 6.3
      vertex -0.46885 -2.65898 15
    endloop
  endfacet
  facet normal 0 1 0
    outer loop
      vertex -0.46885 -2.65898 15
      vertex 0.46885 -2.65898 6.3
      vertex -0.46885 -2.65898 6.3
    endloop
  endfacet
  facet normal -0.34202 0.939693 0
    outer loop
      vertex 1.35 -2.33827 15
      vertex 1.35 -2.33827 6.3
      vertex 0.46885 -2.65898 15
    endloop
  endfacet
  facet normal -0.34202 0.939693 0
    outer loop
      vertex 0.46885 -2.65898 15
      vertex 1.35 -2.33827 6.3
      vertex 0.46885 -2.65898 6.3
    endloop
  endfacet
  facet normal -0.642788 0.766044 0
    outer loop
      vertex 2.06832 -1.73553 15
      vertex 2.06832 -1.73553 6.3
      vertex 1.35 -2.33827 15
    endloop
  endfacet
  facet normal -0.642788 0.766044 0
    outer loop
      vertex 1.35 -2.33827 15
      vertex 2.06832 -1.73553 6.3
      vertex 1.35 -2.33827 6.3
    endloop
  endfacet
  facet normal -0.866026 0.5 0
    outer loop
      vertex 2.53717 -0.923454 15
      vertex 2.53717 -0.923454 6.3
      vertex 2.06832 -1.73553 15
    endloop
  endfacet
  facet normal -0.866026 0.5 0
    outer loop
      vertex 2.06832 -1.73553 15
      vertex 2.53717 -0.923454 6.3
      vertex 2.06832 -1.73553 6.3
    endloop
  endfacet
  facet normal -0.984808 0.173648 0
    outer loop
      vertex 2.7 0 15
      vertex 2.7 0 6.3
      vertex 2.53717 -0.923454 15
    endloop
  endfacet
  facet normal -0.984808 0.173648 0
    outer loop
      vertex 2.53717 -0.923454 15
      vertex 2.7 0 6.3
      vertex 2.53717 -0.923454 6.3
    endloop
  endfacet
  facet normal -0.984808 -0.173648 0
    outer loop
      vertex 2.7 0 15
      vertex 2.53717 0.923454 15
      vertex 2.7 0 6.3
    endloop
  endfacet
  facet normal -0.984808 -0.173648 0
    outer loop
      vertex 2.7 0 6.3
      vertex 2.53717 0.923454 15
      vertex 2.53717 0.923454 6.3
    endloop
  endfacet
  facet normal -0.866026 -0.5 0
    outer loop
      vertex 2.53717 0.923454 15
      vertex 2.06832 1.73553 15
      vertex 2.53717 0.923454 6.3
    endloop
  endfacet
  facet normal -0.866026 -0.5 0
    outer loop
      vertex 2.53717 0.923454 6.3
      vertex 2.06832 1.73553 15
      vertex 2.06832 1.73553 6.3
    endloop
  endfacet
  facet normal -0.642788 -0.766044 0
    outer loop
      vertex 2.06832 1.73553 6.3
      vertex 2.06832 1.73553 15
      vertex 1.35 2.33827 15
    endloop
  endfacet
  facet normal -0.642788 -0.766044 0
    outer loop
      vertex 1.35 2.33827 6.3
      vertex 2.06832 1.73553 6.3
      vertex 1.35 2.33827 15
    endloop
  endfacet
  facet normal -0.34202 -0.939693 0
    outer loop
      vertex 1.35 2.33827 6.3
      vertex 1.35 2.33827 15
      vertex 0.46885 2.65898 15
    endloop
  endfacet
  facet normal -0.34202 -0.939693 0
    outer loop
      vertex 0.46885 2.65898 6.3
      vertex 1.35 2.33827 6.3
      vertex 0.46885 2.65898 15
    endloop
  endfacet
  facet normal 0 -1 0
    outer loop
      vertex 0.46885 2.65898 6.3
      vertex 0.46885 2.65898 15
      vertex -0.46885 2.65898 15
    endloop
  endfacet
  facet normal 0 -1 0
    outer loop
      vertex -0.46885 2.65898 6.3
      vertex 0.46885 2.65898 6.3
      vertex -0.46885 2.65898 15
    endloop
  endfacet
  facet normal 0.34202 -0.939693 0
    outer loop
      vertex -0.46885 2.65898 6.3
      vertex -0.46885 2.65898 15
      vertex -1.35 2.33827 15
    endloop
  endfacet
  facet normal 0.34202 -0.939693 0
    outer loop
      vertex -1.35 2.33827 6.3
      vertex -0.46885 2.65898 6.3
      vertex -1.35 2.33827 15
    endloop
  endfacet
  facet normal 0.642788 -0.766044 0
    outer loop
      vertex -1.35 2.33827 6.3
      vertex -1.35 2.33827 15
      vertex -2.06832 1.73553 15
    endloop
  endfacet
  facet normal 0.642788 -0.766044 0
    outer loop
      vertex -2.06832 1.73553 6.3
      vertex -1.35 2.33827 6.3
      vertex -2.06832 1.73553 15
    endloop
  endfacet
  facet normal 0.866026 -0.5 0
    outer loop
      vertex -2.06832 1.73553 6.3
      vertex -2.06832 1.73553 15
      vertex -2.53717 0.923454 15
    endloop
  endfacet
  facet normal 0.866026 -0.5 0
    outer loop
      vertex -2.53717 0.923454 6.3
      vertex -2.06832 1.73553 6.3
      vertex -2.53717 0.923454 15
    endloop
  endfacet
  facet normal 0.984808 -0.173648 0
    outer loop
      vertex -2.53717 0.923454 6.3
      vertex -2.53717 0.923454 15
      vertex -2.7 0 15
    endloop
  endfacet
  facet normal 0.984808 -0.173648 0
    outer loop
      vertex -2.7 0 6.3
      vertex -2.53717 0.923454 6.3
      vertex -2.7 0 15
    endloop
  endfacet
  facet normal 0 0 1
    outer loop
      vertex -2.53717 -0.923454 6.3
      vertex -2.06832 -1.73553 6.3
      vertex -1.35 -2.33827 6.3
    endloop
  endfacet
  facet normal 0 0 1
    outer loop
      vertex 0.46885 -2.65898 6.3
      vertex -2.53717 -0.923454 6.3
      vertex -0.46885 -2.65898 6.3
    endloop
  endfacet
  facet normal 0 0 1
    outer loop
      vertex -0.46885 -2.65898 6.3
      vertex -2.53717 -0.923454 6.3
      vertex -1.35 -2.33827 6.3
    endloop
  endfacet
  facet normal 0 0 1
    outer loop
      vertex 1.35 -2.33827 6.3
      vertex -2.53717 -0.923454 6.3
      vertex 0.46885 -2.65898 6.3
    endloop
  endfacet
  facet normal 0 0 1
    outer loop
      vertex 2.06832 -1.73553 6.3
      vertex -2.53717 -0.923454 6.3
      vertex 1.35 -2.33827 6.3
    endloop
  endfacet
  facet normal 0 0 1
    outer loop
      vertex 2.53717 -0.923454 6.3
      vertex -2.53717 -0.923454 6.3
      vertex 2.06832 -1.73553 6.3
    endloop
  endfacet
  facet normal 0 0 1
    outer loop
      vertex 2.7 0 6.3
      vertex -2.53717 -0.923454 6.3
      vertex 2.53717 -0.923454 6.3
    endloop
  endfacet
  facet normal 0 0 1
    outer loop
      vertex 2.53717 0.923454 6.3
      vertex -2.53717 -0.923454 6.3
      vertex 2.7 0 6.3
    endloop
  endfacet
  facet normal 0 0 1
    outer loop
      vertex 2.06832 1.73553 6.3
      vertex -2.53717 -0.923454 6.3
      vertex 2.53717 0.923454 6.3
    endloop
  endfacet
  facet normal 0 0 1
    outer loop
      vertex 1.35 2.33827 6.3
      vertex -2.53717 -0.923454 6.3
      vertex 2.06832 1.73553 6.3
    endloop
  endfacet
  facet normal 0 0 1
    outer loop
      vertex 0.46885 2.65898 6.3
      vertex -2.53717 -0.923454 6.3
      vertex 1.35 2.33827 6.3
    endloop
  endfacet
  facet normal 0 0 1
    outer loop
      vertex -0.46885 2.65898 6.3
      vertex -2.53717 -0.923454 6.3
      vertex 0.46885 2.65898 6.3
    endloop
  endfacet
  facet normal 0 0 1
    outer loop
      vertex -1.35 2.33827 6.3
      vertex -2.53717 -0.923454 6.3
      vertex -0.46885 2.65898 6.3
    endloop
  endfacet
  facet normal 0 0 1
    outer loop
      vertex -2.06832 1.73553 6.3
      vertex -2.53717 -0.923454 6.3
      vertex -1.35 2.33827 6.3
    endloop
  endfacet
  facet normal 0 0 1
    outer loop
      vertex -2.53717 0.923454 6.3
      vertex -2.53717 -0.923454 6.3
      vertex -2.06832 1.73553 6.3
    endloop
  endfacet
  facet normal 0 0 1
    outer loop
      vertex -2.7 0 6.3
      vertex -2.53717 -0.923454 6.3
      vertex -2.53717 0.923454 6.3
    endloop
  endfacet
endsolid OpenSCAD_Model
